<?xml version="1.0" encoding="UTF-8"?>
<svg xmlns="http://www.w3.org/2000/svg" version="1.1" width="300" height="300" viewBox="0 0 300 300"><rect x="0" y="0" width="300" height="300" fill="#ffffff"/><g transform="scale(5.263)"><g transform="translate(0,0)"><path fill-rule="evenodd" d="M9 0L9 1L8 1L8 2L9 2L9 1L10 1L10 0ZM11 0L11 1L12 1L12 3L13 3L13 4L11 4L11 5L10 5L10 3L8 3L8 4L9 4L9 5L8 5L8 7L9 7L9 8L6 8L6 9L9 9L9 10L12 10L12 13L11 13L11 11L10 11L10 12L9 12L9 11L8 11L8 10L4 10L4 13L3 13L3 15L4 15L4 16L2 16L2 17L3 17L3 18L2 18L2 22L1 22L1 23L0 23L0 24L1 24L1 25L0 25L0 26L1 26L1 25L2 25L2 26L3 26L3 25L2 25L2 24L4 24L4 25L5 25L5 24L6 24L6 25L8 25L8 22L9 22L9 23L10 23L10 24L9 24L9 26L4 26L4 29L3 29L3 30L0 30L0 31L4 31L4 32L3 32L3 34L2 34L2 32L0 32L0 33L1 33L1 34L0 34L0 35L1 35L1 34L2 34L2 35L3 35L3 36L5 36L5 35L3 35L3 34L6 34L6 35L7 35L7 34L6 34L6 33L7 33L7 32L8 32L8 35L9 35L9 36L10 36L10 35L11 35L11 36L12 36L12 37L9 37L9 38L11 38L11 40L9 40L9 39L8 39L8 40L9 40L9 42L8 42L8 41L7 41L7 40L5 40L5 39L7 39L7 38L8 38L8 37L7 37L7 36L6 36L6 37L5 37L5 39L4 39L4 37L3 37L3 38L2 38L2 37L1 37L1 36L0 36L0 37L1 37L1 38L2 38L2 39L0 39L0 42L1 42L1 43L0 43L0 45L1 45L1 43L2 43L2 45L3 45L3 44L4 44L4 46L5 46L5 47L3 47L3 46L2 46L2 47L1 47L1 46L0 46L0 48L5 48L5 47L7 47L7 48L6 48L6 49L7 49L7 48L9 48L9 49L8 49L8 51L9 51L9 50L10 50L10 49L11 49L11 50L12 50L12 48L14 48L14 49L13 49L13 52L14 52L14 54L13 54L13 53L10 53L10 52L8 52L8 57L9 57L9 56L10 56L10 57L11 57L11 56L14 56L14 57L15 57L15 55L16 55L16 57L17 57L17 56L18 56L18 57L19 57L19 56L18 56L18 55L20 55L20 54L18 54L18 53L20 53L20 52L18 52L18 51L20 51L20 49L21 49L21 51L22 51L22 52L23 52L23 51L22 51L22 49L21 49L21 46L22 46L22 45L23 45L23 47L22 47L22 48L23 48L23 47L24 47L24 48L26 48L26 52L24 52L24 53L23 53L23 54L24 54L24 53L27 53L27 54L26 54L26 56L24 56L24 55L23 55L23 56L24 56L24 57L26 57L26 56L27 56L27 54L30 54L30 53L31 53L31 55L32 55L32 54L33 54L33 55L34 55L34 56L30 56L30 55L28 55L28 56L30 56L30 57L35 57L35 56L36 56L36 57L38 57L38 55L39 55L39 54L40 54L40 52L41 52L41 51L42 51L42 52L43 52L43 51L44 51L44 52L46 52L46 53L47 53L47 57L50 57L50 55L51 55L51 57L52 57L52 56L55 56L55 57L56 57L56 56L55 56L55 55L54 55L54 54L55 54L55 53L56 53L56 52L57 52L57 51L56 51L56 50L57 50L57 48L56 48L56 46L57 46L57 43L56 43L56 42L57 42L57 41L55 41L55 39L57 39L57 35L56 35L56 34L57 34L57 33L56 33L56 34L55 34L55 32L56 32L56 30L57 30L57 29L56 29L56 28L55 28L55 27L56 27L56 26L57 26L57 23L53 23L53 25L51 25L51 22L50 22L50 21L51 21L51 20L53 20L53 21L52 21L52 22L53 22L53 21L55 21L55 22L57 22L57 20L56 20L56 21L55 21L55 19L56 19L56 18L57 18L57 17L56 17L56 14L57 14L57 13L55 13L55 11L56 11L56 8L55 8L55 9L54 9L54 8L53 8L53 9L54 9L54 10L55 10L55 11L53 11L53 10L52 10L52 8L51 8L51 10L50 10L50 8L49 8L49 9L48 9L48 7L49 7L49 6L48 6L48 7L47 7L47 5L48 5L48 0L45 0L45 1L47 1L47 2L45 2L45 4L44 4L44 3L41 3L41 2L40 2L40 1L38 1L38 0L35 0L35 3L34 3L34 4L35 4L35 5L36 5L36 7L35 7L35 6L34 6L34 5L33 5L33 4L32 4L32 3L33 3L33 2L34 2L34 1L33 1L33 2L32 2L32 1L31 1L31 0L29 0L29 1L27 1L27 3L29 3L29 4L26 4L26 3L24 3L24 2L25 2L25 1L26 1L26 0L24 0L24 1L23 1L23 0L21 0L21 1L20 1L20 2L22 2L22 3L23 3L23 4L19 4L19 1L18 1L18 0L17 0L17 1L16 1L16 2L13 2L13 0ZM14 0L14 1L15 1L15 0ZM41 0L41 1L42 1L42 2L43 2L43 1L44 1L44 0ZM17 1L17 2L16 2L16 3L14 3L14 4L13 4L13 5L11 5L11 7L10 7L10 5L9 5L9 7L10 7L10 8L9 8L9 9L10 9L10 8L11 8L11 9L13 9L13 7L14 7L14 6L13 6L13 5L14 5L14 4L16 4L16 5L15 5L15 7L16 7L16 8L17 8L17 7L18 7L18 6L17 6L17 5L19 5L19 7L20 7L20 5L19 5L19 4L17 4L17 3L18 3L18 1ZM29 1L29 3L30 3L30 4L31 4L31 3L30 3L30 1ZM37 1L37 2L38 2L38 1ZM38 3L38 5L39 5L39 7L40 7L40 6L41 6L41 8L40 8L40 9L41 9L41 8L42 8L42 9L43 9L43 12L42 12L42 10L41 10L41 11L40 11L40 12L39 12L39 11L38 11L38 10L39 10L39 9L38 9L38 10L37 10L37 9L36 9L36 8L38 8L38 6L37 6L37 7L36 7L36 8L34 8L34 6L33 6L33 5L32 5L32 6L31 6L31 7L32 7L32 8L31 8L31 9L32 9L32 10L31 10L31 11L30 11L30 10L29 10L29 9L27 9L27 10L25 10L25 11L26 11L26 12L24 12L24 11L23 11L23 13L22 13L22 12L20 12L20 14L19 14L19 15L20 15L20 16L21 16L21 17L20 17L20 18L19 18L19 19L20 19L20 21L19 21L19 22L20 22L20 23L18 23L18 22L17 22L17 24L19 24L19 25L18 25L18 27L17 27L17 25L15 25L15 26L14 26L14 27L13 27L13 26L12 26L12 24L13 24L13 25L14 25L14 24L16 24L16 23L12 23L12 20L11 20L11 19L14 19L14 20L13 20L13 21L14 21L14 22L16 22L16 21L17 21L17 19L18 19L18 18L17 18L17 13L18 13L18 12L17 12L17 11L18 11L18 10L19 10L19 11L22 11L22 10L23 10L23 9L24 9L24 6L23 6L23 5L24 5L24 4L23 4L23 5L22 5L22 6L21 6L21 7L22 7L22 6L23 6L23 8L20 8L20 10L19 10L19 9L15 9L15 8L14 8L14 10L15 10L15 12L16 12L16 13L13 13L13 16L12 16L12 15L10 15L10 14L9 14L9 13L8 13L8 11L5 11L5 12L7 12L7 13L6 13L6 14L5 14L5 13L4 13L4 14L5 14L5 15L6 15L6 16L7 16L7 17L6 17L6 18L7 18L7 19L5 19L5 20L4 20L4 18L5 18L5 16L4 16L4 18L3 18L3 20L4 20L4 21L3 21L3 23L6 23L6 24L7 24L7 23L6 23L6 22L8 22L8 21L6 21L6 20L8 20L8 19L9 19L9 20L10 20L10 21L9 21L9 22L10 22L10 23L12 23L12 24L10 24L10 25L11 25L11 28L13 28L13 29L10 29L10 28L9 28L9 29L10 29L10 32L9 32L9 31L8 31L8 32L9 32L9 34L13 34L13 31L12 31L12 32L11 32L11 30L13 30L13 29L14 29L14 31L15 31L15 29L16 29L16 31L17 31L17 33L15 33L15 34L14 34L14 35L15 35L15 37L14 37L14 36L13 36L13 35L12 35L12 36L13 36L13 39L12 39L12 40L14 40L14 38L15 38L15 39L16 39L16 41L15 41L15 42L12 42L12 41L11 41L11 42L12 42L12 43L11 43L11 44L12 44L12 45L11 45L11 47L9 47L9 46L10 46L10 42L9 42L9 43L8 43L8 44L9 44L9 45L6 45L6 44L7 44L7 43L6 43L6 44L5 44L5 45L6 45L6 46L7 46L7 47L9 47L9 48L12 48L12 47L14 47L14 48L15 48L15 47L17 47L17 49L15 49L15 50L14 50L14 51L15 51L15 50L16 50L16 53L15 53L15 54L14 54L14 55L15 55L15 54L16 54L16 53L17 53L17 49L18 49L18 50L19 50L19 49L20 49L20 46L21 46L21 45L22 45L22 44L21 44L21 43L22 43L22 42L23 42L23 40L24 40L24 41L25 41L25 43L24 43L24 44L23 44L23 45L24 45L24 44L26 44L26 45L25 45L25 46L24 46L24 47L26 47L26 48L30 48L30 47L28 47L28 46L29 46L29 45L31 45L31 44L32 44L32 45L33 45L33 46L32 46L32 47L31 47L31 48L32 48L32 49L31 49L31 51L34 51L34 53L33 53L33 52L32 52L32 53L33 53L33 54L35 54L35 55L36 55L36 56L37 56L37 55L38 55L38 54L39 54L39 51L38 51L38 50L41 50L41 49L42 49L42 47L43 47L43 46L44 46L44 47L46 47L46 46L47 46L47 45L48 45L48 44L49 44L49 46L48 46L48 47L49 47L49 46L50 46L50 48L53 48L53 50L54 50L54 51L55 51L55 52L56 52L56 51L55 51L55 50L54 50L54 49L55 49L55 48L53 48L53 47L54 47L54 46L53 46L53 44L54 44L54 45L56 45L56 43L55 43L55 44L54 44L54 41L52 41L52 40L51 40L51 38L56 38L56 35L55 35L55 34L53 34L53 33L54 33L54 32L52 32L52 31L51 31L51 32L52 32L52 33L50 33L50 32L49 32L49 31L48 31L48 32L47 32L47 33L46 33L46 31L47 31L47 30L48 30L48 29L46 29L46 27L47 27L47 28L48 28L48 27L47 27L47 26L48 26L48 25L49 25L49 26L51 26L51 25L50 25L50 24L49 24L49 23L50 23L50 22L48 22L48 21L49 21L49 20L51 20L51 18L52 18L52 19L54 19L54 18L55 18L55 16L54 16L54 15L55 15L55 14L54 14L54 12L53 12L53 11L52 11L52 12L51 12L51 11L50 11L50 10L48 10L48 11L47 11L47 13L45 13L45 12L46 12L46 11L44 11L44 10L47 10L47 9L46 9L46 6L45 6L45 7L44 7L44 5L42 5L42 4L41 4L41 3ZM46 3L46 4L45 4L45 5L47 5L47 3ZM25 4L25 8L26 8L26 4ZM39 4L39 5L40 5L40 4ZM27 5L27 8L30 8L30 5ZM41 5L41 6L42 6L42 8L43 8L43 9L44 9L44 8L43 8L43 6L42 6L42 5ZM12 6L12 7L13 7L13 6ZM16 6L16 7L17 7L17 6ZM28 6L28 7L29 7L29 6ZM32 6L32 7L33 7L33 6ZM0 8L0 9L1 9L1 11L0 11L0 13L2 13L2 12L1 12L1 11L3 11L3 9L5 9L5 8ZM21 9L21 10L22 10L22 9ZM33 9L33 11L32 11L32 12L31 12L31 14L30 14L30 13L29 13L29 14L30 14L30 15L29 15L29 16L28 16L28 14L27 14L27 12L30 12L30 11L29 11L29 10L27 10L27 12L26 12L26 13L23 13L23 14L22 14L22 13L21 13L21 14L22 14L22 16L23 16L23 15L24 15L24 14L25 14L25 16L24 16L24 17L23 17L23 18L22 18L22 19L21 19L21 20L22 20L22 19L23 19L23 20L24 20L24 21L23 21L23 22L22 22L22 21L21 21L21 23L23 23L23 24L24 24L24 25L22 25L22 26L21 26L21 27L20 27L20 26L19 26L19 28L21 28L21 29L22 29L22 28L21 28L21 27L22 27L22 26L23 26L23 27L24 27L24 29L23 29L23 32L24 32L24 33L22 33L22 35L21 35L21 36L22 36L22 35L23 35L23 34L25 34L25 32L26 32L26 33L27 33L27 31L31 31L31 32L30 32L30 33L29 33L29 34L28 34L28 35L29 35L29 37L30 37L30 38L29 38L29 39L31 39L31 40L32 40L32 39L33 39L33 40L34 40L34 39L35 39L35 41L36 41L36 44L35 44L35 43L34 43L34 41L33 41L33 43L34 43L34 44L33 44L33 45L35 45L35 46L33 46L33 47L34 47L34 48L33 48L33 49L32 49L32 50L33 50L33 49L34 49L34 48L35 48L35 54L38 54L38 52L37 52L37 50L38 50L38 49L37 49L37 48L40 48L40 47L42 47L42 46L43 46L43 43L42 43L42 42L44 42L44 44L45 44L45 45L44 45L44 46L45 46L45 45L47 45L47 44L48 44L48 43L49 43L49 44L50 44L50 45L52 45L52 43L53 43L53 42L52 42L52 41L49 41L49 42L48 42L48 43L47 43L47 44L45 44L45 42L44 42L44 39L45 39L45 37L46 37L46 36L47 36L47 35L46 35L46 34L45 34L45 35L44 35L44 34L43 34L43 33L44 33L44 32L45 32L45 29L41 29L41 30L43 30L43 31L42 31L42 34L41 34L41 35L40 35L40 34L38 34L38 33L39 33L39 32L40 32L40 31L39 31L39 30L40 30L40 29L39 29L39 27L38 27L38 25L39 25L39 24L40 24L40 23L39 23L39 22L40 22L40 21L39 21L39 22L38 22L38 20L41 20L41 24L42 24L42 25L41 25L41 26L42 26L42 28L45 28L45 27L44 27L44 26L45 26L45 25L44 25L44 24L47 24L47 23L48 23L48 22L45 22L45 23L43 23L43 22L44 22L44 21L43 21L43 19L42 19L42 18L45 18L45 19L44 19L44 20L45 20L45 21L46 21L46 20L47 20L47 21L48 21L48 19L49 19L49 18L50 18L50 17L51 17L51 16L52 16L52 14L53 14L53 13L52 13L52 14L50 14L50 13L51 13L51 12L50 12L50 11L49 11L49 12L48 12L48 13L47 13L47 16L48 16L48 17L47 17L47 18L45 18L45 17L46 17L46 14L45 14L45 15L44 15L44 12L43 12L43 13L42 13L42 12L41 12L41 17L39 17L39 16L38 16L38 17L37 17L37 14L38 14L38 13L39 13L39 14L40 14L40 13L39 13L39 12L38 12L38 11L37 11L37 12L36 12L36 11L35 11L35 10L36 10L36 9L35 9L35 10L34 10L34 9ZM16 10L16 11L17 11L17 10ZM13 11L13 12L14 12L14 11ZM34 11L34 12L35 12L35 13L33 13L33 12L32 12L32 13L33 13L33 16L32 16L32 15L31 15L31 16L32 16L32 17L31 17L31 20L32 20L32 21L31 21L31 22L29 22L29 21L30 21L30 20L29 20L29 19L30 19L30 18L29 18L29 19L28 19L28 18L27 18L27 19L26 19L26 16L27 16L27 17L28 17L28 16L27 16L27 14L26 14L26 16L25 16L25 18L23 18L23 19L26 19L26 20L25 20L25 21L24 21L24 22L23 22L23 23L24 23L24 24L25 24L25 25L27 25L27 24L28 24L28 26L29 26L29 25L30 25L30 24L28 24L28 23L27 23L27 24L25 24L25 23L26 23L26 22L25 22L25 21L26 21L26 20L27 20L27 21L28 21L28 22L29 22L29 23L31 23L31 24L34 24L34 26L33 26L33 27L34 27L34 28L32 28L32 27L31 27L31 28L32 28L32 30L31 30L31 31L33 31L33 32L31 32L31 33L32 33L32 34L33 34L33 33L34 33L34 34L36 34L36 35L33 35L33 36L32 36L32 35L31 35L31 36L32 36L32 37L31 37L31 39L32 39L32 37L33 37L33 39L34 39L34 38L35 38L35 39L36 39L36 40L38 40L38 41L37 41L37 42L39 42L39 43L37 43L37 45L36 45L36 46L39 46L39 47L40 47L40 46L42 46L42 45L41 45L41 44L39 44L39 43L41 43L41 42L42 42L42 41L43 41L43 39L44 39L44 38L43 38L43 39L42 39L42 38L41 38L41 40L40 40L40 37L41 37L41 36L40 36L40 35L38 35L38 34L37 34L37 33L35 33L35 32L36 32L36 31L35 31L35 32L34 32L34 31L33 31L33 30L36 30L36 29L34 29L34 28L35 28L35 27L37 27L37 30L39 30L39 29L38 29L38 27L37 27L37 26L36 26L36 25L35 25L35 24L37 24L37 25L38 25L38 24L39 24L39 23L38 23L38 24L37 24L37 21L35 21L35 20L38 20L38 18L39 18L39 19L40 19L40 18L39 18L39 17L38 17L38 18L36 18L36 17L35 17L35 15L36 15L36 12L35 12L35 11ZM49 12L49 13L50 13L50 12ZM6 14L6 15L7 15L7 16L8 16L8 15L7 15L7 14ZM14 14L14 15L15 15L15 14ZM42 14L42 17L41 17L41 18L42 18L42 17L43 17L43 14ZM49 14L49 17L50 17L50 14ZM11 16L11 17L10 17L10 18L11 18L11 17L12 17L12 18L13 18L13 17L14 17L14 18L15 18L15 17L16 17L16 16L15 16L15 17L14 17L14 16L13 16L13 17L12 17L12 16ZM44 16L44 17L45 17L45 16ZM53 16L53 17L52 17L52 18L53 18L53 17L54 17L54 16ZM7 17L7 18L8 18L8 17ZM33 17L33 18L34 18L34 19L33 19L33 21L32 21L32 23L33 23L33 21L34 21L34 20L35 20L35 19L36 19L36 18L34 18L34 17ZM0 18L0 19L1 19L1 18ZM47 18L47 19L48 19L48 18ZM41 19L41 20L42 20L42 19ZM45 19L45 20L46 20L46 19ZM15 20L15 21L16 21L16 20ZM4 21L4 22L6 22L6 21ZM10 21L10 22L11 22L11 21ZM34 23L34 24L35 24L35 23ZM20 24L20 25L21 25L21 24ZM54 24L54 25L53 25L53 27L54 27L54 25L55 25L55 24ZM31 25L31 26L32 26L32 25ZM9 26L9 27L10 27L10 26ZM34 26L34 27L35 27L35 26ZM1 27L1 29L2 29L2 27ZM5 27L5 30L8 30L8 27ZM14 27L14 29L15 29L15 28L16 28L16 29L18 29L18 30L17 30L17 31L19 31L19 30L20 30L20 29L18 29L18 28L17 28L17 27ZM27 27L27 30L30 30L30 27ZM40 27L40 28L41 28L41 27ZM49 27L49 30L52 30L52 27ZM6 28L6 29L7 29L7 28ZM25 28L25 29L26 29L26 28ZM28 28L28 29L29 29L29 28ZM50 28L50 29L51 29L51 28ZM53 29L53 31L54 31L54 30L56 30L56 29ZM24 30L24 31L25 31L25 30ZM6 31L6 32L7 32L7 31ZM20 31L20 32L18 32L18 33L17 33L17 34L16 34L16 35L17 35L17 34L18 34L18 33L19 33L19 35L18 35L18 36L17 36L17 38L18 38L18 40L17 40L17 41L21 41L21 42L18 42L18 43L16 43L16 42L15 42L15 43L13 43L13 45L12 45L12 46L14 46L14 47L15 47L15 44L16 44L16 45L17 45L17 46L19 46L19 45L21 45L21 44L20 44L20 43L21 43L21 42L22 42L22 41L21 41L21 40L22 40L22 39L24 39L24 40L25 40L25 39L27 39L27 40L28 40L28 41L29 41L29 42L27 42L27 41L26 41L26 42L27 42L27 43L26 43L26 44L27 44L27 45L29 45L29 44L30 44L30 43L31 43L31 42L32 42L32 41L31 41L31 42L30 42L30 40L28 40L28 39L27 39L27 38L28 38L28 37L27 37L27 36L26 36L26 35L27 35L27 34L26 34L26 35L24 35L24 36L23 36L23 37L22 37L22 38L21 38L21 37L19 37L19 36L20 36L20 33L21 33L21 32L22 32L22 31ZM43 31L43 32L44 32L44 31ZM4 32L4 33L5 33L5 32ZM48 33L48 35L50 35L50 37L49 37L49 36L48 36L48 37L47 37L47 38L46 38L46 39L47 39L47 40L48 40L48 39L50 39L50 38L51 38L51 37L52 37L52 36L53 36L53 37L54 37L54 36L55 36L55 35L52 35L52 34L51 34L51 35L50 35L50 34L49 34L49 33ZM29 34L29 35L30 35L30 34ZM42 34L42 35L43 35L43 34ZM37 35L37 36L33 36L33 37L39 37L39 36L38 36L38 35ZM45 35L45 36L42 36L42 37L45 37L45 36L46 36L46 35ZM51 35L51 36L52 36L52 35ZM25 36L25 38L27 38L27 37L26 37L26 36ZM6 37L6 38L7 38L7 37ZM15 37L15 38L16 38L16 37ZM23 37L23 38L24 38L24 37ZM19 38L19 39L20 39L20 38ZM36 38L36 39L38 39L38 40L39 40L39 42L40 42L40 40L39 40L39 38ZM47 38L47 39L48 39L48 38ZM2 39L2 41L1 41L1 42L3 42L3 43L4 43L4 42L5 42L5 41L4 41L4 40L3 40L3 39ZM41 40L41 41L42 41L42 40ZM6 41L6 42L7 42L7 41ZM50 42L50 43L51 43L51 42ZM28 43L28 44L29 44L29 43ZM17 44L17 45L18 45L18 44ZM38 44L38 45L39 45L39 46L40 46L40 45L39 45L39 44ZM26 46L26 47L27 47L27 46ZM51 46L51 47L52 47L52 46ZM18 47L18 49L19 49L19 47ZM35 47L35 48L37 48L37 47ZM43 48L43 49L45 49L45 50L44 50L44 51L46 51L46 52L47 52L47 53L48 53L48 52L47 52L47 51L46 51L46 50L47 50L47 49L48 49L48 48L47 48L47 49L45 49L45 48ZM23 49L23 50L24 50L24 51L25 51L25 49ZM27 49L27 52L30 52L30 49ZM36 49L36 50L37 50L37 49ZM49 49L49 52L52 52L52 49ZM28 50L28 51L29 51L29 50ZM42 50L42 51L43 51L43 50ZM50 50L50 51L51 51L51 50ZM11 51L11 52L12 52L12 51ZM21 53L21 54L22 54L22 53ZM41 53L41 54L43 54L43 53ZM44 53L44 55L43 55L43 56L42 56L42 57L43 57L43 56L45 56L45 57L46 57L46 54L45 54L45 53ZM50 53L50 54L51 54L51 55L53 55L53 54L54 54L54 53L53 53L53 54L51 54L51 53ZM10 54L10 55L11 55L11 54ZM12 54L12 55L13 55L13 54ZM17 54L17 55L18 55L18 54ZM21 55L21 56L20 56L20 57L21 57L21 56L22 56L22 55ZM40 55L40 56L41 56L41 55ZM48 55L48 56L49 56L49 55ZM0 0L0 7L7 7L7 0ZM1 1L1 6L6 6L6 1ZM2 2L2 5L5 5L5 2ZM50 0L50 7L57 7L57 0ZM51 1L51 6L56 6L56 1ZM52 2L52 5L55 5L55 2ZM0 50L0 57L7 57L7 50ZM1 51L1 56L6 56L6 51ZM2 52L2 55L5 55L5 52Z" fill="#000000"/></g></g></svg>
