<?xml version="1.0" encoding="UTF-8"?>
<svg xmlns="http://www.w3.org/2000/svg" version="1.1" width="300" height="300" viewBox="0 0 300 300"><rect x="0" y="0" width="300" height="300" fill="#ffffff"/><g transform="scale(5.263)"><g transform="translate(0,0)"><path fill-rule="evenodd" d="M9 0L9 1L8 1L8 2L9 2L9 3L8 3L8 4L10 4L10 3L11 3L11 5L12 5L12 7L11 7L11 6L10 6L10 5L8 5L8 7L9 7L9 6L10 6L10 10L8 10L8 9L9 9L9 8L6 8L6 9L7 9L7 10L5 10L5 11L7 11L7 12L6 12L6 13L5 13L5 12L4 12L4 11L3 11L3 10L4 10L4 9L5 9L5 8L0 8L0 12L1 12L1 13L0 13L0 14L1 14L1 15L0 15L0 16L1 16L1 15L2 15L2 16L4 16L4 17L2 17L2 18L1 18L1 17L0 17L0 19L2 19L2 18L4 18L4 19L3 19L3 20L5 20L5 15L7 15L7 14L6 14L6 13L8 13L8 16L6 16L6 17L7 17L7 18L6 18L6 19L7 19L7 20L6 20L6 21L7 21L7 20L8 20L8 24L9 24L9 25L7 25L7 24L6 24L6 23L7 23L7 22L5 22L5 25L7 25L7 26L4 26L4 31L3 31L3 32L6 32L6 33L3 33L3 34L1 34L1 33L2 33L2 32L1 32L1 30L0 30L0 34L1 34L1 36L0 36L0 38L1 38L1 36L2 36L2 38L3 38L3 39L2 39L2 42L1 42L1 39L0 39L0 42L1 42L1 44L0 44L0 48L5 48L5 47L7 47L7 48L6 48L6 49L8 49L8 51L9 51L9 49L8 49L8 46L6 46L6 45L7 45L7 44L5 44L5 43L8 43L8 45L9 45L9 43L8 43L8 42L9 42L9 40L8 40L8 38L9 38L9 37L10 37L10 38L11 38L11 39L10 39L10 41L11 41L11 39L13 39L13 40L12 40L12 41L13 41L13 40L14 40L14 42L13 42L13 43L12 43L12 42L11 42L11 43L10 43L10 44L11 44L11 43L12 43L12 45L10 45L10 46L12 46L12 47L11 47L11 48L13 48L13 47L14 47L14 49L15 49L15 50L14 50L14 51L13 51L13 50L12 50L12 51L11 51L11 53L9 53L9 52L8 52L8 57L10 57L10 56L12 56L12 57L13 57L13 55L14 55L14 54L15 54L15 55L16 55L16 56L17 56L17 57L20 57L20 56L19 56L19 55L20 55L20 54L19 54L19 55L18 55L18 56L17 56L17 53L16 53L16 52L14 52L14 51L16 51L16 49L19 49L19 50L18 50L18 51L19 51L19 50L20 50L20 52L18 52L18 53L20 53L20 52L21 52L21 53L22 53L22 54L21 54L21 56L22 56L22 55L23 55L23 57L26 57L26 56L27 56L27 55L26 55L26 54L25 54L25 56L24 56L24 55L23 55L23 54L24 54L24 53L27 53L27 54L30 54L30 53L32 53L32 50L33 50L33 49L34 49L34 48L35 48L35 51L33 51L33 52L35 52L35 53L37 53L37 54L36 54L36 55L35 55L35 54L34 54L34 53L33 53L33 54L34 54L34 56L30 56L30 55L29 55L29 56L30 56L30 57L39 57L39 56L40 56L40 55L39 55L39 54L38 54L38 53L39 53L39 51L37 51L37 50L38 50L38 49L37 49L37 48L38 48L38 47L39 47L39 46L38 46L38 45L39 45L39 44L38 44L38 45L37 45L37 44L34 44L34 41L33 41L33 43L32 43L32 44L31 44L31 42L32 42L32 41L31 41L31 40L32 40L32 39L31 39L31 38L32 38L32 36L31 36L31 33L32 33L32 30L31 30L31 29L32 29L32 28L31 28L31 27L33 27L33 26L34 26L34 27L35 27L35 26L36 26L36 25L37 25L37 26L38 26L38 25L37 25L37 24L38 24L38 21L37 21L37 20L38 20L38 19L37 19L37 18L38 18L38 17L37 17L37 16L40 16L40 13L39 13L39 12L38 12L38 11L41 11L41 12L42 12L42 13L41 13L41 14L45 14L45 16L47 16L47 18L45 18L45 17L44 17L44 15L42 15L42 16L43 16L43 17L41 17L41 19L40 19L40 18L39 18L39 20L41 20L41 22L40 22L40 21L39 21L39 24L41 24L41 25L39 25L39 27L40 27L40 28L38 28L38 27L37 27L37 28L35 28L35 30L33 30L33 31L34 31L34 32L35 32L35 33L37 33L37 34L38 34L38 33L37 33L37 32L39 32L39 33L40 33L40 32L41 32L41 34L42 34L42 35L40 35L40 36L41 36L41 37L39 37L39 38L38 38L38 37L37 37L37 36L34 36L34 35L36 35L36 34L34 34L34 33L33 33L33 34L32 34L32 35L33 35L33 37L35 37L35 38L34 38L34 39L33 39L33 40L34 40L34 39L37 39L37 40L35 40L35 41L37 41L37 42L35 42L35 43L37 43L37 42L38 42L38 40L41 40L41 41L40 41L40 42L39 42L39 43L40 43L40 42L41 42L41 43L42 43L42 42L43 42L43 43L44 43L44 44L42 44L42 45L40 45L40 46L41 46L41 47L43 47L43 46L44 46L44 47L45 47L45 49L47 49L47 50L45 50L45 51L44 51L44 48L42 48L42 49L40 49L40 50L41 50L41 51L40 51L40 52L41 52L41 53L40 53L40 54L41 54L41 55L42 55L42 56L41 56L41 57L44 57L44 56L45 56L45 57L46 57L46 56L47 56L47 57L48 57L48 56L49 56L49 57L50 57L50 55L51 55L51 54L50 54L50 55L49 55L49 54L48 54L48 53L54 53L54 54L55 54L55 53L54 53L54 52L55 52L55 51L56 51L56 53L57 53L57 51L56 51L56 50L57 50L57 48L56 48L56 46L57 46L57 45L56 45L56 46L54 46L54 47L53 47L53 48L52 48L52 47L47 47L47 46L45 46L45 45L47 45L47 44L48 44L48 43L47 43L47 42L49 42L49 43L50 43L50 44L49 44L49 45L48 45L48 46L50 46L50 44L52 44L52 45L53 45L53 44L54 44L54 45L55 45L55 44L57 44L57 43L56 43L56 42L55 42L55 43L53 43L53 44L52 44L52 41L53 41L53 42L54 42L54 40L55 40L55 39L57 39L57 37L56 37L56 38L55 38L55 37L54 37L54 38L52 38L52 37L53 37L53 36L52 36L52 37L51 37L51 35L52 35L52 34L51 34L51 33L52 33L52 32L51 32L51 31L54 31L54 32L53 32L53 35L54 35L54 36L56 36L56 35L55 35L55 34L57 34L57 32L55 32L55 31L56 31L56 30L57 30L57 29L56 29L56 28L55 28L55 27L56 27L56 26L57 26L57 23L55 23L55 22L57 22L57 21L55 21L55 22L54 22L54 21L51 21L51 22L50 22L50 21L48 21L48 19L49 19L49 20L50 20L50 19L52 19L52 20L55 20L55 19L56 19L56 18L55 18L55 17L54 17L54 16L56 16L56 17L57 17L57 16L56 16L56 14L57 14L57 12L56 12L56 13L55 13L55 11L56 11L56 10L55 10L55 9L56 9L56 8L55 8L55 9L54 9L54 8L53 8L53 9L54 9L54 10L55 10L55 11L53 11L53 10L52 10L52 8L51 8L51 12L54 12L54 14L55 14L55 15L52 15L52 16L51 16L51 17L52 17L52 16L53 16L53 17L54 17L54 19L52 19L52 18L49 18L49 17L48 17L48 16L49 16L49 14L50 14L50 15L51 15L51 14L52 14L52 13L51 13L51 14L50 14L50 12L49 12L49 10L50 10L50 8L48 8L48 7L49 7L49 6L48 6L48 7L47 7L47 5L48 5L48 0L45 0L45 1L47 1L47 2L44 2L44 0L42 0L42 1L41 1L41 0L39 0L39 1L40 1L40 2L42 2L42 1L43 1L43 3L42 3L42 4L39 4L39 3L38 3L38 4L39 4L39 5L37 5L37 1L38 1L38 0L35 0L35 2L36 2L36 3L34 3L34 4L35 4L35 6L34 6L34 8L36 8L36 9L35 9L35 10L34 10L34 9L33 9L33 12L34 12L34 13L35 13L35 14L32 14L32 12L31 12L31 14L30 14L30 13L29 13L29 14L28 14L28 13L26 13L26 14L25 14L25 12L26 12L26 11L24 11L24 10L28 10L28 11L27 11L27 12L30 12L30 11L31 11L31 10L32 10L32 9L31 9L31 8L32 8L32 7L33 7L33 6L32 6L32 5L33 5L33 4L28 4L28 3L29 3L29 1L32 1L32 2L30 2L30 3L33 3L33 0L29 0L29 1L28 1L28 0L27 0L27 1L26 1L26 0L23 0L23 1L25 1L25 2L23 2L23 4L22 4L22 2L21 2L21 4L19 4L19 3L20 3L20 0L19 0L19 1L18 1L18 2L17 2L17 1L15 1L15 0L14 0L14 3L13 3L13 2L12 2L12 3L11 3L11 2L10 2L10 1L11 1L11 0ZM21 0L21 1L22 1L22 0ZM16 2L16 3L14 3L14 4L16 4L16 5L15 5L15 7L14 7L14 5L13 5L13 8L14 8L14 9L13 9L13 10L14 10L14 9L15 9L15 10L16 10L16 11L18 11L18 10L19 10L19 11L22 11L22 10L23 10L23 9L25 9L25 8L26 8L26 4L27 4L27 3L28 3L28 2L25 2L25 3L26 3L26 4L25 4L25 8L24 8L24 6L23 6L23 5L24 5L24 4L23 4L23 5L22 5L22 4L21 4L21 9L18 9L18 6L17 6L17 5L19 5L19 7L20 7L20 5L19 5L19 4L17 4L17 2ZM12 3L12 4L13 4L13 3ZM43 3L43 7L44 7L44 6L45 6L45 7L46 7L46 6L45 6L45 5L47 5L47 3L46 3L46 4L45 4L45 3ZM44 4L44 5L45 5L45 4ZM27 5L27 8L30 8L30 5ZM39 5L39 7L38 7L38 6L37 6L37 7L36 7L36 6L35 6L35 7L36 7L36 8L37 8L37 9L36 9L36 10L35 10L35 11L37 11L37 10L39 10L39 9L42 9L42 8L39 8L39 7L40 7L40 6L41 6L41 7L42 7L42 5ZM16 6L16 7L15 7L15 8L16 8L16 9L17 9L17 10L18 10L18 9L17 9L17 8L16 8L16 7L17 7L17 6ZM22 6L22 8L23 8L23 6ZM28 6L28 7L29 7L29 6ZM31 6L31 7L32 7L32 6ZM38 8L38 9L39 9L39 8ZM43 8L43 10L44 10L44 11L45 11L45 10L47 10L47 11L46 11L46 12L47 12L47 13L45 13L45 12L43 12L43 13L45 13L45 14L46 14L46 15L47 15L47 16L48 16L48 15L47 15L47 13L49 13L49 12L47 12L47 11L48 11L48 10L47 10L47 8ZM1 9L1 11L2 11L2 13L1 13L1 14L2 14L2 15L4 15L4 14L5 14L5 13L4 13L4 14L2 14L2 13L3 13L3 11L2 11L2 9ZM21 9L21 10L22 10L22 9ZM28 9L28 10L29 10L29 11L30 11L30 10L29 10L29 9ZM7 10L7 11L8 11L8 10ZM11 10L11 12L10 12L10 15L9 15L9 16L8 16L8 20L9 20L9 23L10 23L10 22L11 22L11 23L12 23L12 22L13 22L13 21L14 21L14 22L16 22L16 21L17 21L17 24L16 24L16 23L15 23L15 24L14 24L14 23L13 23L13 24L14 24L14 26L12 26L12 24L10 24L10 25L9 25L9 28L11 28L11 27L13 27L13 30L12 30L12 29L11 29L11 30L9 30L9 31L6 31L6 32L8 32L8 33L9 33L9 35L6 35L6 34L7 34L7 33L6 33L6 34L3 34L3 35L4 35L4 36L3 36L3 38L4 38L4 42L2 42L2 45L1 45L1 47L2 47L2 45L3 45L3 43L5 43L5 39L6 39L6 40L7 40L7 39L6 39L6 38L8 38L8 37L9 37L9 36L10 36L10 37L12 37L12 36L13 36L13 39L16 39L16 40L15 40L15 42L14 42L14 43L13 43L13 44L17 44L17 45L16 45L16 46L15 46L15 45L12 45L12 46L14 46L14 47L16 47L16 46L17 46L17 45L18 45L18 44L17 44L17 43L18 43L18 42L20 42L20 44L21 44L21 45L20 45L20 50L21 50L21 52L22 52L22 53L24 53L24 52L26 52L26 50L24 50L24 52L23 52L23 50L21 50L21 49L24 49L24 48L30 48L30 47L27 47L27 46L29 46L29 45L30 45L30 43L27 43L27 42L26 42L26 41L28 41L28 42L29 42L29 41L28 41L28 40L31 40L31 39L29 39L29 36L28 36L28 35L30 35L30 34L29 34L29 33L30 33L30 32L31 32L31 31L28 31L28 32L27 32L27 31L26 31L26 30L25 30L25 34L23 34L23 32L21 32L21 31L20 31L20 32L21 32L21 33L20 33L20 34L19 34L19 33L18 33L18 35L19 35L19 37L18 37L18 36L17 36L17 35L16 35L16 34L17 34L17 33L16 33L16 32L14 32L14 31L16 31L16 30L17 30L17 31L18 31L18 32L19 32L19 31L18 31L18 29L19 29L19 26L20 26L20 27L21 27L21 28L20 28L20 30L22 30L22 31L24 31L24 30L23 30L23 29L24 29L24 28L23 28L23 26L22 26L22 25L23 25L23 24L22 24L22 23L21 23L21 22L22 22L22 21L24 21L24 22L23 22L23 23L24 23L24 25L26 25L26 26L28 26L28 25L29 25L29 24L30 24L30 25L31 25L31 26L32 26L32 25L31 25L31 24L34 24L34 26L35 26L35 24L37 24L37 23L35 23L35 24L34 24L34 22L35 22L35 19L34 19L34 18L37 18L37 17L35 17L35 16L32 16L32 14L31 14L31 16L29 16L29 15L30 15L30 14L29 14L29 15L28 15L28 16L27 16L27 14L26 14L26 15L25 15L25 14L23 14L23 13L24 13L24 12L23 12L23 13L22 13L22 12L19 12L19 13L20 13L20 14L17 14L17 13L18 13L18 12L17 12L17 13L13 13L13 15L14 15L14 14L16 14L16 16L13 16L13 17L15 17L15 18L13 18L13 19L14 19L14 20L13 20L13 21L12 21L12 22L11 22L11 21L10 21L10 20L9 20L9 19L10 19L10 18L11 18L11 20L12 20L12 18L11 18L11 15L12 15L12 13L11 13L11 12L12 12L12 10ZM13 11L13 12L14 12L14 11ZM21 13L21 15L20 15L20 16L18 16L18 17L17 17L17 16L16 16L16 17L17 17L17 18L16 18L16 19L15 19L15 21L16 21L16 19L17 19L17 21L18 21L18 23L20 23L20 22L19 22L19 21L20 21L20 20L21 20L21 19L22 19L22 20L23 20L23 19L24 19L24 21L25 21L25 22L26 22L26 23L25 23L25 24L28 24L28 23L32 23L32 22L34 22L34 21L32 21L32 20L34 20L34 19L32 19L32 18L31 18L31 17L32 17L32 16L31 16L31 17L29 17L29 16L28 16L28 17L27 17L27 16L24 16L24 15L23 15L23 16L24 16L24 17L22 17L22 18L20 18L20 16L21 16L21 15L22 15L22 13ZM36 13L36 14L35 14L35 15L37 15L37 13ZM38 13L38 15L39 15L39 13ZM9 16L9 17L10 17L10 16ZM18 17L18 19L19 19L19 20L20 20L20 18L19 18L19 17ZM26 17L26 20L25 20L25 21L27 21L27 22L29 22L29 20L30 20L30 21L31 21L31 18L30 18L30 19L28 19L28 18L27 18L27 17ZM33 17L33 18L34 18L34 17ZM43 17L43 18L42 18L42 19L43 19L43 20L42 20L42 21L43 21L43 22L41 22L41 24L42 24L42 23L45 23L45 22L48 22L48 23L50 23L50 22L48 22L48 21L47 21L47 20L46 20L46 19L45 19L45 18L44 18L44 17ZM22 18L22 19L23 19L23 18ZM43 18L43 19L44 19L44 20L43 20L43 21L44 21L44 22L45 22L45 21L46 21L46 20L45 20L45 19L44 19L44 18ZM47 18L47 19L48 19L48 18ZM36 19L36 20L37 20L37 19ZM0 20L0 21L1 21L1 22L4 22L4 21L1 21L1 20ZM44 20L44 21L45 21L45 20ZM52 22L52 24L50 24L50 26L51 26L51 25L52 25L52 26L53 26L53 27L54 27L54 25L55 25L55 24L53 24L53 23L54 23L54 22ZM1 23L1 26L3 26L3 25L4 25L4 24L3 24L3 25L2 25L2 23ZM46 23L46 24L43 24L43 25L45 25L45 26L43 26L43 27L44 27L44 29L43 29L43 28L42 28L42 29L43 29L43 31L47 31L47 33L46 33L46 32L44 32L44 33L43 33L43 32L42 32L42 33L43 33L43 34L44 34L44 35L45 35L45 36L44 36L44 38L43 38L43 39L42 39L42 38L39 38L39 39L42 39L42 40L44 40L44 41L43 41L43 42L44 42L44 43L45 43L45 44L44 44L44 45L45 45L45 44L47 44L47 43L45 43L45 42L47 42L47 41L49 41L49 40L50 40L50 43L51 43L51 41L52 41L52 40L54 40L54 39L55 39L55 38L54 38L54 39L51 39L51 37L50 37L50 36L49 36L49 35L48 35L48 34L50 34L50 35L51 35L51 34L50 34L50 33L48 33L48 32L49 32L49 31L47 31L47 30L48 30L48 29L45 29L45 28L48 28L48 27L47 27L47 23ZM18 24L18 25L17 25L17 27L18 27L18 25L19 25L19 24ZM20 24L20 25L22 25L22 24ZM14 26L14 30L13 30L13 31L12 31L12 30L11 30L11 32L10 32L10 31L9 31L9 33L11 33L11 34L10 34L10 36L11 36L11 35L13 35L13 34L14 34L14 33L13 33L13 31L14 31L14 30L15 30L15 26ZM21 26L21 27L22 27L22 26ZM24 26L24 27L25 27L25 29L26 29L26 27L25 27L25 26ZM40 26L40 27L42 27L42 26ZM1 27L1 28L0 28L0 29L3 29L3 27ZM5 27L5 30L8 30L8 27ZM27 27L27 30L30 30L30 27ZM49 27L49 30L52 30L52 27ZM6 28L6 29L7 29L7 28ZM17 28L17 29L18 29L18 28ZM21 28L21 29L22 29L22 28ZM28 28L28 29L29 29L29 28ZM40 28L40 29L37 29L37 30L39 30L39 32L40 32L40 31L41 31L41 30L40 30L40 29L41 29L41 28ZM50 28L50 29L51 29L51 28ZM53 28L53 30L54 30L54 31L55 31L55 30L56 30L56 29L55 29L55 28ZM44 29L44 30L45 30L45 29ZM54 29L54 30L55 30L55 29ZM36 31L36 32L37 32L37 31ZM26 32L26 33L27 33L27 32ZM28 32L28 33L29 33L29 32ZM54 32L54 33L55 33L55 32ZM12 33L12 34L13 34L13 33ZM15 33L15 34L16 34L16 33ZM21 33L21 35L20 35L20 36L22 36L22 35L23 35L23 37L24 37L24 38L23 38L23 39L24 39L24 40L25 40L25 37L27 37L27 38L26 38L26 39L27 39L27 40L28 40L28 39L27 39L27 38L28 38L28 37L27 37L27 36L24 36L24 35L23 35L23 34L22 34L22 33ZM44 33L44 34L46 34L46 35L47 35L47 36L45 36L45 38L44 38L44 39L45 39L45 41L44 41L44 42L45 42L45 41L47 41L47 40L48 40L48 39L50 39L50 40L51 40L51 39L50 39L50 38L49 38L49 37L48 37L48 38L46 38L46 37L47 37L47 36L48 36L48 35L47 35L47 34L48 34L48 33L47 33L47 34L46 34L46 33ZM26 34L26 35L27 35L27 34ZM14 35L14 36L16 36L16 35ZM4 36L4 38L5 38L5 36ZM6 36L6 37L8 37L8 36ZM14 37L14 38L16 38L16 37ZM17 37L17 42L16 42L16 43L17 43L17 42L18 42L18 41L21 41L21 42L22 42L22 43L21 43L21 44L22 44L22 45L21 45L21 46L22 46L22 45L24 45L24 46L25 46L25 47L26 47L26 46L25 46L25 45L24 45L24 44L26 44L26 45L27 45L27 43L23 43L23 42L25 42L25 41L23 41L23 42L22 42L22 41L21 41L21 39L22 39L22 38L21 38L21 37L19 37L19 38L18 38L18 37ZM36 37L36 38L37 38L37 39L38 39L38 38L37 38L37 37ZM19 38L19 39L18 39L18 40L19 40L19 39L20 39L20 38ZM45 38L45 39L46 39L46 40L47 40L47 39L46 39L46 38ZM6 41L6 42L8 42L8 41ZM4 44L4 46L3 46L3 47L5 47L5 44ZM28 44L28 45L29 45L29 44ZM32 44L32 45L31 45L31 47L33 47L33 48L32 48L32 49L33 49L33 48L34 48L34 46L35 46L35 45L34 45L34 44ZM33 45L33 46L34 46L34 45ZM37 46L37 47L38 47L38 46ZM22 47L22 48L23 48L23 47ZM35 47L35 48L36 48L36 47ZM46 47L46 48L47 48L47 49L48 49L48 48L47 48L47 47ZM15 48L15 49L16 49L16 48ZM53 48L53 49L54 49L54 51L55 51L55 49L56 49L56 48ZM10 49L10 50L11 50L11 49ZM27 49L27 52L30 52L30 49ZM49 49L49 52L52 52L52 49ZM28 50L28 51L29 51L29 50ZM42 50L42 51L43 51L43 50ZM50 50L50 51L51 51L51 50ZM12 51L12 54L10 54L10 55L12 55L12 54L13 54L13 53L14 53L14 52L13 52L13 51ZM36 51L36 52L37 52L37 51ZM42 52L42 53L45 53L45 54L44 54L44 55L45 55L45 56L46 56L46 55L47 55L47 53L48 53L48 52ZM15 53L15 54L16 54L16 53ZM31 54L31 55L32 55L32 54ZM45 54L45 55L46 55L46 54ZM36 55L36 56L39 56L39 55ZM52 55L52 56L51 56L51 57L56 57L56 56L55 56L55 55ZM14 56L14 57L15 57L15 56ZM0 0L0 7L7 7L7 0ZM1 1L1 6L6 6L6 1ZM2 2L2 5L5 5L5 2ZM50 0L50 7L57 7L57 0ZM51 1L51 6L56 6L56 1ZM52 2L52 5L55 5L55 2ZM0 50L0 57L7 57L7 50ZM1 51L1 56L6 56L6 51ZM2 52L2 55L5 55L5 52Z" fill="#000000"/></g></g></svg>
