<?xml version="1.0" encoding="UTF-8"?>
<svg xmlns="http://www.w3.org/2000/svg" version="1.1" width="300" height="300" viewBox="0 0 300 300"><rect x="0" y="0" width="300" height="300" fill="#ffffff"/><g transform="scale(5.263)"><g transform="translate(0,0)"><path fill-rule="evenodd" d="M8 0L8 4L9 4L9 3L10 3L10 2L9 2L9 1L11 1L11 0ZM13 0L13 1L14 1L14 0ZM15 0L15 1L16 1L16 4L17 4L17 1L16 1L16 0ZM20 0L20 1L21 1L21 2L20 2L20 3L21 3L21 2L23 2L23 3L22 3L22 4L23 4L23 3L24 3L24 2L25 2L25 1L27 1L27 2L28 2L28 0L23 0L23 1L21 1L21 0ZM29 0L29 1L32 1L32 2L31 2L31 3L27 3L27 4L26 4L26 3L25 3L25 4L24 4L24 5L23 5L23 6L22 6L22 5L21 5L21 6L20 6L20 5L19 5L19 4L18 4L18 5L17 5L17 6L16 6L16 5L13 5L13 2L11 2L11 3L12 3L12 5L8 5L8 7L9 7L9 9L8 9L8 10L10 10L10 12L11 12L11 14L10 14L10 15L9 15L9 14L8 14L8 13L9 13L9 11L8 11L8 12L5 12L5 11L7 11L7 10L3 10L3 9L2 9L2 8L0 8L0 9L1 9L1 10L0 10L0 13L2 13L2 12L3 12L3 11L4 11L4 13L3 13L3 15L4 15L4 17L3 17L3 16L0 16L0 20L3 20L3 21L2 21L2 22L1 22L1 23L0 23L0 25L1 25L1 27L2 27L2 28L1 28L1 30L0 30L0 31L1 31L1 33L2 33L2 32L3 32L3 31L8 31L8 32L6 32L6 33L7 33L7 34L5 34L5 32L4 32L4 35L3 35L3 37L5 37L5 36L6 36L6 37L7 37L7 36L6 36L6 35L7 35L7 34L8 34L8 32L9 32L9 31L10 31L10 30L11 30L11 32L10 32L10 33L11 33L11 32L12 32L12 33L13 33L13 32L14 32L14 33L15 33L15 35L14 35L14 40L13 40L13 38L12 38L12 40L11 40L11 38L6 38L6 39L5 39L5 40L4 40L4 39L1 39L1 38L0 38L0 39L1 39L1 40L0 40L0 41L2 41L2 43L1 43L1 42L0 42L0 44L1 44L1 45L2 45L2 43L5 43L5 42L3 42L3 41L5 41L5 40L6 40L6 41L8 41L8 42L11 42L11 43L7 43L7 42L6 42L6 43L7 43L7 44L6 44L6 45L7 45L7 44L9 44L9 45L10 45L10 46L9 46L9 47L8 47L8 46L5 46L5 44L3 44L3 45L4 45L4 46L5 46L5 47L3 47L3 46L2 46L2 47L1 47L1 46L0 46L0 48L5 48L5 47L7 47L7 48L6 48L6 49L8 49L8 50L9 50L9 51L8 51L8 53L9 53L9 54L10 54L10 55L11 55L11 56L9 56L9 55L8 55L8 57L13 57L13 56L15 56L15 57L16 57L16 56L15 56L15 55L16 55L16 54L17 54L17 55L18 55L18 54L19 54L19 55L20 55L20 54L21 54L21 56L17 56L17 57L22 57L22 56L23 56L23 55L24 55L24 56L25 56L25 55L26 55L26 57L28 57L28 56L29 56L29 55L30 55L30 57L31 57L31 55L32 55L32 53L33 53L33 54L34 54L34 55L36 55L36 57L37 57L37 56L38 56L38 55L43 55L43 56L42 56L42 57L43 57L43 56L44 56L44 57L47 57L47 54L46 54L46 52L45 52L45 50L46 50L46 49L47 49L47 50L48 50L48 51L47 51L47 53L50 53L50 55L48 55L48 57L53 57L53 54L57 54L57 53L56 53L56 52L57 52L57 51L56 51L56 52L53 52L53 49L54 49L54 51L55 51L55 49L57 49L57 47L56 47L56 42L57 42L57 40L55 40L55 41L53 41L53 39L57 39L57 38L56 38L56 36L55 36L55 38L53 38L53 39L52 39L52 40L51 40L51 39L49 39L49 38L50 38L50 37L51 37L51 38L52 38L52 37L51 37L51 36L52 36L52 35L53 35L53 34L54 34L54 35L56 35L56 34L54 34L54 33L53 33L53 34L52 34L52 32L53 32L53 31L54 31L54 30L53 30L53 29L54 29L54 28L53 28L53 27L54 27L54 26L55 26L55 27L56 27L56 28L55 28L55 33L56 33L56 32L57 32L57 31L56 31L56 30L57 30L57 29L56 29L56 28L57 28L57 27L56 27L56 25L55 25L55 24L57 24L57 23L55 23L55 21L56 21L56 18L57 18L57 17L56 17L56 16L57 16L57 15L56 15L56 16L55 16L55 17L54 17L54 16L53 16L53 15L55 15L55 12L54 12L54 14L53 14L53 13L52 13L52 12L51 12L51 11L56 11L56 12L57 12L57 11L56 11L56 10L57 10L57 8L53 8L53 9L54 9L54 10L52 10L52 8L51 8L51 9L50 9L50 10L49 10L49 6L48 6L48 9L47 9L47 10L46 10L46 8L47 8L47 5L48 5L48 0L46 0L46 1L44 1L44 0L40 0L40 1L39 1L39 0L38 0L38 1L37 1L37 2L38 2L38 3L40 3L40 4L41 4L41 5L43 5L43 4L44 4L44 3L45 3L45 5L46 5L46 8L45 8L45 6L44 6L44 11L45 11L45 12L44 12L44 13L45 13L45 14L44 14L44 15L43 15L43 16L44 16L44 18L43 18L43 17L42 17L42 19L41 19L41 20L42 20L42 19L44 19L44 21L45 21L45 22L44 22L44 23L43 23L43 21L40 21L40 22L39 22L39 21L38 21L38 24L39 24L39 25L38 25L38 26L37 26L37 24L36 24L36 22L37 22L37 20L38 20L38 19L37 19L37 20L36 20L36 19L35 19L35 21L36 21L36 22L34 22L34 19L33 19L33 17L34 17L34 16L35 16L35 17L38 17L38 18L39 18L39 19L40 19L40 18L39 18L39 17L40 17L40 16L42 16L42 14L43 14L43 13L42 13L42 12L41 12L41 14L40 14L40 11L41 11L41 10L43 10L43 6L42 6L42 9L40 9L40 7L41 7L41 6L40 6L40 5L39 5L39 4L38 4L38 5L37 5L37 4L36 4L36 5L35 5L35 6L34 6L34 4L35 4L35 3L36 3L36 2L35 2L35 3L34 3L34 0ZM18 1L18 2L19 2L19 1ZM40 1L40 2L42 2L42 3L43 3L43 1ZM46 1L46 2L47 2L47 1ZM32 2L32 4L31 4L31 5L32 5L32 6L31 6L31 7L32 7L32 8L34 8L34 9L33 9L33 10L32 10L32 9L31 9L31 11L32 11L32 12L30 12L30 11L29 11L29 12L28 12L28 11L26 11L26 10L25 10L25 11L24 11L24 9L26 9L26 6L25 6L25 7L24 7L24 6L23 6L23 7L22 7L22 6L21 6L21 7L22 7L22 8L19 8L19 7L20 7L20 6L19 6L19 7L18 7L18 6L17 6L17 8L16 8L16 11L17 11L17 12L14 12L14 11L13 11L13 10L14 10L14 8L13 8L13 7L14 7L14 6L13 6L13 5L12 5L12 6L11 6L11 7L12 7L12 8L13 8L13 10L12 10L12 9L10 9L10 10L11 10L11 11L12 11L12 14L11 14L11 17L10 17L10 16L8 16L8 18L9 18L9 19L8 19L8 20L7 20L7 19L6 19L6 18L7 18L7 17L6 17L6 16L7 16L7 15L6 15L6 14L7 14L7 13L6 13L6 14L5 14L5 15L6 15L6 16L5 16L5 17L4 17L4 19L3 19L3 20L4 20L4 21L3 21L3 23L1 23L1 24L2 24L2 26L8 26L8 25L6 25L6 24L7 24L7 23L9 23L9 24L10 24L10 25L11 25L11 24L12 24L12 25L13 25L13 27L12 27L12 28L9 28L9 30L10 30L10 29L12 29L12 31L14 31L14 32L15 32L15 33L16 33L16 34L17 34L17 33L16 33L16 32L17 32L17 31L20 31L20 32L19 32L19 34L18 34L18 35L17 35L17 36L16 36L16 35L15 35L15 36L16 36L16 37L15 37L15 39L16 39L16 38L17 38L17 37L18 37L18 38L19 38L19 39L17 39L17 40L19 40L19 41L21 41L21 42L20 42L20 43L22 43L22 44L23 44L23 45L21 45L21 44L19 44L19 42L18 42L18 43L17 43L17 41L16 41L16 40L15 40L15 41L16 41L16 42L14 42L14 41L13 41L13 42L12 42L12 41L11 41L11 42L12 42L12 43L11 43L11 44L10 44L10 45L11 45L11 44L13 44L13 43L17 43L17 45L16 45L16 44L14 44L14 48L13 48L13 49L16 49L16 50L12 50L12 51L11 51L11 50L10 50L10 49L11 49L11 46L10 46L10 48L9 48L9 50L10 50L10 51L9 51L9 53L11 53L11 54L12 54L12 56L13 56L13 55L14 55L14 53L17 53L17 52L16 52L16 50L17 50L17 49L16 49L16 48L15 48L15 45L16 45L16 46L17 46L17 45L18 45L18 44L19 44L19 45L21 45L21 46L20 46L20 49L19 49L19 51L18 51L18 52L19 52L19 53L20 53L20 49L21 49L21 48L22 48L22 50L23 50L23 51L22 51L22 53L21 53L21 54L22 54L22 55L23 55L23 53L24 53L24 54L26 54L26 55L27 55L27 56L28 56L28 54L29 54L29 53L26 53L26 51L25 51L25 50L23 50L23 48L24 48L24 49L25 49L25 48L30 48L30 47L31 47L31 49L32 49L32 51L31 51L31 53L30 53L30 54L31 54L31 53L32 53L32 52L33 52L33 53L34 53L34 54L35 54L35 53L34 53L34 52L33 52L33 49L34 49L34 51L36 51L36 52L37 52L37 55L38 55L38 52L39 52L39 51L41 51L41 52L40 52L40 53L41 53L41 52L43 52L43 55L46 55L46 54L44 54L44 52L43 52L43 51L44 51L44 50L45 50L45 49L46 49L46 48L47 48L47 49L48 49L48 48L50 48L50 47L51 47L51 45L52 45L52 47L53 47L53 48L55 48L55 45L54 45L54 44L55 44L55 43L54 43L54 42L53 42L53 41L48 41L48 40L46 40L46 42L47 42L47 41L48 41L48 43L47 43L47 45L45 45L45 47L46 47L46 48L45 48L45 49L44 49L44 44L46 44L46 43L45 43L45 41L44 41L44 40L45 40L45 38L44 38L44 39L43 39L43 40L42 40L42 41L43 41L43 42L42 42L42 43L41 43L41 44L40 44L40 43L39 43L39 42L40 42L40 41L41 41L41 39L42 39L42 38L40 38L40 37L41 37L41 36L42 36L42 37L44 37L44 36L45 36L45 37L46 37L46 39L48 39L48 36L47 36L47 37L46 37L46 34L47 34L47 33L49 33L49 34L48 34L48 35L49 35L49 34L50 34L50 36L49 36L49 37L50 37L50 36L51 36L51 34L50 34L50 33L51 33L51 32L50 32L50 31L49 31L49 32L48 32L48 31L47 31L47 28L48 28L48 26L47 26L47 25L49 25L49 26L50 26L50 25L49 25L49 24L51 24L51 22L50 22L50 20L51 20L51 18L52 18L52 19L53 19L53 20L52 20L52 22L53 22L53 21L54 21L54 20L55 20L55 19L54 19L54 18L52 18L52 17L53 17L53 16L52 16L52 15L50 15L50 16L52 16L52 17L51 17L51 18L50 18L50 17L49 17L49 18L48 18L48 19L46 19L46 18L47 18L47 17L48 17L48 16L49 16L49 14L48 14L48 13L49 13L49 12L50 12L50 11L49 11L49 12L48 12L48 11L46 11L46 12L47 12L47 13L46 13L46 14L45 14L45 15L47 15L47 17L46 17L46 18L45 18L45 21L46 21L46 22L47 22L47 23L49 23L49 24L47 24L47 25L46 25L46 26L45 26L45 27L43 27L43 26L42 26L42 28L43 28L43 29L44 29L44 30L43 30L43 31L42 31L42 32L40 32L40 33L39 33L39 34L40 34L40 37L39 37L39 38L38 38L38 37L37 37L37 38L38 38L38 39L37 39L37 40L38 40L38 39L39 39L39 40L40 40L40 41L39 41L39 42L38 42L38 41L37 41L37 42L38 42L38 45L37 45L37 46L38 46L38 47L36 47L36 45L34 45L34 46L31 46L31 45L30 45L30 44L26 44L26 46L27 46L27 45L28 45L28 46L29 46L29 47L25 47L25 46L24 46L24 47L22 47L22 46L23 46L23 45L24 45L24 44L25 44L25 43L27 43L27 41L28 41L28 42L29 42L29 43L33 43L33 42L36 42L36 41L35 41L35 40L34 40L34 41L33 41L33 42L32 42L32 41L31 41L31 39L32 39L32 40L33 40L33 39L34 39L34 38L35 38L35 39L36 39L36 38L35 38L35 37L34 37L34 36L33 36L33 37L34 37L34 38L32 38L32 36L31 36L31 35L33 35L33 34L34 34L34 35L35 35L35 36L37 36L37 35L38 35L38 32L39 32L39 31L38 31L38 32L37 32L37 33L36 33L36 34L35 34L35 31L37 31L37 30L38 30L38 29L39 29L39 30L40 30L40 31L41 31L41 30L40 30L40 29L41 29L41 25L44 25L44 24L46 24L46 23L44 23L44 24L43 24L43 23L41 23L41 22L40 22L40 23L39 23L39 24L40 24L40 27L37 27L37 26L36 26L36 27L35 27L35 23L32 23L32 22L31 22L31 25L32 25L32 26L33 26L33 27L31 27L31 30L32 30L32 31L33 31L33 32L34 32L34 33L31 33L31 34L30 34L30 35L29 35L29 36L28 36L28 35L26 35L26 34L27 34L27 33L28 33L28 34L29 34L29 33L30 33L30 31L29 31L29 32L27 32L27 31L26 31L26 32L24 32L24 33L26 33L26 34L24 34L24 35L26 35L26 36L25 36L25 37L26 37L26 38L24 38L24 37L23 37L23 36L22 36L22 34L23 34L23 32L22 32L22 34L21 34L21 35L20 35L20 33L21 33L21 31L20 31L20 29L19 29L19 28L18 28L18 29L12 29L12 28L13 28L13 27L14 27L14 28L17 28L17 27L18 27L18 26L17 26L17 24L20 24L20 25L21 25L21 26L20 26L20 27L21 27L21 29L22 29L22 30L23 30L23 31L24 31L24 29L25 29L25 30L26 30L26 29L25 29L25 28L26 28L26 27L25 27L25 26L27 26L27 25L28 25L28 26L29 26L29 24L30 24L30 23L27 23L27 25L25 25L25 24L24 24L24 23L22 23L22 25L21 25L21 22L22 22L22 21L24 21L24 22L25 22L25 23L26 23L26 22L27 22L27 19L28 19L28 22L29 22L29 21L32 21L32 16L31 16L31 15L32 15L32 14L33 14L33 15L34 15L34 14L35 14L35 16L38 16L38 15L39 15L39 14L38 14L38 12L39 12L39 11L40 11L40 10L38 10L38 9L39 9L39 7L40 7L40 6L39 6L39 7L38 7L38 6L37 6L37 5L36 5L36 6L35 6L35 7L34 7L34 6L33 6L33 5L32 5L32 4L33 4L33 2ZM46 3L46 5L47 5L47 3ZM27 5L27 8L30 8L30 5ZM9 6L9 7L10 7L10 6ZM12 6L12 7L13 7L13 6ZM15 6L15 7L16 7L16 6ZM28 6L28 7L29 7L29 6ZM32 6L32 7L33 7L33 6ZM36 6L36 9L35 9L35 12L34 12L34 10L33 10L33 12L32 12L32 13L31 13L31 14L32 14L32 13L33 13L33 14L34 14L34 13L35 13L35 14L37 14L37 15L38 15L38 14L37 14L37 12L38 12L38 11L36 11L36 10L37 10L37 9L38 9L38 8L37 8L37 6ZM23 7L23 9L19 9L19 8L17 8L17 9L19 9L19 10L23 10L23 9L24 9L24 7ZM4 8L4 9L7 9L7 8ZM27 9L27 10L29 10L29 9ZM1 10L1 12L2 12L2 10ZM17 10L17 11L18 11L18 10ZM19 11L19 12L18 12L18 13L17 13L17 14L16 14L16 13L13 13L13 14L12 14L12 15L14 15L14 14L16 14L16 15L15 15L15 16L14 16L14 17L13 17L13 16L12 16L12 17L13 17L13 18L15 18L15 19L16 19L16 20L17 20L17 21L15 21L15 20L14 20L14 19L12 19L12 20L11 20L11 19L9 19L9 20L11 20L11 22L10 22L10 23L11 23L11 22L12 22L12 23L13 23L13 24L14 24L14 27L15 27L15 26L16 26L16 25L15 25L15 24L14 24L14 23L16 23L16 22L18 22L18 23L20 23L20 22L21 22L21 21L22 21L22 20L24 20L24 21L26 21L26 18L27 18L27 17L28 17L28 18L30 18L30 19L31 19L31 17L29 17L29 16L30 16L30 13L29 13L29 14L28 14L28 12L26 12L26 11L25 11L25 12L24 12L24 11L23 11L23 12L22 12L22 11ZM19 12L19 14L17 14L17 16L18 16L18 15L19 15L19 16L22 16L22 17L25 17L25 18L26 18L26 17L25 17L25 15L26 15L26 16L27 16L27 15L28 15L28 14L24 14L24 15L23 15L23 16L22 16L22 14L23 14L23 13L24 13L24 12L23 12L23 13L21 13L21 12ZM33 12L33 13L34 13L34 12ZM20 13L20 14L19 14L19 15L21 15L21 13ZM1 14L1 15L2 15L2 14ZM47 14L47 15L48 15L48 14ZM15 16L15 17L16 17L16 18L17 18L17 19L18 19L18 20L19 20L19 21L18 21L18 22L19 22L19 21L20 21L20 20L21 20L21 19L23 19L23 18L20 18L20 17L18 17L18 18L17 18L17 17L16 17L16 16ZM1 17L1 19L2 19L2 18L3 18L3 17ZM19 18L19 19L20 19L20 18ZM49 18L49 19L48 19L48 20L47 20L47 21L48 21L48 22L49 22L49 23L50 23L50 22L49 22L49 21L48 21L48 20L49 20L49 19L50 19L50 18ZM4 19L4 20L5 20L5 21L4 21L4 23L5 23L5 24L3 24L3 25L5 25L5 24L6 24L6 23L7 23L7 22L6 22L6 23L5 23L5 21L7 21L7 20L5 20L5 19ZM12 20L12 21L13 21L13 22L14 22L14 21L13 21L13 20ZM8 21L8 22L9 22L9 21ZM52 23L52 26L54 26L54 24L55 24L55 23ZM23 24L23 25L22 25L22 26L21 26L21 27L22 27L22 28L23 28L23 29L24 29L24 28L25 28L25 27L23 27L23 26L25 26L25 25L24 25L24 24ZM10 26L10 27L11 27L11 26ZM46 26L46 27L45 27L45 28L44 28L44 29L45 29L45 30L44 30L44 31L45 31L45 32L44 32L44 33L41 33L41 35L42 35L42 36L43 36L43 35L45 35L45 34L46 34L46 33L47 33L47 32L46 32L46 29L45 29L45 28L46 28L46 27L47 27L47 26ZM3 27L3 28L2 28L2 30L1 30L1 31L2 31L2 30L4 30L4 29L3 29L3 28L4 28L4 27ZM5 27L5 30L8 30L8 27ZM27 27L27 30L30 30L30 27ZM34 27L34 29L33 29L33 28L32 28L32 29L33 29L33 30L34 30L34 31L35 31L35 30L36 30L36 29L38 29L38 28L35 28L35 27ZM49 27L49 30L52 30L52 27ZM6 28L6 29L7 29L7 28ZM28 28L28 29L29 29L29 28ZM50 28L50 29L51 29L51 28ZM18 29L18 30L19 30L19 29ZM34 29L34 30L35 30L35 29ZM14 30L14 31L17 31L17 30ZM26 32L26 33L27 33L27 32ZM45 32L45 33L44 33L44 34L45 34L45 33L46 33L46 32ZM49 32L49 33L50 33L50 32ZM12 34L12 35L13 35L13 34ZM36 34L36 35L37 35L37 34ZM42 34L42 35L43 35L43 34ZM0 35L0 36L2 36L2 35ZM8 35L8 37L11 37L11 35L10 35L10 36L9 36L9 35ZM12 36L12 37L13 37L13 36ZM18 36L18 37L21 37L21 38L20 38L20 39L19 39L19 40L21 40L21 41L22 41L22 40L23 40L23 41L24 41L24 42L23 42L23 44L24 44L24 43L25 43L25 42L26 42L26 41L27 41L27 40L28 40L28 41L29 41L29 38L31 38L31 36L29 36L29 38L28 38L28 39L27 39L27 38L26 38L26 40L25 40L25 41L24 41L24 39L21 39L21 38L22 38L22 36ZM27 36L27 37L28 37L28 36ZM53 36L53 37L54 37L54 36ZM6 39L6 40L8 40L8 41L10 41L10 40L8 40L8 39ZM2 40L2 41L3 41L3 40ZM55 41L55 42L56 42L56 41ZM43 42L43 43L42 43L42 44L41 44L41 45L40 45L40 44L39 44L39 45L38 45L38 46L41 46L41 47L42 47L42 49L40 49L40 47L38 47L38 50L37 50L37 48L36 48L36 47L35 47L35 46L34 46L34 47L35 47L35 50L37 50L37 51L39 51L39 50L41 50L41 51L42 51L42 50L44 50L44 49L43 49L43 44L44 44L44 42ZM49 42L49 43L48 43L48 44L49 44L49 46L48 46L48 45L47 45L47 47L50 47L50 45L51 45L51 44L53 44L53 42L51 42L51 43L50 43L50 42ZM36 43L36 44L37 44L37 43ZM49 43L49 44L50 44L50 43ZM53 45L53 46L54 46L54 45ZM18 46L18 47L17 47L17 48L18 48L18 47L19 47L19 46ZM32 48L32 49L33 49L33 48ZM27 49L27 52L30 52L30 49ZM49 49L49 52L52 52L52 49ZM28 50L28 51L29 51L29 50ZM50 50L50 51L51 51L51 50ZM10 51L10 52L11 52L11 53L12 53L12 54L13 54L13 53L14 53L14 52L15 52L15 51L12 51L12 52L11 52L11 51ZM24 52L24 53L25 53L25 52ZM51 53L51 55L50 55L50 56L52 56L52 53ZM34 56L34 57L35 57L35 56ZM39 56L39 57L40 57L40 56ZM54 56L54 57L55 57L55 56ZM56 56L56 57L57 57L57 56ZM0 0L0 7L7 7L7 0ZM1 1L1 6L6 6L6 1ZM2 2L2 5L5 5L5 2ZM50 0L50 7L57 7L57 0ZM51 1L51 6L56 6L56 1ZM52 2L52 5L55 5L55 2ZM0 50L0 57L7 57L7 50ZM1 51L1 56L6 56L6 51ZM2 52L2 55L5 55L5 52Z" fill="#000000"/></g></g></svg>
