<?xml version="1.0" encoding="UTF-8"?>
<svg xmlns="http://www.w3.org/2000/svg" version="1.1" width="300" height="300" viewBox="0 0 300 300"><rect x="0" y="0" width="300" height="300" fill="#ffffff"/><g transform="scale(5.263)"><g transform="translate(0,0)"><path fill-rule="evenodd" d="M12 0L12 3L10 3L10 4L9 4L9 3L8 3L8 4L9 4L9 5L8 5L8 7L9 7L9 5L10 5L10 4L11 4L11 6L10 6L10 7L11 7L11 6L12 6L12 8L13 8L13 9L14 9L14 10L13 10L13 11L12 11L12 10L10 10L10 11L9 11L9 13L8 13L8 12L6 12L6 13L5 13L5 12L4 12L4 10L6 10L6 11L8 11L8 10L9 10L9 8L6 8L6 9L5 9L5 8L0 8L0 9L4 9L4 10L3 10L3 13L2 13L2 14L1 14L1 13L0 13L0 14L1 14L1 15L0 15L0 19L1 19L1 20L2 20L2 21L1 21L1 22L5 22L5 21L4 21L4 20L2 20L2 19L3 19L3 18L5 18L5 16L6 16L6 17L7 17L7 18L6 18L6 19L5 19L5 20L6 20L6 21L7 21L7 22L6 22L6 23L2 23L2 26L1 26L1 25L0 25L0 28L2 28L2 27L4 27L4 30L3 30L3 31L2 31L2 32L0 32L0 34L1 34L1 35L0 35L0 38L1 38L1 37L2 37L2 36L3 36L3 37L4 37L4 35L7 35L7 34L6 34L6 33L7 33L7 32L8 32L8 31L9 31L9 29L10 29L10 28L11 28L11 29L12 29L12 30L11 30L11 31L10 31L10 33L8 33L8 34L9 34L9 36L8 36L8 37L7 37L7 36L6 36L6 37L7 37L7 38L6 38L6 39L8 39L8 38L10 38L10 39L9 39L9 41L8 41L8 40L6 40L6 41L7 41L7 42L5 42L5 43L4 43L4 39L5 39L5 38L3 38L3 40L2 40L2 39L0 39L0 41L1 41L1 43L0 43L0 44L3 44L3 46L2 46L2 47L1 47L1 46L0 46L0 48L5 48L5 47L7 47L7 48L6 48L6 49L8 49L8 51L9 51L9 52L8 52L8 57L10 57L10 56L9 56L9 55L11 55L11 54L10 54L10 53L11 53L11 52L12 52L12 50L11 50L11 48L12 48L12 49L13 49L13 50L14 50L14 51L13 51L13 52L15 52L15 53L16 53L16 54L15 54L15 55L16 55L16 56L17 56L17 57L22 57L22 56L23 56L23 57L24 57L24 55L22 55L22 54L24 54L24 53L25 53L25 55L26 55L26 54L27 54L27 57L29 57L29 56L30 56L30 57L35 57L35 56L36 56L36 57L37 57L37 56L36 56L36 55L35 55L35 54L32 54L32 51L31 51L31 49L32 49L32 47L33 47L33 46L32 46L32 47L31 47L31 45L32 45L32 44L30 44L30 43L31 43L31 42L32 42L32 41L31 41L31 40L32 40L32 39L31 39L31 38L30 38L30 37L32 37L32 36L31 36L31 33L32 33L32 34L33 34L33 37L35 37L35 38L34 38L34 39L33 39L33 40L34 40L34 39L35 39L35 38L36 38L36 39L37 39L37 40L35 40L35 41L36 41L36 42L38 42L38 41L39 41L39 40L40 40L40 38L39 38L39 40L38 40L38 39L37 39L37 38L38 38L38 37L37 37L37 36L36 36L36 37L35 37L35 35L36 35L36 33L37 33L37 31L36 31L36 30L35 30L35 31L34 31L34 30L32 30L32 31L34 31L34 32L35 32L35 34L34 34L34 33L32 33L32 32L31 32L31 29L32 29L32 28L33 28L33 29L34 29L34 28L33 28L33 26L34 26L34 27L35 27L35 26L34 26L34 24L36 24L36 25L37 25L37 26L36 26L36 28L35 28L35 29L37 29L37 30L38 30L38 28L40 28L40 27L42 27L42 26L43 26L43 28L41 28L41 30L39 30L39 32L40 32L40 31L41 31L41 30L42 30L42 32L43 32L43 33L40 33L40 34L43 34L43 33L44 33L44 36L43 36L43 35L42 35L42 37L41 37L41 38L44 38L44 36L45 36L45 37L46 37L46 36L45 36L45 34L46 34L46 35L47 35L47 36L48 36L48 33L49 33L49 35L50 35L50 33L49 33L49 32L51 32L51 33L53 33L53 35L51 35L51 36L50 36L50 37L51 37L51 36L53 36L53 35L54 35L54 36L55 36L55 37L53 37L53 38L52 38L52 39L50 39L50 38L48 38L48 39L47 39L47 38L46 38L46 39L44 39L44 40L43 40L43 39L41 39L41 41L40 41L40 42L39 42L39 43L40 43L40 44L41 44L41 43L40 43L40 42L44 42L44 44L42 44L42 46L41 46L41 45L40 45L40 46L38 46L38 45L39 45L39 44L38 44L38 43L37 43L37 44L35 44L35 46L34 46L34 48L33 48L33 49L34 49L34 48L35 48L35 50L36 50L36 52L35 52L35 51L33 51L33 53L36 53L36 54L37 54L37 55L38 55L38 57L39 57L39 56L42 56L42 54L43 54L43 53L44 53L44 55L43 55L43 57L44 57L44 56L45 56L45 57L49 57L49 56L50 56L50 57L51 57L51 56L53 56L53 57L56 57L56 56L55 56L55 55L54 55L54 54L55 54L55 53L56 53L56 52L57 52L57 51L56 51L56 50L55 50L55 51L54 51L54 48L56 48L56 46L57 46L57 43L56 43L56 42L57 42L57 41L55 41L55 42L54 42L54 43L53 43L53 42L51 42L51 43L49 43L49 42L50 42L50 40L52 40L52 41L53 41L53 40L55 40L55 39L57 39L57 37L56 37L56 36L57 36L57 35L55 35L55 34L57 34L57 33L54 33L54 32L57 32L57 31L56 31L56 30L57 30L57 29L55 29L55 26L57 26L57 23L53 23L53 22L51 22L51 24L50 24L50 23L49 23L49 24L50 24L50 25L48 25L48 22L50 22L50 21L48 21L48 20L47 20L47 19L49 19L49 20L50 20L50 19L49 19L49 18L50 18L50 16L51 16L51 17L52 17L52 16L55 16L55 17L54 17L54 18L55 18L55 19L53 19L53 18L51 18L51 19L52 19L52 20L54 20L54 21L55 21L55 22L57 22L57 21L56 21L56 20L57 20L57 19L56 19L56 18L57 18L57 17L56 17L56 16L57 16L57 15L56 15L56 16L55 16L55 14L57 14L57 13L55 13L55 12L57 12L57 11L56 11L56 10L57 10L57 9L56 9L56 8L55 8L55 9L54 9L54 8L53 8L53 9L52 9L52 8L51 8L51 9L52 9L52 10L50 10L50 8L48 8L48 7L49 7L49 6L48 6L48 7L47 7L47 5L48 5L48 0L40 0L40 1L44 1L44 2L45 2L45 4L44 4L44 3L43 3L43 2L42 2L42 4L41 4L41 5L38 5L38 4L40 4L40 3L41 3L41 2L40 2L40 3L39 3L39 2L37 2L37 1L38 1L38 0L36 0L36 3L35 3L35 2L33 2L33 3L35 3L35 4L37 4L37 5L36 5L36 7L35 7L35 5L31 5L31 4L32 4L32 3L31 3L31 2L32 2L32 1L31 1L31 0L28 0L28 1L29 1L29 2L30 2L30 3L29 3L29 4L26 4L26 3L25 3L25 2L27 2L27 1L25 1L25 0L23 0L23 1L21 1L21 2L23 2L23 4L22 4L22 5L21 5L21 4L19 4L19 3L20 3L20 2L19 2L19 1L20 1L20 0L18 0L18 1L17 1L17 3L18 3L18 4L17 4L17 5L18 5L18 7L17 7L17 6L16 6L16 7L15 7L15 6L14 6L14 5L16 5L16 4L13 4L13 0ZM14 0L14 3L15 3L15 2L16 2L16 1L15 1L15 0ZM8 1L8 2L11 2L11 1ZM23 1L23 2L25 2L25 1ZM45 1L45 2L47 2L47 1ZM18 2L18 3L19 3L19 2ZM46 3L46 4L45 4L45 5L47 5L47 3ZM12 4L12 5L13 5L13 4ZM18 4L18 5L19 5L19 7L20 7L20 5L19 5L19 4ZM23 4L23 5L22 5L22 6L21 6L21 7L22 7L22 8L21 8L21 9L19 9L19 11L22 11L22 10L23 10L23 8L24 8L24 6L23 6L23 5L24 5L24 4ZM25 4L25 8L26 8L26 4ZM43 4L43 5L42 5L42 6L41 6L41 8L40 8L40 6L39 6L39 7L38 7L38 6L37 6L37 7L36 7L36 8L34 8L34 6L33 6L33 7L32 7L32 6L31 6L31 7L32 7L32 8L31 8L31 9L32 9L32 10L31 10L31 11L30 11L30 10L29 10L29 9L25 9L25 10L26 10L26 12L25 12L25 11L23 11L23 12L24 12L24 13L22 13L22 12L19 12L19 13L20 13L20 14L17 14L17 13L18 13L18 12L17 12L17 11L18 11L18 9L15 9L15 8L14 8L14 6L13 6L13 8L14 8L14 9L15 9L15 10L16 10L16 11L15 11L15 12L17 12L17 13L12 13L12 11L11 11L11 12L10 12L10 13L9 13L9 14L8 14L8 13L6 13L6 14L7 14L7 15L6 15L6 16L7 16L7 17L8 17L8 18L7 18L7 19L6 19L6 20L7 20L7 21L8 21L8 22L9 22L9 23L8 23L8 24L7 24L7 23L6 23L6 24L5 24L5 25L4 25L4 26L7 26L7 25L8 25L8 24L9 24L9 25L10 25L10 24L11 24L11 25L12 25L12 26L9 26L9 27L11 27L11 28L12 28L12 29L14 29L14 30L12 30L12 31L14 31L14 33L15 33L15 34L17 34L17 36L16 36L16 35L14 35L14 34L13 34L13 32L11 32L11 33L10 33L10 34L11 34L11 36L10 36L10 37L11 37L11 38L12 38L12 37L11 37L11 36L13 36L13 38L15 38L15 39L12 39L12 42L13 42L13 43L12 43L12 46L13 46L13 47L12 47L12 48L13 48L13 49L15 49L15 52L16 52L16 53L17 53L17 52L18 52L18 50L17 50L17 49L15 49L15 48L18 48L18 47L14 47L14 46L17 46L17 45L18 45L18 44L17 44L17 43L18 43L18 41L17 41L17 40L19 40L19 39L20 39L20 38L19 38L19 37L21 37L21 40L22 40L22 41L19 41L19 45L20 45L20 46L19 46L19 47L20 47L20 46L21 46L21 45L22 45L22 47L21 47L21 48L19 48L19 49L20 49L20 53L18 53L18 54L17 54L17 56L22 56L22 55L21 55L21 53L24 53L24 52L21 52L21 51L24 51L24 49L25 49L25 48L27 48L27 47L26 47L26 46L27 46L27 44L29 44L29 43L30 43L30 42L29 42L29 41L30 41L30 40L31 40L31 39L29 39L29 36L28 36L28 34L29 34L29 35L30 35L30 34L29 34L29 33L30 33L30 31L29 31L29 33L27 33L27 35L26 35L26 33L25 33L25 32L26 32L26 31L25 31L25 32L23 32L23 31L22 31L22 30L23 30L23 26L22 26L22 25L24 25L24 24L25 24L25 25L26 25L26 26L25 26L25 27L24 27L24 28L25 28L25 29L26 29L26 28L25 28L25 27L26 27L26 26L28 26L28 25L31 25L31 26L32 26L32 25L31 25L31 24L34 24L34 23L33 23L33 22L35 22L35 21L34 21L34 20L36 20L36 19L37 19L37 20L40 20L40 23L39 23L39 21L38 21L38 22L37 22L37 21L36 21L36 24L37 24L37 25L38 25L38 26L37 26L37 28L38 28L38 26L40 26L40 25L41 25L41 24L42 24L42 25L43 25L43 26L44 26L44 27L45 27L45 28L44 28L44 29L45 29L45 31L44 31L44 30L43 30L43 32L44 32L44 33L45 33L45 31L46 31L46 30L48 30L48 29L45 29L45 28L47 28L47 27L48 27L48 26L47 26L47 22L48 22L48 21L47 21L47 20L46 20L46 19L44 19L44 18L47 18L47 17L46 17L46 15L47 15L47 11L48 11L48 10L47 10L47 9L48 9L48 8L47 8L47 9L46 9L46 10L43 10L43 11L42 11L42 12L40 12L40 13L42 13L42 12L43 12L43 13L44 13L44 14L42 14L42 16L40 16L40 14L39 14L39 13L38 13L38 14L39 14L39 16L40 16L40 18L41 18L41 20L40 20L40 19L39 19L39 17L38 17L38 19L37 19L37 17L35 17L35 16L31 16L31 15L30 15L30 14L32 14L32 15L36 15L36 16L38 16L38 15L37 15L37 14L36 14L36 13L33 13L33 12L32 12L32 11L33 11L33 9L34 9L34 10L36 10L36 8L38 8L38 10L37 10L37 11L36 11L36 12L37 12L37 11L38 11L38 12L39 12L39 10L40 10L40 11L41 11L41 8L42 8L42 9L43 9L43 8L44 8L44 9L45 9L45 8L44 8L44 4ZM27 5L27 8L30 8L30 5ZM22 6L22 7L23 7L23 6ZM28 6L28 7L29 7L29 6ZM42 6L42 7L43 7L43 6ZM45 6L45 7L46 7L46 6ZM16 7L16 8L17 8L17 7ZM10 8L10 9L11 9L11 8ZM6 9L6 10L8 10L8 9ZM21 9L21 10L22 10L22 9ZM53 9L53 11L55 11L55 10L56 10L56 9L55 9L55 10L54 10L54 9ZM27 10L27 11L29 11L29 12L30 12L30 11L29 11L29 10ZM46 10L46 11L47 11L47 10ZM49 10L49 14L48 14L48 15L49 15L49 16L50 16L50 15L49 15L49 14L51 14L51 16L52 16L52 14L51 14L51 13L53 13L53 14L55 14L55 13L54 13L54 12L52 12L52 11L51 11L51 12L50 12L50 10ZM1 11L1 12L2 12L2 11ZM13 11L13 12L14 12L14 11ZM43 11L43 12L45 12L45 11ZM26 12L26 15L25 15L25 13L24 13L24 14L23 14L23 15L22 15L22 13L21 13L21 15L22 15L22 16L23 16L23 17L21 17L21 19L20 19L20 15L18 15L18 16L16 16L16 17L14 17L14 18L15 18L15 21L16 21L16 22L15 22L15 23L16 23L16 24L17 24L17 22L18 22L18 21L20 21L20 20L21 20L21 19L22 19L22 18L24 18L24 19L23 19L23 20L24 20L24 21L23 21L23 22L24 22L24 21L25 21L25 22L26 22L26 23L25 23L25 24L27 24L27 20L26 20L26 19L25 19L25 17L26 17L26 18L28 18L28 20L29 20L29 21L30 21L30 22L29 22L29 23L30 23L30 22L31 22L31 23L32 23L32 22L33 22L33 21L32 21L32 20L31 20L31 19L33 19L33 18L34 18L34 19L35 19L35 18L34 18L34 17L31 17L31 16L30 16L30 17L29 17L29 16L28 16L28 15L29 15L29 14L30 14L30 13L27 13L27 12ZM31 12L31 13L32 13L32 14L33 14L33 13L32 13L32 12ZM4 13L4 14L2 14L2 15L1 15L1 18L2 18L2 17L3 17L3 15L4 15L4 16L5 16L5 13ZM11 14L11 15L12 15L12 14ZM13 14L13 16L14 16L14 14ZM15 14L15 15L17 15L17 14ZM27 14L27 15L26 15L26 16L27 16L27 17L28 17L28 16L27 16L27 15L28 15L28 14ZM45 14L45 15L46 15L46 14ZM8 15L8 17L9 17L9 20L8 20L8 21L9 21L9 22L10 22L10 23L9 23L9 24L10 24L10 23L11 23L11 24L12 24L12 23L13 23L13 24L14 24L14 25L13 25L13 26L12 26L12 27L13 27L13 28L14 28L14 29L16 29L16 28L17 28L17 29L18 29L18 30L20 30L20 31L17 31L17 30L14 30L14 31L17 31L17 34L18 34L18 35L19 35L19 36L18 36L18 37L17 37L17 38L18 38L18 39L19 39L19 38L18 38L18 37L19 37L19 36L21 36L21 37L22 37L22 38L23 38L23 39L24 39L24 41L22 41L22 43L20 43L20 44L22 44L22 45L23 45L23 46L24 46L24 47L23 47L23 49L22 49L22 48L21 48L21 49L22 49L22 50L23 50L23 49L24 49L24 48L25 48L25 45L26 45L26 44L27 44L27 43L24 43L24 42L25 42L25 37L26 37L26 39L27 39L27 40L28 40L28 39L27 39L27 38L28 38L28 37L27 37L27 36L25 36L25 35L24 35L24 34L25 34L25 33L22 33L22 32L21 32L21 30L20 30L20 29L18 29L18 28L17 28L17 27L18 27L18 25L19 25L19 24L18 24L18 25L17 25L17 26L16 26L16 27L15 27L15 28L14 28L14 25L15 25L15 24L14 24L14 21L13 21L13 22L12 22L12 20L11 20L11 19L10 19L10 16L9 16L9 15ZM42 16L42 17L41 17L41 18L43 18L43 17L44 17L44 16ZM11 17L11 18L12 18L12 19L13 19L13 20L14 20L14 19L13 19L13 17ZM16 17L16 21L18 21L18 20L17 20L17 17ZM55 17L55 18L56 18L56 17ZM29 18L29 20L30 20L30 18ZM19 19L19 20L20 20L20 19ZM42 19L42 20L43 20L43 21L41 21L41 23L42 23L42 24L43 24L43 25L44 25L44 24L46 24L46 22L45 22L45 21L46 21L46 20L45 20L45 21L44 21L44 19ZM55 19L55 20L56 20L56 19ZM10 20L10 21L11 21L11 20ZM21 21L21 22L22 22L22 21ZM19 22L19 23L20 23L20 22ZM43 22L43 23L45 23L45 22ZM22 23L22 24L20 24L20 25L22 25L22 24L24 24L24 23ZM37 23L37 24L38 24L38 25L39 25L39 23ZM52 23L52 24L51 24L51 25L50 25L50 26L51 26L51 25L53 25L53 27L54 27L54 25L55 25L55 24L53 24L53 23ZM6 24L6 25L7 25L7 24ZM19 26L19 28L21 28L21 29L22 29L22 28L21 28L21 27L22 27L22 26L21 26L21 27L20 27L20 26ZM45 26L45 27L47 27L47 26ZM5 27L5 30L8 30L8 27ZM27 27L27 30L30 30L30 27ZM31 27L31 28L32 28L32 27ZM49 27L49 30L52 30L52 27ZM6 28L6 29L7 29L7 28ZM28 28L28 29L29 29L29 28ZM50 28L50 29L51 29L51 28ZM53 28L53 31L52 31L52 32L54 32L54 31L55 31L55 29L54 29L54 28ZM1 29L1 30L2 30L2 29ZM6 31L6 32L7 32L7 31ZM27 31L27 32L28 32L28 31ZM35 31L35 32L36 32L36 31ZM47 31L47 32L46 32L46 34L47 34L47 33L48 33L48 32L49 32L49 31ZM3 32L3 33L4 33L4 34L5 34L5 32ZM20 32L20 34L19 34L19 35L21 35L21 36L22 36L22 37L23 37L23 38L24 38L24 37L23 37L23 35L22 35L22 33L21 33L21 32ZM1 33L1 34L2 34L2 35L3 35L3 34L2 34L2 33ZM12 34L12 35L13 35L13 36L14 36L14 37L15 37L15 38L16 38L16 37L15 37L15 36L14 36L14 35L13 35L13 34ZM38 34L38 36L39 36L39 37L40 37L40 36L41 36L41 35L40 35L40 36L39 36L39 34ZM55 37L55 38L53 38L53 39L52 39L52 40L53 40L53 39L55 39L55 38L56 38L56 37ZM10 39L10 42L9 42L9 43L8 43L8 42L7 42L7 43L6 43L6 44L4 44L4 46L3 46L3 47L5 47L5 45L6 45L6 46L7 46L7 45L8 45L8 44L10 44L10 45L9 45L9 47L8 47L8 49L9 49L9 51L10 51L10 52L11 52L11 51L10 51L10 45L11 45L11 44L10 44L10 42L11 42L11 39ZM15 39L15 41L16 41L16 39ZM46 39L46 40L47 40L47 41L46 41L46 42L45 42L45 40L44 40L44 42L45 42L45 43L46 43L46 42L47 42L47 41L48 41L48 42L49 42L49 41L48 41L48 40L50 40L50 39L48 39L48 40L47 40L47 39ZM37 40L37 41L38 41L38 40ZM42 40L42 41L43 41L43 40ZM2 41L2 42L3 42L3 41ZM26 41L26 42L27 42L27 41ZM33 41L33 43L34 43L34 41ZM14 42L14 43L13 43L13 44L14 44L14 43L15 43L15 42ZM16 42L16 43L17 43L17 42ZM28 42L28 43L29 43L29 42ZM7 43L7 44L6 44L6 45L7 45L7 44L8 44L8 43ZM48 43L48 44L46 44L46 45L45 45L45 44L44 44L44 45L45 45L45 46L44 46L44 47L43 47L43 46L42 46L42 47L43 47L43 48L44 48L44 49L43 49L43 50L47 50L47 51L46 51L46 52L48 52L48 48L49 48L49 47L51 47L51 46L52 46L52 48L54 48L54 47L55 47L55 46L54 46L54 47L53 47L53 45L55 45L55 44L53 44L53 43L52 43L52 44L53 44L53 45L51 45L51 44L49 44L49 43ZM23 44L23 45L25 45L25 44ZM33 44L33 45L34 45L34 44ZM37 44L37 45L38 45L38 44ZM13 45L13 46L14 46L14 45ZM28 45L28 46L30 46L30 45ZM47 45L47 46L45 46L45 47L44 47L44 48L45 48L45 49L46 49L46 48L47 48L47 46L48 46L48 47L49 47L49 45ZM50 45L50 46L51 46L51 45ZM37 46L37 48L38 48L38 46ZM40 46L40 47L39 47L39 49L38 49L38 55L39 55L39 54L41 54L41 52L42 52L42 51L41 51L41 50L40 50L40 51L39 51L39 49L41 49L41 48L40 48L40 47L41 47L41 46ZM28 47L28 48L29 48L29 47ZM30 47L30 48L31 48L31 47ZM35 47L35 48L36 48L36 47ZM27 49L27 52L30 52L30 49ZM49 49L49 52L52 52L52 49ZM25 50L25 53L26 53L26 50ZM28 50L28 51L29 51L29 50ZM50 50L50 51L51 51L51 50ZM40 51L40 52L41 52L41 51ZM43 51L43 52L44 52L44 53L45 53L45 56L49 56L49 55L50 55L50 56L51 56L51 55L53 55L53 53L52 53L52 54L51 54L51 55L50 55L50 54L49 54L49 53L45 53L45 51ZM53 51L53 52L54 52L54 53L55 53L55 52L54 52L54 51ZM12 53L12 56L11 56L11 57L14 57L14 56L13 56L13 55L14 55L14 54L13 54L13 53ZM30 53L30 54L28 54L28 55L30 55L30 56L34 56L34 55L32 55L32 54L31 54L31 53ZM18 54L18 55L20 55L20 54ZM47 54L47 55L49 55L49 54ZM25 56L25 57L26 57L26 56ZM0 0L0 7L7 7L7 0ZM1 1L1 6L6 6L6 1ZM2 2L2 5L5 5L5 2ZM50 0L50 7L57 7L57 0ZM51 1L51 6L56 6L56 1ZM52 2L52 5L55 5L55 2ZM0 50L0 57L7 57L7 50ZM1 51L1 56L6 56L6 51ZM2 52L2 55L5 55L5 52Z" fill="#000000"/></g></g></svg>
