<?xml version="1.0" encoding="UTF-8"?>
<svg xmlns="http://www.w3.org/2000/svg" version="1.1" width="300" height="300" viewBox="0 0 300 300"><rect x="0" y="0" width="300" height="300" fill="#ffffff"/><g transform="scale(5.263)"><g transform="translate(0,0)"><path fill-rule="evenodd" d="M9 0L9 1L8 1L8 2L9 2L9 3L8 3L8 4L9 4L9 5L8 5L8 7L9 7L9 5L10 5L10 7L11 7L11 5L13 5L13 4L14 4L14 2L12 2L12 4L9 4L9 3L10 3L10 2L11 2L11 1L12 1L12 0L11 0L11 1L10 1L10 0ZM14 0L14 1L15 1L15 0ZM19 0L19 1L20 1L20 0ZM22 0L22 3L23 3L23 4L24 4L24 5L23 5L23 6L22 6L22 5L21 5L21 4L19 4L19 2L18 2L18 1L16 1L16 2L15 2L15 3L16 3L16 2L17 2L17 4L19 4L19 5L20 5L20 7L19 7L19 6L18 6L18 8L17 8L17 10L15 10L15 9L14 9L14 8L16 8L16 7L17 7L17 6L16 6L16 7L15 7L15 6L14 6L14 8L13 8L13 6L12 6L12 8L11 8L11 9L10 9L10 8L6 8L6 9L10 9L10 10L6 10L6 11L4 11L4 12L3 12L3 13L4 13L4 12L5 12L5 15L4 15L4 16L3 16L3 14L2 14L2 16L1 16L1 13L2 13L2 10L1 10L1 9L3 9L3 10L5 10L5 8L0 8L0 10L1 10L1 11L0 11L0 12L1 12L1 13L0 13L0 19L1 19L1 20L2 20L2 18L3 18L3 19L5 19L5 18L4 18L4 17L5 17L5 16L6 16L6 17L7 17L7 18L6 18L6 19L8 19L8 17L9 17L9 16L8 16L8 15L9 15L9 14L10 14L10 15L11 15L11 13L15 13L15 15L14 15L14 14L12 14L12 15L13 15L13 17L14 17L14 18L15 18L15 19L16 19L16 18L15 18L15 17L16 17L16 16L17 16L17 17L18 17L18 18L17 18L17 19L18 19L18 21L16 21L16 20L15 20L15 21L16 21L16 22L15 22L15 23L16 23L16 25L15 25L15 24L14 24L14 25L15 25L15 26L16 26L16 25L17 25L17 27L15 27L15 28L14 28L14 26L13 26L13 25L12 25L12 24L13 24L13 23L14 23L14 21L13 21L13 22L12 22L12 20L11 20L11 18L12 18L12 19L13 19L13 20L14 20L14 19L13 19L13 18L12 18L12 17L11 17L11 18L10 18L10 19L9 19L9 20L4 20L4 21L3 21L3 22L2 22L2 21L1 21L1 22L0 22L0 23L1 23L1 26L0 26L0 27L1 27L1 26L3 26L3 30L1 30L1 29L2 29L2 28L1 28L1 29L0 29L0 30L1 30L1 31L0 31L0 37L1 37L1 38L0 38L0 40L1 40L1 42L0 42L0 44L1 44L1 45L0 45L0 48L5 48L5 47L7 47L7 48L6 48L6 49L7 49L7 48L10 48L10 49L8 49L8 51L9 51L9 52L8 52L8 57L15 57L15 56L11 56L11 55L13 55L13 53L16 53L16 54L14 54L14 55L16 55L16 57L19 57L19 56L17 56L17 55L20 55L20 54L18 54L18 53L20 53L20 52L21 52L21 53L22 53L22 54L21 54L21 55L23 55L23 57L24 57L24 55L23 55L23 54L24 54L24 53L27 53L27 54L26 54L26 55L28 55L28 54L30 54L30 53L31 53L31 52L34 52L34 53L35 53L35 54L36 54L36 53L37 53L37 55L36 55L36 56L35 56L35 55L34 55L34 54L32 54L32 55L34 55L34 56L30 56L30 55L29 55L29 56L30 56L30 57L39 57L39 55L40 55L40 54L39 54L39 55L38 55L38 52L39 52L39 51L40 51L40 50L42 50L42 51L41 51L41 52L42 52L42 51L43 51L43 50L44 50L44 48L42 48L42 47L39 47L39 48L41 48L41 49L39 49L39 50L38 50L38 47L37 47L37 46L38 46L38 44L39 44L39 43L40 43L40 44L41 44L41 46L43 46L43 45L44 45L44 44L43 44L43 45L42 45L42 44L41 44L41 43L42 43L42 42L43 42L43 43L44 43L44 42L45 42L45 43L46 43L46 44L45 44L45 45L46 45L46 44L47 44L47 43L46 43L46 42L45 42L45 41L43 41L43 40L42 40L42 41L41 41L41 42L38 42L38 41L39 41L39 40L38 40L38 41L37 41L37 40L36 40L36 38L38 38L38 37L39 37L39 36L40 36L40 35L39 35L39 34L43 34L43 35L44 35L44 36L45 36L45 37L46 37L46 35L47 35L47 36L48 36L48 35L50 35L50 36L49 36L49 38L48 38L48 37L47 37L47 38L45 38L45 39L44 39L44 38L43 38L43 36L42 36L42 37L40 37L40 38L43 38L43 39L44 39L44 40L48 40L48 41L47 41L47 42L48 42L48 43L49 43L49 44L51 44L51 45L50 45L50 46L44 46L44 47L47 47L47 48L46 48L46 49L47 49L47 48L48 48L48 50L47 50L47 51L46 51L46 50L45 50L45 52L46 52L46 53L47 53L47 51L48 51L48 54L46 54L46 55L44 55L44 54L45 54L45 53L44 53L44 52L43 52L43 53L41 53L41 54L43 54L43 56L42 56L42 57L43 57L43 56L45 56L45 57L46 57L46 56L47 56L47 57L50 57L50 53L54 53L54 52L56 52L56 53L57 53L57 52L56 52L56 49L55 49L55 51L54 51L54 48L56 48L56 45L55 45L55 47L54 47L54 45L53 45L53 44L55 44L55 43L56 43L56 44L57 44L57 43L56 43L56 42L55 42L55 41L54 41L54 40L55 40L55 39L57 39L57 37L56 37L56 38L52 38L52 37L53 37L53 36L54 36L54 37L55 37L55 36L56 36L56 34L55 34L55 33L56 33L56 32L57 32L57 31L56 31L56 30L57 30L57 29L56 29L56 30L55 30L55 31L54 31L54 29L53 29L53 28L56 28L56 26L57 26L57 23L55 23L55 22L57 22L57 21L55 21L55 22L54 22L54 23L53 23L53 24L54 24L54 27L53 27L53 26L50 26L50 25L51 25L51 24L52 24L52 23L51 23L51 22L52 22L52 21L51 21L51 22L49 22L49 21L50 21L50 20L49 20L49 19L51 19L51 20L52 20L52 19L53 19L53 18L54 18L54 20L53 20L53 21L54 21L54 20L57 20L57 19L56 19L56 17L57 17L57 15L56 15L56 14L57 14L57 12L56 12L56 14L55 14L55 11L56 11L56 10L55 10L55 9L56 9L56 8L55 8L55 9L54 9L54 8L53 8L53 9L52 9L52 8L51 8L51 10L50 10L50 8L49 8L49 9L48 9L48 7L49 7L49 6L48 6L48 7L47 7L47 5L48 5L48 0L42 0L42 1L41 1L41 0L40 0L40 1L39 1L39 2L38 2L38 3L43 3L43 4L39 4L39 5L40 5L40 7L39 7L39 6L38 6L38 4L37 4L37 1L38 1L38 0L35 0L35 1L36 1L36 2L34 2L34 3L33 3L33 2L32 2L32 1L33 1L33 0L27 0L27 1L25 1L25 0ZM23 1L23 3L24 3L24 2L25 2L25 3L26 3L26 4L25 4L25 8L24 8L24 6L23 6L23 8L22 8L22 6L21 6L21 9L19 9L19 11L22 11L22 10L23 10L23 8L24 8L24 9L25 9L25 10L24 10L24 12L23 12L23 13L22 13L22 12L19 12L19 13L20 13L20 15L19 15L19 16L20 16L20 15L21 15L21 17L20 17L20 18L19 18L19 19L20 19L20 21L18 21L18 22L20 22L20 23L17 23L17 24L19 24L19 26L18 26L18 27L17 27L17 28L16 28L16 29L15 29L15 30L14 30L14 28L13 28L13 29L12 29L12 30L13 30L13 31L12 31L12 32L10 32L10 29L11 29L11 28L12 28L12 25L11 25L11 23L12 23L12 22L11 22L11 23L10 23L10 21L11 21L11 20L9 20L9 21L8 21L8 23L6 23L6 24L8 24L8 23L9 23L9 24L10 24L10 26L9 26L9 25L5 25L5 26L9 26L9 27L10 27L10 26L11 26L11 28L10 28L10 29L9 29L9 32L10 32L10 33L9 33L9 34L8 34L8 32L7 32L7 31L4 31L4 30L3 30L3 31L2 31L2 32L3 32L3 31L4 31L4 32L5 32L5 34L4 34L4 33L3 33L3 35L2 35L2 36L1 36L1 37L2 37L2 38L1 38L1 40L2 40L2 41L4 41L4 42L1 42L1 44L4 44L4 45L2 45L2 46L1 46L1 47L2 47L2 46L3 46L3 47L5 47L5 46L4 46L4 45L6 45L6 46L7 46L7 45L9 45L9 46L8 46L8 47L10 47L10 48L11 48L11 47L12 47L12 48L13 48L13 49L12 49L12 50L11 50L11 49L10 49L10 50L11 50L11 52L9 52L9 53L10 53L10 54L9 54L9 56L10 56L10 54L11 54L11 52L12 52L12 53L13 53L13 52L14 52L14 51L15 51L15 52L16 52L16 53L18 53L18 52L20 52L20 51L21 51L21 49L23 49L23 51L22 51L22 53L24 53L24 51L25 51L25 52L26 52L26 49L25 49L25 48L26 48L26 46L27 46L27 47L28 47L28 48L30 48L30 47L28 47L28 46L30 46L30 45L31 45L31 44L32 44L32 47L31 47L31 48L32 48L32 49L33 49L33 50L34 50L34 51L35 51L35 52L38 52L38 50L37 50L37 51L36 51L36 50L35 50L35 49L36 49L36 48L37 48L37 47L36 47L36 48L34 48L34 46L37 46L37 45L34 45L34 43L35 43L35 44L38 44L38 42L37 42L37 41L35 41L35 36L39 36L39 35L36 35L36 34L35 34L35 33L36 33L36 32L37 32L37 30L40 30L40 31L39 31L39 33L37 33L37 34L39 34L39 33L43 33L43 30L44 30L44 29L45 29L45 30L47 30L47 31L48 31L48 30L47 30L47 24L49 24L49 25L50 25L50 23L49 23L49 22L48 22L48 21L49 21L49 20L48 20L48 21L47 21L47 20L46 20L46 19L49 19L49 18L47 18L47 16L48 16L48 17L49 17L49 16L50 16L50 15L49 15L49 14L48 14L48 15L47 15L47 16L46 16L46 17L45 17L45 16L43 16L43 15L46 15L46 14L47 14L47 13L48 13L48 12L47 12L47 11L49 11L49 13L50 13L50 14L51 14L51 15L55 15L55 16L56 16L56 15L55 15L55 14L53 14L53 13L54 13L54 12L50 12L50 11L49 11L49 10L48 10L48 9L46 9L46 8L47 8L47 7L46 7L46 6L45 6L45 5L47 5L47 3L46 3L46 4L45 4L45 2L47 2L47 1L42 1L42 2L44 2L44 4L43 4L43 5L44 5L44 6L43 6L43 7L42 7L42 6L41 6L41 8L39 8L39 7L38 7L38 6L37 6L37 5L36 5L36 6L35 6L35 3L34 3L34 4L33 4L33 3L32 3L32 2L31 2L31 3L30 3L30 4L31 4L31 3L32 3L32 4L33 4L33 5L31 5L31 7L32 7L32 8L31 8L31 9L32 9L32 10L29 10L29 9L28 9L28 11L27 11L27 10L26 10L26 9L25 9L25 8L26 8L26 4L27 4L27 3L28 3L28 4L29 4L29 3L28 3L28 1L27 1L27 2L25 2L25 1ZM40 1L40 2L41 2L41 1ZM15 4L15 5L16 5L16 4ZM44 4L44 5L45 5L45 4ZM27 5L27 8L30 8L30 5ZM33 5L33 6L32 6L32 7L33 7L33 6L34 6L34 8L36 8L36 9L35 9L35 10L34 10L34 9L33 9L33 11L31 11L31 13L32 13L32 12L33 12L33 14L34 14L34 15L33 15L33 16L34 16L34 15L35 15L35 18L34 18L34 17L32 17L32 15L31 15L31 14L30 14L30 13L29 13L29 14L30 14L30 16L28 16L28 15L27 15L27 16L26 16L26 15L25 15L25 13L26 13L26 14L27 14L27 12L24 12L24 13L23 13L23 15L24 15L24 16L23 16L23 17L21 17L21 19L22 19L22 20L24 20L24 21L21 21L21 23L22 23L22 22L24 22L24 21L25 21L25 22L26 22L26 23L25 23L25 24L27 24L27 20L31 20L31 21L29 21L29 22L28 22L28 24L29 24L29 22L32 22L32 23L33 23L33 22L34 22L34 24L30 24L30 25L29 25L29 26L28 26L28 25L26 25L26 29L23 29L23 30L21 30L21 31L23 31L23 32L24 32L24 33L23 33L23 34L22 34L22 33L21 33L21 34L22 34L22 35L23 35L23 37L24 37L24 38L22 38L22 37L19 37L19 36L20 36L20 35L19 35L19 34L20 34L20 33L19 33L19 32L20 32L20 30L19 30L19 29L22 29L22 28L21 28L21 27L22 27L22 25L21 25L21 24L20 24L20 25L21 25L21 27L20 27L20 26L19 26L19 29L18 29L18 28L17 28L17 29L18 29L18 30L19 30L19 31L18 31L18 33L17 33L17 31L16 31L16 30L15 30L15 31L13 31L13 32L14 32L14 33L15 33L15 31L16 31L16 33L17 33L17 37L19 37L19 38L17 38L17 41L21 41L21 39L22 39L22 40L23 40L23 39L24 39L24 41L22 41L22 43L21 43L21 42L18 42L18 43L16 43L16 42L15 42L15 44L14 44L14 45L12 45L12 44L13 44L13 43L12 43L12 42L14 42L14 41L15 41L15 40L16 40L16 39L15 39L15 38L16 38L16 37L14 37L14 36L15 36L15 35L16 35L16 34L15 34L15 35L13 35L13 33L11 33L11 34L10 34L10 35L11 35L11 34L12 34L12 35L13 35L13 37L12 37L12 36L11 36L11 37L12 37L12 38L11 38L11 39L10 39L10 36L9 36L9 35L8 35L8 34L5 34L5 35L4 35L4 36L2 36L2 37L4 37L4 38L3 38L3 39L4 39L4 41L5 41L5 40L6 40L6 41L7 41L7 40L6 40L6 39L9 39L9 40L8 40L8 41L9 41L9 40L11 40L11 42L8 42L8 43L7 43L7 42L5 42L5 43L7 43L7 44L6 44L6 45L7 45L7 44L8 44L8 43L9 43L9 45L10 45L10 46L12 46L12 47L13 47L13 48L14 48L14 47L15 47L15 48L16 48L16 49L15 49L15 50L16 50L16 52L17 52L17 50L16 50L16 49L18 49L18 50L20 50L20 49L19 49L19 48L20 48L20 45L19 45L19 44L20 44L20 43L21 43L21 44L22 44L22 45L21 45L21 48L24 48L24 47L25 47L25 45L28 45L28 44L29 44L29 43L30 43L30 44L31 44L31 42L32 42L32 41L31 41L31 42L29 42L29 43L28 43L28 44L27 44L27 43L26 43L26 44L25 44L25 43L24 43L24 42L25 42L25 37L26 37L26 36L24 36L24 34L25 34L25 35L27 35L27 36L31 36L31 37L29 37L29 39L30 39L30 40L32 40L32 39L31 39L31 37L32 37L32 38L33 38L33 40L34 40L34 38L33 38L33 37L34 37L34 35L35 35L35 34L34 34L34 33L33 33L33 37L32 37L32 36L31 36L31 34L32 34L32 32L33 32L33 31L34 31L34 32L36 32L36 30L35 30L35 31L34 31L34 30L33 30L33 29L32 29L32 27L33 27L33 26L34 26L34 27L35 27L35 29L37 29L37 28L38 28L38 29L39 29L39 28L41 28L41 26L44 26L44 27L42 27L42 28L43 28L43 29L42 29L42 30L43 30L43 29L44 29L44 27L45 27L45 28L46 28L46 26L45 26L45 25L46 25L46 23L48 23L48 22L46 22L46 20L45 20L45 19L46 19L46 18L45 18L45 17L44 17L44 18L43 18L43 16L41 16L41 15L43 15L43 14L46 14L46 12L45 12L45 11L44 11L44 10L43 10L43 9L44 9L44 8L45 8L45 6L44 6L44 7L43 7L43 8L42 8L42 9L41 9L41 10L40 10L40 9L39 9L39 10L40 10L40 11L41 11L41 12L43 12L43 13L40 13L40 16L39 16L39 15L38 15L38 12L39 12L39 11L38 11L38 8L36 8L36 7L37 7L37 6L36 6L36 7L35 7L35 6L34 6L34 5ZM28 6L28 7L29 7L29 6ZM12 8L12 10L11 10L11 11L12 11L12 10L13 10L13 8ZM21 9L21 10L22 10L22 9ZM36 9L36 10L37 10L37 9ZM53 9L53 10L52 10L52 11L55 11L55 10L54 10L54 9ZM17 10L17 11L16 11L16 12L15 12L15 13L16 13L16 15L15 15L15 16L14 16L14 17L15 17L15 16L16 16L16 15L17 15L17 16L18 16L18 15L17 15L17 13L18 13L18 12L17 12L17 11L18 11L18 10ZM6 11L6 12L7 12L7 11ZM8 11L8 14L9 14L9 13L10 13L10 11ZM13 11L13 12L14 12L14 11ZM29 11L29 12L30 12L30 11ZM35 11L35 12L34 12L34 14L35 14L35 15L37 15L37 14L36 14L36 13L35 13L35 12L36 12L36 11ZM43 11L43 12L44 12L44 13L45 13L45 12L44 12L44 11ZM16 12L16 13L17 13L17 12ZM6 13L6 14L7 14L7 13ZM21 13L21 15L22 15L22 13ZM6 15L6 16L7 16L7 15ZM24 16L24 17L26 17L26 18L25 18L25 19L26 19L26 20L27 20L27 19L28 19L28 18L27 18L27 17L28 17L28 16L27 16L27 17L26 17L26 16ZM38 16L38 18L37 18L37 17L36 17L36 18L35 18L35 20L34 20L34 22L35 22L35 23L36 23L36 24L37 24L37 23L38 23L38 25L37 25L37 26L39 26L39 25L40 25L40 26L41 26L41 25L42 25L42 24L41 24L41 23L42 23L42 22L41 22L41 21L42 21L42 20L43 20L43 21L45 21L45 20L43 20L43 18L41 18L41 16L40 16L40 17L39 17L39 16ZM52 16L52 17L50 17L50 18L51 18L51 19L52 19L52 17L54 17L54 16ZM31 17L31 19L32 19L32 17ZM22 18L22 19L23 19L23 18ZM33 18L33 19L34 19L34 18ZM36 18L36 20L35 20L35 22L38 22L38 20L40 20L40 19L41 19L41 18L38 18L38 20L37 20L37 18ZM44 18L44 19L45 19L45 18ZM32 20L32 22L33 22L33 20ZM6 21L6 22L7 22L7 21ZM1 22L1 23L2 23L2 24L3 24L3 25L4 25L4 24L5 24L5 22L4 22L4 24L3 24L3 23L2 23L2 22ZM39 22L39 24L40 24L40 22ZM43 22L43 24L44 24L44 25L45 25L45 24L44 24L44 22ZM45 22L45 23L46 23L46 22ZM23 23L23 24L24 24L24 23ZM34 24L34 26L35 26L35 24ZM23 25L23 26L25 26L25 25ZM31 25L31 26L32 26L32 25ZM5 27L5 30L8 30L8 27ZM23 27L23 28L25 28L25 27ZM27 27L27 30L30 30L30 27ZM36 27L36 28L37 28L37 27ZM38 27L38 28L39 28L39 27ZM49 27L49 30L52 30L52 27ZM6 28L6 29L7 29L7 28ZM28 28L28 29L29 29L29 28ZM50 28L50 29L51 29L51 28ZM31 29L31 30L32 30L32 31L31 31L31 32L32 32L32 31L33 31L33 30L32 30L32 29ZM23 30L23 31L24 31L24 30ZM25 30L25 31L26 31L26 32L27 32L27 33L28 33L28 34L27 34L27 35L28 35L28 34L29 34L29 35L30 35L30 34L29 34L29 33L30 33L30 31L29 31L29 33L28 33L28 31L26 31L26 30ZM40 31L40 32L41 32L41 31ZM49 31L49 32L50 32L50 33L48 33L48 32L47 32L47 33L46 33L46 32L44 32L44 33L45 33L45 34L44 34L44 35L46 35L46 34L47 34L47 33L48 33L48 34L50 34L50 35L51 35L51 36L50 36L50 39L48 39L48 38L47 38L47 39L48 39L48 40L49 40L49 41L48 41L48 42L49 42L49 43L51 43L51 44L53 44L53 43L52 43L52 42L54 42L54 43L55 43L55 42L54 42L54 41L52 41L52 40L50 40L50 39L51 39L51 36L53 36L53 33L55 33L55 32L56 32L56 31L55 31L55 32L53 32L53 31L51 31L51 32L50 32L50 31ZM6 32L6 33L7 33L7 32ZM52 32L52 33L53 33L53 32ZM18 33L18 34L19 34L19 33ZM25 33L25 34L26 34L26 33ZM6 35L6 36L7 36L7 35ZM18 35L18 36L19 36L19 35ZM8 36L8 37L5 37L5 38L8 38L8 37L9 37L9 36ZM13 37L13 38L12 38L12 39L13 39L13 38L14 38L14 37ZM27 37L27 38L26 38L26 40L27 40L27 41L26 41L26 42L27 42L27 41L29 41L29 40L28 40L28 39L27 39L27 38L28 38L28 37ZM19 38L19 39L18 39L18 40L19 40L19 39L20 39L20 38ZM14 39L14 40L15 40L15 39ZM12 40L12 41L13 41L13 40ZM33 41L33 43L32 43L32 44L33 44L33 43L34 43L34 41ZM49 41L49 42L51 42L51 41ZM35 42L35 43L37 43L37 42ZM10 43L10 45L11 45L11 43ZM17 44L17 45L14 45L14 46L13 46L13 47L14 47L14 46L17 46L17 45L18 45L18 44ZM24 44L24 45L22 45L22 46L24 46L24 45L25 45L25 44ZM33 45L33 46L34 46L34 45ZM51 45L51 46L50 46L50 47L48 47L48 48L51 48L51 46L52 46L52 48L54 48L54 47L53 47L53 45ZM16 47L16 48L17 48L17 47ZM32 47L32 48L33 48L33 49L34 49L34 48L33 48L33 47ZM13 49L13 50L12 50L12 51L13 51L13 50L14 50L14 49ZM24 49L24 50L25 50L25 49ZM27 49L27 52L30 52L30 49ZM49 49L49 52L52 52L52 49ZM28 50L28 51L29 51L29 50ZM50 50L50 51L51 51L51 50ZM53 51L53 52L54 52L54 51ZM43 53L43 54L44 54L44 53ZM37 55L37 56L38 56L38 55ZM51 55L51 57L53 57L53 56L55 56L55 57L56 57L56 56L55 56L55 55L53 55L53 56L52 56L52 55ZM20 56L20 57L21 57L21 56ZM0 0L0 7L7 7L7 0ZM1 1L1 6L6 6L6 1ZM2 2L2 5L5 5L5 2ZM50 0L50 7L57 7L57 0ZM51 1L51 6L56 6L56 1ZM52 2L52 5L55 5L55 2ZM0 50L0 57L7 57L7 50ZM1 51L1 56L6 56L6 51ZM2 52L2 55L5 55L5 52Z" fill="#000000"/></g></g></svg>
