<?xml version="1.0" encoding="UTF-8"?>
<svg xmlns="http://www.w3.org/2000/svg" version="1.1" width="300" height="300" viewBox="0 0 300 300"><rect x="0" y="0" width="300" height="300" fill="#ffffff"/><g transform="scale(5.263)"><g transform="translate(0,0)"><path fill-rule="evenodd" d="M8 0L8 1L9 1L9 2L8 2L8 5L9 5L9 6L8 6L8 7L9 7L9 8L8 8L8 9L7 9L7 8L6 8L6 9L7 9L7 10L5 10L5 9L4 9L4 8L0 8L0 9L4 9L4 10L3 10L3 11L4 11L4 12L3 12L3 13L2 13L2 10L1 10L1 11L0 11L0 13L2 13L2 15L3 15L3 16L4 16L4 17L2 17L2 16L0 16L0 23L1 23L1 22L2 22L2 23L3 23L3 25L2 25L2 24L1 24L1 26L3 26L3 27L0 27L0 29L1 29L1 30L0 30L0 31L1 31L1 32L0 32L0 33L1 33L1 34L2 34L2 35L3 35L3 36L2 36L2 37L1 37L1 38L0 38L0 40L1 40L1 39L2 39L2 37L3 37L3 40L4 40L4 39L5 39L5 38L6 38L6 39L7 39L7 40L6 40L6 41L5 41L5 42L4 42L4 41L2 41L2 42L1 42L1 43L0 43L0 45L2 45L2 47L1 47L1 46L0 46L0 48L5 48L5 47L8 47L8 50L9 50L9 51L10 51L10 49L9 49L9 48L11 48L11 50L12 50L12 48L15 48L15 49L14 49L14 51L12 51L12 52L14 52L14 53L13 53L13 54L11 54L11 52L10 52L10 53L8 53L8 57L10 57L10 56L11 56L11 55L12 55L12 56L13 56L13 57L14 57L14 56L15 56L15 57L16 57L16 56L17 56L17 55L20 55L20 56L19 56L19 57L20 57L20 56L21 56L21 57L23 57L23 55L22 55L22 53L21 53L21 52L23 52L23 54L25 54L25 55L24 55L24 56L28 56L28 53L29 53L29 54L31 54L31 55L30 55L30 56L31 56L31 55L32 55L32 57L33 57L33 56L35 56L35 57L36 57L36 56L37 56L37 57L38 57L38 56L40 56L40 57L43 57L43 56L42 56L42 55L40 55L40 54L42 54L42 52L43 52L43 53L44 53L44 54L45 54L45 51L44 51L44 52L43 52L43 50L44 50L44 48L45 48L45 50L46 50L46 55L44 55L44 56L47 56L47 57L50 57L50 56L52 56L52 57L53 57L53 55L54 55L54 53L55 53L55 54L56 54L56 53L55 53L55 51L54 51L54 53L53 53L53 50L55 50L55 49L56 49L56 50L57 50L57 43L56 43L56 42L57 42L57 40L56 40L56 41L55 41L55 39L54 39L54 37L57 37L57 36L54 36L54 35L57 35L57 34L55 34L55 33L57 33L57 32L56 32L56 30L54 30L54 28L55 28L55 29L56 29L56 28L57 28L57 27L56 27L56 25L57 25L57 19L56 19L56 18L57 18L57 16L55 16L55 13L56 13L56 14L57 14L57 13L56 13L56 11L57 11L57 8L56 8L56 10L55 10L55 8L52 8L52 10L50 10L50 8L49 8L49 6L48 6L48 8L49 8L49 9L47 9L47 10L49 10L49 14L54 14L54 15L51 15L51 17L52 17L52 16L54 16L54 17L53 17L53 18L54 18L54 17L56 17L56 18L55 18L55 20L54 20L54 19L53 19L53 20L51 20L51 24L50 24L50 22L49 22L49 20L50 20L50 19L49 19L49 20L48 20L48 17L49 17L49 16L46 16L46 17L45 17L45 16L44 16L44 14L45 14L45 15L46 15L46 13L44 13L44 12L45 12L45 10L44 10L44 11L43 11L43 6L42 6L42 5L39 5L39 4L40 4L40 2L43 2L43 0L39 0L39 1L40 1L40 2L39 2L39 4L37 4L37 3L35 3L35 4L36 4L36 5L39 5L39 6L38 6L38 7L39 7L39 8L37 8L37 6L36 6L36 8L37 8L37 9L35 9L35 6L34 6L34 3L33 3L33 4L32 4L32 0L27 0L27 1L26 1L26 0L23 0L23 2L21 2L21 1L22 1L22 0L21 0L21 1L20 1L20 0L17 0L17 2L19 2L19 1L20 1L20 2L21 2L21 3L23 3L23 6L22 6L22 7L21 7L21 5L22 5L22 4L21 4L21 5L20 5L20 4L19 4L19 3L17 3L17 4L19 4L19 5L18 5L18 7L19 7L19 8L20 8L20 7L21 7L21 9L24 9L24 10L20 10L20 9L18 9L18 8L16 8L16 9L18 9L18 10L17 10L17 12L15 12L15 11L14 11L14 10L15 10L15 9L13 9L13 13L14 13L14 14L12 14L12 12L9 12L9 11L11 11L11 10L12 10L12 9L10 9L10 8L12 8L12 7L13 7L13 8L14 8L14 7L15 7L15 6L16 6L16 7L17 7L17 5L14 5L14 7L13 7L13 5L12 5L12 4L14 4L14 2L16 2L16 1L13 1L13 0L12 0L12 1L13 1L13 2L12 2L12 4L9 4L9 2L11 2L11 0L10 0L10 1L9 1L9 0ZM37 0L37 2L38 2L38 0ZM44 0L44 1L45 1L45 2L46 2L46 3L45 3L45 4L44 4L44 3L43 3L43 4L44 4L44 5L46 5L46 8L45 8L45 9L46 9L46 8L47 8L47 5L48 5L48 0ZM25 1L25 2L23 2L23 3L25 3L25 2L26 2L26 4L24 4L24 6L23 6L23 7L22 7L22 8L23 8L23 7L24 7L24 8L25 8L25 9L26 9L26 10L25 10L25 12L26 12L26 13L29 13L29 14L27 14L27 15L26 15L26 14L25 14L25 13L24 13L24 11L21 11L21 12L20 12L20 10L18 10L18 12L17 12L17 13L16 13L16 14L14 14L14 15L8 15L8 14L9 14L9 12L8 12L8 11L9 11L9 9L8 9L8 11L5 11L5 12L4 12L4 13L3 13L3 14L4 14L4 16L5 16L5 18L4 18L4 19L3 19L3 18L2 18L2 17L1 17L1 19L3 19L3 20L1 20L1 21L2 21L2 22L4 22L4 24L5 24L5 26L8 26L8 25L9 25L9 27L10 27L10 28L11 28L11 23L12 23L12 25L13 25L13 19L16 19L16 20L14 20L14 22L15 22L15 23L16 23L16 24L15 24L15 25L16 25L16 26L17 26L17 24L18 24L18 23L19 23L19 22L21 22L21 20L23 20L23 21L24 21L24 22L25 22L25 24L24 24L24 25L23 25L23 22L22 22L22 23L20 23L20 24L19 24L19 25L18 25L18 26L19 26L19 27L16 27L16 28L17 28L17 31L16 31L16 30L15 30L15 33L14 33L14 31L13 31L13 30L14 30L14 29L13 29L13 28L12 28L12 31L11 31L11 33L10 33L10 30L11 30L11 29L10 29L10 30L9 30L9 32L8 32L8 33L10 33L10 34L8 34L8 35L9 35L9 36L7 36L7 35L6 35L6 36L5 36L5 35L4 35L4 36L3 36L3 37L4 37L4 38L5 38L5 37L6 37L6 38L7 38L7 37L9 37L9 36L10 36L10 37L12 37L12 38L14 38L14 39L15 39L15 38L17 38L17 35L18 35L18 36L19 36L19 37L20 37L20 38L23 38L23 36L25 36L25 37L24 37L24 39L22 39L22 41L21 41L21 40L20 40L20 43L18 43L18 41L19 41L19 39L18 39L18 40L17 40L17 39L16 39L16 40L17 40L17 42L16 42L16 43L15 43L15 42L14 42L14 43L13 43L13 41L15 41L15 40L12 40L12 39L11 39L11 38L9 38L9 39L8 39L8 40L7 40L7 41L6 41L6 42L5 42L5 43L4 43L4 42L3 42L3 43L1 43L1 44L3 44L3 47L5 47L5 45L6 45L6 46L7 46L7 45L8 45L8 44L10 44L10 43L11 43L11 44L12 44L12 43L13 43L13 44L14 44L14 43L15 43L15 44L16 44L16 47L17 47L17 48L16 48L16 50L15 50L15 53L14 53L14 54L13 54L13 56L14 56L14 54L15 54L15 53L16 53L16 54L17 54L17 50L18 50L18 51L19 51L19 50L18 50L18 49L17 49L17 48L19 48L19 46L17 46L17 45L19 45L19 44L20 44L20 43L21 43L21 44L22 44L22 46L21 46L21 45L20 45L20 46L21 46L21 47L20 47L20 48L21 48L21 49L23 49L23 50L24 50L24 51L23 51L23 52L24 52L24 53L25 53L25 52L26 52L26 50L25 50L25 49L23 49L23 48L22 48L22 47L24 47L24 46L23 46L23 45L24 45L24 44L22 44L22 41L24 41L24 42L25 42L25 46L26 46L26 47L25 47L25 48L29 48L29 47L31 47L31 48L32 48L32 49L33 49L33 48L32 48L32 47L33 47L33 46L32 46L32 45L33 45L33 42L34 42L34 44L35 44L35 42L34 42L34 41L36 41L36 45L37 45L37 41L38 41L38 42L39 42L39 43L38 43L38 46L39 46L39 47L38 47L38 49L39 49L39 50L40 50L40 51L42 51L42 50L43 50L43 49L42 49L42 48L43 48L43 47L45 47L45 48L46 48L46 47L47 47L47 45L48 45L48 47L49 47L49 48L50 48L50 46L51 46L51 44L50 44L50 45L49 45L49 44L48 44L48 43L47 43L47 42L50 42L50 43L52 43L52 46L53 46L53 45L54 45L54 46L56 46L56 45L55 45L55 44L56 44L56 43L54 43L54 42L55 42L55 41L54 41L54 40L53 40L53 39L51 39L51 37L49 37L49 36L53 36L53 34L54 34L54 32L55 32L55 31L54 31L54 30L53 30L53 31L52 31L52 32L51 32L51 31L50 31L50 33L49 33L49 32L47 32L47 31L46 31L46 29L47 29L47 28L48 28L48 27L47 27L47 26L49 26L49 24L48 24L48 21L46 21L46 20L45 20L45 19L47 19L47 18L45 18L45 17L44 17L44 20L43 20L43 19L42 19L42 18L43 18L43 16L40 16L40 13L42 13L42 14L41 14L41 15L42 15L42 14L43 14L43 11L41 11L41 10L40 10L40 9L38 9L38 10L37 10L37 11L34 11L34 10L35 10L35 9L34 9L34 10L33 10L33 8L32 8L32 10L31 10L31 12L27 12L27 11L26 11L26 10L27 10L27 9L26 9L26 6L25 6L25 5L26 5L26 4L30 4L30 2L31 2L31 1L27 1L27 2L26 2L26 1ZM34 1L34 2L35 2L35 1ZM46 1L46 2L47 2L47 1ZM27 2L27 3L29 3L29 2ZM46 3L46 5L47 5L47 3ZM31 4L31 7L32 7L32 6L33 6L33 7L34 7L34 6L33 6L33 5L32 5L32 4ZM27 5L27 8L30 8L30 5ZM9 6L9 7L10 7L10 6ZM11 6L11 7L12 7L12 6ZM19 6L19 7L20 7L20 6ZM24 6L24 7L25 7L25 6ZM28 6L28 7L29 7L29 6ZM39 6L39 7L40 7L40 6ZM41 6L41 8L42 8L42 6ZM44 6L44 7L45 7L45 6ZM28 9L28 11L29 11L29 9ZM53 9L53 10L52 10L52 11L50 11L50 13L54 13L54 12L55 12L55 11L54 11L54 12L53 12L53 10L54 10L54 9ZM32 10L32 12L31 12L31 13L30 13L30 14L31 14L31 15L29 15L29 16L28 16L28 15L27 15L27 16L26 16L26 15L25 15L25 14L21 14L21 13L19 13L19 12L18 12L18 13L19 13L19 15L20 15L20 17L21 17L21 19L23 19L23 20L25 20L25 22L28 22L28 23L29 23L29 25L28 25L28 26L25 26L25 27L24 27L24 26L23 26L23 25L21 25L21 24L20 24L20 26L22 26L22 27L23 27L23 29L21 29L21 27L19 27L19 28L18 28L18 29L19 29L19 28L20 28L20 29L21 29L21 30L18 30L18 31L17 31L17 33L18 33L18 31L22 31L22 30L23 30L23 32L22 32L22 35L21 35L21 34L20 34L20 32L19 32L19 34L20 34L20 35L21 35L21 36L23 36L23 34L24 34L24 35L27 35L27 34L25 34L25 33L27 33L27 31L28 31L28 32L32 32L32 30L31 30L31 29L33 29L33 30L35 30L35 31L33 31L33 33L29 33L29 34L28 34L28 36L30 36L30 37L31 37L31 39L30 39L30 38L27 38L27 37L26 37L26 39L27 39L27 40L26 40L26 41L25 41L25 39L24 39L24 41L25 41L25 42L27 42L27 43L28 43L28 45L29 45L29 46L27 46L27 47L29 47L29 46L30 46L30 45L31 45L31 44L32 44L32 43L31 43L31 42L30 42L30 41L31 41L31 40L32 40L32 41L34 41L34 39L35 39L35 40L36 40L36 39L37 39L37 40L38 40L38 41L40 41L40 42L41 42L41 43L39 43L39 44L40 44L40 45L39 45L39 46L40 46L40 47L39 47L39 48L41 48L41 44L42 44L42 47L43 47L43 46L44 46L44 45L43 45L43 44L42 44L42 42L41 42L41 41L40 41L40 40L39 40L39 39L40 39L40 38L39 38L39 36L38 36L38 37L37 37L37 36L36 36L36 35L35 35L35 34L34 34L34 33L36 33L36 34L38 34L38 35L39 35L39 34L40 34L40 36L42 36L42 37L44 37L44 38L46 38L46 39L47 39L47 40L46 40L46 41L45 41L45 39L43 39L43 40L42 40L42 41L45 41L45 45L46 45L46 42L47 42L47 41L48 41L48 38L49 38L49 37L48 37L48 38L46 38L46 37L47 37L47 34L48 34L48 36L49 36L49 35L51 35L51 33L50 33L50 34L49 34L49 33L47 33L47 34L45 34L45 33L42 33L42 32L41 32L41 31L43 31L43 32L44 32L44 31L45 31L45 32L46 32L46 31L45 31L45 29L46 29L46 28L44 28L44 27L46 27L46 26L45 26L45 25L44 25L44 24L43 24L43 25L44 25L44 26L42 26L42 27L41 27L41 26L40 26L40 25L38 25L38 24L41 24L41 25L42 25L42 23L41 23L41 22L43 22L43 23L45 23L45 24L46 24L46 25L48 25L48 24L46 24L46 23L45 23L45 21L44 21L44 22L43 22L43 21L42 21L42 20L41 20L41 19L40 19L40 20L39 20L39 18L38 18L38 19L37 19L37 17L36 17L36 18L35 18L35 16L33 16L33 15L32 15L32 14L31 14L31 13L32 13L32 12L33 12L33 10ZM38 10L38 11L37 11L37 12L35 12L35 14L36 14L36 15L38 15L38 17L40 17L40 18L42 18L42 17L40 17L40 16L39 16L39 15L38 15L38 14L39 14L39 13L38 13L38 11L39 11L39 10ZM40 11L40 12L41 12L41 11ZM5 12L5 13L4 13L4 14L5 14L5 16L6 16L6 17L7 17L7 16L6 16L6 15L7 15L7 14L8 14L8 12ZM22 12L22 13L23 13L23 12ZM6 13L6 14L7 14L7 13ZM10 13L10 14L11 14L11 13ZM33 13L33 14L34 14L34 13ZM16 14L16 15L17 15L17 16L16 16L16 17L15 17L15 15L14 15L14 16L12 16L12 17L10 17L10 18L9 18L9 17L8 17L8 18L9 18L9 19L8 19L8 23L10 23L10 22L12 22L12 20L11 20L11 19L12 19L12 17L13 17L13 18L14 18L14 17L15 17L15 18L16 18L16 19L17 19L17 20L16 20L16 23L18 23L18 21L17 21L17 20L18 20L18 19L17 19L17 18L18 18L18 17L17 17L17 16L18 16L18 15L17 15L17 14ZM20 14L20 15L21 15L21 14ZM24 15L24 19L25 19L25 15ZM31 15L31 16L29 16L29 17L27 17L27 19L28 19L28 18L29 18L29 17L30 17L30 18L31 18L31 19L30 19L30 20L29 20L29 21L28 21L28 20L26 20L26 21L28 21L28 22L29 22L29 23L30 23L30 24L31 24L31 23L32 23L32 24L33 24L33 23L32 23L32 22L35 22L35 21L33 21L33 20L32 20L32 19L34 19L34 20L36 20L36 23L34 23L34 25L29 25L29 26L31 26L31 27L32 27L32 26L34 26L34 27L33 27L33 29L35 29L35 30L36 30L36 33L37 33L37 31L38 31L38 32L40 32L40 31L41 31L41 30L39 30L39 29L37 29L37 27L36 27L36 26L37 26L37 25L35 25L35 24L37 24L37 22L38 22L38 23L39 23L39 21L37 21L37 20L36 20L36 19L34 19L34 17L33 17L33 18L31 18L31 16L32 16L32 15ZM22 16L22 18L23 18L23 16ZM6 18L6 19L5 19L5 20L6 20L6 21L4 21L4 20L3 20L3 21L4 21L4 22L5 22L5 24L6 24L6 25L8 25L8 24L6 24L6 23L7 23L7 22L6 22L6 21L7 21L7 20L6 20L6 19L7 19L7 18ZM10 18L10 19L11 19L11 18ZM51 18L51 19L52 19L52 18ZM19 19L19 20L20 20L20 19ZM30 20L30 23L31 23L31 22L32 22L32 21L31 21L31 20ZM55 20L55 21L56 21L56 20ZM9 21L9 22L10 22L10 21ZM52 22L52 25L51 25L51 26L52 26L52 25L53 25L53 23L54 23L54 24L56 24L56 22L55 22L55 23L54 23L54 22ZM26 23L26 24L27 24L27 23ZM9 24L9 25L10 25L10 24ZM54 25L54 26L53 26L53 27L55 27L55 28L56 28L56 27L55 27L55 25ZM12 26L12 27L13 27L13 26ZM14 26L14 28L15 28L15 26ZM38 26L38 28L40 28L40 29L42 29L42 30L43 30L43 29L42 29L42 28L43 28L43 27L42 27L42 28L40 28L40 26ZM5 27L5 30L8 30L8 27ZM25 27L25 28L24 28L24 32L23 32L23 33L24 33L24 32L26 32L26 27ZM27 27L27 30L30 30L30 27ZM49 27L49 30L52 30L52 27ZM6 28L6 29L7 29L7 28ZM28 28L28 29L29 29L29 28ZM50 28L50 29L51 29L51 28ZM3 29L3 30L4 30L4 29ZM1 30L1 31L2 31L2 30ZM38 30L38 31L39 31L39 30ZM3 31L3 32L2 32L2 34L7 34L7 33L3 33L3 32L5 32L5 31ZM6 31L6 32L7 32L7 31ZM12 31L12 34L11 34L11 35L10 35L10 36L11 36L11 35L12 35L12 37L14 37L14 36L13 36L13 35L15 35L15 36L16 36L16 35L17 35L17 34L16 34L16 35L15 35L15 34L14 34L14 33L13 33L13 31ZM38 33L38 34L39 34L39 33ZM30 34L30 36L31 36L31 34ZM33 34L33 35L34 35L34 34ZM41 34L41 35L42 35L42 36L43 36L43 35L44 35L44 34L43 34L43 35L42 35L42 34ZM0 35L0 36L1 36L1 35ZM45 35L45 36L44 36L44 37L45 37L45 36L46 36L46 35ZM6 36L6 37L7 37L7 36ZM32 36L32 38L33 38L33 39L32 39L32 40L33 40L33 39L34 39L34 38L35 38L35 39L36 39L36 38L35 38L35 36L34 36L34 38L33 38L33 36ZM52 37L52 38L53 38L53 37ZM37 38L37 39L39 39L39 38ZM56 38L56 39L57 39L57 38ZM28 39L28 40L27 40L27 41L29 41L29 40L30 40L30 39ZM8 40L8 41L7 41L7 42L6 42L6 43L5 43L5 44L4 44L4 45L5 45L5 44L6 44L6 45L7 45L7 44L8 44L8 43L9 43L9 42L8 42L8 41L10 41L10 40ZM11 40L11 42L12 42L12 40ZM49 40L49 41L50 41L50 42L51 42L51 41L52 41L52 43L53 43L53 42L54 42L54 41L53 41L53 40ZM28 42L28 43L30 43L30 42ZM43 42L43 43L44 43L44 42ZM6 43L6 44L7 44L7 43ZM16 43L16 44L17 44L17 43ZM26 44L26 45L27 45L27 44ZM10 45L10 47L13 47L13 46L11 46L11 45ZM34 45L34 46L35 46L35 45ZM8 46L8 47L9 47L9 46ZM36 46L36 47L37 47L37 46ZM34 47L34 50L33 50L33 51L34 51L34 53L35 53L35 54L33 54L33 53L31 53L31 54L32 54L32 55L36 55L36 53L37 53L37 54L40 54L40 53L41 53L41 52L40 52L40 53L38 53L38 52L39 52L39 51L38 51L38 50L36 50L36 52L35 52L35 47ZM51 47L51 48L52 48L52 47ZM54 47L54 48L53 48L53 49L55 49L55 48L56 48L56 47ZM6 48L6 49L7 49L7 48ZM47 48L47 49L46 49L46 50L47 50L47 52L48 52L48 48ZM27 49L27 52L30 52L30 49ZM40 49L40 50L41 50L41 49ZM49 49L49 52L52 52L52 49ZM20 50L20 52L21 52L21 51L22 51L22 50ZM28 50L28 51L29 51L29 50ZM31 50L31 52L32 52L32 50ZM50 50L50 51L51 51L51 50ZM24 51L24 52L25 52L25 51ZM56 51L56 52L57 52L57 51ZM18 52L18 53L19 53L19 52ZM20 53L20 55L21 55L21 53ZM26 53L26 54L27 54L27 53ZM47 53L47 55L48 55L48 53ZM50 53L50 54L49 54L49 55L51 55L51 53ZM52 53L52 55L53 55L53 53ZM9 55L9 56L10 56L10 55ZM56 55L56 56L57 56L57 55ZM0 0L0 7L7 7L7 0ZM1 1L1 6L6 6L6 1ZM2 2L2 5L5 5L5 2ZM50 0L50 7L57 7L57 0ZM51 1L51 6L56 6L56 1ZM52 2L52 5L55 5L55 2ZM0 50L0 57L7 57L7 50ZM1 51L1 56L6 56L6 51ZM2 52L2 55L5 55L5 52Z" fill="#000000"/></g></g></svg>
