<?xml version="1.0" encoding="UTF-8"?>
<svg xmlns="http://www.w3.org/2000/svg" version="1.1" width="300" height="300" viewBox="0 0 300 300"><rect x="0" y="0" width="300" height="300" fill="#ffffff"/><g transform="scale(5.263)"><g transform="translate(0,0)"><path fill-rule="evenodd" d="M8 0L8 1L9 1L9 0ZM10 0L10 1L14 1L14 3L13 3L13 2L12 2L12 3L11 3L11 5L12 5L12 7L13 7L13 6L14 6L14 8L15 8L15 10L16 10L16 11L14 11L14 10L12 10L12 9L13 9L13 8L11 8L11 6L10 6L10 5L9 5L9 6L8 6L8 8L9 8L9 10L8 10L8 9L7 9L7 8L6 8L6 9L5 9L5 8L3 8L3 9L4 9L4 11L3 11L3 10L2 10L2 8L0 8L0 13L1 13L1 14L0 14L0 16L1 16L1 17L0 17L0 18L3 18L3 19L0 19L0 20L4 20L4 18L5 18L5 20L6 20L6 21L3 21L3 22L2 22L2 24L1 24L1 23L0 23L0 25L1 25L1 28L3 28L3 29L4 29L4 31L9 31L9 32L10 32L10 33L8 33L8 32L6 32L6 33L7 33L7 34L5 34L5 35L4 35L4 34L3 34L3 35L4 35L4 37L3 37L3 36L2 36L2 33L1 33L1 32L3 32L3 31L2 31L2 29L0 29L0 31L1 31L1 32L0 32L0 33L1 33L1 35L0 35L0 36L2 36L2 37L0 37L0 38L1 38L1 39L0 39L0 40L1 40L1 39L3 39L3 40L2 40L2 43L1 43L1 41L0 41L0 44L2 44L2 43L5 43L5 42L6 42L6 43L7 43L7 42L8 42L8 44L5 44L5 45L1 45L1 46L0 46L0 48L5 48L5 47L7 47L7 48L6 48L6 49L7 49L7 48L8 48L8 47L9 47L9 48L10 48L10 47L11 47L11 46L12 46L12 45L11 45L11 46L9 46L9 45L10 45L10 44L11 44L11 43L9 43L9 42L10 42L10 41L11 41L11 42L12 42L12 44L13 44L13 43L14 43L14 45L13 45L13 46L14 46L14 45L15 45L15 46L16 46L16 47L15 47L15 49L14 49L14 47L13 47L13 49L11 49L11 50L10 50L10 49L8 49L8 50L9 50L9 52L8 52L8 54L9 54L9 55L8 55L8 57L9 57L9 55L11 55L11 56L10 56L10 57L12 57L12 56L13 56L13 57L15 57L15 56L17 56L17 57L19 57L19 56L20 56L20 57L21 57L21 55L22 55L22 53L21 53L21 52L23 52L23 53L25 53L25 54L26 54L26 55L25 55L25 57L26 57L26 56L27 56L27 57L28 57L28 55L29 55L29 56L30 56L30 57L31 57L31 56L32 56L32 57L34 57L34 56L36 56L36 57L38 57L38 56L39 56L39 55L38 55L38 56L36 56L36 55L37 55L37 54L38 54L38 52L39 52L39 51L40 51L40 52L41 52L41 51L40 51L40 49L41 49L41 50L42 50L42 53L39 53L39 54L40 54L40 55L42 55L42 56L45 56L45 57L49 57L49 56L50 56L50 57L53 57L53 56L57 56L57 54L52 54L52 55L51 55L51 53L53 53L53 52L55 52L55 53L57 53L57 51L56 51L56 50L55 50L55 49L56 49L56 48L55 48L55 47L57 47L57 45L56 45L56 46L54 46L54 48L53 48L53 47L52 47L52 48L48 48L48 47L51 47L51 46L53 46L53 45L54 45L54 44L55 44L55 43L54 43L54 42L55 42L55 39L54 39L54 38L56 38L56 43L57 43L57 38L56 38L56 37L57 37L57 34L56 34L56 33L57 33L57 32L55 32L55 30L54 30L54 29L53 29L53 26L52 26L52 25L53 25L53 23L54 23L54 24L57 24L57 22L56 22L56 20L55 20L55 17L56 17L56 16L57 16L57 15L56 15L56 14L55 14L55 13L56 13L56 12L55 12L55 11L57 11L57 10L56 10L56 9L57 9L57 8L56 8L56 9L54 9L54 10L53 10L53 9L51 9L51 8L50 8L50 9L49 9L49 8L48 8L48 7L49 7L49 6L48 6L48 7L47 7L47 5L48 5L48 0L45 0L45 3L41 3L41 2L40 2L40 3L38 3L38 5L36 5L36 4L37 4L37 2L39 2L39 1L40 1L40 0L38 0L38 1L37 1L37 0L36 0L36 3L34 3L34 1L35 1L35 0L34 0L34 1L33 1L33 2L30 2L30 3L29 3L29 2L27 2L27 1L29 1L29 0L26 0L26 1L25 1L25 0L24 0L24 1L23 1L23 3L22 3L22 0L20 0L20 1L21 1L21 2L16 2L16 1L17 1L17 0L16 0L16 1L15 1L15 0ZM18 0L18 1L19 1L19 0ZM30 0L30 1L31 1L31 0ZM42 0L42 2L44 2L44 1L43 1L43 0ZM46 1L46 2L47 2L47 1ZM9 2L9 4L10 4L10 2ZM24 2L24 3L25 3L25 2ZM26 2L26 3L27 3L27 2ZM19 3L19 4L20 4L20 5L18 5L18 6L17 6L17 7L16 7L16 6L15 6L15 4L13 4L13 5L14 5L14 6L15 6L15 8L18 8L18 6L19 6L19 9L20 9L20 8L21 8L21 15L22 15L22 14L23 14L23 16L21 16L21 17L20 17L20 15L18 15L18 14L17 14L17 13L16 13L16 12L14 12L14 11L12 11L12 10L9 10L9 11L11 11L11 12L9 12L9 13L8 13L8 14L7 14L7 13L6 13L6 14L7 14L7 15L6 15L6 16L3 16L3 18L4 18L4 17L5 17L5 18L8 18L8 19L9 19L9 17L8 17L8 16L10 16L10 17L11 17L11 18L10 18L10 20L11 20L11 21L9 21L9 20L7 20L7 19L6 19L6 20L7 20L7 21L6 21L6 22L7 22L7 21L8 21L8 23L6 23L6 24L5 24L5 23L4 23L4 24L2 24L2 25L3 25L3 27L4 27L4 26L5 26L5 25L6 25L6 26L8 26L8 25L9 25L9 26L10 26L10 27L12 27L12 26L11 26L11 24L12 24L12 23L11 23L11 21L12 21L12 22L13 22L13 23L14 23L14 25L13 25L13 28L14 28L14 29L12 29L12 30L15 30L15 31L11 31L11 32L12 32L12 34L14 34L14 33L13 33L13 32L16 32L16 33L17 33L17 32L16 32L16 30L15 30L15 28L16 28L16 26L17 26L17 23L16 23L16 26L15 26L15 23L14 23L14 22L13 22L13 21L12 21L12 19L11 19L11 18L12 18L12 17L13 17L13 16L10 16L10 15L8 15L8 14L9 14L9 13L11 13L11 15L13 15L13 14L12 14L12 12L13 12L13 13L16 13L16 15L17 15L17 16L16 16L16 17L18 17L18 16L19 16L19 17L20 17L20 18L15 18L15 17L14 17L14 18L15 18L15 19L21 19L21 20L19 20L19 21L18 21L18 20L17 20L17 21L16 21L16 22L17 22L17 21L18 21L18 22L20 22L20 21L21 21L21 22L22 22L22 24L21 24L21 23L18 23L18 24L20 24L20 25L22 25L22 26L23 26L23 28L22 28L22 29L23 29L23 30L24 30L24 31L23 31L23 33L22 33L22 32L21 32L21 33L22 33L22 34L21 34L21 35L25 35L25 34L27 34L27 35L28 35L28 34L27 34L27 32L28 32L28 31L26 31L26 30L24 30L24 29L26 29L26 28L24 28L24 27L26 27L26 26L27 26L27 25L28 25L28 26L30 26L30 25L32 25L32 26L31 26L31 27L32 27L32 28L31 28L31 29L32 29L32 28L33 28L33 27L35 27L35 30L33 30L33 31L30 31L30 32L29 32L29 33L30 33L30 32L32 32L32 33L31 33L31 34L32 34L32 33L33 33L33 34L34 34L34 32L33 32L33 31L35 31L35 30L37 30L37 29L36 29L36 28L38 28L38 31L39 31L39 32L38 32L38 33L39 33L39 34L38 34L38 35L37 35L37 33L35 33L35 34L36 34L36 36L37 36L37 37L36 37L36 38L37 38L37 39L36 39L36 40L34 40L34 39L35 39L35 35L34 35L34 39L33 39L33 41L32 41L32 40L31 40L31 39L30 39L30 38L29 38L29 37L30 37L30 35L29 35L29 37L28 37L28 36L27 36L27 39L26 39L26 38L25 38L25 40L24 40L24 39L23 39L23 40L22 40L22 38L21 38L21 37L19 37L19 38L21 38L21 39L20 39L20 41L18 41L18 40L19 40L19 39L18 39L18 38L17 38L17 37L18 37L18 36L19 36L19 35L20 35L20 31L21 31L21 29L20 29L20 30L18 30L18 31L19 31L19 33L18 33L18 34L19 34L19 35L15 35L15 38L14 38L14 37L13 37L13 36L12 36L12 35L11 35L11 37L10 37L10 38L9 38L9 40L7 40L7 39L8 39L8 38L7 38L7 37L9 37L9 34L8 34L8 36L7 36L7 35L5 35L5 37L4 37L4 38L3 38L3 39L4 39L4 38L7 38L7 39L5 39L5 40L4 40L4 41L3 41L3 42L5 42L5 40L7 40L7 41L6 41L6 42L7 42L7 41L9 41L9 40L10 40L10 39L11 39L11 40L12 40L12 41L15 41L15 42L16 42L16 38L17 38L17 39L18 39L18 40L17 40L17 41L18 41L18 42L19 42L19 43L21 43L21 44L19 44L19 45L21 45L21 46L22 46L22 45L23 45L23 44L22 44L22 43L23 43L23 41L25 41L25 42L24 42L24 43L25 43L25 42L26 42L26 40L28 40L28 41L29 41L29 42L27 42L27 43L26 43L26 45L25 45L25 46L23 46L23 47L21 47L21 48L20 48L20 47L18 47L18 46L17 46L17 47L18 47L18 48L20 48L20 49L18 49L18 50L17 50L17 49L16 49L16 50L14 50L14 52L13 52L13 50L12 50L12 52L11 52L11 51L10 51L10 52L9 52L9 54L10 54L10 53L11 53L11 54L12 54L12 53L13 53L13 55L14 55L14 56L15 56L15 55L14 55L14 52L16 52L16 55L17 55L17 53L18 53L18 52L19 52L19 51L20 51L20 52L21 52L21 51L22 51L22 50L23 50L23 49L25 49L25 48L24 48L24 47L25 47L25 46L26 46L26 47L27 47L27 48L29 48L29 47L30 47L30 46L26 46L26 45L27 45L27 44L30 44L30 41L32 41L32 42L34 42L34 41L35 41L35 42L36 42L36 43L33 43L33 44L32 44L32 43L31 43L31 45L32 45L32 46L31 46L31 47L32 47L32 46L33 46L33 47L34 47L34 48L35 48L35 49L34 49L34 50L33 50L33 49L32 49L32 48L31 48L31 49L32 49L32 50L31 50L31 51L32 51L32 52L31 52L31 53L28 53L28 54L30 54L30 56L31 56L31 53L32 53L32 55L36 55L36 54L34 54L34 53L35 53L35 51L34 51L34 50L36 50L36 48L37 48L37 50L38 50L38 51L39 51L39 50L38 50L38 48L39 48L39 49L40 49L40 48L41 48L41 49L42 49L42 48L43 48L43 50L46 50L46 51L47 51L47 49L46 49L46 48L45 48L45 45L46 45L46 43L45 43L45 41L47 41L47 42L48 42L48 43L47 43L47 45L48 45L48 46L46 46L46 47L48 47L48 46L51 46L51 45L52 45L52 44L54 44L54 43L53 43L53 42L54 42L54 41L53 41L53 42L51 42L51 41L52 41L52 40L53 40L53 39L52 39L52 40L51 40L51 41L50 41L50 40L49 40L49 39L51 39L51 38L49 38L49 37L50 37L50 36L51 36L51 37L52 37L52 38L53 38L53 37L55 37L55 36L54 36L54 34L55 34L55 32L54 32L54 34L51 34L51 35L50 35L50 36L49 36L49 35L45 35L45 34L43 34L43 36L42 36L42 37L40 37L40 35L42 35L42 34L41 34L41 33L40 33L40 30L41 30L41 31L42 31L42 33L46 33L46 32L43 32L43 31L44 31L44 29L43 29L43 28L42 28L42 27L45 27L45 28L46 28L46 29L48 29L48 27L47 27L47 25L46 25L46 23L47 23L47 24L49 24L49 26L50 26L50 24L51 24L51 25L52 25L52 23L49 23L49 22L48 22L48 21L51 21L51 22L53 22L53 21L55 21L55 20L53 20L53 21L52 21L52 20L48 20L48 21L47 21L47 22L46 22L46 23L45 23L45 25L46 25L46 26L42 26L42 25L41 25L41 26L42 26L42 27L36 27L36 26L38 26L38 24L39 24L39 25L40 25L40 24L39 24L39 22L41 22L41 23L43 23L43 25L44 25L44 22L45 22L45 19L43 19L43 20L42 20L42 21L43 21L43 22L41 22L41 21L40 21L40 19L41 19L41 18L42 18L42 17L44 17L44 16L46 16L46 17L49 17L49 16L46 16L46 15L50 15L50 18L49 18L49 19L51 19L51 16L52 16L52 18L53 18L53 19L54 19L54 18L53 18L53 17L55 17L55 16L53 16L53 15L55 15L55 14L54 14L54 13L53 13L53 15L52 15L52 14L51 14L51 15L50 15L50 14L47 14L47 13L46 13L46 12L45 12L45 9L46 9L46 5L47 5L47 3L45 3L45 4L43 4L43 5L42 5L42 4L41 4L41 5L42 5L42 6L41 6L41 7L40 7L40 5L39 5L39 7L38 7L38 6L37 6L37 7L36 7L36 5L35 5L35 4L31 4L31 3L30 3L30 4L31 4L31 8L32 8L32 9L33 9L33 10L34 10L34 8L32 8L32 6L33 6L33 7L34 7L34 6L35 6L35 7L36 7L36 8L35 8L35 9L36 9L36 8L37 8L37 9L39 9L39 10L40 10L40 11L39 11L39 14L38 14L38 13L36 13L36 12L38 12L38 10L35 10L35 11L33 11L33 13L32 13L32 15L30 15L30 14L31 14L31 11L32 11L32 10L31 10L31 11L30 11L30 10L28 10L28 11L27 11L27 9L26 9L26 8L25 8L25 9L26 9L26 10L24 10L24 11L25 11L25 12L24 12L24 13L25 13L25 14L23 14L23 11L22 11L22 6L21 6L21 7L20 7L20 5L22 5L22 3L21 3L21 4L20 4L20 3ZM16 4L16 5L17 5L17 4ZM25 4L25 7L26 7L26 4ZM23 5L23 9L24 9L24 5ZM27 5L27 8L30 8L30 5ZM43 5L43 6L42 6L42 7L41 7L41 8L40 8L40 9L41 9L41 10L42 10L42 13L41 13L41 12L40 12L40 13L41 13L41 14L43 14L43 15L41 15L41 17L42 17L42 16L43 16L43 15L45 15L45 12L44 12L44 14L43 14L43 11L44 11L44 10L43 10L43 8L44 8L44 7L45 7L45 6L44 6L44 5ZM9 6L9 8L10 8L10 9L11 9L11 8L10 8L10 6ZM28 6L28 7L29 7L29 6ZM43 6L43 7L42 7L42 8L43 8L43 7L44 7L44 6ZM37 7L37 8L38 8L38 7ZM6 9L6 10L7 10L7 11L6 11L6 12L8 12L8 10L7 10L7 9ZM17 9L17 10L18 10L18 9ZM1 10L1 11L2 11L2 12L3 12L3 11L2 11L2 10ZM19 10L19 11L20 11L20 10ZM48 10L48 11L47 11L47 12L48 12L48 13L52 13L52 11L50 11L50 10ZM54 10L54 11L53 11L53 12L54 12L54 11L55 11L55 10ZM4 11L4 13L5 13L5 11ZM17 11L17 12L18 12L18 11ZM28 11L28 13L27 13L27 15L26 15L26 14L25 14L25 15L24 15L24 16L23 16L23 17L24 17L24 18L27 18L27 15L28 15L28 17L29 17L29 18L31 18L31 19L26 19L26 20L24 20L24 19L23 19L23 20L22 20L22 21L23 21L23 23L24 23L24 21L25 21L25 22L26 22L26 20L28 20L28 21L29 21L29 22L27 22L27 23L25 23L25 25L24 25L24 26L25 26L25 25L27 25L27 24L28 24L28 25L29 25L29 24L28 24L28 23L30 23L30 24L31 24L31 23L33 23L33 25L35 25L35 24L36 24L36 25L37 25L37 24L38 24L38 22L39 22L39 21L38 21L38 20L39 20L39 18L38 18L38 17L37 17L37 15L38 15L38 16L39 16L39 15L38 15L38 14L37 14L37 15L36 15L36 20L35 20L35 19L33 19L33 15L32 15L32 16L31 16L31 17L30 17L30 16L29 16L29 14L30 14L30 12L29 12L29 11ZM19 12L19 14L20 14L20 12ZM25 12L25 13L26 13L26 12ZM34 12L34 13L33 13L33 14L34 14L34 16L35 16L35 14L34 14L34 13L35 13L35 12ZM28 13L28 14L29 14L29 13ZM2 14L2 15L1 15L1 16L2 16L2 15L3 15L3 14ZM7 15L7 16L6 16L6 17L7 17L7 16L8 16L8 15ZM34 17L34 18L35 18L35 17ZM21 18L21 19L22 19L22 18ZM37 18L37 19L38 19L38 18ZM47 18L47 19L48 19L48 18ZM56 18L56 19L57 19L57 18ZM13 19L13 20L14 20L14 21L15 21L15 20L14 20L14 19ZM31 19L31 20L30 20L30 21L33 21L33 20L32 20L32 19ZM23 20L23 21L24 21L24 20ZM34 20L34 21L35 21L35 20ZM43 20L43 21L44 21L44 20ZM36 21L36 22L34 22L34 24L35 24L35 23L37 23L37 22L38 22L38 21ZM54 22L54 23L56 23L56 22ZM8 23L8 24L6 24L6 25L8 25L8 24L9 24L9 25L10 25L10 24L11 24L11 23ZM4 24L4 25L5 25L5 24ZM22 24L22 25L23 25L23 24ZM18 25L18 27L17 27L17 29L19 29L19 27L20 27L20 28L21 28L21 26L19 26L19 25ZM54 25L54 28L55 28L55 29L56 29L56 31L57 31L57 27L56 27L56 26L55 26L55 25ZM14 26L14 27L15 27L15 26ZM32 26L32 27L33 27L33 26ZM5 27L5 30L8 30L8 27ZM27 27L27 30L30 30L30 27ZM46 27L46 28L47 28L47 27ZM49 27L49 30L52 30L52 27ZM55 27L55 28L56 28L56 27ZM6 28L6 29L7 29L7 28ZM23 28L23 29L24 29L24 28ZM28 28L28 29L29 29L29 28ZM41 28L41 29L42 29L42 31L43 31L43 29L42 29L42 28ZM50 28L50 29L51 29L51 28ZM39 29L39 30L40 30L40 29ZM53 30L53 31L52 31L52 32L51 32L51 31L50 31L50 32L51 32L51 33L52 33L52 32L53 32L53 31L54 31L54 30ZM36 31L36 32L37 32L37 31ZM47 31L47 34L48 34L48 33L49 33L49 31ZM4 32L4 33L5 33L5 32ZM24 32L24 33L23 33L23 34L25 34L25 33L26 33L26 32ZM44 35L44 37L45 37L45 39L44 39L44 38L43 38L43 37L42 37L42 38L41 38L41 41L39 41L39 40L40 40L40 37L39 37L39 36L38 36L38 39L37 39L37 40L36 40L36 42L38 42L38 41L39 41L39 43L40 43L40 45L39 45L39 44L38 44L38 45L37 45L37 44L35 44L35 45L34 45L34 47L35 47L35 48L36 48L36 47L37 47L37 48L38 48L38 47L37 47L37 46L40 46L40 47L39 47L39 48L40 48L40 47L41 47L41 48L42 48L42 47L41 47L41 46L40 46L40 45L41 45L41 43L42 43L42 44L43 44L43 43L44 43L44 41L45 41L45 39L47 39L47 41L48 41L48 42L49 42L49 44L48 44L48 45L49 45L49 44L50 44L50 45L51 45L51 44L50 44L50 43L51 43L51 42L49 42L49 41L48 41L48 39L49 39L49 38L48 38L48 37L49 37L49 36L45 36L45 35ZM51 35L51 36L53 36L53 35ZM6 36L6 37L7 37L7 36ZM16 36L16 37L17 37L17 36ZM23 36L23 38L24 38L24 36ZM46 37L46 38L47 38L47 39L48 39L48 38L47 38L47 37ZM28 38L28 40L29 40L29 41L30 41L30 39L29 39L29 38ZM42 38L42 39L43 39L43 40L44 40L44 39L43 39L43 38ZM13 39L13 40L14 40L14 39ZM38 39L38 40L39 40L39 39ZM21 41L21 42L22 42L22 41ZM41 41L41 42L42 42L42 43L43 43L43 42L42 42L42 41ZM15 43L15 44L17 44L17 45L18 45L18 44L17 44L17 43ZM5 45L5 46L3 46L3 47L5 47L5 46L7 46L7 45ZM35 45L35 46L36 46L36 45ZM42 45L42 46L43 46L43 45ZM1 46L1 47L2 47L2 46ZM22 48L22 49L23 49L23 48ZM44 48L44 49L45 49L45 48ZM54 48L54 49L55 49L55 48ZM20 49L20 50L21 50L21 49ZM27 49L27 52L30 52L30 49ZM49 49L49 52L52 52L52 49ZM16 50L16 52L18 52L18 51L19 51L19 50L18 50L18 51L17 51L17 50ZM24 50L24 51L23 51L23 52L24 52L24 51L25 51L25 52L26 52L26 51L25 51L25 50ZM28 50L28 51L29 51L29 50ZM50 50L50 51L51 51L51 50ZM54 50L54 51L55 51L55 52L56 52L56 51L55 51L55 50ZM33 51L33 52L32 52L32 53L34 53L34 51ZM36 51L36 52L37 52L37 51ZM43 51L43 52L44 52L44 51ZM45 52L45 53L48 53L48 54L44 54L44 53L43 53L43 54L42 54L42 55L43 55L43 54L44 54L44 55L45 55L45 56L46 56L46 55L47 55L47 56L48 56L48 54L50 54L50 53L48 53L48 52ZM19 53L19 54L18 54L18 56L19 56L19 55L20 55L20 54L21 54L21 53ZM23 54L23 56L22 56L22 57L24 57L24 54ZM52 55L52 56L53 56L53 55ZM40 56L40 57L41 57L41 56ZM0 0L0 7L7 7L7 0ZM1 1L1 6L6 6L6 1ZM2 2L2 5L5 5L5 2ZM50 0L50 7L57 7L57 0ZM51 1L51 6L56 6L56 1ZM52 2L52 5L55 5L55 2ZM0 50L0 57L7 57L7 50ZM1 51L1 56L6 56L6 51ZM2 52L2 55L5 55L5 52Z" fill="#000000"/></g></g></svg>
