<?xml version="1.0" encoding="UTF-8"?>
<svg xmlns="http://www.w3.org/2000/svg" version="1.1" width="300" height="300" viewBox="0 0 300 300"><rect x="0" y="0" width="300" height="300" fill="#ffffff"/><g transform="scale(4.615)"><g transform="translate(2,2)"><path fill-rule="evenodd" d="M8 0L8 3L9 3L9 4L8 4L8 5L9 5L9 6L8 6L8 7L9 7L9 6L10 6L10 11L9 11L9 10L8 10L8 9L9 9L9 8L3 8L3 9L1 9L1 8L0 8L0 9L1 9L1 10L0 10L0 11L1 11L1 13L0 13L0 15L1 15L1 14L2 14L2 13L3 13L3 12L4 12L4 13L5 13L5 11L7 11L7 10L8 10L8 11L9 11L9 12L10 12L10 14L8 14L8 13L7 13L7 12L6 12L6 13L7 13L7 14L5 14L5 15L2 15L2 16L1 16L1 17L2 17L2 19L3 19L3 20L5 20L5 19L7 19L7 20L6 20L6 21L4 21L4 25L3 25L3 21L2 21L2 20L1 20L1 18L0 18L0 20L1 20L1 21L0 21L0 22L1 22L1 24L0 24L0 25L1 25L1 27L0 27L0 29L1 29L1 30L0 30L0 32L1 32L1 33L0 33L0 35L1 35L1 37L2 37L2 38L0 38L0 39L2 39L2 42L1 42L1 43L2 43L2 45L1 45L1 47L0 47L0 48L2 48L2 51L0 51L0 53L4 53L4 52L5 52L5 51L7 51L7 52L6 52L6 53L8 53L8 58L9 58L9 57L10 57L10 59L9 59L9 60L8 60L8 61L11 61L11 60L13 60L13 58L12 58L12 56L13 56L13 57L14 57L14 59L16 59L16 58L18 58L18 59L17 59L17 60L14 60L14 61L17 61L17 60L19 60L19 61L20 61L20 60L22 60L22 61L23 61L23 60L22 60L22 58L23 58L23 59L24 59L24 61L27 61L27 60L26 60L26 59L27 59L27 58L26 58L26 57L23 57L23 56L27 56L27 57L29 57L29 59L28 59L28 61L30 61L30 60L29 60L29 59L31 59L31 60L32 60L32 61L33 61L33 60L36 60L36 61L39 61L39 60L36 60L36 59L41 59L41 60L40 60L40 61L41 61L41 60L43 60L43 61L45 61L45 58L44 58L44 56L43 56L43 55L42 55L42 54L44 54L44 55L45 55L45 56L46 56L46 61L47 61L47 59L49 59L49 60L48 60L48 61L49 61L49 60L50 60L50 61L52 61L52 60L53 60L53 59L54 59L54 60L55 60L55 61L59 61L59 60L60 60L60 61L61 61L61 57L60 57L60 58L59 58L59 56L58 56L58 55L59 55L59 54L60 54L60 56L61 56L61 52L60 52L60 51L61 51L61 50L59 50L59 49L61 49L61 46L60 46L60 45L61 45L61 44L60 44L60 43L61 43L61 39L60 39L60 38L57 38L57 37L56 37L56 36L58 36L58 37L61 37L61 30L59 30L59 29L61 29L61 28L59 28L59 27L61 27L61 25L60 25L60 24L61 24L61 22L58 22L58 21L60 21L60 19L61 19L61 18L59 18L59 17L61 17L61 10L60 10L60 9L61 9L61 8L58 8L58 9L59 9L59 11L58 11L58 10L57 10L57 8L56 8L56 10L57 10L57 11L56 11L56 12L55 12L55 13L54 13L54 11L55 11L55 9L54 9L54 8L53 8L53 9L51 9L51 8L52 8L52 7L53 7L53 6L52 6L52 7L51 7L51 5L52 5L52 4L53 4L53 0L51 0L51 2L50 2L50 1L49 1L49 0L48 0L48 1L47 1L47 0L46 0L46 1L43 1L43 0L34 0L34 1L33 1L33 0L32 0L32 1L31 1L31 0L29 0L29 1L28 1L28 2L29 2L29 3L28 3L28 7L27 7L27 5L26 5L26 4L27 4L27 3L25 3L25 6L24 6L24 4L23 4L23 0L21 0L21 1L18 1L18 0L16 0L16 1L17 1L17 4L16 4L16 2L14 2L14 3L13 3L13 1L12 1L12 0ZM14 0L14 1L15 1L15 0ZM24 0L24 1L25 1L25 2L26 2L26 1L27 1L27 0ZM11 1L11 2L12 2L12 1ZM30 1L30 2L31 2L31 3L30 3L30 4L32 4L32 3L33 3L33 2L31 2L31 1ZM34 1L34 2L36 2L36 3L37 3L37 4L36 4L36 5L37 5L37 4L38 4L38 3L39 3L39 4L40 4L40 5L39 5L39 8L38 8L38 9L39 9L39 10L40 10L40 6L41 6L41 9L43 9L43 10L41 10L41 11L40 11L40 12L41 12L41 13L44 13L44 14L43 14L43 16L45 16L45 18L44 18L44 17L43 17L43 20L41 20L41 21L43 21L43 22L44 22L44 21L46 21L46 19L47 19L47 20L48 20L48 19L49 19L49 18L48 18L48 16L47 16L47 15L46 15L46 16L45 16L45 13L44 13L44 12L46 12L46 14L48 14L48 13L47 13L47 10L45 10L45 9L47 9L47 8L48 8L48 6L49 6L49 7L50 7L50 8L49 8L49 9L50 9L50 8L51 8L51 7L50 7L50 6L49 6L49 5L50 5L50 4L49 4L49 5L48 5L48 3L49 3L49 2L47 2L47 4L46 4L46 5L45 5L45 4L44 4L44 6L43 6L43 7L44 7L44 6L45 6L45 8L42 8L42 6L41 6L41 5L42 5L42 4L40 4L40 3L42 3L42 2L43 2L43 3L44 3L44 2L43 2L43 1L42 1L42 2L40 2L40 1L37 1L37 2L36 2L36 1ZM9 2L9 3L10 3L10 2ZM18 2L18 3L19 3L19 5L20 5L20 4L21 4L21 7L20 7L20 6L19 6L19 7L18 7L18 5L17 5L17 8L18 8L18 9L17 9L17 10L18 10L18 12L16 12L16 15L17 15L17 13L18 13L18 16L17 16L17 19L16 19L16 17L15 17L15 18L14 18L14 20L16 20L16 21L15 21L15 22L14 22L14 23L13 23L13 22L12 22L12 21L13 21L13 17L11 17L11 16L14 16L14 15L13 15L13 13L14 13L14 14L15 14L15 11L16 11L16 6L15 6L15 8L14 8L14 6L13 6L13 5L14 5L14 4L13 4L13 3L11 3L11 4L9 4L9 5L11 5L11 8L12 8L12 11L10 11L10 12L13 12L13 13L12 13L12 15L11 15L11 14L10 14L10 15L8 15L8 14L7 14L7 15L6 15L6 16L4 16L4 17L3 17L3 16L2 16L2 17L3 17L3 19L4 19L4 17L6 17L6 18L7 18L7 19L8 19L8 20L7 20L7 21L6 21L6 22L5 22L5 24L7 24L7 25L6 25L6 26L4 26L4 27L2 27L2 28L1 28L1 29L3 29L3 30L1 30L1 32L4 32L4 31L3 31L3 30L4 30L4 28L7 28L7 27L11 27L11 28L9 28L9 29L12 29L12 27L11 27L11 26L12 26L12 25L11 25L11 24L12 24L12 23L13 23L13 26L14 26L14 27L13 27L13 28L14 28L14 27L15 27L15 26L14 26L14 24L16 24L16 22L17 22L17 23L18 23L18 24L17 24L17 25L16 25L16 28L15 28L15 30L11 30L11 31L10 31L10 30L9 30L9 32L11 32L11 33L6 33L6 34L7 34L7 35L3 35L3 34L5 34L5 33L3 33L3 34L1 34L1 35L2 35L2 37L5 37L5 39L6 39L6 40L3 40L3 41L4 41L4 42L5 42L5 43L6 43L6 44L7 44L7 45L5 45L5 44L4 44L4 43L3 43L3 42L2 42L2 43L3 43L3 44L4 44L4 47L3 47L3 45L2 45L2 48L4 48L4 49L3 49L3 50L4 50L4 49L5 49L5 50L7 50L7 49L8 49L8 50L10 50L10 51L9 51L9 54L10 54L10 55L9 55L9 56L11 56L11 53L10 53L10 51L11 51L11 52L12 52L12 51L13 51L13 53L12 53L12 54L14 54L14 56L15 56L15 58L16 58L16 57L18 57L18 56L16 56L16 54L18 54L18 55L19 55L19 57L20 57L20 58L19 58L19 59L21 59L21 57L20 57L20 56L23 56L23 55L19 55L19 54L18 54L18 53L17 53L17 51L18 51L18 50L19 50L19 51L20 51L20 52L21 52L21 54L22 54L22 52L23 52L23 54L24 54L24 55L25 55L25 54L26 54L26 55L27 55L27 56L28 56L28 54L26 54L26 52L25 52L25 51L26 51L26 48L27 48L27 50L28 50L28 49L29 49L29 48L30 48L30 47L29 47L29 46L31 46L31 47L32 47L32 48L31 48L31 50L29 50L29 51L27 51L27 53L28 53L28 52L29 52L29 51L30 51L30 52L32 52L32 51L33 51L33 53L34 53L34 51L35 51L35 52L38 52L38 51L37 51L37 50L36 50L36 48L35 48L35 49L33 49L33 50L32 50L32 48L34 48L34 45L32 45L32 44L31 44L31 45L30 45L30 44L29 44L29 43L31 43L31 42L32 42L32 43L34 43L34 42L32 42L32 41L34 41L34 40L31 40L31 41L28 41L28 40L30 40L30 39L29 39L29 38L30 38L30 35L29 35L29 34L30 34L30 33L29 33L29 34L28 34L28 37L29 37L29 38L28 38L28 39L26 39L26 36L27 36L27 33L28 33L28 31L27 31L27 32L26 32L26 31L25 31L25 30L24 30L24 29L25 29L25 28L24 28L24 27L22 27L22 26L24 26L24 24L21 24L21 25L20 25L20 27L19 27L19 28L18 28L18 25L19 25L19 24L20 24L20 21L17 21L17 20L18 20L18 18L21 18L21 16L22 16L22 17L23 17L23 18L24 18L24 19L23 19L23 20L24 20L24 21L25 21L25 20L26 20L26 21L27 21L27 20L26 20L26 19L25 19L25 18L26 18L26 17L25 17L25 16L24 16L24 15L23 15L23 13L24 13L24 12L25 12L25 14L26 14L26 15L27 15L27 16L28 16L28 15L32 15L32 16L33 16L33 18L34 18L34 20L35 20L35 18L34 18L34 15L33 15L33 14L30 14L30 13L31 13L31 12L32 12L32 13L34 13L34 14L35 14L35 15L36 15L36 14L37 14L37 15L38 15L38 12L39 12L39 11L38 11L38 10L36 10L36 9L35 9L35 10L36 10L36 11L31 11L31 12L29 12L29 13L28 13L28 12L27 12L27 11L25 11L25 10L26 10L26 9L27 9L27 10L28 10L28 11L29 11L29 10L30 10L30 9L29 9L29 10L28 10L28 9L27 9L27 7L26 7L26 6L25 6L25 8L21 8L21 7L22 7L22 6L23 6L23 7L24 7L24 6L23 6L23 4L21 4L21 3L22 3L22 2L21 2L21 3L20 3L20 2ZM51 3L51 4L52 4L52 3ZM11 4L11 5L12 5L12 4ZM15 4L15 5L16 5L16 4ZM34 4L34 6L33 6L33 7L34 7L34 8L35 8L35 7L36 7L36 8L37 8L37 7L38 7L38 6L37 6L37 7L36 7L36 6L35 6L35 4ZM29 5L29 8L32 8L32 5ZM47 5L47 6L46 6L46 8L47 8L47 6L48 6L48 5ZM12 6L12 8L13 8L13 6ZM30 6L30 7L31 7L31 6ZM34 6L34 7L35 7L35 6ZM19 7L19 9L18 9L18 10L19 10L19 12L18 12L18 13L19 13L19 12L20 12L20 13L21 13L21 15L22 15L22 16L23 16L23 17L24 17L24 18L25 18L25 17L24 17L24 16L23 16L23 15L22 15L22 13L21 13L21 11L23 11L23 12L24 12L24 9L23 9L23 10L22 10L22 9L21 9L21 11L20 11L20 10L19 10L19 9L20 9L20 7ZM3 9L3 10L2 10L2 11L4 11L4 9ZM6 9L6 10L7 10L7 9ZM14 9L14 10L13 10L13 11L15 11L15 9ZM43 10L43 11L44 11L44 10ZM48 10L48 12L49 12L49 13L52 13L52 14L51 14L51 15L52 15L52 16L51 16L51 17L50 17L50 19L51 19L51 18L52 18L52 21L55 21L55 20L56 20L56 22L57 22L57 18L58 18L58 20L59 20L59 18L58 18L58 15L59 15L59 14L60 14L60 13L59 13L59 12L58 12L58 11L57 11L57 13L56 13L56 14L57 14L57 18L56 18L56 17L55 17L55 19L54 19L54 20L53 20L53 18L54 18L54 17L53 17L53 18L52 18L52 16L56 16L56 15L52 15L52 14L53 14L53 13L52 13L52 12L53 12L53 11L52 11L52 10ZM36 11L36 13L35 13L35 12L34 12L34 13L35 13L35 14L36 14L36 13L37 13L37 11ZM51 11L51 12L52 12L52 11ZM26 12L26 14L27 14L27 15L28 15L28 14L27 14L27 12ZM39 13L39 14L40 14L40 13ZM58 13L58 14L59 14L59 13ZM41 14L41 15L42 15L42 14ZM49 14L49 16L50 16L50 14ZM10 15L10 16L8 16L8 17L7 17L7 16L6 16L6 17L7 17L7 18L9 18L9 20L8 20L8 21L9 21L9 20L10 20L10 21L12 21L12 20L10 20L10 19L11 19L11 18L9 18L9 17L10 17L10 16L11 16L11 15ZM19 15L19 16L18 16L18 17L20 17L20 15ZM39 15L39 16L37 16L37 17L36 17L36 16L35 16L35 17L36 17L36 18L37 18L37 17L38 17L38 19L36 19L36 20L37 20L37 21L40 21L40 19L42 19L42 17L41 17L41 16L40 16L40 15ZM30 16L30 17L29 17L29 18L28 18L28 17L27 17L27 18L28 18L28 21L29 21L29 20L30 20L30 23L29 23L29 22L27 22L27 23L25 23L25 25L26 25L26 24L27 24L27 26L28 26L28 27L29 27L29 26L30 26L30 25L28 25L28 23L29 23L29 24L31 24L31 23L32 23L32 25L33 25L33 26L34 26L34 28L35 28L35 30L37 30L37 29L36 29L36 28L37 28L37 27L38 27L38 28L39 28L39 29L38 29L38 30L39 30L39 33L40 33L40 34L41 34L41 35L39 35L39 38L38 38L38 37L37 37L37 39L36 39L36 40L35 40L35 43L36 43L36 44L35 44L35 46L36 46L36 47L37 47L37 46L36 46L36 44L38 44L38 42L39 42L39 43L44 43L44 45L43 45L43 46L42 46L42 45L39 45L39 47L38 47L38 48L37 48L37 49L38 49L38 48L39 48L39 49L40 49L40 47L43 47L43 46L45 46L45 49L46 49L46 50L47 50L47 53L48 53L48 55L47 55L47 56L49 56L49 57L51 57L51 59L50 59L50 58L49 58L49 59L50 59L50 60L52 60L52 59L53 59L53 57L51 57L51 55L50 55L50 54L51 54L51 53L50 53L50 54L49 54L49 53L48 53L48 52L49 52L49 51L50 51L50 52L51 52L51 50L50 50L50 49L51 49L51 48L52 48L52 49L57 49L57 51L55 51L55 52L57 52L57 55L58 55L58 53L60 53L60 52L57 52L57 51L58 51L58 49L59 49L59 48L58 48L58 49L57 49L57 46L56 46L56 48L55 48L55 47L54 47L54 45L51 45L51 42L53 42L53 43L52 43L52 44L54 44L54 42L55 42L55 43L56 43L56 44L57 44L57 45L58 45L58 47L59 47L59 45L58 45L58 44L59 44L59 43L60 43L60 41L59 41L59 43L58 43L58 42L57 42L57 41L58 41L58 39L57 39L57 38L56 38L56 37L55 37L55 36L54 36L54 37L53 37L53 35L54 35L54 34L53 34L53 33L52 33L52 37L51 37L51 38L52 38L52 40L53 40L53 41L51 41L51 39L50 39L50 37L48 37L48 36L47 36L47 37L46 37L46 35L50 35L50 36L51 36L51 35L50 35L50 34L48 34L48 32L50 32L50 31L51 31L51 32L52 32L52 29L51 29L51 27L52 27L52 28L53 28L53 27L54 27L54 28L55 28L55 27L56 27L56 28L58 28L58 26L56 26L56 24L55 24L55 22L54 22L54 23L52 23L52 22L49 22L49 21L47 21L47 22L45 22L45 23L44 23L44 24L43 24L43 26L41 26L41 27L43 27L43 28L44 28L44 26L45 26L45 28L46 28L46 27L47 27L47 25L48 25L48 22L49 22L49 24L51 24L51 23L52 23L52 24L53 24L53 25L52 25L52 26L51 26L51 27L50 27L50 28L49 28L49 29L48 29L48 28L47 28L47 29L48 29L48 30L47 30L47 31L46 31L46 30L45 30L45 29L43 29L43 30L41 30L41 29L42 29L42 28L39 28L39 27L38 27L38 24L39 24L39 26L40 26L40 24L39 24L39 23L41 23L41 24L42 24L42 22L39 22L39 23L38 23L38 22L37 22L37 23L36 23L36 24L35 24L35 22L34 22L34 24L33 24L33 23L32 23L32 22L33 22L33 21L32 21L32 22L31 22L31 20L33 20L33 19L32 19L32 18L31 18L31 20L30 20L30 17L31 17L31 16ZM46 16L46 18L47 18L47 19L48 19L48 18L47 18L47 16ZM40 17L40 18L39 18L39 19L38 19L38 20L39 20L39 19L40 19L40 18L41 18L41 17ZM19 19L19 20L21 20L21 23L22 23L22 22L23 22L23 21L22 21L22 19ZM6 22L6 23L7 23L7 22ZM8 22L8 24L9 24L9 23L10 23L10 24L11 24L11 23L10 23L10 22ZM18 22L18 23L19 23L19 22ZM59 23L59 24L60 24L60 23ZM1 24L1 25L2 25L2 24ZM34 24L34 25L35 25L35 27L37 27L37 26L36 26L36 25L37 25L37 24L36 24L36 25L35 25L35 24ZM44 24L44 25L45 25L45 24ZM8 25L8 26L11 26L11 25ZM21 25L21 26L22 26L22 25ZM49 25L49 26L48 26L48 27L49 27L49 26L50 26L50 25ZM53 25L53 26L55 26L55 25ZM59 25L59 26L60 26L60 25ZM6 26L6 27L7 27L7 26ZM25 26L25 27L26 27L26 28L27 28L27 29L28 29L28 28L27 28L27 27L26 27L26 26ZM31 26L31 28L33 28L33 27L32 27L32 26ZM20 27L20 28L19 28L19 32L18 32L18 28L16 28L16 29L17 29L17 32L18 32L18 33L17 33L17 35L16 35L16 37L15 37L15 42L16 42L16 43L14 43L14 42L13 42L13 41L14 41L14 40L13 40L13 39L14 39L14 38L12 38L12 42L13 42L13 43L14 43L14 44L13 44L13 45L11 45L11 44L12 44L12 43L11 43L11 44L10 44L10 45L9 45L9 43L10 43L10 41L9 41L9 40L11 40L11 37L12 37L12 36L14 36L14 35L12 35L12 36L11 36L11 37L10 37L10 38L6 38L6 39L8 39L8 41L9 41L9 43L7 43L7 42L6 42L6 43L7 43L7 44L8 44L8 45L7 45L7 46L5 46L5 47L4 47L4 48L5 48L5 49L7 49L7 48L8 48L8 49L9 49L9 48L12 48L12 47L10 47L10 46L13 46L13 45L15 45L15 46L14 46L14 47L13 47L13 49L10 49L10 50L13 50L13 51L14 51L14 54L15 54L15 53L16 53L16 52L15 52L15 51L14 51L14 50L13 50L13 49L14 49L14 47L15 47L15 48L16 48L16 49L15 49L15 50L17 50L17 48L18 48L18 49L20 49L20 50L21 50L21 49L20 49L20 47L21 47L21 48L22 48L22 49L23 49L23 50L22 50L22 51L23 51L23 52L24 52L24 54L25 54L25 52L24 52L24 51L25 51L25 46L26 46L26 47L27 47L27 48L28 48L28 47L27 47L27 46L26 46L26 44L27 44L27 45L29 45L29 44L28 44L28 41L27 41L27 43L26 43L26 44L25 44L25 45L24 45L24 42L23 42L23 41L26 41L26 40L25 40L25 37L24 37L24 35L25 35L25 34L26 34L26 32L25 32L25 31L24 31L24 30L23 30L23 31L22 31L22 29L21 29L21 27ZM23 28L23 29L24 29L24 28ZM5 29L5 32L8 32L8 29ZM29 29L29 32L32 32L32 29ZM53 29L53 32L56 32L56 29ZM6 30L6 31L7 31L7 30ZM15 30L15 32L14 32L14 31L13 31L13 32L14 32L14 33L12 33L12 34L14 34L14 33L15 33L15 34L16 34L16 33L15 33L15 32L16 32L16 30ZM30 30L30 31L31 31L31 30ZM33 30L33 33L32 33L32 34L31 34L31 35L32 35L32 36L33 36L33 37L32 37L32 38L31 38L31 39L32 39L32 38L33 38L33 37L34 37L34 39L35 39L35 37L36 37L36 35L37 35L37 33L38 33L38 32L37 32L37 31L34 31L34 30ZM43 30L43 31L40 31L40 33L41 33L41 32L42 32L42 34L43 34L43 32L44 32L44 30ZM54 30L54 31L55 31L55 30ZM57 30L57 31L58 31L58 33L59 33L59 32L60 32L60 31L58 31L58 30ZM23 31L23 32L24 32L24 33L25 33L25 32L24 32L24 31ZM47 31L47 32L48 32L48 31ZM21 32L21 33L22 33L22 34L20 34L20 33L19 33L19 34L20 34L20 35L22 35L22 36L23 36L23 35L24 35L24 34L23 34L23 33L22 33L22 32ZM34 32L34 33L33 33L33 36L34 36L34 34L36 34L36 33L37 33L37 32ZM45 32L45 33L44 33L44 35L46 35L46 34L47 34L47 33L46 33L46 32ZM9 34L9 35L7 35L7 36L6 36L6 37L8 37L8 36L10 36L10 35L11 35L11 34ZM22 34L22 35L23 35L23 34ZM56 34L56 35L59 35L59 36L60 36L60 34ZM18 35L18 36L17 36L17 37L16 37L16 40L18 40L18 41L17 41L17 43L18 43L18 46L15 46L15 47L16 47L16 48L17 48L17 47L18 47L18 48L19 48L19 47L20 47L20 46L21 46L21 47L22 47L22 46L24 46L24 45L23 45L23 44L21 44L21 43L20 43L20 42L21 42L21 41L20 41L20 40L21 40L21 38L22 38L22 41L23 41L23 40L24 40L24 38L22 38L22 37L21 37L21 38L20 38L20 39L19 39L19 40L18 40L18 38L17 38L17 37L18 37L18 36L19 36L19 35ZM41 35L41 36L40 36L40 37L41 37L41 39L42 39L42 40L41 40L41 41L42 41L42 42L44 42L44 43L46 43L46 42L47 42L47 41L49 41L49 42L48 42L48 43L49 43L49 44L45 44L45 46L46 46L46 47L47 47L47 48L46 48L46 49L47 49L47 48L48 48L48 50L49 50L49 47L50 47L50 46L51 46L51 47L52 47L52 46L51 46L51 45L50 45L50 43L49 43L49 42L50 42L50 39L49 39L49 38L48 38L48 37L47 37L47 38L46 38L46 37L45 37L45 36L44 36L44 37L43 37L43 36L42 36L42 35ZM44 37L44 38L42 38L42 39L43 39L43 40L42 40L42 41L43 41L43 40L44 40L44 39L45 39L45 40L46 40L46 41L47 41L47 39L48 39L48 40L49 40L49 39L48 39L48 38L47 38L47 39L45 39L45 37ZM54 37L54 38L53 38L53 39L54 39L54 40L56 40L56 41L55 41L55 42L56 42L56 43L57 43L57 44L58 44L58 43L57 43L57 42L56 42L56 41L57 41L57 39L55 39L55 37ZM2 38L2 39L4 39L4 38ZM59 39L59 40L60 40L60 39ZM0 40L0 41L1 41L1 40ZM6 40L6 41L7 41L7 40ZM36 40L36 43L37 43L37 42L38 42L38 41L39 41L39 40L38 40L38 41L37 41L37 40ZM18 41L18 42L20 42L20 41ZM53 41L53 42L54 42L54 41ZM22 42L22 43L23 43L23 42ZM19 43L19 45L20 45L20 43ZM15 44L15 45L16 45L16 44ZM21 45L21 46L22 46L22 45ZM48 45L48 46L47 46L47 47L48 47L48 46L50 46L50 45ZM7 46L7 47L5 47L5 48L7 48L7 47L8 47L8 46ZM53 47L53 48L54 48L54 47ZM41 48L41 49L42 49L42 48ZM43 48L43 49L44 49L44 48ZM23 50L23 51L24 51L24 50ZM31 50L31 51L32 51L32 50ZM40 50L40 51L39 51L39 53L38 53L38 55L37 55L37 53L35 53L35 54L34 54L34 55L33 55L33 56L34 56L34 57L35 57L35 56L36 56L36 55L37 55L37 57L36 57L36 58L37 58L37 57L40 57L40 56L41 56L41 53L43 53L43 52L40 52L40 51L42 51L42 50ZM43 50L43 51L44 51L44 50ZM52 50L52 51L53 51L53 50ZM3 51L3 52L4 52L4 51ZM45 51L45 52L46 52L46 51ZM29 53L29 56L32 56L32 53ZM39 53L39 54L40 54L40 53ZM53 53L53 56L56 56L56 53ZM30 54L30 55L31 55L31 54ZM35 54L35 55L36 55L36 54ZM54 54L54 55L55 55L55 54ZM38 55L38 56L39 56L39 55ZM49 55L49 56L50 56L50 55ZM57 56L57 57L58 57L58 56ZM47 57L47 58L48 58L48 57ZM54 57L54 59L55 59L55 58L56 58L56 57ZM11 58L11 59L10 59L10 60L11 60L11 59L12 59L12 58ZM24 58L24 59L26 59L26 58ZM31 58L31 59L32 59L32 60L33 60L33 59L35 59L35 58L33 58L33 59L32 59L32 58ZM41 58L41 59L42 59L42 58ZM43 58L43 59L44 59L44 58ZM56 59L56 60L57 60L57 59ZM0 0L0 7L7 7L7 0ZM1 1L1 6L6 6L6 1ZM2 2L2 5L5 5L5 2ZM54 0L54 7L61 7L61 0ZM55 1L55 6L60 6L60 1ZM56 2L56 5L59 5L59 2ZM0 54L0 61L7 61L7 54ZM1 55L1 60L6 60L6 55ZM2 56L2 59L5 59L5 56Z" fill="#000000"/></g></g></svg>
