<?xml version="1.0" encoding="UTF-8"?>
<svg xmlns="http://www.w3.org/2000/svg" version="1.1" width="300" height="300" viewBox="0 0 300 300"><rect x="0" y="0" width="300" height="300" fill="#ffffff"/><g transform="scale(5.263)"><g transform="translate(0,0)"><path fill-rule="evenodd" d="M9 0L9 1L8 1L8 2L10 2L10 3L8 3L8 4L10 4L10 3L11 3L11 5L12 5L12 7L13 7L13 8L11 8L11 6L10 6L10 7L9 7L9 5L8 5L8 7L9 7L9 8L6 8L6 9L7 9L7 10L5 10L5 8L0 8L0 9L2 9L2 10L3 10L3 11L1 11L1 10L0 10L0 11L1 11L1 12L0 12L0 15L2 15L2 14L4 14L4 13L8 13L8 14L9 14L9 15L10 15L10 17L11 17L11 16L12 16L12 15L13 15L13 17L12 17L12 18L13 18L13 17L14 17L14 14L12 14L12 12L13 12L13 13L15 13L15 11L16 11L16 9L18 9L18 11L17 11L17 12L16 12L16 13L17 13L17 14L20 14L20 15L21 15L21 14L22 14L22 13L23 13L23 14L25 14L25 15L24 15L24 17L22 17L22 18L21 18L21 22L24 22L24 21L25 21L25 22L26 22L26 23L25 23L25 24L29 24L29 26L28 26L28 25L27 25L27 26L26 26L26 29L23 29L23 31L24 31L24 33L23 33L23 34L20 34L20 35L19 35L19 36L18 36L18 33L21 33L21 32L19 32L19 31L20 31L20 29L18 29L18 28L16 28L16 27L13 27L13 26L15 26L15 25L19 25L19 23L20 23L20 22L19 22L19 23L18 23L18 22L17 22L17 21L20 21L20 20L18 20L18 19L19 19L19 18L20 18L20 17L19 17L19 16L16 16L16 14L15 14L15 16L16 16L16 17L15 17L15 21L16 21L16 22L15 22L15 23L16 23L16 24L15 24L15 25L14 25L14 23L13 23L13 22L14 22L14 21L13 21L13 20L14 20L14 19L11 19L11 18L9 18L9 16L8 16L8 18L5 18L5 19L4 19L4 18L2 18L2 19L1 19L1 16L0 16L0 19L1 19L1 20L3 20L3 19L4 19L4 21L2 21L2 23L3 23L3 25L1 25L1 26L0 26L0 27L1 27L1 28L2 28L2 29L3 29L3 28L4 28L4 31L2 31L2 30L0 30L0 32L1 32L1 33L0 33L0 38L1 38L1 36L3 36L3 37L2 37L2 39L0 39L0 41L1 41L1 42L2 42L2 43L0 43L0 48L5 48L5 47L7 47L7 48L6 48L6 49L8 49L8 51L9 51L9 52L8 52L8 57L11 57L11 56L12 56L12 57L14 57L14 56L15 56L15 57L16 57L16 56L17 56L17 57L20 57L20 56L17 56L17 54L18 54L18 55L20 55L20 54L18 54L18 53L20 53L20 52L19 52L19 51L20 51L20 48L21 48L21 49L22 49L22 50L21 50L21 51L22 51L22 52L23 52L23 51L24 51L24 53L22 53L22 54L21 54L21 55L23 55L23 57L24 57L24 55L23 55L23 54L24 54L24 53L26 53L26 54L25 54L25 55L26 55L26 54L30 54L30 53L31 53L31 54L32 54L32 52L35 52L35 55L34 55L34 56L30 56L30 55L28 55L28 57L29 57L29 56L30 56L30 57L38 57L38 55L37 55L37 54L38 54L38 53L37 53L37 52L35 52L35 51L34 51L34 50L33 50L33 49L34 49L34 48L35 48L35 50L38 50L38 49L39 49L39 51L38 51L38 52L39 52L39 51L41 51L41 50L43 50L43 51L42 51L42 52L43 52L43 53L41 53L41 54L42 54L42 55L41 55L41 57L42 57L42 56L43 56L43 57L44 57L44 56L43 56L43 55L45 55L45 54L46 54L46 55L49 55L49 56L47 56L47 57L50 57L50 55L49 55L49 54L46 54L46 53L47 53L47 51L48 51L48 53L50 53L50 54L53 54L53 53L54 53L54 54L55 54L55 53L56 53L56 52L57 52L57 51L56 51L56 52L55 52L55 50L57 50L57 49L56 49L56 48L57 48L57 47L56 47L56 46L55 46L55 45L54 45L54 44L57 44L57 43L56 43L56 42L57 42L57 41L55 41L55 39L57 39L57 37L56 37L56 36L55 36L55 34L57 34L57 33L56 33L56 32L55 32L55 31L56 31L56 30L55 30L55 29L54 29L54 28L55 28L55 27L56 27L56 28L57 28L57 27L56 27L56 26L57 26L57 23L55 23L55 22L57 22L57 20L56 20L56 18L55 18L55 19L53 19L53 20L54 20L54 21L55 21L55 22L53 22L53 23L50 23L50 24L53 24L53 25L51 25L51 26L49 26L49 25L47 25L47 24L49 24L49 22L50 22L50 21L51 21L51 22L52 22L52 21L51 21L51 20L52 20L52 19L51 19L51 18L49 18L49 17L48 17L48 16L49 16L49 15L48 15L48 16L47 16L47 18L45 18L45 19L46 19L46 20L45 20L45 21L44 21L44 16L45 16L45 17L46 17L46 16L45 16L45 15L43 15L43 14L44 14L44 12L45 12L45 11L46 11L46 10L45 10L45 11L44 11L44 8L43 8L43 6L42 6L42 5L43 5L43 4L44 4L44 5L45 5L45 6L44 6L44 7L45 7L45 8L47 8L47 9L48 9L48 10L47 10L47 11L48 11L48 13L47 13L47 12L46 12L46 13L47 13L47 14L50 14L50 13L52 13L52 14L53 14L53 13L52 13L52 12L54 12L54 13L56 13L56 10L57 10L57 9L56 9L56 8L55 8L55 9L54 9L54 8L53 8L53 9L54 9L54 10L55 10L55 11L51 11L51 10L52 10L52 8L51 8L51 10L49 10L49 9L50 9L50 8L49 8L49 9L48 9L48 7L49 7L49 6L48 6L48 7L47 7L47 5L48 5L48 0L45 0L45 1L44 1L44 0L41 0L41 1L42 1L42 2L40 2L40 3L41 3L41 4L42 4L42 5L41 5L41 6L40 6L40 7L41 7L41 6L42 6L42 8L41 8L41 10L40 10L40 9L39 9L39 10L37 10L37 8L36 8L36 7L37 7L37 6L38 6L38 7L39 7L39 5L37 5L37 6L36 6L36 7L35 7L35 5L36 5L36 4L39 4L39 3L38 3L38 2L39 2L39 1L40 1L40 0L39 0L39 1L38 1L38 0L35 0L35 1L34 1L34 0L33 0L33 1L32 1L32 2L30 2L30 1L31 1L31 0L30 0L30 1L29 1L29 0L27 0L27 1L29 1L29 2L28 2L28 3L27 3L27 4L26 4L26 3L24 3L24 1L25 1L25 2L26 2L26 0L23 0L23 4L24 4L24 5L22 5L22 4L19 4L19 3L21 3L21 1L20 1L20 0L17 0L17 1L18 1L18 2L15 2L15 0L14 0L14 2L15 2L15 3L17 3L17 4L18 4L18 5L20 5L20 7L19 7L19 6L18 6L18 7L17 7L17 6L16 6L16 7L15 7L15 6L14 6L14 7L13 7L13 5L16 5L16 4L14 4L14 3L13 3L13 2L12 2L12 0L11 0L11 1L10 1L10 0ZM19 1L19 2L20 2L20 1ZM33 1L33 2L32 2L32 4L31 4L31 5L32 5L32 4L33 4L33 7L32 7L32 6L31 6L31 7L32 7L32 8L31 8L31 9L32 9L32 10L30 10L30 9L29 9L29 10L30 10L30 12L28 12L28 13L26 13L26 16L25 16L25 17L26 17L26 18L23 18L23 19L22 19L22 21L24 21L24 20L25 20L25 21L26 21L26 20L27 20L27 21L29 21L29 20L30 20L30 19L29 19L29 20L27 20L27 19L28 19L28 18L27 18L27 17L28 17L28 16L30 16L30 14L32 14L32 15L33 15L33 14L34 14L34 15L35 15L35 14L37 14L37 15L36 15L36 16L34 16L34 18L32 18L32 17L33 17L33 16L31 16L31 20L32 20L32 21L34 21L34 22L33 22L33 23L32 23L32 22L30 22L30 23L29 23L29 22L27 22L27 23L29 23L29 24L30 24L30 25L31 25L31 26L32 26L32 25L31 25L31 24L34 24L34 26L33 26L33 27L34 27L34 26L35 26L35 24L34 24L34 22L35 22L35 20L36 20L36 18L37 18L37 17L36 17L36 16L37 16L37 15L38 15L38 19L37 19L37 21L38 21L38 22L39 22L39 23L38 23L38 24L37 24L37 25L38 25L38 26L37 26L37 27L35 27L35 28L39 28L39 29L38 29L38 30L37 30L37 29L36 29L36 30L35 30L35 29L33 29L33 28L32 28L32 30L31 30L31 31L29 31L29 32L28 32L28 33L27 33L27 35L26 35L26 36L25 36L25 38L27 38L27 39L28 39L28 40L26 40L26 39L25 39L25 40L24 40L24 39L23 39L23 38L24 38L24 37L23 37L23 36L22 36L22 35L20 35L20 36L19 36L19 37L17 37L17 35L16 35L16 34L17 34L17 33L18 33L18 29L16 29L16 28L15 28L15 29L12 29L12 28L13 28L13 27L12 27L12 26L11 26L11 27L12 27L12 28L11 28L11 29L12 29L12 30L16 30L16 31L14 31L14 32L13 32L13 31L12 31L12 32L11 32L11 31L8 31L8 34L7 34L7 33L6 33L6 32L7 32L7 31L4 31L4 32L3 32L3 33L1 33L1 35L3 35L3 36L5 36L5 35L6 35L6 36L7 36L7 35L8 35L8 34L9 34L9 35L10 35L10 37L6 37L6 38L7 38L7 39L5 39L5 40L4 40L4 41L3 41L3 40L1 40L1 41L3 41L3 43L2 43L2 46L1 46L1 47L2 47L2 46L3 46L3 47L5 47L5 46L3 46L3 44L4 44L4 42L7 42L7 43L6 43L6 44L5 44L5 45L6 45L6 46L7 46L7 47L8 47L8 48L9 48L9 47L11 47L11 45L12 45L12 46L13 46L13 47L14 47L14 46L13 46L13 44L12 44L12 43L13 43L13 42L17 42L17 43L18 43L18 42L20 42L20 44L21 44L21 45L20 45L20 47L19 47L19 46L17 46L17 45L18 45L18 44L17 44L17 45L16 45L16 43L15 43L15 44L14 44L14 45L16 45L16 47L15 47L15 49L14 49L14 50L13 50L13 49L12 49L12 48L10 48L10 50L9 50L9 51L11 51L11 49L12 49L12 50L13 50L13 51L12 51L12 52L10 52L10 56L11 56L11 55L12 55L12 54L13 54L13 56L14 56L14 55L15 55L15 56L16 56L16 55L15 55L15 54L16 54L16 53L18 53L18 51L19 51L19 49L16 49L16 48L18 48L18 47L19 47L19 48L20 48L20 47L23 47L23 48L22 48L22 49L23 49L23 48L24 48L24 49L25 49L25 46L26 46L26 45L27 45L27 48L28 48L28 47L29 47L29 48L30 48L30 47L29 47L29 45L31 45L31 47L32 47L32 45L33 45L33 48L31 48L31 49L33 49L33 48L34 48L34 46L35 46L35 48L36 48L36 47L41 47L41 48L39 48L39 49L41 49L41 48L42 48L42 49L43 49L43 50L44 50L44 49L45 49L45 50L48 50L48 48L50 48L50 47L52 47L52 48L54 48L54 49L53 49L53 51L54 51L54 50L55 50L55 48L54 48L54 45L53 45L53 44L51 44L51 41L52 41L52 43L55 43L55 42L54 42L54 40L53 40L53 41L52 41L52 40L51 40L51 41L49 41L49 42L50 42L50 43L48 43L48 42L47 42L47 41L48 41L48 40L50 40L50 39L51 39L51 38L52 38L52 39L53 39L53 36L52 36L52 37L51 37L51 35L52 35L52 34L53 34L53 32L52 32L52 33L50 33L50 32L43 32L43 31L44 31L44 30L45 30L45 29L46 29L46 30L48 30L48 28L47 28L47 27L46 27L46 26L47 26L47 25L45 25L45 24L47 24L47 22L48 22L48 21L49 21L49 20L50 20L50 19L49 19L49 18L48 18L48 19L47 19L47 20L46 20L46 21L45 21L45 22L44 22L44 29L43 29L43 31L40 31L40 32L39 32L39 30L40 30L40 29L41 29L41 28L42 28L42 27L43 27L43 26L41 26L41 24L40 24L40 23L42 23L42 22L41 22L41 21L42 21L42 20L41 20L41 14L39 14L39 13L42 13L42 12L43 12L43 10L42 10L42 11L40 11L40 12L39 12L39 11L38 11L38 12L39 12L39 13L38 13L38 14L37 14L37 13L35 13L35 12L34 12L34 13L33 13L33 12L32 12L32 13L31 13L31 11L33 11L33 9L34 9L34 10L35 10L35 9L36 9L36 8L34 8L34 5L35 5L35 3L37 3L37 2L38 2L38 1L37 1L37 2L35 2L35 3L33 3L33 2L34 2L34 1ZM43 1L43 2L44 2L44 1ZM45 1L45 2L47 2L47 1ZM29 2L29 3L28 3L28 4L30 4L30 2ZM12 3L12 5L13 5L13 3ZM44 3L44 4L45 4L45 5L47 5L47 3L46 3L46 4L45 4L45 3ZM25 4L25 8L24 8L24 6L23 6L23 8L22 8L22 5L21 5L21 9L20 9L20 8L19 8L19 9L20 9L20 10L19 10L19 11L22 11L22 9L25 9L25 10L26 10L26 9L25 9L25 8L26 8L26 4ZM27 5L27 8L30 8L30 5ZM28 6L28 7L29 7L29 6ZM45 6L45 7L46 7L46 6ZM16 7L16 8L14 8L14 9L12 9L12 10L11 10L11 8L10 8L10 9L8 9L8 10L10 10L10 11L9 11L9 12L8 12L8 13L9 13L9 14L10 14L10 13L9 13L9 12L10 12L10 11L11 11L11 12L12 12L12 10L15 10L15 9L16 9L16 8L17 8L17 7ZM42 8L42 9L43 9L43 8ZM3 9L3 10L4 10L4 9ZM27 9L27 10L28 10L28 9ZM55 9L55 10L56 10L56 9ZM4 11L4 12L7 12L7 11ZM13 11L13 12L14 12L14 11ZM25 11L25 12L24 12L24 13L25 13L25 12L27 12L27 11ZM50 11L50 12L51 12L51 11ZM1 12L1 14L2 14L2 13L3 13L3 12ZM17 12L17 13L18 13L18 12ZM21 12L21 13L20 13L20 14L21 14L21 13L22 13L22 12ZM29 13L29 14L28 14L28 15L27 15L27 16L28 16L28 15L29 15L29 14L30 14L30 13ZM5 14L5 15L4 15L4 16L2 16L2 17L4 17L4 16L5 16L5 15L7 15L7 14ZM11 14L11 15L12 15L12 14ZM38 14L38 15L39 15L39 14ZM54 14L54 15L52 15L52 16L54 16L54 17L57 17L57 16L56 16L56 14ZM42 15L42 17L43 17L43 15ZM50 15L50 17L51 17L51 15ZM6 16L6 17L7 17L7 16ZM16 17L16 18L17 18L17 19L18 19L18 18L19 18L19 17L18 17L18 18L17 18L17 17ZM52 17L52 18L53 18L53 17ZM8 18L8 19L9 19L9 21L10 21L10 22L8 22L8 20L7 20L7 19L5 19L5 22L3 22L3 23L5 23L5 22L8 22L8 23L6 23L6 24L7 24L7 25L6 25L6 26L8 26L8 24L9 24L9 25L10 25L10 24L11 24L11 23L10 23L10 22L13 22L13 21L12 21L12 20L11 20L11 21L10 21L10 19L9 19L9 18ZM26 18L26 19L25 19L25 20L26 20L26 19L27 19L27 18ZM34 18L34 19L33 19L33 20L35 20L35 18ZM38 19L38 20L40 20L40 19ZM48 19L48 20L47 20L47 21L48 21L48 20L49 20L49 19ZM6 20L6 21L7 21L7 20ZM16 20L16 21L17 21L17 20ZM55 20L55 21L56 21L56 20ZM0 21L0 22L1 22L1 21ZM45 22L45 23L46 23L46 22ZM21 23L21 24L20 24L20 25L21 25L21 27L20 27L20 26L19 26L19 28L21 28L21 29L22 29L22 28L21 28L21 27L22 27L22 26L23 26L23 25L24 25L24 26L25 26L25 25L24 25L24 23L23 23L23 25L21 25L21 24L22 24L22 23ZM30 23L30 24L31 24L31 23ZM4 24L4 25L3 25L3 26L1 26L1 27L2 27L2 28L3 28L3 27L4 27L4 26L5 26L5 24ZM38 24L38 25L39 25L39 26L38 26L38 27L41 27L41 26L40 26L40 24ZM42 24L42 25L43 25L43 24ZM54 24L54 25L53 25L53 27L54 27L54 25L55 25L55 26L56 26L56 25L55 25L55 24ZM17 26L17 27L18 27L18 26ZM5 27L5 30L8 30L8 27ZM9 27L9 30L10 30L10 27ZM23 27L23 28L25 28L25 27ZM27 27L27 30L30 30L30 27ZM45 27L45 28L46 28L46 29L47 29L47 28L46 28L46 27ZM49 27L49 30L52 30L52 27ZM6 28L6 29L7 29L7 28ZM28 28L28 29L29 29L29 28ZM50 28L50 29L51 29L51 28ZM53 29L53 30L54 30L54 31L55 31L55 30L54 30L54 29ZM25 30L25 32L27 32L27 31L26 31L26 30ZM32 30L32 31L31 31L31 32L30 32L30 33L29 33L29 34L28 34L28 36L29 36L29 37L30 37L30 39L31 39L31 40L30 40L30 41L29 41L29 40L28 40L28 41L29 41L29 42L28 42L28 43L26 43L26 44L25 44L25 41L24 41L24 40L23 40L23 39L22 39L22 38L23 38L23 37L19 37L19 38L20 38L20 39L18 39L18 40L16 40L16 39L15 39L15 38L16 38L16 37L15 37L15 35L14 35L14 34L15 34L15 33L17 33L17 32L15 32L15 33L13 33L13 32L12 32L12 33L13 33L13 34L11 34L11 33L10 33L10 32L9 32L9 33L10 33L10 34L11 34L11 36L12 36L12 37L11 37L11 39L10 39L10 38L9 38L9 39L10 39L10 40L11 40L11 41L12 41L12 40L11 40L11 39L13 39L13 41L14 41L14 40L16 40L16 41L21 41L21 42L22 42L22 43L21 43L21 44L22 44L22 45L21 45L21 46L22 46L22 45L23 45L23 46L25 46L25 45L26 45L26 44L27 44L27 45L28 45L28 43L31 43L31 44L33 44L33 45L35 45L35 44L36 44L36 45L37 45L37 46L38 46L38 45L39 45L39 46L42 46L42 47L43 47L43 49L44 49L44 42L45 42L45 41L42 41L42 40L47 40L47 38L45 38L45 37L47 37L47 36L48 36L48 35L47 35L47 34L45 34L45 33L44 33L44 34L45 34L45 35L43 35L43 37L42 37L42 36L41 36L41 34L43 34L43 32L42 32L42 33L40 33L40 34L39 34L39 35L38 35L38 36L41 36L41 38L43 38L43 39L42 39L42 40L41 40L41 39L40 39L40 38L38 38L38 37L37 37L37 34L38 34L38 33L39 33L39 32L38 32L38 31L37 31L37 30L36 30L36 31L35 31L35 30ZM1 31L1 32L2 32L2 31ZM33 31L33 32L32 32L32 33L34 33L34 34L36 34L36 33L35 33L35 32L34 32L34 31ZM36 31L36 32L37 32L37 33L38 33L38 32L37 32L37 31ZM4 32L4 33L3 33L3 35L5 35L5 34L4 34L4 33L5 33L5 32ZM54 32L54 33L55 33L55 32ZM25 33L25 34L23 34L23 35L25 35L25 34L26 34L26 33ZM49 33L49 37L48 37L48 39L50 39L50 38L51 38L51 37L50 37L50 33ZM6 34L6 35L7 35L7 34ZM29 34L29 35L30 35L30 34ZM32 34L32 35L31 35L31 36L32 36L32 37L31 37L31 38L32 38L32 37L33 37L33 39L32 39L32 40L31 40L31 41L32 41L32 42L31 42L31 43L33 43L33 41L34 41L34 44L35 44L35 41L36 41L36 42L37 42L37 41L38 41L38 42L39 42L39 43L36 43L36 44L37 44L37 45L38 45L38 44L39 44L39 43L41 43L41 44L40 44L40 45L43 45L43 42L40 42L40 41L41 41L41 40L39 40L39 39L37 39L37 37L33 37L33 34ZM12 35L12 36L13 36L13 39L14 39L14 38L15 38L15 37L14 37L14 35ZM34 35L34 36L35 36L35 35ZM45 35L45 36L44 36L44 37L43 37L43 38L44 38L44 39L45 39L45 38L44 38L44 37L45 37L45 36L46 36L46 35ZM26 36L26 37L27 37L27 38L28 38L28 37L27 37L27 36ZM54 36L54 37L55 37L55 38L54 38L54 39L55 39L55 38L56 38L56 37L55 37L55 36ZM3 37L3 39L4 39L4 37ZM35 38L35 40L36 40L36 41L37 41L37 40L36 40L36 38ZM7 39L7 40L6 40L6 41L7 41L7 42L9 42L9 41L7 41L7 40L8 40L8 39ZM33 39L33 40L34 40L34 39ZM21 40L21 41L23 41L23 42L24 42L24 41L23 41L23 40ZM38 40L38 41L39 41L39 40ZM26 41L26 42L27 42L27 41ZM11 42L11 43L12 43L12 42ZM46 42L46 45L47 45L47 42ZM7 43L7 44L6 44L6 45L7 45L7 44L8 44L8 47L9 47L9 46L10 46L10 45L9 45L9 44L10 44L10 43ZM23 43L23 44L24 44L24 43ZM48 45L48 46L47 46L47 47L46 47L46 46L45 46L45 47L46 47L46 48L45 48L45 49L47 49L47 48L48 48L48 47L50 47L50 46L51 46L51 45ZM37 48L37 49L38 49L38 48ZM27 49L27 52L30 52L30 49ZM49 49L49 52L52 52L52 49ZM15 50L15 52L14 52L14 51L13 51L13 53L14 53L14 54L15 54L15 53L16 53L16 51L17 51L17 50ZM22 50L22 51L23 51L23 50ZM25 50L25 52L26 52L26 50ZM28 50L28 51L29 51L29 50ZM31 50L31 52L32 52L32 51L33 51L33 50ZM50 50L50 51L51 51L51 50ZM43 51L43 52L44 52L44 53L45 53L45 52L44 52L44 51ZM54 52L54 53L55 53L55 52ZM11 53L11 54L12 54L12 53ZM36 53L36 54L37 54L37 53ZM39 53L39 54L40 54L40 53ZM35 55L35 56L37 56L37 55ZM39 55L39 56L40 56L40 55ZM51 55L51 57L52 57L52 55ZM54 55L54 56L53 56L53 57L54 57L54 56L55 56L55 57L56 57L56 56L55 56L55 55ZM45 56L45 57L46 57L46 56ZM0 0L0 7L7 7L7 0ZM1 1L1 6L6 6L6 1ZM2 2L2 5L5 5L5 2ZM50 0L50 7L57 7L57 0ZM51 1L51 6L56 6L56 1ZM52 2L52 5L55 5L55 2ZM0 50L0 57L7 57L7 50ZM1 51L1 56L6 56L6 51ZM2 52L2 55L5 55L5 52Z" fill="#000000"/></g></g></svg>
