<?xml version="1.0" encoding="UTF-8"?>
<svg xmlns="http://www.w3.org/2000/svg" version="1.1" width="300" height="300" viewBox="0 0 300 300"><rect x="0" y="0" width="300" height="300" fill="#ffffff"/><g transform="scale(5.263)"><g transform="translate(0,0)"><path fill-rule="evenodd" d="M9 0L9 1L8 1L8 2L9 2L9 3L8 3L8 4L9 4L9 3L10 3L10 2L9 2L9 1L11 1L11 2L12 2L12 0ZM19 0L19 1L18 1L18 2L16 2L16 3L17 3L17 4L18 4L18 5L20 5L20 7L19 7L19 6L18 6L18 7L17 7L17 6L16 6L16 7L15 7L15 5L16 5L16 4L14 4L14 3L15 3L15 2L14 2L14 3L11 3L11 5L10 5L10 7L9 7L9 5L8 5L8 7L9 7L9 8L6 8L6 9L5 9L5 8L0 8L0 9L3 9L3 10L2 10L2 11L0 11L0 14L1 14L1 13L2 13L2 15L1 15L1 17L2 17L2 19L3 19L3 21L2 21L2 22L4 22L4 23L3 23L3 25L2 25L2 24L1 24L1 26L0 26L0 27L1 27L1 28L0 28L0 29L1 29L1 28L2 28L2 26L4 26L4 29L2 29L2 30L0 30L0 31L1 31L1 32L0 32L0 33L2 33L2 30L4 30L4 31L3 31L3 32L4 32L4 33L5 33L5 34L4 34L4 36L5 36L5 37L3 37L3 38L2 38L2 35L1 35L1 34L0 34L0 41L1 41L1 42L0 42L0 43L1 43L1 44L0 44L0 45L1 45L1 46L0 46L0 48L5 48L5 47L7 47L7 46L5 46L5 47L3 47L3 46L4 46L4 44L5 44L5 43L3 43L3 44L2 44L2 43L1 43L1 42L2 42L2 41L1 41L1 40L3 40L3 39L5 39L5 40L4 40L4 41L3 41L3 42L6 42L6 43L7 43L7 42L6 42L6 41L9 41L9 42L8 42L8 48L9 48L9 49L8 49L8 51L9 51L9 49L11 49L11 50L12 50L12 48L10 48L10 47L12 47L12 46L14 46L14 45L15 45L15 46L16 46L16 45L17 45L17 48L16 48L16 47L14 47L14 48L16 48L16 49L17 49L17 50L15 50L15 49L13 49L13 51L14 51L14 52L12 52L12 51L11 51L11 52L10 52L10 53L9 53L9 52L8 52L8 57L9 57L9 55L10 55L10 56L11 56L11 57L12 57L12 56L13 56L13 57L14 57L14 54L15 54L15 55L16 55L16 57L17 57L17 55L20 55L20 54L17 54L17 53L20 53L20 52L22 52L22 51L21 51L21 50L25 50L25 51L26 51L26 52L24 52L24 51L23 51L23 52L24 52L24 53L21 53L21 54L22 54L22 55L23 55L23 56L24 56L24 57L26 57L26 56L27 56L27 55L26 55L26 54L25 54L25 55L26 55L26 56L24 56L24 55L23 55L23 54L24 54L24 53L27 53L27 54L30 54L30 53L31 53L31 54L32 54L32 55L34 55L34 56L30 56L30 55L28 55L28 57L29 57L29 56L30 56L30 57L35 57L35 56L36 56L36 57L37 57L37 56L38 56L38 57L39 57L39 55L37 55L37 56L36 56L36 54L33 54L33 53L31 53L31 52L33 52L33 51L32 51L32 50L34 50L34 52L35 52L35 53L37 53L37 54L38 54L38 53L37 53L37 52L38 52L38 51L40 51L40 52L41 52L41 51L42 51L42 50L43 50L43 49L44 49L44 47L43 47L43 45L44 45L44 44L46 44L46 45L47 45L47 44L48 44L48 46L49 46L49 48L48 48L48 49L47 49L47 50L46 50L46 51L44 51L44 52L43 52L43 53L39 53L39 54L45 54L45 53L46 53L46 51L47 51L47 50L48 50L48 53L47 53L47 54L46 54L46 55L45 55L45 57L46 57L46 55L49 55L49 56L47 56L47 57L50 57L50 55L51 55L51 54L52 54L52 53L53 53L53 52L54 52L54 54L53 54L53 55L54 55L54 56L51 56L51 57L54 57L54 56L55 56L55 57L56 57L56 56L55 56L55 52L57 52L57 51L56 51L56 49L57 49L57 48L56 48L56 49L54 49L54 51L53 51L53 48L55 48L55 47L56 47L56 46L57 46L57 45L56 45L56 46L55 46L55 45L54 45L54 47L53 47L53 48L50 48L50 46L51 46L51 45L52 45L52 44L57 44L57 43L56 43L56 41L55 41L55 39L57 39L57 36L56 36L56 38L55 38L55 37L54 37L54 36L55 36L55 35L56 35L56 34L57 34L57 32L56 32L56 34L55 34L55 30L57 30L57 28L56 28L56 29L55 29L55 27L56 27L56 25L57 25L57 23L55 23L55 22L57 22L57 20L56 20L56 21L55 21L55 19L56 19L56 18L57 18L57 17L56 17L56 16L57 16L57 15L56 15L56 13L57 13L57 12L56 12L56 10L57 10L57 9L56 9L56 8L55 8L55 9L54 9L54 8L53 8L53 9L52 9L52 8L51 8L51 9L52 9L52 10L50 10L50 8L49 8L49 9L48 9L48 7L49 7L49 6L48 6L48 7L47 7L47 5L48 5L48 0L45 0L45 1L44 1L44 3L43 3L43 2L42 2L42 1L43 1L43 0L41 0L41 1L38 1L38 0L37 0L37 1L36 1L36 0L35 0L35 1L33 1L33 0L27 0L27 1L26 1L26 0L24 0L24 1L23 1L23 0L22 0L22 1L21 1L21 2L22 2L22 1L23 1L23 2L24 2L24 1L25 1L25 2L27 2L27 1L30 1L30 2L28 2L28 3L30 3L30 4L26 4L26 3L23 3L23 4L22 4L22 5L21 5L21 4L19 4L19 3L20 3L20 2L19 2L19 1L20 1L20 0ZM32 1L32 2L31 2L31 3L32 3L32 5L31 5L31 7L32 7L32 8L31 8L31 9L32 9L32 10L31 10L31 11L30 11L30 10L29 10L29 9L25 9L25 8L26 8L26 4L25 4L25 8L24 8L24 6L23 6L23 5L24 5L24 4L23 4L23 5L22 5L22 6L21 6L21 8L20 8L20 10L19 10L19 9L18 9L18 8L17 8L17 7L16 7L16 8L15 8L15 7L14 7L14 4L12 4L12 5L11 5L11 7L10 7L10 8L11 8L11 7L12 7L12 5L13 5L13 8L14 8L14 10L15 10L15 13L13 13L13 12L14 12L14 11L13 11L13 12L11 12L11 14L12 14L12 16L9 16L9 15L10 15L10 14L9 14L9 13L10 13L10 11L8 11L8 10L7 10L7 9L6 9L6 10L5 10L5 9L4 9L4 10L3 10L3 12L2 12L2 13L4 13L4 12L5 12L5 14L3 14L3 15L2 15L2 17L4 17L4 18L3 18L3 19L4 19L4 18L5 18L5 20L4 20L4 22L5 22L5 20L8 20L8 21L6 21L6 22L7 22L7 23L6 23L6 24L7 24L7 25L6 25L6 26L7 26L7 25L9 25L9 26L10 26L10 29L11 29L11 30L12 30L12 28L13 28L13 27L14 27L14 29L15 29L15 28L18 28L18 29L16 29L16 30L17 30L17 31L16 31L16 32L20 32L20 30L21 30L21 33L19 33L19 34L20 34L20 35L19 35L19 37L17 37L17 36L18 36L18 35L17 35L17 36L15 36L15 35L14 35L14 36L13 36L13 34L12 34L12 33L13 33L13 31L11 31L11 32L10 32L10 31L4 31L4 32L7 32L7 33L6 33L6 34L5 34L5 36L7 36L7 35L9 35L9 36L8 36L8 38L7 38L7 37L5 37L5 38L7 38L7 39L6 39L6 40L5 40L5 41L6 41L6 40L7 40L7 39L9 39L9 40L10 40L10 38L11 38L11 37L12 37L12 36L13 36L13 38L12 38L12 40L11 40L11 42L12 42L12 43L13 43L13 44L14 44L14 43L15 43L15 45L16 45L16 44L17 44L17 45L18 45L18 44L17 44L17 43L18 43L18 42L17 42L17 40L18 40L18 38L19 38L19 39L20 39L20 38L19 38L19 37L21 37L21 39L23 39L23 40L21 40L21 41L19 41L19 42L21 42L21 43L22 43L22 42L21 42L21 41L23 41L23 40L24 40L24 39L23 39L23 38L24 38L24 37L23 37L23 36L22 36L22 35L21 35L21 33L23 33L23 32L24 32L24 33L25 33L25 34L24 34L24 35L25 35L25 34L26 34L26 36L25 36L25 38L26 38L26 39L25 39L25 42L24 42L24 45L22 45L22 44L20 44L20 43L19 43L19 45L20 45L20 46L19 46L19 47L18 47L18 48L17 48L17 49L18 49L18 50L17 50L17 51L15 51L15 52L14 52L14 53L12 53L12 52L11 52L11 53L10 53L10 54L11 54L11 55L13 55L13 54L14 54L14 53L15 53L15 54L16 54L16 53L17 53L17 51L18 51L18 52L20 52L20 51L19 51L19 49L18 49L18 48L20 48L20 50L21 50L21 48L20 48L20 47L22 47L22 49L23 49L23 48L24 48L24 49L25 49L25 48L24 48L24 47L26 47L26 48L32 48L32 49L31 49L31 50L32 50L32 49L33 49L33 48L34 48L34 50L35 50L35 49L36 49L36 48L37 48L37 49L38 49L38 50L39 50L39 49L38 49L38 48L40 48L40 49L42 49L42 47L41 47L41 45L43 45L43 44L41 44L41 43L43 43L43 42L45 42L45 43L49 43L49 41L51 41L51 42L50 42L50 44L52 44L52 43L54 43L54 42L55 42L55 41L54 41L54 40L53 40L53 38L54 38L54 37L51 37L51 38L50 38L50 39L49 39L49 38L48 38L48 36L49 36L49 37L50 37L50 36L49 36L49 34L50 34L50 35L51 35L51 36L53 36L53 35L52 35L52 34L54 34L54 35L55 35L55 34L54 34L54 33L52 33L52 32L53 32L53 31L52 31L52 32L50 32L50 31L49 31L49 32L50 32L50 33L48 33L48 32L47 32L47 31L45 31L45 30L48 30L48 29L46 29L46 28L48 28L48 25L50 25L50 26L53 26L53 27L54 27L54 24L52 24L52 21L53 21L53 23L54 23L54 22L55 22L55 21L54 21L54 20L53 20L53 18L54 18L54 19L55 19L55 18L56 18L56 17L55 17L55 16L53 16L53 15L55 15L55 13L56 13L56 12L55 12L55 13L54 13L54 12L52 12L52 11L55 11L55 10L56 10L56 9L55 9L55 10L54 10L54 9L53 9L53 10L52 10L52 11L51 11L51 12L52 12L52 14L53 14L53 15L52 15L52 16L51 16L51 15L50 15L50 16L48 16L48 15L49 15L49 14L51 14L51 13L50 13L50 10L48 10L48 9L47 9L47 7L46 7L46 6L45 6L45 8L44 8L44 9L43 9L43 10L42 10L42 9L41 9L41 8L38 8L38 6L39 6L39 7L40 7L40 6L41 6L41 7L42 7L42 6L43 6L43 7L44 7L44 5L47 5L47 3L46 3L46 4L45 4L45 3L44 3L44 5L42 5L42 4L43 4L43 3L42 3L42 2L41 2L41 3L40 3L40 2L39 2L39 3L40 3L40 4L38 4L38 6L37 6L37 7L36 7L36 5L35 5L35 4L36 4L36 3L37 3L37 2L38 2L38 1L37 1L37 2L36 2L36 3L35 3L35 2L33 2L33 1ZM45 1L45 2L47 2L47 1ZM32 2L32 3L33 3L33 2ZM41 3L41 4L40 4L40 5L39 5L39 6L40 6L40 5L41 5L41 4L42 4L42 3ZM27 5L27 8L30 8L30 5ZM33 5L33 6L32 6L32 7L33 7L33 6L34 6L34 8L36 8L36 9L35 9L35 10L34 10L34 9L33 9L33 11L31 11L31 13L32 13L32 12L33 12L33 11L35 11L35 15L37 15L37 16L34 16L34 14L33 14L33 15L32 15L32 14L30 14L30 13L29 13L29 14L28 14L28 15L27 15L27 16L28 16L28 17L27 17L27 18L26 18L26 15L25 15L25 14L26 14L26 13L25 13L25 12L26 12L26 11L25 11L25 9L23 9L23 10L22 10L22 9L21 9L21 10L22 10L22 11L19 11L19 10L18 10L18 9L17 9L17 8L16 8L16 9L15 9L15 10L16 10L16 9L17 9L17 10L18 10L18 11L17 11L17 12L16 12L16 13L15 13L15 14L16 14L16 16L15 16L15 15L14 15L14 16L15 16L15 17L13 17L13 16L12 16L12 19L13 19L13 20L10 20L10 21L8 21L8 23L7 23L7 24L9 24L9 25L10 25L10 24L11 24L11 25L12 25L12 26L13 26L13 25L12 25L12 24L13 24L13 23L14 23L14 21L13 21L13 20L14 20L14 19L13 19L13 18L15 18L15 17L16 17L16 16L17 16L17 18L19 18L19 19L16 19L16 20L15 20L15 21L16 21L16 22L15 22L15 23L16 23L16 25L17 25L17 27L18 27L18 25L19 25L19 24L18 24L18 23L20 23L20 22L18 22L18 21L20 21L20 20L24 20L24 21L23 21L23 22L24 22L24 21L25 21L25 22L26 22L26 23L25 23L25 24L24 24L24 23L23 23L23 26L24 26L24 27L23 27L23 30L22 30L22 31L23 31L23 30L24 30L24 32L25 32L25 33L26 33L26 34L27 34L27 33L28 33L28 31L31 31L31 32L30 32L30 33L29 33L29 34L28 34L28 35L27 35L27 36L26 36L26 38L28 38L28 37L27 37L27 36L28 36L28 35L29 35L29 36L30 36L30 37L31 37L31 38L29 38L29 39L31 39L31 40L32 40L32 39L33 39L33 40L34 40L34 39L35 39L35 38L32 38L32 34L31 34L31 33L32 33L32 31L33 31L33 30L31 30L31 29L32 29L32 27L33 27L33 26L34 26L34 27L35 27L35 30L36 30L36 32L35 32L35 31L34 31L34 32L35 32L35 33L37 33L37 34L34 34L34 33L33 33L33 35L35 35L35 36L34 36L34 37L37 37L37 38L36 38L36 39L39 39L39 40L40 40L40 39L39 39L39 38L41 38L41 39L42 39L42 41L41 41L41 42L40 42L40 41L39 41L39 43L38 43L38 45L37 45L37 44L36 44L36 43L37 43L37 42L38 42L38 41L37 41L37 40L35 40L35 41L36 41L36 43L34 43L34 41L33 41L33 43L32 43L32 44L29 44L29 43L31 43L31 42L32 42L32 41L30 41L30 40L28 40L28 39L26 39L26 40L28 40L28 41L26 41L26 42L27 42L27 43L25 43L25 44L27 44L27 43L28 43L28 45L26 45L26 47L27 47L27 46L28 46L28 47L31 47L31 46L33 46L33 47L34 47L34 48L36 48L36 47L35 47L35 46L34 46L34 45L36 45L36 46L38 46L38 47L37 47L37 48L38 48L38 47L39 47L39 46L38 46L38 45L39 45L39 43L41 43L41 42L43 42L43 40L45 40L45 39L44 39L44 38L46 38L46 39L47 39L47 38L46 38L46 37L47 37L47 36L48 36L48 35L47 35L47 36L46 36L46 35L45 35L45 36L46 36L46 37L44 37L44 36L43 36L43 35L42 35L42 34L44 34L44 32L45 32L45 31L44 31L44 32L43 32L43 30L44 30L44 27L45 27L45 28L46 28L46 27L47 27L47 26L46 26L46 24L47 24L47 25L48 25L48 24L47 24L47 23L49 23L49 22L50 22L50 21L51 21L51 20L50 20L50 19L48 19L48 20L47 20L47 18L45 18L45 17L46 17L46 16L47 16L47 17L48 17L48 18L50 18L50 17L51 17L51 16L50 16L50 17L48 17L48 16L47 16L47 15L48 15L48 14L49 14L49 11L48 11L48 13L47 13L47 10L45 10L45 9L46 9L46 8L45 8L45 9L44 9L44 10L45 10L45 11L46 11L46 13L47 13L47 14L45 14L45 13L44 13L44 11L43 11L43 13L42 13L42 10L41 10L41 9L39 9L39 10L38 10L38 9L37 9L37 8L36 8L36 7L35 7L35 6L34 6L34 5ZM22 6L22 7L23 7L23 6ZM28 6L28 7L29 7L29 6ZM9 9L9 10L10 10L10 9ZM11 9L11 11L12 11L12 10L13 10L13 9ZM6 10L6 11L7 11L7 10ZM27 10L27 11L29 11L29 12L30 12L30 11L29 11L29 10ZM35 10L35 11L36 11L36 12L37 12L37 11L38 11L38 14L37 14L37 15L38 15L38 17L37 17L37 18L35 18L35 17L34 17L34 16L32 16L32 15L31 15L31 16L30 16L30 14L29 14L29 15L28 15L28 16L30 16L30 17L29 17L29 18L30 18L30 19L31 19L31 18L32 18L32 19L34 19L34 20L35 20L35 19L36 19L36 20L37 20L37 21L38 21L38 22L35 22L35 21L34 21L34 22L32 22L32 23L31 23L31 22L29 22L29 21L30 21L30 20L28 20L28 18L27 18L27 19L26 19L26 20L25 20L25 21L26 21L26 20L28 20L28 21L27 21L27 22L28 22L28 23L27 23L27 24L25 24L25 25L27 25L27 26L28 26L28 25L30 25L30 24L28 24L28 23L31 23L31 24L34 24L34 26L35 26L35 24L36 24L36 23L38 23L38 24L37 24L37 25L36 25L36 28L37 28L37 29L36 29L36 30L37 30L37 29L38 29L38 32L37 32L37 33L38 33L38 34L37 34L37 35L36 35L36 36L39 36L39 37L38 37L38 38L39 38L39 37L41 37L41 34L42 34L42 33L43 33L43 32L41 32L41 31L42 31L42 30L41 30L41 28L42 28L42 29L43 29L43 28L42 28L42 27L44 27L44 26L45 26L45 27L46 27L46 26L45 26L45 24L46 24L46 22L48 22L48 21L49 21L49 20L48 20L48 21L47 21L47 20L46 20L46 19L45 19L45 20L44 20L44 22L40 22L40 23L38 23L38 22L39 22L39 21L41 21L41 20L42 20L42 21L43 21L43 19L44 19L44 18L43 18L43 19L42 19L42 18L41 18L41 17L42 17L42 16L41 16L41 15L42 15L42 14L41 14L41 12L39 12L39 11L41 11L41 10L39 10L39 11L38 11L38 10L37 10L37 11L36 11L36 10ZM23 11L23 12L24 12L24 11ZM6 12L6 13L9 13L9 12ZM17 12L17 13L16 13L16 14L17 14L17 13L18 13L18 12ZM19 12L19 13L20 13L20 14L19 14L19 15L18 15L18 16L20 16L20 19L19 19L19 20L20 20L20 19L21 19L21 17L25 17L25 16L24 16L24 14L23 14L23 13L22 13L22 12ZM12 13L12 14L13 14L13 13ZM21 13L21 15L22 15L22 13ZM39 13L39 14L38 14L38 15L39 15L39 16L40 16L40 15L39 15L39 14L40 14L40 13ZM43 13L43 14L44 14L44 15L45 15L45 14L44 14L44 13ZM53 13L53 14L54 14L54 13ZM5 14L5 17L9 17L9 16L8 16L8 15L7 15L7 14ZM3 15L3 16L4 16L4 15ZM6 15L6 16L7 16L7 15ZM31 16L31 17L30 17L30 18L31 18L31 17L32 17L32 18L34 18L34 19L35 19L35 18L34 18L34 17L32 17L32 16ZM44 16L44 17L45 17L45 16ZM54 17L54 18L55 18L55 17ZM6 18L6 19L7 19L7 18ZM8 18L8 19L9 19L9 18ZM22 18L22 19L23 19L23 18ZM37 18L37 19L39 19L39 20L38 20L38 21L39 21L39 20L41 20L41 19L39 19L39 18ZM51 18L51 19L52 19L52 18ZM0 19L0 20L1 20L1 19ZM16 20L16 21L18 21L18 20ZM31 20L31 21L33 21L33 20ZM45 20L45 22L44 22L44 24L43 24L43 23L40 23L40 24L39 24L39 27L38 27L38 25L37 25L37 28L38 28L38 29L39 29L39 27L42 27L42 26L43 26L43 25L44 25L44 24L45 24L45 22L46 22L46 20ZM0 21L0 23L1 23L1 21ZM11 21L11 22L9 22L9 23L11 23L11 22L13 22L13 21ZM21 21L21 23L22 23L22 21ZM34 22L34 24L35 24L35 22ZM50 23L50 25L51 25L51 23ZM17 24L17 25L18 25L18 24ZM20 24L20 25L21 25L21 24ZM40 24L40 25L41 25L41 26L42 26L42 25L43 25L43 24L42 24L42 25L41 25L41 24ZM14 25L14 26L15 26L15 27L16 27L16 26L15 26L15 25ZM31 25L31 26L32 26L32 25ZM19 26L19 29L18 29L18 31L19 31L19 29L22 29L22 28L21 28L21 27L22 27L22 26L21 26L21 27L20 27L20 26ZM5 27L5 30L8 30L8 27ZM11 27L11 28L12 28L12 27ZM25 27L25 29L26 29L26 27ZM27 27L27 30L30 30L30 27ZM49 27L49 30L52 30L52 27ZM6 28L6 29L7 29L7 28ZM28 28L28 29L29 29L29 28ZM33 28L33 29L34 29L34 28ZM50 28L50 29L51 29L51 28ZM54 29L54 30L55 30L55 29ZM25 30L25 32L26 32L26 33L27 33L27 31L26 31L26 30ZM39 30L39 32L38 32L38 33L39 33L39 32L40 32L40 31L41 31L41 30ZM9 32L9 33L7 33L7 34L6 34L6 35L7 35L7 34L9 34L9 35L10 35L10 32ZM11 32L11 33L12 33L12 32ZM14 32L14 34L18 34L18 33L15 33L15 32ZM29 34L29 35L30 35L30 34ZM11 35L11 36L12 36L12 35ZM39 35L39 36L40 36L40 35ZM9 36L9 38L10 38L10 36ZM14 36L14 37L15 37L15 38L13 38L13 39L15 39L15 41L16 41L16 39L15 39L15 38L16 38L16 37L15 37L15 36ZM31 38L31 39L32 39L32 38ZM51 39L51 41L52 41L52 39ZM12 40L12 42L13 42L13 40ZM48 40L48 41L49 41L49 40ZM28 41L28 42L30 42L30 41ZM10 43L10 44L9 44L9 45L10 45L10 44L11 44L11 45L12 45L12 44L11 44L11 43ZM1 44L1 45L2 45L2 44ZM6 44L6 45L7 45L7 44ZM32 44L32 45L33 45L33 44ZM21 45L21 46L22 46L22 45ZM24 45L24 46L25 46L25 45ZM28 45L28 46L30 46L30 45ZM1 46L1 47L2 47L2 46ZM9 46L9 47L10 47L10 46ZM45 46L45 48L47 48L47 47L46 47L46 46ZM40 47L40 48L41 48L41 47ZM6 48L6 49L7 49L7 48ZM27 49L27 52L30 52L30 49ZM49 49L49 52L52 52L52 49ZM28 50L28 51L29 51L29 50ZM50 50L50 51L51 51L51 50ZM15 52L15 53L16 53L16 52ZM44 52L44 53L45 53L45 52ZM11 53L11 54L12 54L12 53ZM48 53L48 54L49 54L49 55L50 55L50 54L51 54L51 53L50 53L50 54L49 54L49 53ZM41 55L41 57L42 57L42 55ZM18 56L18 57L19 57L19 56ZM20 56L20 57L21 57L21 56ZM43 56L43 57L44 57L44 56ZM0 0L0 7L7 7L7 0ZM1 1L1 6L6 6L6 1ZM2 2L2 5L5 5L5 2ZM50 0L50 7L57 7L57 0ZM51 1L51 6L56 6L56 1ZM52 2L52 5L55 5L55 2ZM0 50L0 57L7 57L7 50ZM1 51L1 56L6 56L6 51ZM2 52L2 55L5 55L5 52Z" fill="#000000"/></g></g></svg>
