<?xml version="1.0" encoding="UTF-8"?>
<svg xmlns="http://www.w3.org/2000/svg" version="1.1" width="300" height="300" viewBox="0 0 300 300"><rect x="0" y="0" width="300" height="300" fill="#ffffff"/><g transform="scale(5.263)"><g transform="translate(0,0)"><path fill-rule="evenodd" d="M8 0L8 1L9 1L9 2L10 2L10 1L9 1L9 0ZM13 0L13 1L11 1L11 2L14 2L14 4L13 4L13 6L12 6L12 7L11 7L11 6L10 6L10 7L9 7L9 6L8 6L8 8L11 8L11 11L9 11L9 10L6 10L6 9L7 9L7 8L6 8L6 9L5 9L5 8L3 8L3 9L5 9L5 11L7 11L7 12L6 12L6 13L7 13L7 12L8 12L8 11L9 11L9 12L11 12L11 16L10 16L10 13L9 13L9 16L8 16L8 14L6 14L6 15L5 15L5 16L4 16L4 17L3 17L3 15L1 15L1 14L3 14L3 13L4 13L4 14L5 14L5 13L4 13L4 12L2 12L2 13L1 13L1 12L0 12L0 13L1 13L1 14L0 14L0 17L1 17L1 16L2 16L2 18L0 18L0 19L2 19L2 20L4 20L4 19L7 19L7 20L5 20L5 24L4 24L4 25L5 25L5 24L6 24L6 25L7 25L7 24L8 24L8 23L9 23L9 25L8 25L8 26L3 26L3 25L2 25L2 24L1 24L1 23L0 23L0 26L1 26L1 27L2 27L2 28L0 28L0 29L2 29L2 31L0 31L0 33L1 33L1 34L2 34L2 35L0 35L0 36L2 36L2 37L3 37L3 36L4 36L4 37L5 37L5 35L3 35L3 34L2 34L2 33L3 33L3 32L2 32L2 31L3 31L3 29L4 29L4 32L5 32L5 31L7 31L7 32L6 32L6 33L5 33L5 34L6 34L6 35L7 35L7 36L6 36L6 37L7 37L7 38L5 38L5 39L4 39L4 38L3 38L3 39L2 39L2 40L3 40L3 41L1 41L1 40L0 40L0 43L1 43L1 45L0 45L0 48L5 48L5 47L7 47L7 46L8 46L8 47L9 47L9 45L10 45L10 47L11 47L11 48L10 48L10 49L9 49L9 48L6 48L6 49L8 49L8 50L10 50L10 51L9 51L9 52L8 52L8 54L9 54L9 53L10 53L10 57L13 57L13 55L14 55L14 56L17 56L17 57L19 57L19 56L22 56L22 57L24 57L24 54L22 54L22 51L23 51L23 50L25 50L25 51L26 51L26 52L23 52L23 53L26 53L26 54L25 54L25 55L26 55L26 54L27 54L27 57L28 57L28 55L29 55L29 56L30 56L30 57L31 57L31 56L32 56L32 57L34 57L34 56L35 56L35 57L39 57L39 55L40 55L40 57L42 57L42 56L44 56L44 53L45 53L45 57L47 57L47 56L46 56L46 55L47 55L47 53L49 53L49 54L48 54L48 55L50 55L50 56L48 56L48 57L50 57L50 56L51 56L51 57L53 57L53 56L54 56L54 57L55 57L55 56L57 56L57 54L55 54L55 55L53 55L53 54L54 54L54 53L57 53L57 52L55 52L55 50L57 50L57 45L55 45L55 42L54 42L54 40L55 40L55 38L56 38L56 41L57 41L57 38L56 38L56 37L57 37L57 34L55 34L55 35L54 35L54 34L53 34L53 33L54 33L54 32L55 32L55 33L56 33L56 32L57 32L57 29L56 29L56 28L55 28L55 26L57 26L57 25L55 25L55 24L57 24L57 22L56 22L56 21L55 21L55 19L57 19L57 16L56 16L56 15L55 15L55 13L56 13L56 12L55 12L55 11L57 11L57 8L56 8L56 10L55 10L55 9L54 9L54 10L51 10L51 8L50 8L50 9L48 9L48 7L49 7L49 6L48 6L48 7L47 7L47 5L48 5L48 0L40 0L40 1L39 1L39 0L38 0L38 2L37 2L37 0L36 0L36 2L35 2L35 0L32 0L32 2L31 2L31 0L30 0L30 2L29 2L29 1L28 1L28 0L26 0L26 1L25 1L25 0L24 0L24 1L23 1L23 0L22 0L22 1L23 1L23 2L22 2L22 3L20 3L20 4L19 4L19 2L21 2L21 0L20 0L20 1L19 1L19 0L18 0L18 1L17 1L17 0L16 0L16 1L15 1L15 0ZM16 1L16 2L17 2L17 1ZM24 1L24 2L25 2L25 1ZM27 1L27 2L26 2L26 3L27 3L27 2L28 2L28 1ZM40 1L40 3L41 3L41 1ZM42 1L42 4L39 4L39 3L38 3L38 4L39 4L39 5L41 5L41 7L40 7L40 6L39 6L39 7L40 7L40 8L38 8L38 9L40 9L40 8L43 8L43 9L44 9L44 10L43 10L43 11L39 11L39 12L37 12L37 11L38 11L38 10L37 10L37 9L36 9L36 8L37 8L37 7L38 7L38 5L36 5L36 3L37 3L37 2L36 2L36 3L35 3L35 2L33 2L33 3L35 3L35 4L31 4L31 3L29 3L29 4L31 4L31 8L32 8L32 9L33 9L33 10L34 10L34 8L32 8L32 6L33 6L33 7L34 7L34 6L35 6L35 7L36 7L36 8L35 8L35 9L36 9L36 10L35 10L35 11L36 11L36 12L33 12L33 11L32 11L32 10L30 10L30 11L29 11L29 12L30 12L30 14L27 14L27 13L28 13L28 12L27 12L27 11L28 11L28 10L29 10L29 9L28 9L28 10L27 10L27 9L26 9L26 8L25 8L25 10L23 10L23 9L22 9L22 8L24 8L24 5L22 5L22 4L20 4L20 5L19 5L19 4L18 4L18 3L17 3L17 4L16 4L16 5L17 5L17 7L16 7L16 6L15 6L15 4L14 4L14 6L13 6L13 8L12 8L12 9L13 9L13 10L14 10L14 11L13 11L13 12L12 12L12 15L13 15L13 16L15 16L15 17L17 17L17 18L15 18L15 19L17 19L17 18L19 18L19 19L20 19L20 18L22 18L22 20L23 20L23 21L22 21L22 22L21 22L21 23L19 23L19 24L20 24L20 25L21 25L21 24L22 24L22 23L23 23L23 24L24 24L24 25L23 25L23 26L24 26L24 27L26 27L26 26L27 26L27 25L28 25L28 23L29 23L29 22L28 22L28 20L29 20L29 21L30 21L30 20L31 20L31 22L30 22L30 25L32 25L32 26L31 26L31 28L32 28L32 26L33 26L33 27L34 27L34 28L33 28L33 29L34 29L34 28L35 28L35 31L36 31L36 32L35 32L35 36L34 36L34 38L38 38L38 39L37 39L37 40L38 40L38 41L36 41L36 40L34 40L34 39L33 39L33 41L32 41L32 40L31 40L31 39L32 39L32 36L31 36L31 39L29 39L29 40L30 40L30 41L32 41L32 42L34 42L34 41L36 41L36 42L35 42L35 43L33 43L33 44L31 44L31 43L30 43L30 42L27 42L27 43L26 43L26 45L25 45L25 47L24 47L24 46L23 46L23 47L24 47L24 49L25 49L25 48L26 48L26 47L27 47L27 48L31 48L31 52L32 52L32 51L33 51L33 50L32 50L32 48L33 48L33 45L35 45L35 46L34 46L34 48L35 48L35 49L34 49L34 51L36 51L36 52L33 52L33 53L32 53L32 55L35 55L35 56L36 56L36 55L37 55L37 56L38 56L38 55L39 55L39 54L40 54L40 55L41 55L41 56L42 56L42 53L41 53L41 52L43 52L43 50L42 50L42 48L43 48L43 49L44 49L44 51L45 51L45 49L44 49L44 48L46 48L46 50L47 50L47 51L46 51L46 53L47 53L47 52L48 52L48 50L47 50L47 47L48 47L48 48L52 48L52 47L53 47L53 49L56 49L56 48L54 48L54 46L55 46L55 45L53 45L53 42L51 42L51 41L49 41L49 40L51 40L51 38L49 38L49 37L51 37L51 36L54 36L54 35L52 35L52 34L51 34L51 33L50 33L50 32L51 32L51 31L50 31L50 32L49 32L49 31L48 31L48 30L45 30L45 29L48 29L48 27L47 27L47 28L46 28L46 27L45 27L45 25L46 25L46 26L48 26L48 25L49 25L49 26L50 26L50 25L52 25L52 24L50 24L50 23L52 23L52 22L55 22L55 23L56 23L56 22L55 22L55 21L54 21L54 20L53 20L53 21L51 21L51 22L50 22L50 23L49 23L49 24L48 24L48 21L50 21L50 20L49 20L49 18L48 18L48 19L47 19L47 18L46 18L46 19L47 19L47 20L48 20L48 21L47 21L47 22L45 22L45 19L44 19L44 20L43 20L43 21L44 21L44 23L43 23L43 24L41 24L41 21L42 21L42 20L41 20L41 21L40 21L40 20L39 20L39 19L41 19L41 18L42 18L42 16L41 16L41 15L40 15L40 16L39 16L39 15L38 15L38 14L36 14L36 15L37 15L37 17L36 17L36 16L35 16L35 13L36 13L36 12L37 12L37 13L40 13L40 12L42 12L42 13L43 13L43 16L44 16L44 15L45 15L45 17L50 17L50 19L53 19L53 16L51 16L51 15L54 15L54 14L53 14L53 13L52 13L52 14L51 14L51 15L48 15L48 13L49 13L49 14L50 14L50 12L51 12L51 10L47 10L47 11L48 11L48 12L46 12L46 11L45 11L45 9L47 9L47 7L46 7L46 5L47 5L47 3L45 3L45 4L43 4L43 2L44 2L44 1ZM46 1L46 2L47 2L47 1ZM9 3L9 4L12 4L12 3ZM25 4L25 7L26 7L26 4ZM42 4L42 7L43 7L43 6L44 6L44 7L45 7L45 6L44 6L44 5L43 5L43 4ZM18 5L18 7L19 7L19 5ZM20 5L20 7L21 7L21 8L20 8L20 11L19 11L19 8L17 8L17 9L16 9L16 10L15 10L15 11L14 11L14 12L15 12L15 11L18 11L18 12L16 12L16 13L13 13L13 15L15 15L15 16L17 16L17 15L15 15L15 14L16 14L16 13L17 13L17 14L19 14L19 15L18 15L18 17L19 17L19 18L20 18L20 16L22 16L22 15L23 15L23 14L26 14L26 11L27 11L27 10L25 10L25 12L24 12L24 11L23 11L23 10L22 10L22 9L21 9L21 8L22 8L22 7L23 7L23 6L22 6L22 7L21 7L21 5ZM27 5L27 8L30 8L30 5ZM35 5L35 6L36 6L36 7L37 7L37 6L36 6L36 5ZM14 6L14 7L15 7L15 6ZM28 6L28 7L29 7L29 6ZM0 8L0 11L3 11L3 10L2 10L2 8ZM17 9L17 10L18 10L18 9ZM21 10L21 15L22 15L22 14L23 14L23 13L24 13L24 12L23 12L23 11L22 11L22 10ZM54 10L54 11L52 11L52 12L54 12L54 11L55 11L55 10ZM31 11L31 12L32 12L32 13L31 13L31 14L30 14L30 15L31 15L31 16L30 16L30 18L29 18L29 20L30 20L30 18L31 18L31 19L32 19L32 17L34 17L34 18L35 18L35 17L34 17L34 16L32 16L32 15L34 15L34 14L32 14L32 13L33 13L33 12L32 12L32 11ZM44 11L44 12L43 12L43 13L44 13L44 14L46 14L46 13L45 13L45 11ZM49 11L49 12L50 12L50 11ZM19 12L19 14L20 14L20 12ZM31 14L31 15L32 15L32 14ZM6 15L6 16L5 16L5 17L4 17L4 18L7 18L7 17L6 17L6 16L7 16L7 15ZM24 15L24 16L26 16L26 17L23 17L23 20L24 20L24 21L23 21L23 23L24 23L24 21L25 21L25 22L26 22L26 21L25 21L25 19L24 19L24 18L27 18L27 15ZM28 15L28 17L29 17L29 15ZM46 15L46 16L47 16L47 15ZM9 16L9 17L8 17L8 21L6 21L6 22L9 22L9 23L11 23L11 24L10 24L10 25L12 25L12 27L11 27L11 26L10 26L10 27L11 27L11 28L12 28L12 29L13 29L13 30L14 30L14 31L15 31L15 30L16 30L16 31L17 31L17 30L16 30L16 28L17 28L17 29L20 29L20 30L21 30L21 31L20 31L20 33L21 33L21 35L20 35L20 34L19 34L19 33L17 33L17 34L16 34L16 35L17 35L17 36L18 36L18 34L19 34L19 35L20 35L20 36L21 36L21 37L18 37L18 38L17 38L17 37L16 37L16 36L13 36L13 37L12 37L12 35L11 35L11 34L15 34L15 33L11 33L11 32L13 32L13 31L10 31L10 29L9 29L9 31L8 31L8 32L9 32L9 34L8 34L8 33L6 33L6 34L7 34L7 35L8 35L8 36L7 36L7 37L8 37L8 36L10 36L10 37L9 37L9 38L10 38L10 39L9 39L9 41L8 41L8 40L7 40L7 39L8 39L8 38L7 38L7 39L6 39L6 40L7 40L7 41L6 41L6 42L2 42L2 44L3 44L3 43L4 43L4 46L3 46L3 47L5 47L5 45L6 45L6 46L7 46L7 45L8 45L8 42L9 42L9 44L12 44L12 45L13 45L13 46L14 46L14 47L13 47L13 48L11 48L11 49L10 49L10 50L11 50L11 51L10 51L10 52L11 52L11 55L13 55L13 54L14 54L14 55L15 55L15 53L13 53L13 54L12 54L12 49L13 49L13 48L14 48L14 50L15 50L15 49L16 49L16 51L15 51L15 52L16 52L16 55L17 55L17 54L18 54L18 55L20 55L20 54L21 54L21 53L18 53L18 52L16 52L16 51L17 51L17 50L19 50L19 49L22 49L22 50L23 50L23 49L22 49L22 48L21 48L21 46L22 46L22 45L23 45L23 44L22 44L22 43L24 43L24 42L21 42L21 41L25 41L25 42L26 42L26 38L25 38L25 40L24 40L24 39L22 39L22 38L24 38L24 36L23 36L23 35L24 35L24 34L22 34L22 32L21 32L21 31L22 31L22 30L21 30L21 29L20 29L20 28L21 28L21 26L18 26L18 22L20 22L20 21L21 21L21 20L19 20L19 21L18 21L18 22L17 22L17 21L16 21L16 22L17 22L17 23L16 23L16 24L17 24L17 25L16 25L16 27L15 27L15 26L13 26L13 25L15 25L15 24L13 24L13 23L11 23L11 22L9 22L9 20L10 20L10 21L12 21L12 22L13 22L13 21L12 21L12 20L10 20L10 19L11 19L11 18L10 18L10 19L9 19L9 17L10 17L10 16ZM11 16L11 17L12 17L12 16ZM31 16L31 17L32 17L32 16ZM13 17L13 18L12 18L12 19L13 19L13 20L14 20L14 21L15 21L15 20L14 20L14 19L13 19L13 18L14 18L14 17ZM37 17L37 18L36 18L36 19L35 19L35 20L36 20L36 22L35 22L35 21L34 21L34 19L33 19L33 21L32 21L32 22L33 22L33 21L34 21L34 23L33 23L33 25L35 25L35 24L36 24L36 26L35 26L35 27L36 27L36 29L37 29L37 30L36 30L36 31L37 31L37 32L36 32L36 33L37 33L37 34L36 34L36 37L38 37L38 38L39 38L39 40L40 40L40 38L41 38L41 40L43 40L43 41L39 41L39 43L40 43L40 45L37 45L37 44L38 44L38 43L37 43L37 42L36 42L36 43L37 43L37 44L35 44L35 45L36 45L36 46L35 46L35 47L36 47L36 49L35 49L35 50L37 50L37 49L38 49L38 50L39 50L39 51L37 51L37 52L36 52L36 53L33 53L33 54L35 54L35 55L36 55L36 54L38 54L38 53L39 53L39 52L40 52L40 50L39 50L39 48L40 48L40 49L41 49L41 48L42 48L42 47L38 47L38 48L37 48L37 47L36 47L36 46L40 46L40 45L42 45L42 46L43 46L43 47L45 47L45 46L46 46L46 47L47 47L47 44L48 44L48 43L51 43L51 42L49 42L49 41L48 41L48 40L47 40L47 39L46 39L46 37L48 37L48 36L47 36L47 35L46 35L46 34L47 34L47 32L48 32L48 31L47 31L47 32L46 32L46 31L45 31L45 30L44 30L44 29L45 29L45 28L44 28L44 27L42 27L42 26L44 26L44 25L45 25L45 24L47 24L47 25L48 25L48 24L47 24L47 23L44 23L44 24L43 24L43 25L41 25L41 24L40 24L40 23L39 23L39 21L38 21L38 17ZM39 17L39 18L40 18L40 17ZM43 17L43 18L44 18L44 17ZM54 17L54 19L55 19L55 17ZM26 19L26 20L28 20L28 19ZM36 19L36 20L37 20L37 19ZM0 21L0 22L2 22L2 23L3 23L3 22L4 22L4 21ZM36 22L36 24L37 24L37 25L38 25L38 24L37 24L37 22ZM6 23L6 24L7 24L7 23ZM25 23L25 25L24 25L24 26L25 26L25 25L27 25L27 23ZM34 23L34 24L35 24L35 23ZM53 23L53 27L54 27L54 23ZM12 24L12 25L13 25L13 24ZM39 24L39 25L40 25L40 27L37 27L37 28L39 28L39 29L38 29L38 30L37 30L37 31L38 31L38 32L37 32L37 33L38 33L38 32L39 32L39 33L40 33L40 31L41 31L41 30L42 30L42 31L43 31L43 34L41 34L41 35L40 35L40 36L41 36L41 38L42 38L42 39L43 39L43 38L44 38L44 36L45 36L45 31L44 31L44 30L42 30L42 29L44 29L44 28L42 28L42 29L41 29L41 28L40 28L40 27L41 27L41 25L40 25L40 24ZM1 25L1 26L2 26L2 25ZM17 26L17 27L18 27L18 26ZM5 27L5 30L8 30L8 27ZM19 27L19 28L20 28L20 27ZM27 27L27 30L30 30L30 27ZM49 27L49 30L52 30L52 27ZM2 28L2 29L3 29L3 28ZM6 28L6 29L7 29L7 28ZM13 28L13 29L15 29L15 28ZM22 28L22 29L23 29L23 30L24 30L24 29L26 29L26 28L24 28L24 29L23 29L23 28ZM28 28L28 29L29 29L29 28ZM50 28L50 29L51 29L51 28ZM40 29L40 30L41 30L41 29ZM18 30L18 31L19 31L19 30ZM25 30L25 32L23 32L23 33L25 33L25 34L27 34L27 36L26 36L26 35L25 35L25 37L27 37L27 40L28 40L28 38L30 38L30 35L29 35L29 34L28 34L28 33L30 33L30 32L32 32L32 33L31 33L31 35L33 35L33 34L34 34L34 32L33 32L33 31L27 31L27 32L26 32L26 30ZM38 30L38 31L39 31L39 30ZM54 30L54 31L55 31L55 32L56 32L56 31L55 31L55 30ZM9 31L9 32L10 32L10 31ZM52 31L52 33L53 33L53 31ZM1 32L1 33L2 33L2 32ZM27 32L27 33L28 33L28 32ZM41 32L41 33L42 33L42 32ZM32 33L32 34L33 34L33 33ZM48 33L48 34L49 34L49 36L51 36L51 34L50 34L50 33ZM9 34L9 35L10 35L10 36L11 36L11 35L10 35L10 34ZM37 34L37 35L38 35L38 36L39 36L39 35L38 35L38 34ZM43 34L43 35L41 35L41 36L42 36L42 38L43 38L43 35L44 35L44 34ZM22 36L22 37L23 37L23 36ZM28 36L28 37L29 37L29 36ZM0 37L0 39L1 39L1 37ZM13 37L13 39L11 39L11 40L10 40L10 41L9 41L9 42L13 42L13 43L12 43L12 44L13 44L13 43L16 43L16 42L17 42L17 44L15 44L15 45L14 45L14 46L15 46L15 47L14 47L14 48L15 48L15 47L16 47L16 46L18 46L18 47L17 47L17 48L18 48L18 49L19 49L19 48L20 48L20 47L19 47L19 44L20 44L20 46L21 46L21 42L20 42L20 43L19 43L19 41L20 41L20 39L21 39L21 40L22 40L22 39L21 39L21 38L19 38L19 39L18 39L18 42L17 42L17 38L16 38L16 40L15 40L15 41L14 41L14 39L15 39L15 37ZM39 37L39 38L40 38L40 37ZM52 37L52 41L53 41L53 40L54 40L54 38L53 38L53 37ZM44 39L44 40L45 40L45 39ZM4 40L4 41L5 41L5 40ZM11 40L11 41L13 41L13 40ZM46 40L46 41L45 41L45 42L44 42L44 43L43 43L43 42L40 42L40 43L43 43L43 46L45 46L45 45L46 45L46 43L47 43L47 42L48 42L48 41L47 41L47 40ZM46 41L46 42L47 42L47 41ZM6 42L6 43L5 43L5 44L6 44L6 45L7 45L7 44L6 44L6 43L7 43L7 42ZM56 42L56 43L57 43L57 42ZM29 43L29 44L27 44L27 47L28 47L28 46L29 46L29 47L31 47L31 48L32 48L32 47L31 47L31 45L29 45L29 44L30 44L30 43ZM17 44L17 45L18 45L18 44ZM49 44L49 45L50 45L50 46L49 46L49 47L52 47L52 46L53 46L53 45L52 45L52 44ZM1 45L1 47L2 47L2 45ZM11 46L11 47L12 47L12 46ZM27 49L27 52L30 52L30 49ZM49 49L49 52L52 52L52 49ZM28 50L28 51L29 51L29 50ZM41 50L41 51L42 51L42 50ZM50 50L50 51L51 51L51 50ZM13 51L13 52L14 52L14 51ZM19 51L19 52L21 52L21 51ZM37 52L37 53L38 53L38 52ZM28 53L28 54L30 54L30 56L31 56L31 53ZM40 53L40 54L41 54L41 53ZM50 53L50 54L51 54L51 56L52 56L52 53ZM8 55L8 57L9 57L9 55ZM22 55L22 56L23 56L23 55ZM0 0L0 7L7 7L7 0ZM1 1L1 6L6 6L6 1ZM2 2L2 5L5 5L5 2ZM50 0L50 7L57 7L57 0ZM51 1L51 6L56 6L56 1ZM52 2L52 5L55 5L55 2ZM0 50L0 57L7 57L7 50ZM1 51L1 56L6 56L6 51ZM2 52L2 55L5 55L5 52Z" fill="#000000"/></g></g></svg>
