<?xml version="1.0" encoding="UTF-8"?>
<svg xmlns="http://www.w3.org/2000/svg" version="1.1" width="300" height="300" viewBox="0 0 300 300"><rect x="0" y="0" width="300" height="300" fill="#ffffff"/><g transform="scale(5.263)"><g transform="translate(0,0)"><path fill-rule="evenodd" d="M9 0L9 1L8 1L8 2L11 2L11 1L12 1L12 2L13 2L13 3L12 3L12 5L11 5L11 6L10 6L10 3L8 3L8 4L9 4L9 5L8 5L8 7L9 7L9 6L10 6L10 7L11 7L11 6L12 6L12 7L13 7L13 9L14 9L14 7L15 7L15 8L16 8L16 9L21 9L21 10L22 10L22 11L19 11L19 10L18 10L18 11L17 11L17 12L18 12L18 13L17 13L17 16L15 16L15 15L16 15L16 14L14 14L14 16L13 16L13 15L12 15L12 14L11 14L11 12L12 12L12 13L16 13L16 12L15 12L15 11L16 11L16 10L13 10L13 11L11 11L11 10L12 10L12 9L11 9L11 8L10 8L10 9L9 9L9 8L6 8L6 9L5 9L5 8L0 8L0 12L1 12L1 13L0 13L0 19L1 19L1 20L2 20L2 19L8 19L8 20L6 20L6 21L8 21L8 24L6 24L6 23L7 23L7 22L5 22L5 20L3 20L3 21L1 21L1 23L0 23L0 24L1 24L1 23L2 23L2 24L3 24L3 22L4 22L4 23L5 23L5 24L4 24L4 25L3 25L3 26L2 26L2 25L1 25L1 26L2 26L2 28L0 28L0 29L2 29L2 30L0 30L0 31L2 31L2 33L1 33L1 32L0 32L0 33L1 33L1 34L0 34L0 35L1 35L1 34L2 34L2 33L4 33L4 34L3 34L3 35L5 35L5 37L4 37L4 36L3 36L3 38L4 38L4 40L5 40L5 38L6 38L6 39L7 39L7 40L6 40L6 41L7 41L7 42L6 42L6 43L5 43L5 41L4 41L4 43L3 43L3 39L2 39L2 36L0 36L0 39L2 39L2 41L1 41L1 40L0 40L0 43L1 43L1 42L2 42L2 44L3 44L3 46L2 46L2 47L1 47L1 44L0 44L0 48L5 48L5 47L9 47L9 48L8 48L8 51L9 51L9 52L8 52L8 57L9 57L9 54L10 54L10 55L11 55L11 54L12 54L12 55L13 55L13 57L14 57L14 56L15 56L15 57L19 57L19 55L20 55L20 54L19 54L19 53L20 53L20 52L21 52L21 53L22 53L22 54L24 54L24 53L25 53L25 54L26 54L26 53L29 53L29 54L30 54L30 53L32 53L32 52L31 52L31 51L32 51L32 50L33 50L33 51L34 51L34 50L33 50L33 49L34 49L34 48L35 48L35 49L37 49L37 51L38 51L38 53L40 53L40 54L37 54L37 56L36 56L36 55L35 55L35 54L34 54L34 52L33 52L33 54L34 54L34 56L30 56L30 55L27 55L27 57L28 57L28 56L30 56L30 57L35 57L35 56L36 56L36 57L40 57L40 56L42 56L42 57L44 57L44 56L45 56L45 57L47 57L47 56L46 56L46 55L49 55L49 56L48 56L48 57L50 57L50 55L51 55L51 53L52 53L52 54L53 54L53 53L54 53L54 55L52 55L52 56L51 56L51 57L53 57L53 56L54 56L54 57L56 57L56 56L55 56L55 53L57 53L57 52L55 52L55 51L56 51L56 50L57 50L57 49L56 49L56 50L55 50L55 51L54 51L54 48L55 48L55 47L56 47L56 48L57 48L57 47L56 47L56 46L57 46L57 45L56 45L56 44L57 44L57 43L56 43L56 42L57 42L57 41L56 41L56 42L55 42L55 39L57 39L57 37L56 37L56 38L55 38L55 39L54 39L54 38L53 38L53 40L52 40L52 39L51 39L51 40L52 40L52 41L53 41L53 43L54 43L54 44L55 44L55 45L53 45L53 44L52 44L52 42L51 42L51 41L50 41L50 38L49 38L49 37L50 37L50 36L52 36L52 37L51 37L51 38L52 38L52 37L53 37L53 36L55 36L55 35L56 35L56 36L57 36L57 35L56 35L56 34L57 34L57 33L56 33L56 32L57 32L57 31L56 31L56 32L55 32L55 31L54 31L54 30L53 30L53 29L54 29L54 28L55 28L55 30L57 30L57 27L56 27L56 26L55 26L55 25L57 25L57 23L54 23L54 22L57 22L57 21L55 21L55 19L56 19L56 20L57 20L57 19L56 19L56 18L54 18L54 17L53 17L53 19L52 19L52 18L51 18L51 19L50 19L50 17L52 17L52 16L53 16L53 15L51 15L51 14L50 14L50 12L51 12L51 13L52 13L52 14L53 14L53 13L52 13L52 12L54 12L54 14L55 14L55 15L54 15L54 16L55 16L55 17L56 17L56 14L57 14L57 13L56 13L56 12L57 12L57 11L56 11L56 10L55 10L55 9L56 9L56 8L55 8L55 9L54 9L54 8L53 8L53 9L54 9L54 10L55 10L55 11L53 11L53 10L49 10L49 9L50 9L50 8L49 8L49 9L47 9L47 8L48 8L48 7L49 7L49 6L48 6L48 7L47 7L47 5L48 5L48 0L44 0L44 1L47 1L47 2L44 2L44 3L45 3L45 4L46 4L46 3L47 3L47 5L44 5L44 4L43 4L43 0L40 0L40 1L41 1L41 2L39 2L39 1L38 1L38 0L36 0L36 2L35 2L35 1L33 1L33 0L32 0L32 1L31 1L31 0L30 0L30 1L29 1L29 0L28 0L28 1L26 1L26 0L21 0L21 2L22 2L22 1L23 1L23 2L24 2L24 1L25 1L25 2L27 2L27 3L29 3L29 2L30 2L30 1L31 1L31 2L32 2L32 3L30 3L30 4L26 4L26 3L23 3L23 4L24 4L24 5L23 5L23 6L22 6L22 4L19 4L19 3L20 3L20 2L19 2L19 1L20 1L20 0L19 0L19 1L16 1L16 3L17 3L17 4L19 4L19 5L18 5L18 7L17 7L17 6L16 6L16 7L15 7L15 6L14 6L14 5L16 5L16 4L14 4L14 3L15 3L15 0L14 0L14 1L13 1L13 0ZM28 1L28 2L29 2L29 1ZM37 1L37 2L36 2L36 3L35 3L35 2L33 2L33 3L32 3L32 5L31 5L31 7L32 7L32 8L31 8L31 9L32 9L32 10L31 10L31 11L30 11L30 12L27 12L27 11L26 11L26 10L23 10L23 13L22 13L22 12L19 12L19 13L20 13L20 14L19 14L19 15L18 15L18 16L20 16L20 18L17 18L17 17L15 17L15 16L14 16L14 17L13 17L13 16L12 16L12 17L10 17L10 20L8 20L8 21L9 21L9 23L10 23L10 24L11 24L11 27L10 27L10 26L9 26L9 31L8 31L8 32L7 32L7 31L6 31L6 32L5 32L5 31L4 31L4 33L5 33L5 35L6 35L6 36L7 36L7 35L8 35L8 34L7 34L7 33L9 33L9 36L8 36L8 37L6 37L6 38L8 38L8 42L7 42L7 43L6 43L6 44L7 44L7 45L6 45L6 46L9 46L9 47L11 47L11 48L10 48L10 49L11 49L11 48L12 48L12 50L10 50L10 51L12 51L12 52L10 52L10 53L14 53L14 55L15 55L15 56L16 56L16 55L15 55L15 54L16 54L16 53L17 53L17 52L20 52L20 51L18 51L18 49L16 49L16 48L14 48L14 47L15 47L15 46L17 46L17 45L18 45L18 44L17 44L17 43L18 43L18 42L21 42L21 43L19 43L19 45L20 45L20 46L19 46L19 47L18 47L18 48L19 48L19 49L20 49L20 50L21 50L21 49L22 49L22 53L24 53L24 52L26 52L26 51L25 51L25 50L23 50L23 49L26 49L26 48L28 48L28 46L32 46L32 49L31 49L31 50L32 50L32 49L33 49L33 48L34 48L34 47L35 47L35 45L34 45L34 44L35 44L35 40L39 40L39 41L38 41L38 42L37 42L37 43L36 43L36 44L37 44L37 45L36 45L36 46L37 46L37 45L38 45L38 47L36 47L36 48L37 48L37 49L38 49L38 51L39 51L39 52L40 52L40 53L41 53L41 52L40 52L40 51L39 51L39 49L40 49L40 50L41 50L41 51L42 51L42 50L41 50L41 49L43 49L43 48L44 48L44 50L47 50L47 52L46 52L46 53L45 53L45 51L43 51L43 52L44 52L44 54L42 54L42 55L43 55L43 56L44 56L44 54L45 54L45 55L46 55L46 54L49 54L49 53L47 53L47 52L48 52L48 48L47 48L47 45L48 45L48 47L49 47L49 48L50 48L50 47L51 47L51 48L53 48L53 47L55 47L55 46L56 46L56 45L55 45L55 46L53 46L53 45L52 45L52 44L50 44L50 43L51 43L51 42L50 42L50 43L48 43L48 42L49 42L49 40L47 40L47 39L49 39L49 38L47 38L47 37L48 37L48 36L50 36L50 35L52 35L52 36L53 36L53 35L55 35L55 34L53 34L53 32L54 32L54 33L55 33L55 32L54 32L54 31L53 31L53 32L52 32L52 33L51 33L51 32L50 32L50 31L48 31L48 30L47 30L47 28L48 28L48 27L47 27L47 28L46 28L46 26L47 26L47 25L46 25L46 24L50 24L50 26L51 26L51 25L52 25L52 26L53 26L53 27L54 27L54 24L52 24L52 23L53 23L53 22L54 22L54 21L53 21L53 20L52 20L52 19L51 19L51 20L52 20L52 21L49 21L49 20L48 20L48 21L47 21L47 20L46 20L46 19L47 19L47 17L49 17L49 15L50 15L50 14L47 14L47 13L48 13L48 12L50 12L50 11L47 11L47 13L45 13L45 11L46 11L46 10L47 10L47 9L46 9L46 8L45 8L45 7L46 7L46 6L45 6L45 7L44 7L44 5L42 5L42 4L41 4L41 3L42 3L42 2L41 2L41 3L38 3L38 1ZM34 3L34 4L35 4L35 6L34 6L34 5L33 5L33 6L32 6L32 7L33 7L33 6L34 6L34 8L36 8L36 9L35 9L35 10L34 10L34 9L33 9L33 11L32 11L32 12L31 12L31 14L30 14L30 13L28 13L28 14L30 14L30 16L28 16L28 15L27 15L27 16L26 16L26 15L24 15L24 14L25 14L25 13L23 13L23 15L22 15L22 13L21 13L21 14L20 14L20 16L25 16L25 17L21 17L21 18L20 18L20 20L17 20L17 19L15 19L15 21L16 21L16 22L15 22L15 23L14 23L14 26L15 26L15 27L14 27L14 28L16 28L16 29L13 29L13 30L11 30L11 31L10 31L10 32L9 32L9 33L10 33L10 32L11 32L11 33L13 33L13 35L12 35L12 34L10 34L10 36L9 36L9 37L10 37L10 36L12 36L12 37L11 37L11 39L10 39L10 38L9 38L9 39L10 39L10 40L11 40L11 43L8 43L8 44L10 44L10 45L9 45L9 46L11 46L11 47L12 47L12 48L13 48L13 51L15 51L15 50L16 50L16 49L14 49L14 48L13 48L13 47L14 47L14 44L16 44L16 45L17 45L17 44L16 44L16 43L13 43L13 45L12 45L12 42L14 42L14 40L15 40L15 41L17 41L17 42L18 42L18 41L21 41L21 42L22 42L22 43L21 43L21 44L22 44L22 45L21 45L21 47L22 47L22 48L25 48L25 47L27 47L27 46L28 46L28 45L29 45L29 44L28 44L28 45L26 45L26 44L27 44L27 43L25 43L25 41L24 41L24 40L25 40L25 39L27 39L27 41L26 41L26 42L27 42L27 41L28 41L28 39L27 39L27 38L28 38L28 37L26 37L26 38L25 38L25 36L29 36L29 37L30 37L30 38L29 38L29 39L30 39L30 40L29 40L29 41L31 41L31 42L29 42L29 43L31 43L31 44L30 44L30 45L31 45L31 44L34 44L34 41L33 41L33 43L31 43L31 42L32 42L32 41L31 41L31 40L32 40L32 39L33 39L33 40L34 40L34 39L36 39L36 37L37 37L37 38L38 38L38 39L43 39L43 38L44 38L44 39L47 39L47 38L45 38L45 37L44 37L44 35L45 35L45 36L46 36L46 35L47 35L47 36L48 36L48 35L49 35L49 33L50 33L50 34L51 34L51 33L50 33L50 32L48 32L48 31L47 31L47 30L45 30L45 29L44 29L44 30L45 30L45 31L47 31L47 32L48 32L48 33L47 33L47 34L46 34L46 33L45 33L45 34L44 34L44 31L43 31L43 29L40 29L40 30L39 30L39 31L38 31L38 32L35 32L35 31L34 31L34 32L35 32L35 33L36 33L36 34L37 34L37 35L39 35L39 36L35 36L35 34L34 34L34 33L33 33L33 37L32 37L32 36L31 36L31 35L32 35L32 34L31 34L31 33L32 33L32 31L31 31L31 28L33 28L33 29L32 29L32 30L33 30L33 29L36 29L36 31L37 31L37 30L38 30L38 29L39 29L39 28L35 28L35 27L36 27L36 26L34 26L34 24L35 24L35 25L37 25L37 27L38 27L38 23L39 23L39 25L40 25L40 24L43 24L43 25L41 25L41 26L43 26L43 28L45 28L45 26L43 26L43 25L44 25L44 24L45 24L45 23L47 23L47 22L45 22L45 23L44 23L44 19L43 19L43 17L44 17L44 14L45 14L45 16L46 16L46 17L47 17L47 16L46 16L46 14L45 14L45 13L44 13L44 12L43 12L43 13L42 13L42 11L43 11L43 10L44 10L44 11L45 11L45 10L44 10L44 7L43 7L43 6L42 6L42 5L36 5L36 4L37 4L37 3L36 3L36 4L35 4L35 3ZM25 4L25 8L26 8L26 4ZM19 5L19 7L20 7L20 5ZM27 5L27 8L30 8L30 5ZM13 6L13 7L14 7L14 6ZM21 6L21 9L24 9L24 6L23 6L23 7L22 7L22 6ZM28 6L28 7L29 7L29 6ZM35 6L35 7L36 7L36 8L38 8L38 10L39 10L39 11L40 11L40 9L41 9L41 7L42 7L42 6L41 6L41 7L40 7L40 6L39 6L39 7L40 7L40 8L38 8L38 6L37 6L37 7L36 7L36 6ZM16 7L16 8L17 8L17 7ZM42 8L42 9L43 9L43 8ZM51 8L51 9L52 9L52 8ZM6 9L6 10L7 10L7 11L6 11L6 12L7 12L7 13L6 13L6 14L7 14L7 15L5 15L5 14L2 14L2 13L1 13L1 15L3 15L3 17L2 17L2 16L1 16L1 19L2 19L2 18L7 18L7 17L8 17L8 18L9 18L9 16L7 16L7 15L8 15L8 14L10 14L10 13L8 13L8 12L9 12L9 11L10 11L10 10L8 10L8 9ZM27 9L27 10L28 10L28 11L29 11L29 10L28 10L28 9ZM36 9L36 10L35 10L35 11L33 11L33 12L32 12L32 13L33 13L33 14L32 14L32 15L31 15L31 16L30 16L30 17L31 17L31 18L32 18L32 21L31 21L31 20L30 20L30 19L29 19L29 20L28 20L28 18L27 18L27 17L28 17L28 16L27 16L27 17L25 17L25 18L24 18L24 19L26 19L26 21L27 21L27 20L28 20L28 21L31 21L31 23L30 23L30 22L27 22L27 24L25 24L25 23L26 23L26 22L25 22L25 21L24 21L24 20L22 20L22 19L23 19L23 18L22 18L22 19L21 19L21 20L20 20L20 21L19 21L19 22L20 22L20 23L19 23L19 25L17 25L17 24L16 24L16 23L15 23L15 26L16 26L16 27L17 27L17 28L18 28L18 29L16 29L16 30L15 30L15 31L14 31L14 35L13 35L13 37L12 37L12 38L13 38L13 39L11 39L11 40L12 40L12 41L13 41L13 40L14 40L14 39L16 39L16 40L19 40L19 39L20 39L20 38L18 38L18 39L17 39L17 36L18 36L18 35L17 35L17 34L19 34L19 35L20 35L20 36L19 36L19 37L21 37L21 38L22 38L22 39L23 39L23 40L21 40L21 41L22 41L22 42L23 42L23 40L24 40L24 39L23 39L23 38L24 38L24 37L23 37L23 35L22 35L22 34L23 34L23 32L24 32L24 33L25 33L25 35L24 35L24 36L25 36L25 35L26 35L26 34L27 34L27 33L28 33L28 34L29 34L29 35L30 35L30 34L29 34L29 33L30 33L30 32L31 32L31 31L30 31L30 32L29 32L29 31L28 31L28 32L27 32L27 31L26 31L26 30L25 30L25 31L26 31L26 32L24 32L24 30L23 30L23 29L26 29L26 26L27 26L27 25L28 25L28 26L30 26L30 25L31 25L31 26L32 26L32 25L31 25L31 24L34 24L34 23L36 23L36 24L37 24L37 23L38 23L38 22L39 22L39 20L40 20L40 21L41 21L41 20L43 20L43 19L41 19L41 20L40 20L40 18L39 18L39 17L41 17L41 16L42 16L42 15L43 15L43 14L42 14L42 15L41 15L41 16L39 16L39 13L41 13L41 12L39 12L39 13L38 13L38 11L36 11L36 10L37 10L37 9ZM1 10L1 12L2 12L2 10ZM3 10L3 12L4 12L4 10ZM41 10L41 11L42 11L42 10ZM13 11L13 12L14 12L14 11ZM25 11L25 12L26 12L26 11ZM35 11L35 12L36 12L36 14L37 14L37 16L36 16L36 15L35 15L35 14L33 14L33 15L32 15L32 16L31 16L31 17L32 17L32 18L34 18L34 19L36 19L36 17L37 17L37 16L38 16L38 13L37 13L37 12L36 12L36 11ZM55 11L55 12L56 12L56 11ZM7 13L7 14L8 14L8 13ZM26 13L26 14L27 14L27 13ZM55 13L55 14L56 14L56 13ZM4 15L4 16L5 16L5 17L7 17L7 16L5 16L5 15ZM10 15L10 16L11 16L11 15ZM33 15L33 16L32 16L32 17L34 17L34 18L35 18L35 17L36 17L36 16L35 16L35 17L34 17L34 15ZM14 17L14 18L15 18L15 17ZM11 18L11 21L12 21L12 23L11 23L11 24L12 24L12 23L13 23L13 22L14 22L14 21L12 21L12 20L14 20L14 19L13 19L13 18ZM38 18L38 19L39 19L39 18ZM48 18L48 19L49 19L49 18ZM16 20L16 21L17 21L17 20ZM33 20L33 21L32 21L32 23L34 23L34 22L33 22L33 21L34 21L34 20ZM35 20L35 21L36 21L36 22L38 22L38 20ZM45 20L45 21L46 21L46 20ZM21 21L21 22L22 22L22 23L21 23L21 24L20 24L20 25L21 25L21 24L23 24L23 27L24 27L24 28L25 28L25 27L24 27L24 26L26 26L26 25L24 25L24 23L23 23L23 22L24 22L24 21ZM48 21L48 23L52 23L52 22L49 22L49 21ZM17 22L17 23L18 23L18 22ZM41 22L41 23L42 23L42 22ZM28 23L28 24L29 24L29 23ZM43 23L43 24L44 24L44 23ZM5 24L5 25L4 25L4 26L5 26L5 25L6 25L6 26L8 26L8 25L9 25L9 24L8 24L8 25L6 25L6 24ZM12 25L12 27L11 27L11 29L12 29L12 27L13 27L13 25ZM17 26L17 27L18 27L18 26ZM19 26L19 28L20 28L20 29L18 29L18 30L17 30L17 31L18 31L18 32L16 32L16 31L15 31L15 32L16 32L16 33L15 33L15 36L17 36L17 35L16 35L16 33L19 33L19 34L20 34L20 35L21 35L21 36L22 36L22 35L21 35L21 34L20 34L20 33L21 33L21 32L20 32L20 31L22 31L22 30L20 30L20 29L22 29L22 28L21 28L21 27L22 27L22 26L21 26L21 27L20 27L20 26ZM33 26L33 27L34 27L34 26ZM39 26L39 27L40 27L40 28L41 28L41 27L40 27L40 26ZM5 27L5 30L8 30L8 27ZM27 27L27 30L30 30L30 27ZM49 27L49 30L52 30L52 27ZM2 28L2 29L4 29L4 28ZM6 28L6 29L7 29L7 28ZM28 28L28 29L29 29L29 28ZM50 28L50 29L51 29L51 28ZM2 30L2 31L3 31L3 30ZM19 30L19 31L20 31L20 30ZM40 30L40 32L39 32L39 33L38 33L38 34L39 34L39 33L40 33L40 34L41 34L41 33L43 33L43 31L42 31L42 30ZM12 31L12 32L13 32L13 31ZM6 32L6 33L7 33L7 32ZM28 32L28 33L29 33L29 32ZM6 34L6 35L7 35L7 34ZM43 34L43 35L44 35L44 34ZM45 34L45 35L46 35L46 34ZM47 34L47 35L48 35L48 34ZM40 35L40 36L39 36L39 37L38 37L38 38L41 38L41 37L43 37L43 36L42 36L42 35ZM34 36L34 37L33 37L33 39L34 39L34 38L35 38L35 36ZM13 37L13 38L16 38L16 37ZM41 40L41 42L39 42L39 43L38 43L38 44L39 44L39 43L40 43L40 44L41 44L41 43L42 43L42 44L43 44L43 45L39 45L39 46L42 46L42 47L39 47L39 48L43 48L43 46L44 46L44 44L47 44L47 43L45 43L45 41L47 41L47 40L45 40L45 41L44 41L44 40ZM43 41L43 43L44 43L44 41ZM54 42L54 43L55 43L55 44L56 44L56 43L55 43L55 42ZM23 43L23 44L24 44L24 45L25 45L25 46L26 46L26 45L25 45L25 43ZM4 44L4 45L5 45L5 44ZM48 44L48 45L49 45L49 47L50 47L50 44ZM11 45L11 46L12 46L12 45ZM22 45L22 47L23 47L23 45ZM3 46L3 47L5 47L5 46ZM52 46L52 47L53 47L53 46ZM19 47L19 48L20 48L20 49L21 49L21 48L20 48L20 47ZM30 47L30 48L31 48L31 47ZM45 47L45 49L47 49L47 48L46 48L46 47ZM6 48L6 49L7 49L7 48ZM27 49L27 52L30 52L30 49ZM49 49L49 52L52 52L52 49ZM28 50L28 51L29 51L29 50ZM50 50L50 51L51 51L51 50ZM16 51L16 52L15 52L15 53L16 53L16 52L17 52L17 51ZM36 52L36 53L37 53L37 52ZM17 54L17 55L19 55L19 54ZM31 54L31 55L32 55L32 54ZM40 54L40 55L38 55L38 56L40 56L40 55L41 55L41 54ZM21 55L21 56L20 56L20 57L21 57L21 56L22 56L22 55ZM23 55L23 57L24 57L24 55ZM25 55L25 56L26 56L26 55ZM10 56L10 57L12 57L12 56ZM0 0L0 7L7 7L7 0ZM1 1L1 6L6 6L6 1ZM2 2L2 5L5 5L5 2ZM50 0L50 7L57 7L57 0ZM51 1L51 6L56 6L56 1ZM52 2L52 5L55 5L55 2ZM0 50L0 57L7 57L7 50ZM1 51L1 56L6 56L6 51ZM2 52L2 55L5 55L5 52Z" fill="#000000"/></g></g></svg>
