<?xml version="1.0" encoding="UTF-8"?>
<svg xmlns="http://www.w3.org/2000/svg" version="1.1" width="300" height="300" viewBox="0 0 300 300"><rect x="0" y="0" width="300" height="300" fill="#ffffff"/><g transform="scale(5.263)"><g transform="translate(0,0)"><path fill-rule="evenodd" d="M9 0L9 1L8 1L8 2L12 2L12 1L13 1L13 0ZM17 0L17 2L18 2L18 3L17 3L17 6L16 6L16 7L15 7L15 5L16 5L16 4L14 4L14 3L13 3L13 4L12 4L12 3L8 3L8 4L9 4L9 5L8 5L8 7L9 7L9 5L11 5L11 4L12 4L12 8L13 8L13 9L14 9L14 7L15 7L15 9L19 9L19 10L18 10L18 11L17 11L17 12L18 12L18 13L17 13L17 15L16 15L16 14L12 14L12 13L15 13L15 11L16 11L16 10L13 10L13 11L14 11L14 12L11 12L11 11L12 11L12 10L10 10L10 11L7 11L7 10L6 10L6 9L8 9L8 10L9 10L9 9L11 9L11 6L10 6L10 8L6 8L6 9L5 9L5 8L0 8L0 9L1 9L1 10L0 10L0 11L2 11L2 12L1 12L1 13L0 13L0 14L1 14L1 15L4 15L4 16L6 16L6 17L9 17L9 18L10 18L10 19L8 19L8 21L9 21L9 22L8 22L8 25L10 25L10 26L6 26L6 25L7 25L7 24L5 24L5 23L3 23L3 25L2 25L2 24L1 24L1 23L0 23L0 24L1 24L1 25L2 25L2 26L4 26L4 28L3 28L3 27L1 27L1 26L0 26L0 29L2 29L2 28L3 28L3 30L1 30L1 33L0 33L0 34L2 34L2 38L1 38L1 37L0 37L0 38L1 38L1 39L2 39L2 40L0 40L0 41L1 41L1 43L0 43L0 45L1 45L1 46L0 46L0 48L5 48L5 47L7 47L7 48L6 48L6 49L7 49L7 48L9 48L9 49L8 49L8 51L9 51L9 52L8 52L8 57L12 57L12 55L11 55L11 54L13 54L13 56L14 56L14 55L16 55L16 56L15 56L15 57L16 57L16 56L17 56L17 57L19 57L19 56L17 56L17 55L18 55L18 54L17 54L17 53L20 53L20 52L21 52L21 50L23 50L23 51L22 51L22 52L23 52L23 51L24 51L24 53L23 53L23 54L24 54L24 53L27 53L27 54L26 54L26 55L27 55L27 56L28 56L28 57L29 57L29 56L30 56L30 57L38 57L38 56L41 56L41 55L38 55L38 53L37 53L37 52L40 52L40 51L39 51L39 50L38 50L38 49L39 49L39 48L38 48L38 47L39 47L39 46L40 46L40 47L41 47L41 46L42 46L42 47L43 47L43 48L45 48L45 49L47 49L47 50L46 50L46 51L44 51L44 49L42 49L42 50L41 50L41 49L40 49L40 50L41 50L41 51L42 51L42 53L41 53L41 54L43 54L43 55L42 55L42 57L44 57L44 56L47 56L47 55L48 55L48 57L52 57L52 56L50 56L50 55L51 55L51 54L53 54L53 56L54 56L54 57L56 57L56 56L55 56L55 55L54 55L54 54L55 54L55 53L57 53L57 51L56 51L56 50L55 50L55 51L53 51L53 50L54 50L54 49L53 49L53 48L56 48L56 47L55 47L55 46L57 46L57 45L56 45L56 44L57 44L57 43L56 43L56 42L57 42L57 41L55 41L55 39L57 39L57 37L56 37L56 36L57 36L57 35L56 35L56 36L55 36L55 35L52 35L52 34L51 34L51 35L52 35L52 37L51 37L51 39L50 39L50 37L49 37L49 36L48 36L48 34L49 34L49 35L50 35L50 32L51 32L51 33L52 33L52 31L54 31L54 32L53 32L53 33L54 33L54 32L55 32L55 34L57 34L57 33L56 33L56 32L57 32L57 31L56 31L56 30L55 30L55 29L53 29L53 28L55 28L55 27L56 27L56 26L55 26L55 25L57 25L57 23L54 23L54 24L53 24L53 25L52 25L52 26L50 26L50 23L51 23L51 22L52 22L52 23L53 23L53 21L52 21L52 20L54 20L54 22L57 22L57 20L56 20L56 21L55 21L55 19L56 19L56 18L55 18L55 17L56 17L56 16L57 16L57 15L56 15L56 14L57 14L57 13L56 13L56 11L53 11L53 10L52 10L52 8L51 8L51 11L49 11L49 10L50 10L50 8L49 8L49 9L48 9L48 7L49 7L49 6L48 6L48 7L47 7L47 5L48 5L48 0L45 0L45 1L47 1L47 2L45 2L45 4L44 4L44 3L43 3L43 2L42 2L42 1L44 1L44 0L39 0L39 1L38 1L38 0L37 0L37 3L34 3L34 2L35 2L35 1L34 1L34 2L31 2L31 1L33 1L33 0L27 0L27 1L26 1L26 0L21 0L21 2L22 2L22 3L23 3L23 4L24 4L24 5L21 5L21 4L19 4L19 2L20 2L20 1L18 1L18 0ZM22 1L22 2L23 2L23 3L24 3L24 1ZM29 1L29 2L30 2L30 3L31 3L31 5L32 5L32 6L31 6L31 7L32 7L32 8L31 8L31 9L32 9L32 10L31 10L31 11L30 11L30 10L29 10L29 9L27 9L27 10L25 10L25 11L26 11L26 12L27 12L27 13L28 13L28 14L26 14L26 13L25 13L25 12L24 12L24 11L23 11L23 13L22 13L22 12L21 12L21 13L20 13L20 14L21 14L21 15L20 15L20 16L19 16L19 17L20 17L20 18L21 18L21 17L23 17L23 18L22 18L22 20L20 20L20 19L19 19L19 18L17 18L17 17L15 17L15 16L14 16L14 17L15 17L15 18L13 18L13 19L11 19L11 20L9 20L9 21L11 21L11 20L12 20L12 22L11 22L11 23L10 23L10 22L9 22L9 24L11 24L11 25L12 25L12 26L11 26L11 29L9 29L9 30L11 30L11 29L12 29L12 31L9 31L9 32L10 32L10 33L8 33L8 31L4 31L4 30L3 30L3 31L2 31L2 33L4 33L4 32L7 32L7 33L6 33L6 34L4 34L4 35L3 35L3 38L4 38L4 39L5 39L5 40L7 40L7 41L4 41L4 42L3 42L3 43L1 43L1 44L3 44L3 43L4 43L4 44L7 44L7 45L6 45L6 46L7 46L7 47L11 47L11 46L10 46L10 43L11 43L11 44L12 44L12 46L13 46L13 45L15 45L15 46L14 46L14 48L13 48L13 47L12 47L12 48L11 48L11 49L10 49L10 50L9 50L9 51L10 51L10 52L12 52L12 53L13 53L13 52L14 52L14 53L15 53L15 54L16 54L16 53L17 53L17 52L16 52L16 53L15 53L15 52L14 52L14 51L17 51L17 49L16 49L16 48L17 48L17 47L19 47L19 46L17 46L17 45L18 45L18 44L17 44L17 45L15 45L15 44L16 44L16 43L18 43L18 41L15 41L15 39L16 39L16 40L19 40L19 39L20 39L20 38L19 38L19 37L21 37L21 38L22 38L22 39L21 39L21 41L19 41L19 42L20 42L20 43L19 43L19 45L20 45L20 46L21 46L21 45L22 45L22 47L20 47L20 50L19 50L19 49L18 49L18 50L19 50L19 51L20 51L20 50L21 50L21 49L24 49L24 48L22 48L22 47L25 47L25 50L24 50L24 51L25 51L25 52L26 52L26 48L29 48L29 47L26 47L26 45L27 45L27 46L29 46L29 45L27 45L27 44L29 44L29 43L30 43L30 44L31 44L31 43L32 43L32 45L31 45L31 47L33 47L33 48L31 48L31 49L32 49L32 50L31 50L31 51L32 51L32 50L34 50L34 51L33 51L33 52L31 52L31 53L30 53L30 54L29 54L29 53L28 53L28 54L27 54L27 55L28 55L28 56L29 56L29 55L30 55L30 56L34 56L34 54L36 54L36 55L35 55L35 56L38 56L38 55L37 55L37 53L35 53L35 52L36 52L36 51L35 51L35 50L36 50L36 48L37 48L37 47L38 47L38 46L39 46L39 45L40 45L40 46L41 46L41 44L44 44L44 45L43 45L43 47L44 47L44 46L46 46L46 47L45 47L45 48L47 48L47 49L48 49L48 48L47 48L47 47L49 47L49 48L50 48L50 47L51 47L51 48L53 48L53 47L54 47L54 46L55 46L55 45L54 45L54 44L53 44L53 43L52 43L52 44L51 44L51 42L54 42L54 43L55 43L55 44L56 44L56 43L55 43L55 42L54 42L54 40L53 40L53 39L52 39L52 40L53 40L53 41L51 41L51 40L49 40L49 38L47 38L47 37L48 37L48 36L44 36L44 35L47 35L47 34L48 34L48 33L49 33L49 31L48 31L48 30L47 30L47 25L48 25L48 24L46 24L46 22L48 22L48 23L49 23L49 22L51 22L51 20L50 20L50 18L51 18L51 19L53 19L53 16L54 16L54 17L55 17L55 16L56 16L56 15L55 15L55 16L54 16L54 15L53 15L53 14L54 14L54 12L52 12L52 11L51 11L51 13L49 13L49 14L51 14L51 15L49 15L49 17L50 17L50 18L48 18L48 19L49 19L49 20L48 20L48 21L47 21L47 20L46 20L46 19L43 19L43 20L40 20L40 19L39 19L39 17L40 17L40 18L41 18L41 19L42 19L42 18L41 18L41 16L44 16L44 17L43 17L43 18L44 18L44 17L45 17L45 18L47 18L47 17L48 17L48 16L44 16L44 15L46 15L46 14L47 14L47 13L48 13L48 12L49 12L49 11L48 11L48 12L47 12L47 13L46 13L46 11L47 11L47 9L45 9L45 8L47 8L47 7L46 7L46 6L45 6L45 7L44 7L44 4L43 4L43 3L42 3L42 4L43 4L43 7L44 7L44 9L43 9L43 8L42 8L42 5L41 5L41 3L38 3L38 4L37 4L37 5L35 5L35 4L34 4L34 5L35 5L35 7L36 7L36 8L34 8L34 6L33 6L33 3L31 3L31 2L30 2L30 1ZM39 1L39 2L41 2L41 1ZM15 2L15 3L16 3L16 2ZM25 2L25 3L26 3L26 4L25 4L25 8L26 8L26 4L29 4L29 3L28 3L28 2ZM46 3L46 4L45 4L45 5L47 5L47 3ZM13 4L13 7L14 7L14 4ZM18 4L18 5L19 5L19 7L20 7L20 5L19 5L19 4ZM39 4L39 5L37 5L37 6L36 6L36 7L37 7L37 8L36 8L36 10L38 10L38 11L36 11L36 12L34 12L34 13L37 13L37 14L36 14L36 15L35 15L35 14L34 14L34 15L35 15L35 16L34 16L34 17L32 17L32 18L34 18L34 21L36 21L36 22L35 22L35 23L34 23L34 22L33 22L33 21L30 21L30 20L29 20L29 19L30 19L30 18L31 18L31 16L33 16L33 13L32 13L32 12L33 12L33 11L35 11L35 10L34 10L34 9L33 9L33 11L32 11L32 12L31 12L31 14L30 14L30 13L29 13L29 14L30 14L30 15L29 15L29 16L28 16L28 15L27 15L27 16L26 16L26 15L25 15L25 13L23 13L23 14L24 14L24 15L21 15L21 16L23 16L23 17L24 17L24 18L25 18L25 17L27 17L27 18L26 18L26 19L23 19L23 20L24 20L24 21L21 21L21 22L24 22L24 21L25 21L25 22L26 22L26 23L25 23L25 24L24 24L24 23L23 23L23 24L24 24L24 25L23 25L23 27L25 27L25 28L26 28L26 29L24 29L24 28L23 28L23 29L24 29L24 30L26 30L26 32L27 32L27 33L26 33L26 34L25 34L25 32L24 32L24 31L23 31L23 30L22 30L22 31L21 31L21 30L20 30L20 29L22 29L22 28L21 28L21 27L22 27L22 26L21 26L21 27L20 27L20 26L19 26L19 23L20 23L20 22L19 22L19 23L18 23L18 24L17 24L17 21L20 21L20 20L19 20L19 19L18 19L18 20L17 20L17 19L16 19L16 18L15 18L15 21L16 21L16 22L14 22L14 21L13 21L13 23L16 23L16 25L18 25L18 26L17 26L17 27L18 27L18 26L19 26L19 28L20 28L20 29L18 29L18 28L16 28L16 27L14 27L14 28L16 28L16 29L15 29L15 30L14 30L14 29L13 29L13 30L14 30L14 31L13 31L13 32L12 32L12 34L11 34L11 36L10 36L10 34L9 34L9 37L12 37L12 38L11 38L11 39L12 39L12 40L10 40L10 41L12 41L12 40L14 40L14 39L15 39L15 38L16 38L16 37L15 37L15 38L14 38L14 35L13 35L13 33L14 33L14 34L15 34L15 32L16 32L16 33L18 33L18 34L17 34L17 35L18 35L18 36L17 36L17 37L19 37L19 35L20 35L20 34L19 34L19 32L20 32L20 33L21 33L21 32L22 32L22 31L23 31L23 33L22 33L22 36L21 36L21 37L22 37L22 38L23 38L23 39L22 39L22 40L23 40L23 39L24 39L24 41L23 41L23 42L22 42L22 41L21 41L21 42L22 42L22 43L21 43L21 44L20 44L20 45L21 45L21 44L22 44L22 45L23 45L23 46L25 46L25 44L27 44L27 43L28 43L28 42L27 42L27 41L26 41L26 42L27 42L27 43L23 43L23 42L25 42L25 39L26 39L26 40L28 40L28 41L31 41L31 42L30 42L30 43L31 43L31 42L32 42L32 41L31 41L31 40L32 40L32 39L33 39L33 40L34 40L34 39L37 39L37 40L35 40L35 46L34 46L34 48L33 48L33 49L34 49L34 48L36 48L36 47L37 47L37 46L38 46L38 45L39 45L39 43L42 43L42 42L44 42L44 39L45 39L45 37L44 37L44 36L43 36L43 37L41 37L41 38L40 38L40 36L41 36L41 35L40 35L40 36L39 36L39 34L38 34L38 31L37 31L37 32L35 32L35 30L38 30L38 29L39 29L39 28L40 28L40 26L44 26L44 22L45 22L45 21L46 21L46 20L45 20L45 21L44 21L44 20L43 20L43 21L41 21L41 22L40 22L40 21L39 21L39 22L37 22L37 18L38 18L38 17L39 17L39 14L38 14L38 13L37 13L37 12L38 12L38 11L39 11L39 12L40 12L40 10L38 10L38 9L39 9L39 8L38 8L38 7L39 7L39 6L40 6L40 8L41 8L41 12L42 12L42 14L41 14L41 15L42 15L42 14L44 14L44 12L43 12L43 11L42 11L42 10L43 10L43 9L42 9L42 8L41 8L41 6L40 6L40 4ZM27 5L27 8L30 8L30 5ZM17 6L17 7L16 7L16 8L18 8L18 6ZM21 6L21 8L22 8L22 9L20 9L20 8L19 8L19 9L20 9L20 10L19 10L19 11L22 11L22 9L24 9L24 6L23 6L23 8L22 8L22 6ZM28 6L28 7L29 7L29 6ZM32 6L32 7L33 7L33 6ZM37 6L37 7L38 7L38 6ZM37 8L37 9L38 9L38 8ZM53 8L53 9L54 9L54 10L57 10L57 9L56 9L56 8L55 8L55 9L54 9L54 8ZM2 9L2 10L3 10L3 11L5 11L5 9ZM44 9L44 10L45 10L45 11L46 11L46 10L45 10L45 9ZM27 10L27 12L28 12L28 10ZM6 11L6 12L7 12L7 11ZM29 11L29 12L30 12L30 11ZM2 12L2 14L4 14L4 15L5 15L5 14L7 14L7 15L6 15L6 16L9 16L9 17L11 17L11 18L12 18L12 17L13 17L13 15L12 15L12 14L11 14L11 15L12 15L12 17L11 17L11 16L9 16L9 15L10 15L10 14L9 14L9 13L10 13L10 12L9 12L9 13L5 13L5 14L4 14L4 13L3 13L3 12ZM21 13L21 14L22 14L22 13ZM51 13L51 14L52 14L52 13ZM55 13L55 14L56 14L56 13ZM31 14L31 15L32 15L32 14ZM37 14L37 15L36 15L36 16L37 16L37 17L38 17L38 14ZM52 15L52 16L50 16L50 17L52 17L52 16L53 16L53 15ZM1 16L1 17L0 17L0 18L1 18L1 19L2 19L2 20L0 20L0 22L1 22L1 21L3 21L3 22L5 22L5 17L3 17L3 16ZM24 16L24 17L25 17L25 16ZM27 16L27 17L28 17L28 16ZM1 17L1 18L2 18L2 17ZM29 17L29 18L30 18L30 17ZM34 17L34 18L35 18L35 19L36 19L36 18L35 18L35 17ZM6 18L6 19L7 19L7 18ZM27 18L27 19L26 19L26 21L29 21L29 20L28 20L28 18ZM13 19L13 20L14 20L14 19ZM31 19L31 20L33 20L33 19ZM38 19L38 20L39 20L39 19ZM6 20L6 21L7 21L7 20ZM16 20L16 21L17 21L17 20ZM48 21L48 22L49 22L49 21ZM6 22L6 23L7 23L7 22ZM29 22L29 24L28 24L28 23L27 23L27 24L25 24L25 25L26 25L26 26L27 26L27 24L28 24L28 26L29 26L29 24L30 24L30 25L31 25L31 26L32 26L32 25L31 25L31 24L34 24L34 26L33 26L33 27L34 27L34 29L33 29L33 28L32 28L32 27L31 27L31 28L32 28L32 29L33 29L33 30L31 30L31 31L29 31L29 33L27 33L27 34L28 34L28 35L27 35L27 37L28 37L28 38L27 38L27 39L28 39L28 40L30 40L30 39L29 39L29 37L30 37L30 36L28 36L28 35L30 35L30 34L29 34L29 33L30 33L30 32L32 32L32 33L31 33L31 36L32 36L32 38L31 38L31 39L32 39L32 38L35 38L35 37L34 37L34 36L36 36L36 35L37 35L37 37L38 37L38 38L37 38L37 39L38 39L38 42L37 42L37 41L36 41L36 43L39 43L39 42L41 42L41 39L40 39L40 38L39 38L39 36L38 36L38 34L35 34L35 32L34 32L34 31L33 31L33 30L35 30L35 27L36 27L36 28L38 28L38 26L40 26L40 25L43 25L43 24L42 24L42 22L41 22L41 24L39 24L39 25L38 25L38 26L37 26L37 25L36 25L36 24L37 24L37 23L36 23L36 24L34 24L34 23L33 23L33 22L31 22L31 24L30 24L30 22ZM21 23L21 24L20 24L20 25L21 25L21 24L22 24L22 23ZM13 24L13 25L14 25L14 26L15 26L15 24ZM54 24L54 25L53 25L53 27L54 27L54 25L55 25L55 24ZM4 25L4 26L5 26L5 25ZM12 26L12 28L13 28L13 26ZM34 26L34 27L35 27L35 26ZM36 26L36 27L37 27L37 26ZM45 26L45 27L46 27L46 26ZM5 27L5 30L8 30L8 27ZM27 27L27 30L30 30L30 27ZM41 27L41 30L42 30L42 31L40 31L40 30L39 30L39 32L42 32L42 33L41 33L41 34L43 34L43 35L44 35L44 34L45 34L45 33L46 33L46 32L45 32L45 33L44 33L44 32L43 32L43 31L46 31L46 30L45 30L45 29L44 29L44 27ZM49 27L49 30L52 30L52 27ZM6 28L6 29L7 29L7 28ZM28 28L28 29L29 29L29 28ZM42 28L42 29L43 29L43 30L44 30L44 29L43 29L43 28ZM50 28L50 29L51 29L51 28ZM56 28L56 29L57 29L57 28ZM16 29L16 30L15 30L15 31L14 31L14 32L15 32L15 31L16 31L16 32L19 32L19 31L20 31L20 32L21 32L21 31L20 31L20 30L19 30L19 31L17 31L17 30L18 30L18 29ZM3 31L3 32L4 32L4 31ZM27 31L27 32L28 32L28 31ZM47 31L47 32L48 32L48 31ZM33 33L33 34L32 34L32 36L33 36L33 35L35 35L35 34L34 34L34 33ZM43 33L43 34L44 34L44 33ZM6 34L6 35L7 35L7 34ZM18 34L18 35L19 35L19 34ZM23 34L23 35L24 35L24 36L25 36L25 38L26 38L26 35L25 35L25 34ZM4 35L4 38L5 38L5 39L9 39L9 38L5 38L5 35ZM12 35L12 36L13 36L13 35ZM15 35L15 36L16 36L16 35ZM6 36L6 37L7 37L7 36ZM22 36L22 37L23 37L23 38L24 38L24 37L23 37L23 36ZM53 36L53 37L52 37L52 38L53 38L53 37L55 37L55 38L56 38L56 37L55 37L55 36ZM12 38L12 39L14 39L14 38ZM17 38L17 39L19 39L19 38ZM38 38L38 39L39 39L39 38ZM42 38L42 39L43 39L43 38ZM46 38L46 39L47 39L47 40L48 40L48 41L47 41L47 43L49 43L49 44L48 44L48 45L49 45L49 44L50 44L50 46L49 46L49 47L50 47L50 46L51 46L51 47L53 47L53 46L51 46L51 44L50 44L50 42L49 42L49 40L48 40L48 39L47 39L47 38ZM33 41L33 43L34 43L34 41ZM4 42L4 43L5 43L5 42ZM6 42L6 43L7 43L7 44L8 44L8 42ZM9 42L9 43L10 43L10 42ZM11 42L11 43L12 43L12 42ZM13 42L13 43L14 43L14 42ZM45 42L45 44L46 44L46 45L47 45L47 44L46 44L46 42ZM23 44L23 45L24 45L24 44ZM4 45L4 46L3 46L3 47L5 47L5 45ZM7 45L7 46L9 46L9 45ZM32 45L32 46L33 46L33 45ZM36 45L36 46L37 46L37 45ZM1 46L1 47L2 47L2 46ZM14 48L14 49L15 49L15 50L16 50L16 49L15 49L15 48ZM11 49L11 51L12 51L12 52L13 52L13 51L14 51L14 50L12 50L12 49ZM27 49L27 52L30 52L30 49ZM49 49L49 52L52 52L52 49ZM28 50L28 51L29 51L29 50ZM37 50L37 51L38 51L38 50ZM42 50L42 51L43 51L43 52L44 52L44 55L46 55L46 54L48 54L48 52L44 52L44 51L43 51L43 50ZM47 50L47 51L48 51L48 50ZM50 50L50 51L51 51L51 50ZM55 51L55 52L56 52L56 51ZM53 52L53 54L54 54L54 52ZM9 53L9 55L10 55L10 53ZM21 53L21 54L22 54L22 53ZM33 53L33 54L32 54L32 55L33 55L33 54L34 54L34 53ZM39 53L39 54L40 54L40 53ZM45 53L45 54L46 54L46 53ZM50 53L50 54L49 54L49 55L50 55L50 54L51 54L51 53ZM19 54L19 55L20 55L20 54ZM21 55L21 56L22 56L22 55ZM23 55L23 56L24 56L24 55ZM25 56L25 57L26 57L26 56ZM0 0L0 7L7 7L7 0ZM1 1L1 6L6 6L6 1ZM2 2L2 5L5 5L5 2ZM50 0L50 7L57 7L57 0ZM51 1L51 6L56 6L56 1ZM52 2L52 5L55 5L55 2ZM0 50L0 57L7 57L7 50ZM1 51L1 56L6 56L6 51ZM2 52L2 55L5 55L5 52Z" fill="#000000"/></g></g></svg>
