<?xml version="1.0" encoding="UTF-8"?>
<svg xmlns="http://www.w3.org/2000/svg" version="1.1" width="300" height="300" viewBox="0 0 300 300"><rect x="0" y="0" width="300" height="300" fill="#ffffff"/><g transform="scale(5.263)"><g transform="translate(0,0)"><path fill-rule="evenodd" d="M8 0L8 4L9 4L9 3L11 3L11 4L10 4L10 5L8 5L8 7L9 7L9 6L10 6L10 7L11 7L11 8L10 8L10 9L9 9L9 13L8 13L8 15L9 15L9 13L10 13L10 14L11 14L11 12L10 12L10 11L12 11L12 15L13 15L13 16L6 16L6 17L4 17L4 16L5 16L5 15L7 15L7 14L5 14L5 11L7 11L7 10L6 10L6 9L7 9L7 8L4 8L4 9L3 9L3 10L4 10L4 9L5 9L5 11L2 11L2 10L1 10L1 12L3 12L3 13L2 13L2 14L1 14L1 13L0 13L0 18L2 18L2 20L1 20L1 19L0 19L0 20L1 20L1 21L0 21L0 24L1 24L1 25L0 25L0 27L1 27L1 28L0 28L0 30L1 30L1 29L2 29L2 25L3 25L3 23L4 23L4 24L5 24L5 26L3 26L3 27L4 27L4 28L3 28L3 30L2 30L2 32L0 32L0 35L2 35L2 34L4 34L4 35L5 35L5 36L6 36L6 37L7 37L7 36L6 36L6 35L7 35L7 34L6 34L6 33L9 33L9 32L11 32L11 34L10 34L10 35L8 35L8 36L9 36L9 37L8 37L8 39L10 39L10 40L6 40L6 41L7 41L7 42L5 42L5 41L4 41L4 40L5 40L5 37L3 37L3 36L1 36L1 39L0 39L0 41L1 41L1 42L0 42L0 43L1 43L1 44L3 44L3 46L2 46L2 45L1 45L1 46L0 46L0 48L5 48L5 47L8 47L8 48L6 48L6 49L8 49L8 50L10 50L10 51L8 51L8 53L10 53L10 55L8 55L8 57L9 57L9 56L12 56L12 55L11 55L11 53L10 53L10 51L11 51L11 52L13 52L13 53L12 53L12 54L14 54L14 52L15 52L15 51L14 51L14 49L13 49L13 48L15 48L15 50L16 50L16 51L17 51L17 53L15 53L15 55L16 55L16 54L17 54L17 55L18 55L18 56L15 56L15 57L20 57L20 56L19 56L19 55L20 55L20 54L21 54L21 57L22 57L22 54L21 54L21 53L22 53L22 52L20 52L20 51L19 51L19 50L18 50L18 51L17 51L17 50L16 50L16 49L19 49L19 48L20 48L20 50L21 50L21 51L23 51L23 52L24 52L24 53L23 53L23 55L24 55L24 56L23 56L23 57L25 57L25 54L24 54L24 53L25 53L25 50L26 50L26 55L30 55L30 57L31 57L31 54L30 54L30 53L31 53L31 51L32 51L32 50L31 50L31 47L30 47L30 48L29 48L29 46L31 46L31 43L26 43L26 44L22 44L22 43L21 43L21 42L26 42L26 41L27 41L27 42L28 42L28 41L29 41L29 42L31 42L31 41L32 41L32 42L33 42L33 43L32 43L32 45L35 45L35 50L34 50L34 49L33 49L33 47L32 47L32 49L33 49L33 50L34 50L34 51L33 51L33 52L32 52L32 53L33 53L33 55L34 55L34 53L35 53L35 54L36 54L36 53L37 53L37 55L35 55L35 56L34 56L34 57L37 57L37 55L39 55L39 56L38 56L38 57L40 57L40 55L41 55L41 57L43 57L43 55L45 55L45 56L44 56L44 57L45 57L45 56L46 56L46 57L48 57L48 56L47 56L47 55L48 55L48 53L49 53L49 54L50 54L50 53L51 53L51 56L50 56L50 55L49 55L49 57L52 57L52 56L53 56L53 55L54 55L54 54L53 54L53 50L54 50L54 49L53 49L53 47L52 47L52 43L55 43L55 42L52 42L52 41L51 41L51 40L50 40L50 41L49 41L49 39L50 39L50 37L53 37L53 35L51 35L51 36L50 36L50 34L52 34L52 32L53 32L53 33L54 33L54 34L55 34L55 35L56 35L56 34L57 34L57 33L56 33L56 34L55 34L55 32L57 32L57 31L56 31L56 30L55 30L55 29L54 29L54 28L53 28L53 27L54 27L54 26L55 26L55 28L56 28L56 29L57 29L57 28L56 28L56 26L57 26L57 25L56 25L56 26L55 26L55 25L54 25L54 22L55 22L55 21L57 21L57 20L56 20L56 18L57 18L57 15L56 15L56 14L57 14L57 11L56 11L56 10L55 10L55 9L57 9L57 8L53 8L53 9L52 9L52 8L51 8L51 9L50 9L50 10L49 10L49 6L48 6L48 8L47 8L47 10L46 10L46 9L45 9L45 8L46 8L46 7L47 7L47 5L48 5L48 0L46 0L46 1L43 1L43 0L40 0L40 2L39 2L39 0L38 0L38 1L37 1L37 0L36 0L36 1L35 1L35 2L34 2L34 3L35 3L35 2L39 2L39 3L40 3L40 7L41 7L41 10L40 10L40 9L38 9L38 7L39 7L39 6L38 6L38 5L39 5L39 4L38 4L38 3L37 3L37 4L35 4L35 5L33 5L33 4L32 4L32 2L33 2L33 1L34 1L34 0L32 0L32 2L31 2L31 0L28 0L28 1L30 1L30 3L29 3L29 2L27 2L27 0L26 0L26 1L25 1L25 0L24 0L24 2L22 2L22 1L23 1L23 0L20 0L20 1L19 1L19 2L20 2L20 3L21 3L21 5L23 5L23 6L22 6L22 7L23 7L23 11L25 11L25 10L26 10L26 11L28 11L28 12L27 12L27 13L28 13L28 14L27 14L27 17L28 17L28 18L29 18L29 19L28 19L28 20L27 20L27 21L28 21L28 20L29 20L29 22L26 22L26 23L25 23L25 22L24 22L24 21L26 21L26 19L27 19L27 18L25 18L25 17L26 17L26 15L25 15L25 13L26 13L26 12L25 12L25 13L23 13L23 12L22 12L22 11L19 11L19 12L18 12L18 13L17 13L17 12L16 12L16 13L13 13L13 11L14 11L14 12L15 12L15 10L16 10L16 9L15 9L15 8L17 8L17 9L18 9L18 10L17 10L17 11L18 11L18 10L22 10L22 8L21 8L21 6L20 6L20 5L18 5L18 7L17 7L17 6L16 6L16 5L15 5L15 6L14 6L14 7L13 7L13 5L14 5L14 3L12 3L12 2L13 2L13 0L11 0L11 1L12 1L12 2L10 2L10 0ZM14 0L14 1L16 1L16 0ZM17 0L17 1L18 1L18 0ZM41 1L41 4L43 4L43 7L42 7L42 5L41 5L41 7L42 7L42 8L43 8L43 7L44 7L44 6L45 6L45 7L46 7L46 5L47 5L47 3L46 3L46 5L44 5L44 4L45 4L45 3L44 3L44 4L43 4L43 1ZM46 1L46 2L47 2L47 1ZM15 2L15 3L16 3L16 4L17 4L17 3L16 3L16 2ZM25 2L25 3L23 3L23 5L24 5L24 4L25 4L25 3L26 3L26 4L28 4L28 3L27 3L27 2ZM30 3L30 4L31 4L31 5L32 5L32 6L31 6L31 7L32 7L32 8L34 8L34 9L33 9L33 10L32 10L32 9L31 9L31 12L30 12L30 11L29 11L29 10L30 10L30 9L29 9L29 10L28 10L28 11L29 11L29 12L28 12L28 13L30 13L30 15L32 15L32 16L29 16L29 17L31 17L31 18L32 18L32 20L30 20L30 21L32 21L32 20L33 20L33 22L32 22L32 23L31 23L31 22L30 22L30 23L31 23L31 24L30 24L30 25L32 25L32 26L33 26L33 27L34 27L34 28L33 28L33 29L34 29L34 30L33 30L33 32L34 32L34 33L32 33L32 31L30 31L30 32L29 32L29 33L28 33L28 31L26 31L26 34L27 34L27 35L24 35L24 34L23 34L23 32L22 32L22 31L20 31L20 29L22 29L22 30L23 30L23 29L24 29L24 28L25 28L25 26L24 26L24 27L23 27L23 28L22 28L22 27L21 27L21 26L20 26L20 27L21 27L21 28L20 28L20 29L19 29L19 28L18 28L18 29L15 29L15 30L18 30L18 31L17 31L17 32L16 32L16 31L14 31L14 30L13 30L13 29L14 29L14 28L12 28L12 27L13 27L13 26L14 26L14 21L13 21L13 22L12 22L12 20L13 20L13 19L14 19L14 20L15 20L15 21L17 21L17 22L16 22L16 23L15 23L15 26L16 26L16 27L15 27L15 28L16 28L16 27L18 27L18 26L19 26L19 25L16 25L16 24L18 24L18 23L19 23L19 24L20 24L20 25L21 25L21 23L22 23L22 22L20 22L20 23L19 23L19 21L20 21L20 20L21 20L21 21L24 21L24 20L25 20L25 19L24 19L24 18L23 18L23 20L22 20L22 18L21 18L21 19L19 19L19 18L20 18L20 16L21 16L21 17L25 17L25 16L23 16L23 15L24 15L24 14L23 14L23 13L21 13L21 12L20 12L20 13L19 13L19 14L18 14L18 16L19 16L19 18L18 18L18 17L15 17L15 18L13 18L13 19L9 19L9 18L7 18L7 17L6 17L6 18L7 18L7 19L6 19L6 20L5 20L5 19L4 19L4 18L3 18L3 19L4 19L4 20L5 20L5 21L6 21L6 22L4 22L4 23L5 23L5 24L7 24L7 25L6 25L6 26L9 26L9 27L11 27L11 28L10 28L10 29L12 29L12 32L13 32L13 33L14 33L14 34L15 34L15 36L14 36L14 35L13 35L13 34L11 34L11 36L10 36L10 39L13 39L13 41L14 41L14 38L15 38L15 39L16 39L16 38L18 38L18 39L17 39L17 40L18 40L18 39L20 39L20 38L22 38L22 37L23 37L23 39L24 39L24 40L22 40L22 39L21 39L21 40L19 40L19 41L18 41L18 43L17 43L17 41L16 41L16 46L15 46L15 45L14 45L14 47L16 47L16 48L17 48L17 45L18 45L18 44L19 44L19 41L21 41L21 40L22 40L22 41L24 41L24 40L26 40L26 39L25 39L25 38L24 38L24 37L23 37L23 36L28 36L28 37L26 37L26 38L27 38L27 39L28 39L28 38L30 38L30 39L29 39L29 40L30 40L30 39L31 39L31 38L30 38L30 37L29 37L29 36L31 36L31 37L32 37L32 36L31 36L31 34L30 34L30 35L29 35L29 33L30 33L30 32L31 32L31 33L32 33L32 35L33 35L33 34L34 34L34 37L33 37L33 38L32 38L32 40L33 40L33 39L35 39L35 40L34 40L34 41L33 41L33 42L35 42L35 44L36 44L36 43L37 43L37 42L38 42L38 43L39 43L39 46L40 46L40 45L41 45L41 48L40 48L40 50L41 50L41 48L43 48L43 50L45 50L45 49L44 49L44 48L45 48L45 47L44 47L44 46L46 46L46 50L47 50L47 51L48 51L48 50L47 50L47 49L48 49L48 48L52 48L52 47L51 47L51 46L50 46L50 43L52 43L52 42L51 42L51 41L50 41L50 42L49 42L49 41L48 41L48 40L47 40L47 37L48 37L48 38L49 38L49 37L50 37L50 36L49 36L49 37L48 37L48 36L46 36L46 42L47 42L47 41L48 41L48 42L49 42L49 45L48 45L48 43L46 43L46 44L45 44L45 41L44 41L44 43L43 43L43 47L42 47L42 44L41 44L41 43L42 43L42 41L43 41L43 40L44 40L44 39L45 39L45 37L44 37L44 36L45 36L45 35L44 35L44 34L43 34L43 35L42 35L42 34L41 34L41 33L44 33L44 32L40 32L40 31L38 31L38 29L36 29L36 27L37 27L37 25L35 25L35 20L38 20L38 19L40 19L40 21L39 21L39 22L38 22L38 21L37 21L37 22L36 22L36 24L37 24L37 23L39 23L39 24L38 24L38 25L39 25L39 26L41 26L41 24L40 24L40 21L41 21L41 19L40 19L40 18L38 18L38 17L39 17L39 16L38 16L38 13L40 13L40 14L41 14L41 15L40 15L40 17L41 17L41 16L43 16L43 15L42 15L42 14L41 14L41 13L43 13L43 14L45 14L45 15L46 15L46 16L45 16L45 17L44 17L44 19L43 19L43 22L42 22L42 23L43 23L43 22L44 22L44 23L45 23L45 24L46 24L46 23L48 23L48 24L47 24L47 25L46 25L46 26L45 26L45 25L43 25L43 26L42 26L42 27L39 27L39 30L40 30L40 29L41 29L41 31L42 31L42 28L43 28L43 29L44 29L44 26L45 26L45 27L47 27L47 28L46 28L46 31L47 31L47 29L48 29L48 27L47 27L47 25L49 25L49 26L50 26L50 25L51 25L51 26L52 26L52 25L53 25L53 26L54 26L54 25L53 25L53 22L52 22L52 21L53 21L53 20L55 20L55 18L56 18L56 15L52 15L52 14L54 14L54 12L55 12L55 13L56 13L56 11L51 11L51 12L52 12L52 14L50 14L50 12L49 12L49 11L48 11L48 13L47 13L47 12L45 12L45 13L44 13L44 12L43 12L43 11L45 11L45 9L44 9L44 10L43 10L43 11L42 11L42 10L41 10L41 11L40 11L40 10L38 10L38 9L37 9L37 10L36 10L36 11L35 11L35 9L36 9L36 6L35 6L35 7L34 7L34 6L33 6L33 5L32 5L32 4L31 4L31 3ZM11 4L11 5L10 5L10 6L11 6L11 7L12 7L12 5L13 5L13 4ZM37 4L37 5L38 5L38 4ZM27 5L27 8L30 8L30 5ZM15 6L15 7L14 7L14 8L11 8L11 9L10 9L10 10L13 10L13 9L14 9L14 10L15 10L15 9L14 9L14 8L15 8L15 7L16 7L16 6ZM19 6L19 7L20 7L20 6ZM23 6L23 7L24 7L24 9L26 9L26 6L25 6L25 7L24 7L24 6ZM28 6L28 7L29 7L29 6ZM32 6L32 7L33 7L33 6ZM37 6L37 7L38 7L38 6ZM0 8L0 9L2 9L2 8ZM19 8L19 9L21 9L21 8ZM51 9L51 10L52 10L52 9ZM53 9L53 10L54 10L54 9ZM33 10L33 12L32 12L32 14L33 14L33 16L32 16L32 17L34 17L34 16L35 16L35 18L37 18L37 15L34 15L34 12L35 12L35 13L37 13L37 11L36 11L36 12L35 12L35 11L34 11L34 10ZM38 11L38 12L39 12L39 11ZM41 11L41 12L42 12L42 11ZM6 12L6 13L7 13L7 12ZM3 13L3 14L4 14L4 15L3 15L3 16L4 16L4 15L5 15L5 14L4 14L4 13ZM16 13L16 15L15 15L15 14L13 14L13 15L14 15L14 16L13 16L13 17L14 17L14 16L16 16L16 15L17 15L17 13ZM20 13L20 14L19 14L19 15L21 15L21 16L22 16L22 15L23 15L23 14L21 14L21 13ZM48 13L48 15L47 15L47 18L48 18L48 20L47 20L47 21L48 21L48 22L49 22L49 25L50 25L50 23L51 23L51 25L52 25L52 22L51 22L51 21L52 21L52 20L53 20L53 17L54 17L54 18L55 18L55 17L54 17L54 16L53 16L53 17L52 17L52 19L50 19L50 18L51 18L51 16L50 16L50 18L49 18L49 17L48 17L48 15L50 15L50 14L49 14L49 13ZM28 14L28 15L29 15L29 14ZM1 16L1 17L2 17L2 16ZM11 17L11 18L12 18L12 17ZM45 17L45 18L46 18L46 17ZM15 18L15 19L16 19L16 18ZM17 18L17 21L19 21L19 19L18 19L18 18ZM7 19L7 20L6 20L6 21L7 21L7 22L6 22L6 23L7 23L7 24L8 24L8 25L9 25L9 24L8 24L8 23L7 23L7 22L9 22L9 23L10 23L10 21L11 21L11 20L10 20L10 21L8 21L8 19ZM33 19L33 20L35 20L35 19ZM49 19L49 20L48 20L48 21L49 21L49 20L50 20L50 19ZM44 20L44 21L45 21L45 23L46 23L46 21L45 21L45 20ZM1 22L1 23L3 23L3 22ZM17 22L17 23L18 23L18 22ZM11 23L11 24L10 24L10 26L12 26L12 25L13 25L13 24L12 24L12 23ZM23 23L23 24L22 24L22 25L24 25L24 23ZM55 23L55 24L57 24L57 23ZM28 24L28 26L29 26L29 24ZM39 24L39 25L40 25L40 24ZM26 25L26 26L27 26L27 25ZM35 26L35 27L36 27L36 26ZM5 27L5 30L8 30L8 27ZM27 27L27 30L30 30L30 27ZM31 27L31 29L32 29L32 27ZM49 27L49 30L52 30L52 27ZM6 28L6 29L7 29L7 28ZM28 28L28 29L29 29L29 28ZM50 28L50 29L51 29L51 28ZM18 29L18 30L19 30L19 29ZM25 29L25 30L26 30L26 29ZM53 29L53 30L54 30L54 31L53 31L53 32L55 32L55 30L54 30L54 29ZM3 30L3 31L4 31L4 30ZM10 30L10 31L11 31L11 30ZM34 30L34 31L35 31L35 33L37 33L37 36L35 36L35 37L37 37L37 36L38 36L38 38L37 38L37 39L36 39L36 40L35 40L35 41L37 41L37 39L38 39L38 38L40 38L40 40L39 40L39 41L38 41L38 42L40 42L40 40L41 40L41 41L42 41L42 39L44 39L44 37L43 37L43 36L41 36L41 37L40 37L40 36L39 36L39 35L40 35L40 34L39 34L39 33L40 33L40 32L38 32L38 31L37 31L37 30ZM43 30L43 31L44 31L44 30ZM6 31L6 32L5 32L5 33L6 33L6 32L8 32L8 31ZM13 31L13 32L14 32L14 31ZM19 31L19 32L17 32L17 35L16 35L16 36L15 36L15 37L16 37L16 36L17 36L17 37L22 37L22 36L23 36L23 34L22 34L22 35L21 35L21 36L20 36L20 35L18 35L18 33L20 33L20 34L21 34L21 33L22 33L22 32L21 32L21 33L20 33L20 31ZM49 31L49 34L48 34L48 35L49 35L49 34L50 34L50 32L52 32L52 31ZM2 32L2 33L4 33L4 32ZM37 32L37 33L38 33L38 32ZM46 32L46 35L47 35L47 33L48 33L48 32ZM15 33L15 34L16 34L16 33ZM27 33L27 34L28 34L28 33ZM17 35L17 36L18 36L18 35ZM11 36L11 38L12 38L12 36ZM13 36L13 38L14 38L14 36ZM55 36L55 37L54 37L54 38L51 38L51 39L52 39L52 40L53 40L53 41L54 41L54 39L57 39L57 38L56 38L56 36ZM6 38L6 39L7 39L7 38ZM3 39L3 40L1 40L1 41L3 41L3 40L4 40L4 39ZM10 40L10 42L9 42L9 41L8 41L8 42L7 42L7 43L5 43L5 45L6 45L6 46L7 46L7 45L6 45L6 44L7 44L7 43L8 43L8 44L9 44L9 45L8 45L8 46L9 46L9 48L10 48L10 50L12 50L12 51L13 51L13 50L12 50L12 48L10 48L10 46L11 46L11 47L12 47L12 46L13 46L13 44L12 44L12 43L13 43L13 42L11 42L11 40ZM55 40L55 41L57 41L57 40ZM2 42L2 43L3 43L3 44L4 44L4 42ZM8 42L8 43L9 43L9 44L10 44L10 43L11 43L11 42L10 42L10 43L9 43L9 42ZM14 42L14 43L15 43L15 42ZM33 43L33 44L34 44L34 43ZM56 43L56 44L55 44L55 45L54 45L54 44L53 44L53 46L55 46L55 47L56 47L56 48L55 48L55 49L56 49L56 50L55 50L55 52L54 52L54 53L55 53L55 54L57 54L57 51L56 51L56 50L57 50L57 47L56 47L56 46L57 46L57 43ZM11 44L11 46L12 46L12 44ZM26 44L26 45L28 45L28 46L29 46L29 45L30 45L30 44L29 44L29 45L28 45L28 44ZM44 44L44 45L45 45L45 44ZM46 44L46 45L47 45L47 46L48 46L48 47L50 47L50 46L48 46L48 45L47 45L47 44ZM19 45L19 47L18 47L18 48L19 48L19 47L20 47L20 48L21 48L21 46L23 46L23 47L22 47L22 49L23 49L23 47L25 47L25 46L23 46L23 45L21 45L21 46L20 46L20 45ZM37 45L37 46L36 46L36 47L37 47L37 48L38 48L38 45ZM1 46L1 47L2 47L2 46ZM3 46L3 47L5 47L5 46ZM26 46L26 48L28 48L28 47L27 47L27 46ZM24 48L24 49L25 49L25 48ZM27 49L27 52L30 52L30 49ZM36 49L36 50L35 50L35 53L36 53L36 50L37 50L37 51L38 51L38 52L37 52L37 53L38 53L38 52L40 52L40 53L41 53L41 55L42 55L42 53L43 53L43 54L46 54L46 55L47 55L47 53L46 53L46 51L41 51L41 52L40 52L40 51L38 51L38 49ZM49 49L49 52L52 52L52 49ZM23 50L23 51L24 51L24 50ZM28 50L28 51L29 51L29 50ZM50 50L50 51L51 51L51 50ZM18 51L18 52L19 52L19 53L17 53L17 54L18 54L18 55L19 55L19 53L20 53L20 52L19 52L19 51ZM33 52L33 53L34 53L34 52ZM41 52L41 53L42 53L42 52ZM44 52L44 53L45 53L45 52ZM27 53L27 54L28 54L28 53ZM39 54L39 55L40 55L40 54ZM13 56L13 57L14 57L14 56ZM26 56L26 57L28 57L28 56ZM56 56L56 57L57 57L57 56ZM0 0L0 7L7 7L7 0ZM1 1L1 6L6 6L6 1ZM2 2L2 5L5 5L5 2ZM50 0L50 7L57 7L57 0ZM51 1L51 6L56 6L56 1ZM52 2L52 5L55 5L55 2ZM0 50L0 57L7 57L7 50ZM1 51L1 56L6 56L6 51ZM2 52L2 55L5 55L5 52Z" fill="#000000"/></g></g></svg>
