<?xml version="1.0" encoding="UTF-8"?>
<svg xmlns="http://www.w3.org/2000/svg" version="1.1" width="300" height="300" viewBox="0 0 300 300"><rect x="0" y="0" width="300" height="300" fill="#ffffff"/><g transform="scale(5.263)"><g transform="translate(0,0)"><path fill-rule="evenodd" d="M14 0L14 2L13 2L13 1L8 1L8 3L9 3L9 4L8 4L8 8L6 8L6 9L5 9L5 10L4 10L4 8L3 8L3 10L2 10L2 11L3 11L3 12L2 12L2 13L3 13L3 12L4 12L4 14L1 14L1 15L0 15L0 18L1 18L1 19L0 19L0 23L2 23L2 22L3 22L3 24L4 24L4 25L7 25L7 26L3 26L3 25L1 25L1 27L0 27L0 28L2 28L2 27L3 27L3 28L4 28L4 29L3 29L3 32L2 32L2 33L3 33L3 32L4 32L4 33L5 33L5 34L6 34L6 35L4 35L4 36L2 36L2 35L3 35L3 34L1 34L1 30L2 30L2 29L1 29L1 30L0 30L0 34L1 34L1 35L0 35L0 37L1 37L1 36L2 36L2 38L0 38L0 42L2 42L2 41L4 41L4 42L3 42L3 44L2 44L2 43L1 43L1 44L0 44L0 48L5 48L5 47L7 47L7 48L6 48L6 49L8 49L8 51L10 51L10 52L9 52L9 53L8 53L8 54L9 54L9 55L8 55L8 57L12 57L12 56L13 56L13 57L14 57L14 55L15 55L15 53L14 53L14 55L13 55L13 52L11 52L11 51L15 51L15 50L17 50L17 51L16 51L16 52L17 52L17 53L16 53L16 54L17 54L17 53L18 53L18 54L19 54L19 55L18 55L18 56L17 56L17 57L19 57L19 55L21 55L21 51L23 51L23 52L24 52L24 53L22 53L22 55L23 55L23 54L25 54L25 53L27 53L27 54L26 54L26 55L24 55L24 57L26 57L26 56L27 56L27 55L29 55L29 54L31 54L31 55L30 55L30 56L29 56L29 57L33 57L33 56L31 56L31 55L32 55L32 53L33 53L33 55L34 55L34 53L36 53L36 54L37 54L37 53L38 53L38 54L39 54L39 57L41 57L41 56L45 56L45 57L49 57L49 56L50 56L50 57L51 57L51 56L50 56L50 55L49 55L49 54L51 54L51 55L53 55L53 56L52 56L52 57L54 57L54 55L53 55L53 50L54 50L54 51L56 51L56 52L55 52L55 53L54 53L54 54L56 54L56 55L57 55L57 51L56 51L56 50L55 50L55 49L57 49L57 45L56 45L56 48L55 48L55 49L54 49L54 47L55 47L55 44L57 44L57 40L56 40L56 39L57 39L57 36L56 36L56 35L57 35L57 33L56 33L56 32L55 32L55 33L53 33L53 34L54 34L54 35L52 35L52 36L50 36L50 35L51 35L51 33L50 33L50 35L47 35L47 34L45 34L45 33L48 33L48 34L49 34L49 31L51 31L51 32L53 32L53 30L54 30L54 29L56 29L56 28L57 28L57 27L56 27L56 26L54 26L54 25L56 25L56 24L54 24L54 23L57 23L57 21L56 21L56 20L57 20L57 18L53 18L53 17L56 17L56 14L57 14L57 13L56 13L56 12L57 12L57 9L56 9L56 8L54 8L54 9L53 9L53 8L50 8L50 9L51 9L51 10L52 10L52 11L51 11L51 12L49 12L49 11L50 11L50 10L49 10L49 11L48 11L48 12L47 12L47 13L46 13L46 12L44 12L44 11L47 11L47 10L45 10L45 9L43 9L43 10L44 10L44 11L42 11L42 8L40 8L40 7L41 7L41 5L43 5L43 6L42 6L42 7L43 7L43 8L45 8L45 6L46 6L46 9L48 9L48 8L49 8L49 6L48 6L48 8L47 8L47 5L48 5L48 0L46 0L46 1L47 1L47 2L46 2L46 3L45 3L45 2L44 2L44 1L43 1L43 0L41 0L41 2L44 2L44 3L41 3L41 5L40 5L40 4L39 4L39 3L40 3L40 0L36 0L36 1L35 1L35 0L33 0L33 1L35 1L35 2L34 2L34 3L35 3L35 2L36 2L36 3L37 3L37 2L36 2L36 1L39 1L39 3L38 3L38 5L39 5L39 6L38 6L38 7L39 7L39 8L38 8L38 9L37 9L37 6L36 6L36 4L35 4L35 6L34 6L34 7L35 7L35 6L36 6L36 8L33 8L33 10L30 10L30 11L28 11L28 10L29 10L29 9L31 9L31 8L32 8L32 7L33 7L33 5L34 5L34 4L24 4L24 5L23 5L23 6L22 6L22 8L21 8L21 6L20 6L20 5L19 5L19 6L18 6L18 7L17 7L17 6L16 6L16 7L15 7L15 5L13 5L13 4L10 4L10 3L14 3L14 2L15 2L15 1L16 1L16 2L17 2L17 3L18 3L18 2L19 2L19 4L20 4L20 1L22 1L22 2L21 2L21 3L22 3L22 2L23 2L23 3L25 3L25 1L27 1L27 0L23 0L23 1L22 1L22 0L18 0L18 1L17 1L17 0ZM28 0L28 2L29 2L29 1L30 1L30 3L31 3L31 0ZM23 1L23 2L24 2L24 1ZM9 2L9 3L10 3L10 2ZM44 3L44 6L43 6L43 7L44 7L44 6L45 6L45 3ZM46 3L46 5L47 5L47 3ZM9 4L9 5L10 5L10 6L9 6L9 7L10 7L10 6L11 6L11 9L10 9L10 10L11 10L11 9L12 9L12 10L13 10L13 11L14 11L14 13L13 13L13 12L12 12L12 14L13 14L13 15L10 15L10 14L11 14L11 13L10 13L10 12L11 12L11 11L10 11L10 12L9 12L9 8L8 8L8 9L6 9L6 10L5 10L5 14L4 14L4 15L5 15L5 16L3 16L3 17L1 17L1 18L3 18L3 20L4 20L4 22L7 22L7 23L4 23L4 24L7 24L7 25L8 25L8 24L9 24L9 26L10 26L10 29L9 29L9 30L10 30L10 31L9 31L9 33L10 33L10 35L13 35L13 36L19 36L19 37L17 37L17 38L19 38L19 39L16 39L16 40L14 40L14 38L13 38L13 37L12 37L12 36L11 36L11 37L8 37L8 38L7 38L7 37L6 37L6 36L7 36L7 35L6 35L6 36L5 36L5 38L4 38L4 37L3 37L3 38L2 38L2 40L1 40L1 41L2 41L2 40L5 40L5 41L6 41L6 42L5 42L5 44L4 44L4 45L5 45L5 46L3 46L3 47L5 47L5 46L7 46L7 45L6 45L6 44L8 44L8 43L9 43L9 42L10 42L10 41L12 41L12 40L13 40L13 42L11 42L11 44L10 44L10 45L8 45L8 46L10 46L10 48L8 48L8 49L10 49L10 51L11 51L11 50L13 50L13 49L15 49L15 48L14 48L14 47L13 47L13 46L12 46L12 45L13 45L13 42L14 42L14 44L15 44L15 45L14 45L14 46L15 46L15 47L16 47L16 49L17 49L17 48L18 48L18 47L19 47L19 48L20 48L20 49L18 49L18 50L21 50L21 48L22 48L22 46L23 46L23 47L24 47L24 49L22 49L22 50L23 50L23 51L24 51L24 52L25 52L25 51L26 51L26 49L25 49L25 47L26 47L26 48L29 48L29 47L27 47L27 46L29 46L29 45L31 45L31 43L32 43L32 46L31 46L31 47L30 47L30 48L32 48L32 46L33 46L33 49L31 49L31 52L32 52L32 50L33 50L33 49L34 49L34 46L36 46L36 47L37 47L37 48L38 48L38 50L37 50L37 51L36 51L36 49L35 49L35 50L34 50L34 51L35 51L35 52L37 52L37 51L38 51L38 50L39 50L39 47L40 47L40 48L41 48L41 49L40 49L40 51L39 51L39 52L38 52L38 53L39 53L39 52L40 52L40 55L41 55L41 53L42 53L42 55L45 55L45 56L46 56L46 55L47 55L47 53L48 53L48 54L49 54L49 53L48 53L48 52L47 52L47 51L48 51L48 50L47 50L47 51L46 51L46 49L48 49L48 47L50 47L50 44L52 44L52 43L53 43L53 44L55 44L55 39L54 39L54 38L56 38L56 36L55 36L55 35L56 35L56 33L55 33L55 35L54 35L54 36L52 36L52 37L53 37L53 38L52 38L52 39L53 39L53 40L52 40L52 41L51 41L51 43L49 43L49 44L48 44L48 42L47 42L47 41L49 41L49 42L50 42L50 40L45 40L45 38L46 38L46 36L47 36L47 37L48 37L48 38L47 38L47 39L48 39L48 38L49 38L49 37L48 37L48 36L47 36L47 35L45 35L45 34L44 34L44 36L43 36L43 37L42 37L42 34L43 34L43 33L41 33L41 37L40 37L40 35L38 35L38 36L37 36L37 37L35 37L35 38L34 38L34 37L32 37L32 36L35 36L35 35L36 35L36 32L38 32L38 33L37 33L37 34L40 34L40 32L41 32L41 31L42 31L42 30L44 30L44 31L43 31L43 32L44 32L44 33L45 33L45 32L46 32L46 31L48 31L48 29L44 29L44 28L43 28L43 27L40 27L40 25L38 25L38 24L37 24L37 23L35 23L35 24L37 24L37 25L35 25L35 26L34 26L34 27L33 27L33 28L34 28L34 29L33 29L33 30L32 30L32 27L31 27L31 31L30 31L30 32L31 32L31 31L32 31L32 34L31 34L31 33L29 33L29 32L28 32L28 31L26 31L26 29L24 29L24 30L25 30L25 32L24 32L24 31L23 31L23 28L26 28L26 26L32 26L32 25L34 25L34 23L33 23L33 24L32 24L32 25L31 25L31 23L32 23L32 21L34 21L34 22L35 22L35 21L36 21L36 22L39 22L39 23L40 23L40 24L41 24L41 26L44 26L44 27L45 27L45 28L48 28L48 27L47 27L47 26L49 26L49 25L47 25L47 24L50 24L50 26L53 26L53 25L51 25L51 24L52 24L52 23L54 23L54 22L53 22L53 21L51 21L51 20L50 20L50 16L52 16L52 17L51 17L51 19L52 19L52 20L56 20L56 19L52 19L52 17L53 17L53 16L55 16L55 15L54 15L54 14L56 14L56 13L54 13L54 12L55 12L55 10L56 10L56 9L54 9L54 10L53 10L53 9L52 9L52 10L53 10L53 11L52 11L52 12L53 12L53 13L50 13L50 14L52 14L52 15L49 15L49 16L48 16L48 18L47 18L47 17L46 17L46 16L47 16L47 15L48 15L48 14L49 14L49 13L47 13L47 15L46 15L46 16L45 16L45 17L44 17L44 16L43 16L43 17L42 17L42 18L43 18L43 19L40 19L40 17L41 17L41 15L42 15L42 14L44 14L44 13L43 13L43 12L42 12L42 11L41 11L41 10L39 10L39 9L38 9L38 10L37 10L37 9L34 9L34 10L33 10L33 11L32 11L32 12L33 12L33 11L34 11L34 13L33 13L33 14L32 14L32 13L31 13L31 12L29 12L29 14L27 14L27 15L25 15L25 14L26 14L26 13L27 13L27 12L26 12L26 11L27 11L27 10L28 10L28 9L27 9L27 10L26 10L26 9L24 9L24 8L26 8L26 6L25 6L25 5L24 5L24 6L23 6L23 7L24 7L24 8L23 8L23 9L21 9L21 8L19 8L19 10L26 10L26 11L24 11L24 12L25 12L25 13L23 13L23 12L22 12L22 13L23 13L23 14L24 14L24 15L23 15L23 16L22 16L22 15L19 15L19 17L21 17L21 16L22 16L22 17L23 17L23 16L24 16L24 18L23 18L23 20L25 20L25 19L26 19L26 21L25 21L25 22L24 22L24 21L23 21L23 23L22 23L22 21L21 21L21 20L20 20L20 19L19 19L19 18L18 18L18 17L17 17L17 16L15 16L15 17L12 17L12 16L13 16L13 15L15 15L15 14L16 14L16 13L17 13L17 15L18 15L18 14L19 14L19 13L18 13L18 12L21 12L21 11L18 11L18 10L17 10L17 9L18 9L18 8L14 8L14 9L15 9L15 10L13 10L13 9L12 9L12 6L13 6L13 7L14 7L14 6L13 6L13 5L12 5L12 6L11 6L11 5L10 5L10 4ZM21 4L21 5L22 5L22 4ZM27 5L27 8L30 8L30 5ZM31 5L31 7L32 7L32 5ZM19 6L19 7L20 7L20 6ZM24 6L24 7L25 7L25 6ZM28 6L28 7L29 7L29 6ZM39 6L39 7L40 7L40 6ZM0 8L0 12L1 12L1 9L2 9L2 8ZM6 10L6 11L8 11L8 10ZM15 10L15 11L16 11L16 10ZM34 10L34 11L37 11L37 12L35 12L35 13L34 13L34 15L36 15L36 17L35 17L35 16L33 16L33 15L32 15L32 16L31 16L31 18L30 18L30 17L29 17L29 16L28 16L28 15L27 15L27 18L26 18L26 16L25 16L25 18L26 18L26 19L27 19L27 21L26 21L26 22L25 22L25 23L23 23L23 24L21 24L21 22L20 22L20 20L18 20L18 18L17 18L17 20L16 20L16 24L13 24L13 23L15 23L15 22L13 22L13 20L14 20L14 19L15 19L15 18L14 18L14 19L13 19L13 18L12 18L12 17L11 17L11 16L10 16L10 15L9 15L9 16L10 16L10 17L9 17L9 18L8 18L8 17L7 17L7 16L8 16L8 14L9 14L9 12L8 12L8 14L5 14L5 15L7 15L7 16L5 16L5 17L4 17L4 18L5 18L5 17L7 17L7 18L6 18L6 19L4 19L4 20L5 20L5 21L8 21L8 22L9 22L9 23L10 23L10 22L11 22L11 23L12 23L12 24L11 24L11 25L13 25L13 26L14 26L14 27L12 27L12 26L11 26L11 28L13 28L13 29L12 29L12 30L11 30L11 29L10 29L10 30L11 30L11 31L12 31L12 32L13 32L13 34L14 34L14 32L13 32L13 31L14 31L14 30L15 30L15 29L14 29L14 27L15 27L15 26L14 26L14 25L16 25L16 26L17 26L17 25L19 25L19 24L21 24L21 26L22 26L22 27L23 27L23 25L24 25L24 24L25 24L25 23L26 23L26 22L27 22L27 21L28 21L28 22L29 22L29 21L32 21L32 20L31 20L31 18L33 18L33 20L34 20L34 17L35 17L35 18L36 18L36 17L37 17L37 15L36 15L36 14L38 14L38 16L39 16L39 17L38 17L38 18L39 18L39 17L40 17L40 15L39 15L39 14L38 14L38 13L40 13L40 14L41 14L41 13L42 13L42 12L41 12L41 11L37 11L37 10ZM17 11L17 12L18 12L18 11ZM53 11L53 12L54 12L54 11ZM6 12L6 13L7 13L7 12ZM15 12L15 13L16 13L16 12ZM37 12L37 13L38 13L38 12ZM20 13L20 14L21 14L21 13ZM30 13L30 14L29 14L29 15L31 15L31 13ZM45 13L45 14L46 14L46 13ZM52 15L52 16L53 16L53 15ZM10 17L10 18L11 18L11 17ZM7 18L7 19L6 19L6 20L7 20L7 19L8 19L8 20L10 20L10 21L12 21L12 20L13 20L13 19L8 19L8 18ZM21 18L21 19L22 19L22 18ZM28 18L28 20L29 20L29 19L30 19L30 18ZM44 18L44 19L43 19L43 20L42 20L42 21L44 21L44 22L43 22L43 23L44 23L44 22L45 22L45 21L44 21L44 19L45 19L45 18ZM46 18L46 19L47 19L47 20L46 20L46 21L47 21L47 23L49 23L49 22L48 22L48 21L47 21L47 20L49 20L49 21L50 21L50 20L49 20L49 18L48 18L48 19L47 19L47 18ZM1 19L1 20L2 20L2 19ZM36 19L36 21L38 21L38 19ZM17 20L17 23L18 23L18 20ZM40 20L40 21L39 21L39 22L40 22L40 23L42 23L42 22L40 22L40 21L41 21L41 20ZM1 21L1 22L2 22L2 21ZM55 21L55 22L56 22L56 21ZM19 22L19 23L20 23L20 22ZM30 22L30 23L28 23L28 24L26 24L26 25L25 25L25 26L26 26L26 25L29 25L29 24L30 24L30 23L31 23L31 22ZM50 22L50 23L51 23L51 22ZM45 23L45 24L42 24L42 25L44 25L44 26L45 26L45 24L46 24L46 23ZM37 25L37 26L35 26L35 27L37 27L37 26L38 26L38 25ZM46 25L46 26L47 26L47 25ZM19 26L19 27L16 27L16 28L17 28L17 29L18 29L18 28L19 28L19 29L20 29L20 30L18 30L18 31L20 31L20 30L21 30L21 31L22 31L22 30L21 30L21 27L20 27L20 26ZM5 27L5 30L8 30L8 27ZM19 27L19 28L20 28L20 27ZM27 27L27 30L30 30L30 27ZM38 27L38 28L35 28L35 29L38 29L38 30L34 30L34 31L35 31L35 32L33 32L33 34L32 34L32 35L33 35L33 34L34 34L34 35L35 35L35 34L34 34L34 33L35 33L35 32L36 32L36 31L38 31L38 30L39 30L39 29L40 29L40 27ZM49 27L49 30L52 30L52 27ZM53 27L53 28L56 28L56 27ZM6 28L6 29L7 29L7 28ZM28 28L28 29L29 29L29 28ZM38 28L38 29L39 29L39 28ZM41 28L41 30L40 30L40 31L41 31L41 30L42 30L42 29L43 29L43 28ZM50 28L50 29L51 29L51 28ZM12 30L12 31L13 31L13 30ZM45 30L45 31L46 31L46 30ZM55 30L55 31L57 31L57 30ZM6 31L6 32L5 32L5 33L6 33L6 34L7 34L7 33L6 33L6 32L8 32L8 31ZM15 31L15 32L16 32L16 31ZM18 32L18 33L17 33L17 35L19 35L19 32ZM22 32L22 33L21 33L21 34L20 34L20 37L19 37L19 38L20 38L20 40L21 40L21 39L22 39L22 38L21 38L21 37L23 37L23 38L24 38L24 39L23 39L23 41L22 41L22 42L21 42L21 41L19 41L19 40L16 40L16 41L19 41L19 42L18 42L18 43L19 43L19 44L17 44L17 43L15 43L15 44L17 44L17 45L19 45L19 44L20 44L20 45L21 45L21 46L22 46L22 42L23 42L23 45L25 45L25 46L24 46L24 47L25 47L25 46L26 46L26 44L28 44L28 45L29 45L29 44L28 44L28 43L31 43L31 41L32 41L32 43L33 43L33 44L34 44L34 43L35 43L35 44L36 44L36 45L38 45L38 43L39 43L39 46L38 46L38 47L39 47L39 46L40 46L40 47L41 47L41 48L43 48L43 49L44 49L44 50L45 50L45 48L43 48L43 47L41 47L41 44L42 44L42 45L43 45L43 46L44 46L44 47L47 47L47 46L48 46L48 44L47 44L47 42L46 42L46 44L45 44L45 43L44 43L44 44L45 44L45 45L43 45L43 44L42 44L42 43L41 43L41 44L40 44L40 43L39 43L39 41L40 41L40 40L42 40L42 38L40 38L40 37L39 37L39 39L40 39L40 40L39 40L39 41L38 41L38 43L37 43L37 44L36 44L36 42L37 42L37 40L38 40L38 39L37 39L37 38L38 38L38 37L37 37L37 38L35 38L35 42L34 42L34 39L33 39L33 38L32 38L32 39L33 39L33 40L31 40L31 38L30 38L30 35L31 35L31 34L30 34L30 35L29 35L29 34L28 34L28 32L27 32L27 36L26 36L26 37L27 37L27 38L24 38L24 37L25 37L25 34L26 34L26 32L25 32L25 34L23 34L23 33L24 33L24 32ZM11 33L11 34L12 34L12 33ZM8 34L8 36L9 36L9 34ZM15 34L15 35L16 35L16 34ZM21 34L21 35L22 35L22 36L24 36L24 35L23 35L23 34ZM44 36L44 37L45 37L45 36ZM54 36L54 37L55 37L55 36ZM50 37L50 39L51 39L51 37ZM3 38L3 39L4 39L4 38ZM5 38L5 40L6 40L6 41L7 41L7 40L9 40L9 38L8 38L8 39L7 39L7 38ZM11 38L11 39L10 39L10 40L11 40L11 39L12 39L12 38ZM6 39L6 40L7 40L7 39ZM24 39L24 41L23 41L23 42L25 42L25 43L24 43L24 44L25 44L25 43L26 43L26 42L27 42L27 41L26 41L26 42L25 42L25 39ZM28 39L28 40L29 40L29 39ZM43 39L43 40L44 40L44 41L43 41L43 42L45 42L45 40L44 40L44 39ZM53 40L53 41L54 41L54 40ZM28 41L28 42L30 42L30 41ZM41 41L41 42L42 42L42 41ZM6 42L6 43L8 43L8 42ZM33 42L33 43L34 43L34 42ZM1 44L1 45L2 45L2 44ZM46 45L46 46L47 46L47 45ZM51 45L51 47L52 47L52 48L53 48L53 47L54 47L54 46L53 46L53 45ZM1 46L1 47L2 47L2 46ZM16 46L16 47L18 47L18 46ZM19 46L19 47L20 47L20 48L21 48L21 47L20 47L20 46ZM12 47L12 48L13 48L13 47ZM10 48L10 49L11 49L11 48ZM27 49L27 52L30 52L30 49ZM49 49L49 52L52 52L52 49ZM28 50L28 51L29 51L29 50ZM41 50L41 51L40 51L40 52L41 52L41 51L42 51L42 53L43 53L43 54L45 54L45 55L46 55L46 52L45 52L45 51L44 51L44 52L43 52L43 50ZM50 50L50 51L51 51L51 50ZM17 51L17 52L19 52L19 53L20 53L20 51ZM33 52L33 53L34 53L34 52ZM11 53L11 55L12 55L12 53ZM28 53L28 54L29 54L29 53ZM35 55L35 56L36 56L36 57L38 57L38 56L36 56L36 55ZM15 56L15 57L16 57L16 56ZM21 56L21 57L23 57L23 56ZM55 56L55 57L56 57L56 56ZM0 0L0 7L7 7L7 0ZM1 1L1 6L6 6L6 1ZM2 2L2 5L5 5L5 2ZM50 0L50 7L57 7L57 0ZM51 1L51 6L56 6L56 1ZM52 2L52 5L55 5L55 2ZM0 50L0 57L7 57L7 50ZM1 51L1 56L6 56L6 51ZM2 52L2 55L5 55L5 52Z" fill="#000000"/></g></g></svg>
