<?xml version="1.0" encoding="UTF-8"?>
<svg xmlns="http://www.w3.org/2000/svg" version="1.1" width="300" height="300" viewBox="0 0 300 300"><rect x="0" y="0" width="300" height="300" fill="#ffffff"/><g transform="scale(5.263)"><g transform="translate(0,0)"><path fill-rule="evenodd" d="M9 0L9 1L8 1L8 2L9 2L9 3L8 3L8 4L9 4L9 5L8 5L8 7L9 7L9 8L6 8L6 9L10 9L10 8L11 8L11 6L12 6L12 11L11 11L11 10L10 10L10 11L9 11L9 10L5 10L5 8L0 8L0 10L1 10L1 9L2 9L2 11L4 11L4 12L3 12L3 14L4 14L4 13L7 13L7 14L5 14L5 15L4 15L4 16L3 16L3 15L2 15L2 14L1 14L1 15L2 15L2 16L1 16L1 17L0 17L0 20L2 20L2 19L4 19L4 20L3 20L3 22L5 22L5 23L4 23L4 27L2 27L2 26L1 26L1 27L0 27L0 31L2 31L2 33L3 33L3 31L7 31L7 32L5 32L5 33L7 33L7 34L6 34L6 35L7 35L7 36L4 36L4 35L3 35L3 34L0 34L0 36L1 36L1 37L2 37L2 38L3 38L3 39L1 39L1 40L3 40L3 39L4 39L4 42L2 42L2 43L1 43L1 42L0 42L0 43L1 43L1 44L2 44L2 45L0 45L0 48L5 48L5 47L9 47L9 48L6 48L6 49L8 49L8 51L11 51L11 52L12 52L12 53L11 53L11 55L9 55L9 52L8 52L8 57L9 57L9 56L11 56L11 57L19 57L19 56L17 56L17 54L18 54L18 53L20 53L20 52L21 52L21 51L22 51L22 49L21 49L21 51L19 51L19 50L20 50L20 49L19 49L19 48L20 48L20 47L21 47L21 46L22 46L22 45L23 45L23 46L24 46L24 47L26 47L26 48L23 48L23 47L22 47L22 48L23 48L23 50L24 50L24 51L23 51L23 52L24 52L24 53L21 53L21 56L24 56L24 55L22 55L22 54L24 54L24 53L25 53L25 54L26 54L26 55L25 55L25 57L26 57L26 55L27 55L27 57L28 57L28 56L30 56L30 57L38 57L38 56L42 56L42 57L43 57L43 56L45 56L45 55L46 55L46 57L47 57L47 56L48 56L48 55L49 55L49 54L48 54L48 55L46 55L46 54L45 54L45 55L44 55L44 52L43 52L43 51L44 51L44 50L43 50L43 49L44 49L44 47L43 47L43 46L46 46L46 47L45 47L45 49L47 49L47 48L46 48L46 47L47 47L47 46L48 46L48 47L49 47L49 48L48 48L48 50L47 50L47 51L48 51L48 53L51 53L51 54L53 54L53 52L54 52L54 54L55 54L55 51L56 51L56 52L57 52L57 51L56 51L56 50L55 50L55 49L56 49L56 48L57 48L57 47L56 47L56 48L55 48L55 45L54 45L54 46L52 46L52 48L51 48L51 47L49 47L49 46L51 46L51 45L53 45L53 44L51 44L51 45L49 45L49 46L48 46L48 45L47 45L47 43L46 43L46 42L45 42L45 41L44 41L44 39L39 39L39 38L40 38L40 37L39 37L39 36L41 36L41 38L43 38L43 37L44 37L44 38L45 38L45 37L47 37L47 39L45 39L45 40L47 40L47 39L49 39L49 37L47 37L47 36L48 36L48 35L49 35L49 36L50 36L50 37L51 37L51 36L52 36L52 37L53 37L53 36L54 36L54 38L53 38L53 39L54 39L54 40L52 40L52 39L50 39L50 40L52 40L52 41L53 41L53 42L51 42L51 43L53 43L53 42L57 42L57 41L54 41L54 40L55 40L55 39L57 39L57 35L56 35L56 34L57 34L57 31L56 31L56 30L57 30L57 29L56 29L56 28L57 28L57 27L56 27L56 28L55 28L55 26L57 26L57 23L53 23L53 24L54 24L54 27L53 27L53 25L51 25L51 22L50 22L50 20L51 20L51 19L52 19L52 20L53 20L53 21L54 21L54 20L55 20L55 19L56 19L56 20L57 20L57 19L56 19L56 18L57 18L57 15L56 15L56 13L55 13L55 12L57 12L57 11L56 11L56 8L55 8L55 9L54 9L54 8L53 8L53 9L54 9L54 10L55 10L55 11L53 11L53 12L54 12L54 13L53 13L53 14L54 14L54 15L53 15L53 16L54 16L54 17L52 17L52 18L49 18L49 17L50 17L50 16L52 16L52 13L51 13L51 12L52 12L52 11L51 11L51 10L50 10L50 11L51 11L51 12L50 12L50 13L48 13L48 12L49 12L49 9L50 9L50 8L48 8L48 7L49 7L49 6L48 6L48 7L47 7L47 5L48 5L48 0L44 0L44 2L42 2L42 1L43 1L43 0L41 0L41 3L43 3L43 4L40 4L40 5L42 5L42 7L41 7L41 6L40 6L40 7L39 7L39 5L36 5L36 4L39 4L39 3L40 3L40 1L39 1L39 3L38 3L38 2L37 2L37 1L38 1L38 0L37 0L37 1L36 1L36 2L37 2L37 3L34 3L34 2L33 2L33 3L34 3L34 4L35 4L35 5L36 5L36 7L35 7L35 6L34 6L34 8L36 8L36 9L35 9L35 10L34 10L34 9L33 9L33 12L35 12L35 13L36 13L36 14L34 14L34 13L32 13L32 12L31 12L31 13L32 13L32 15L31 15L31 14L30 14L30 13L28 13L28 14L25 14L25 13L26 13L26 11L27 11L27 12L30 12L30 11L27 11L27 10L26 10L26 11L24 11L24 10L25 10L25 9L29 9L29 10L32 10L32 9L31 9L31 8L32 8L32 7L33 7L33 6L32 6L32 7L31 7L31 5L33 5L33 4L32 4L32 3L31 3L31 4L26 4L26 3L23 3L23 2L22 2L22 1L24 1L24 2L25 2L25 1L26 1L26 0L21 0L21 2L20 2L20 3L23 3L23 4L19 4L19 1L20 1L20 0L18 0L18 4L19 4L19 5L20 5L20 7L19 7L19 6L18 6L18 7L17 7L17 6L16 6L16 7L15 7L15 5L16 5L16 4L15 4L15 5L14 5L14 7L13 7L13 6L12 6L12 5L13 5L13 4L14 4L14 3L13 3L13 1L14 1L14 2L15 2L15 3L16 3L16 2L15 2L15 1L16 1L16 0ZM28 0L28 1L27 1L27 3L28 3L28 1L30 1L30 2L32 2L32 1L33 1L33 0ZM10 1L10 3L9 3L9 4L10 4L10 5L9 5L9 7L10 7L10 6L11 6L11 4L13 4L13 3L12 3L12 2L11 2L11 1ZM45 1L45 2L44 2L44 5L43 5L43 7L44 7L44 9L45 9L45 11L44 11L44 10L40 10L40 9L43 9L43 8L39 8L39 9L38 9L38 10L37 10L37 11L36 11L36 10L35 10L35 11L36 11L36 12L38 12L38 13L37 13L37 14L36 14L36 15L34 15L34 14L33 14L33 15L32 15L32 17L34 17L34 18L33 18L33 19L32 19L32 18L29 18L29 19L28 19L28 18L27 18L27 17L28 17L28 16L30 16L30 14L29 14L29 15L28 15L28 16L27 16L27 15L26 15L26 16L25 16L25 15L24 15L24 14L23 14L23 13L24 13L24 12L23 12L23 13L22 13L22 12L21 12L21 13L20 13L20 14L21 14L21 15L19 15L19 14L17 14L17 13L18 13L18 12L17 12L17 11L18 11L18 10L19 10L19 11L22 11L22 9L24 9L24 6L23 6L23 8L22 8L22 9L20 9L20 10L19 10L19 9L15 9L15 7L14 7L14 8L13 8L13 10L14 10L14 9L15 9L15 10L17 10L17 11L15 11L15 12L16 12L16 13L13 13L13 15L12 15L12 16L11 16L11 15L10 15L10 14L12 14L12 13L11 13L11 11L10 11L10 12L8 12L8 11L5 11L5 12L8 12L8 13L9 13L9 14L7 14L7 15L5 15L5 16L7 16L7 15L10 15L10 16L11 16L11 17L12 17L12 18L13 18L13 19L14 19L14 20L12 20L12 19L11 19L11 18L9 18L9 17L6 17L6 18L5 18L5 20L9 20L9 21L8 21L8 22L9 22L9 23L6 23L6 24L7 24L7 25L5 25L5 26L8 26L8 24L9 24L9 25L11 25L11 24L12 24L12 26L11 26L11 27L12 27L12 28L11 28L11 29L10 29L10 26L9 26L9 31L8 31L8 32L9 32L9 33L8 33L8 35L9 35L9 34L11 34L11 35L10 35L10 36L9 36L9 37L8 37L8 38L7 38L7 37L4 37L4 36L3 36L3 35L1 35L1 36L2 36L2 37L4 37L4 39L6 39L6 40L7 40L7 41L6 41L6 42L8 42L8 41L9 41L9 39L11 39L11 41L12 41L12 42L14 42L14 43L13 43L13 44L10 44L10 43L11 43L11 42L9 42L9 43L6 43L6 44L9 44L9 45L8 45L8 46L9 46L9 45L11 45L11 46L10 46L10 47L12 47L12 48L13 48L13 47L14 47L14 45L13 45L13 44L14 44L14 43L15 43L15 44L16 44L16 45L15 45L15 46L16 46L16 48L15 48L15 49L14 49L14 50L11 50L11 48L10 48L10 49L9 49L9 50L11 50L11 51L12 51L12 52L13 52L13 53L12 53L12 56L14 56L14 55L15 55L15 56L16 56L16 55L15 55L15 54L16 54L16 53L17 53L17 52L16 52L16 53L15 53L15 52L13 52L13 51L18 51L18 52L19 52L19 51L18 51L18 50L19 50L19 49L16 49L16 48L18 48L18 46L17 46L17 45L18 45L18 44L16 44L16 43L15 43L15 42L17 42L17 43L18 43L18 42L20 42L20 43L19 43L19 46L21 46L21 45L22 45L22 44L21 44L21 43L22 43L22 42L23 42L23 40L24 40L24 39L21 39L21 41L17 41L17 37L18 37L18 38L19 38L19 39L20 39L20 38L19 38L19 37L21 37L21 38L24 38L24 37L23 37L23 36L26 36L26 37L25 37L25 42L24 42L24 43L25 43L25 44L26 44L26 43L27 43L27 45L25 45L25 46L26 46L26 47L27 47L27 48L29 48L29 46L31 46L31 45L30 45L30 43L27 43L27 42L31 42L31 43L32 43L32 45L33 45L33 46L32 46L32 47L31 47L31 48L32 48L32 49L31 49L31 50L32 50L32 51L31 51L31 53L30 53L30 54L27 54L27 55L30 55L30 56L34 56L34 54L35 54L35 56L36 56L36 54L39 54L39 53L40 53L40 54L41 54L41 50L40 50L40 49L43 49L43 47L42 47L42 46L40 46L40 45L43 45L43 43L45 43L45 44L44 44L44 45L46 45L46 46L47 46L47 45L46 45L46 43L45 43L45 42L43 42L43 43L42 43L42 42L41 42L41 41L43 41L43 40L39 40L39 39L37 39L37 38L36 38L36 37L35 37L35 36L37 36L37 34L36 34L36 33L35 33L35 32L34 32L34 30L35 30L35 31L37 31L37 32L38 32L38 34L39 34L39 35L41 35L41 36L42 36L42 37L43 37L43 36L42 36L42 35L41 35L41 33L43 33L43 32L44 32L44 33L45 33L45 34L43 34L43 35L44 35L44 37L45 37L45 36L47 36L47 35L48 35L48 34L47 34L47 33L48 33L48 32L49 32L49 34L50 34L50 35L52 35L52 36L53 36L53 32L51 32L51 33L50 33L50 32L49 32L49 31L48 31L48 27L47 27L47 23L46 23L46 22L48 22L48 21L49 21L49 18L48 18L48 19L47 19L47 20L46 20L46 19L44 19L44 21L43 21L43 22L42 22L42 21L41 21L41 20L42 20L42 19L43 19L43 18L41 18L41 19L40 19L40 20L39 20L39 19L36 19L36 17L35 17L35 16L37 16L37 18L39 18L39 16L40 16L40 17L41 17L41 16L40 16L40 14L41 14L41 12L42 12L42 11L44 11L44 14L42 14L42 15L43 15L43 16L44 16L44 18L45 18L45 16L46 16L46 18L47 18L47 17L48 17L48 16L49 16L49 15L50 15L50 14L51 14L51 13L50 13L50 14L48 14L48 13L46 13L46 14L45 14L45 12L48 12L48 10L47 10L47 9L48 9L48 8L47 8L47 7L46 7L46 6L45 6L45 7L44 7L44 5L47 5L47 3L46 3L46 4L45 4L45 2L47 2L47 1ZM10 3L10 4L11 4L11 3ZM23 4L23 5L24 5L24 4ZM25 4L25 8L26 8L26 4ZM27 5L27 8L30 8L30 5ZM21 6L21 7L22 7L22 6ZM28 6L28 7L29 7L29 6ZM37 6L37 7L36 7L36 8L38 8L38 6ZM16 7L16 8L17 8L17 7ZM45 7L45 8L46 8L46 9L47 9L47 8L46 8L46 7ZM51 8L51 9L52 9L52 8ZM3 9L3 10L4 10L4 9ZM38 10L38 11L40 11L40 10ZM46 10L46 11L47 11L47 10ZM12 11L12 12L14 12L14 11ZM21 13L21 14L22 14L22 16L20 16L20 17L19 17L19 15L17 15L17 16L16 16L16 15L15 15L15 14L14 14L14 15L13 15L13 16L16 16L16 17L13 17L13 18L16 18L16 17L19 17L19 20L18 20L18 19L17 19L17 21L16 21L16 20L15 20L15 21L16 21L16 22L15 22L15 23L14 23L14 25L13 25L13 26L12 26L12 27L13 27L13 30L12 30L12 29L11 29L11 31L9 31L9 32L10 32L10 33L12 33L12 32L14 32L14 34L12 34L12 35L11 35L11 38L12 38L12 39L13 39L13 40L12 40L12 41L13 41L13 40L14 40L14 39L15 39L15 41L14 41L14 42L15 42L15 41L16 41L16 39L15 39L15 38L16 38L16 37L15 37L15 38L14 38L14 37L13 37L13 35L14 35L14 36L15 36L15 31L14 31L14 30L15 30L15 29L14 29L14 27L16 27L16 26L14 26L14 25L16 25L16 24L17 24L17 27L18 27L18 26L19 26L19 28L20 28L20 29L18 29L18 28L16 28L16 29L18 29L18 30L19 30L19 32L18 32L18 31L17 31L17 30L16 30L16 31L17 31L17 32L16 32L16 33L17 33L17 34L18 34L18 35L17 35L17 36L18 36L18 37L19 37L19 36L20 36L20 35L21 35L21 36L23 36L23 35L21 35L21 34L22 34L22 33L21 33L21 32L23 32L23 31L25 31L25 32L24 32L24 33L23 33L23 34L24 34L24 35L27 35L27 36L28 36L28 35L29 35L29 37L30 37L30 38L29 38L29 40L28 40L28 39L27 39L27 38L28 38L28 37L26 37L26 39L27 39L27 40L28 40L28 41L31 41L31 42L32 42L32 41L31 41L31 40L32 40L32 39L33 39L33 40L34 40L34 39L35 39L35 38L33 38L33 37L30 37L30 36L35 36L35 35L36 35L36 34L34 34L34 33L33 33L33 34L31 34L31 32L30 32L30 33L29 33L29 32L28 32L28 31L32 31L32 32L33 32L33 31L32 31L32 30L34 30L34 28L35 28L35 29L36 29L36 30L38 30L38 32L40 32L40 30L41 30L41 31L42 31L42 32L43 32L43 31L42 31L42 30L44 30L44 32L45 32L45 31L46 31L46 33L47 33L47 32L48 32L48 31L47 31L47 30L46 30L46 29L45 29L45 30L44 30L44 28L43 28L43 27L44 27L44 26L45 26L45 27L46 27L46 26L45 26L45 25L46 25L46 23L45 23L45 21L46 21L46 20L45 20L45 21L44 21L44 23L45 23L45 25L44 25L44 24L43 24L43 23L42 23L42 22L41 22L41 23L39 23L39 22L38 22L38 21L39 21L39 20L34 20L34 19L35 19L35 18L34 18L34 19L33 19L33 21L36 21L36 22L35 22L35 23L34 23L34 24L30 24L30 22L32 22L32 19L30 19L30 20L29 20L29 21L27 21L27 20L28 20L28 19L27 19L27 20L26 20L26 18L25 18L25 17L22 17L22 16L23 16L23 14L22 14L22 13ZM54 13L54 14L55 14L55 13ZM37 14L37 16L39 16L39 14ZM44 14L44 16L45 16L45 14ZM46 14L46 16L48 16L48 15L47 15L47 14ZM2 16L2 17L1 17L1 19L2 19L2 17L3 17L3 16ZM20 17L20 18L22 18L22 17ZM55 17L55 18L56 18L56 17ZM6 18L6 19L7 19L7 18ZM8 18L8 19L9 19L9 18ZM24 18L24 19L25 19L25 18ZM52 18L52 19L54 19L54 18ZM10 19L10 20L11 20L11 22L10 22L10 21L9 21L9 22L10 22L10 24L11 24L11 23L12 23L12 24L13 24L13 22L14 22L14 21L13 21L13 22L12 22L12 20L11 20L11 19ZM22 19L22 20L20 20L20 21L19 21L19 22L18 22L18 23L17 23L17 24L18 24L18 23L19 23L19 26L20 26L20 27L21 27L21 28L22 28L22 29L20 29L20 30L21 30L21 31L23 31L23 29L26 29L26 27L23 27L23 26L22 26L22 27L21 27L21 25L23 25L23 23L24 23L24 24L25 24L25 26L26 26L26 25L27 25L27 26L28 26L28 25L30 25L30 24L25 24L25 23L26 23L26 22L25 22L25 21L24 21L24 20L23 20L23 19ZM30 20L30 21L29 21L29 22L30 22L30 21L31 21L31 20ZM47 20L47 21L48 21L48 20ZM0 21L0 22L1 22L1 23L0 23L0 24L1 24L1 25L2 25L2 24L3 24L3 23L2 23L2 21ZM6 21L6 22L7 22L7 21ZM22 21L22 22L21 22L21 24L20 24L20 25L21 25L21 24L22 24L22 22L24 22L24 21ZM55 21L55 22L57 22L57 21ZM19 22L19 23L20 23L20 22ZM36 22L36 23L38 23L38 25L36 25L36 26L35 26L35 24L34 24L34 26L33 26L33 27L32 27L32 29L31 29L31 30L32 30L32 29L33 29L33 27L34 27L34 26L35 26L35 28L36 28L36 27L37 27L37 29L38 29L38 30L39 30L39 29L41 29L41 28L42 28L42 29L43 29L43 28L42 28L42 27L43 27L43 26L44 26L44 25L43 25L43 26L42 26L42 27L41 27L41 26L39 26L39 25L42 25L42 24L39 24L39 23L38 23L38 22ZM49 22L49 23L48 23L48 25L49 25L49 23L50 23L50 22ZM1 23L1 24L2 24L2 23ZM15 23L15 24L16 24L16 23ZM31 25L31 26L32 26L32 25ZM50 25L50 26L51 26L51 25ZM37 26L37 27L38 27L38 28L40 28L40 27L39 27L39 26ZM1 27L1 28L2 28L2 29L3 29L3 28L2 28L2 27ZM5 27L5 30L8 30L8 27ZM27 27L27 30L30 30L30 27ZM49 27L49 30L52 30L52 27ZM6 28L6 29L7 29L7 28ZM28 28L28 29L29 29L29 28ZM50 28L50 29L51 29L51 28ZM53 29L53 30L54 30L54 31L55 31L55 30L56 30L56 29L55 29L55 30L54 30L54 29ZM2 30L2 31L3 31L3 30ZM11 31L11 32L12 32L12 31ZM0 32L0 33L1 33L1 32ZM19 32L19 35L20 35L20 34L21 34L21 33L20 33L20 32ZM26 32L26 33L25 33L25 34L26 34L26 33L27 33L27 34L29 34L29 35L30 35L30 34L29 34L29 33L27 33L27 32ZM55 32L55 34L54 34L54 35L55 35L55 34L56 34L56 32ZM39 33L39 34L40 34L40 33ZM46 34L46 35L47 35L47 34ZM55 36L55 38L56 38L56 36ZM9 37L9 38L10 38L10 37ZM38 37L38 38L39 38L39 37ZM6 38L6 39L7 39L7 38ZM13 38L13 39L14 39L14 38ZM30 39L30 40L31 40L31 39ZM36 40L36 41L35 41L35 42L36 42L36 43L35 43L35 44L34 44L34 45L35 45L35 47L34 47L34 46L33 46L33 47L32 47L32 48L33 48L33 50L34 50L34 51L32 51L32 52L33 52L33 53L31 53L31 54L34 54L34 53L35 53L35 54L36 54L36 53L38 53L38 52L34 52L34 51L37 51L37 50L38 50L38 51L39 51L39 52L40 52L40 51L39 51L39 50L38 50L38 49L39 49L39 46L37 46L37 45L39 45L39 44L41 44L41 43L40 43L40 42L36 42L36 41L37 41L37 40ZM38 40L38 41L39 41L39 40ZM26 41L26 42L27 42L27 41ZM33 41L33 43L34 43L34 41ZM48 41L48 43L50 43L50 41ZM2 43L2 44L3 44L3 45L5 45L5 43L4 43L4 44L3 44L3 43ZM36 43L36 44L35 44L35 45L36 45L36 44L37 44L37 43ZM38 43L38 44L39 44L39 43ZM54 43L54 44L57 44L57 43ZM20 44L20 45L21 45L21 44ZM23 44L23 45L24 45L24 44ZM28 44L28 45L29 45L29 44ZM6 45L6 46L7 46L7 45ZM56 45L56 46L57 46L57 45ZM1 46L1 47L2 47L2 46ZM3 46L3 47L5 47L5 46ZM12 46L12 47L13 47L13 46ZM27 46L27 47L28 47L28 46ZM33 47L33 48L34 48L34 50L37 50L37 49L38 49L38 47L37 47L37 49L35 49L35 48L36 48L36 47L35 47L35 48L34 48L34 47ZM53 48L53 49L54 49L54 48ZM15 49L15 50L16 50L16 49ZM25 49L25 53L26 53L26 49ZM27 49L27 52L30 52L30 49ZM49 49L49 52L52 52L52 49ZM28 50L28 51L29 51L29 50ZM45 50L45 53L46 53L46 50ZM50 50L50 51L51 51L51 50ZM13 54L13 55L14 55L14 54ZM19 54L19 55L20 55L20 54ZM42 54L42 55L43 55L43 54ZM37 55L37 56L38 56L38 55ZM52 55L52 56L49 56L49 57L53 57L53 56L55 56L55 57L56 57L56 56L55 56L55 55ZM0 0L0 7L7 7L7 0ZM1 1L1 6L6 6L6 1ZM2 2L2 5L5 5L5 2ZM50 0L50 7L57 7L57 0ZM51 1L51 6L56 6L56 1ZM52 2L52 5L55 5L55 2ZM0 50L0 57L7 57L7 50ZM1 51L1 56L6 56L6 51ZM2 52L2 55L5 55L5 52Z" fill="#000000"/></g></g></svg>
