<?xml version="1.0" encoding="UTF-8"?>
<svg xmlns="http://www.w3.org/2000/svg" version="1.1" width="300" height="300" viewBox="0 0 300 300"><rect x="0" y="0" width="300" height="300" fill="#ffffff"/><g transform="scale(5.263)"><g transform="translate(0,0)"><path fill-rule="evenodd" d="M8 0L8 4L9 4L9 2L10 2L10 1L11 1L11 2L12 2L12 3L11 3L11 4L10 4L10 5L8 5L8 7L9 7L9 6L10 6L10 8L9 8L9 9L8 9L8 10L9 10L9 11L7 11L7 10L6 10L6 11L7 11L7 12L5 12L5 13L3 13L3 12L4 12L4 11L5 11L5 10L4 10L4 11L2 11L2 10L3 10L3 9L2 9L2 8L0 8L0 10L1 10L1 11L0 11L0 13L1 13L1 16L0 16L0 18L1 18L1 16L2 16L2 18L3 18L3 17L5 17L5 18L4 18L4 19L3 19L3 21L5 21L5 22L3 22L3 23L4 23L4 24L5 24L5 23L7 23L7 24L6 24L6 25L8 25L8 26L4 26L4 25L3 25L3 24L1 24L1 21L2 21L2 20L1 20L1 21L0 21L0 24L1 24L1 25L0 25L0 30L1 30L1 33L0 33L0 34L1 34L1 35L2 35L2 37L3 37L3 39L2 39L2 38L1 38L1 36L0 36L0 44L1 44L1 45L2 45L2 47L1 47L1 46L0 46L0 48L5 48L5 47L7 47L7 46L8 46L8 44L9 44L9 43L12 43L12 42L13 42L13 44L10 44L10 45L9 45L9 47L8 47L8 48L6 48L6 49L8 49L8 50L9 50L9 51L8 51L8 53L9 53L9 54L10 54L10 55L12 55L12 56L10 56L10 57L14 57L14 52L13 52L13 51L15 51L15 49L18 49L18 50L16 50L16 52L17 52L17 53L15 53L15 55L16 55L16 54L17 54L17 53L19 53L19 55L17 55L17 56L15 56L15 57L22 57L22 56L23 56L23 57L24 57L24 56L25 56L25 57L28 57L28 55L30 55L30 57L31 57L31 54L30 54L30 53L31 53L31 52L32 52L32 54L33 54L33 53L35 53L35 55L36 55L36 57L37 57L37 56L38 56L38 55L37 55L37 54L36 54L36 53L37 53L37 51L38 51L38 54L39 54L39 55L43 55L43 56L44 56L44 57L45 57L45 56L47 56L47 55L48 55L48 53L49 53L49 56L48 56L48 57L49 57L49 56L50 56L50 57L51 57L51 56L52 56L52 57L54 57L54 56L53 56L53 55L55 55L55 54L57 54L57 53L55 53L55 54L54 54L54 52L53 52L53 49L54 49L54 51L55 51L55 52L56 52L56 49L57 49L57 47L56 47L56 49L54 49L54 48L53 48L53 47L52 47L52 45L56 45L56 42L57 42L57 40L54 40L54 41L56 41L56 42L55 42L55 44L53 44L53 43L54 43L54 42L52 42L52 40L53 40L53 39L52 39L52 40L51 40L51 39L50 39L50 38L51 38L51 37L53 37L53 38L54 38L54 39L57 39L57 38L56 38L56 37L57 37L57 35L56 35L56 33L57 33L57 31L56 31L56 30L57 30L57 27L56 27L56 26L57 26L57 25L56 25L56 26L55 26L55 25L54 25L54 26L52 26L52 24L53 24L53 23L55 23L55 24L57 24L57 23L55 23L55 21L54 21L54 20L53 20L53 19L52 19L52 15L51 15L51 14L52 14L52 11L51 11L51 9L52 9L52 10L53 10L53 11L55 11L55 12L54 12L54 13L53 13L53 15L54 15L54 14L55 14L55 16L53 16L53 17L56 17L56 18L55 18L55 20L57 20L57 19L56 19L56 18L57 18L57 16L56 16L56 13L57 13L57 12L56 12L56 10L57 10L57 8L53 8L53 9L52 9L52 8L51 8L51 9L50 9L50 12L51 12L51 13L50 13L50 15L51 15L51 16L50 16L50 18L51 18L51 19L50 19L50 20L51 20L51 21L50 21L50 22L49 22L49 21L48 21L48 20L49 20L49 19L47 19L47 21L48 21L48 23L49 23L49 24L48 24L48 25L47 25L47 26L48 26L48 30L47 30L47 31L46 31L46 30L45 30L45 31L44 31L44 30L43 30L43 29L42 29L42 28L41 28L41 27L43 27L43 25L41 25L41 26L40 26L40 24L44 24L44 26L46 26L46 24L45 24L45 23L44 23L44 22L46 22L46 23L47 23L47 22L46 22L46 21L45 21L45 19L42 19L42 20L41 20L41 18L43 18L43 17L44 17L44 18L45 18L45 17L47 17L47 18L49 18L49 17L48 17L48 15L49 15L49 12L47 12L47 11L48 11L48 10L49 10L49 6L48 6L48 9L47 9L47 8L46 8L46 7L47 7L47 5L48 5L48 0L46 0L46 1L44 1L44 0L42 0L42 1L41 1L41 0L38 0L38 1L37 1L37 0L35 0L35 2L34 2L34 4L33 4L33 5L32 5L32 2L33 2L33 1L34 1L34 0L33 0L33 1L32 1L32 0L26 0L26 2L27 2L27 3L28 3L28 4L26 4L26 3L25 3L25 2L23 2L23 1L25 1L25 0L23 0L23 1L22 1L22 2L23 2L23 3L21 3L21 0L20 0L20 1L18 1L18 0L17 0L17 1L16 1L16 0L12 0L12 1L11 1L11 0ZM14 1L14 2L13 2L13 3L14 3L14 5L12 5L12 4L11 4L11 5L10 5L10 6L11 6L11 7L12 7L12 6L13 6L13 7L14 7L14 8L13 8L13 9L12 9L12 8L11 8L11 9L9 9L9 10L10 10L10 12L8 12L8 14L9 14L9 15L6 15L6 14L7 14L7 13L5 13L5 15L6 15L6 16L5 16L5 17L6 17L6 18L7 18L7 19L6 19L6 20L7 20L7 19L10 19L10 18L11 18L11 20L10 20L10 21L8 21L8 22L7 22L7 21L6 21L6 22L7 22L7 23L8 23L8 25L9 25L9 27L10 27L10 26L11 26L11 27L12 27L12 28L9 28L9 29L10 29L10 30L11 30L11 29L12 29L12 28L13 28L13 30L12 30L12 31L14 31L14 33L13 33L13 32L12 32L12 34L11 34L11 36L12 36L12 37L13 37L13 36L15 36L15 32L16 32L16 35L17 35L17 36L16 36L16 37L15 37L15 38L12 38L12 39L11 39L11 37L10 37L10 36L9 36L9 35L10 35L10 33L11 33L11 32L10 32L10 31L9 31L9 32L10 32L10 33L9 33L9 35L6 35L6 36L9 36L9 37L10 37L10 39L11 39L11 40L12 40L12 41L10 41L10 40L9 40L9 39L8 39L8 38L7 38L7 37L6 37L6 38L4 38L4 39L3 39L3 41L2 41L2 40L1 40L1 41L2 41L2 42L3 42L3 43L1 43L1 44L3 44L3 47L5 47L5 46L7 46L7 45L5 45L5 46L4 46L4 44L7 44L7 43L5 43L5 42L7 42L7 41L8 41L8 43L9 43L9 42L12 42L12 41L13 41L13 40L14 40L14 44L13 44L13 45L12 45L12 48L13 48L13 46L14 46L14 45L15 45L15 43L16 43L16 44L17 44L17 45L16 45L16 46L17 46L17 47L18 47L18 48L19 48L19 50L20 50L20 49L21 49L21 51L20 51L20 52L19 52L19 51L18 51L18 52L19 52L19 53L20 53L20 52L22 52L22 53L24 53L24 54L25 54L25 53L26 53L26 55L25 55L25 56L27 56L27 55L28 55L28 53L26 53L26 51L25 51L25 50L24 50L24 49L26 49L26 48L25 48L25 47L24 47L24 49L23 49L23 47L22 47L22 46L24 46L24 45L28 45L28 46L29 46L29 48L30 48L30 47L32 47L32 46L29 46L29 45L32 45L32 44L33 44L33 42L35 42L35 43L36 43L36 44L37 44L37 43L38 43L38 44L40 44L40 45L41 45L41 47L40 47L40 49L41 49L41 47L42 47L42 49L43 49L43 50L42 50L42 51L40 51L40 50L39 50L39 51L40 51L40 54L41 54L41 53L43 53L43 51L44 51L44 49L43 49L43 47L44 47L44 45L43 45L43 47L42 47L42 44L43 44L43 43L44 43L44 40L45 40L45 39L46 39L46 42L45 42L45 44L47 44L47 45L45 45L45 49L46 49L46 50L45 50L45 53L46 53L46 54L45 54L45 55L44 55L44 54L43 54L43 55L44 55L44 56L45 56L45 55L47 55L47 53L48 53L48 52L46 52L46 50L47 50L47 49L48 49L48 46L49 46L49 44L50 44L50 47L49 47L49 48L50 48L50 47L51 47L51 45L52 45L52 42L50 42L50 41L48 41L48 39L49 39L49 40L50 40L50 39L49 39L49 38L50 38L50 37L48 37L48 36L46 36L46 35L47 35L47 33L49 33L49 34L50 34L50 35L51 35L51 34L50 34L50 31L49 31L49 32L45 32L45 33L46 33L46 34L45 34L45 36L46 36L46 37L43 37L43 35L44 35L44 31L42 31L42 29L41 29L41 28L40 28L40 26L38 26L38 21L39 21L39 20L37 20L37 21L36 21L36 22L35 22L35 20L36 20L36 18L35 18L35 16L34 16L34 17L32 17L32 15L31 15L31 14L32 14L32 11L33 11L33 15L36 15L36 14L38 14L38 13L34 13L34 12L35 12L35 11L36 11L36 12L37 12L37 11L38 11L38 8L40 8L40 14L41 14L41 15L39 15L39 17L42 17L42 16L43 16L43 15L42 15L42 14L41 14L41 11L43 11L43 10L44 10L44 12L43 12L43 13L44 13L44 12L46 12L46 11L47 11L47 9L46 9L46 8L45 8L45 9L44 9L44 8L43 8L43 7L44 7L44 6L43 6L43 7L42 7L42 5L38 5L38 4L40 4L40 3L39 3L39 2L37 2L37 3L35 3L35 4L34 4L34 6L33 6L33 7L32 7L32 5L31 5L31 7L32 7L32 8L34 8L34 9L33 9L33 10L32 10L32 9L31 9L31 10L30 10L30 11L26 11L26 13L27 13L27 14L26 14L26 16L25 16L25 15L24 15L24 17L27 17L27 18L24 18L24 20L22 20L22 21L21 21L21 22L20 22L20 23L19 23L19 22L18 22L18 24L20 24L20 25L21 25L21 26L20 26L20 27L21 27L21 28L20 28L20 29L19 29L19 28L18 28L18 29L16 29L16 27L18 27L18 25L17 25L17 22L16 22L16 23L14 23L14 21L12 21L12 20L13 20L13 19L14 19L14 20L15 20L15 21L17 21L17 20L15 20L15 18L17 18L17 19L19 19L19 21L20 21L20 17L19 17L19 18L18 18L18 17L16 17L16 16L15 16L15 15L16 15L16 14L17 14L17 13L18 13L18 12L19 12L19 14L18 14L18 15L17 15L17 16L18 16L18 15L20 15L20 16L21 16L21 17L23 17L23 13L25 13L25 10L23 10L23 9L24 9L24 8L25 8L25 9L26 9L26 6L25 6L25 7L24 7L24 6L23 6L23 7L24 7L24 8L22 8L22 10L19 10L19 9L21 9L21 8L19 8L19 9L18 9L18 8L17 8L17 9L16 9L16 10L17 10L17 9L18 9L18 11L17 11L17 12L16 12L16 11L15 11L15 12L14 12L14 11L13 11L13 12L11 12L11 11L12 11L12 10L13 10L13 9L14 9L14 10L15 10L15 9L14 9L14 8L15 8L15 7L16 7L16 6L17 6L17 7L18 7L18 6L17 6L17 5L20 5L20 6L19 6L19 7L20 7L20 6L21 6L21 7L22 7L22 5L21 5L21 3L19 3L19 2L18 2L18 1L17 1L17 2L15 2L15 1ZM27 1L27 2L28 2L28 3L29 3L29 1ZM30 1L30 2L32 2L32 1ZM40 1L40 2L41 2L41 1ZM42 1L42 3L41 3L41 4L43 4L43 2L44 2L44 1ZM46 1L46 2L47 2L47 1ZM16 3L16 4L17 4L17 3ZM23 3L23 5L24 5L24 4L25 4L25 3ZM37 3L37 4L38 4L38 3ZM44 3L44 4L45 4L45 3ZM46 3L46 5L45 5L45 7L46 7L46 5L47 5L47 3ZM35 4L35 5L36 5L36 9L35 9L35 10L36 10L36 9L37 9L37 6L38 6L38 7L39 7L39 6L38 6L38 5L36 5L36 4ZM14 5L14 7L15 7L15 6L16 6L16 5ZM27 5L27 8L30 8L30 5ZM28 6L28 7L29 7L29 6ZM34 6L34 7L35 7L35 6ZM40 6L40 7L41 7L41 6ZM4 8L4 9L7 9L7 8ZM1 9L1 10L2 10L2 9ZM11 9L11 10L12 10L12 9ZM28 9L28 10L29 10L29 9ZM41 9L41 10L43 10L43 9ZM45 9L45 11L46 11L46 9ZM53 9L53 10L54 10L54 9ZM33 10L33 11L34 11L34 10ZM1 11L1 13L2 13L2 15L4 15L4 14L3 14L3 13L2 13L2 11ZM19 11L19 12L20 12L20 15L21 15L21 16L22 16L22 15L21 15L21 13L23 13L23 12L22 12L22 11ZM30 11L30 12L31 12L31 11ZM55 12L55 13L56 13L56 12ZM9 13L9 14L11 14L11 15L12 15L12 16L11 16L11 17L12 17L12 16L13 16L13 14L14 14L14 15L15 15L15 14L16 14L16 13ZM28 13L28 15L27 15L27 17L28 17L28 18L29 18L29 19L31 19L31 20L29 20L29 21L28 21L28 20L27 20L27 22L26 22L26 23L25 23L25 22L24 22L24 21L25 21L25 20L24 20L24 21L22 21L22 23L21 23L21 25L22 25L22 24L23 24L23 26L21 26L21 27L22 27L22 28L23 28L23 29L24 29L24 31L25 31L25 29L26 29L26 31L27 31L27 33L25 33L25 32L23 32L23 33L20 33L20 32L18 32L18 31L19 31L19 29L18 29L18 30L16 30L16 29L14 29L14 30L15 30L15 31L16 31L16 32L17 32L17 34L19 34L19 36L17 36L17 37L18 37L18 38L19 38L19 37L22 37L22 38L23 38L23 37L24 37L24 38L26 38L26 40L24 40L24 39L22 39L22 40L21 40L21 38L20 38L20 39L18 39L18 40L17 40L17 38L16 38L16 39L14 39L14 40L15 40L15 41L17 41L17 42L16 42L16 43L18 43L18 42L19 42L19 44L18 44L18 45L17 45L17 46L19 46L19 44L20 44L20 47L21 47L21 45L24 45L24 44L22 44L22 43L20 43L20 42L21 42L21 41L22 41L22 42L24 42L24 43L25 43L25 42L26 42L26 41L27 41L27 40L28 40L28 41L30 41L30 42L31 42L31 41L32 41L32 42L33 42L33 41L34 41L34 40L35 40L35 41L38 41L38 42L40 42L40 43L41 43L41 44L42 44L42 43L43 43L43 41L39 41L39 39L40 39L40 36L39 36L39 34L40 34L40 35L41 35L41 34L42 34L42 35L43 35L43 32L42 32L42 31L41 31L41 29L40 29L40 28L38 28L38 26L35 26L35 27L33 27L33 26L32 26L32 25L30 25L30 22L31 22L31 23L32 23L32 22L33 22L33 23L34 23L34 21L33 21L33 20L32 20L32 17L29 17L29 16L31 16L31 15L30 15L30 13ZM46 13L46 15L45 15L45 14L44 14L44 15L45 15L45 16L47 16L47 13ZM9 15L9 17L8 17L8 16L6 16L6 17L7 17L7 18L9 18L9 17L10 17L10 15ZM37 15L37 16L38 16L38 15ZM41 15L41 16L42 16L42 15ZM14 16L14 17L13 17L13 18L12 18L12 19L13 19L13 18L15 18L15 16ZM21 18L21 19L22 19L22 18ZM39 18L39 19L40 19L40 18ZM34 19L34 20L35 20L35 19ZM31 20L31 22L32 22L32 20ZM40 20L40 23L43 23L43 22L41 22L41 20ZM52 20L52 21L51 21L51 22L50 22L50 23L52 23L52 22L53 22L53 20ZM11 21L11 22L10 22L10 23L13 23L13 22L12 22L12 21ZM27 22L27 24L28 24L28 25L29 25L29 24L28 24L28 23L29 23L29 22ZM23 23L23 24L24 24L24 23ZM36 23L36 24L35 24L35 25L37 25L37 23ZM9 24L9 25L10 25L10 24ZM11 24L11 25L12 25L12 24ZM14 24L14 25L13 25L13 26L12 26L12 27L13 27L13 28L14 28L14 26L16 26L16 24ZM49 24L49 26L50 26L50 25L51 25L51 24ZM1 25L1 27L2 27L2 25ZM3 26L3 28L4 28L4 26ZM54 26L54 29L53 29L53 33L52 33L52 31L51 31L51 33L52 33L52 36L53 36L53 37L54 37L54 36L55 36L55 37L56 37L56 36L55 36L55 35L54 35L54 34L53 34L53 33L54 33L54 32L55 32L55 33L56 33L56 32L55 32L55 30L56 30L56 29L55 29L55 28L56 28L56 27L55 27L55 26ZM5 27L5 30L8 30L8 27ZM23 27L23 28L24 28L24 29L25 29L25 28L26 28L26 27ZM27 27L27 30L30 30L30 27ZM31 27L31 29L32 29L32 30L33 30L33 32L34 32L34 33L33 33L33 34L34 34L34 35L32 35L32 34L30 34L30 35L29 35L29 33L30 33L30 32L28 32L28 35L26 35L26 34L25 34L25 35L24 35L24 36L28 36L28 37L26 37L26 38L27 38L27 39L28 39L28 38L30 38L30 39L29 39L29 40L30 40L30 41L31 41L31 40L30 40L30 39L32 39L32 40L33 40L33 39L35 39L35 40L36 40L36 39L37 39L37 40L38 40L38 39L39 39L39 38L38 38L38 37L39 37L39 36L37 36L37 34L38 34L38 32L40 32L40 34L41 34L41 32L40 32L40 31L38 31L38 29L36 29L36 30L37 30L37 31L38 31L38 32L37 32L37 34L36 34L36 33L35 33L35 28L34 28L34 29L32 29L32 27ZM36 27L36 28L37 28L37 27ZM49 27L49 30L52 30L52 27ZM6 28L6 29L7 29L7 28ZM28 28L28 29L29 29L29 28ZM44 28L44 29L46 29L46 28ZM50 28L50 29L51 29L51 28ZM1 29L1 30L2 30L2 33L1 33L1 34L2 34L2 35L3 35L3 37L5 37L5 36L4 36L4 35L5 35L5 34L8 34L8 33L6 33L6 32L8 32L8 31L6 31L6 32L5 32L5 31L4 31L4 30L2 30L2 29ZM20 29L20 30L22 30L22 31L23 31L23 30L22 30L22 29ZM54 29L54 30L55 30L55 29ZM3 31L3 32L4 32L4 33L2 33L2 34L4 34L4 33L5 33L5 32L4 32L4 31ZM31 31L31 33L32 33L32 31ZM19 33L19 34L20 34L20 36L21 36L21 35L23 35L23 34L20 34L20 33ZM13 34L13 35L14 35L14 34ZM35 34L35 37L36 37L36 38L37 38L37 39L38 39L38 38L37 38L37 36L36 36L36 34ZM28 35L28 36L29 36L29 35ZM22 36L22 37L23 37L23 36ZM30 36L30 37L31 37L31 36ZM32 36L32 39L33 39L33 37L34 37L34 36ZM41 37L41 38L43 38L43 37ZM6 38L6 39L7 39L7 38ZM47 38L47 39L48 39L48 38ZM41 39L41 40L44 40L44 39ZM5 40L5 41L4 41L4 42L5 42L5 41L7 41L7 40ZM19 40L19 41L21 41L21 40ZM22 40L22 41L23 41L23 40ZM46 42L46 43L48 43L48 44L49 44L49 43L50 43L50 42ZM26 43L26 44L31 44L31 43ZM34 44L34 46L33 46L33 49L32 49L32 48L31 48L31 49L32 49L32 52L33 52L33 51L35 51L35 49L36 49L36 51L37 51L37 49L36 49L36 47L37 47L37 48L39 48L39 47L38 47L38 45L37 45L37 46L36 46L36 45L35 45L35 44ZM10 46L10 48L9 48L9 49L11 49L11 46ZM34 46L34 47L35 47L35 46ZM15 47L15 48L16 48L16 47ZM27 47L27 48L28 48L28 47ZM46 47L46 48L47 48L47 47ZM21 48L21 49L22 49L22 50L23 50L23 49L22 49L22 48ZM27 49L27 52L30 52L30 49ZM33 49L33 50L34 50L34 49ZM49 49L49 52L52 52L52 49ZM11 50L11 51L10 51L10 52L9 52L9 53L10 53L10 54L11 54L11 53L12 53L12 55L13 55L13 53L12 53L12 50ZM28 50L28 51L29 51L29 50ZM50 50L50 51L51 51L51 50ZM22 51L22 52L24 52L24 53L25 53L25 51ZM10 52L10 53L11 53L11 52ZM52 53L52 54L51 54L51 55L50 55L50 56L51 56L51 55L52 55L52 54L53 54L53 53ZM20 54L20 55L19 55L19 56L22 56L22 55L23 55L23 56L24 56L24 55L23 55L23 54ZM8 55L8 57L9 57L9 55ZM34 56L34 57L35 57L35 56ZM39 56L39 57L40 57L40 56ZM41 56L41 57L42 57L42 56ZM56 56L56 57L57 57L57 56ZM0 0L0 7L7 7L7 0ZM1 1L1 6L6 6L6 1ZM2 2L2 5L5 5L5 2ZM50 0L50 7L57 7L57 0ZM51 1L51 6L56 6L56 1ZM52 2L52 5L55 5L55 2ZM0 50L0 57L7 57L7 50ZM1 51L1 56L6 56L6 51ZM2 52L2 55L5 55L5 52Z" fill="#000000"/></g></g></svg>
