<?xml version="1.0" encoding="UTF-8"?>
<svg xmlns="http://www.w3.org/2000/svg" version="1.1" width="300" height="300" viewBox="0 0 300 300"><rect x="0" y="0" width="300" height="300" fill="#ffffff"/><g transform="scale(5.263)"><g transform="translate(0,0)"><path fill-rule="evenodd" d="M9 0L9 1L8 1L8 2L9 2L9 3L8 3L8 4L9 4L9 5L8 5L8 7L9 7L9 8L6 8L6 9L8 9L8 11L7 11L7 10L5 10L5 8L0 8L0 10L1 10L1 9L2 9L2 11L1 11L1 12L0 12L0 18L1 18L1 19L0 19L0 20L1 20L1 21L2 21L2 23L3 23L3 24L1 24L1 23L0 23L0 24L1 24L1 26L0 26L0 27L2 27L2 26L4 26L4 30L2 30L2 29L3 29L3 28L2 28L2 29L1 29L1 28L0 28L0 29L1 29L1 30L2 30L2 31L0 31L0 32L1 32L1 33L0 33L0 34L2 34L2 35L0 35L0 39L1 39L1 41L0 41L0 42L1 42L1 43L3 43L3 44L2 44L2 47L1 47L1 45L0 45L0 48L5 48L5 47L7 47L7 48L6 48L6 49L8 49L8 51L9 51L9 49L10 49L10 50L12 50L12 48L13 48L13 49L14 49L14 48L15 48L15 47L16 47L16 48L17 48L17 50L16 50L16 51L15 51L15 53L12 53L12 51L10 51L10 53L11 53L11 54L9 54L9 52L8 52L8 57L11 57L11 56L12 56L12 57L15 57L15 56L13 56L13 55L14 55L14 54L15 54L15 55L16 55L16 56L17 56L17 57L19 57L19 56L18 56L18 55L20 55L20 54L18 54L18 55L17 55L17 53L20 53L20 46L19 46L19 45L21 45L21 48L23 48L23 50L25 50L25 49L26 49L26 52L25 52L25 51L24 51L24 53L22 53L22 54L24 54L24 53L26 53L26 56L25 56L25 57L26 57L26 56L27 56L27 57L29 57L29 56L30 56L30 57L37 57L37 56L38 56L38 55L39 55L39 56L40 56L40 55L39 55L39 54L38 54L38 53L39 53L39 51L40 51L40 52L41 52L41 54L42 54L42 55L43 55L43 57L44 57L44 55L43 55L43 54L45 54L45 53L46 53L46 52L48 52L48 54L46 54L46 55L45 55L45 56L46 56L46 57L50 57L50 55L51 55L51 54L50 54L50 53L53 53L53 52L54 52L54 54L53 54L53 55L52 55L52 56L54 56L54 57L56 57L56 56L55 56L55 53L57 53L57 51L56 51L56 50L57 50L57 48L55 48L55 47L56 47L56 45L55 45L55 46L53 46L53 47L52 47L52 48L51 48L51 47L50 47L50 46L51 46L51 44L48 44L48 43L50 43L50 40L51 40L51 41L52 41L52 39L53 39L53 40L55 40L55 39L57 39L57 35L56 35L56 38L51 38L51 37L53 37L53 36L54 36L54 37L55 37L55 35L53 35L53 34L51 34L51 33L52 33L52 31L54 31L54 32L53 32L53 33L54 33L54 34L57 34L57 33L54 33L54 32L56 32L56 30L57 30L57 29L56 29L56 30L55 30L55 31L54 31L54 30L53 30L53 28L56 28L56 26L57 26L57 23L54 23L54 22L57 22L57 21L54 21L54 20L57 20L57 19L56 19L56 18L55 18L55 17L57 17L57 15L56 15L56 14L55 14L55 11L56 11L56 12L57 12L57 11L56 11L56 10L57 10L57 9L56 9L56 8L55 8L55 9L54 9L54 8L53 8L53 9L52 9L52 8L51 8L51 10L49 10L49 9L50 9L50 8L49 8L49 9L48 9L48 7L49 7L49 6L48 6L48 7L47 7L47 5L48 5L48 0L39 0L39 1L40 1L40 2L39 2L39 3L40 3L40 2L41 2L41 3L42 3L42 4L41 4L41 5L38 5L38 4L37 4L37 2L38 2L38 0L37 0L37 2L36 2L36 0L35 0L35 5L36 5L36 4L37 4L37 5L38 5L38 7L37 7L37 6L36 6L36 7L35 7L35 6L34 6L34 8L36 8L36 9L35 9L35 10L34 10L34 9L33 9L33 12L35 12L35 14L34 14L34 13L32 13L32 11L31 11L31 10L32 10L32 9L31 9L31 8L32 8L32 7L33 7L33 4L34 4L34 1L33 1L33 0L32 0L32 1L31 1L31 0L30 0L30 1L29 1L29 2L28 2L28 1L26 1L26 0L21 0L21 1L20 1L20 0L19 0L19 1L18 1L18 0L17 0L17 1L15 1L15 0L14 0L14 1L13 1L13 0L11 0L11 1L10 1L10 0ZM11 1L11 2L13 2L13 3L12 3L12 4L11 4L11 3L10 3L10 5L9 5L9 7L10 7L10 8L9 8L9 10L10 10L10 11L9 11L9 12L7 12L7 11L6 11L6 12L5 12L5 15L6 15L6 16L3 16L3 17L4 17L4 18L2 18L2 17L1 17L1 18L2 18L2 19L1 19L1 20L2 20L2 19L3 19L3 20L4 20L4 18L5 18L5 19L6 19L6 20L8 20L8 21L3 21L3 22L4 22L4 24L3 24L3 25L6 25L6 26L7 26L7 25L6 25L6 24L7 24L7 23L6 23L6 22L8 22L8 25L10 25L10 26L9 26L9 30L10 30L10 32L9 32L9 31L4 31L4 32L3 32L3 31L2 31L2 32L3 32L3 36L4 36L4 38L5 38L5 39L4 39L4 40L3 40L3 38L2 38L2 36L1 36L1 38L2 38L2 41L1 41L1 42L4 42L4 41L5 41L5 43L4 43L4 44L3 44L3 45L4 45L4 46L3 46L3 47L5 47L5 46L8 46L8 49L9 49L9 48L10 48L10 49L11 49L11 46L10 46L10 45L13 45L13 46L12 46L12 47L13 47L13 46L14 46L14 45L16 45L16 47L18 47L18 48L19 48L19 46L17 46L17 45L18 45L18 44L17 44L17 43L18 43L18 42L21 42L21 43L22 43L22 42L23 42L23 44L24 44L24 45L25 45L25 46L23 46L23 45L22 45L22 44L21 44L21 45L22 45L22 47L24 47L24 49L25 49L25 48L27 48L27 47L26 47L26 45L28 45L28 47L29 47L29 45L28 45L28 44L29 44L29 43L30 43L30 45L31 45L31 46L33 46L33 48L31 48L31 49L33 49L33 50L35 50L35 51L33 51L33 52L32 52L32 50L31 50L31 52L32 52L32 53L33 53L33 54L32 54L32 55L31 55L31 53L30 53L30 54L29 54L29 53L28 53L28 54L27 54L27 56L28 56L28 55L30 55L30 56L34 56L34 55L35 55L35 56L37 56L37 55L38 55L38 54L35 54L35 53L33 53L33 52L35 52L35 51L36 51L36 52L37 52L37 51L36 51L36 50L35 50L35 49L36 49L36 48L37 48L37 47L36 47L36 48L34 48L34 47L35 47L35 46L36 46L36 45L34 45L34 43L37 43L37 46L41 46L41 47L38 47L38 48L39 48L39 49L37 49L37 50L40 50L40 51L43 51L43 53L45 53L45 52L44 52L44 50L47 50L47 51L48 51L48 50L47 50L47 49L48 49L48 48L50 48L50 47L49 47L49 45L48 45L48 44L47 44L47 43L48 43L48 42L47 42L47 41L48 41L48 40L49 40L49 39L51 39L51 38L50 38L50 37L48 37L48 36L49 36L49 34L50 34L50 36L51 36L51 34L50 34L50 33L51 33L51 32L50 32L50 31L47 31L47 28L48 28L48 27L45 27L45 26L47 26L47 25L48 25L48 24L47 24L47 23L46 23L46 22L48 22L48 23L49 23L49 26L53 26L53 27L54 27L54 25L55 25L55 26L56 26L56 25L55 25L55 24L54 24L54 23L53 23L53 24L50 24L50 23L51 23L51 22L52 22L52 21L53 21L53 22L54 22L54 21L53 21L53 20L52 20L52 19L53 19L53 18L54 18L54 17L55 17L55 16L54 16L54 15L55 15L55 14L54 14L54 12L52 12L52 13L50 13L50 11L49 11L49 13L50 13L50 14L49 14L49 15L48 15L48 14L47 14L47 13L46 13L46 12L47 12L47 11L48 11L48 9L45 9L45 8L47 8L47 7L46 7L46 6L45 6L45 5L47 5L47 3L46 3L46 4L45 4L45 3L43 3L43 2L44 2L44 1L41 1L41 2L42 2L42 3L43 3L43 4L45 4L45 5L43 5L43 7L44 7L44 6L45 6L45 8L42 8L42 6L41 6L41 8L40 8L40 6L39 6L39 7L38 7L38 8L37 8L37 7L36 7L36 8L37 8L37 9L38 9L38 10L39 10L39 8L40 8L40 9L41 9L41 8L42 8L42 9L43 9L43 10L40 10L40 11L39 11L39 12L38 12L38 11L37 11L37 10L35 10L35 11L36 11L36 12L37 12L37 13L36 13L36 14L35 14L35 16L33 16L33 15L34 15L34 14L33 14L33 15L31 15L31 16L32 16L32 18L33 18L33 19L34 19L34 18L35 18L35 20L34 20L34 21L33 21L33 20L32 20L32 19L31 19L31 18L30 18L30 17L29 17L29 18L30 18L30 19L29 19L29 20L27 20L27 19L28 19L28 18L27 18L27 17L28 17L28 16L30 16L30 14L31 14L31 11L30 11L30 10L29 10L29 9L25 9L25 8L26 8L26 4L29 4L29 3L30 3L30 2L31 2L31 1L30 1L30 2L29 2L29 3L28 3L28 2L23 2L23 1L21 1L21 2L22 2L22 3L19 3L19 2L20 2L20 1L19 1L19 2L17 2L17 3L15 3L15 1L14 1L14 2L13 2L13 1ZM45 1L45 2L47 2L47 1ZM13 3L13 4L14 4L14 7L15 7L15 9L16 9L16 7L17 7L17 9L19 9L19 10L18 10L18 11L17 11L17 10L14 10L14 8L12 8L12 7L13 7L13 5L11 5L11 6L10 6L10 7L11 7L11 8L10 8L10 9L11 9L11 10L13 10L13 11L10 11L10 13L9 13L9 17L10 17L10 20L11 20L11 21L12 21L12 20L11 20L11 19L12 19L12 18L14 18L14 16L15 16L15 17L19 17L19 18L15 18L15 19L16 19L16 20L15 20L15 21L16 21L16 22L15 22L15 23L16 23L16 24L17 24L17 25L19 25L19 24L18 24L18 23L20 23L20 22L18 22L18 23L17 23L17 21L20 21L20 19L21 19L21 18L20 18L20 17L21 17L21 16L22 16L22 15L21 15L21 16L20 16L20 17L19 17L19 15L20 15L20 13L19 13L19 12L22 12L22 13L21 13L21 14L22 14L22 13L24 13L24 15L23 15L23 16L24 16L24 17L23 17L23 18L24 18L24 21L23 21L23 22L24 22L24 21L25 21L25 22L26 22L26 23L25 23L25 24L28 24L28 22L30 22L30 23L32 23L32 22L33 22L33 23L34 23L34 24L31 24L31 25L30 25L30 24L29 24L29 25L24 25L24 23L23 23L23 29L24 29L24 30L23 30L23 31L24 31L24 32L23 32L23 33L24 33L24 34L23 34L23 35L24 35L24 36L23 36L23 37L24 37L24 38L21 38L21 37L19 37L19 36L18 36L18 37L17 37L17 38L18 38L18 37L19 37L19 38L20 38L20 39L18 39L18 40L16 40L16 39L14 39L14 38L16 38L16 37L14 37L14 35L15 35L15 36L17 36L17 35L21 35L21 36L22 36L22 35L21 35L21 34L20 34L20 32L22 32L22 31L20 31L20 28L21 28L21 29L22 29L22 28L21 28L21 27L22 27L22 25L21 25L21 24L20 24L20 25L21 25L21 27L20 27L20 26L19 26L19 29L18 29L18 28L17 28L17 29L18 29L18 31L20 31L20 32L18 32L18 33L19 33L19 34L17 34L17 35L15 35L15 33L16 33L16 32L15 32L15 29L16 29L16 27L18 27L18 26L15 26L15 24L14 24L14 23L13 23L13 22L14 22L14 21L13 21L13 22L12 22L12 23L11 23L11 22L10 22L10 21L9 21L9 24L10 24L10 25L14 25L14 27L15 27L15 28L14 28L14 29L13 29L13 27L12 27L12 26L10 26L10 28L11 28L11 29L10 29L10 30L12 30L12 31L11 31L11 32L10 32L10 33L11 33L11 32L12 32L12 34L14 34L14 35L13 35L13 38L11 38L11 37L12 37L12 36L10 36L10 34L9 34L9 36L10 36L10 38L11 38L11 39L10 39L10 40L11 40L11 39L14 39L14 40L12 40L12 42L10 42L10 41L9 41L9 42L8 42L8 39L9 39L9 37L8 37L8 36L5 36L5 35L8 35L8 34L4 34L4 36L5 36L5 37L8 37L8 39L7 39L7 38L6 38L6 39L5 39L5 41L7 41L7 42L6 42L6 43L5 43L5 45L8 45L8 44L10 44L10 43L11 43L11 44L12 44L12 42L14 42L14 44L16 44L16 45L17 45L17 44L16 44L16 43L17 43L17 42L18 42L18 41L21 41L21 40L23 40L23 42L25 42L25 39L27 39L27 41L26 41L26 42L27 42L27 43L25 43L25 44L27 44L27 43L28 43L28 42L27 42L27 41L28 41L28 39L27 39L27 38L28 38L28 37L27 37L27 36L26 36L26 35L28 35L28 34L27 34L27 31L34 31L34 32L35 32L35 33L36 33L36 34L38 34L38 33L37 33L37 32L36 32L36 31L35 31L35 30L34 30L34 29L35 29L35 28L36 28L36 30L37 30L37 31L38 31L38 32L41 32L41 33L39 33L39 35L40 35L40 36L39 36L39 38L38 38L38 39L37 39L37 37L38 37L38 36L36 36L36 35L35 35L35 34L34 34L34 33L33 33L33 35L32 35L32 32L30 32L30 33L29 33L29 32L28 32L28 33L29 33L29 34L30 34L30 35L29 35L29 38L30 38L30 39L31 39L31 40L30 40L30 41L29 41L29 42L30 42L30 43L31 43L31 42L32 42L32 41L31 41L31 40L32 40L32 39L33 39L33 40L34 40L34 39L35 39L35 40L36 40L36 42L37 42L37 43L39 43L39 44L38 44L38 45L39 45L39 44L41 44L41 43L42 43L42 42L43 42L43 41L44 41L44 43L43 43L43 44L42 44L42 45L41 45L41 46L43 46L43 47L44 47L44 46L43 46L43 45L44 45L44 44L46 44L46 45L47 45L47 44L46 44L46 43L47 43L47 42L45 42L45 41L44 41L44 40L45 40L45 39L46 39L46 41L47 41L47 40L48 40L48 38L47 38L47 39L46 39L46 38L45 38L45 37L46 37L46 36L48 36L48 35L46 35L46 34L45 34L45 33L44 33L44 31L43 31L43 32L41 32L41 31L42 31L42 30L45 30L45 29L42 29L42 30L40 30L40 29L39 29L39 28L40 28L40 27L39 27L39 26L38 26L38 25L39 25L39 24L41 24L41 23L42 23L42 24L43 24L43 25L40 25L40 26L42 26L42 28L45 28L45 27L44 27L44 26L45 26L45 25L47 25L47 24L45 24L45 25L44 25L44 24L43 24L43 23L45 23L45 22L46 22L46 20L47 20L47 21L48 21L48 22L49 22L49 23L50 23L50 21L51 21L51 18L50 18L50 15L51 15L51 16L53 16L53 13L52 13L52 15L51 15L51 14L50 14L50 15L49 15L49 17L47 17L47 18L50 18L50 19L49 19L49 21L48 21L48 20L47 20L47 19L46 19L46 20L45 20L45 19L44 19L44 18L45 18L45 17L44 17L44 18L43 18L43 16L42 16L42 15L44 15L44 16L45 16L45 15L44 15L44 14L45 14L45 13L44 13L44 12L45 12L45 11L46 11L46 10L45 10L45 9L44 9L44 10L43 10L43 11L41 11L41 13L39 13L39 14L38 14L38 13L37 13L37 14L36 14L36 16L35 16L35 18L36 18L36 20L35 20L35 21L37 21L37 22L35 22L35 23L34 23L34 22L33 22L33 21L32 21L32 20L31 20L31 19L30 19L30 20L29 20L29 21L27 21L27 20L26 20L26 18L25 18L25 16L26 16L26 17L27 17L27 16L28 16L28 12L30 12L30 11L28 11L28 10L27 10L27 11L28 11L28 12L27 12L27 16L26 16L26 14L25 14L25 13L24 13L24 12L26 12L26 10L25 10L25 9L24 9L24 8L25 8L25 4L26 4L26 3L23 3L23 4L24 4L24 5L23 5L23 6L22 6L22 7L21 7L21 5L22 5L22 4L19 4L19 3L17 3L17 4L19 4L19 5L18 5L18 7L17 7L17 6L16 6L16 7L15 7L15 5L16 5L16 4L14 4L14 3ZM31 3L31 5L32 5L32 4L33 4L33 3ZM19 5L19 7L20 7L20 5ZM27 5L27 8L30 8L30 5ZM11 6L11 7L12 7L12 6ZM23 6L23 7L22 7L22 8L21 8L21 9L20 9L20 10L19 10L19 11L22 11L22 10L23 10L23 12L24 12L24 10L23 10L23 8L24 8L24 6ZM28 6L28 7L29 7L29 6ZM31 6L31 7L32 7L32 6ZM11 8L11 9L12 9L12 8ZM21 9L21 10L22 10L22 9ZM53 9L53 11L55 11L55 10L56 10L56 9L55 9L55 10L54 10L54 9ZM3 10L3 12L4 12L4 11L5 11L5 10ZM51 10L51 11L52 11L52 10ZM13 11L13 12L12 12L12 14L10 14L10 15L11 15L11 16L14 16L14 15L16 15L16 14L17 14L17 15L18 15L18 14L17 14L17 13L18 13L18 12L17 12L17 11L16 11L16 13L13 13L13 12L14 12L14 11ZM43 11L43 12L42 12L42 13L43 13L43 14L44 14L44 13L43 13L43 12L44 12L44 11ZM1 12L1 13L2 13L2 14L3 14L3 15L4 15L4 14L3 14L3 13L2 13L2 12ZM6 12L6 13L7 13L7 12ZM29 13L29 14L30 14L30 13ZM6 14L6 15L7 15L7 16L6 16L6 17L5 17L5 18L6 18L6 19L8 19L8 20L9 20L9 18L8 18L8 14ZM12 14L12 15L14 15L14 14ZM37 14L37 16L39 16L39 17L38 17L38 18L37 18L37 19L38 19L38 18L39 18L39 20L38 20L38 22L39 22L39 23L41 23L41 22L40 22L40 21L43 21L43 22L42 22L42 23L43 23L43 22L45 22L45 20L44 20L44 21L43 21L43 20L42 20L42 19L43 19L43 18L42 18L42 16L39 16L39 15L38 15L38 14ZM40 14L40 15L42 15L42 14ZM1 15L1 16L2 16L2 15ZM6 17L6 18L7 18L7 17ZM11 17L11 18L12 18L12 17ZM33 17L33 18L34 18L34 17ZM40 17L40 18L41 18L41 19L40 19L40 20L39 20L39 21L40 21L40 20L41 20L41 19L42 19L42 18L41 18L41 17ZM52 17L52 18L53 18L53 17ZM19 18L19 19L17 19L17 20L16 20L16 21L17 21L17 20L19 20L19 19L20 19L20 18ZM13 19L13 20L14 20L14 19ZM25 20L25 21L26 21L26 20ZM21 21L21 23L22 23L22 21ZM5 23L5 24L6 24L6 23ZM12 23L12 24L13 24L13 23ZM37 23L37 25L38 25L38 23ZM34 24L34 26L33 26L33 28L32 28L32 27L31 27L31 30L33 30L33 29L34 29L34 28L35 28L35 27L36 27L36 28L37 28L37 27L38 27L38 28L39 28L39 27L38 27L38 26L36 26L36 25L35 25L35 24ZM53 24L53 25L54 25L54 24ZM31 25L31 26L32 26L32 25ZM43 25L43 26L44 26L44 25ZM25 26L25 27L26 27L26 26ZM34 26L34 27L35 27L35 26ZM5 27L5 30L8 30L8 27ZM11 27L11 28L12 28L12 27ZM27 27L27 30L30 30L30 27ZM49 27L49 30L52 30L52 27ZM6 28L6 29L7 29L7 28ZM24 28L24 29L26 29L26 28ZM28 28L28 29L29 29L29 28ZM50 28L50 29L51 29L51 28ZM38 29L38 31L39 31L39 29ZM13 30L13 33L14 33L14 30ZM16 30L16 31L17 31L17 30ZM24 30L24 31L25 31L25 30ZM6 32L6 33L8 33L8 32ZM24 32L24 33L25 33L25 34L24 34L24 35L26 35L26 32ZM47 33L47 34L49 34L49 33ZM40 34L40 35L41 35L41 36L40 36L40 38L41 38L41 39L42 39L42 41L43 41L43 39L42 39L42 38L41 38L41 37L42 37L42 36L44 36L44 37L45 37L45 35L42 35L42 34ZM31 35L31 36L32 36L32 38L33 38L33 39L34 39L34 38L35 38L35 39L36 39L36 40L37 40L37 39L36 39L36 37L35 37L35 36L34 36L34 37L33 37L33 36L32 36L32 35ZM25 36L25 38L26 38L26 36ZM30 37L30 38L31 38L31 37ZM6 39L6 40L7 40L7 39ZM23 39L23 40L24 40L24 39ZM39 39L39 40L38 40L38 42L39 42L39 40L40 40L40 41L41 41L41 40L40 40L40 39ZM14 40L14 42L17 42L17 41L16 41L16 40ZM33 41L33 43L34 43L34 41ZM54 41L54 42L53 42L53 43L52 43L52 44L56 44L56 43L55 43L55 42L57 42L57 41ZM7 42L7 43L6 43L6 44L8 44L8 42ZM19 43L19 44L20 44L20 43ZM31 44L31 45L32 45L32 44ZM9 46L9 47L10 47L10 46ZM45 47L45 48L46 48L46 49L47 49L47 48L48 48L48 47L47 47L47 48L46 48L46 47ZM33 48L33 49L34 49L34 48ZM41 48L41 49L40 49L40 50L44 50L44 48ZM53 48L53 51L55 51L55 50L54 50L54 48ZM21 49L21 50L22 50L22 49ZM27 49L27 52L30 52L30 49ZM49 49L49 52L52 52L52 49ZM28 50L28 51L29 51L29 50ZM50 50L50 51L51 51L51 50ZM13 51L13 52L14 52L14 51ZM16 51L16 53L15 53L15 54L16 54L16 53L17 53L17 52L18 52L18 51ZM12 54L12 55L13 55L13 54ZM33 54L33 55L34 55L34 54ZM49 54L49 55L46 55L46 56L49 56L49 55L50 55L50 54ZM9 55L9 56L10 56L10 55ZM23 55L23 56L24 56L24 55ZM20 56L20 57L21 57L21 56ZM0 0L0 7L7 7L7 0ZM1 1L1 6L6 6L6 1ZM2 2L2 5L5 5L5 2ZM50 0L50 7L57 7L57 0ZM51 1L51 6L56 6L56 1ZM52 2L52 5L55 5L55 2ZM0 50L0 57L7 57L7 50ZM1 51L1 56L6 56L6 51ZM2 52L2 55L5 55L5 52Z" fill="#000000"/></g></g></svg>
