<?xml version="1.0" encoding="UTF-8"?>
<svg xmlns="http://www.w3.org/2000/svg" version="1.1" width="300" height="300" viewBox="0 0 300 300"><rect x="0" y="0" width="300" height="300" fill="#ffffff"/><g transform="scale(5.263)"><g transform="translate(0,0)"><path fill-rule="evenodd" d="M9 0L9 1L8 1L8 3L9 3L9 4L8 4L8 8L6 8L6 9L7 9L7 10L6 10L6 11L7 11L7 12L5 12L5 11L3 11L3 9L4 9L4 8L3 8L3 9L2 9L2 8L0 8L0 9L1 9L1 13L0 13L0 16L1 16L1 17L2 17L2 18L3 18L3 19L2 19L2 20L1 20L1 19L0 19L0 21L2 21L2 22L1 22L1 23L0 23L0 24L2 24L2 25L0 25L0 26L1 26L1 28L2 28L2 29L3 29L3 30L1 30L1 29L0 29L0 31L3 31L3 32L4 32L4 31L7 31L7 32L5 32L5 33L7 33L7 32L8 32L8 31L9 31L9 35L7 35L7 34L4 34L4 33L3 33L3 36L2 36L2 32L0 32L0 34L1 34L1 36L0 36L0 37L1 37L1 40L2 40L2 41L3 41L3 40L4 40L4 42L3 42L3 43L1 43L1 42L0 42L0 45L2 45L2 47L1 47L1 46L0 46L0 48L5 48L5 47L7 47L7 46L5 46L5 47L3 47L3 46L4 46L4 42L5 42L5 39L9 39L9 40L6 40L6 41L7 41L7 42L6 42L6 43L5 43L5 44L6 44L6 45L8 45L8 46L10 46L10 44L11 44L11 45L13 45L13 46L15 46L15 47L14 47L14 48L17 48L17 49L16 49L16 50L17 50L17 51L18 51L18 52L17 52L17 53L16 53L16 54L17 54L17 55L21 55L21 53L22 53L22 56L21 56L21 57L26 57L26 56L27 56L27 57L33 57L33 56L31 56L31 55L33 55L33 53L34 53L34 51L33 51L33 52L32 52L32 54L31 54L31 50L32 50L32 49L33 49L33 48L32 48L32 46L28 46L28 47L31 47L31 48L27 48L27 47L25 47L25 46L26 46L26 45L25 45L25 46L23 46L23 47L25 47L25 49L26 49L26 50L25 50L25 52L24 52L24 53L22 53L22 51L23 51L23 50L24 50L24 49L23 49L23 48L22 48L22 42L21 42L21 41L22 41L22 40L23 40L23 42L24 42L24 39L25 39L25 42L26 42L26 43L25 43L25 44L27 44L27 45L28 45L28 44L27 44L27 42L26 42L26 41L27 41L27 40L28 40L28 41L30 41L30 42L29 42L29 44L30 44L30 45L32 45L32 44L33 44L33 45L34 45L34 44L35 44L35 42L34 42L34 39L35 39L35 41L38 41L38 42L41 42L41 44L40 44L40 45L39 45L39 46L40 46L40 47L39 47L39 49L41 49L41 48L42 48L42 47L43 47L43 49L46 49L46 50L47 50L47 54L44 54L44 53L45 53L45 51L44 51L44 50L41 50L41 56L39 56L39 55L38 55L38 56L36 56L36 55L35 55L35 56L36 56L36 57L42 57L42 53L43 53L43 54L44 54L44 55L43 55L43 57L44 57L44 56L45 56L45 57L48 57L48 56L46 56L46 55L47 55L47 54L48 54L48 55L49 55L49 56L50 56L50 55L51 55L51 56L52 56L52 57L56 57L56 56L52 56L52 55L53 55L53 54L54 54L54 51L55 51L55 54L56 54L56 55L57 55L57 51L56 51L56 50L55 50L55 49L57 49L57 46L56 46L56 47L55 47L55 46L54 46L54 47L55 47L55 49L54 49L54 48L52 48L52 47L53 47L53 46L52 46L52 47L51 47L51 46L50 46L50 47L48 47L48 44L49 44L49 45L50 45L50 44L53 44L53 43L51 43L51 42L52 42L52 41L53 41L53 40L52 40L52 39L51 39L51 40L50 40L50 38L51 38L51 36L53 36L53 37L52 37L52 38L53 38L53 39L54 39L54 38L55 38L55 40L54 40L54 41L56 41L56 42L55 42L55 44L54 44L54 45L55 45L55 44L56 44L56 45L57 45L57 44L56 44L56 43L57 43L57 40L56 40L56 39L57 39L57 36L56 36L56 35L57 35L57 34L56 34L56 33L57 33L57 30L55 30L55 31L56 31L56 33L55 33L55 32L54 32L54 33L53 33L53 32L52 32L52 31L54 31L54 30L53 30L53 27L55 27L55 28L56 28L56 29L57 29L57 27L55 27L55 26L54 26L54 25L53 25L53 24L54 24L54 23L57 23L57 18L55 18L55 19L56 19L56 22L54 22L54 23L53 23L53 20L54 20L54 19L53 19L53 20L52 20L52 19L50 19L50 18L53 18L53 17L54 17L54 15L56 15L56 16L55 16L55 17L57 17L57 15L56 15L56 14L57 14L57 13L56 13L56 12L54 12L54 11L53 11L53 10L54 10L54 9L56 9L56 8L54 8L54 9L53 9L53 8L50 8L50 9L53 9L53 10L52 10L52 12L51 12L51 10L50 10L50 12L51 12L51 14L48 14L48 15L47 15L47 16L49 16L49 17L50 17L50 18L48 18L48 17L47 17L47 18L45 18L45 16L44 16L44 18L45 18L45 19L43 19L43 18L42 18L42 17L41 17L41 18L40 18L40 16L41 16L41 15L39 15L39 17L37 17L37 16L38 16L38 15L37 15L37 14L38 14L38 13L37 13L37 12L35 12L35 11L39 11L39 14L41 14L41 12L42 12L42 13L43 13L43 14L42 14L42 16L43 16L43 15L44 15L44 13L46 13L46 14L45 14L45 15L46 15L46 14L47 14L47 12L48 12L48 13L49 13L49 12L48 12L48 11L49 11L49 10L48 10L48 11L47 11L47 12L45 12L45 11L46 11L46 10L45 10L45 9L46 9L46 7L47 7L47 5L48 5L48 0L46 0L46 1L47 1L47 2L46 2L46 3L45 3L45 2L42 2L42 1L45 1L45 0L41 0L41 1L40 1L40 0L36 0L36 1L40 1L40 2L42 2L42 3L41 3L41 5L39 5L39 4L38 4L38 3L39 3L39 2L35 2L35 0L32 0L32 1L34 1L34 2L35 2L35 3L37 3L37 4L36 4L36 5L34 5L34 4L32 4L32 5L31 5L31 4L24 4L24 5L23 5L23 4L21 4L21 6L20 6L20 5L19 5L19 6L18 6L18 5L17 5L17 6L16 6L16 7L15 7L15 6L14 6L14 7L13 7L13 6L12 6L12 5L14 5L14 4L10 4L10 3L9 3L9 1L10 1L10 2L11 2L11 1L13 1L13 0L11 0L11 1L10 1L10 0ZM15 0L15 1L14 1L14 3L15 3L15 1L18 1L18 2L19 2L19 1L18 1L18 0ZM20 0L20 1L21 1L21 2L20 2L20 3L19 3L19 4L20 4L20 3L21 3L21 2L23 2L23 3L25 3L25 2L23 2L23 1L27 1L27 2L28 2L28 1L29 1L29 0L22 0L22 1L21 1L21 0ZM30 0L30 2L29 2L29 3L33 3L33 2L31 2L31 0ZM12 2L12 3L13 3L13 2ZM16 2L16 3L17 3L17 2ZM43 3L43 4L45 4L45 3ZM46 3L46 5L47 5L47 3ZM9 4L9 5L10 5L10 4ZM37 4L37 5L36 5L36 6L35 6L35 7L34 7L34 6L33 6L33 7L32 7L32 6L31 6L31 7L32 7L32 8L31 8L31 9L29 9L29 11L28 11L28 12L29 12L29 13L28 13L28 16L29 16L29 17L30 17L30 18L28 18L28 19L26 19L26 20L25 20L25 17L27 17L27 15L26 15L26 14L27 14L27 12L26 12L26 11L27 11L27 10L28 10L28 9L25 9L25 8L26 8L26 6L25 6L25 5L24 5L24 6L23 6L23 5L22 5L22 6L21 6L21 8L23 8L23 9L22 9L22 10L23 10L23 12L22 12L22 13L23 13L23 15L22 15L22 17L23 17L23 19L24 19L24 20L25 20L25 22L24 22L24 21L23 21L23 22L22 22L22 23L21 23L21 24L19 24L19 25L17 25L17 24L18 24L18 22L19 22L19 23L20 23L20 22L21 22L21 20L22 20L22 18L21 18L21 19L20 19L20 18L18 18L18 19L17 19L17 21L18 21L18 22L17 22L17 24L16 24L16 19L14 19L14 18L17 18L17 17L18 17L18 16L19 16L19 17L21 17L21 15L20 15L20 14L21 14L21 11L18 11L18 9L17 9L17 8L14 8L14 9L12 9L12 8L11 8L11 7L12 7L12 6L11 6L11 7L10 7L10 6L9 6L9 8L8 8L8 11L9 11L9 12L10 12L10 11L11 11L11 13L12 13L12 11L11 11L11 10L10 10L10 9L12 9L12 10L13 10L13 11L14 11L14 13L13 13L13 14L12 14L12 15L11 15L11 14L10 14L10 16L9 16L9 15L8 15L8 14L7 14L7 13L6 13L6 14L5 14L5 12L4 12L4 14L3 14L3 15L4 15L4 16L2 16L2 14L1 14L1 16L2 16L2 17L3 17L3 18L4 18L4 19L3 19L3 20L4 20L4 21L3 21L3 22L2 22L2 24L3 24L3 26L2 26L2 28L3 28L3 29L4 29L4 24L8 24L8 21L9 21L9 26L10 26L10 27L9 27L9 28L13 28L13 29L9 29L9 31L11 31L11 32L10 32L10 33L11 33L11 32L12 32L12 34L11 34L11 35L9 35L9 36L12 36L12 38L11 38L11 37L10 37L10 38L9 38L9 39L10 39L10 42L12 42L12 43L11 43L11 44L13 44L13 42L15 42L15 43L14 43L14 44L15 44L15 46L16 46L16 47L17 47L17 46L19 46L19 47L18 47L18 48L19 48L19 47L20 47L20 50L19 50L19 49L17 49L17 50L19 50L19 51L20 51L20 50L21 50L21 51L22 51L22 50L21 50L21 47L20 47L20 46L21 46L21 43L18 43L18 42L19 42L19 41L21 41L21 40L22 40L22 39L21 39L21 40L20 40L20 38L19 38L19 41L16 41L16 42L15 42L15 41L14 41L14 40L13 40L13 42L12 42L12 41L11 41L11 39L13 39L13 38L14 38L14 39L15 39L15 36L17 36L17 35L18 35L18 36L19 36L19 37L20 37L20 35L21 35L21 36L22 36L22 35L21 35L21 33L19 33L19 34L20 34L20 35L18 35L18 34L17 34L17 33L18 33L18 32L19 32L19 30L20 30L20 29L21 29L21 31L20 31L20 32L23 32L23 34L24 34L24 35L23 35L23 36L24 36L24 35L27 35L27 36L29 36L29 35L30 35L30 36L34 36L34 37L32 37L32 39L31 39L31 40L33 40L33 39L34 39L34 37L36 37L36 35L37 35L37 34L38 34L38 36L37 36L37 37L38 37L38 38L35 38L35 39L37 39L37 40L38 40L38 38L39 38L39 39L40 39L40 41L42 41L42 42L44 42L44 40L43 40L43 39L42 39L42 40L41 40L41 38L43 38L43 37L44 37L44 36L45 36L45 34L47 34L47 35L48 35L48 36L46 36L46 37L45 37L45 38L46 38L46 39L47 39L47 40L46 40L46 43L47 43L47 44L48 44L48 42L47 42L47 41L49 41L49 42L51 42L51 41L52 41L52 40L51 40L51 41L50 41L50 40L48 40L48 39L49 39L49 37L50 37L50 36L49 36L49 35L50 35L50 34L51 34L51 35L52 35L52 34L53 34L53 33L52 33L52 32L50 32L50 34L47 34L47 33L46 33L46 31L47 31L47 32L49 32L49 31L47 31L47 29L48 29L48 27L47 27L47 28L46 28L46 31L45 31L45 30L44 30L44 28L43 28L43 27L44 27L44 25L43 25L43 24L44 24L44 23L47 23L47 24L45 24L45 27L46 27L46 25L47 25L47 24L48 24L48 26L51 26L51 25L50 25L50 24L49 24L49 22L50 22L50 23L51 23L51 24L52 24L52 21L51 21L51 20L50 20L50 19L48 19L48 18L47 18L47 19L45 19L45 20L43 20L43 19L42 19L42 20L43 20L43 21L41 21L41 22L40 22L40 20L41 20L41 19L40 19L40 18L38 18L38 20L39 20L39 21L37 21L37 22L36 22L36 20L37 20L37 19L35 19L35 18L36 18L36 17L35 17L35 16L37 16L37 15L36 15L36 14L34 14L34 13L35 13L35 12L33 12L33 11L34 11L34 10L36 10L36 9L34 9L34 10L33 10L33 8L36 8L36 6L37 6L37 8L38 8L38 9L37 9L37 10L39 10L39 11L40 11L40 12L41 12L41 11L42 11L42 12L43 12L43 11L44 11L44 10L43 10L43 8L44 8L44 9L45 9L45 8L44 8L44 6L45 6L45 7L46 7L46 6L45 6L45 5L44 5L44 6L43 6L43 5L42 5L42 6L41 6L41 7L40 7L40 6L39 6L39 5L38 5L38 4ZM27 5L27 8L30 8L30 5ZM17 6L17 7L18 7L18 6ZM19 6L19 7L20 7L20 6ZM22 6L22 7L23 7L23 8L24 8L24 7L25 7L25 6L24 6L24 7L23 7L23 6ZM28 6L28 7L29 7L29 6ZM38 6L38 8L39 8L39 9L41 9L41 10L42 10L42 9L41 9L41 8L42 8L42 7L43 7L43 6L42 6L42 7L41 7L41 8L39 8L39 6ZM48 6L48 9L49 9L49 6ZM9 8L9 9L10 9L10 8ZM15 9L15 12L16 12L16 14L15 14L15 15L14 15L14 16L12 16L12 17L11 17L11 16L10 16L10 17L9 17L9 19L8 19L8 18L6 18L6 17L7 17L7 16L8 16L8 15L7 15L7 14L6 14L6 15L5 15L5 14L4 14L4 15L5 15L5 17L4 17L4 18L5 18L5 21L8 21L8 20L9 20L9 19L11 19L11 20L10 20L10 21L11 21L11 20L12 20L12 19L13 19L13 20L14 20L14 19L13 19L13 18L12 18L12 17L16 17L16 16L15 16L15 15L16 15L16 14L17 14L17 15L19 15L19 14L17 14L17 12L18 12L18 13L19 13L19 12L18 12L18 11L17 11L17 12L16 12L16 9ZM19 9L19 10L21 10L21 9ZM9 10L9 11L10 11L10 10ZM25 10L25 11L26 11L26 10ZM31 10L31 11L29 11L29 12L31 12L31 11L33 11L33 10ZM56 10L56 11L57 11L57 10ZM2 11L2 12L3 12L3 11ZM23 12L23 13L24 13L24 12ZM25 12L25 13L26 13L26 12ZM32 12L32 13L30 13L30 14L29 14L29 16L30 16L30 17L32 17L32 19L29 19L29 20L28 20L28 21L26 21L26 22L25 22L25 23L23 23L23 24L21 24L21 25L22 25L22 27L23 27L23 26L24 26L24 24L25 24L25 23L26 23L26 22L27 22L27 24L26 24L26 25L25 25L25 27L26 27L26 28L25 28L25 29L26 29L26 30L24 30L24 32L25 32L25 34L26 34L26 32L27 32L27 31L28 31L28 32L29 32L29 33L32 33L32 34L30 34L30 35L32 35L32 34L34 34L34 36L35 36L35 34L36 34L36 33L38 33L38 32L37 32L37 31L38 31L38 30L39 30L39 29L40 29L40 28L35 28L35 29L36 29L36 30L37 30L37 31L35 31L35 32L33 32L33 33L32 33L32 32L31 32L31 30L32 30L32 29L33 29L33 31L34 31L34 26L35 26L35 27L37 27L37 26L38 26L38 27L39 27L39 26L38 26L38 23L39 23L39 25L40 25L40 27L41 27L41 26L42 26L42 24L43 24L43 23L44 23L44 21L43 21L43 22L42 22L42 24L40 24L40 23L39 23L39 22L37 22L37 23L35 23L35 22L34 22L34 21L35 21L35 20L34 20L34 15L32 15L32 16L30 16L30 15L31 15L31 14L32 14L32 13L33 13L33 12ZM53 12L53 13L54 13L54 12ZM52 14L52 15L53 15L53 14ZM6 15L6 16L7 16L7 15ZM23 15L23 17L24 17L24 15ZM25 15L25 16L26 16L26 15ZM50 16L50 17L51 17L51 16ZM52 16L52 17L53 17L53 16ZM10 17L10 18L11 18L11 17ZM6 19L6 20L8 20L8 19ZM18 19L18 21L19 21L19 22L20 22L20 20L19 20L19 19ZM31 20L31 21L28 21L28 22L30 22L30 23L32 23L32 22L33 22L33 24L32 24L32 25L30 25L30 24L29 24L29 23L28 23L28 24L29 24L29 26L32 26L32 25L34 25L34 22L33 22L33 20ZM46 20L46 21L47 21L47 23L48 23L48 21L47 21L47 20ZM12 21L12 23L15 23L15 22L13 22L13 21ZM3 22L3 24L4 24L4 23L5 23L5 22ZM6 22L6 23L7 23L7 22ZM10 23L10 24L11 24L11 27L13 27L13 26L14 26L14 28L16 28L16 29L18 29L18 28L19 28L19 27L20 27L20 28L21 28L21 27L20 27L20 26L19 26L19 27L17 27L17 25L16 25L16 27L15 27L15 24L14 24L14 25L13 25L13 26L12 26L12 24L11 24L11 23ZM55 24L55 25L56 25L56 26L57 26L57 25L56 25L56 24ZM5 25L5 26L8 26L8 25ZM26 25L26 26L28 26L28 25ZM35 25L35 26L36 26L36 25ZM52 25L52 26L53 26L53 25ZM5 27L5 30L8 30L8 27ZM27 27L27 30L30 30L30 27ZM31 27L31 28L32 28L32 27ZM49 27L49 30L52 30L52 27ZM6 28L6 29L7 29L7 28ZM23 28L23 29L24 29L24 28ZM28 28L28 29L29 29L29 28ZM42 28L42 29L41 29L41 30L42 30L42 31L41 31L41 32L40 32L40 33L42 33L42 31L43 31L43 32L45 32L45 31L44 31L44 30L42 30L42 29L43 29L43 28ZM50 28L50 29L51 29L51 28ZM13 29L13 31L12 31L12 30L11 30L11 31L12 31L12 32L14 32L14 33L15 33L15 32L16 32L16 33L17 33L17 32L16 32L16 31L17 31L17 30L14 30L14 29ZM3 30L3 31L4 31L4 30ZM14 31L14 32L15 32L15 31ZM25 31L25 32L26 32L26 31ZM35 32L35 33L34 33L34 34L35 34L35 33L36 33L36 32ZM43 33L43 34L42 34L42 35L40 35L40 34L39 34L39 38L40 38L40 37L43 37L43 35L44 35L44 33ZM54 33L54 34L55 34L55 35L54 35L54 37L55 37L55 38L56 38L56 37L55 37L55 35L56 35L56 34L55 34L55 33ZM12 34L12 36L13 36L13 37L14 37L14 36L15 36L15 35L17 35L17 34ZM27 34L27 35L29 35L29 34ZM4 35L4 36L5 36L5 38L7 38L7 37L8 37L8 36L7 36L7 35L6 35L6 36L5 36L5 35ZM13 35L13 36L14 36L14 35ZM1 36L1 37L2 37L2 38L3 38L3 39L4 39L4 38L3 38L3 37L2 37L2 36ZM6 36L6 37L7 37L7 36ZM48 36L48 37L46 37L46 38L47 38L47 39L48 39L48 37L49 37L49 36ZM17 37L17 39L16 39L16 40L18 40L18 37ZM21 37L21 38L22 38L22 37ZM24 37L24 38L23 38L23 39L24 39L24 38L25 38L25 39L26 39L26 40L27 40L27 39L26 39L26 38L27 38L27 37ZM29 37L29 39L28 39L28 40L29 40L29 39L30 39L30 38L31 38L31 37ZM10 38L10 39L11 39L11 38ZM31 41L31 43L30 43L30 44L31 44L31 43L32 43L32 41ZM8 42L8 43L9 43L9 44L10 44L10 43L9 43L9 42ZM16 42L16 43L15 43L15 44L17 44L17 45L19 45L19 44L17 44L17 42ZM33 42L33 43L34 43L34 42ZM6 43L6 44L7 44L7 43ZM36 43L36 46L34 46L34 50L36 50L36 51L35 51L35 53L36 53L36 54L39 54L39 53L40 53L40 51L39 51L39 50L38 50L38 46L37 46L37 43ZM43 43L43 44L44 44L44 45L42 45L42 44L41 44L41 45L40 45L40 46L44 46L44 45L45 45L45 46L47 46L47 45L46 45L46 44L44 44L44 43ZM49 43L49 44L50 44L50 43ZM2 44L2 45L3 45L3 44ZM23 44L23 45L24 45L24 44ZM11 46L11 47L8 47L8 51L9 51L9 53L8 53L8 54L9 54L9 55L8 55L8 57L9 57L9 55L10 55L10 57L11 57L11 55L10 55L10 54L9 54L9 53L11 53L11 54L14 54L14 55L15 55L15 51L14 51L14 49L12 49L12 48L13 48L13 47L12 47L12 46ZM36 46L36 47L37 47L37 46ZM11 47L11 48L12 48L12 47ZM45 47L45 48L46 48L46 49L48 49L48 48L47 48L47 47ZM50 47L50 48L51 48L51 47ZM6 48L6 49L7 49L7 48ZM9 48L9 49L10 49L10 51L12 51L12 50L11 50L11 49L10 49L10 48ZM31 48L31 49L32 49L32 48ZM35 48L35 49L36 49L36 48ZM27 49L27 52L30 52L30 49ZM49 49L49 52L52 52L52 49ZM28 50L28 51L29 51L29 50ZM50 50L50 51L51 51L51 50ZM13 51L13 53L14 53L14 51ZM36 51L36 52L37 52L37 51ZM11 52L11 53L12 53L12 52ZM19 52L19 53L20 53L20 52ZM38 52L38 53L39 53L39 52ZM43 52L43 53L44 53L44 52ZM25 53L25 54L23 54L23 56L24 56L24 55L25 55L25 56L26 56L26 55L27 55L27 54L29 54L29 55L28 55L28 56L30 56L30 55L31 55L31 54L29 54L29 53ZM50 53L50 54L53 54L53 53ZM12 55L12 57L16 57L16 56L13 56L13 55ZM17 56L17 57L19 57L19 56ZM0 0L0 7L7 7L7 0ZM1 1L1 6L6 6L6 1ZM2 2L2 5L5 5L5 2ZM50 0L50 7L57 7L57 0ZM51 1L51 6L56 6L56 1ZM52 2L52 5L55 5L55 2ZM0 50L0 57L7 57L7 50ZM1 51L1 56L6 56L6 51ZM2 52L2 55L5 55L5 52Z" fill="#000000"/></g></g></svg>
