<?xml version="1.0" encoding="UTF-8"?>
<svg xmlns="http://www.w3.org/2000/svg" version="1.1" width="300" height="300" viewBox="0 0 300 300"><rect x="0" y="0" width="300" height="300" fill="#ffffff"/><g transform="scale(5.263)"><g transform="translate(0,0)"><path fill-rule="evenodd" d="M9 0L9 1L8 1L8 2L9 2L9 3L8 3L8 4L10 4L10 5L8 5L8 7L9 7L9 8L6 8L6 9L5 9L5 8L0 8L0 11L2 11L2 12L1 12L1 14L2 14L2 15L3 15L3 16L1 16L1 15L0 15L0 16L1 16L1 17L0 17L0 20L2 20L2 19L1 19L1 18L3 18L3 17L4 17L4 19L3 19L3 22L4 22L4 23L3 23L3 24L2 24L2 27L1 27L1 25L0 25L0 29L1 29L1 31L2 31L2 32L1 32L1 34L2 34L2 35L4 35L4 36L3 36L3 41L4 41L4 38L5 38L5 37L7 37L7 36L8 36L8 37L9 37L9 39L10 39L10 40L11 40L11 39L12 39L12 38L14 38L14 39L15 39L15 40L16 40L16 39L15 39L15 38L16 38L16 37L14 37L14 36L16 36L16 35L17 35L17 34L18 34L18 33L19 33L19 35L18 35L18 37L17 37L17 39L19 39L19 40L17 40L17 41L21 41L21 42L22 42L22 43L20 43L20 42L18 42L18 43L17 43L17 42L16 42L16 43L15 43L15 41L14 41L14 43L13 43L13 41L12 41L12 42L11 42L11 45L10 45L10 46L8 46L8 47L7 47L7 46L6 46L6 45L9 45L9 44L10 44L10 41L9 41L9 40L8 40L8 38L6 38L6 39L5 39L5 40L6 40L6 41L5 41L5 42L6 42L6 43L4 43L4 42L2 42L2 43L3 43L3 44L1 44L1 43L0 43L0 44L1 44L1 46L0 46L0 48L5 48L5 47L7 47L7 48L6 48L6 49L7 49L7 48L8 48L8 51L9 51L9 52L8 52L8 57L10 57L10 55L11 55L11 54L12 54L12 53L14 53L14 52L15 52L15 53L16 53L16 54L14 54L14 55L13 55L13 56L11 56L11 57L16 57L16 56L17 56L17 57L20 57L20 56L19 56L19 55L20 55L20 54L19 54L19 53L20 53L20 51L21 51L21 52L22 52L22 51L23 51L23 52L24 52L24 53L21 53L21 54L22 54L22 55L21 55L21 56L22 56L22 55L23 55L23 57L24 57L24 55L23 55L23 54L24 54L24 53L25 53L25 56L26 56L26 54L27 54L27 53L28 53L28 54L30 54L30 53L32 53L32 52L31 52L31 51L34 51L34 50L33 50L33 49L34 49L34 48L35 48L35 51L39 51L39 52L41 52L41 51L42 51L42 50L43 50L43 51L44 51L44 50L45 50L45 49L44 49L44 46L45 46L45 48L46 48L46 49L47 49L47 48L48 48L48 52L47 52L47 54L46 54L46 55L44 55L44 56L43 56L43 55L42 55L42 56L41 56L41 55L40 55L40 56L39 56L39 57L40 57L40 56L41 56L41 57L44 57L44 56L45 56L45 57L48 57L48 55L49 55L49 54L48 54L48 53L51 53L51 54L53 54L53 53L56 53L56 52L55 52L55 51L56 51L56 50L57 50L57 47L56 47L56 46L55 46L55 47L54 47L54 44L55 44L55 45L57 45L57 43L56 43L56 42L57 42L57 41L55 41L55 39L57 39L57 36L56 36L56 38L54 38L54 36L55 36L55 35L56 35L56 34L57 34L57 33L56 33L56 32L55 32L55 30L57 30L57 28L56 28L56 26L55 26L55 25L57 25L57 23L55 23L55 22L57 22L57 20L56 20L56 19L54 19L54 20L53 20L53 21L52 21L52 23L51 23L51 22L50 22L50 21L51 21L51 20L52 20L52 19L51 19L51 18L52 18L52 16L53 16L53 18L54 18L54 16L55 16L55 18L57 18L57 17L56 17L56 16L55 16L55 15L56 15L56 14L57 14L57 11L56 11L56 8L55 8L55 9L54 9L54 8L53 8L53 9L52 9L52 8L51 8L51 10L50 10L50 8L49 8L49 9L48 9L48 7L49 7L49 6L48 6L48 7L47 7L47 5L48 5L48 0L45 0L45 1L47 1L47 2L45 2L45 4L44 4L44 3L43 3L43 2L44 2L44 1L43 1L43 0L42 0L42 1L41 1L41 0L40 0L40 2L39 2L39 1L38 1L38 0L36 0L36 2L35 2L35 1L33 1L33 0L32 0L32 1L33 1L33 2L35 2L35 3L34 3L34 4L36 4L36 5L35 5L35 6L34 6L34 5L32 5L32 7L31 7L31 4L32 4L32 2L31 2L31 0L29 0L29 2L28 2L28 3L27 3L27 4L26 4L26 3L25 3L25 2L26 2L26 0L23 0L23 1L22 1L22 0L21 0L21 1L20 1L20 0L19 0L19 1L18 1L18 2L17 2L17 1L16 1L16 2L15 2L15 3L18 3L18 4L19 4L19 5L20 5L20 7L19 7L19 6L18 6L18 7L17 7L17 6L16 6L16 7L15 7L15 5L16 5L16 4L14 4L14 2L12 2L12 3L11 3L11 2L9 2L9 1L10 1L10 0ZM11 0L11 1L15 1L15 0ZM19 1L19 2L18 2L18 3L19 3L19 4L23 4L23 5L21 5L21 7L22 7L22 6L23 6L23 8L20 8L20 10L19 10L19 9L18 9L18 8L17 8L17 7L16 7L16 8L17 8L17 9L15 9L15 7L14 7L14 5L12 5L12 4L13 4L13 3L12 3L12 4L11 4L11 3L10 3L10 4L11 4L11 5L10 5L10 6L9 6L9 7L10 7L10 6L11 6L11 7L12 7L12 8L11 8L11 9L10 9L10 8L9 8L9 9L6 9L6 10L5 10L5 11L6 11L6 12L7 12L7 13L6 13L6 14L7 14L7 13L8 13L8 12L9 12L9 14L8 14L8 15L6 15L6 16L7 16L7 17L5 17L5 15L4 15L4 17L5 17L5 19L4 19L4 22L5 22L5 19L6 19L6 20L7 20L7 21L6 21L6 22L7 22L7 21L8 21L8 20L9 20L9 21L10 21L10 20L9 20L9 19L6 19L6 18L10 18L10 17L12 17L12 18L11 18L11 19L12 19L12 21L11 21L11 23L10 23L10 22L9 22L9 24L10 24L10 25L9 25L9 27L10 27L10 26L11 26L11 27L12 27L12 28L10 28L10 29L9 29L9 30L10 30L10 32L12 32L12 34L9 34L9 31L6 31L6 32L4 32L4 31L3 31L3 29L2 29L2 28L4 28L4 27L2 27L2 28L1 28L1 29L2 29L2 31L3 31L3 32L2 32L2 34L4 34L4 35L5 35L5 36L4 36L4 37L5 37L5 36L7 36L7 35L8 35L8 36L9 36L9 37L11 37L11 38L10 38L10 39L11 39L11 38L12 38L12 36L9 36L9 35L12 35L12 34L14 34L14 35L13 35L13 36L14 36L14 35L16 35L16 34L17 34L17 33L16 33L16 32L18 32L18 31L19 31L19 30L18 30L18 29L20 29L20 30L22 30L22 31L20 31L20 32L19 32L19 33L20 33L20 35L19 35L19 37L18 37L18 38L19 38L19 39L20 39L20 38L19 38L19 37L21 37L21 38L22 38L22 39L21 39L21 41L23 41L23 43L25 43L25 44L26 44L26 45L25 45L25 48L26 48L26 46L27 46L27 45L28 45L28 46L29 46L29 47L27 47L27 48L29 48L29 47L30 47L30 48L31 48L31 49L33 49L33 48L34 48L34 47L35 47L35 46L37 46L37 47L36 47L36 48L37 48L37 47L38 47L38 46L39 46L39 47L40 47L40 48L38 48L38 50L39 50L39 49L40 49L40 50L41 50L41 49L43 49L43 50L44 50L44 49L43 49L43 48L41 48L41 40L43 40L43 38L41 38L41 37L44 37L44 41L45 41L45 43L44 43L44 42L42 42L42 43L43 43L43 44L42 44L42 45L43 45L43 46L44 46L44 45L45 45L45 46L47 46L47 47L46 47L46 48L47 48L47 47L48 47L48 48L49 48L49 47L48 47L48 46L49 46L49 43L48 43L48 41L49 41L49 42L50 42L50 44L51 44L51 45L52 45L52 46L53 46L53 45L52 45L52 44L54 44L54 43L55 43L55 42L53 42L53 41L52 41L52 44L51 44L51 42L50 42L50 39L51 39L51 40L53 40L53 37L51 37L51 38L49 38L49 39L48 39L48 36L49 36L49 35L51 35L51 36L52 36L52 34L53 34L53 33L55 33L55 32L54 32L54 31L53 31L53 32L51 32L51 34L49 34L49 33L50 33L50 31L47 31L47 28L48 28L48 26L47 26L47 25L49 25L49 26L51 26L51 25L52 25L52 26L53 26L53 28L54 28L54 29L56 29L56 28L54 28L54 25L55 25L55 24L53 24L53 23L52 23L52 24L50 24L50 23L49 23L49 24L47 24L47 23L46 23L46 24L45 24L45 23L44 23L44 22L43 22L43 24L44 24L44 25L43 25L43 26L44 26L44 27L45 27L45 28L43 28L43 27L42 27L42 26L40 26L40 25L41 25L41 23L42 23L42 22L41 22L41 21L43 21L43 20L44 20L44 21L45 21L45 22L48 22L48 21L49 21L49 19L50 19L50 20L51 20L51 19L50 19L50 18L51 18L51 17L49 17L49 16L52 16L52 15L51 15L51 14L53 14L53 13L54 13L54 12L53 12L53 11L55 11L55 10L54 10L54 9L53 9L53 11L51 11L51 13L50 13L50 14L48 14L48 13L49 13L49 12L50 12L50 11L49 11L49 10L48 10L48 11L49 11L49 12L48 12L48 13L47 13L47 11L45 11L45 10L47 10L47 7L46 7L46 6L45 6L45 8L43 8L43 7L44 7L44 5L43 5L43 7L42 7L42 6L41 6L41 3L42 3L42 2L43 2L43 1L42 1L42 2L40 2L40 3L38 3L38 5L36 5L36 6L35 6L35 7L36 7L36 8L34 8L34 6L33 6L33 7L32 7L32 8L31 8L31 9L32 9L32 10L28 10L28 9L26 9L26 10L24 10L24 9L25 9L25 8L26 8L26 4L25 4L25 8L24 8L24 6L23 6L23 5L24 5L24 4L23 4L23 2L25 2L25 1L23 1L23 2L22 2L22 3L21 3L21 2L20 2L20 1ZM19 2L19 3L20 3L20 2ZM30 2L30 3L28 3L28 4L31 4L31 2ZM46 3L46 4L45 4L45 5L47 5L47 3ZM11 5L11 6L12 6L12 7L13 7L13 6L12 6L12 5ZM27 5L27 8L30 8L30 5ZM38 5L38 8L36 8L36 9L35 9L35 10L34 10L34 9L33 9L33 14L34 14L34 15L32 15L32 14L30 14L30 13L29 13L29 14L28 14L28 13L27 13L27 12L30 12L30 11L28 11L28 10L26 10L26 11L27 11L27 12L25 12L25 11L24 11L24 10L23 10L23 9L24 9L24 8L23 8L23 9L22 9L22 11L19 11L19 10L18 10L18 9L17 9L17 10L18 10L18 11L16 11L16 10L14 10L14 8L12 8L12 10L10 10L10 9L9 9L9 10L6 10L6 11L7 11L7 12L8 12L8 11L9 11L9 12L10 12L10 13L11 13L11 14L13 14L13 13L15 13L15 14L16 14L16 15L17 15L17 16L15 16L15 15L14 15L14 16L15 16L15 17L14 17L14 18L15 18L15 19L16 19L16 18L15 18L15 17L17 17L17 18L19 18L19 20L18 20L18 19L17 19L17 21L16 21L16 20L15 20L15 21L16 21L16 22L14 22L14 21L13 21L13 23L11 23L11 24L13 24L13 25L14 25L14 24L15 24L15 25L17 25L17 27L18 27L18 25L19 25L19 23L20 23L20 22L18 22L18 21L20 21L20 20L21 20L21 19L22 19L22 20L23 20L23 19L22 19L22 18L24 18L24 21L21 21L21 23L23 23L23 24L24 24L24 23L23 23L23 22L24 22L24 21L25 21L25 22L26 22L26 23L25 23L25 24L27 24L27 23L28 23L28 22L29 22L29 23L30 23L30 22L31 22L31 23L32 23L32 21L31 21L31 20L33 20L33 22L34 22L34 24L31 24L31 25L30 25L30 24L29 24L29 25L30 25L30 26L28 26L28 25L27 25L27 26L26 26L26 29L23 29L23 33L21 33L21 34L22 34L22 36L21 36L21 35L20 35L20 36L21 36L21 37L22 37L22 38L23 38L23 39L22 39L22 40L23 40L23 39L24 39L24 40L25 40L25 37L26 37L26 39L27 39L27 41L26 41L26 42L27 42L27 41L31 41L31 42L29 42L29 43L26 43L26 44L28 44L28 45L29 45L29 43L31 43L31 44L30 44L30 45L32 45L32 46L33 46L33 45L32 45L32 43L31 43L31 42L32 42L32 41L31 41L31 40L32 40L32 39L33 39L33 40L34 40L34 39L35 39L35 38L34 38L34 36L35 36L35 37L37 37L37 39L38 39L38 40L39 40L39 38L40 38L40 39L41 39L41 38L40 38L40 37L39 37L39 38L38 38L38 37L37 37L37 34L38 34L38 33L39 33L39 32L37 32L37 31L36 31L36 29L37 29L37 30L38 30L38 29L39 29L39 31L41 31L41 33L40 33L40 35L39 35L39 36L41 36L41 35L42 35L42 36L43 36L43 35L42 35L42 34L43 34L43 33L42 33L42 32L45 32L45 33L44 33L44 34L45 34L45 35L44 35L44 36L45 36L45 35L46 35L46 37L47 37L47 35L49 35L49 34L48 34L48 33L49 33L49 32L48 32L48 33L47 33L47 32L45 32L45 29L44 29L44 31L43 31L43 28L41 28L41 27L40 27L40 28L41 28L41 30L40 30L40 29L39 29L39 26L37 26L37 24L38 24L38 25L39 25L39 24L40 24L40 22L37 22L37 23L36 23L36 24L35 24L35 22L36 22L36 21L37 21L37 20L38 20L38 21L39 21L39 20L40 20L40 18L38 18L38 17L39 17L39 16L41 16L41 15L42 15L42 18L41 18L41 19L42 19L42 18L43 18L43 17L44 17L44 15L43 15L43 13L44 13L44 14L45 14L45 13L46 13L46 12L45 12L45 13L44 13L44 12L43 12L43 11L42 11L42 10L44 10L44 9L43 9L43 8L42 8L42 9L40 9L40 11L39 11L39 10L38 10L38 8L39 8L39 5ZM28 6L28 7L29 7L29 6ZM36 6L36 7L37 7L37 6ZM40 6L40 7L41 7L41 6ZM45 8L45 9L46 9L46 8ZM3 9L3 10L2 10L2 11L3 11L3 13L2 13L2 14L3 14L3 13L4 13L4 14L5 14L5 12L4 12L4 9ZM12 10L12 11L11 11L11 13L12 13L12 12L14 12L14 11L13 11L13 10ZM15 11L15 13L16 13L16 14L17 14L17 13L18 13L18 12L17 12L17 13L16 13L16 11ZM37 11L37 15L38 15L38 16L37 16L37 17L38 17L38 16L39 16L39 15L38 15L38 14L39 14L39 13L42 13L42 12L39 12L39 11ZM19 12L19 13L20 13L20 14L21 14L21 15L20 15L20 19L21 19L21 17L23 17L23 16L24 16L24 17L25 17L25 19L26 19L26 20L25 20L25 21L27 21L27 22L28 22L28 21L29 21L29 20L31 20L31 18L30 18L30 19L29 19L29 20L28 20L28 18L27 18L27 17L28 17L28 16L31 16L31 15L30 15L30 14L29 14L29 15L28 15L28 16L27 16L27 15L26 15L26 16L24 16L24 15L25 15L25 14L27 14L27 13L25 13L25 14L23 14L23 13L24 13L24 12L23 12L23 13L22 13L22 12L21 12L21 13L20 13L20 12ZM31 12L31 13L32 13L32 12ZM34 12L34 14L36 14L36 13L35 13L35 12ZM38 12L38 13L39 13L39 12ZM55 12L55 14L56 14L56 12ZM21 13L21 14L22 14L22 15L21 15L21 16L22 16L22 15L23 15L23 14L22 14L22 13ZM9 14L9 16L8 16L8 17L10 17L10 14ZM18 14L18 16L19 16L19 14ZM40 14L40 15L41 15L41 14ZM11 15L11 16L12 16L12 15ZM34 15L34 16L32 16L32 17L34 17L34 18L33 18L33 20L34 20L34 22L35 22L35 20L37 20L37 19L38 19L38 18L37 18L37 19L35 19L35 20L34 20L34 18L36 18L36 17L34 17L34 16L35 16L35 15ZM45 15L45 17L47 17L47 18L45 18L45 19L46 19L46 20L45 20L45 21L46 21L46 20L47 20L47 21L48 21L48 20L47 20L47 18L49 18L49 17L47 17L47 16L49 16L49 15L47 15L47 16L46 16L46 15ZM12 18L12 19L13 19L13 20L14 20L14 19L13 19L13 18ZM54 20L54 21L56 21L56 20ZM0 21L0 22L2 22L2 21ZM17 22L17 24L18 24L18 22ZM0 23L0 24L1 24L1 23ZM4 23L4 24L3 24L3 26L4 26L4 25L5 25L5 24L7 24L7 23ZM15 23L15 24L16 24L16 23ZM38 23L38 24L39 24L39 23ZM20 24L20 25L22 25L22 26L21 26L21 27L20 27L20 26L19 26L19 28L21 28L21 29L22 29L22 28L21 28L21 27L22 27L22 26L23 26L23 27L24 27L24 26L25 26L25 25L22 25L22 24ZM34 24L34 26L33 26L33 27L34 27L34 28L31 28L31 29L33 29L33 30L31 30L31 31L30 31L30 32L29 32L29 31L27 31L27 32L25 32L25 31L24 31L24 32L25 32L25 34L28 34L28 35L30 35L30 34L29 34L29 33L30 33L30 32L31 32L31 33L34 33L34 34L35 34L35 32L36 32L36 31L35 31L35 32L34 32L34 31L33 31L33 30L35 30L35 28L38 28L38 27L37 27L37 26L35 26L35 24ZM46 24L46 25L47 25L47 24ZM49 24L49 25L50 25L50 24ZM6 25L6 26L8 26L8 25ZM11 25L11 26L12 26L12 25ZM31 25L31 26L32 26L32 25ZM13 26L13 28L15 28L15 29L11 29L11 30L13 30L13 31L12 31L12 32L13 32L13 33L14 33L14 34L15 34L15 32L16 32L16 31L14 31L14 30L15 30L15 29L18 29L18 28L16 28L16 27L15 27L15 26ZM34 26L34 27L35 27L35 26ZM45 26L45 27L47 27L47 26ZM5 27L5 30L8 30L8 27ZM27 27L27 30L30 30L30 27ZM49 27L49 30L52 30L52 27ZM6 28L6 29L7 29L7 28ZM28 28L28 29L29 29L29 28ZM50 28L50 29L51 29L51 28ZM32 31L32 32L33 32L33 31ZM6 32L6 33L7 33L7 32ZM27 32L27 33L29 33L29 32ZM36 33L36 34L37 34L37 33ZM41 33L41 34L42 34L42 33ZM45 33L45 34L46 34L46 35L47 35L47 33ZM6 34L6 35L7 35L7 34ZM8 34L8 35L9 35L9 34ZM23 34L23 36L22 36L22 37L23 37L23 38L24 38L24 37L23 37L23 36L26 36L26 37L28 37L28 38L27 38L27 39L28 39L28 40L29 40L29 38L30 38L30 37L31 37L31 38L33 38L33 39L34 39L34 38L33 38L33 36L32 36L32 34L31 34L31 36L26 36L26 35L24 35L24 34ZM0 35L0 36L1 36L1 37L2 37L2 36L1 36L1 35ZM35 35L35 36L36 36L36 35ZM53 35L53 36L54 36L54 35ZM31 36L31 37L32 37L32 36ZM0 38L0 41L2 41L2 40L1 40L1 39L2 39L2 38ZM45 38L45 39L47 39L47 38ZM51 38L51 39L52 39L52 38ZM6 39L6 40L7 40L7 41L6 41L6 42L7 42L7 43L6 43L6 44L5 44L5 45L6 45L6 44L9 44L9 43L8 43L8 42L9 42L9 41L8 41L8 40L7 40L7 39ZM30 39L30 40L31 40L31 39ZM35 40L35 41L36 41L36 42L35 42L35 43L34 43L34 41L33 41L33 43L34 43L34 45L35 45L35 43L37 43L37 44L36 44L36 45L38 45L38 43L39 43L39 44L40 44L40 43L39 43L39 42L40 42L40 41L39 41L39 42L38 42L38 41L37 41L37 40ZM45 40L45 41L46 41L46 40ZM7 41L7 42L8 42L8 41ZM24 41L24 42L25 42L25 41ZM37 42L37 43L38 43L38 42ZM46 42L46 43L45 43L45 45L46 45L46 44L47 44L47 42ZM16 43L16 44L15 44L15 45L13 45L13 44L12 44L12 46L13 46L13 47L11 47L11 46L10 46L10 48L9 48L9 47L8 47L8 48L9 48L9 49L10 49L10 50L11 50L11 51L10 51L10 52L11 52L11 51L12 51L12 52L14 52L14 49L15 49L15 51L16 51L16 53L17 53L17 55L18 55L18 53L17 53L17 51L20 51L20 50L22 50L22 49L23 49L23 48L22 48L22 49L20 49L20 48L19 48L19 47L21 47L21 45L22 45L22 47L23 47L23 45L24 45L24 44L23 44L23 45L22 45L22 44L20 44L20 43L19 43L19 45L20 45L20 46L17 46L17 45L18 45L18 44L17 44L17 43ZM3 44L3 45L4 45L4 44ZM16 44L16 45L15 45L15 46L16 46L16 47L13 47L13 48L15 48L15 49L16 49L16 48L17 48L17 50L20 50L20 49L19 49L19 48L17 48L17 46L16 46L16 45L17 45L17 44ZM43 44L43 45L44 45L44 44ZM1 46L1 47L2 47L2 46ZM3 46L3 47L5 47L5 46ZM30 46L30 47L31 47L31 46ZM50 46L50 47L51 47L51 46ZM32 47L32 48L33 48L33 47ZM55 47L55 48L54 48L54 49L53 49L53 51L55 51L55 50L54 50L54 49L56 49L56 47ZM10 48L10 49L11 49L11 50L12 50L12 51L13 51L13 50L12 50L12 48ZM27 49L27 52L30 52L30 49ZM36 49L36 50L37 50L37 49ZM49 49L49 52L52 52L52 49ZM23 50L23 51L25 51L25 53L26 53L26 50ZM28 50L28 51L29 51L29 50ZM50 50L50 51L51 51L51 50ZM34 52L34 53L33 53L33 54L34 54L34 56L30 56L30 55L29 55L29 56L30 56L30 57L38 57L38 56L37 56L37 55L39 55L39 54L44 54L44 52L42 52L42 53L39 53L39 54L38 54L38 52ZM34 53L34 54L35 54L35 55L37 55L37 53L36 53L36 54L35 54L35 53ZM9 54L9 55L10 55L10 54ZM31 54L31 55L32 55L32 54ZM47 54L47 55L46 55L46 56L47 56L47 55L48 55L48 54ZM54 54L54 55L52 55L52 56L53 56L53 57L54 57L54 56L55 56L55 57L56 57L56 56L55 56L55 54ZM14 55L14 56L16 56L16 55ZM27 55L27 57L28 57L28 55ZM49 56L49 57L51 57L51 56ZM0 0L0 7L7 7L7 0ZM1 1L1 6L6 6L6 1ZM2 2L2 5L5 5L5 2ZM50 0L50 7L57 7L57 0ZM51 1L51 6L56 6L56 1ZM52 2L52 5L55 5L55 2ZM0 50L0 57L7 57L7 50ZM1 51L1 56L6 56L6 51ZM2 52L2 55L5 55L5 52Z" fill="#000000"/></g></g></svg>
