<?xml version="1.0" encoding="UTF-8"?>
<svg xmlns="http://www.w3.org/2000/svg" version="1.1" width="300" height="300" viewBox="0 0 300 300"><rect x="0" y="0" width="300" height="300" fill="#ffffff"/><g transform="scale(5.263)"><g transform="translate(0,0)"><path fill-rule="evenodd" d="M10 0L10 1L11 1L11 0ZM13 0L13 2L11 2L11 3L8 3L8 4L9 4L9 5L8 5L8 7L9 7L9 8L6 8L6 9L5 9L5 8L0 8L0 10L3 10L3 11L1 11L1 12L0 12L0 13L1 13L1 14L0 14L0 15L1 15L1 16L2 16L2 17L1 17L1 18L0 18L0 20L1 20L1 18L3 18L3 20L5 20L5 21L7 21L7 22L6 22L6 23L8 23L8 24L9 24L9 26L5 26L5 25L7 25L7 24L5 24L5 25L1 25L1 27L0 27L0 31L2 31L2 32L0 32L0 34L1 34L1 37L0 37L0 40L1 40L1 41L2 41L2 42L1 42L1 44L2 44L2 45L0 45L0 48L5 48L5 47L7 47L7 48L6 48L6 49L8 49L8 51L9 51L9 52L8 52L8 57L9 57L9 56L12 56L12 57L15 57L15 56L12 56L12 54L13 54L13 55L14 55L14 54L15 54L15 55L16 55L16 56L17 56L17 57L21 57L21 56L17 56L17 54L18 54L18 55L20 55L20 54L18 54L18 53L20 53L20 52L22 52L22 51L21 51L21 50L22 50L22 49L21 49L21 48L22 48L22 47L23 47L23 46L24 46L24 47L27 47L27 48L26 48L26 49L25 49L25 48L24 48L24 49L23 49L23 51L25 51L25 50L26 50L26 52L24 52L24 53L22 53L22 54L21 54L21 55L23 55L23 57L24 57L24 55L23 55L23 54L24 54L24 53L28 53L28 54L30 54L30 53L32 53L32 54L31 54L31 55L32 55L32 54L33 54L33 53L37 53L37 54L34 54L34 56L30 56L30 55L25 55L25 56L27 56L27 57L28 57L28 56L30 56L30 57L37 57L37 55L38 55L38 57L40 57L40 56L42 56L42 57L44 57L44 56L45 56L45 55L46 55L46 54L45 54L45 53L41 53L41 54L40 54L40 53L39 53L39 54L38 54L38 52L39 52L39 50L38 50L38 48L39 48L39 47L42 47L42 48L43 48L43 49L42 49L42 50L41 50L41 49L40 49L40 50L41 50L41 51L40 51L40 52L45 52L45 51L44 51L44 50L45 50L45 49L44 49L44 48L46 48L46 47L47 47L47 48L48 48L48 50L46 50L46 51L47 51L47 52L48 52L48 53L47 53L47 54L48 54L48 55L47 55L47 56L48 56L48 57L49 57L49 56L50 56L50 55L51 55L51 57L52 57L52 55L51 55L51 54L50 54L50 55L49 55L49 54L48 54L48 53L53 53L53 56L55 56L55 57L56 57L56 56L55 56L55 55L54 55L54 54L55 54L55 53L56 53L56 52L55 52L55 51L56 51L56 50L57 50L57 49L56 49L56 46L57 46L57 45L56 45L56 44L57 44L57 43L56 43L56 42L55 42L55 41L54 41L54 40L55 40L55 39L57 39L57 35L56 35L56 34L57 34L57 31L56 31L56 30L57 30L57 28L56 28L56 26L57 26L57 23L55 23L55 22L57 22L57 21L56 21L56 18L55 18L55 19L54 19L54 16L55 16L55 14L53 14L53 13L52 13L52 16L53 16L53 17L52 17L52 18L53 18L53 19L52 19L52 20L55 20L55 21L54 21L54 22L53 22L53 21L51 21L51 22L53 22L53 24L55 24L55 25L54 25L54 27L53 27L53 26L52 26L52 25L51 25L51 26L50 26L50 25L47 25L47 24L46 24L46 25L47 25L47 28L48 28L48 29L47 29L47 30L48 30L48 31L46 31L46 30L45 30L45 31L46 31L46 32L45 32L45 33L44 33L44 32L41 32L41 31L40 31L40 32L38 32L38 31L39 31L39 30L40 30L40 29L39 29L39 27L37 27L37 26L38 26L38 25L39 25L39 26L40 26L40 24L41 24L41 25L42 25L42 26L41 26L41 27L40 27L40 28L41 28L41 30L43 30L43 31L44 31L44 30L43 30L43 29L42 29L42 28L45 28L45 29L46 29L46 26L45 26L45 25L44 25L44 24L43 24L43 23L42 23L42 22L43 22L43 21L44 21L44 22L45 22L45 21L46 21L46 20L47 20L47 21L48 21L48 22L46 22L46 23L48 23L48 24L50 24L50 19L51 19L51 18L50 18L50 17L48 17L48 16L49 16L49 15L50 15L50 16L51 16L51 14L49 14L49 13L51 13L51 12L50 12L50 11L51 11L51 10L49 10L49 9L50 9L50 8L49 8L49 9L47 9L47 8L48 8L48 7L49 7L49 6L48 6L48 7L47 7L47 5L48 5L48 0L41 0L41 2L38 2L38 3L41 3L41 4L40 4L40 5L38 5L38 4L37 4L37 1L38 1L38 0L36 0L36 1L35 1L35 4L36 4L36 5L37 5L37 6L36 6L36 7L35 7L35 5L34 5L34 8L36 8L36 9L35 9L35 10L34 10L34 9L33 9L33 12L35 12L35 15L34 15L34 14L33 14L33 15L31 15L31 14L30 14L30 13L29 13L29 14L30 14L30 16L33 16L33 15L34 15L34 16L36 16L36 18L34 18L34 17L32 17L32 19L31 19L31 17L29 17L29 16L28 16L28 14L27 14L27 16L26 16L26 14L25 14L25 13L26 13L26 11L25 11L25 10L26 10L26 9L27 9L27 12L28 12L28 11L29 11L29 12L30 12L30 11L29 11L29 10L32 10L32 9L31 9L31 8L32 8L32 7L33 7L33 6L32 6L32 5L31 5L31 4L32 4L32 2L30 2L30 1L32 1L32 0L27 0L27 1L29 1L29 2L28 2L28 3L27 3L27 4L26 4L26 3L25 3L25 2L26 2L26 0L23 0L23 1L25 1L25 2L23 2L23 4L24 4L24 5L21 5L21 4L19 4L19 2L17 2L17 1L18 1L18 0L17 0L17 1L15 1L15 0ZM21 0L21 1L20 1L20 2L21 2L21 3L22 3L22 2L21 2L21 1L22 1L22 0ZM39 0L39 1L40 1L40 0ZM8 1L8 2L9 2L9 1ZM33 1L33 2L34 2L34 1ZM42 1L42 2L41 2L41 3L43 3L43 2L44 2L44 4L45 4L45 5L47 5L47 3L46 3L46 4L45 4L45 2L47 2L47 1L45 1L45 2L44 2L44 1ZM14 2L14 3L13 3L13 4L11 4L11 8L9 8L9 9L8 9L8 10L7 10L7 9L6 9L6 10L7 10L7 11L6 11L6 12L8 12L8 14L7 14L7 13L5 13L5 10L4 10L4 15L3 15L3 14L1 14L1 15L3 15L3 16L4 16L4 17L3 17L3 18L5 18L5 19L6 19L6 20L7 20L7 21L8 21L8 20L7 20L7 19L6 19L6 18L7 18L7 17L8 17L8 18L10 18L10 21L11 21L11 20L12 20L12 24L11 24L11 22L9 22L9 23L10 23L10 24L11 24L11 25L10 25L10 27L9 27L9 28L10 28L10 30L9 30L9 31L8 31L8 32L7 32L7 31L5 31L5 32L4 32L4 28L3 28L3 26L2 26L2 28L1 28L1 30L2 30L2 31L3 31L3 33L1 33L1 34L2 34L2 35L4 35L4 33L5 33L5 34L7 34L7 35L6 35L6 36L7 36L7 37L6 37L6 38L7 38L7 39L4 39L4 38L5 38L5 37L4 37L4 38L1 38L1 39L3 39L3 40L5 40L5 41L4 41L4 42L3 42L3 45L2 45L2 46L1 46L1 47L2 47L2 46L3 46L3 47L5 47L5 46L7 46L7 47L9 47L9 48L10 48L10 49L11 49L11 51L10 51L10 50L9 50L9 51L10 51L10 52L11 52L11 53L9 53L9 55L10 55L10 54L12 54L12 51L13 51L13 52L15 52L15 51L17 51L17 52L16 52L16 53L15 53L15 54L16 54L16 53L18 53L18 51L17 51L17 50L19 50L19 49L16 49L16 48L15 48L15 51L14 51L14 48L13 48L13 47L15 47L15 46L16 46L16 47L17 47L17 48L18 48L18 46L17 46L17 45L18 45L18 44L17 44L17 43L18 43L18 42L17 42L17 41L16 41L16 42L15 42L15 43L14 43L14 42L12 42L12 41L13 41L13 40L12 40L12 39L11 39L11 38L13 38L13 39L16 39L16 40L18 40L18 39L20 39L20 38L18 38L18 37L17 37L17 36L15 36L15 35L14 35L14 34L13 34L13 35L14 35L14 36L11 36L11 35L12 35L12 33L13 33L13 32L12 32L12 31L13 31L13 30L12 30L12 31L10 31L10 30L11 30L11 29L13 29L13 28L14 28L14 27L13 27L13 26L15 26L15 27L16 27L16 26L17 26L17 25L18 25L18 27L17 27L17 28L15 28L15 31L16 31L16 32L14 32L14 33L16 33L16 34L17 34L17 33L18 33L18 35L19 35L19 37L21 37L21 38L22 38L22 37L23 37L23 38L24 38L24 37L23 37L23 36L26 36L26 37L25 37L25 38L26 38L26 39L25 39L25 40L24 40L24 39L22 39L22 40L21 40L21 41L19 41L19 42L21 42L21 43L19 43L19 45L20 45L20 47L19 47L19 48L20 48L20 47L21 47L21 45L22 45L22 46L23 46L23 45L24 45L24 43L23 43L23 45L22 45L22 44L21 44L21 43L22 43L22 42L21 42L21 41L23 41L23 40L24 40L24 41L25 41L25 43L28 43L28 44L26 44L26 45L25 45L25 46L27 46L27 47L28 47L28 48L30 48L30 47L29 47L29 46L30 46L30 45L31 45L31 47L32 47L32 49L31 49L31 52L32 52L32 53L33 53L33 52L34 52L34 50L35 50L35 52L38 52L38 50L35 50L35 48L34 48L34 47L36 47L36 48L37 48L37 47L36 47L36 45L35 45L35 44L37 44L37 45L38 45L38 46L39 46L39 45L40 45L40 46L42 46L42 47L44 47L44 45L46 45L46 46L47 46L47 47L48 47L48 48L49 48L49 47L55 47L55 46L56 46L56 45L55 45L55 44L56 44L56 43L55 43L55 44L54 44L54 46L53 46L53 43L52 43L52 42L54 42L54 41L53 41L53 40L54 40L54 39L55 39L55 38L56 38L56 35L55 35L55 33L56 33L56 32L55 32L55 33L54 33L54 32L53 32L53 31L54 31L54 30L55 30L55 28L53 28L53 31L51 31L51 32L52 32L52 33L50 33L50 32L49 32L49 31L48 31L48 32L46 32L46 34L44 34L44 33L43 33L43 35L44 35L44 37L43 37L43 38L39 38L39 37L42 37L42 36L39 36L39 33L38 33L38 32L37 32L37 31L38 31L38 30L39 30L39 29L38 29L38 28L37 28L37 27L36 27L36 28L37 28L37 29L35 29L35 27L34 27L34 26L37 26L37 25L38 25L38 24L40 24L40 23L41 23L41 24L42 24L42 23L41 23L41 20L44 20L44 21L45 21L45 20L46 20L46 19L45 19L45 20L44 20L44 17L45 17L45 18L47 18L47 17L46 17L46 16L45 16L45 15L47 15L47 14L48 14L48 15L49 15L49 14L48 14L48 13L49 13L49 11L48 11L48 10L47 10L47 9L45 9L45 8L44 8L44 6L43 6L43 5L42 5L42 4L41 4L41 5L40 5L40 6L39 6L39 7L38 7L38 6L37 6L37 7L36 7L36 8L39 8L39 9L38 9L38 10L37 10L37 11L39 11L39 12L38 12L38 14L37 14L37 15L36 15L36 16L37 16L37 17L38 17L38 18L36 18L36 19L35 19L35 20L34 20L34 21L33 21L33 19L34 19L34 18L33 18L33 19L32 19L32 21L33 21L33 22L30 22L30 21L29 21L29 20L31 20L31 19L30 19L30 18L29 18L29 20L28 20L28 18L27 18L27 17L28 17L28 16L27 16L27 17L26 17L26 16L23 16L23 15L24 15L24 14L23 14L23 13L24 13L24 12L25 12L25 11L24 11L24 10L23 10L23 9L25 9L25 8L26 8L26 4L25 4L25 8L24 8L24 6L23 6L23 7L22 7L22 6L21 6L21 8L20 8L20 10L19 10L19 9L18 9L18 6L19 6L19 7L20 7L20 5L19 5L19 4L18 4L18 5L17 5L17 2ZM28 3L28 4L29 4L29 3ZM30 3L30 4L31 4L31 3ZM33 3L33 4L34 4L34 3ZM13 4L13 5L12 5L12 7L13 7L13 6L14 6L14 8L11 8L11 9L10 9L10 11L11 11L11 12L12 12L12 11L11 11L11 9L13 9L13 11L14 11L14 12L13 12L13 13L10 13L10 12L9 12L9 11L8 11L8 12L9 12L9 13L10 13L10 15L11 15L11 16L10 16L10 17L11 17L11 19L13 19L13 20L14 20L14 19L13 19L13 17L14 17L14 18L15 18L15 17L14 17L14 16L16 16L16 14L15 14L15 15L13 15L13 13L17 13L17 14L18 14L18 15L17 15L17 16L18 16L18 17L17 17L17 18L16 18L16 19L15 19L15 21L16 21L16 22L14 22L14 21L13 21L13 22L14 22L14 23L13 23L13 25L15 25L15 23L16 23L16 24L18 24L18 25L19 25L19 23L20 23L20 22L19 22L19 23L17 23L17 21L20 21L20 19L22 19L22 18L24 18L24 19L25 19L25 20L24 20L24 21L21 21L21 22L24 22L24 21L25 21L25 22L26 22L26 23L25 23L25 24L24 24L24 23L23 23L23 24L24 24L24 25L22 25L22 26L21 26L21 27L20 27L20 26L19 26L19 29L18 29L18 28L17 28L17 29L18 29L18 31L20 31L20 32L18 32L18 33L21 33L21 34L22 34L22 35L21 35L21 37L22 37L22 35L25 35L25 33L26 33L26 32L24 32L24 30L26 30L26 31L30 31L30 33L29 33L29 32L28 32L28 33L29 33L29 34L30 34L30 35L29 35L29 39L30 39L30 40L28 40L28 39L26 39L26 40L28 40L28 41L29 41L29 44L28 44L28 45L29 45L29 44L31 44L31 45L32 45L32 44L31 44L31 42L32 42L32 41L31 41L31 40L32 40L32 39L33 39L33 40L34 40L34 39L35 39L35 40L36 40L36 41L37 41L37 42L35 42L35 43L37 43L37 44L38 44L38 43L39 43L39 44L41 44L41 45L42 45L42 46L43 46L43 45L44 45L44 40L43 40L43 39L42 39L42 40L41 40L41 41L40 41L40 42L38 42L38 41L37 41L37 40L36 40L36 39L37 39L37 38L38 38L38 40L39 40L39 38L38 38L38 35L37 35L37 34L38 34L38 33L37 33L37 32L35 32L35 31L34 31L34 32L35 32L35 33L37 33L37 34L36 34L36 35L35 35L35 34L34 34L34 33L33 33L33 35L32 35L32 34L31 34L31 33L32 33L32 32L33 32L33 29L34 29L34 28L33 28L33 26L34 26L34 24L35 24L35 25L37 25L37 24L38 24L38 23L36 23L36 24L35 24L35 23L34 23L34 22L33 22L33 23L34 23L34 24L31 24L31 23L30 23L30 22L29 22L29 23L28 23L28 24L27 24L27 22L28 22L28 21L25 21L25 20L26 20L26 19L27 19L27 18L26 18L26 17L21 17L21 16L22 16L22 15L23 15L23 14L22 14L22 13L23 13L23 10L22 10L22 9L21 9L21 10L22 10L22 11L19 11L19 10L18 10L18 9L17 9L17 8L16 8L16 7L17 7L17 6L16 6L16 7L15 7L15 6L14 6L14 5L16 5L16 4ZM9 5L9 7L10 7L10 5ZM27 5L27 8L30 8L30 5ZM41 5L41 6L40 6L40 8L41 8L41 11L43 11L43 10L44 10L44 12L42 12L42 13L39 13L39 14L38 14L38 15L37 15L37 16L38 16L38 17L40 17L40 16L41 16L41 14L43 14L43 13L44 13L44 12L45 12L45 11L47 11L47 13L48 13L48 11L47 11L47 10L44 10L44 8L43 8L43 6L42 6L42 5ZM28 6L28 7L29 7L29 6ZM31 6L31 7L32 7L32 6ZM41 6L41 8L42 8L42 6ZM45 6L45 7L46 7L46 6ZM14 8L14 9L16 9L16 11L18 11L18 10L17 10L17 9L16 9L16 8ZM51 8L51 9L52 9L52 12L54 12L54 13L55 13L55 12L57 12L57 11L53 11L53 9L54 9L54 10L57 10L57 9L56 9L56 8L55 8L55 9L54 9L54 8L53 8L53 9L52 9L52 8ZM28 9L28 10L29 10L29 9ZM39 9L39 11L40 11L40 9ZM35 10L35 11L36 11L36 10ZM31 11L31 13L32 13L32 11ZM2 12L2 13L3 13L3 12ZM17 12L17 13L18 13L18 12ZM19 12L19 13L20 13L20 16L21 16L21 15L22 15L22 14L21 14L21 13L22 13L22 12ZM56 13L56 14L57 14L57 13ZM5 14L5 15L7 15L7 16L6 16L6 17L7 17L7 16L8 16L8 17L9 17L9 16L8 16L8 15L7 15L7 14ZM11 14L11 15L12 15L12 16L11 16L11 17L12 17L12 16L13 16L13 15L12 15L12 14ZM38 15L38 16L40 16L40 15ZM42 15L42 17L41 17L41 18L42 18L42 19L43 19L43 17L44 17L44 16L43 16L43 15ZM53 15L53 16L54 16L54 15ZM56 16L56 17L57 17L57 16ZM18 17L18 18L17 18L17 19L16 19L16 21L17 21L17 20L18 20L18 18L19 18L19 19L20 19L20 18L21 18L21 17L20 17L20 18L19 18L19 17ZM25 18L25 19L26 19L26 18ZM38 18L38 20L35 20L35 21L37 21L37 22L38 22L38 20L39 20L39 19L40 19L40 20L41 20L41 19L40 19L40 18ZM49 18L49 19L47 19L47 20L48 20L48 21L49 21L49 19L50 19L50 18ZM0 21L0 24L2 24L2 23L3 23L3 24L4 24L4 23L5 23L5 22L4 22L4 21ZM1 22L1 23L2 23L2 22ZM21 23L21 24L20 24L20 25L21 25L21 24L22 24L22 23ZM29 23L29 24L28 24L28 25L27 25L27 24L25 24L25 26L24 26L24 27L26 27L26 26L28 26L28 25L29 25L29 24L30 24L30 25L31 25L31 26L32 26L32 25L31 25L31 24L30 24L30 23ZM51 23L51 24L52 24L52 23ZM11 25L11 26L12 26L12 25ZM55 25L55 26L56 26L56 25ZM22 26L22 27L21 27L21 28L20 28L20 30L22 30L22 31L21 31L21 33L23 33L23 30L24 30L24 29L26 29L26 28L24 28L24 29L23 29L23 26ZM42 26L42 27L45 27L45 26ZM5 27L5 30L8 30L8 27ZM10 27L10 28L12 28L12 27ZM27 27L27 30L30 30L30 27ZM49 27L49 30L52 30L52 27ZM2 28L2 29L3 29L3 28ZM6 28L6 29L7 29L7 28ZM21 28L21 29L22 29L22 28ZM28 28L28 29L29 29L29 28ZM31 28L31 29L33 29L33 28ZM50 28L50 29L51 29L51 28ZM37 29L37 30L38 30L38 29ZM16 30L16 31L17 31L17 30ZM31 30L31 32L32 32L32 30ZM9 31L9 32L8 32L8 34L10 34L10 35L8 35L8 37L9 37L9 36L10 36L10 38L11 38L11 36L10 36L10 35L11 35L11 33L9 33L9 32L10 32L10 31ZM5 32L5 33L7 33L7 32ZM16 32L16 33L17 33L17 32ZM40 32L40 33L41 33L41 32ZM47 33L47 34L46 34L46 35L45 35L45 36L46 36L46 35L47 35L47 36L48 36L48 39L49 39L49 40L48 40L48 42L46 42L46 41L47 41L47 40L46 40L46 39L47 39L47 38L46 38L46 39L45 39L45 38L44 38L44 39L45 39L45 40L46 40L46 41L45 41L45 42L46 42L46 43L47 43L47 44L46 44L46 45L47 45L47 46L48 46L48 47L49 47L49 46L50 46L50 45L47 45L47 44L48 44L48 43L49 43L49 44L51 44L51 45L52 45L52 43L49 43L49 40L50 40L50 41L51 41L51 39L49 39L49 38L52 38L52 37L53 37L53 39L54 39L54 38L55 38L55 37L54 37L54 36L55 36L55 35L52 35L52 34L51 34L51 36L48 36L48 33ZM49 33L49 35L50 35L50 33ZM53 33L53 34L54 34L54 33ZM19 34L19 35L20 35L20 34ZM26 34L26 35L28 35L28 34ZM33 35L33 36L30 36L30 38L36 38L36 37L35 37L35 35ZM36 35L36 36L37 36L37 35ZM14 36L14 37L13 37L13 38L14 38L14 37L15 37L15 38L16 38L16 37L15 37L15 36ZM51 36L51 37L52 37L52 36ZM26 37L26 38L28 38L28 37ZM8 38L8 39L7 39L7 40L6 40L6 41L5 41L5 43L4 43L4 44L5 44L5 45L7 45L7 44L8 44L8 45L9 45L9 46L10 46L10 44L11 44L11 47L10 47L10 48L11 48L11 49L12 49L12 48L11 48L11 47L13 47L13 46L15 46L15 45L13 45L13 44L14 44L14 43L12 43L12 44L11 44L11 43L10 43L10 42L9 42L9 41L12 41L12 40L11 40L11 39L9 39L9 38ZM8 40L8 41L6 41L6 42L7 42L7 43L6 43L6 44L7 44L7 43L8 43L8 41L9 41L9 40ZM14 40L14 41L15 41L15 40ZM42 40L42 41L43 41L43 40ZM26 41L26 42L27 42L27 41ZM30 41L30 42L31 42L31 41ZM33 41L33 44L34 44L34 41ZM37 42L37 43L38 43L38 42ZM41 42L41 43L43 43L43 42ZM9 43L9 44L10 44L10 43ZM20 44L20 45L21 45L21 44ZM32 46L32 47L34 47L34 46ZM33 48L33 50L32 50L32 51L33 51L33 50L34 50L34 48ZM53 48L53 49L55 49L55 50L56 50L56 49L55 49L55 48ZM20 49L20 50L21 50L21 49ZM27 49L27 52L30 52L30 49ZM49 49L49 52L52 52L52 49ZM28 50L28 51L29 51L29 50ZM42 50L42 51L43 51L43 50ZM50 50L50 51L51 51L51 50ZM19 51L19 52L20 52L20 51ZM53 52L53 53L55 53L55 52ZM42 54L42 56L44 56L44 54ZM35 55L35 56L36 56L36 55ZM0 0L0 7L7 7L7 0ZM1 1L1 6L6 6L6 1ZM2 2L2 5L5 5L5 2ZM50 0L50 7L57 7L57 0ZM51 1L51 6L56 6L56 1ZM52 2L52 5L55 5L55 2ZM0 50L0 57L7 57L7 50ZM1 51L1 56L6 56L6 51ZM2 52L2 55L5 55L5 52Z" fill="#000000"/></g></g></svg>
