<?xml version="1.0" encoding="UTF-8"?>
<svg xmlns="http://www.w3.org/2000/svg" version="1.1" width="300" height="300" viewBox="0 0 300 300"><rect x="0" y="0" width="300" height="300" fill="#ffffff"/><g transform="scale(5.263)"><g transform="translate(0,0)"><path fill-rule="evenodd" d="M14 0L14 2L15 2L15 3L17 3L17 4L19 4L19 5L18 5L18 7L17 7L17 6L16 6L16 7L15 7L15 6L14 6L14 5L13 5L13 6L12 6L12 8L11 8L11 5L10 5L10 4L11 4L11 3L12 3L12 2L13 2L13 1L8 1L8 2L11 2L11 3L8 3L8 4L9 4L9 5L8 5L8 7L9 7L9 8L6 8L6 9L10 9L10 10L8 10L8 11L7 11L7 10L6 10L6 11L7 11L7 12L5 12L5 8L0 8L0 9L2 9L2 10L1 10L1 12L3 12L3 14L4 14L4 15L1 15L1 14L2 14L2 13L0 13L0 15L1 15L1 16L0 16L0 21L2 21L2 22L0 22L0 25L1 25L1 26L0 26L0 31L1 31L1 32L2 32L2 34L3 34L3 32L2 32L2 31L1 31L1 29L2 29L2 30L3 30L3 31L7 31L7 32L4 32L4 36L5 36L5 37L3 37L3 35L1 35L1 36L2 36L2 37L1 37L1 38L4 38L4 39L5 39L5 40L3 40L3 39L2 39L2 41L1 41L1 40L0 40L0 41L1 41L1 42L2 42L2 41L5 41L5 42L4 42L4 43L5 43L5 44L3 44L3 43L2 43L2 44L0 44L0 45L4 45L4 46L5 46L5 47L3 47L3 46L2 46L2 47L1 47L1 46L0 46L0 48L5 48L5 47L8 47L8 51L9 51L9 52L8 52L8 57L9 57L9 55L10 55L10 53L11 53L11 52L12 52L12 53L14 53L14 54L11 54L11 56L12 56L12 55L13 55L13 57L15 57L15 55L16 55L16 57L21 57L21 56L19 56L19 55L20 55L20 54L19 54L19 53L20 53L20 52L19 52L19 50L20 50L20 51L21 51L21 52L23 52L23 51L22 51L22 49L21 49L21 48L19 48L19 46L20 46L20 47L22 47L22 45L23 45L23 46L24 46L24 47L23 47L23 48L24 48L24 49L23 49L23 50L24 50L24 51L25 51L25 50L26 50L26 52L24 52L24 53L23 53L23 54L24 54L24 53L26 53L26 54L25 54L25 55L26 55L26 56L24 56L24 55L22 55L22 56L24 56L24 57L26 57L26 56L27 56L27 57L28 57L28 56L30 56L30 57L37 57L37 55L36 55L36 54L34 54L34 56L30 56L30 55L27 55L27 53L28 53L28 54L30 54L30 53L31 53L31 54L32 54L32 52L34 52L34 51L35 51L35 53L37 53L37 54L38 54L38 57L39 57L39 55L42 55L42 56L43 56L43 57L44 57L44 56L43 56L43 55L49 55L49 56L48 56L48 57L54 57L54 56L55 56L55 57L56 57L56 56L55 56L55 53L56 53L56 50L57 50L57 48L56 48L56 46L57 46L57 44L56 44L56 45L55 45L55 43L56 43L56 42L57 42L57 41L56 41L56 42L55 42L55 41L54 41L54 40L55 40L55 39L57 39L57 37L56 37L56 34L57 34L57 33L56 33L56 32L55 32L55 31L56 31L56 30L57 30L57 28L56 28L56 29L55 29L55 26L57 26L57 23L55 23L55 22L57 22L57 21L55 21L55 22L54 22L54 24L55 24L55 25L54 25L54 27L53 27L53 26L50 26L50 25L49 25L49 24L46 24L46 25L47 25L47 29L48 29L48 30L46 30L46 31L42 31L42 32L45 32L45 33L41 33L41 34L39 34L39 35L38 35L38 36L39 36L39 35L41 35L41 36L43 36L43 37L40 37L40 38L37 38L37 39L38 39L38 40L40 40L40 39L41 39L41 41L39 41L39 42L41 42L41 43L39 43L39 44L38 44L38 45L37 45L37 42L38 42L38 41L37 41L37 40L36 40L36 39L35 39L35 40L36 40L36 41L35 41L35 42L36 42L36 43L35 43L35 46L33 46L33 45L32 45L32 44L34 44L34 41L33 41L33 43L31 43L31 42L32 42L32 41L31 41L31 40L32 40L32 39L31 39L31 37L30 37L30 36L33 36L33 35L34 35L34 36L36 36L36 37L37 37L37 36L36 36L36 35L37 35L37 34L38 34L38 33L39 33L39 32L40 32L40 30L38 30L38 28L36 28L36 27L35 27L35 26L37 26L37 27L40 27L40 28L41 28L41 30L45 30L45 29L44 29L44 28L43 28L43 25L44 25L44 26L45 26L45 27L46 27L46 26L45 26L45 25L44 25L44 24L45 24L45 21L46 21L46 20L47 20L47 21L48 21L48 22L47 22L47 23L49 23L49 22L50 22L50 23L51 23L51 24L53 24L53 23L51 23L51 22L50 22L50 21L51 21L51 19L48 19L48 18L50 18L50 17L51 17L51 16L52 16L52 15L51 15L51 16L50 16L50 13L51 13L51 14L52 14L52 13L51 13L51 12L54 12L54 14L55 14L55 15L53 15L53 16L54 16L54 17L52 17L52 18L55 18L55 19L52 19L52 20L57 20L57 19L56 19L56 18L57 18L57 17L56 17L56 16L57 16L57 15L56 15L56 10L57 10L57 9L56 9L56 8L55 8L55 9L54 9L54 8L53 8L53 9L54 9L54 10L55 10L55 11L51 11L51 10L52 10L52 8L51 8L51 10L49 10L49 9L50 9L50 8L49 8L49 9L48 9L48 10L47 10L47 11L44 11L44 12L43 12L43 13L42 13L42 14L41 14L41 13L39 13L39 16L40 16L40 15L42 15L42 14L44 14L44 12L46 12L46 13L45 13L45 14L46 14L46 15L43 15L43 17L39 17L39 18L37 18L37 16L38 16L38 15L37 15L37 14L38 14L38 12L39 12L39 11L40 11L40 10L39 10L39 11L37 11L37 10L38 10L38 9L39 9L39 8L38 8L38 7L39 7L39 5L40 5L40 4L39 4L39 3L40 3L40 2L39 2L39 1L38 1L38 0L35 0L35 1L34 1L34 2L32 2L32 1L31 1L31 0L28 0L28 1L26 1L26 0L24 0L24 1L23 1L23 0L22 0L22 1L23 1L23 2L21 2L21 1L20 1L20 0L19 0L19 1L20 1L20 2L21 2L21 3L23 3L23 4L24 4L24 5L22 5L22 4L19 4L19 2L17 2L17 1L18 1L18 0L17 0L17 1L16 1L16 2L15 2L15 0ZM40 0L40 1L42 1L42 2L41 2L41 6L40 6L40 7L41 7L41 6L42 6L42 8L41 8L41 10L43 10L43 9L44 9L44 8L45 8L45 6L46 6L46 8L48 8L48 7L49 7L49 6L48 6L48 7L47 7L47 5L48 5L48 0L45 0L45 1L47 1L47 2L44 2L44 0ZM24 1L24 2L23 2L23 3L26 3L26 4L25 4L25 8L26 8L26 4L30 4L30 3L31 3L31 2L30 2L30 1L28 1L28 3L27 3L27 2L25 2L25 1ZM35 1L35 2L34 2L34 3L36 3L36 1ZM37 1L37 5L36 5L36 4L33 4L33 3L32 3L32 4L33 4L33 5L31 5L31 7L32 7L32 8L31 8L31 9L32 9L32 10L30 10L30 12L27 12L27 11L29 11L29 9L28 9L28 10L27 10L27 9L25 9L25 11L26 11L26 12L25 12L25 13L28 13L28 16L27 16L27 15L26 15L26 14L23 14L23 13L24 13L24 11L23 11L23 13L22 13L22 12L20 12L20 14L17 14L17 13L18 13L18 12L17 12L17 11L18 11L18 10L17 10L17 9L16 9L16 8L17 8L17 7L16 7L16 8L15 8L15 7L14 7L14 6L13 6L13 7L14 7L14 9L13 9L13 8L12 8L12 10L11 10L11 12L9 12L9 11L8 11L8 12L7 12L7 13L6 13L6 14L7 14L7 15L6 15L6 16L5 16L5 15L4 15L4 17L3 17L3 16L1 16L1 17L2 17L2 19L1 19L1 20L3 20L3 21L5 21L5 22L2 22L2 23L1 23L1 24L2 24L2 23L3 23L3 26L7 26L7 25L6 25L6 24L7 24L7 23L8 23L8 26L9 26L9 25L10 25L10 26L11 26L11 25L12 25L12 27L9 27L9 31L11 31L11 32L8 32L8 34L7 34L7 33L5 33L5 34L7 34L7 35L5 35L5 36L7 36L7 37L6 37L6 38L7 38L7 37L8 37L8 39L6 39L6 40L7 40L7 41L6 41L6 42L5 42L5 43L6 43L6 44L5 44L5 45L6 45L6 46L7 46L7 45L8 45L8 47L9 47L9 45L8 45L8 44L7 44L7 43L6 43L6 42L8 42L8 43L9 43L9 41L10 41L10 40L11 40L11 43L10 43L10 44L11 44L11 45L10 45L10 47L11 47L11 45L12 45L12 47L13 47L13 49L11 49L11 48L10 48L10 49L9 49L9 51L10 51L10 49L11 49L11 51L12 51L12 50L13 50L13 51L14 51L14 53L15 53L15 54L14 54L14 55L15 55L15 54L16 54L16 53L17 53L17 51L18 51L18 50L17 50L17 48L18 48L18 46L17 46L17 45L18 45L18 44L17 44L17 43L18 43L18 42L21 42L21 43L20 43L20 46L21 46L21 45L22 45L22 44L21 44L21 43L22 43L22 42L21 42L21 41L23 41L23 40L24 40L24 41L25 41L25 43L23 43L23 45L25 45L25 47L24 47L24 48L27 48L27 47L26 47L26 46L28 46L28 48L29 48L29 47L30 47L30 48L31 48L31 47L30 47L30 46L29 46L29 45L28 45L28 44L26 44L26 45L25 45L25 43L27 43L27 42L28 42L28 43L29 43L29 41L30 41L30 42L31 42L31 41L30 41L30 40L29 40L29 38L30 38L30 37L29 37L29 36L27 36L27 35L25 35L25 34L26 34L26 33L27 33L27 34L29 34L29 35L30 35L30 34L29 34L29 33L30 33L30 32L31 32L31 31L28 31L28 32L27 32L27 31L25 31L25 30L24 30L24 29L26 29L26 28L24 28L24 29L23 29L23 27L24 27L24 25L26 25L26 26L28 26L28 25L29 25L29 24L34 24L34 26L33 26L33 27L32 27L32 29L33 29L33 30L32 30L32 34L31 34L31 35L33 35L33 33L34 33L34 34L35 34L35 32L34 32L34 30L35 30L35 31L36 31L36 32L37 32L37 29L35 29L35 28L33 28L33 27L34 27L34 26L35 26L35 24L34 24L34 23L32 23L32 22L35 22L35 23L36 23L36 24L37 24L37 26L39 26L39 25L41 25L41 24L43 24L43 22L41 22L41 20L42 20L42 21L43 21L43 20L44 20L44 21L45 21L45 20L46 20L46 19L47 19L47 20L48 20L48 21L50 21L50 20L48 20L48 19L47 19L47 17L48 17L48 16L47 16L47 17L46 17L46 16L44 16L44 17L43 17L43 20L42 20L42 19L41 19L41 20L40 20L40 19L39 19L39 20L38 20L38 19L37 19L37 20L38 20L38 22L39 22L39 21L40 21L40 23L41 23L41 24L39 24L39 23L36 23L36 22L37 22L37 21L35 21L35 20L36 20L36 18L35 18L35 17L34 17L34 16L37 16L37 15L35 15L35 14L37 14L37 13L35 13L35 12L34 12L34 11L33 11L33 9L34 9L34 10L35 10L35 11L36 11L36 12L37 12L37 11L36 11L36 10L37 10L37 9L36 9L36 8L37 8L37 7L38 7L38 6L37 6L37 5L39 5L39 4L38 4L38 3L39 3L39 2L38 2L38 1ZM42 2L42 3L43 3L43 2ZM13 3L13 4L14 4L14 3ZM44 3L44 4L43 4L43 5L44 5L44 4L45 4L45 5L47 5L47 3L46 3L46 4L45 4L45 3ZM15 4L15 5L16 5L16 4ZM9 5L9 7L10 7L10 5ZM19 5L19 7L20 7L20 5ZM27 5L27 8L30 8L30 5ZM21 6L21 7L22 7L22 9L21 9L21 8L20 8L20 10L19 10L19 11L22 11L22 9L24 9L24 6L23 6L23 7L22 7L22 6ZM28 6L28 7L29 7L29 6ZM32 6L32 7L33 7L33 6ZM34 6L34 8L36 8L36 7L37 7L37 6L36 6L36 7L35 7L35 6ZM43 6L43 7L44 7L44 6ZM10 8L10 9L11 9L11 8ZM42 8L42 9L43 9L43 8ZM35 9L35 10L36 10L36 9ZM2 10L2 11L4 11L4 10ZM13 10L13 11L14 11L14 12L12 12L12 13L11 13L11 14L10 14L10 13L9 13L9 12L8 12L8 13L7 13L7 14L8 14L8 15L7 15L7 16L6 16L6 17L4 17L4 19L3 19L3 20L6 20L6 21L7 21L7 20L8 20L8 19L9 19L9 18L10 18L10 19L11 19L11 18L12 18L12 22L14 22L14 21L13 21L13 20L14 20L14 19L13 19L13 17L14 17L14 16L13 16L13 17L12 17L12 16L11 16L11 15L12 15L12 13L15 13L15 14L14 14L14 15L15 15L15 14L16 14L16 13L17 13L17 12L16 12L16 13L15 13L15 10ZM26 10L26 11L27 11L27 10ZM31 11L31 12L33 12L33 11ZM50 11L50 12L51 12L51 11ZM4 12L4 14L5 14L5 12ZM47 12L47 13L46 13L46 14L47 14L47 15L49 15L49 14L48 14L48 13L49 13L49 12ZM21 13L21 16L20 16L20 15L17 15L17 18L16 18L16 20L15 20L15 21L16 21L16 22L15 22L15 23L16 23L16 24L14 24L14 23L12 23L12 25L13 25L13 26L14 26L14 25L17 25L17 26L16 26L16 27L12 27L12 28L10 28L10 30L11 30L11 31L13 31L13 34L14 34L14 35L12 35L12 33L10 33L10 34L8 34L8 35L7 35L7 36L8 36L8 37L11 37L11 40L12 40L12 39L13 39L13 41L12 41L12 42L13 42L13 41L14 41L14 43L13 43L13 44L12 44L12 43L11 43L11 44L12 44L12 45L13 45L13 44L14 44L14 45L15 45L15 47L14 47L14 50L15 50L15 51L17 51L17 50L15 50L15 48L16 48L16 45L17 45L17 44L16 44L16 45L15 45L15 44L14 44L14 43L16 43L16 42L15 42L15 41L17 41L17 42L18 42L18 41L21 41L21 37L22 37L22 38L23 38L23 39L24 39L24 40L25 40L25 39L27 39L27 41L26 41L26 42L27 42L27 41L29 41L29 40L28 40L28 39L27 39L27 38L28 38L28 37L27 37L27 38L25 38L25 37L26 37L26 36L25 36L25 35L23 35L23 34L25 34L25 33L26 33L26 32L25 32L25 33L22 33L22 34L21 34L21 35L20 35L20 36L21 36L21 37L19 37L19 36L18 36L18 35L19 35L19 34L20 34L20 31L21 31L21 32L22 32L22 31L21 31L21 30L20 30L20 29L18 29L18 28L17 28L17 27L18 27L18 25L19 25L19 23L20 23L20 22L18 22L18 21L20 21L20 20L21 20L21 19L22 19L22 20L23 20L23 19L22 19L22 17L21 17L21 16L22 16L22 13ZM29 13L29 14L30 14L30 15L29 15L29 16L28 16L28 17L27 17L27 16L26 16L26 15L23 15L23 16L24 16L24 17L23 17L23 18L25 18L25 20L24 20L24 21L22 21L22 22L24 22L24 21L25 21L25 22L26 22L26 23L25 23L25 24L27 24L27 22L28 22L28 24L29 24L29 22L32 22L32 20L33 20L33 21L34 21L34 20L33 20L33 19L31 19L31 17L32 17L32 18L34 18L34 19L35 19L35 18L34 18L34 17L32 17L32 15L33 15L33 16L34 16L34 15L33 15L33 13L32 13L32 15L31 15L31 14L30 14L30 13ZM9 14L9 15L8 15L8 16L7 16L7 17L6 17L6 18L7 18L7 17L9 17L9 16L10 16L10 14ZM55 15L55 16L56 16L56 15ZM15 16L15 17L16 17L16 16ZM29 16L29 17L30 17L30 16ZM49 16L49 17L50 17L50 16ZM10 17L10 18L11 18L11 17ZM18 17L18 18L17 18L17 20L16 20L16 21L18 21L18 20L20 20L20 19L21 19L21 17ZM25 17L25 18L26 18L26 20L28 20L28 22L29 22L29 20L30 20L30 21L31 21L31 20L30 20L30 18L29 18L29 20L28 20L28 18L26 18L26 17ZM44 17L44 18L45 18L45 19L46 19L46 18L45 18L45 17ZM55 17L55 18L56 18L56 17ZM18 18L18 19L20 19L20 18ZM6 19L6 20L7 20L7 19ZM10 20L10 21L11 21L11 20ZM52 21L52 22L53 22L53 21ZM6 22L6 23L4 23L4 25L5 25L5 24L6 24L6 23L7 23L7 22ZM9 22L9 24L10 24L10 25L11 25L11 22ZM17 22L17 25L18 25L18 22ZM21 23L21 24L20 24L20 25L21 25L21 27L20 27L20 26L19 26L19 28L21 28L21 29L22 29L22 28L21 28L21 27L22 27L22 25L21 25L21 24L22 24L22 23ZM23 23L23 25L24 25L24 23ZM13 24L13 25L14 25L14 24ZM38 24L38 25L39 25L39 24ZM31 25L31 26L32 26L32 25ZM40 26L40 27L42 27L42 26ZM5 27L5 30L8 30L8 27ZM27 27L27 30L30 30L30 27ZM49 27L49 30L52 30L52 27ZM2 28L2 29L3 29L3 30L4 30L4 28ZM6 28L6 29L7 29L7 28ZM15 28L15 30L16 30L16 32L17 32L17 33L15 33L15 32L14 32L14 33L15 33L15 34L16 34L16 35L14 35L14 36L15 36L15 37L16 37L16 38L14 38L14 37L12 37L12 38L13 38L13 39L14 39L14 41L15 41L15 39L16 39L16 40L17 40L17 41L18 41L18 40L17 40L17 39L20 39L20 38L18 38L18 37L17 37L17 33L18 33L18 34L19 34L19 33L18 33L18 32L19 32L19 31L17 31L17 30L18 30L18 29L17 29L17 28ZM28 28L28 29L29 29L29 28ZM42 28L42 29L43 29L43 28ZM50 28L50 29L51 29L51 28ZM53 28L53 29L54 29L54 30L55 30L55 29L54 29L54 28ZM12 29L12 30L13 30L13 29ZM23 30L23 31L24 31L24 30ZM38 31L38 32L39 32L39 31ZM46 31L46 32L47 32L47 33L46 33L46 34L44 34L44 35L43 35L43 36L44 36L44 38L41 38L41 39L44 39L44 38L47 38L47 40L46 40L46 42L45 42L45 43L46 43L46 45L45 45L45 44L44 44L44 42L42 42L42 41L43 41L43 40L42 40L42 41L41 41L41 42L42 42L42 43L41 43L41 44L39 44L39 45L38 45L38 46L37 46L37 45L36 45L36 46L35 46L35 47L36 47L36 48L34 48L34 47L33 47L33 46L32 46L32 45L31 45L31 46L32 46L32 49L31 49L31 51L32 51L32 50L33 50L33 51L34 51L34 50L35 50L35 51L36 51L36 52L37 52L37 53L38 53L38 54L39 54L39 51L40 51L40 50L41 50L41 52L40 52L40 54L42 54L42 55L43 55L43 54L42 54L42 52L44 52L44 53L45 53L45 54L47 54L47 53L48 53L48 52L47 52L47 50L48 50L48 48L49 48L49 47L48 47L48 48L47 48L47 47L46 47L46 48L45 48L45 46L47 46L47 45L48 45L48 44L47 44L47 43L49 43L49 44L51 44L51 45L49 45L49 46L50 46L50 48L51 48L51 46L53 46L53 47L55 47L55 45L54 45L54 44L53 44L53 43L55 43L55 42L53 42L53 39L52 39L52 41L49 41L49 40L50 40L50 39L51 39L51 38L53 38L53 37L54 37L54 39L55 39L55 38L56 38L56 37L55 37L55 36L53 36L53 34L54 34L54 35L55 35L55 32L53 32L53 31L51 31L51 32L52 32L52 33L50 33L50 31L48 31L48 32L47 32L47 31ZM28 32L28 33L29 33L29 32ZM48 32L48 34L46 34L46 35L47 35L47 36L48 36L48 37L49 37L49 38L48 38L48 39L50 39L50 36L51 36L51 37L53 37L53 36L52 36L52 34L51 34L51 35L50 35L50 33L49 33L49 32ZM0 33L0 34L1 34L1 33ZM36 33L36 34L37 34L37 33ZM10 34L10 36L11 36L11 34ZM41 34L41 35L42 35L42 34ZM48 34L48 35L49 35L49 34ZM8 35L8 36L9 36L9 35ZM22 35L22 37L23 37L23 38L24 38L24 37L23 37L23 35ZM33 39L33 40L34 40L34 39ZM8 40L8 41L9 41L9 40ZM44 40L44 41L45 41L45 40ZM47 41L47 42L46 42L46 43L47 43L47 42L48 42L48 41ZM49 42L49 43L50 43L50 42ZM51 42L51 43L52 43L52 42ZM6 44L6 45L7 45L7 44ZM42 44L42 45L40 45L40 46L38 46L38 47L37 47L37 46L36 46L36 47L37 47L37 48L36 48L36 49L37 49L37 51L38 51L38 49L39 49L39 50L40 50L40 48L42 48L42 49L41 49L41 50L44 50L44 46L45 46L45 45L44 45L44 44ZM43 45L43 46L42 46L42 47L43 47L43 46L44 46L44 45ZM53 45L53 46L54 46L54 45ZM40 46L40 47L38 47L38 48L37 48L37 49L38 49L38 48L40 48L40 47L41 47L41 46ZM6 48L6 49L7 49L7 48ZM33 48L33 49L34 49L34 48ZM54 48L54 49L53 49L53 50L54 50L54 49L55 49L55 48ZM20 49L20 50L21 50L21 49ZM27 49L27 52L30 52L30 49ZM49 49L49 52L52 52L52 49ZM28 50L28 51L29 51L29 50ZM45 50L45 51L44 51L44 52L45 52L45 51L46 51L46 50ZM50 50L50 51L51 51L51 50ZM9 52L9 53L10 53L10 52ZM15 52L15 53L16 53L16 52ZM46 52L46 53L47 53L47 52ZM21 53L21 54L22 54L22 53ZM50 53L50 56L51 56L51 54L52 54L52 55L53 55L53 56L54 56L54 55L53 55L53 54L54 54L54 53L53 53L53 54L52 54L52 53ZM17 55L17 56L18 56L18 55ZM46 56L46 57L47 57L47 56ZM0 0L0 7L7 7L7 0ZM1 1L1 6L6 6L6 1ZM2 2L2 5L5 5L5 2ZM50 0L50 7L57 7L57 0ZM51 1L51 6L56 6L56 1ZM52 2L52 5L55 5L55 2ZM0 50L0 57L7 57L7 50ZM1 51L1 56L6 56L6 51ZM2 52L2 55L5 55L5 52Z" fill="#000000"/></g></g></svg>
