<?xml version="1.0" encoding="UTF-8"?>
<svg xmlns="http://www.w3.org/2000/svg" version="1.1" width="300" height="300" viewBox="0 0 300 300"><rect x="0" y="0" width="300" height="300" fill="#ffffff"/><g transform="scale(5.263)"><g transform="translate(0,0)"><path fill-rule="evenodd" d="M11 0L11 1L10 1L10 2L9 2L9 1L8 1L8 2L9 2L9 3L8 3L8 4L9 4L9 5L8 5L8 7L9 7L9 5L12 5L12 7L11 7L11 6L10 6L10 8L6 8L6 9L5 9L5 8L0 8L0 10L2 10L2 13L1 13L1 14L2 14L2 15L0 15L0 17L1 17L1 16L4 16L4 17L3 17L3 18L2 18L2 19L1 19L1 18L0 18L0 19L1 19L1 20L0 20L0 21L2 21L2 20L5 20L5 21L3 21L3 22L1 22L1 25L0 25L0 26L1 26L1 25L2 25L2 26L3 26L3 27L0 27L0 28L2 28L2 29L3 29L3 27L4 27L4 32L5 32L5 34L6 34L6 35L7 35L7 34L6 34L6 33L7 33L7 32L6 32L6 31L8 31L8 32L9 32L9 33L10 33L10 34L11 34L11 35L10 35L10 39L12 39L12 38L14 38L14 39L13 39L13 40L12 40L12 41L13 41L13 42L11 42L11 40L10 40L10 41L9 41L9 40L8 40L8 39L9 39L9 38L8 38L8 39L7 39L7 38L6 38L6 37L7 37L7 36L5 36L5 35L4 35L4 34L3 34L3 33L2 33L2 32L1 32L1 29L0 29L0 33L2 33L2 35L0 35L0 38L2 38L2 35L3 35L3 37L5 37L5 39L4 39L4 38L3 38L3 40L5 40L5 41L2 41L2 42L4 42L4 43L5 43L5 41L7 41L7 42L6 42L6 43L9 43L9 42L11 42L11 43L13 43L13 45L14 45L14 44L15 44L15 45L16 45L16 44L15 44L15 43L16 43L16 42L14 42L14 41L18 41L18 43L17 43L17 44L18 44L18 45L17 45L17 46L16 46L16 47L15 47L15 46L14 46L14 47L15 47L15 49L14 49L14 50L13 50L13 49L11 49L11 48L9 48L9 47L12 47L12 48L13 48L13 46L11 46L11 45L12 45L12 44L11 44L11 45L10 45L10 46L9 46L9 47L8 47L8 48L6 48L6 49L8 49L8 51L9 51L9 52L8 52L8 57L10 57L10 56L11 56L11 57L16 57L16 56L17 56L17 57L22 57L22 56L23 56L23 57L24 57L24 55L22 55L22 54L24 54L24 53L25 53L25 54L26 54L26 56L27 56L27 54L30 54L30 53L31 53L31 54L33 54L33 53L34 53L34 52L33 52L33 51L34 51L34 50L33 50L33 49L34 49L34 48L36 48L36 49L35 49L35 50L36 50L36 51L38 51L38 53L37 53L37 52L35 52L35 54L34 54L34 56L30 56L30 55L28 55L28 57L29 57L29 56L30 56L30 57L38 57L38 55L37 55L37 56L35 56L35 55L36 55L36 53L37 53L37 54L38 54L38 53L40 53L40 52L41 52L41 51L42 51L42 52L43 52L43 53L42 53L42 54L41 54L41 57L44 57L44 56L42 56L42 54L43 54L43 55L45 55L45 54L46 54L46 55L47 55L47 57L49 57L49 56L50 56L50 54L48 54L48 53L51 53L51 54L53 54L53 57L56 57L56 56L55 56L55 55L54 55L54 54L55 54L55 53L54 53L54 52L56 52L56 50L57 50L57 47L56 47L56 46L57 46L57 44L56 44L56 42L54 42L54 41L55 41L55 39L57 39L57 36L56 36L56 38L53 38L53 40L54 40L54 41L53 41L53 42L51 42L51 43L50 43L50 41L51 41L51 40L48 40L48 39L50 39L50 38L51 38L51 37L50 37L50 36L51 36L51 35L50 35L50 34L49 34L49 38L48 38L48 37L47 37L47 36L48 36L48 34L47 34L47 35L46 35L46 37L47 37L47 38L48 38L48 39L47 39L47 40L45 40L45 41L44 41L44 40L43 40L43 41L42 41L42 40L41 40L41 42L40 42L40 41L39 41L39 40L38 40L38 37L37 37L37 36L38 36L38 35L37 35L37 34L38 34L38 32L37 32L37 30L38 30L38 29L39 29L39 30L43 30L43 31L44 31L44 32L43 32L43 33L39 33L39 34L42 34L42 35L43 35L43 36L45 36L45 35L44 35L44 34L45 34L45 33L44 33L44 32L46 32L46 33L47 33L47 31L49 31L49 32L48 32L48 33L50 33L50 32L54 32L54 33L53 33L53 34L52 34L52 35L53 35L53 36L52 36L52 37L55 37L55 35L56 35L56 34L57 34L57 31L56 31L56 32L55 32L55 31L53 31L53 28L54 28L54 30L57 30L57 28L55 28L55 27L56 27L56 26L57 26L57 23L55 23L55 22L57 22L57 21L56 21L56 20L57 20L57 19L56 19L56 18L57 18L57 17L56 17L56 18L54 18L54 17L53 17L53 18L52 18L52 17L51 17L51 15L52 15L52 16L57 16L57 15L56 15L56 14L55 14L55 13L56 13L56 12L57 12L57 11L56 11L56 12L55 12L55 11L53 11L53 12L54 12L54 13L53 13L53 14L51 14L51 15L50 15L50 12L52 12L52 11L49 11L49 10L50 10L50 8L49 8L49 9L47 9L47 8L48 8L48 7L49 7L49 6L48 6L48 7L47 7L47 5L48 5L48 0L40 0L40 1L38 1L38 0L35 0L35 1L38 1L38 2L35 2L35 4L36 4L36 5L37 5L37 6L36 6L36 7L35 7L35 5L33 5L33 4L32 4L32 2L33 2L33 3L34 3L34 1L32 1L32 2L31 2L31 3L30 3L30 4L26 4L26 3L23 3L23 4L22 4L22 5L23 5L23 6L22 6L22 7L21 7L21 4L19 4L19 2L18 2L18 4L17 4L17 5L18 5L18 4L19 4L19 5L20 5L20 7L19 7L19 6L18 6L18 9L17 9L17 10L18 10L18 11L17 11L17 12L18 12L18 13L17 13L17 14L19 14L19 15L20 15L20 16L17 16L17 18L18 18L18 20L17 20L17 21L16 21L16 19L15 19L15 21L16 21L16 22L15 22L15 23L16 23L16 24L15 24L15 25L17 25L17 26L16 26L16 27L14 27L14 25L13 25L13 27L11 27L11 26L12 26L12 24L14 24L14 21L13 21L13 23L11 23L11 25L9 25L9 24L8 24L8 22L9 22L9 21L8 21L8 20L10 20L10 21L11 21L11 22L12 22L12 19L13 19L13 20L14 20L14 19L13 19L13 18L14 18L14 16L12 16L12 15L16 15L16 14L13 14L13 13L16 13L16 12L15 12L15 11L16 11L16 10L13 10L13 9L14 9L14 8L16 8L16 7L17 7L17 6L16 6L16 7L15 7L15 6L14 6L14 5L16 5L16 4L14 4L14 5L12 5L12 3L11 3L11 1L12 1L12 2L13 2L13 1L14 1L14 2L17 2L17 1L16 1L16 0L13 0L13 1L12 1L12 0ZM18 0L18 1L20 1L20 2L23 2L23 1L26 1L26 2L27 2L27 1L31 1L31 0L27 0L27 1L26 1L26 0L21 0L21 1L20 1L20 0ZM40 1L40 2L42 2L42 3L39 3L39 2L38 2L38 3L37 3L37 4L38 4L38 5L39 5L39 4L40 4L40 5L41 5L41 8L38 8L38 10L37 10L37 9L36 9L36 8L37 8L37 7L38 7L38 6L37 6L37 7L36 7L36 8L34 8L34 6L33 6L33 7L32 7L32 4L31 4L31 7L32 7L32 8L31 8L31 9L32 9L32 10L30 10L30 9L29 9L29 10L28 10L28 9L25 9L25 10L23 10L23 12L24 12L24 13L22 13L22 12L21 12L21 13L19 13L19 14L21 14L21 17L18 17L18 18L19 18L19 20L20 20L20 21L18 21L18 22L17 22L17 25L18 25L18 27L17 27L17 28L18 28L18 29L15 29L15 31L14 31L14 34L13 34L13 35L11 35L11 36L13 36L13 37L16 37L16 38L15 38L15 39L16 39L16 40L17 40L17 38L19 38L19 39L20 39L20 38L19 38L19 37L23 37L23 38L22 38L22 39L21 39L21 41L19 41L19 47L18 47L18 48L19 48L19 47L20 47L20 48L22 48L22 49L18 49L18 51L17 51L17 49L16 49L16 50L14 50L14 52L12 52L12 53L14 53L14 55L15 55L15 56L16 56L16 55L15 55L15 54L16 54L16 53L17 53L17 55L18 55L18 56L22 56L22 55L21 55L21 54L22 54L22 53L24 53L24 52L26 52L26 50L23 50L23 51L22 51L22 49L24 49L24 48L25 48L25 49L26 49L26 48L25 48L25 47L26 47L26 43L28 43L28 42L29 42L29 43L30 43L30 44L29 44L29 45L28 45L28 44L27 44L27 48L30 48L30 47L28 47L28 46L29 46L29 45L31 45L31 48L32 48L32 49L33 49L33 48L34 48L34 47L33 47L33 46L35 46L35 47L36 47L36 48L38 48L38 50L40 50L40 51L39 51L39 52L40 52L40 51L41 51L41 50L40 50L40 49L42 49L42 48L43 48L43 46L42 46L42 48L39 48L39 47L41 47L41 44L42 44L42 45L43 45L43 43L45 43L45 44L44 44L44 45L45 45L45 46L44 46L44 49L43 49L43 50L44 50L44 51L43 51L43 52L44 52L44 53L46 53L46 54L47 54L47 55L48 55L48 56L49 56L49 55L48 55L48 54L47 54L47 53L46 53L46 51L48 51L48 50L47 50L47 49L48 49L48 48L49 48L49 47L48 47L48 46L50 46L50 48L51 48L51 46L52 46L52 47L54 47L54 46L53 46L53 45L55 45L55 46L56 46L56 44L53 44L53 43L52 43L52 45L51 45L51 44L50 44L50 43L49 43L49 41L48 41L48 40L47 40L47 41L45 41L45 42L43 42L43 43L42 43L42 42L41 42L41 44L40 44L40 42L39 42L39 41L38 41L38 42L39 42L39 44L40 44L40 45L38 45L38 46L37 46L37 45L36 45L36 46L35 46L35 45L33 45L33 44L35 44L35 40L36 40L36 39L37 39L37 38L35 38L35 37L36 37L36 36L37 36L37 35L36 35L36 36L34 36L34 37L33 37L33 35L32 35L32 37L33 37L33 39L32 39L32 38L31 38L31 39L32 39L32 40L31 40L31 41L30 41L30 39L29 39L29 37L30 37L30 36L28 36L28 34L29 34L29 35L30 35L30 34L29 34L29 33L30 33L30 32L29 32L29 31L28 31L28 33L27 33L27 32L26 32L26 31L25 31L25 30L24 30L24 31L23 31L23 29L24 29L24 28L25 28L25 29L26 29L26 28L25 28L25 27L26 27L26 26L28 26L28 25L29 25L29 24L28 24L28 22L27 22L27 24L25 24L25 23L26 23L26 22L25 22L25 21L24 21L24 19L25 19L25 20L27 20L27 21L29 21L29 22L30 22L30 23L31 23L31 24L34 24L34 26L33 26L33 28L32 28L32 29L31 29L31 32L32 32L32 33L34 33L34 34L35 34L35 32L34 32L34 31L36 31L36 30L35 30L35 29L36 29L36 28L37 28L37 27L36 27L36 28L35 28L35 27L34 27L34 26L35 26L35 24L34 24L34 23L36 23L36 24L39 24L39 25L38 25L38 26L39 26L39 27L38 27L38 28L39 28L39 29L41 29L41 28L44 28L44 31L47 31L47 30L48 30L48 27L46 27L46 26L47 26L47 25L48 25L48 24L49 24L49 23L50 23L50 24L51 24L51 25L49 25L49 26L52 26L52 25L53 25L53 27L54 27L54 25L55 25L55 26L56 26L56 25L55 25L55 24L54 24L54 25L53 25L53 21L55 21L55 20L54 20L54 19L53 19L53 20L51 20L51 21L50 21L50 20L48 20L48 21L47 21L47 20L46 20L46 19L49 19L49 18L51 18L51 17L50 17L50 15L49 15L49 18L47 18L47 17L46 17L46 16L44 16L44 15L47 15L47 16L48 16L48 15L47 15L47 13L48 13L48 12L49 12L49 11L48 11L48 10L47 10L47 9L45 9L45 7L46 7L46 8L47 8L47 7L46 7L46 6L45 6L45 7L44 7L44 5L47 5L47 3L46 3L46 4L45 4L45 3L43 3L43 2L42 2L42 1ZM45 1L45 2L47 2L47 1ZM28 2L28 3L29 3L29 2ZM38 3L38 4L39 4L39 3ZM23 4L23 5L24 5L24 4ZM25 4L25 8L26 8L26 4ZM41 4L41 5L44 5L44 4ZM27 5L27 8L30 8L30 5ZM13 6L13 8L12 8L12 9L11 9L11 8L10 8L10 10L9 10L9 11L10 11L10 10L11 10L11 13L8 13L8 11L5 11L5 12L7 12L7 13L6 13L6 14L4 14L4 13L3 13L3 14L4 14L4 15L6 15L6 16L8 16L8 15L10 15L10 16L11 16L11 14L12 14L12 13L13 13L13 12L14 12L14 11L13 11L13 10L12 10L12 9L13 9L13 8L14 8L14 6ZM23 6L23 8L22 8L22 9L20 9L20 8L19 8L19 9L18 9L18 10L19 10L19 11L22 11L22 9L24 9L24 6ZM28 6L28 7L29 7L29 6ZM39 6L39 7L40 7L40 6ZM42 6L42 8L41 8L41 11L40 11L40 9L39 9L39 12L38 12L38 13L39 13L39 14L37 14L37 12L36 12L36 11L37 11L37 10L36 10L36 9L35 9L35 10L34 10L34 9L33 9L33 11L32 11L32 12L31 12L31 13L32 13L32 12L33 12L33 13L34 13L34 12L35 12L35 14L34 14L34 15L35 15L35 18L34 18L34 17L33 17L33 18L32 18L32 20L31 20L31 19L30 19L30 18L31 18L31 17L32 17L32 16L33 16L33 15L32 15L32 14L30 14L30 13L29 13L29 14L30 14L30 16L28 16L28 14L27 14L27 16L28 16L28 17L27 17L27 18L25 18L25 17L26 17L26 14L25 14L25 13L24 13L24 14L23 14L23 15L24 15L24 17L22 17L22 18L20 18L20 19L21 19L21 20L22 20L22 18L25 18L25 19L27 19L27 20L28 20L28 19L30 19L30 20L31 20L31 21L30 21L30 22L31 22L31 23L32 23L32 22L31 22L31 21L32 21L32 20L33 20L33 21L34 21L34 20L35 20L35 22L36 22L36 23L37 23L37 22L38 22L38 23L39 23L39 22L38 22L38 21L37 21L37 20L38 20L38 16L39 16L39 14L41 14L41 15L40 15L40 16L43 16L43 17L40 17L40 18L39 18L39 19L40 19L40 20L39 20L39 21L40 21L40 22L44 22L44 23L40 23L40 24L43 24L43 25L42 25L42 26L43 26L43 25L44 25L44 26L46 26L46 25L47 25L47 24L48 24L48 22L50 22L50 21L48 21L48 22L46 22L46 20L45 20L45 19L46 19L46 18L45 18L45 17L44 17L44 16L43 16L43 15L44 15L44 12L45 12L45 13L46 13L46 12L45 12L45 11L47 11L47 12L48 12L48 11L47 11L47 10L45 10L45 11L44 11L44 8L43 8L43 6ZM51 8L51 10L53 10L53 9L54 9L54 10L57 10L57 9L56 9L56 8L55 8L55 9L54 9L54 8L53 8L53 9L52 9L52 8ZM2 9L2 10L4 10L4 9ZM6 9L6 10L7 10L7 9ZM19 9L19 10L20 10L20 9ZM25 10L25 12L26 12L26 10ZM29 10L29 11L28 11L28 12L27 12L27 13L28 13L28 12L30 12L30 10ZM42 10L42 11L43 11L43 12L42 12L42 13L41 13L41 12L39 12L39 13L41 13L41 14L42 14L42 15L43 15L43 14L42 14L42 13L43 13L43 12L44 12L44 11L43 11L43 10ZM3 11L3 12L4 12L4 11ZM12 11L12 12L13 12L13 11ZM21 13L21 14L22 14L22 13ZM6 14L6 15L8 15L8 14ZM24 14L24 15L25 15L25 14ZM54 14L54 15L55 15L55 14ZM37 15L37 16L38 16L38 15ZM15 16L15 17L16 17L16 16ZM6 17L6 18L8 18L8 17ZM12 17L12 18L11 18L11 19L12 19L12 18L13 18L13 17ZM43 17L43 18L41 18L41 20L40 20L40 21L43 21L43 20L44 20L44 22L45 22L45 20L44 20L44 17ZM3 18L3 19L5 19L5 20L7 20L7 19L5 19L5 18ZM9 18L9 19L10 19L10 18ZM27 18L27 19L28 19L28 18ZM33 18L33 20L34 20L34 18ZM35 18L35 19L36 19L36 20L37 20L37 18ZM42 19L42 20L43 20L43 19ZM6 21L6 22L7 22L7 21ZM21 21L21 22L24 22L24 21ZM36 21L36 22L37 22L37 21ZM51 21L51 24L52 24L52 21ZM4 22L4 23L2 23L2 24L4 24L4 25L3 25L3 26L5 26L5 24L7 24L7 25L6 25L6 26L8 26L8 24L7 24L7 23L5 23L5 22ZM18 22L18 25L19 25L19 23L20 23L20 22ZM4 23L4 24L5 24L5 23ZM21 23L21 24L20 24L20 25L21 25L21 27L20 27L20 26L19 26L19 28L21 28L21 29L22 29L22 28L21 28L21 27L22 27L22 25L21 25L21 24L22 24L22 23ZM23 23L23 26L24 26L24 27L25 27L25 25L24 25L24 23ZM27 24L27 25L28 25L28 24ZM44 24L44 25L45 25L45 24ZM31 25L31 26L32 26L32 25ZM36 25L36 26L37 26L37 25ZM39 25L39 26L40 26L40 25ZM9 26L9 27L10 27L10 28L9 28L9 30L10 30L10 31L9 31L9 32L11 32L11 34L12 34L12 31L13 31L13 30L14 30L14 27L13 27L13 28L12 28L12 29L10 29L10 28L11 28L11 27L10 27L10 26ZM5 27L5 30L8 30L8 27ZM27 27L27 30L30 30L30 27ZM39 27L39 28L41 28L41 27ZM44 27L44 28L45 28L45 29L46 29L46 27ZM49 27L49 30L52 30L52 27ZM6 28L6 29L7 29L7 28ZM28 28L28 29L29 29L29 28ZM50 28L50 29L51 29L51 28ZM18 29L18 30L17 30L17 32L16 32L16 31L15 31L15 32L16 32L16 33L18 33L18 34L20 34L20 35L21 35L21 34L25 34L25 35L26 35L26 37L27 37L27 38L25 38L25 36L24 36L24 35L22 35L22 36L23 36L23 37L24 37L24 38L23 38L23 39L22 39L22 40L23 40L23 39L24 39L24 41L23 41L23 42L22 42L22 41L21 41L21 42L22 42L22 43L21 43L21 44L20 44L20 45L21 45L21 47L22 47L22 48L23 48L23 46L22 46L22 45L24 45L24 47L25 47L25 45L24 45L24 44L25 44L25 39L27 39L27 41L26 41L26 42L27 42L27 41L29 41L29 42L30 42L30 43L31 43L31 45L32 45L32 46L33 46L33 45L32 45L32 44L33 44L33 43L34 43L34 41L33 41L33 43L31 43L31 42L32 42L32 41L31 41L31 42L30 42L30 41L29 41L29 40L28 40L28 39L27 39L27 38L28 38L28 37L27 37L27 33L26 33L26 34L25 34L25 33L21 33L21 34L20 34L20 33L19 33L19 32L21 32L21 30L20 30L20 29ZM18 31L18 32L19 32L19 31ZM24 31L24 32L25 32L25 31ZM39 31L39 32L41 32L41 31ZM36 33L36 34L37 34L37 33ZM54 33L54 35L55 35L55 33ZM8 34L8 35L9 35L9 34ZM14 34L14 35L15 35L15 36L17 36L17 37L19 37L19 36L17 36L17 34L16 34L16 35L15 35L15 34ZM41 37L41 38L42 38L42 39L44 39L44 37ZM34 38L34 39L33 39L33 40L34 40L34 39L35 39L35 38ZM45 38L45 39L46 39L46 38ZM6 39L6 40L7 40L7 41L8 41L8 40L7 40L7 39ZM0 40L0 42L1 42L1 40ZM13 40L13 41L14 41L14 40ZM47 41L47 42L48 42L48 41ZM13 42L13 43L14 43L14 42ZM23 42L23 43L24 43L24 42ZM36 42L36 43L37 43L37 44L38 44L38 43L37 43L37 42ZM45 42L45 43L46 43L46 42ZM1 43L1 44L3 44L3 43ZM47 43L47 44L48 44L48 43ZM4 44L4 45L2 45L2 47L1 47L1 46L0 46L0 48L5 48L5 47L7 47L7 46L5 46L5 47L3 47L3 46L4 46L4 45L8 45L8 44ZM21 44L21 45L22 45L22 44ZM45 44L45 45L46 45L46 44ZM47 45L47 46L45 46L45 47L47 47L47 48L45 48L45 49L44 49L44 50L45 50L45 49L47 49L47 48L48 48L48 47L47 47L47 46L48 46L48 45ZM50 45L50 46L51 46L51 45ZM16 47L16 48L17 48L17 47ZM32 47L32 48L33 48L33 47ZM8 48L8 49L9 49L9 48ZM54 48L54 49L53 49L53 52L54 52L54 51L55 51L55 50L56 50L56 48ZM10 49L10 50L11 50L11 51L10 51L10 52L9 52L9 53L10 53L10 52L11 52L11 51L13 51L13 50L11 50L11 49ZM27 49L27 52L30 52L30 49ZM49 49L49 52L52 52L52 49ZM19 50L19 51L18 51L18 52L17 52L17 53L20 53L20 52L21 52L21 53L22 53L22 52L21 52L21 51L20 51L20 50ZM28 50L28 51L29 51L29 50ZM31 50L31 52L32 52L32 53L33 53L33 52L32 52L32 51L33 51L33 50ZM50 50L50 51L51 51L51 50ZM15 51L15 53L16 53L16 51ZM19 51L19 52L20 52L20 51ZM26 53L26 54L27 54L27 53ZM9 54L9 56L10 56L10 54ZM11 54L11 56L12 56L12 54ZM18 54L18 55L20 55L20 54ZM39 54L39 56L40 56L40 54ZM45 56L45 57L46 57L46 56ZM51 56L51 57L52 57L52 56ZM0 0L0 7L7 7L7 0ZM1 1L1 6L6 6L6 1ZM2 2L2 5L5 5L5 2ZM50 0L50 7L57 7L57 0ZM51 1L51 6L56 6L56 1ZM52 2L52 5L55 5L55 2ZM0 50L0 57L7 57L7 50ZM1 51L1 56L6 56L6 51ZM2 52L2 55L5 55L5 52Z" fill="#000000"/></g></g></svg>
