<?xml version="1.0" encoding="UTF-8"?>
<svg xmlns="http://www.w3.org/2000/svg" version="1.1" width="300" height="300" viewBox="0 0 300 300"><rect x="0" y="0" width="300" height="300" fill="#ffffff"/><g transform="scale(5.263)"><g transform="translate(0,0)"><path fill-rule="evenodd" d="M10 0L10 1L9 1L9 3L8 3L8 5L9 5L9 4L12 4L12 5L13 5L13 6L12 6L12 8L11 8L11 5L10 5L10 10L8 10L8 12L9 12L9 13L8 13L8 14L9 14L9 15L8 15L8 16L9 16L9 15L10 15L10 17L9 17L9 19L8 19L8 18L5 18L5 19L4 19L4 17L2 17L2 16L5 16L5 17L7 17L7 16L6 16L6 15L7 15L7 14L5 14L5 13L4 13L4 11L7 11L7 10L3 10L3 9L2 9L2 8L0 8L0 9L2 9L2 12L1 12L1 11L0 11L0 13L1 13L1 14L2 14L2 16L1 16L1 15L0 15L0 18L3 18L3 19L4 19L4 20L2 20L2 21L0 21L0 22L2 22L2 21L3 21L3 22L4 22L4 24L2 24L2 23L0 23L0 24L2 24L2 25L1 25L1 26L0 26L0 27L1 27L1 28L0 28L0 30L1 30L1 31L0 31L0 34L1 34L1 35L0 35L0 37L1 37L1 38L2 38L2 37L3 37L3 36L4 36L4 35L5 35L5 37L4 37L4 39L3 39L3 40L2 40L2 42L1 42L1 43L0 43L0 48L5 48L5 47L7 47L7 48L6 48L6 49L8 49L8 52L9 52L9 53L10 53L10 54L9 54L9 55L8 55L8 57L9 57L9 56L11 56L11 54L12 54L12 53L10 53L10 52L13 52L13 51L14 51L14 53L15 53L15 54L14 54L14 55L15 55L15 56L14 56L14 57L19 57L19 56L18 56L18 54L17 54L17 53L20 53L20 52L18 52L18 50L17 50L17 53L16 53L16 51L15 51L15 50L16 50L16 49L14 49L14 48L17 48L17 46L19 46L19 48L18 48L18 49L19 49L19 51L21 51L21 54L20 54L20 55L21 55L21 56L22 56L22 54L23 54L23 57L24 57L24 53L25 53L25 54L26 54L26 53L29 53L29 54L28 54L28 55L26 55L26 56L27 56L27 57L28 57L28 56L30 56L30 57L35 57L35 56L36 56L36 57L38 57L38 55L39 55L39 54L40 54L40 55L41 55L41 54L43 54L43 52L44 52L44 49L45 49L45 50L46 50L46 51L45 51L45 52L46 52L46 53L44 53L44 54L45 54L45 55L47 55L47 54L48 54L48 55L49 55L49 57L51 57L51 56L52 56L52 57L53 57L53 56L55 56L55 57L56 57L56 56L55 56L55 55L57 55L57 54L55 54L55 55L53 55L53 54L54 54L54 52L55 52L55 53L56 53L56 52L55 52L55 51L54 51L54 52L53 52L53 48L55 48L55 47L56 47L56 49L54 49L54 50L57 50L57 47L56 47L56 46L57 46L57 44L56 44L56 43L57 43L57 41L55 41L55 42L56 42L56 43L53 43L53 42L52 42L52 41L53 41L53 40L52 40L52 36L53 36L53 35L50 35L50 33L51 33L51 32L52 32L52 34L54 34L54 36L55 36L55 37L56 37L56 38L54 38L54 40L55 40L55 39L56 39L56 40L57 40L57 37L56 37L56 34L57 34L57 33L56 33L56 34L54 34L54 33L55 33L55 32L57 32L57 30L56 30L56 31L55 31L55 30L54 30L54 29L55 29L55 26L57 26L57 25L54 25L54 24L57 24L57 23L54 23L54 22L56 22L56 20L57 20L57 18L56 18L56 17L57 17L57 16L55 16L55 13L56 13L56 14L57 14L57 13L56 13L56 12L55 12L55 11L56 11L56 9L54 9L54 8L52 8L52 9L54 9L54 10L55 10L55 11L53 11L53 12L52 12L52 13L51 13L51 14L50 14L50 13L49 13L49 12L51 12L51 11L52 11L52 10L51 10L51 9L47 9L47 8L48 8L48 7L49 7L49 6L48 6L48 7L47 7L47 5L48 5L48 0L45 0L45 2L44 2L44 0L40 0L40 1L41 1L41 2L42 2L42 1L43 1L43 2L44 2L44 3L42 3L42 4L41 4L41 3L40 3L40 2L38 2L38 3L37 3L37 2L36 2L36 0L34 0L34 1L35 1L35 2L34 2L34 4L35 4L35 5L37 5L37 6L36 6L36 7L35 7L35 6L34 6L34 7L33 7L33 6L32 6L32 7L31 7L31 5L33 5L33 1L32 1L32 0L28 0L28 1L27 1L27 0L26 0L26 1L27 1L27 3L25 3L25 0L24 0L24 1L23 1L23 2L24 2L24 3L22 3L22 1L21 1L21 0L20 0L20 1L21 1L21 2L20 2L20 4L19 4L19 0L18 0L18 3L16 3L16 2L17 2L17 0L16 0L16 1L15 1L15 3L14 3L14 2L13 2L13 1L12 1L12 0ZM38 0L38 1L39 1L39 0ZM11 1L11 2L10 2L10 3L11 3L11 2L12 2L12 1ZM28 1L28 2L29 2L29 3L31 3L31 1L30 1L30 2L29 2L29 1ZM46 1L46 2L47 2L47 1ZM35 2L35 3L36 3L36 2ZM12 3L12 4L13 4L13 3ZM38 3L38 4L37 4L37 5L39 5L39 3ZM45 3L45 5L44 5L44 4L43 4L43 7L44 7L44 6L45 6L45 7L46 7L46 8L47 8L47 7L46 7L46 5L47 5L47 3ZM14 4L14 5L15 5L15 4ZM16 4L16 6L15 6L15 7L14 7L14 6L13 6L13 7L14 7L14 9L13 9L13 8L12 8L12 9L11 9L11 11L13 11L13 12L12 12L12 13L13 13L13 16L12 16L12 15L11 15L11 16L12 16L12 17L11 17L11 18L10 18L10 19L9 19L9 20L10 20L10 21L9 21L9 22L8 22L8 23L9 23L9 25L3 25L3 27L4 27L4 26L9 26L9 27L10 27L10 28L9 28L9 29L10 29L10 30L12 30L12 31L11 31L11 32L12 32L12 33L10 33L10 31L8 31L8 32L7 32L7 31L6 31L6 32L4 32L4 31L3 31L3 28L2 28L2 29L1 29L1 30L2 30L2 32L1 32L1 34L5 34L5 35L6 35L6 36L7 36L7 35L8 35L8 34L9 34L9 36L8 36L8 37L5 37L5 41L4 41L4 40L3 40L3 41L4 41L4 42L2 42L2 44L3 44L3 43L5 43L5 44L4 44L4 45L2 45L2 46L1 46L1 47L2 47L2 46L3 46L3 47L5 47L5 46L4 46L4 45L5 45L5 44L7 44L7 43L6 43L6 42L8 42L8 41L9 41L9 44L8 44L8 48L9 48L9 50L11 50L11 49L12 49L12 50L13 50L13 48L12 48L12 45L15 45L15 44L16 44L16 45L18 45L18 44L16 44L16 43L17 43L17 42L19 42L19 43L20 43L20 44L19 44L19 45L21 45L21 46L20 46L20 48L21 48L21 49L20 49L20 50L21 50L21 51L22 51L22 53L24 53L24 52L23 52L23 50L22 50L22 47L21 47L21 46L22 46L22 43L23 43L23 44L24 44L24 41L25 41L25 42L26 42L26 41L28 41L28 42L27 42L27 45L25 45L25 46L27 46L27 47L28 47L28 48L31 48L31 50L32 50L32 51L31 51L31 53L30 53L30 56L33 56L33 55L31 55L31 53L32 53L32 54L33 54L33 53L34 53L34 55L35 55L35 52L33 52L33 49L32 49L32 47L33 47L33 44L32 44L32 43L30 43L30 41L32 41L32 42L35 42L35 40L34 40L34 38L37 38L37 37L38 37L38 39L37 39L37 41L38 41L38 42L36 42L36 43L35 43L35 44L36 44L36 43L38 43L38 42L39 42L39 44L38 44L38 45L36 45L36 46L37 46L37 47L38 47L38 48L37 48L37 49L36 49L36 47L35 47L35 49L34 49L34 50L35 50L35 49L36 49L36 50L37 50L37 49L38 49L38 50L40 50L40 51L39 51L39 52L38 52L38 51L36 51L36 52L38 52L38 54L39 54L39 53L42 53L42 51L43 51L43 50L40 50L40 47L38 47L38 45L39 45L39 46L41 46L41 47L42 47L42 46L41 46L41 44L40 44L40 42L41 42L41 43L42 43L42 45L43 45L43 43L44 43L44 42L43 42L43 43L42 43L42 42L41 42L41 40L40 40L40 39L41 39L41 38L42 38L42 40L44 40L44 41L46 41L46 43L45 43L45 44L44 44L44 46L43 46L43 49L44 49L44 47L45 47L45 44L47 44L47 47L46 47L46 50L47 50L47 52L48 52L48 49L47 49L47 48L49 48L49 47L48 47L48 46L49 46L49 45L51 45L51 46L50 46L50 47L52 47L52 48L53 48L53 46L54 46L54 47L55 47L55 46L54 46L54 45L56 45L56 44L53 44L53 46L52 46L52 45L51 45L51 44L52 44L52 42L51 42L51 41L52 41L52 40L50 40L50 39L51 39L51 37L50 37L50 36L49 36L49 35L48 35L48 36L49 36L49 37L48 37L48 38L47 38L47 37L46 37L46 40L44 40L44 39L45 39L45 38L44 38L44 39L43 39L43 38L42 38L42 37L44 37L44 36L42 36L42 35L45 35L45 36L46 36L46 35L47 35L47 34L45 34L45 32L46 32L46 33L48 33L48 34L49 34L49 33L50 33L50 32L51 32L51 31L50 31L50 32L49 32L49 31L44 31L44 30L45 30L45 29L46 29L46 30L48 30L48 29L46 29L46 27L47 27L47 24L45 24L45 25L44 25L44 21L45 21L45 19L47 19L47 20L46 20L46 21L47 21L47 22L48 22L48 25L50 25L50 26L51 26L51 25L52 25L52 23L53 23L53 22L52 22L52 23L51 23L51 22L48 22L48 21L50 21L50 20L51 20L51 21L55 21L55 20L53 20L53 19L56 19L56 18L55 18L55 16L53 16L53 13L52 13L52 15L50 15L50 14L49 14L49 15L48 15L48 14L47 14L47 13L48 13L48 12L47 12L47 11L48 11L48 10L46 10L46 12L45 12L45 11L44 11L44 10L45 10L45 8L43 8L43 9L44 9L44 10L41 10L41 9L42 9L42 8L41 8L41 7L42 7L42 5L41 5L41 4L40 4L40 6L39 6L39 7L38 7L38 6L37 6L37 7L36 7L36 8L33 8L33 7L32 7L32 8L31 8L31 9L33 9L33 10L30 10L30 14L29 14L29 13L28 13L28 11L29 11L29 9L28 9L28 11L26 11L26 12L27 12L27 13L26 13L26 14L24 14L24 15L23 15L23 13L24 13L24 12L25 12L25 11L24 11L24 10L23 10L23 9L25 9L25 10L26 10L26 9L25 9L25 8L26 8L26 4L25 4L25 8L24 8L24 6L23 6L23 5L24 5L24 4L23 4L23 5L22 5L22 6L21 6L21 8L20 8L20 9L21 9L21 8L22 8L22 10L19 10L19 11L21 11L21 12L19 12L19 15L20 15L20 14L22 14L22 17L23 17L23 16L24 16L24 15L26 15L26 14L27 14L27 13L28 13L28 15L27 15L27 16L26 16L26 17L25 17L25 18L24 18L24 19L23 19L23 18L22 18L22 19L21 19L21 20L20 20L20 19L19 19L19 20L20 20L20 21L17 21L17 20L18 20L18 19L17 19L17 20L16 20L16 19L14 19L14 20L13 20L13 21L15 21L15 20L16 20L16 22L17 22L17 24L16 24L16 26L15 26L15 28L16 28L16 27L17 27L17 28L18 28L18 29L16 29L16 30L15 30L15 29L14 29L14 30L12 30L12 29L13 29L13 28L14 28L14 26L12 26L12 25L13 25L13 24L12 24L12 23L13 23L13 22L11 22L11 20L12 20L12 19L11 19L11 18L12 18L12 17L13 17L13 16L14 16L14 18L15 18L15 17L16 17L16 18L18 18L18 17L17 17L17 16L16 16L16 15L15 15L15 16L14 16L14 14L15 14L15 12L16 12L16 11L18 11L18 10L16 10L16 11L15 11L15 12L14 12L14 11L13 11L13 10L14 10L14 9L15 9L15 8L17 8L17 7L18 7L18 8L19 8L19 7L20 7L20 5L19 5L19 4L18 4L18 5L17 5L17 4ZM18 5L18 7L19 7L19 5ZM27 5L27 8L30 8L30 5ZM8 6L8 7L9 7L9 6ZM16 6L16 7L17 7L17 6ZM22 6L22 8L23 8L23 6ZM28 6L28 7L29 7L29 6ZM40 6L40 7L39 7L39 8L38 8L38 7L37 7L37 8L36 8L36 13L35 13L35 14L34 14L34 16L35 16L35 17L37 17L37 18L38 18L38 20L39 20L39 21L37 21L37 20L36 20L36 18L35 18L35 20L34 20L34 19L33 19L33 17L32 17L32 16L31 16L31 14L33 14L33 12L35 12L35 9L34 9L34 10L33 10L33 12L32 12L32 11L31 11L31 12L32 12L32 13L31 13L31 14L30 14L30 15L28 15L28 18L30 18L30 19L29 19L29 20L30 20L30 21L27 21L27 20L28 20L28 19L27 19L27 20L26 20L26 19L25 19L25 20L24 20L24 21L23 21L23 22L24 22L24 21L25 21L25 22L26 22L26 23L25 23L25 24L24 24L24 23L21 23L21 24L22 24L22 25L23 25L23 27L22 27L22 26L21 26L21 28L20 28L20 26L19 26L19 28L20 28L20 29L18 29L18 30L16 30L16 31L18 31L18 30L20 30L20 31L19 31L19 32L17 32L17 33L15 33L15 34L18 34L18 33L19 33L19 35L22 35L22 39L21 39L21 36L18 36L18 35L17 35L17 36L16 36L16 35L15 35L15 36L14 36L14 34L11 34L11 35L13 35L13 36L12 36L12 37L11 37L11 36L9 36L9 38L8 38L8 39L7 39L7 38L6 38L6 39L7 39L7 40L6 40L6 41L7 41L7 40L10 40L10 41L11 41L11 40L10 40L10 39L9 39L9 38L10 38L10 37L11 37L11 38L12 38L12 41L13 41L13 42L11 42L11 44L9 44L9 45L12 45L12 43L13 43L13 44L15 44L15 42L16 42L16 40L18 40L18 41L21 41L21 42L20 42L20 43L21 43L21 42L23 42L23 41L24 41L24 40L25 40L25 39L26 39L26 40L27 40L27 38L25 38L25 37L26 37L26 36L24 36L24 38L23 38L23 34L25 34L25 33L26 33L26 35L27 35L27 36L28 36L28 37L30 37L30 36L31 36L31 34L32 34L32 32L31 32L31 31L32 31L32 30L33 30L33 32L35 32L35 33L34 33L34 34L33 34L33 35L32 35L32 37L31 37L31 38L30 38L30 39L28 39L28 40L30 40L30 39L31 39L31 40L33 40L33 38L34 38L34 37L35 37L35 35L36 35L36 34L35 34L35 33L38 33L38 34L37 34L37 36L36 36L36 37L37 37L37 36L38 36L38 37L39 37L39 38L40 38L40 37L41 37L41 36L40 36L40 35L41 35L41 34L44 34L44 31L43 31L43 33L38 33L38 28L37 28L37 27L39 27L39 28L40 28L40 27L41 27L41 29L39 29L39 30L40 30L40 31L39 31L39 32L41 32L41 31L42 31L42 30L44 30L44 27L41 27L41 26L44 26L44 25L41 25L41 24L40 24L40 25L39 25L39 26L37 26L37 25L38 25L38 23L37 23L37 22L39 22L39 23L40 23L40 22L41 22L41 23L42 23L42 24L43 24L43 23L42 23L42 22L43 22L43 21L44 21L44 19L45 19L45 17L46 17L46 15L47 15L47 18L49 18L49 19L51 19L51 18L52 18L52 19L53 19L53 18L54 18L54 17L53 17L53 18L52 18L52 16L50 16L50 15L49 15L49 16L48 16L48 15L47 15L47 14L46 14L46 15L44 15L44 14L43 14L43 12L42 12L42 11L41 11L41 12L40 12L40 14L38 14L38 12L39 12L39 11L40 11L40 10L39 10L39 8L40 8L40 7L41 7L41 6ZM5 8L5 9L8 9L8 8ZM12 9L12 10L13 10L13 9ZM22 10L22 12L24 12L24 11L23 11L23 10ZM38 10L38 11L37 11L37 12L38 12L38 11L39 11L39 10ZM49 10L49 11L50 11L50 10ZM9 11L9 12L10 12L10 11ZM6 12L6 13L7 13L7 12ZM41 12L41 13L42 13L42 12ZM44 12L44 13L45 13L45 12ZM3 13L3 14L4 14L4 13ZM9 13L9 14L11 14L11 13ZM16 13L16 14L17 14L17 15L18 15L18 14L17 14L17 13ZM36 13L36 14L35 14L35 16L37 16L37 15L36 15L36 14L37 14L37 13ZM41 14L41 16L39 16L39 15L38 15L38 16L39 16L39 17L38 17L38 18L39 18L39 17L40 17L40 19L41 19L41 20L40 20L40 21L41 21L41 22L42 22L42 21L43 21L43 19L42 19L42 18L41 18L41 17L43 17L43 18L44 18L44 17L45 17L45 16L44 16L44 17L43 17L43 16L42 16L42 15L43 15L43 14ZM20 17L20 18L21 18L21 17ZM50 17L50 18L51 18L51 17ZM31 18L31 19L32 19L32 21L33 21L33 19L32 19L32 18ZM0 19L0 20L1 20L1 19ZM5 19L5 20L4 20L4 22L5 22L5 24L7 24L7 23L6 23L6 22L7 22L7 21L8 21L8 20L7 20L7 19ZM10 19L10 20L11 20L11 19ZM6 20L6 21L7 21L7 20ZM25 20L25 21L26 21L26 22L27 22L27 25L25 25L25 26L24 26L24 27L25 27L25 29L26 29L26 27L25 27L25 26L27 26L27 25L28 25L28 24L29 24L29 22L27 22L27 21L26 21L26 20ZM35 20L35 22L34 22L34 23L35 23L35 22L36 22L36 20ZM41 20L41 21L42 21L42 20ZM47 20L47 21L48 21L48 20ZM20 21L20 22L18 22L18 25L20 25L20 24L19 24L19 23L20 23L20 22L22 22L22 21ZM9 22L9 23L11 23L11 22ZM14 22L14 23L15 23L15 22ZM30 22L30 23L31 23L31 26L32 26L32 25L33 25L33 27L31 27L31 28L32 28L32 29L34 29L34 31L35 31L35 32L37 32L37 29L35 29L35 28L36 28L36 26L35 26L35 25L33 25L33 23L32 23L32 22ZM36 23L36 24L37 24L37 23ZM49 23L49 24L50 24L50 25L51 25L51 24L50 24L50 23ZM10 24L10 25L9 25L9 26L10 26L10 27L11 27L11 28L12 28L12 26L11 26L11 25L12 25L12 24ZM14 24L14 25L15 25L15 24ZM40 25L40 26L41 26L41 25ZM45 25L45 27L46 27L46 25ZM53 25L53 27L54 27L54 25ZM17 26L17 27L18 27L18 26ZM34 26L34 27L33 27L33 28L35 28L35 26ZM5 27L5 30L8 30L8 27ZM27 27L27 30L30 30L30 27ZM49 27L49 30L52 30L52 27ZM56 27L56 28L57 28L57 27ZM6 28L6 29L7 29L7 28ZM22 28L22 31L21 31L21 32L20 32L20 33L22 33L22 34L23 34L23 33L24 33L24 32L23 32L23 31L26 31L26 33L27 33L27 32L28 32L28 33L30 33L30 32L29 32L29 31L26 31L26 30L23 30L23 28ZM28 28L28 29L29 29L29 28ZM42 28L42 29L41 29L41 30L42 30L42 29L43 29L43 28ZM50 28L50 29L51 29L51 28ZM53 28L53 29L54 29L54 28ZM20 29L20 30L21 30L21 29ZM14 30L14 31L15 31L15 30ZM35 30L35 31L36 31L36 30ZM3 32L3 33L4 33L4 32ZM6 32L6 33L7 33L7 34L6 34L6 35L7 35L7 34L8 34L8 33L7 33L7 32ZM53 32L53 33L54 33L54 32ZM9 33L9 34L10 34L10 33ZM28 34L28 36L29 36L29 35L30 35L30 34ZM1 35L1 36L2 36L2 35ZM15 36L15 39L14 39L14 40L13 40L13 41L14 41L14 40L16 40L16 39L17 39L17 38L19 38L19 39L20 39L20 40L21 40L21 41L23 41L23 40L24 40L24 39L22 39L22 40L21 40L21 39L20 39L20 38L19 38L19 37L16 37L16 36ZM39 36L39 37L40 37L40 36ZM12 37L12 38L14 38L14 37ZM48 38L48 39L47 39L47 40L46 40L46 41L47 41L47 40L48 40L48 43L49 43L49 44L48 44L48 45L49 45L49 44L51 44L51 42L49 42L49 41L50 41L50 40L48 40L48 39L50 39L50 38ZM38 39L38 41L39 41L39 42L40 42L40 41L39 41L39 39ZM0 40L0 41L1 41L1 40ZM13 42L13 43L14 43L14 42ZM28 43L28 46L30 46L30 47L32 47L32 45L31 45L31 44L30 44L30 43ZM6 45L6 46L7 46L7 45ZM10 46L10 49L11 49L11 46ZM13 46L13 47L14 47L14 46ZM23 47L23 49L26 49L26 48L25 48L25 47ZM41 48L41 49L42 49L42 48ZM27 49L27 52L30 52L30 49ZM49 49L49 52L52 52L52 49ZM25 50L25 52L26 52L26 50ZM28 50L28 51L29 51L29 50ZM50 50L50 51L51 51L51 50ZM40 51L40 52L41 52L41 51ZM36 53L36 56L37 56L37 53ZM46 53L46 54L47 54L47 53ZM49 53L49 54L50 54L50 53ZM51 53L51 55L50 55L50 56L51 56L51 55L52 55L52 54L53 54L53 53ZM16 54L16 55L17 55L17 54ZM41 56L41 57L44 57L44 56ZM0 0L0 7L7 7L7 0ZM1 1L1 6L6 6L6 1ZM2 2L2 5L5 5L5 2ZM50 0L50 7L57 7L57 0ZM51 1L51 6L56 6L56 1ZM52 2L52 5L55 5L55 2ZM0 50L0 57L7 57L7 50ZM1 51L1 56L6 56L6 51ZM2 52L2 55L5 55L5 52Z" fill="#000000"/></g></g></svg>
