<?xml version="1.0" encoding="UTF-8"?>
<svg xmlns="http://www.w3.org/2000/svg" version="1.1" width="300" height="300" viewBox="0 0 300 300"><rect x="0" y="0" width="300" height="300" fill="#ffffff"/><g transform="scale(5.263)"><g transform="translate(0,0)"><path fill-rule="evenodd" d="M10 0L10 1L8 1L8 2L9 2L9 3L8 3L8 4L9 4L9 3L11 3L11 4L12 4L12 5L11 5L11 6L10 6L10 5L8 5L8 7L9 7L9 6L10 6L10 8L12 8L12 7L13 7L13 5L16 5L16 4L13 4L13 3L11 3L11 2L13 2L13 0L12 0L12 1L11 1L11 0ZM17 0L17 1L18 1L18 0ZM21 0L21 1L19 1L19 2L17 2L17 3L18 3L18 4L17 4L17 6L16 6L16 7L15 7L15 6L14 6L14 8L13 8L13 9L11 9L11 10L10 10L10 9L9 9L9 8L6 8L6 9L7 9L7 10L6 10L6 11L7 11L7 12L5 12L5 8L0 8L0 9L1 9L1 10L2 10L2 14L1 14L1 11L0 11L0 16L1 16L1 19L0 19L0 20L1 20L1 21L0 21L0 22L2 22L2 21L3 21L3 20L4 20L4 22L3 22L3 23L2 23L2 24L4 24L4 23L5 23L5 24L6 24L6 25L5 25L5 26L2 26L2 25L1 25L1 24L0 24L0 27L1 27L1 26L2 26L2 27L3 27L3 29L2 29L2 28L1 28L1 29L0 29L0 31L1 31L1 30L3 30L3 29L4 29L4 31L5 31L5 32L6 32L6 33L7 33L7 34L5 34L5 35L4 35L4 33L3 33L3 32L0 32L0 34L1 34L1 36L0 36L0 37L1 37L1 38L0 38L0 39L2 39L2 40L0 40L0 41L2 41L2 42L1 42L1 43L2 43L2 42L3 42L3 40L4 40L4 41L8 41L8 42L5 42L5 43L3 43L3 44L2 44L2 45L1 45L1 44L0 44L0 45L1 45L1 46L0 46L0 48L5 48L5 47L7 47L7 48L6 48L6 49L8 49L8 51L9 51L9 52L8 52L8 57L9 57L9 54L10 54L10 57L11 57L11 55L12 55L12 54L10 54L10 53L9 53L9 52L11 52L11 53L12 53L12 52L14 52L14 53L13 53L13 56L14 56L14 57L15 57L15 56L14 56L14 55L16 55L16 57L19 57L19 55L20 55L20 54L19 54L19 55L17 55L17 54L18 54L18 53L20 53L20 52L22 52L22 51L23 51L23 50L25 50L25 51L26 51L26 52L24 52L24 53L22 53L22 55L21 55L21 56L20 56L20 57L21 57L21 56L24 56L24 57L26 57L26 56L28 56L28 57L29 57L29 56L30 56L30 57L38 57L38 55L37 55L37 54L38 54L38 53L39 53L39 55L40 55L40 56L41 56L41 54L44 54L44 52L43 52L43 51L44 51L44 48L45 48L45 49L46 49L46 48L45 48L45 47L42 47L42 46L44 46L44 44L45 44L45 43L46 43L46 45L47 45L47 48L48 48L48 51L47 51L47 52L46 52L46 53L47 53L47 56L45 56L45 55L46 55L46 54L45 54L45 55L44 55L44 56L43 56L43 55L42 55L42 56L43 56L43 57L44 57L44 56L45 56L45 57L48 57L48 55L49 55L49 57L50 57L50 55L49 55L49 54L55 54L55 53L56 53L56 52L55 52L55 51L54 51L54 50L53 50L53 48L55 48L55 50L57 50L57 49L56 49L56 48L57 48L57 47L56 47L56 48L55 48L55 46L57 46L57 44L55 44L55 43L56 43L56 42L57 42L57 41L55 41L55 39L57 39L57 37L56 37L56 36L57 36L57 35L55 35L55 34L57 34L57 33L54 33L54 32L57 32L57 31L56 31L56 30L57 30L57 29L55 29L55 27L56 27L56 28L57 28L57 27L56 27L56 26L55 26L55 25L57 25L57 23L53 23L53 25L54 25L54 27L53 27L53 26L50 26L50 25L49 25L49 24L50 24L50 23L51 23L51 24L52 24L52 22L50 22L50 21L48 21L48 20L47 20L47 19L46 19L46 20L45 20L45 21L46 21L46 20L47 20L47 21L48 21L48 24L46 24L46 23L47 23L47 22L45 22L45 23L44 23L44 22L43 22L43 21L44 21L44 19L43 19L43 17L44 17L44 16L45 16L45 17L47 17L47 18L49 18L49 19L51 19L51 20L53 20L53 22L57 22L57 21L54 21L54 20L56 20L56 18L55 18L55 17L54 17L54 16L55 16L55 15L56 15L56 13L57 13L57 11L56 11L56 8L55 8L55 9L54 9L54 8L53 8L53 9L54 9L54 10L55 10L55 11L52 11L52 12L54 12L54 13L52 13L52 14L50 14L50 13L49 13L49 11L48 11L48 10L50 10L50 8L48 8L48 7L49 7L49 6L48 6L48 7L47 7L47 5L48 5L48 0L45 0L45 1L44 1L44 2L42 2L42 1L43 1L43 0L42 0L42 1L41 1L41 2L40 2L40 1L38 1L38 0L37 0L37 1L38 1L38 3L36 3L36 2L34 2L34 1L33 1L33 0L32 0L32 1L31 1L31 0L29 0L29 2L30 2L30 3L29 3L29 4L26 4L26 3L23 3L23 2L24 2L24 1L26 1L26 0L23 0L23 2L22 2L22 0ZM27 0L27 1L28 1L28 0ZM10 1L10 2L11 2L11 1ZM14 1L14 3L15 3L15 1ZM32 1L32 2L33 2L33 1ZM45 1L45 2L47 2L47 1ZM20 2L20 3L19 3L19 4L18 4L18 5L19 5L19 7L20 7L20 5L19 5L19 4L22 4L22 5L21 5L21 7L22 7L22 6L23 6L23 8L20 8L20 10L19 10L19 9L18 9L18 6L17 6L17 7L16 7L16 8L14 8L14 9L15 9L15 10L16 10L16 11L15 11L15 12L17 12L17 13L13 13L13 12L14 12L14 11L13 11L13 10L12 10L12 11L11 11L11 12L12 12L12 13L9 13L9 12L10 12L10 11L9 11L9 10L7 10L7 11L9 11L9 12L8 12L8 13L6 13L6 14L7 14L7 15L6 15L6 16L9 16L9 15L11 15L11 16L10 16L10 19L11 19L11 21L10 21L10 22L11 22L11 23L8 23L8 22L9 22L9 19L8 19L8 18L7 18L7 17L6 17L6 18L7 18L7 19L6 19L6 20L7 20L7 21L6 21L6 22L5 22L5 23L6 23L6 24L9 24L9 26L10 26L10 27L9 27L9 29L10 29L10 30L11 30L11 31L9 31L9 32L10 32L10 33L11 33L11 34L9 34L9 33L8 33L8 32L7 32L7 31L6 31L6 32L7 32L7 33L8 33L8 35L5 35L5 36L3 36L3 37L2 37L2 36L1 36L1 37L2 37L2 39L4 39L4 40L7 40L7 39L10 39L10 38L9 38L9 37L6 37L6 36L8 36L8 35L9 35L9 36L10 36L10 35L12 35L12 37L11 37L11 41L12 41L12 42L13 42L13 38L15 38L15 39L16 39L16 40L18 40L18 39L17 39L17 36L19 36L19 37L21 37L21 38L22 38L22 37L23 37L23 38L24 38L24 37L23 37L23 36L24 36L24 35L26 35L26 36L27 36L27 37L28 37L28 38L27 38L27 39L25 39L25 40L24 40L24 39L23 39L23 40L22 40L22 39L21 39L21 41L18 41L18 42L17 42L17 41L15 41L15 42L17 42L17 43L12 43L12 44L11 44L11 43L10 43L10 44L9 44L9 47L8 47L8 48L9 48L9 50L10 50L10 49L11 49L11 48L10 48L10 44L11 44L11 46L12 46L12 45L13 45L13 46L14 46L14 49L13 49L13 47L12 47L12 49L13 49L13 50L12 50L12 51L13 51L13 50L14 50L14 52L16 52L16 53L14 53L14 54L16 54L16 53L17 53L17 52L18 52L18 51L16 51L16 50L17 50L17 49L16 49L16 48L17 48L17 47L18 47L18 48L19 48L19 47L20 47L20 48L21 48L21 49L20 49L20 50L19 50L19 49L18 49L18 50L19 50L19 52L20 52L20 50L22 50L22 49L26 49L26 48L29 48L29 47L28 47L28 46L33 46L33 48L31 48L31 47L30 47L30 48L31 48L31 49L32 49L32 50L31 50L31 51L32 51L32 53L30 53L30 54L29 54L29 53L26 53L26 54L25 54L25 53L24 53L24 54L23 54L23 55L24 55L24 56L25 56L25 55L30 55L30 56L34 56L34 55L35 55L35 56L36 56L36 54L37 54L37 53L36 53L36 52L39 52L39 53L40 53L40 54L41 54L41 53L43 53L43 52L42 52L42 51L43 51L43 50L41 50L41 48L42 48L42 47L41 47L41 48L40 48L40 46L42 46L42 44L44 44L44 43L42 43L42 42L41 42L41 41L42 41L42 39L43 39L43 38L44 38L44 37L45 37L45 38L47 38L47 39L46 39L46 40L44 40L44 41L43 41L43 42L46 42L46 43L47 43L47 45L48 45L48 44L49 44L49 46L50 46L50 47L52 47L52 46L55 46L55 45L53 45L53 44L52 44L52 45L51 45L51 46L50 46L50 44L49 44L49 43L51 43L51 42L50 42L50 40L51 40L51 41L52 41L52 43L54 43L54 42L53 42L53 41L52 41L52 40L53 40L53 39L52 39L52 38L54 38L54 36L52 36L52 35L53 35L53 34L54 34L54 33L51 33L51 32L49 32L49 31L48 31L48 32L46 32L46 34L44 34L44 33L45 33L45 32L44 32L44 33L43 33L43 32L42 32L42 30L41 30L41 28L38 28L38 31L37 31L37 33L38 33L38 34L39 34L39 36L38 36L38 35L37 35L37 34L36 34L36 33L35 33L35 32L36 32L36 30L37 30L37 29L36 29L36 28L37 28L37 27L36 27L36 28L35 28L35 27L34 27L34 26L37 26L37 25L35 25L35 24L36 24L36 23L37 23L37 21L36 21L36 22L35 22L35 20L36 20L36 19L38 19L38 20L39 20L39 21L38 21L38 24L39 24L39 25L38 25L38 26L39 26L39 25L40 25L40 27L41 27L41 23L39 23L39 21L40 21L40 22L41 22L41 21L42 21L42 20L43 20L43 19L42 19L42 18L41 18L41 15L43 15L43 16L44 16L44 15L45 15L45 14L47 14L47 12L48 12L48 11L47 11L47 12L46 12L46 13L45 13L45 12L44 12L44 13L43 13L43 12L42 12L42 10L41 10L41 9L42 9L42 8L44 8L44 10L43 10L43 11L45 11L45 10L47 10L47 9L48 9L48 8L47 8L47 7L46 7L46 6L45 6L45 7L46 7L46 9L45 9L45 8L44 8L44 5L47 5L47 3L46 3L46 4L45 4L45 3L43 3L43 5L42 5L42 4L41 4L41 3L40 3L40 2L39 2L39 4L37 4L37 5L40 5L40 4L41 4L41 5L42 5L42 6L41 6L41 8L37 8L37 7L38 7L38 6L37 6L37 7L36 7L36 6L35 6L35 7L36 7L36 8L34 8L34 6L33 6L33 5L35 5L35 3L32 3L32 4L31 4L31 5L32 5L32 6L31 6L31 7L32 7L32 8L31 8L31 9L32 9L32 10L31 10L31 11L30 11L30 10L29 10L29 9L25 9L25 10L23 10L23 12L24 12L24 13L25 13L25 10L26 10L26 14L27 14L27 15L25 15L25 16L23 16L23 15L22 15L22 16L21 16L21 13L22 13L22 14L23 14L23 13L22 13L22 12L19 12L19 13L20 13L20 14L19 14L19 17L18 17L18 18L17 18L17 16L16 16L16 15L18 15L18 14L17 14L17 13L18 13L18 12L17 12L17 11L18 11L18 10L19 10L19 11L22 11L22 9L23 9L23 8L24 8L24 6L23 6L23 5L24 5L24 4L23 4L23 3L21 3L21 2ZM27 2L27 3L28 3L28 2ZM25 4L25 8L26 8L26 4ZM32 4L32 5L33 5L33 4ZM27 5L27 8L30 8L30 5ZM11 6L11 7L12 7L12 6ZM28 6L28 7L29 7L29 6ZM32 6L32 7L33 7L33 6ZM39 6L39 7L40 7L40 6ZM42 6L42 7L43 7L43 6ZM16 8L16 9L17 9L17 8ZM36 8L36 9L35 9L35 10L34 10L34 9L33 9L33 12L34 12L34 13L33 13L33 14L32 14L32 12L31 12L31 14L30 14L30 13L27 13L27 14L30 14L30 15L29 15L29 16L28 16L28 15L27 15L27 16L25 16L25 17L24 17L24 18L20 18L20 17L21 17L21 16L20 16L20 17L19 17L19 18L18 18L18 19L19 19L19 20L17 20L17 18L15 18L15 17L16 17L16 16L15 16L15 15L16 15L16 14L15 14L15 15L14 15L14 14L13 14L13 13L12 13L12 14L13 14L13 15L12 15L12 16L13 16L13 17L12 17L12 18L13 18L13 17L14 17L14 18L15 18L15 19L16 19L16 20L15 20L15 21L16 21L16 22L14 22L14 21L12 21L12 23L11 23L11 24L10 24L10 25L11 25L11 26L12 26L12 27L13 27L13 28L15 28L15 29L16 29L16 28L17 28L17 29L18 29L18 30L14 30L14 29L13 29L13 30L12 30L12 31L11 31L11 33L12 33L12 31L15 31L15 33L16 33L16 31L18 31L18 33L17 33L17 34L18 34L18 35L19 35L19 34L20 34L20 33L21 33L21 35L24 35L24 34L25 34L25 33L28 33L28 31L32 31L32 27L33 27L33 26L34 26L34 24L35 24L35 22L34 22L34 21L33 21L33 22L32 22L32 23L33 23L33 22L34 22L34 24L31 24L31 20L33 20L33 18L34 18L34 20L35 20L35 18L34 18L34 17L32 17L32 15L33 15L33 16L35 16L35 17L36 17L36 18L38 18L38 19L39 19L39 20L41 20L41 19L39 19L39 18L40 18L40 17L39 17L39 16L40 16L40 14L43 14L43 15L44 15L44 14L45 14L45 13L44 13L44 14L43 14L43 13L42 13L42 12L41 12L41 10L38 10L38 9L37 9L37 8ZM51 8L51 10L52 10L52 8ZM3 9L3 11L4 11L4 9ZM27 10L27 12L30 12L30 11L28 11L28 10ZM36 10L36 11L34 11L34 12L38 12L38 14L37 14L37 15L39 15L39 11L38 11L38 10ZM12 11L12 12L13 12L13 11ZM50 11L50 12L51 12L51 11ZM55 11L55 13L54 13L54 14L52 14L52 15L50 15L50 16L51 16L51 17L50 17L50 18L52 18L52 19L53 19L53 20L54 20L54 18L52 18L52 17L53 17L53 16L54 16L54 15L55 15L55 13L56 13L56 11ZM4 12L4 13L5 13L5 12ZM40 12L40 13L41 13L41 12ZM8 13L8 15L9 15L9 13ZM34 13L34 14L33 14L33 15L34 15L34 14L35 14L35 13ZM4 14L4 16L5 16L5 14ZM31 14L31 15L32 15L32 14ZM48 14L48 15L49 15L49 14ZM2 15L2 16L3 16L3 15ZM13 15L13 16L14 16L14 17L15 17L15 16L14 16L14 15ZM35 15L35 16L36 16L36 15ZM52 15L52 16L53 16L53 15ZM27 16L27 17L25 17L25 18L24 18L24 19L20 19L20 18L19 18L19 19L20 19L20 21L17 21L17 20L16 20L16 21L17 21L17 22L18 22L18 24L19 24L19 26L18 26L18 25L15 25L15 26L14 26L14 25L13 25L13 24L14 24L14 23L13 23L13 24L12 24L12 25L13 25L13 26L14 26L14 27L15 27L15 28L16 28L16 26L18 26L18 27L17 27L17 28L18 28L18 29L19 29L19 26L20 26L20 27L21 27L21 28L22 28L22 29L20 29L20 31L19 31L19 33L18 33L18 34L19 34L19 33L20 33L20 32L21 32L21 33L22 33L22 34L23 34L23 33L25 33L25 32L27 32L27 31L26 31L26 30L24 30L24 31L22 31L22 32L21 32L21 30L23 30L23 29L24 29L24 28L25 28L25 29L26 29L26 27L25 27L25 26L24 26L24 28L23 28L23 25L26 25L26 26L29 26L29 24L30 24L30 22L29 22L29 23L28 23L28 24L25 24L25 23L26 23L26 22L25 22L25 21L26 21L26 20L27 20L27 22L28 22L28 21L29 21L29 20L30 20L30 19L32 19L32 17L31 17L31 18L29 18L29 20L28 20L28 18L27 18L27 17L28 17L28 16ZM4 17L4 18L3 18L3 19L1 19L1 20L3 20L3 19L4 19L4 18L5 18L5 17ZM38 17L38 18L39 18L39 17ZM25 18L25 19L24 19L24 21L23 21L23 22L22 22L22 21L21 21L21 24L20 24L20 25L21 25L21 27L22 27L22 25L21 25L21 24L22 24L22 23L23 23L23 24L24 24L24 23L23 23L23 22L24 22L24 21L25 21L25 20L26 20L26 19L27 19L27 18ZM12 19L12 20L14 20L14 19ZM6 22L6 23L7 23L7 22ZM19 22L19 23L20 23L20 22ZM49 22L49 23L50 23L50 22ZM15 23L15 24L16 24L16 23ZM42 23L42 24L43 24L43 27L42 27L42 28L43 28L43 30L44 30L44 31L45 31L45 30L48 30L48 29L45 29L45 28L43 28L43 27L45 27L45 26L46 26L46 28L48 28L48 27L47 27L47 25L45 25L45 24L43 24L43 23ZM54 24L54 25L55 25L55 24ZM6 25L6 26L8 26L8 25ZM31 25L31 26L32 26L32 25ZM44 25L44 26L45 26L45 25ZM5 27L5 30L8 30L8 27ZM27 27L27 30L30 30L30 27ZM49 27L49 30L52 30L52 27ZM6 28L6 29L7 29L7 28ZM11 28L11 29L12 29L12 28ZM28 28L28 29L29 29L29 28ZM50 28L50 29L51 29L51 28ZM35 29L35 30L36 30L36 29ZM33 30L33 31L34 31L34 32L35 32L35 31L34 31L34 30ZM39 30L39 31L38 31L38 32L39 32L39 31L40 31L40 32L41 32L41 33L40 33L40 34L41 34L41 35L42 35L42 36L41 36L41 37L39 37L39 38L36 38L36 37L37 37L37 35L36 35L36 36L33 36L33 37L35 37L35 38L32 38L32 39L31 39L31 37L32 37L32 35L31 35L31 33L32 33L32 34L33 34L33 35L35 35L35 34L34 34L34 33L32 33L32 32L30 32L30 33L29 33L29 34L28 34L28 35L27 35L27 34L26 34L26 35L27 35L27 36L28 36L28 35L29 35L29 37L30 37L30 38L29 38L29 39L31 39L31 40L28 40L28 39L27 39L27 41L26 41L26 42L28 42L28 43L30 43L30 44L31 44L31 45L32 45L32 44L33 44L33 45L35 45L35 44L36 44L36 46L34 46L34 48L33 48L33 49L34 49L34 48L36 48L36 49L35 49L35 52L34 52L34 51L33 51L33 53L35 53L35 54L36 54L36 53L35 53L35 52L36 52L36 50L38 50L38 49L40 49L40 48L38 48L38 49L37 49L37 48L36 48L36 47L37 47L37 46L38 46L38 47L39 47L39 46L40 46L40 45L39 45L39 44L38 44L38 41L37 41L37 40L36 40L36 39L38 39L38 40L39 40L39 42L40 42L40 40L41 40L41 39L42 39L42 38L43 38L43 37L44 37L44 36L45 36L45 37L47 37L47 38L49 38L49 39L47 39L47 40L48 40L48 41L47 41L47 42L48 42L48 43L49 43L49 42L48 42L48 41L49 41L49 39L50 39L50 38L49 38L49 37L47 37L47 36L48 36L48 35L47 35L47 34L46 34L46 35L44 35L44 36L43 36L43 35L42 35L42 34L43 34L43 33L42 33L42 32L41 32L41 31L40 31L40 30ZM53 30L53 31L52 31L52 32L53 32L53 31L55 31L55 30ZM24 31L24 32L25 32L25 31ZM13 32L13 33L14 33L14 32ZM1 33L1 34L2 34L2 33ZM13 34L13 37L14 37L14 35L15 35L15 34ZM29 34L29 35L30 35L30 34ZM49 34L49 35L50 35L50 34ZM46 35L46 36L47 36L47 35ZM42 36L42 37L41 37L41 38L39 38L39 40L40 40L40 39L41 39L41 38L42 38L42 37L43 37L43 36ZM50 36L50 37L51 37L51 36ZM4 37L4 38L5 38L5 39L7 39L7 38L6 38L6 37ZM15 37L15 38L16 38L16 37ZM25 37L25 38L26 38L26 37ZM55 37L55 38L56 38L56 37ZM19 38L19 39L20 39L20 38ZM32 39L32 40L31 40L31 41L28 41L28 42L31 42L31 44L32 44L32 43L33 43L33 44L35 44L35 43L36 43L36 44L37 44L37 45L38 45L38 46L39 46L39 45L38 45L38 44L37 44L37 43L36 43L36 42L37 42L37 41L35 41L35 39L34 39L34 40L33 40L33 39ZM51 39L51 40L52 40L52 39ZM9 41L9 42L8 42L8 43L5 43L5 44L8 44L8 43L9 43L9 42L10 42L10 41ZM21 41L21 42L18 42L18 43L17 43L17 44L14 44L14 45L17 45L17 46L15 46L15 47L17 47L17 46L18 46L18 47L19 47L19 46L20 46L20 47L21 47L21 48L23 48L23 47L22 47L22 45L24 45L24 47L25 47L25 48L26 48L26 47L27 47L27 46L26 46L26 47L25 47L25 45L26 45L26 44L27 44L27 45L29 45L29 44L27 44L27 43L25 43L25 45L24 45L24 42L25 42L25 41L24 41L24 42L23 42L23 41ZM31 41L31 42L32 42L32 41ZM33 41L33 43L34 43L34 41ZM21 42L21 43L20 43L20 44L19 44L19 45L20 45L20 46L21 46L21 45L22 45L22 44L21 44L21 43L22 43L22 42ZM40 43L40 44L42 44L42 43ZM17 44L17 45L18 45L18 44ZM2 45L2 46L1 46L1 47L2 47L2 46L3 46L3 47L5 47L5 45L4 45L4 46L3 46L3 45ZM6 45L6 46L7 46L7 45ZM48 47L48 48L49 48L49 47ZM15 49L15 50L16 50L16 49ZM27 49L27 52L30 52L30 49ZM49 49L49 52L52 52L52 49ZM28 50L28 51L29 51L29 50ZM45 50L45 51L46 51L46 50ZM50 50L50 51L51 51L51 50ZM40 51L40 52L41 52L41 51ZM47 52L47 53L48 53L48 54L49 54L49 53L48 53L48 52ZM32 54L32 55L34 55L34 54ZM51 55L51 56L52 56L52 55ZM53 55L53 56L54 56L54 57L56 57L56 56L55 56L55 55ZM0 0L0 7L7 7L7 0ZM1 1L1 6L6 6L6 1ZM2 2L2 5L5 5L5 2ZM50 0L50 7L57 7L57 0ZM51 1L51 6L56 6L56 1ZM52 2L52 5L55 5L55 2ZM0 50L0 57L7 57L7 50ZM1 51L1 56L6 56L6 51ZM2 52L2 55L5 55L5 52Z" fill="#000000"/></g></g></svg>
