<?xml version="1.0" encoding="UTF-8"?>
<svg xmlns="http://www.w3.org/2000/svg" version="1.1" width="300" height="300" viewBox="0 0 300 300"><rect x="0" y="0" width="300" height="300" fill="#ffffff"/><g transform="scale(5.263)"><g transform="translate(0,0)"><path fill-rule="evenodd" d="M9 0L9 1L8 1L8 2L9 2L9 1L10 1L10 5L11 5L11 3L13 3L13 4L14 4L14 7L15 7L15 8L16 8L16 9L14 9L14 8L13 8L13 6L12 6L12 7L11 7L11 6L10 6L10 7L11 7L11 9L10 9L10 8L6 8L6 9L8 9L8 10L11 10L11 11L12 11L12 10L13 10L13 11L14 11L14 12L13 12L13 13L11 13L11 14L10 14L10 12L9 12L9 14L8 14L8 15L7 15L7 14L6 14L6 13L8 13L8 12L5 12L5 10L4 10L4 11L3 11L3 10L2 10L2 9L5 9L5 8L0 8L0 9L1 9L1 10L0 10L0 12L1 12L1 14L0 14L0 15L1 15L1 16L0 16L0 18L1 18L1 20L0 20L0 21L1 21L1 20L2 20L2 23L3 23L3 24L4 24L4 23L3 23L3 21L4 21L4 22L6 22L6 23L5 23L5 25L7 25L7 26L4 26L4 25L3 25L3 26L4 26L4 30L3 30L3 29L1 29L1 28L2 28L2 25L1 25L1 23L0 23L0 26L1 26L1 28L0 28L0 30L1 30L1 32L0 32L0 36L1 36L1 35L2 35L2 38L0 38L0 39L1 39L1 40L0 40L0 41L2 41L2 42L3 42L3 43L0 43L0 44L1 44L1 46L0 46L0 48L5 48L5 47L7 47L7 46L6 46L6 45L8 45L8 46L10 46L10 47L9 47L9 48L6 48L6 49L8 49L8 51L9 51L9 48L10 48L10 47L12 47L12 48L11 48L11 50L13 50L13 45L8 45L8 44L10 44L10 42L11 42L11 44L14 44L14 45L15 45L15 44L18 44L18 45L17 45L17 47L16 47L16 46L15 46L15 48L16 48L16 49L15 49L15 50L14 50L14 51L13 51L13 52L12 52L12 51L11 51L11 52L8 52L8 57L11 57L11 55L13 55L13 53L14 53L14 52L15 52L15 53L16 53L16 54L15 54L15 55L14 55L14 57L16 57L16 56L17 56L17 57L20 57L20 56L19 56L19 55L20 55L20 54L19 54L19 53L20 53L20 51L21 51L21 52L22 52L22 51L23 51L23 50L25 50L25 51L26 51L26 52L24 52L24 53L21 53L21 56L23 56L23 57L24 57L24 55L23 55L23 54L24 54L24 53L25 53L25 54L26 54L26 56L27 56L27 57L28 57L28 56L30 56L30 57L35 57L35 56L36 56L36 57L39 57L39 56L36 56L36 53L37 53L37 54L38 54L38 55L41 55L41 57L44 57L44 56L43 56L43 55L42 55L42 54L43 54L43 53L44 53L44 54L45 54L45 57L47 57L47 56L46 56L46 55L49 55L49 57L50 57L50 55L49 55L49 53L50 53L50 54L52 54L52 53L53 53L53 56L55 56L55 57L56 57L56 56L55 56L55 53L53 53L53 52L55 52L55 51L56 51L56 49L57 49L57 47L56 47L56 46L57 46L57 45L56 45L56 46L55 46L55 45L54 45L54 44L56 44L56 41L55 41L55 43L53 43L53 42L52 42L52 44L51 44L51 43L49 43L49 44L48 44L48 45L47 45L47 46L43 46L43 45L44 45L44 44L45 44L45 43L46 43L46 44L47 44L47 42L44 42L44 44L43 44L43 43L42 43L42 42L43 42L43 41L44 41L44 40L46 40L46 39L49 39L49 41L50 41L50 42L51 42L51 41L52 41L52 39L51 39L51 40L50 40L50 38L51 38L51 37L53 37L53 38L54 38L54 39L53 39L53 41L54 41L54 40L55 40L55 39L57 39L57 37L56 37L56 38L55 38L55 37L54 37L54 36L55 36L55 35L56 35L56 33L57 33L57 31L56 31L56 32L55 32L55 30L57 30L57 29L55 29L55 30L53 30L53 28L57 28L57 27L56 27L56 26L57 26L57 23L55 23L55 22L57 22L57 21L55 21L55 22L54 22L54 21L53 21L53 22L52 22L52 24L55 24L55 25L54 25L54 27L53 27L53 25L51 25L51 22L50 22L50 21L48 21L48 20L47 20L47 18L48 18L48 19L49 19L49 20L50 20L50 19L52 19L52 20L55 20L55 19L53 19L53 18L55 18L55 17L54 17L54 16L55 16L55 15L56 15L56 14L57 14L57 13L56 13L56 12L55 12L55 11L56 11L56 10L57 10L57 9L56 9L56 8L55 8L55 9L54 9L54 8L53 8L53 9L54 9L54 10L55 10L55 11L52 11L52 12L51 12L51 14L50 14L50 13L47 13L47 14L46 14L46 15L47 15L47 14L49 14L49 15L50 15L50 16L53 16L53 18L49 18L49 17L48 17L48 16L46 16L46 17L47 17L47 18L46 18L46 20L45 20L45 21L46 21L46 20L47 20L47 21L48 21L48 22L44 22L44 19L45 19L45 18L43 18L43 17L44 17L44 16L42 16L42 14L43 14L43 13L44 13L44 12L43 12L43 13L42 13L42 12L41 12L41 11L42 11L42 10L43 10L43 11L44 11L44 10L45 10L45 11L46 11L46 12L49 12L49 11L48 11L48 10L50 10L50 11L51 11L51 10L50 10L50 8L48 8L48 7L49 7L49 6L48 6L48 7L47 7L47 5L48 5L48 0L44 0L44 1L47 1L47 2L44 2L44 3L43 3L43 2L42 2L42 3L41 3L41 2L40 2L40 0L39 0L39 1L38 1L38 0L35 0L35 1L34 1L34 0L33 0L33 1L34 1L34 2L35 2L35 1L38 1L38 2L36 2L36 3L33 3L33 4L32 4L32 1L31 1L31 0L27 0L27 2L28 2L28 3L29 3L29 2L30 2L30 1L31 1L31 4L26 4L26 3L25 3L25 2L26 2L26 0L24 0L24 2L23 2L23 4L24 4L24 5L23 5L23 6L22 6L22 4L19 4L19 3L18 3L18 4L19 4L19 5L20 5L20 7L19 7L19 6L18 6L18 5L17 5L17 6L16 6L16 7L15 7L15 5L16 5L16 4L14 4L14 3L17 3L17 2L16 2L16 0L13 0L13 2L11 2L11 1L10 1L10 0ZM19 0L19 1L20 1L20 0ZM22 0L22 1L23 1L23 0ZM41 0L41 1L43 1L43 0ZM28 1L28 2L29 2L29 1ZM13 2L13 3L14 3L14 2ZM38 2L38 3L39 3L39 4L36 4L36 5L35 5L35 4L33 4L33 5L32 5L32 6L31 6L31 7L32 7L32 8L31 8L31 9L32 9L32 10L31 10L31 11L30 11L30 12L27 12L27 10L28 10L28 9L25 9L25 8L26 8L26 4L25 4L25 8L24 8L24 6L23 6L23 8L21 8L21 9L20 9L20 8L19 8L19 7L18 7L18 6L17 6L17 7L16 7L16 8L17 8L17 9L16 9L16 10L15 10L15 12L16 12L16 10L17 10L17 11L18 11L18 10L19 10L19 11L22 11L22 10L23 10L23 11L24 11L24 10L23 10L23 8L24 8L24 9L25 9L25 10L26 10L26 11L25 11L25 12L24 12L24 13L22 13L22 12L19 12L19 13L20 13L20 14L19 14L19 16L20 16L20 15L21 15L21 17L18 17L18 18L17 18L17 17L15 17L15 14L16 14L16 15L17 15L17 13L18 13L18 12L17 12L17 13L13 13L13 14L11 14L11 17L9 17L9 16L10 16L10 14L9 14L9 16L8 16L8 17L6 17L6 16L7 16L7 15L6 15L6 16L4 16L4 14L5 14L5 13L4 13L4 12L3 12L3 13L4 13L4 14L2 14L2 16L3 16L3 17L1 17L1 18L3 18L3 17L6 17L6 18L4 18L4 19L3 19L3 20L4 20L4 21L6 21L6 22L7 22L7 21L6 21L6 20L7 20L7 19L6 19L6 18L8 18L8 21L10 21L10 20L9 20L9 18L10 18L10 19L11 19L11 20L12 20L12 19L11 19L11 17L12 17L12 18L13 18L13 19L14 19L14 20L13 20L13 21L12 21L12 22L11 22L11 26L10 26L10 27L12 27L12 30L11 30L11 29L10 29L10 28L9 28L9 31L5 31L5 32L4 32L4 31L3 31L3 32L2 32L2 33L3 33L3 32L4 32L4 35L3 35L3 34L2 34L2 35L3 35L3 37L4 37L4 38L5 38L5 39L2 39L2 41L3 41L3 42L4 42L4 41L5 41L5 43L3 43L3 44L5 44L5 45L6 45L6 44L7 44L7 43L6 43L6 42L7 42L7 41L5 41L5 40L9 40L9 39L10 39L10 41L9 41L9 42L8 42L8 43L9 43L9 42L10 42L10 41L11 41L11 40L12 40L12 43L13 43L13 38L15 38L15 39L14 39L14 40L15 40L15 39L16 39L16 40L17 40L17 39L20 39L20 38L18 38L18 37L17 37L17 36L19 36L19 37L21 37L21 38L22 38L22 39L21 39L21 41L15 41L15 42L14 42L14 44L15 44L15 42L17 42L17 43L18 43L18 42L20 42L20 43L19 43L19 45L20 45L20 47L21 47L21 49L20 49L20 50L21 50L21 49L22 49L22 50L23 50L23 49L24 49L24 47L21 47L21 45L22 45L22 46L23 46L23 45L24 45L24 44L26 44L26 43L28 43L28 42L29 42L29 43L30 43L30 45L29 45L29 44L28 44L28 45L27 45L27 46L28 46L28 47L29 47L29 48L31 48L31 47L29 47L29 46L32 46L32 45L33 45L33 46L35 46L35 47L36 47L36 48L34 48L34 47L33 47L33 48L32 48L32 50L31 50L31 52L32 52L32 54L31 54L31 53L30 53L30 54L29 54L29 53L27 53L27 55L30 55L30 56L34 56L34 55L35 55L35 53L34 53L34 50L35 50L35 52L37 52L37 53L38 53L38 54L41 54L41 52L42 52L42 50L41 50L41 47L42 47L42 48L44 48L44 50L43 50L43 51L44 51L44 53L45 53L45 54L48 54L48 52L47 52L47 53L46 53L46 50L48 50L48 48L51 48L51 46L52 46L52 47L53 47L53 46L54 46L54 45L51 45L51 44L49 44L49 45L51 45L51 46L50 46L50 47L46 47L46 48L45 48L45 47L42 47L42 46L41 46L41 45L42 45L42 43L41 43L41 42L40 42L40 43L41 43L41 44L39 44L39 43L38 43L38 44L39 44L39 45L38 45L38 46L37 46L37 45L36 45L36 46L35 46L35 45L34 45L34 44L35 44L35 42L39 42L39 41L41 41L41 40L44 40L44 38L45 38L45 36L44 36L44 38L41 38L41 40L39 40L39 38L40 38L40 37L41 37L41 36L40 36L40 37L38 37L38 38L37 38L37 39L34 39L34 40L33 40L33 39L32 39L32 40L30 40L30 39L29 39L29 35L30 35L30 34L29 34L29 33L30 33L30 32L32 32L32 33L31 33L31 36L32 36L32 38L33 38L33 37L34 37L34 38L35 38L35 36L36 36L36 35L34 35L34 36L32 36L32 34L33 34L33 33L34 33L34 34L35 34L35 32L36 32L36 30L37 30L37 31L40 31L40 29L43 29L43 30L42 30L42 31L41 31L41 32L39 32L39 33L38 33L38 34L37 34L37 33L36 33L36 34L37 34L37 35L38 35L38 34L39 34L39 35L42 35L42 34L39 34L39 33L42 33L42 32L44 32L44 33L43 33L43 35L46 35L46 36L47 36L47 37L46 37L46 38L48 38L48 37L49 37L49 38L50 38L50 37L51 37L51 36L53 36L53 35L54 35L54 34L55 34L55 32L53 32L53 31L51 31L51 34L50 34L50 32L49 32L49 31L48 31L48 28L47 28L47 26L48 26L48 25L50 25L50 26L51 26L51 25L50 25L50 22L49 22L49 24L48 24L48 25L47 25L47 23L45 23L45 24L44 24L44 25L45 25L45 26L44 26L44 29L43 29L43 28L42 28L42 27L41 27L41 26L40 26L40 25L43 25L43 24L40 24L40 21L41 21L41 20L42 20L42 19L43 19L43 18L41 18L41 17L42 17L42 16L40 16L40 15L41 15L41 12L40 12L40 11L41 11L41 10L42 10L42 9L43 9L43 10L44 10L44 9L45 9L45 10L46 10L46 11L47 11L47 9L46 9L46 8L47 8L47 7L46 7L46 6L45 6L45 5L47 5L47 3L46 3L46 4L45 4L45 3L44 3L44 4L43 4L43 8L42 8L42 5L41 5L41 3L40 3L40 2ZM8 3L8 4L9 4L9 3ZM44 4L44 5L45 5L45 4ZM8 5L8 7L9 7L9 5ZM27 5L27 8L30 8L30 5ZM36 5L36 7L35 7L35 6L34 6L34 8L36 8L36 9L35 9L35 10L34 10L34 9L33 9L33 13L35 13L35 14L33 14L33 15L32 15L32 11L31 11L31 14L30 14L30 13L27 13L27 12L25 12L25 13L24 13L24 15L22 15L22 13L21 13L21 15L22 15L22 16L25 16L25 17L23 17L23 18L22 18L22 17L21 17L21 19L20 19L20 18L19 18L19 19L20 19L20 20L18 20L18 19L17 19L17 18L16 18L16 20L15 20L15 21L16 21L16 22L15 22L15 23L14 23L14 24L13 24L13 23L12 23L12 24L13 24L13 25L14 25L14 26L12 26L12 27L15 27L15 28L14 28L14 29L13 29L13 31L14 31L14 29L18 29L18 31L17 31L17 30L15 30L15 32L14 32L14 34L16 34L16 35L18 35L18 33L19 33L19 34L20 34L20 32L22 32L22 31L23 31L23 32L24 32L24 33L23 33L23 34L24 34L24 35L23 35L23 37L22 37L22 36L21 36L21 37L22 37L22 38L23 38L23 39L24 39L24 40L23 40L23 41L22 41L22 43L21 43L21 44L22 44L22 45L23 45L23 43L25 43L25 36L24 36L24 35L25 35L25 33L26 33L26 36L27 36L27 35L29 35L29 34L27 34L27 32L28 32L28 33L29 33L29 32L28 32L28 31L32 31L32 32L33 32L33 31L34 31L34 32L35 32L35 31L34 31L34 30L31 30L31 29L32 29L32 28L33 28L33 29L34 29L34 28L35 28L35 29L37 29L37 30L38 30L38 29L37 29L37 28L38 28L38 27L37 27L37 26L38 26L38 25L39 25L39 24L38 24L38 23L39 23L39 22L38 22L38 20L39 20L39 21L40 21L40 20L41 20L41 19L40 19L40 18L38 18L38 20L36 20L36 17L37 17L37 16L38 16L38 17L39 17L39 15L37 15L37 14L38 14L38 13L37 13L37 12L36 12L36 11L35 11L35 10L37 10L37 11L38 11L38 9L39 9L39 8L38 8L38 9L37 9L37 8L36 8L36 7L37 7L37 6L38 6L38 7L39 7L39 5ZM21 6L21 7L22 7L22 6ZM28 6L28 7L29 7L29 6ZM32 6L32 7L33 7L33 6ZM40 6L40 8L41 8L41 9L40 9L40 10L41 10L41 9L42 9L42 8L41 8L41 6ZM44 6L44 7L45 7L45 6ZM17 7L17 8L18 8L18 9L19 9L19 8L18 8L18 7ZM12 8L12 9L11 9L11 10L12 10L12 9L13 9L13 8ZM43 8L43 9L44 9L44 8ZM51 8L51 9L52 9L52 8ZM21 9L21 10L22 10L22 9ZM55 9L55 10L56 10L56 9ZM1 10L1 11L2 11L2 10ZM6 10L6 11L7 11L7 10ZM39 12L39 14L40 14L40 12ZM52 12L52 14L54 14L54 15L53 15L53 16L54 16L54 15L55 15L55 13L54 13L54 12ZM25 13L25 16L27 16L27 17L26 17L26 18L24 18L24 19L25 19L25 20L27 20L27 23L28 23L28 24L25 24L25 23L26 23L26 22L25 22L25 21L24 21L24 20L23 20L23 19L22 19L22 21L21 21L21 20L20 20L20 21L19 21L19 22L18 22L18 21L17 21L17 20L16 20L16 21L17 21L17 22L18 22L18 24L19 24L19 26L18 26L18 25L15 25L15 26L16 26L16 27L17 27L17 28L18 28L18 29L20 29L20 31L22 31L22 30L24 30L24 31L25 31L25 32L27 32L27 31L26 31L26 30L24 30L24 29L26 29L26 26L27 26L27 25L31 25L31 26L32 26L32 25L31 25L31 24L34 24L34 26L33 26L33 27L34 27L34 26L35 26L35 24L34 24L34 22L36 22L36 23L38 23L38 22L37 22L37 21L36 21L36 20L35 20L35 19L34 19L34 18L35 18L35 15L33 15L33 16L32 16L32 18L33 18L33 19L32 19L32 21L31 21L31 20L30 20L30 19L31 19L31 18L30 18L30 19L28 19L28 18L27 18L27 17L28 17L28 16L29 16L29 17L30 17L30 14L29 14L29 15L28 15L28 16L27 16L27 14L26 14L26 13ZM13 14L13 15L14 15L14 14ZM13 16L13 17L14 17L14 18L15 18L15 17L14 17L14 16ZM33 16L33 18L34 18L34 16ZM56 17L56 18L57 18L57 17ZM5 19L5 20L6 20L6 19ZM39 19L39 20L40 20L40 19ZM34 20L34 21L32 21L32 22L31 22L31 21L28 21L28 23L29 23L29 22L30 22L30 24L31 24L31 23L32 23L32 22L34 22L34 21L35 21L35 20ZM13 21L13 22L14 22L14 21ZM22 21L22 22L21 22L21 24L20 24L20 25L21 25L21 27L20 27L20 26L19 26L19 28L20 28L20 29L22 29L22 28L21 28L21 27L22 27L22 25L21 25L21 24L23 24L23 27L24 27L24 28L23 28L23 29L24 29L24 28L25 28L25 24L24 24L24 23L23 23L23 22L24 22L24 21ZM8 22L8 24L7 24L7 23L6 23L6 24L7 24L7 25L8 25L8 26L9 26L9 25L10 25L10 24L9 24L9 23L10 23L10 22ZM19 22L19 23L20 23L20 22ZM41 22L41 23L42 23L42 22ZM43 22L43 23L44 23L44 22ZM15 23L15 24L16 24L16 23ZM45 24L45 25L46 25L46 24ZM55 25L55 26L56 26L56 25ZM17 26L17 27L18 27L18 26ZM5 27L5 30L8 30L8 27ZM27 27L27 30L30 30L30 27ZM31 27L31 28L32 28L32 27ZM35 27L35 28L37 28L37 27ZM45 27L45 28L46 28L46 27ZM49 27L49 30L52 30L52 27ZM6 28L6 29L7 29L7 28ZM28 28L28 29L29 29L29 28ZM50 28L50 29L51 29L51 28ZM44 29L44 30L43 30L43 31L44 31L44 32L45 32L45 31L46 31L46 30L45 30L45 29ZM11 31L11 32L9 32L9 33L7 33L7 32L6 32L6 33L7 33L7 34L5 34L5 36L6 36L6 37L5 37L5 38L6 38L6 39L9 39L9 38L10 38L10 39L11 39L11 38L12 38L12 37L13 37L13 36L12 36L12 37L11 37L11 36L10 36L10 35L8 35L8 34L9 34L9 33L10 33L10 34L11 34L11 35L12 35L12 34L11 34L11 33L13 33L13 32L12 32L12 31ZM16 31L16 32L17 32L17 33L16 33L16 34L17 34L17 33L18 33L18 32L19 32L19 31L18 31L18 32L17 32L17 31ZM46 32L46 33L47 33L47 32ZM44 33L44 34L45 34L45 33ZM53 33L53 34L52 34L52 35L53 35L53 34L54 34L54 33ZM21 34L21 35L22 35L22 34ZM46 34L46 35L47 35L47 34ZM48 34L48 35L50 35L50 36L49 36L49 37L50 37L50 36L51 36L51 35L50 35L50 34ZM6 35L6 36L7 36L7 37L6 37L6 38L7 38L7 37L8 37L8 38L9 38L9 37L10 37L10 38L11 38L11 37L10 37L10 36L9 36L9 37L8 37L8 35ZM14 36L14 37L15 37L15 38L16 38L16 37L15 37L15 36ZM23 37L23 38L24 38L24 37ZM27 37L27 38L26 38L26 39L27 39L27 41L26 41L26 42L27 42L27 41L29 41L29 42L30 42L30 43L31 43L31 42L32 42L32 41L31 41L31 42L30 42L30 40L28 40L28 39L27 39L27 38L28 38L28 37ZM30 37L30 38L31 38L31 37ZM35 40L35 41L39 41L39 40ZM33 41L33 44L34 44L34 41ZM31 44L31 45L32 45L32 44ZM2 45L2 46L1 46L1 47L2 47L2 46L3 46L3 47L5 47L5 46L3 46L3 45ZM25 45L25 49L26 49L26 45ZM39 45L39 46L38 46L38 48L36 48L36 49L35 49L35 50L36 50L36 51L38 51L38 52L39 52L39 53L40 53L40 52L41 52L41 50L40 50L40 49L39 49L39 46L40 46L40 45ZM36 46L36 47L37 47L37 46ZM33 48L33 49L34 49L34 48ZM54 48L54 49L53 49L53 50L55 50L55 48ZM16 49L16 50L17 50L17 51L16 51L16 53L17 53L17 52L19 52L19 51L18 51L18 49ZM27 49L27 52L30 52L30 49ZM36 49L36 50L39 50L39 49ZM49 49L49 52L52 52L52 49ZM28 50L28 51L29 51L29 50ZM32 50L32 51L33 51L33 50ZM50 50L50 51L51 51L51 50ZM56 52L56 53L57 53L57 52ZM10 53L10 54L11 54L11 53ZM17 54L17 56L18 56L18 55L19 55L19 54ZM33 54L33 55L34 55L34 54ZM9 55L9 56L10 56L10 55ZM15 55L15 56L16 56L16 55ZM51 55L51 57L52 57L52 55ZM12 56L12 57L13 57L13 56ZM0 0L0 7L7 7L7 0ZM1 1L1 6L6 6L6 1ZM2 2L2 5L5 5L5 2ZM50 0L50 7L57 7L57 0ZM51 1L51 6L56 6L56 1ZM52 2L52 5L55 5L55 2ZM0 50L0 57L7 57L7 50ZM1 51L1 56L6 56L6 51ZM2 52L2 55L5 55L5 52Z" fill="#000000"/></g></g></svg>
