<?xml version="1.0" encoding="UTF-8"?>
<svg xmlns="http://www.w3.org/2000/svg" version="1.1" width="300" height="300" viewBox="0 0 300 300"><rect x="0" y="0" width="300" height="300" fill="#ffffff"/><g transform="scale(5.263)"><g transform="translate(0,0)"><path fill-rule="evenodd" d="M8 0L8 1L9 1L9 0ZM11 0L11 1L10 1L10 2L8 2L8 5L9 5L9 4L11 4L11 3L12 3L12 2L11 2L11 1L13 1L13 2L14 2L14 3L15 3L15 2L14 2L14 0ZM19 0L19 2L18 2L18 1L16 1L16 2L17 2L17 5L14 5L14 4L12 4L12 5L11 5L11 6L10 6L10 7L11 7L11 6L12 6L12 7L13 7L13 6L14 6L14 7L15 7L15 6L16 6L16 7L17 7L17 8L18 8L18 7L19 7L19 8L20 8L20 9L22 9L22 10L20 10L20 13L19 13L19 12L18 12L18 9L17 9L17 10L15 10L15 9L14 9L14 10L12 10L12 12L11 12L11 11L10 11L10 10L11 10L11 9L13 9L13 8L8 8L8 10L6 10L6 9L7 9L7 8L6 8L6 9L4 9L4 8L0 8L0 9L2 9L2 10L1 10L1 13L0 13L0 14L1 14L1 15L0 15L0 16L1 16L1 15L2 15L2 14L3 14L3 12L5 12L5 13L4 13L4 15L3 15L3 17L4 17L4 21L5 21L5 22L6 22L6 23L7 23L7 22L8 22L8 24L5 24L5 23L4 23L4 22L2 22L2 21L3 21L3 20L2 20L2 17L0 17L0 18L1 18L1 19L0 19L0 20L2 20L2 21L0 21L0 23L3 23L3 24L0 24L0 26L1 26L1 27L2 27L2 28L0 28L0 29L1 29L1 30L0 30L0 31L1 31L1 32L2 32L2 34L3 34L3 33L4 33L4 35L5 35L5 34L6 34L6 35L7 35L7 36L4 36L4 37L7 37L7 36L8 36L8 37L9 37L9 36L10 36L10 35L11 35L11 37L12 37L12 38L11 38L11 40L10 40L10 39L9 39L9 41L11 41L11 42L10 42L10 43L9 43L9 42L8 42L8 43L7 43L7 42L5 42L5 43L7 43L7 44L4 44L4 43L3 43L3 42L2 42L2 44L1 44L1 41L3 41L3 40L2 40L2 39L3 39L3 38L2 38L2 39L1 39L1 38L0 38L0 39L1 39L1 40L0 40L0 48L5 48L5 47L7 47L7 46L5 46L5 47L3 47L3 44L4 44L4 45L9 45L9 46L8 46L8 47L10 47L10 48L8 48L8 50L10 50L10 51L11 51L11 52L9 52L9 53L8 53L8 57L13 57L13 56L14 56L14 57L15 57L15 56L16 56L16 57L18 57L18 56L19 56L19 55L20 55L20 57L21 57L21 55L22 55L22 57L24 57L24 56L25 56L25 55L24 55L24 56L23 56L23 54L26 54L26 55L27 55L27 56L28 56L28 57L29 57L29 56L28 56L28 55L27 55L27 54L31 54L31 55L30 55L30 56L31 56L31 55L32 55L32 57L33 57L33 56L35 56L35 57L36 57L36 56L37 56L37 55L39 55L39 57L41 57L41 56L40 56L40 55L39 55L39 54L36 54L36 53L35 53L35 52L34 52L34 53L33 53L33 51L32 51L32 52L31 52L31 50L32 50L32 48L33 48L33 50L34 50L34 51L36 51L36 50L37 50L37 49L38 49L38 51L37 51L37 52L38 52L38 53L40 53L40 52L41 52L41 54L42 54L42 57L43 57L43 56L45 56L45 54L46 54L46 55L47 55L47 56L48 56L48 57L49 57L49 56L50 56L50 57L54 57L54 56L51 56L51 55L50 55L50 54L52 54L52 53L53 53L53 55L54 55L54 54L56 54L56 53L57 53L57 52L56 52L56 53L55 53L55 50L57 50L57 49L56 49L56 48L57 48L57 46L55 46L55 44L56 44L56 45L57 45L57 44L56 44L56 41L57 41L57 40L56 40L56 41L55 41L55 39L54 39L54 37L55 37L55 36L56 36L56 35L57 35L57 33L55 33L55 32L53 32L53 33L55 33L55 36L54 36L54 34L53 34L53 39L54 39L54 40L51 40L51 41L52 41L52 42L51 42L51 43L50 43L50 42L49 42L49 43L50 43L50 45L51 45L51 46L49 46L49 47L48 47L48 49L47 49L47 52L48 52L48 53L46 53L46 51L45 51L45 50L44 50L44 48L45 48L45 46L44 46L44 45L43 45L43 44L44 44L44 43L43 43L43 42L42 42L42 41L41 41L41 42L42 42L42 43L41 43L41 44L40 44L40 43L37 43L37 41L36 41L36 38L37 38L37 39L38 39L38 41L40 41L40 39L39 39L39 38L41 38L41 39L42 39L42 40L43 40L43 41L44 41L44 42L45 42L45 43L48 43L48 42L47 42L47 41L48 41L48 40L47 40L47 39L46 39L46 38L45 38L45 39L44 39L44 36L45 36L45 35L44 35L44 34L43 34L43 32L41 32L41 31L42 31L42 30L41 30L41 29L40 29L40 28L41 28L41 27L42 27L42 28L43 28L43 29L44 29L44 30L43 30L43 31L44 31L44 30L45 30L45 31L50 31L50 32L49 32L49 33L50 33L50 34L49 34L49 35L47 35L47 34L48 34L48 33L47 33L47 32L46 32L46 33L47 33L47 34L46 34L46 36L49 36L49 35L52 35L52 34L51 34L51 33L50 33L50 32L52 32L52 31L53 31L53 29L55 29L55 28L57 28L57 27L53 27L53 26L54 26L54 25L57 25L57 19L56 19L56 18L57 18L57 15L56 15L56 16L55 16L55 15L53 15L53 16L54 16L54 17L55 17L55 20L54 20L54 21L55 21L55 22L56 22L56 24L54 24L54 22L53 22L53 23L52 23L52 21L53 21L53 17L52 17L52 14L53 14L53 13L51 13L51 11L52 11L52 10L50 10L50 8L49 8L49 6L48 6L48 8L47 8L47 5L48 5L48 0L45 0L45 2L44 2L44 3L45 3L45 5L46 5L46 7L45 7L45 6L44 6L44 4L43 4L43 5L42 5L42 7L43 7L43 6L44 6L44 7L45 7L45 9L46 9L46 8L47 8L47 10L46 10L46 11L43 11L43 8L41 8L41 6L40 6L40 8L39 8L39 6L38 6L38 9L37 9L37 10L38 10L38 9L42 9L42 11L43 11L43 12L41 12L41 11L40 11L40 10L39 10L39 12L41 12L41 13L38 13L38 11L37 11L37 12L36 12L36 9L35 9L35 6L36 6L36 8L37 8L37 5L39 5L39 3L40 3L40 2L39 2L39 1L42 1L42 3L41 3L41 4L40 4L40 5L41 5L41 4L42 4L42 3L43 3L43 0L39 0L39 1L38 1L38 0L36 0L36 1L35 1L35 2L34 2L34 3L33 3L33 4L32 4L32 3L30 3L30 2L31 2L31 1L33 1L33 0L30 0L30 2L29 2L29 3L30 3L30 4L26 4L26 2L25 2L25 1L26 1L26 0L24 0L24 1L23 1L23 0L22 0L22 1L20 1L20 0ZM27 0L27 2L28 2L28 0ZM22 1L22 3L21 3L21 2L19 2L19 4L20 4L20 5L21 5L21 4L23 4L23 3L25 3L25 2L23 2L23 1ZM37 1L37 2L36 2L36 3L37 3L37 4L38 4L38 3L37 3L37 2L38 2L38 1ZM46 1L46 2L45 2L45 3L46 3L46 5L47 5L47 3L46 3L46 2L47 2L47 1ZM24 4L24 6L23 6L23 7L24 7L24 8L25 8L25 9L26 9L26 6L25 6L25 5L26 5L26 4ZM34 4L34 5L32 5L32 6L31 6L31 7L32 7L32 6L33 6L33 7L34 7L34 5L35 5L35 4ZM17 5L17 7L18 7L18 6L19 6L19 7L20 7L20 8L21 8L21 7L22 7L22 6L21 6L21 7L20 7L20 6L19 6L19 5ZM27 5L27 8L30 8L30 5ZM8 6L8 7L9 7L9 6ZM24 6L24 7L25 7L25 6ZM28 6L28 7L29 7L29 6ZM32 8L32 10L31 10L31 12L29 12L29 11L30 11L30 10L29 10L29 9L28 9L28 11L27 11L27 10L26 10L26 11L25 11L25 10L24 10L24 9L23 9L23 10L24 10L24 14L26 14L26 13L25 13L25 12L28 12L28 13L27 13L27 14L28 14L28 16L29 16L29 17L27 17L27 15L26 15L26 17L24 17L24 15L22 15L22 14L23 14L23 13L22 13L22 12L23 12L23 11L21 11L21 14L20 14L20 16L21 16L21 17L19 17L19 16L17 16L17 15L14 15L14 13L13 13L13 12L12 12L12 13L10 13L10 15L9 15L9 13L6 13L6 14L7 14L7 15L6 15L6 16L5 16L5 15L4 15L4 17L5 17L5 18L8 18L8 21L9 21L9 24L10 24L10 23L11 23L11 25L12 25L12 22L11 22L11 19L16 19L16 20L14 20L14 23L13 23L13 24L14 24L14 25L15 25L15 27L14 27L14 26L13 26L13 27L12 27L12 26L9 26L9 27L10 27L10 29L9 29L9 31L6 31L6 32L5 32L5 31L4 31L4 32L5 32L5 33L6 33L6 34L7 34L7 35L8 35L8 36L9 36L9 35L10 35L10 34L9 34L9 35L8 35L8 33L10 33L10 32L12 32L12 33L11 33L11 34L12 34L12 35L15 35L15 38L17 38L17 39L16 39L16 40L15 40L15 39L14 39L14 40L13 40L13 38L12 38L12 40L11 40L11 41L12 41L12 42L11 42L11 44L10 44L10 45L12 45L12 44L13 44L13 45L14 45L14 44L16 44L16 45L15 45L15 46L12 46L12 47L11 47L11 46L10 46L10 47L11 47L11 48L10 48L10 50L11 50L11 51L12 51L12 53L11 53L11 54L12 54L12 53L13 53L13 54L14 54L14 55L15 55L15 53L16 53L16 54L17 54L17 55L19 55L19 52L17 52L17 51L18 51L18 50L19 50L19 49L20 49L20 48L21 48L21 53L20 53L20 55L21 55L21 53L22 53L22 54L23 54L23 52L24 52L24 53L25 53L25 52L26 52L26 49L25 49L25 47L27 47L27 48L29 48L29 46L30 46L30 47L31 47L31 48L32 48L32 46L30 46L30 45L33 45L33 46L34 46L34 50L36 50L36 49L35 49L35 48L38 48L38 49L39 49L39 51L38 51L38 52L39 52L39 51L41 51L41 52L42 52L42 54L43 54L43 55L44 55L44 54L43 54L43 53L44 53L44 52L42 52L42 51L41 51L41 50L43 50L43 49L42 49L42 44L43 44L43 43L42 43L42 44L41 44L41 45L38 45L38 47L35 47L35 46L36 46L36 45L37 45L37 44L36 44L36 41L35 41L35 38L36 38L36 37L33 37L33 35L34 35L34 36L35 36L35 35L34 35L34 34L35 34L35 33L34 33L34 34L33 34L33 30L32 30L32 29L31 29L31 30L32 30L32 33L31 33L31 32L30 32L30 31L28 31L28 32L27 32L27 31L26 31L26 26L25 26L25 25L29 25L29 24L30 24L30 26L31 26L31 27L32 27L32 28L33 28L33 29L34 29L34 27L35 27L35 30L34 30L34 31L35 31L35 32L36 32L36 33L38 33L38 35L39 35L39 33L38 33L38 32L40 32L40 31L39 31L39 30L40 30L40 29L39 29L39 28L40 28L40 27L41 27L41 26L43 26L43 24L44 24L44 27L43 27L43 28L45 28L45 29L46 29L46 28L48 28L48 26L49 26L49 25L50 25L50 24L49 24L49 23L50 23L50 22L51 22L51 21L52 21L52 19L50 19L50 18L52 18L52 17L51 17L51 16L50 16L50 14L49 14L49 12L50 12L50 10L48 10L48 11L47 11L47 12L43 12L43 13L41 13L41 14L43 14L43 13L44 13L44 14L45 14L45 13L46 13L46 15L45 15L45 16L48 16L48 15L47 15L47 14L49 14L49 17L47 17L47 18L48 18L48 20L50 20L50 22L48 22L48 21L46 21L46 20L45 20L45 19L46 19L46 17L45 17L45 18L44 18L44 16L43 16L43 17L42 17L42 18L44 18L44 21L43 21L43 22L44 22L44 23L40 23L40 22L39 22L39 21L38 21L38 20L36 20L36 22L35 22L35 21L34 21L34 20L35 20L35 19L38 19L38 18L39 18L39 20L40 20L40 19L41 19L41 21L42 21L42 19L41 19L41 18L40 18L40 17L41 17L41 16L40 16L40 15L37 15L37 16L34 16L34 17L30 17L30 15L31 15L31 16L33 16L33 15L35 15L35 12L34 12L34 10L35 10L35 9L34 9L34 10L33 10L33 8ZM48 8L48 9L49 9L49 8ZM52 8L52 9L54 9L54 10L53 10L53 12L54 12L54 14L55 14L55 12L54 12L54 11L56 11L56 14L57 14L57 10L56 10L56 9L57 9L57 8L56 8L56 9L55 9L55 8ZM9 9L9 10L8 10L8 11L6 11L6 10L2 10L2 11L5 11L5 12L10 12L10 11L9 11L9 10L10 10L10 9ZM14 10L14 11L15 11L15 10ZM32 10L32 12L33 12L33 10ZM16 11L16 12L17 12L17 13L16 13L16 14L18 14L18 15L19 15L19 13L18 13L18 12L17 12L17 11ZM1 13L1 14L2 14L2 13ZM12 13L12 14L11 14L11 15L10 15L10 16L9 16L9 15L7 15L7 16L6 16L6 17L8 17L8 16L9 16L9 18L10 18L10 19L9 19L9 20L10 20L10 19L11 19L11 18L10 18L10 17L13 17L13 18L16 18L16 19L17 19L17 18L18 18L18 17L17 17L17 16L16 16L16 17L15 17L15 16L14 16L14 17L13 17L13 15L12 15L12 14L13 14L13 13ZM28 13L28 14L29 14L29 13ZM30 13L30 14L31 14L31 15L32 15L32 13ZM33 13L33 14L34 14L34 13ZM36 13L36 14L37 14L37 13ZM11 15L11 16L12 16L12 15ZM21 15L21 16L22 16L22 15ZM37 16L37 17L36 17L36 18L38 18L38 16ZM21 17L21 18L20 18L20 19L19 19L19 20L21 20L21 18L22 18L22 17ZM26 17L26 18L24 18L24 19L23 19L23 20L22 20L22 21L21 21L21 22L19 22L19 24L18 24L18 23L17 23L17 21L18 21L18 20L16 20L16 23L15 23L15 25L17 25L17 27L19 27L19 28L18 28L18 29L19 29L19 28L20 28L20 29L21 29L21 30L23 30L23 32L21 32L21 31L20 31L20 30L19 30L19 32L21 32L21 35L20 35L20 36L22 36L22 35L23 35L23 39L22 39L22 37L21 37L21 38L20 38L20 37L19 37L19 36L18 36L18 34L17 34L17 37L19 37L19 39L17 39L17 40L16 40L16 41L15 41L15 40L14 40L14 42L12 42L12 43L15 43L15 42L18 42L18 43L19 43L19 42L20 42L20 40L21 40L21 41L22 41L22 40L23 40L23 42L22 42L22 44L21 44L21 43L20 43L20 45L21 45L21 46L19 46L19 45L17 45L17 46L19 46L19 47L16 47L16 46L15 46L15 47L14 47L14 48L13 48L13 49L14 49L14 50L13 50L13 53L14 53L14 52L15 52L15 51L14 51L14 50L16 50L16 49L17 49L17 50L18 50L18 49L19 49L19 48L20 48L20 47L21 47L21 48L23 48L23 47L21 47L21 46L22 46L22 44L23 44L23 46L24 46L24 47L25 47L25 45L26 45L26 43L25 43L25 45L24 45L24 40L25 40L25 39L26 39L26 41L25 41L25 42L28 42L28 43L30 43L30 44L29 44L29 45L30 45L30 44L33 44L33 45L35 45L35 44L33 44L33 43L34 43L34 42L35 42L35 41L34 41L34 38L32 38L32 39L31 39L31 40L32 40L32 41L34 41L34 42L33 42L33 43L31 43L31 41L30 41L30 39L29 39L29 38L30 38L30 37L29 37L29 38L25 38L25 39L24 39L24 37L25 37L25 36L27 36L27 35L26 35L26 34L27 34L27 32L24 32L24 30L23 30L23 29L21 29L21 27L19 27L19 24L20 24L20 26L21 26L21 24L23 24L23 26L22 26L22 27L23 27L23 28L24 28L24 29L25 29L25 28L24 28L24 27L25 27L25 26L24 26L24 24L25 24L25 22L27 22L27 23L26 23L26 24L28 24L28 21L29 21L29 23L30 23L30 22L31 22L31 25L34 25L34 23L33 23L33 21L32 21L32 22L31 22L31 20L34 20L34 19L35 19L35 17L34 17L34 19L31 19L31 20L30 20L30 19L29 19L29 18L30 18L30 17L29 17L29 18L28 18L28 19L26 19L26 18L27 18L27 17ZM5 19L5 21L6 21L6 22L7 22L7 21L6 21L6 20L7 20L7 19ZM23 20L23 21L24 21L24 22L25 22L25 21L27 21L27 20ZM29 20L29 21L30 21L30 20ZM37 21L37 22L38 22L38 23L36 23L36 24L35 24L35 27L36 27L36 28L39 28L39 27L38 27L38 26L39 26L39 25L38 25L38 24L39 24L39 22L38 22L38 21ZM22 22L22 23L23 23L23 22ZM46 22L46 23L45 23L45 24L47 24L47 25L49 25L49 24L48 24L48 23L47 23L47 22ZM16 23L16 24L17 24L17 23ZM20 23L20 24L21 24L21 23ZM32 23L32 24L33 24L33 23ZM51 23L51 26L53 26L53 24L52 24L52 23ZM4 24L4 25L2 25L2 27L3 27L3 26L5 26L5 24ZM6 25L6 26L8 26L8 25ZM45 25L45 26L46 26L46 27L47 27L47 26L46 26L46 25ZM23 26L23 27L24 27L24 26ZM32 26L32 27L34 27L34 26ZM36 26L36 27L37 27L37 26ZM5 27L5 30L8 30L8 27ZM27 27L27 30L30 30L30 27ZM49 27L49 30L52 30L52 27ZM6 28L6 29L7 29L7 28ZM11 28L11 29L10 29L10 31L9 31L9 32L10 32L10 31L13 31L13 33L12 33L12 34L13 34L13 33L14 33L14 34L15 34L15 35L16 35L16 34L15 34L15 33L16 33L16 32L15 32L15 33L14 33L14 31L15 31L15 30L16 30L16 31L17 31L17 28L16 28L16 29L13 29L13 28ZM28 28L28 29L29 29L29 28ZM50 28L50 29L51 29L51 28ZM2 29L2 30L1 30L1 31L2 31L2 32L3 32L3 31L2 31L2 30L3 30L3 29ZM12 29L12 30L13 30L13 31L14 31L14 30L13 30L13 29ZM56 29L56 30L57 30L57 29ZM35 30L35 31L37 31L37 30ZM54 30L54 31L55 31L55 30ZM6 32L6 33L8 33L8 32ZM17 32L17 33L18 33L18 32ZM28 32L28 33L29 33L29 36L30 36L30 34L31 34L31 33L29 33L29 32ZM0 33L0 34L1 34L1 33ZM19 33L19 34L20 34L20 33ZM22 33L22 34L23 34L23 35L24 35L24 33ZM25 33L25 34L26 34L26 33ZM40 33L40 36L39 36L39 37L41 37L41 38L43 38L43 37L41 37L41 36L43 36L43 35L41 35L41 33ZM32 34L32 35L31 35L31 37L32 37L32 35L33 35L33 34ZM2 35L2 37L3 37L3 35ZM36 35L36 36L37 36L37 35ZM0 36L0 37L1 37L1 36ZM50 36L50 37L47 37L47 38L48 38L48 39L49 39L49 40L50 40L50 39L49 39L49 38L50 38L50 37L51 37L51 38L52 38L52 36ZM5 38L5 39L4 39L4 40L5 40L5 41L8 41L8 40L5 40L5 39L8 39L8 38ZM56 38L56 39L57 39L57 38ZM21 39L21 40L22 40L22 39ZM23 39L23 40L24 40L24 39ZM28 39L28 40L27 40L27 41L28 41L28 40L29 40L29 39ZM32 39L32 40L33 40L33 39ZM43 39L43 40L44 40L44 39ZM45 39L45 41L47 41L47 40L46 40L46 39ZM12 40L12 41L13 41L13 40ZM17 40L17 41L18 41L18 42L19 42L19 40ZM53 41L53 42L55 42L55 41ZM16 43L16 44L17 44L17 43ZM51 43L51 44L52 44L52 46L51 46L51 47L50 47L50 48L52 48L52 46L53 46L53 47L54 47L54 48L53 48L53 49L54 49L54 50L55 50L55 49L54 49L54 48L55 48L55 46L53 46L53 44L55 44L55 43L53 43L53 44L52 44L52 43ZM27 44L27 46L28 46L28 44ZM45 44L45 45L46 45L46 44ZM48 44L48 45L47 45L47 46L46 46L46 47L47 47L47 46L48 46L48 45L49 45L49 44ZM1 46L1 47L2 47L2 46ZM39 46L39 47L41 47L41 46ZM15 47L15 48L14 48L14 49L15 49L15 48L16 48L16 47ZM6 48L6 49L7 49L7 48ZM11 48L11 49L12 49L12 48ZM27 49L27 52L30 52L30 49ZM40 49L40 50L41 50L41 49ZM49 49L49 52L52 52L52 49ZM28 50L28 51L29 51L29 50ZM50 50L50 51L51 51L51 50ZM24 51L24 52L25 52L25 51ZM53 52L53 53L54 53L54 52ZM26 53L26 54L27 54L27 53ZM32 53L32 55L36 55L36 54L33 54L33 53ZM48 53L48 54L49 54L49 53ZM9 54L9 55L10 55L10 56L12 56L12 55L10 55L10 54ZM48 55L48 56L49 56L49 55ZM56 55L56 56L57 56L57 55ZM0 0L0 7L7 7L7 0ZM1 1L1 6L6 6L6 1ZM2 2L2 5L5 5L5 2ZM50 0L50 7L57 7L57 0ZM51 1L51 6L56 6L56 1ZM52 2L52 5L55 5L55 2ZM0 50L0 57L7 57L7 50ZM1 51L1 56L6 56L6 51ZM2 52L2 55L5 55L5 52Z" fill="#000000"/></g></g></svg>
