<?xml version="1.0" encoding="UTF-8"?>
<svg xmlns="http://www.w3.org/2000/svg" version="1.1" width="300" height="300" viewBox="0 0 300 300"><rect x="0" y="0" width="300" height="300" fill="#ffffff"/><g transform="scale(5.263)"><g transform="translate(0,0)"><path fill-rule="evenodd" d="M8 0L8 4L9 4L9 5L8 5L8 7L9 7L9 9L10 9L10 11L9 11L9 10L8 10L8 12L6 12L6 13L5 13L5 12L3 12L3 13L2 13L2 18L4 18L4 19L2 19L2 21L4 21L4 22L3 22L3 23L7 23L7 24L5 24L5 26L3 26L3 25L4 25L4 24L3 24L3 25L2 25L2 23L1 23L1 24L0 24L0 26L1 26L1 25L2 25L2 27L0 27L0 30L3 30L3 31L0 31L0 34L1 34L1 35L0 35L0 36L1 36L1 35L2 35L2 36L3 36L3 34L5 34L5 33L3 33L3 32L4 32L4 31L7 31L7 32L6 32L6 33L8 33L8 34L9 34L9 35L8 35L8 36L4 36L4 37L2 37L2 39L1 39L1 38L0 38L0 39L1 39L1 41L3 41L3 43L4 43L4 44L5 44L5 43L4 43L4 41L5 41L5 42L6 42L6 43L7 43L7 44L6 44L6 45L5 45L5 47L3 47L3 46L4 46L4 45L3 45L3 46L2 46L2 47L1 47L1 46L0 46L0 48L5 48L5 47L9 47L9 48L8 48L8 50L9 50L9 51L8 51L8 53L9 53L9 55L8 55L8 57L10 57L10 56L14 56L14 54L15 54L15 55L16 55L16 54L17 54L17 55L18 55L18 56L15 56L15 57L22 57L22 56L23 56L23 55L24 55L24 56L25 56L25 57L29 57L29 55L30 55L30 57L31 57L31 54L32 54L32 53L33 53L33 55L34 55L34 53L35 53L35 54L36 54L36 55L37 55L37 54L36 54L36 53L37 53L37 51L36 51L36 50L37 50L37 49L38 49L38 50L40 50L40 51L38 51L38 54L39 54L39 57L40 57L40 55L41 55L41 54L43 54L43 55L44 55L44 57L45 57L45 56L47 56L47 57L49 57L49 56L50 56L50 57L51 57L51 56L50 56L50 55L51 55L51 53L52 53L52 55L54 55L54 53L53 53L53 50L54 50L54 51L56 51L56 50L55 50L55 49L56 49L56 48L57 48L57 47L56 47L56 48L55 48L55 49L54 49L54 48L52 48L52 45L51 45L51 44L52 44L52 43L53 43L53 42L54 42L54 43L56 43L56 42L57 42L57 40L54 40L54 41L53 41L53 40L52 40L52 41L51 41L51 44L50 44L50 41L47 41L47 39L48 39L48 40L50 40L50 38L51 38L51 39L53 39L53 38L55 38L55 39L57 39L57 38L56 38L56 37L57 37L57 35L56 35L56 34L55 34L55 32L56 32L56 33L57 33L57 32L56 32L56 30L57 30L57 28L56 28L56 29L54 29L54 26L55 26L55 24L57 24L57 23L55 23L55 22L54 22L54 23L55 23L55 24L54 24L54 26L51 26L51 25L52 25L52 24L53 24L53 23L52 23L52 22L51 22L51 21L52 21L52 20L53 20L53 19L52 19L52 18L55 18L55 20L54 20L54 21L57 21L57 20L56 20L56 16L57 16L57 15L56 15L56 13L57 13L57 11L56 11L56 9L57 9L57 8L53 8L53 9L54 9L54 10L53 10L53 11L52 11L52 10L51 10L51 9L52 9L52 8L51 8L51 9L50 9L50 10L49 10L49 9L47 9L47 10L46 10L46 8L47 8L47 5L48 5L48 0L46 0L46 1L45 1L45 0L44 0L44 3L43 3L43 4L41 4L41 3L42 3L42 1L43 1L43 0L42 0L42 1L41 1L41 0L40 0L40 1L39 1L39 0L38 0L38 2L37 2L37 1L36 1L36 0L35 0L35 1L34 1L34 0L33 0L33 1L32 1L32 0L26 0L26 1L25 1L25 0L22 0L22 1L21 1L21 0L20 0L20 2L19 2L19 1L16 1L16 0L15 0L15 2L16 2L16 4L17 4L17 2L19 2L19 3L20 3L20 2L21 2L21 3L22 3L22 4L23 4L23 3L24 3L24 2L26 2L26 1L28 1L28 2L27 2L27 3L28 3L28 4L26 4L26 3L25 3L25 4L24 4L24 5L23 5L23 6L22 6L22 5L21 5L21 6L20 6L20 5L19 5L19 4L18 4L18 5L17 5L17 6L16 6L16 5L15 5L15 4L14 4L14 2L12 2L12 1L13 1L13 0ZM9 1L9 4L10 4L10 5L9 5L9 7L10 7L10 5L12 5L12 4L13 4L13 3L12 3L12 4L10 4L10 2L11 2L11 1ZM22 1L22 3L23 3L23 2L24 2L24 1ZM29 1L29 2L28 2L28 3L29 3L29 4L30 4L30 3L29 3L29 2L30 2L30 1ZM31 1L31 3L32 3L32 4L31 4L31 7L32 7L32 8L34 8L34 9L33 9L33 10L32 10L32 9L31 9L31 10L30 10L30 11L27 11L27 10L28 10L28 9L27 9L27 10L26 10L26 6L25 6L25 7L24 7L24 6L23 6L23 7L24 7L24 8L22 8L22 6L21 6L21 8L20 8L20 9L19 9L19 10L18 10L18 9L17 9L17 8L19 8L19 7L20 7L20 6L19 6L19 7L18 7L18 6L17 6L17 8L15 8L15 9L14 9L14 8L13 8L13 9L12 9L12 10L15 10L15 9L16 9L16 10L18 10L18 11L16 11L16 12L14 12L14 11L10 11L10 12L13 12L13 13L9 13L9 12L8 12L8 13L6 13L6 14L8 14L8 13L9 13L9 14L13 14L13 13L16 13L16 14L14 14L14 16L13 16L13 15L11 15L11 17L12 17L12 18L10 18L10 15L6 15L6 16L9 16L9 18L8 18L8 17L5 17L5 19L4 19L4 20L7 20L7 21L6 21L6 22L7 22L7 21L8 21L8 22L10 22L10 23L13 23L13 25L12 25L12 27L11 27L11 24L9 24L9 23L8 23L8 24L7 24L7 25L6 25L6 26L7 26L7 25L8 25L8 24L9 24L9 25L10 25L10 26L9 26L9 31L8 31L8 32L9 32L9 33L10 33L10 39L9 39L9 37L6 37L6 38L7 38L7 39L5 39L5 38L3 38L3 39L2 39L2 40L7 40L7 39L8 39L8 41L6 41L6 42L8 42L8 41L9 41L9 42L11 42L11 44L10 44L10 43L9 43L9 44L7 44L7 45L6 45L6 46L8 46L8 45L9 45L9 47L10 47L10 49L9 49L9 50L11 50L11 49L12 49L12 48L13 48L13 49L14 49L14 50L13 50L13 51L9 51L9 53L10 53L10 54L11 54L11 55L12 55L12 54L11 54L11 53L13 53L13 52L15 52L15 53L17 53L17 54L18 54L18 55L19 55L19 56L22 56L22 55L21 55L21 54L20 54L20 55L19 55L19 53L20 53L20 52L21 52L21 53L24 53L24 54L25 54L25 56L28 56L28 55L26 55L26 54L25 54L25 53L26 53L26 50L25 50L25 51L24 51L24 50L22 50L22 51L23 51L23 52L21 52L21 50L20 50L20 49L25 49L25 48L23 48L23 47L24 47L24 46L23 46L23 45L24 45L24 42L23 42L23 41L25 41L25 40L26 40L26 39L25 39L25 38L24 38L24 37L23 37L23 36L22 36L22 34L20 34L20 32L21 32L21 33L23 33L23 32L24 32L24 33L26 33L26 32L24 32L24 31L25 31L25 30L26 30L26 29L25 29L25 28L24 28L24 26L23 26L23 24L24 24L24 25L25 25L25 24L24 24L24 23L22 23L22 22L23 22L23 21L24 21L24 22L25 22L25 23L26 23L26 22L27 22L27 21L28 21L28 23L29 23L29 24L28 24L28 25L27 25L27 26L28 26L28 25L30 25L30 24L31 24L31 25L32 25L32 26L33 26L33 27L31 27L31 30L32 30L32 31L33 31L33 32L34 32L34 33L32 33L32 32L31 32L31 34L30 34L30 35L29 35L29 36L28 36L28 35L26 35L26 34L24 34L24 35L26 35L26 36L28 36L28 37L27 37L27 39L28 39L28 38L29 38L29 39L30 39L30 40L27 40L27 41L26 41L26 42L25 42L25 43L27 43L27 45L28 45L28 46L27 46L27 48L30 48L30 47L31 47L31 51L33 51L33 52L34 52L34 51L35 51L35 47L38 47L38 48L39 48L39 46L41 46L41 47L40 47L40 49L41 49L41 51L42 51L42 48L43 48L43 51L44 51L44 50L45 50L45 49L46 49L46 51L45 51L45 53L46 53L46 54L45 54L45 55L46 55L46 54L47 54L47 53L48 53L48 56L49 56L49 54L50 54L50 53L48 53L48 52L46 52L46 51L47 51L47 50L48 50L48 48L47 48L47 46L48 46L48 47L49 47L49 45L48 45L48 43L49 43L49 42L48 42L48 43L47 43L47 45L46 45L46 48L45 48L45 47L44 47L44 46L45 46L45 45L44 45L44 44L46 44L46 42L47 42L47 41L46 41L46 40L45 40L45 41L44 41L44 39L45 39L45 37L44 37L44 36L45 36L45 35L46 35L46 38L47 38L47 37L48 37L48 38L50 38L50 37L51 37L51 38L53 38L53 37L52 37L52 36L53 36L53 35L54 35L54 37L56 37L56 36L55 36L55 34L53 34L53 32L55 32L55 31L54 31L54 29L53 29L53 31L51 31L51 32L50 32L50 31L49 31L49 32L50 32L50 33L52 33L52 35L51 35L51 34L50 34L50 35L51 35L51 36L50 36L50 37L48 37L48 35L49 35L49 34L47 34L47 33L48 33L48 32L47 32L47 33L46 33L46 34L45 34L45 33L44 33L44 32L45 32L45 31L47 31L47 30L48 30L48 29L44 29L44 28L45 28L45 27L46 27L46 28L48 28L48 26L47 26L47 25L49 25L49 26L50 26L50 25L49 25L49 23L50 23L50 24L52 24L52 23L50 23L50 21L51 21L51 19L48 19L48 21L47 21L47 18L48 18L48 17L49 17L49 18L50 18L50 17L49 17L49 15L46 15L46 16L48 16L48 17L46 17L46 18L45 18L45 17L44 17L44 19L42 19L42 20L41 20L41 19L40 19L40 17L41 17L41 18L42 18L42 16L41 16L41 15L42 15L42 13L43 13L43 14L44 14L44 15L45 15L45 14L44 14L44 12L41 12L41 11L44 11L44 10L41 10L41 9L43 9L43 7L44 7L44 6L45 6L45 8L46 8L46 5L47 5L47 3L46 3L46 5L44 5L44 4L45 4L45 3L44 3L44 4L43 4L43 7L42 7L42 6L41 6L41 4L40 4L40 3L38 3L38 4L37 4L37 3L35 3L35 2L34 2L34 3L35 3L35 4L34 4L34 5L33 5L33 7L32 7L32 4L33 4L33 2L32 2L32 1ZM40 1L40 2L41 2L41 1ZM46 1L46 2L47 2L47 1ZM35 4L35 5L34 5L34 7L35 7L35 5L36 5L36 4ZM38 4L38 7L37 7L37 6L36 6L36 9L35 9L35 11L36 11L36 10L37 10L37 8L38 8L38 11L37 11L37 12L35 12L35 14L36 14L36 15L34 15L34 16L32 16L32 17L31 17L31 15L30 15L30 13L29 13L29 14L28 14L28 15L27 15L27 13L28 13L28 12L26 12L26 10L25 10L25 8L24 8L24 9L20 9L20 10L23 10L23 11L25 11L25 12L22 12L22 11L19 11L19 12L18 12L18 13L17 13L17 14L16 14L16 16L14 16L14 17L13 17L13 18L12 18L12 21L14 21L14 23L16 23L16 22L17 22L17 24L15 24L15 25L18 25L18 27L17 27L17 26L16 26L16 27L15 27L15 26L14 26L14 25L13 25L13 26L14 26L14 27L13 27L13 29L12 29L12 28L10 28L10 29L11 29L11 31L10 31L10 33L11 33L11 34L13 34L13 33L11 33L11 32L14 32L14 31L16 31L16 32L15 32L15 33L14 33L14 35L13 35L13 37L12 37L12 36L11 36L11 39L12 39L12 40L14 40L14 42L13 42L13 41L11 41L11 40L9 40L9 41L11 41L11 42L12 42L12 44L11 44L11 45L10 45L10 44L9 44L9 45L10 45L10 46L11 46L11 47L12 47L12 44L13 44L13 43L14 43L14 42L15 42L15 43L16 43L16 44L14 44L14 45L17 45L17 47L18 47L18 48L16 48L16 49L17 49L17 51L16 51L16 52L17 52L17 53L19 53L19 52L20 52L20 50L19 50L19 49L20 49L20 48L19 48L19 46L20 46L20 47L23 47L23 46L21 46L21 45L23 45L23 44L22 44L22 43L21 43L21 45L19 45L19 44L20 44L20 42L22 42L22 40L24 40L24 39L23 39L23 37L22 37L22 36L21 36L21 35L20 35L20 36L17 36L17 37L18 37L18 38L16 38L16 39L15 39L15 38L13 38L13 37L14 37L14 36L15 36L15 37L16 37L16 36L15 36L15 34L16 34L16 32L17 32L17 33L18 33L18 34L17 34L17 35L18 35L18 34L19 34L19 32L20 32L20 31L21 31L21 32L22 32L22 31L24 31L24 30L25 30L25 29L24 29L24 28L23 28L23 26L21 26L21 25L22 25L22 23L21 23L21 25L20 25L20 24L18 24L18 23L20 23L20 22L22 22L22 19L23 19L23 20L24 20L24 21L25 21L25 19L27 19L27 20L28 20L28 19L27 19L27 18L26 18L26 17L28 17L28 18L30 18L30 20L31 20L31 19L32 19L32 22L33 22L33 19L32 19L32 18L33 18L33 17L37 17L37 16L36 16L36 15L37 15L37 14L36 14L36 13L37 13L37 12L38 12L38 14L41 14L41 13L40 13L40 11L41 11L41 10L40 10L40 11L39 11L39 9L40 9L40 8L41 8L41 6L40 6L40 7L39 7L39 5L40 5L40 4ZM13 5L13 7L14 7L14 6L15 6L15 7L16 7L16 6L15 6L15 5ZM27 5L27 8L30 8L30 5ZM11 6L11 8L12 8L12 6ZM28 6L28 7L29 7L29 6ZM48 6L48 8L49 8L49 6ZM38 7L38 8L39 8L39 7ZM0 8L0 10L1 10L1 12L0 12L0 13L1 13L1 12L2 12L2 11L3 11L3 10L1 10L1 9L2 9L2 8ZM4 8L4 11L7 11L7 10L6 10L6 9L7 9L7 8ZM33 10L33 11L32 11L32 12L31 12L31 11L30 11L30 12L31 12L31 13L32 13L32 14L33 14L33 13L34 13L34 12L33 12L33 11L34 11L34 10ZM38 11L38 12L39 12L39 11ZM45 11L45 13L46 13L46 14L48 14L48 13L50 13L50 12L52 12L52 14L51 14L51 15L52 15L52 17L55 17L55 16L56 16L56 15L54 15L54 14L53 14L53 13L54 13L54 12L55 12L55 13L56 13L56 11L53 11L53 12L52 12L52 11L50 11L50 12L48 12L48 13L46 13L46 11ZM19 12L19 13L21 13L21 14L20 14L20 15L19 15L19 14L17 14L17 15L19 15L19 17L16 17L16 18L13 18L13 19L14 19L14 20L15 20L15 21L17 21L17 22L18 22L18 21L17 21L17 20L16 20L16 19L17 19L17 18L19 18L19 19L18 19L18 20L19 20L19 21L20 21L20 17L21 17L21 16L22 16L22 18L21 18L21 19L22 19L22 18L24 18L24 17L25 17L25 15L26 15L26 16L27 16L27 15L26 15L26 14L25 14L25 15L24 15L24 14L23 14L23 13L21 13L21 12ZM3 13L3 15L5 15L5 14L4 14L4 13ZM0 14L0 18L1 18L1 14ZM21 14L21 15L22 15L22 16L23 16L23 17L24 17L24 15L23 15L23 14ZM52 14L52 15L53 15L53 14ZM38 16L38 18L37 18L37 19L35 19L35 20L34 20L34 21L35 21L35 23L36 23L36 21L38 21L38 22L39 22L39 25L38 25L38 23L37 23L37 24L35 24L35 25L36 25L36 26L37 26L37 27L39 27L39 28L40 28L40 27L43 27L43 25L41 25L41 26L40 26L40 19L39 19L39 20L38 20L38 18L39 18L39 16ZM6 18L6 19L8 19L8 21L10 21L10 20L11 20L11 19L10 19L10 20L9 20L9 19L8 19L8 18ZM44 19L44 22L43 22L43 21L41 21L41 22L42 22L42 23L44 23L44 22L46 22L46 24L44 24L44 25L45 25L45 26L44 26L44 27L45 27L45 26L46 26L46 27L47 27L47 26L46 26L46 24L47 24L47 22L46 22L46 21L45 21L45 19ZM0 20L0 21L1 21L1 20ZM35 20L35 21L36 21L36 20ZM30 21L30 23L31 23L31 21ZM48 21L48 23L49 23L49 21ZM37 25L37 26L38 26L38 25ZM20 26L20 27L21 27L21 29L22 29L22 30L21 30L21 31L22 31L22 30L24 30L24 29L23 29L23 28L22 28L22 27L21 27L21 26ZM25 26L25 27L26 27L26 26ZM39 26L39 27L40 27L40 26ZM3 27L3 28L1 28L1 29L3 29L3 28L4 28L4 27ZM5 27L5 30L8 30L8 27ZM27 27L27 30L30 30L30 27ZM33 27L33 28L32 28L32 29L33 29L33 31L34 31L34 29L33 29L33 28L35 28L35 31L36 31L36 32L35 32L35 35L34 35L34 34L31 34L31 35L33 35L33 36L32 36L32 37L31 37L31 36L30 36L30 37L29 37L29 38L30 38L30 37L31 37L31 38L34 38L34 39L33 39L33 40L32 40L32 39L31 39L31 40L30 40L30 41L29 41L29 43L28 43L28 45L29 45L29 44L30 44L30 46L29 46L29 47L30 47L30 46L32 46L32 50L34 50L34 49L33 49L33 47L34 47L34 45L38 45L38 46L39 46L39 43L38 43L38 42L39 42L39 41L40 41L40 40L41 40L41 42L40 42L40 43L41 43L41 44L42 44L42 45L41 45L41 46L44 46L44 45L43 45L43 43L45 43L45 42L46 42L46 41L45 41L45 42L43 42L43 40L42 40L42 39L44 39L44 38L43 38L43 37L42 37L42 36L41 36L41 37L40 37L40 38L39 38L39 35L41 35L41 34L42 34L42 35L43 35L43 36L44 36L44 35L45 35L45 34L44 34L44 33L42 33L42 32L43 32L43 31L44 31L44 30L43 30L43 29L41 29L41 31L42 31L42 32L41 32L41 34L40 34L40 29L38 29L38 31L36 31L36 29L37 29L37 28L36 28L36 27ZM49 27L49 30L52 30L52 27ZM6 28L6 29L7 29L7 28ZM14 28L14 29L13 29L13 30L12 30L12 31L13 31L13 30L15 30L15 29L16 29L16 30L18 30L18 29L19 29L19 31L20 31L20 28L18 28L18 29L17 29L17 28ZM28 28L28 29L29 29L29 28ZM50 28L50 29L51 29L51 28ZM17 31L17 32L18 32L18 31ZM27 31L27 32L28 32L28 31ZM29 31L29 33L27 33L27 34L29 34L29 33L30 33L30 31ZM38 31L38 32L37 32L37 34L36 34L36 36L37 36L37 38L36 38L36 37L34 37L34 38L35 38L35 40L34 40L34 41L33 41L33 42L32 42L32 41L30 41L30 43L31 43L31 45L32 45L32 44L34 44L34 43L33 43L33 42L35 42L35 43L37 43L37 44L38 44L38 43L37 43L37 42L38 42L38 41L36 41L36 42L35 42L35 40L39 40L39 39L37 39L37 38L38 38L38 35L37 35L37 34L38 34L38 32L39 32L39 31ZM1 32L1 34L2 34L2 32ZM6 34L6 35L7 35L7 34ZM46 34L46 35L47 35L47 34ZM19 37L19 38L18 38L18 39L17 39L17 40L19 40L19 41L21 41L21 40L19 40L19 39L20 39L20 38L21 38L21 39L22 39L22 37ZM12 38L12 39L13 39L13 38ZM40 38L40 39L42 39L42 38ZM14 39L14 40L15 40L15 39ZM16 41L16 42L17 42L17 41ZM27 41L27 42L28 42L28 41ZM52 41L52 42L53 42L53 41ZM55 41L55 42L56 42L56 41ZM0 42L0 43L1 43L1 45L2 45L2 42ZM18 42L18 43L17 43L17 45L18 45L18 44L19 44L19 42ZM25 44L25 45L26 45L26 44ZM53 44L53 46L54 46L54 47L55 47L55 45L56 45L56 44ZM50 45L50 47L51 47L51 45ZM13 46L13 47L14 47L14 48L15 48L15 46ZM41 47L41 48L42 48L42 47ZM6 48L6 49L7 49L7 48ZM44 48L44 49L45 49L45 48ZM46 48L46 49L47 49L47 48ZM27 49L27 52L30 52L30 49ZM49 49L49 52L52 52L52 49ZM14 50L14 51L15 51L15 50ZM18 50L18 51L17 51L17 52L19 52L19 50ZM28 50L28 51L29 51L29 50ZM50 50L50 51L51 51L51 50ZM10 52L10 53L11 53L11 52ZM24 52L24 53L25 53L25 52ZM40 52L40 54L41 54L41 52ZM43 52L43 54L44 54L44 52ZM55 52L55 54L57 54L57 52ZM30 53L30 54L31 54L31 53ZM34 56L34 57L37 57L37 56ZM41 56L41 57L42 57L42 56ZM54 56L54 57L55 57L55 56ZM56 56L56 57L57 57L57 56ZM0 0L0 7L7 7L7 0ZM1 1L1 6L6 6L6 1ZM2 2L2 5L5 5L5 2ZM50 0L50 7L57 7L57 0ZM51 1L51 6L56 6L56 1ZM52 2L52 5L55 5L55 2ZM0 50L0 57L7 57L7 50ZM1 51L1 56L6 56L6 51ZM2 52L2 55L5 55L5 52Z" fill="#000000"/></g></g></svg>
