<?xml version="1.0" encoding="UTF-8"?>
<svg xmlns="http://www.w3.org/2000/svg" version="1.1" width="300" height="300" viewBox="0 0 300 300"><rect x="0" y="0" width="300" height="300" fill="#ffffff"/><g transform="scale(5.263)"><g transform="translate(0,0)"><path fill-rule="evenodd" d="M12 0L12 1L11 1L11 3L12 3L12 4L10 4L10 3L8 3L8 4L10 4L10 5L13 5L13 6L12 6L12 7L13 7L13 8L12 8L12 10L13 10L13 11L9 11L9 10L11 10L11 9L10 9L10 7L11 7L11 6L10 6L10 7L9 7L9 5L8 5L8 7L9 7L9 8L6 8L6 9L5 9L5 8L0 8L0 9L3 9L3 10L1 10L1 11L3 11L3 12L1 12L1 14L0 14L0 15L1 15L1 16L2 16L2 17L3 17L3 18L0 18L0 20L3 20L3 19L4 19L4 22L5 22L5 23L4 23L4 24L3 24L3 25L1 25L1 24L2 24L2 23L0 23L0 25L1 25L1 26L0 26L0 27L1 27L1 26L3 26L3 27L4 27L4 29L2 29L2 28L1 28L1 29L0 29L0 31L1 31L1 32L2 32L2 33L1 33L1 35L0 35L0 39L3 39L3 40L0 40L0 43L1 43L1 44L2 44L2 45L1 45L1 46L0 46L0 48L5 48L5 47L7 47L7 46L8 46L8 45L9 45L9 44L11 44L11 43L12 43L12 44L13 44L13 45L12 45L12 46L9 46L9 48L6 48L6 49L8 49L8 51L9 51L9 52L8 52L8 57L13 57L13 56L9 56L9 54L10 54L10 55L11 55L11 52L12 52L12 50L11 50L11 49L12 49L12 48L13 48L13 50L15 50L15 51L13 51L13 52L14 52L14 53L16 53L16 54L15 54L15 55L16 55L16 57L17 57L17 56L18 56L18 57L19 57L19 56L18 56L18 55L20 55L20 54L18 54L18 53L20 53L20 52L19 52L19 51L20 51L20 49L21 49L21 51L22 51L22 50L23 50L23 52L24 52L24 53L22 53L22 52L21 52L21 53L22 53L22 54L21 54L21 56L23 56L23 57L24 57L24 55L22 55L22 54L24 54L24 53L25 53L25 57L26 57L26 55L27 55L27 56L30 56L30 57L35 57L35 56L36 56L36 57L37 57L37 56L38 56L38 57L39 57L39 56L42 56L42 57L44 57L44 56L45 56L45 57L46 57L46 56L47 56L47 57L49 57L49 56L50 56L50 57L52 57L52 56L50 56L50 55L51 55L51 54L53 54L53 56L55 56L55 57L56 57L56 56L55 56L55 54L53 54L53 52L55 52L55 53L57 53L57 52L56 52L56 50L55 50L55 51L53 51L53 48L54 48L54 49L55 49L55 48L56 48L56 44L57 44L57 43L56 43L56 42L57 42L57 41L56 41L56 42L55 42L55 39L57 39L57 36L55 36L55 35L56 35L56 34L57 34L57 33L56 33L56 34L55 34L55 33L54 33L54 34L55 34L55 35L53 35L53 34L51 34L51 33L53 33L53 32L57 32L57 31L56 31L56 30L57 30L57 28L56 28L56 30L55 30L55 31L54 31L54 28L55 28L55 27L56 27L56 26L57 26L57 23L55 23L55 22L57 22L57 21L56 21L56 18L57 18L57 17L56 17L56 18L55 18L55 16L57 16L57 15L56 15L56 13L57 13L57 12L56 12L56 13L55 13L55 11L53 11L53 12L54 12L54 14L53 14L53 15L52 15L52 16L54 16L54 18L53 18L53 17L52 17L52 18L49 18L49 16L50 16L50 17L51 17L51 16L50 16L50 15L51 15L51 14L52 14L52 13L51 13L51 14L50 14L50 13L49 13L49 12L48 12L48 10L50 10L50 12L52 12L52 11L51 11L51 10L53 10L53 9L54 9L54 10L57 10L57 9L56 9L56 8L55 8L55 9L54 9L54 8L53 8L53 9L52 9L52 8L51 8L51 10L50 10L50 8L49 8L49 9L48 9L48 7L49 7L49 6L48 6L48 7L47 7L47 5L48 5L48 0L44 0L44 2L43 2L43 0L41 0L41 1L38 1L38 0L37 0L37 2L36 2L36 0L35 0L35 1L34 1L34 0L33 0L33 1L32 1L32 2L31 2L31 0L29 0L29 2L28 2L28 0L27 0L27 1L26 1L26 2L28 2L28 3L27 3L27 4L26 4L26 3L25 3L25 0L21 0L21 1L22 1L22 2L21 2L21 3L23 3L23 4L24 4L24 5L23 5L23 6L22 6L22 8L21 8L21 4L19 4L19 3L20 3L20 0L18 0L18 2L17 2L17 1L16 1L16 3L18 3L18 4L17 4L17 5L18 5L18 7L17 7L17 6L16 6L16 7L15 7L15 6L14 6L14 2L15 2L15 1L13 1L13 0ZM8 1L8 2L10 2L10 1ZM23 1L23 2L24 2L24 1ZM33 1L33 2L34 2L34 3L35 3L35 2L34 2L34 1ZM41 1L41 2L42 2L42 3L40 3L40 2L39 2L39 3L37 3L37 4L36 4L36 5L35 5L35 4L33 4L33 3L28 3L28 4L31 4L31 7L32 7L32 8L31 8L31 9L32 9L32 10L31 10L31 11L30 11L30 12L28 12L28 11L29 11L29 10L26 10L26 9L25 9L25 10L24 10L24 11L26 11L26 12L25 12L25 14L27 14L27 15L26 15L26 16L25 16L25 18L26 18L26 16L27 16L27 17L28 17L28 16L29 16L29 17L31 17L31 16L32 16L32 17L33 17L33 16L32 16L32 15L33 15L33 14L35 14L35 16L34 16L34 18L33 18L33 19L32 19L32 18L29 18L29 19L31 19L31 20L28 20L28 18L27 18L27 19L26 19L26 20L25 20L25 21L24 21L24 20L21 20L21 17L22 17L22 19L23 19L23 16L24 16L24 15L23 15L23 16L21 16L21 15L22 15L22 14L23 14L23 13L24 13L24 12L23 12L23 13L22 13L22 12L19 12L19 13L20 13L20 14L19 14L19 15L20 15L20 16L19 16L19 17L20 17L20 19L19 19L19 20L20 20L20 21L18 21L18 17L16 17L16 18L15 18L15 15L16 15L16 16L18 16L18 15L16 15L16 14L17 14L17 13L18 13L18 12L16 12L16 13L13 13L13 12L14 12L14 11L13 11L13 12L12 12L12 13L13 13L13 14L12 14L12 15L10 15L10 16L11 16L11 19L10 19L10 18L9 18L9 15L8 15L8 13L6 13L6 12L7 12L7 11L6 11L6 10L9 10L9 9L6 9L6 10L5 10L5 11L4 11L4 10L3 10L3 11L4 11L4 14L3 14L3 13L2 13L2 14L1 14L1 15L6 15L6 16L8 16L8 18L7 18L7 17L6 17L6 18L7 18L7 19L6 19L6 20L7 20L7 21L6 21L6 22L8 22L8 24L7 24L7 23L5 23L5 24L7 24L7 25L5 25L5 26L8 26L8 24L10 24L10 25L11 25L11 27L10 27L10 26L9 26L9 27L10 27L10 29L9 29L9 31L12 31L12 32L14 32L14 33L12 33L12 34L11 34L11 35L10 35L10 34L9 34L9 32L8 32L8 31L6 31L6 32L8 32L8 34L7 34L7 33L5 33L5 31L4 31L4 30L3 30L3 32L4 32L4 33L3 33L3 34L2 34L2 36L1 36L1 37L2 37L2 38L3 38L3 37L4 37L4 36L5 36L5 35L6 35L6 36L7 36L7 35L10 35L10 36L9 36L9 37L8 37L8 38L9 38L9 42L8 42L8 44L9 44L9 42L10 42L10 43L11 43L11 40L12 40L12 39L11 39L11 38L9 38L9 37L13 37L13 41L14 41L14 40L15 40L15 39L16 39L16 40L17 40L17 33L15 33L15 32L14 32L14 30L15 30L15 29L16 29L16 31L17 31L17 32L19 32L19 31L17 31L17 30L18 30L18 29L19 29L19 30L20 30L20 32L21 32L21 33L18 33L18 34L20 34L20 36L19 36L19 35L18 35L18 36L19 36L19 37L21 37L21 39L23 39L23 40L21 40L21 41L19 41L19 42L20 42L20 43L22 43L22 42L23 42L23 45L22 45L22 44L21 44L21 45L20 45L20 46L21 46L21 47L19 47L19 46L17 46L17 45L18 45L18 44L17 44L17 43L18 43L18 41L15 41L15 42L17 42L17 43L16 43L16 44L14 44L14 45L13 45L13 46L12 46L12 47L15 47L15 50L16 50L16 51L15 51L15 52L16 52L16 53L17 53L17 52L18 52L18 51L17 51L17 49L18 49L18 50L19 50L19 49L20 49L20 48L21 48L21 49L25 49L25 50L26 50L26 48L27 48L27 47L25 47L25 48L23 48L23 47L22 47L22 46L23 46L23 45L24 45L24 42L23 42L23 41L25 41L25 43L27 43L27 44L26 44L26 45L25 45L25 46L26 46L26 45L28 45L28 46L29 46L29 47L30 47L30 48L31 48L31 47L32 47L32 49L31 49L31 52L32 52L32 54L31 54L31 53L30 53L30 54L29 54L29 53L28 53L28 54L27 54L27 55L30 55L30 56L34 56L34 55L35 55L35 54L36 54L36 56L37 56L37 53L38 53L38 54L39 54L39 55L38 55L38 56L39 56L39 55L41 55L41 54L42 54L42 55L46 55L46 54L48 54L48 53L47 53L47 52L48 52L48 51L44 51L44 50L48 50L48 48L50 48L50 47L51 47L51 46L53 46L53 44L52 44L52 45L51 45L51 46L50 46L50 47L47 47L47 45L48 45L48 46L49 46L49 43L48 43L48 44L47 44L47 43L46 43L46 42L47 42L47 41L51 41L51 42L50 42L50 44L51 44L51 43L53 43L53 42L54 42L54 41L53 41L53 40L52 40L52 41L51 41L51 38L53 38L53 35L52 35L52 36L49 36L49 35L48 35L48 33L49 33L49 34L50 34L50 35L51 35L51 34L50 34L50 32L53 32L53 31L48 31L48 30L47 30L47 29L46 29L46 28L48 28L48 25L50 25L50 26L53 26L53 28L54 28L54 25L53 25L53 23L52 23L52 22L51 22L51 21L53 21L53 22L54 22L54 21L55 21L55 20L53 20L53 18L52 18L52 19L50 19L50 20L51 20L51 21L50 21L50 22L48 22L48 21L49 21L49 18L48 18L48 19L47 19L47 20L46 20L46 19L44 19L44 18L47 18L47 17L48 17L48 16L49 16L49 14L48 14L48 15L47 15L47 16L46 16L46 17L45 17L45 16L44 16L44 14L43 14L43 15L42 15L42 14L40 14L40 16L39 16L39 15L36 15L36 14L37 14L37 13L38 13L38 14L39 14L39 13L41 13L41 12L39 12L39 10L40 10L40 11L41 11L41 10L40 10L40 9L41 9L41 8L42 8L42 6L43 6L43 7L44 7L44 9L45 9L45 10L43 10L43 12L42 12L42 13L43 13L43 12L44 12L44 13L45 13L45 14L47 14L47 11L46 11L46 10L48 10L48 9L46 9L46 6L45 6L45 7L44 7L44 6L43 6L43 5L44 5L44 4L45 4L45 5L47 5L47 3L46 3L46 4L45 4L45 3L44 3L44 4L43 4L43 5L42 5L42 6L41 6L41 5L40 5L40 4L42 4L42 3L43 3L43 2L42 2L42 1ZM45 1L45 2L47 2L47 1ZM12 2L12 3L13 3L13 2ZM39 3L39 4L40 4L40 3ZM15 4L15 5L16 5L16 4ZM18 4L18 5L19 5L19 7L18 7L18 8L19 8L19 7L20 7L20 5L19 5L19 4ZM25 4L25 8L26 8L26 4ZM32 4L32 5L33 5L33 4ZM37 4L37 5L38 5L38 4ZM27 5L27 8L30 8L30 5ZM34 5L34 8L36 8L36 9L35 9L35 10L34 10L34 9L33 9L33 11L35 11L35 12L34 12L34 13L37 13L37 12L38 12L38 9L37 9L37 8L36 8L36 7L37 7L37 6L36 6L36 7L35 7L35 5ZM39 5L39 6L38 6L38 8L39 8L39 6L40 6L40 8L41 8L41 6L40 6L40 5ZM13 6L13 7L14 7L14 8L13 8L13 9L15 9L15 10L17 10L17 11L18 11L18 10L19 10L19 11L22 11L22 9L23 9L23 8L24 8L24 6L23 6L23 8L22 8L22 9L21 9L21 8L20 8L20 10L19 10L19 9L17 9L17 7L16 7L16 9L15 9L15 7L14 7L14 6ZM28 6L28 7L29 7L29 6ZM32 6L32 7L33 7L33 6ZM5 11L5 12L6 12L6 11ZM31 11L31 14L30 14L30 13L29 13L29 14L30 14L30 16L31 16L31 14L33 14L33 13L32 13L32 11ZM45 11L45 12L46 12L46 11ZM10 12L10 13L9 13L9 14L11 14L11 12ZM5 13L5 14L6 14L6 15L7 15L7 14L6 14L6 13ZM21 13L21 14L22 14L22 13ZM27 13L27 14L28 14L28 13ZM14 14L14 15L12 15L12 17L13 17L13 18L12 18L12 19L11 19L11 21L10 21L10 20L9 20L9 18L8 18L8 19L7 19L7 20L9 20L9 21L8 21L8 22L9 22L9 23L10 23L10 22L11 22L11 24L12 24L12 25L13 25L13 24L14 24L14 26L13 26L13 27L11 27L11 28L14 28L14 29L15 29L15 27L18 27L18 26L19 26L19 29L22 29L22 28L21 28L21 27L22 27L22 26L23 26L23 28L24 28L24 29L23 29L23 30L21 30L21 31L22 31L22 32L23 32L23 30L26 30L26 31L29 31L29 32L30 32L30 33L29 33L29 34L30 34L30 35L27 35L27 34L25 34L25 33L28 33L28 32L25 32L25 31L24 31L24 33L21 33L21 34L22 34L22 35L21 35L21 36L22 36L22 35L23 35L23 34L25 34L25 35L24 35L24 36L23 36L23 37L24 37L24 38L23 38L23 39L24 39L24 40L25 40L25 39L27 39L27 40L28 40L28 41L26 41L26 42L27 42L27 43L31 43L31 44L30 44L30 47L31 47L31 45L32 45L32 46L33 46L33 45L32 45L32 43L31 43L31 42L32 42L32 41L31 41L31 40L32 40L32 39L33 39L33 40L34 40L34 39L35 39L35 38L36 38L36 39L37 39L37 38L38 38L38 39L39 39L39 40L38 40L38 41L37 41L37 40L35 40L35 41L37 41L37 42L36 42L36 44L34 44L34 41L33 41L33 44L34 44L34 45L35 45L35 46L34 46L34 48L33 48L33 49L34 49L34 48L35 48L35 49L38 49L38 48L39 48L39 47L38 47L38 48L37 48L37 47L35 47L35 46L38 46L38 45L39 45L39 46L41 46L41 47L42 47L42 46L44 46L44 44L45 44L45 45L47 45L47 44L46 44L46 43L44 43L44 42L46 42L46 41L47 41L47 40L48 40L48 39L50 39L50 37L49 37L49 38L48 38L48 39L47 39L47 38L45 38L45 37L44 37L44 38L43 38L43 37L42 37L42 36L46 36L46 34L45 34L45 33L47 33L47 32L48 32L48 31L47 31L47 30L46 30L46 29L44 29L44 28L45 28L45 27L46 27L46 26L45 26L45 25L47 25L47 24L48 24L48 22L46 22L46 20L45 20L45 21L44 21L44 20L43 20L43 18L44 18L44 16L41 16L41 19L40 19L40 17L39 17L39 19L40 19L40 20L41 20L41 21L40 21L40 22L43 22L43 23L44 23L44 22L46 22L46 23L45 23L45 25L44 25L44 24L42 24L42 25L40 25L40 28L41 28L41 29L39 29L39 28L37 28L37 27L36 27L36 26L38 26L38 25L37 25L37 24L38 24L38 23L39 23L39 24L40 24L40 23L39 23L39 22L38 22L38 23L36 23L36 21L38 21L38 16L36 16L36 20L34 20L34 19L35 19L35 18L34 18L34 19L33 19L33 21L32 21L32 20L31 20L31 21L30 21L30 22L29 22L29 21L28 21L28 20L26 20L26 21L25 21L25 22L26 22L26 23L25 23L25 24L24 24L24 23L22 23L22 22L24 22L24 21L21 21L21 24L20 24L20 25L21 25L21 24L24 24L24 25L22 25L22 26L21 26L21 27L20 27L20 26L19 26L19 23L20 23L20 22L18 22L18 21L16 21L16 19L15 19L15 21L16 21L16 22L15 22L15 23L13 23L13 22L14 22L14 21L13 21L13 20L14 20L14 19L13 19L13 18L14 18L14 15L15 15L15 14ZM54 14L54 15L55 15L55 14ZM27 15L27 16L28 16L28 15ZM20 16L20 17L21 17L21 16ZM12 19L12 20L13 20L13 19ZM42 20L42 21L43 21L43 20ZM47 20L47 21L48 21L48 20ZM1 21L1 22L2 22L2 21ZM9 21L9 22L10 22L10 21ZM11 21L11 22L13 22L13 21ZM27 21L27 22L28 22L28 24L25 24L25 25L29 25L29 24L34 24L34 26L33 26L33 28L32 28L32 29L31 29L31 32L32 32L32 33L31 33L31 34L32 34L32 35L31 35L31 37L30 37L30 36L27 36L27 35L26 35L26 36L25 36L25 38L26 38L26 36L27 36L27 37L28 37L28 38L27 38L27 39L28 39L28 40L30 40L30 39L29 39L29 37L30 37L30 38L31 38L31 37L33 37L33 38L35 38L35 37L33 37L33 36L32 36L32 35L33 35L33 33L34 33L34 34L36 34L36 33L35 33L35 32L34 32L34 31L35 31L35 30L36 30L36 32L38 32L38 33L37 33L37 34L41 34L41 32L42 32L42 30L39 30L39 29L38 29L38 31L37 31L37 29L35 29L35 28L34 28L34 26L36 26L36 25L35 25L35 24L34 24L34 22L35 22L35 21L33 21L33 23L32 23L32 22L30 22L30 23L29 23L29 22L28 22L28 21ZM50 22L50 23L49 23L49 24L51 24L51 22ZM12 23L12 24L13 24L13 23ZM15 23L15 24L16 24L16 23ZM3 25L3 26L4 26L4 25ZM15 25L15 26L14 26L14 27L15 27L15 26L18 26L18 25ZM31 25L31 26L32 26L32 25ZM43 25L43 28L44 28L44 25ZM55 25L55 26L56 26L56 25ZM5 27L5 30L8 30L8 27ZM24 27L24 28L25 28L25 29L26 29L26 27ZM27 27L27 30L30 30L30 27ZM41 27L41 28L42 28L42 27ZM49 27L49 30L52 30L52 27ZM6 28L6 29L7 29L7 28ZM16 28L16 29L18 29L18 28ZM28 28L28 29L29 29L29 28ZM50 28L50 29L51 29L51 28ZM1 29L1 31L2 31L2 29ZM12 29L12 31L13 31L13 29ZM32 29L32 30L33 30L33 29ZM43 30L43 32L44 32L44 33L45 33L45 32L44 32L44 30ZM45 30L45 31L46 31L46 30ZM32 31L32 32L33 32L33 31ZM38 31L38 32L39 32L39 31ZM40 31L40 32L41 32L41 31ZM4 33L4 34L3 34L3 35L4 35L4 34L5 34L5 33ZM14 33L14 34L13 34L13 35L14 35L14 39L15 39L15 38L16 38L16 37L15 37L15 36L16 36L16 35L15 35L15 33ZM6 34L6 35L7 35L7 34ZM43 34L43 35L45 35L45 34ZM34 35L34 36L36 36L36 35ZM37 35L37 36L38 36L38 35ZM39 35L39 36L40 36L40 37L38 37L38 38L40 38L40 37L41 37L41 36L40 36L40 35ZM47 35L47 36L48 36L48 35ZM2 36L2 37L3 37L3 36ZM54 36L54 37L55 37L55 38L56 38L56 37L55 37L55 36ZM6 37L6 38L7 38L7 37ZM36 37L36 38L37 38L37 37ZM4 38L4 39L5 39L5 38ZM19 38L19 39L20 39L20 38ZM41 38L41 39L40 39L40 40L39 40L39 41L38 41L38 42L39 42L39 43L37 43L37 45L38 45L38 44L39 44L39 45L43 45L43 44L44 44L44 43L43 43L43 42L42 42L42 39L43 39L43 38ZM6 39L6 40L4 40L4 41L5 41L5 42L4 42L4 43L3 43L3 41L1 41L1 42L2 42L2 44L3 44L3 45L2 45L2 46L1 46L1 47L2 47L2 46L3 46L3 47L5 47L5 46L7 46L7 45L5 45L5 46L4 46L4 44L7 44L7 43L5 43L5 42L7 42L7 41L8 41L8 39ZM44 39L44 41L46 41L46 39ZM6 40L6 41L7 41L7 40ZM28 41L28 42L29 42L29 41ZM30 41L30 42L31 42L31 41ZM40 41L40 42L41 42L41 43L39 43L39 44L43 44L43 43L42 43L42 42L41 42L41 41ZM12 42L12 43L14 43L14 42ZM55 43L55 44L56 44L56 43ZM16 44L16 45L17 45L17 44ZM28 44L28 45L29 45L29 44ZM21 45L21 46L22 46L22 45ZM15 46L15 47L16 47L16 46ZM45 46L45 47L46 47L46 46ZM10 47L10 48L9 48L9 51L10 51L10 52L11 52L11 51L10 51L10 49L11 49L11 47ZM43 47L43 49L41 49L41 50L43 50L43 49L44 49L44 47ZM16 48L16 49L17 49L17 48ZM18 48L18 49L19 49L19 48ZM27 49L27 52L30 52L30 49ZM49 49L49 52L52 52L52 49ZM28 50L28 51L29 51L29 50ZM36 50L36 51L35 51L35 52L33 52L33 53L37 53L37 52L38 52L38 53L39 53L39 54L41 54L41 53L42 53L42 54L44 54L44 52L43 52L43 53L42 53L42 51L40 51L40 50ZM50 50L50 51L51 51L51 50ZM25 51L25 53L26 53L26 51ZM39 52L39 53L41 53L41 52ZM45 52L45 54L46 54L46 52ZM50 53L50 54L49 54L49 55L50 55L50 54L51 54L51 53ZM12 54L12 55L13 55L13 54ZM33 54L33 55L34 55L34 54ZM14 56L14 57L15 57L15 56ZM0 0L0 7L7 7L7 0ZM1 1L1 6L6 6L6 1ZM2 2L2 5L5 5L5 2ZM50 0L50 7L57 7L57 0ZM51 1L51 6L56 6L56 1ZM52 2L52 5L55 5L55 2ZM0 50L0 57L7 57L7 50ZM1 51L1 56L6 56L6 51ZM2 52L2 55L5 55L5 52Z" fill="#000000"/></g></g></svg>
