<?xml version="1.0" encoding="UTF-8"?>
<svg xmlns="http://www.w3.org/2000/svg" version="1.1" width="300" height="300" viewBox="0 0 300 300"><rect x="0" y="0" width="300" height="300" fill="#ffffff"/><g transform="scale(5.263)"><g transform="translate(0,0)"><path fill-rule="evenodd" d="M11 0L11 1L10 1L10 3L11 3L11 4L12 4L12 3L13 3L13 5L12 5L12 7L13 7L13 8L11 8L11 6L10 6L10 5L8 5L8 7L9 7L9 6L10 6L10 8L6 8L6 9L7 9L7 10L5 10L5 8L0 8L0 9L1 9L1 12L0 12L0 13L1 13L1 12L2 12L2 13L3 13L3 12L5 12L5 13L7 13L7 14L6 14L6 15L7 15L7 16L5 16L5 18L6 18L6 19L7 19L7 20L6 20L6 21L5 21L5 19L2 19L2 20L1 20L1 17L0 17L0 22L1 22L1 23L0 23L0 25L1 25L1 27L2 27L2 25L3 25L3 28L1 28L1 29L0 29L0 30L2 30L2 31L1 31L1 33L0 33L0 36L1 36L1 37L0 37L0 44L1 44L1 41L2 41L2 40L1 40L1 39L2 39L2 38L3 38L3 39L4 39L4 38L3 38L3 34L2 34L2 31L4 31L4 32L3 32L3 33L4 33L4 34L6 34L6 35L5 35L5 36L4 36L4 37L5 37L5 38L6 38L6 39L7 39L7 40L6 40L6 41L7 41L7 42L4 42L4 41L5 41L5 40L3 40L3 44L2 44L2 45L1 45L1 46L0 46L0 48L5 48L5 47L7 47L7 46L8 46L8 45L7 45L7 44L6 44L6 43L8 43L8 44L9 44L9 42L11 42L11 43L12 43L12 42L13 42L13 41L14 41L14 40L16 40L16 39L14 39L14 40L13 40L13 39L11 39L11 38L12 38L12 37L13 37L13 38L14 38L14 37L15 37L15 38L16 38L16 37L15 37L15 36L14 36L14 35L18 35L18 36L17 36L17 37L18 37L18 39L17 39L17 41L18 41L18 43L17 43L17 42L15 42L15 43L14 43L14 44L11 44L11 45L10 45L10 46L9 46L9 47L8 47L8 48L6 48L6 49L8 49L8 51L9 51L9 52L8 52L8 57L11 57L11 56L12 56L12 55L13 55L13 54L14 54L14 56L13 56L13 57L16 57L16 56L17 56L17 57L19 57L19 56L17 56L17 55L18 55L18 54L17 54L17 53L20 53L20 52L18 52L18 51L17 51L17 53L16 53L16 51L14 51L14 50L15 50L15 48L14 48L14 47L13 47L13 48L12 48L12 47L10 47L10 46L11 46L11 45L15 45L15 44L16 44L16 45L17 45L17 46L16 46L16 49L22 49L22 50L23 50L23 52L24 52L24 53L22 53L22 54L21 54L21 56L20 56L20 57L21 57L21 56L22 56L22 55L23 55L23 56L24 56L24 57L26 57L26 56L27 56L27 57L29 57L29 56L30 56L30 57L38 57L38 55L39 55L39 56L40 56L40 55L42 55L42 54L43 54L43 53L44 53L44 54L45 54L45 53L47 53L47 55L45 55L45 57L50 57L50 55L49 55L49 53L50 53L50 54L52 54L52 53L53 53L53 55L54 55L54 56L53 56L53 57L54 57L54 56L55 56L55 57L56 57L56 56L55 56L55 55L54 55L54 54L55 54L55 52L56 52L56 53L57 53L57 51L56 51L56 50L57 50L57 48L56 48L56 46L55 46L55 47L53 47L53 48L51 48L51 47L52 47L52 45L54 45L54 44L55 44L55 45L57 45L57 44L55 44L55 43L56 43L56 41L55 41L55 42L53 42L53 43L52 43L52 42L51 42L51 43L50 43L50 42L49 42L49 41L47 41L47 40L46 40L46 39L47 39L47 38L46 38L46 36L45 36L45 37L44 37L44 35L43 35L43 34L46 34L46 35L47 35L47 36L48 36L48 37L49 37L49 36L50 36L50 38L48 38L48 39L49 39L49 40L50 40L50 41L52 41L52 40L51 40L51 39L53 39L53 38L54 38L54 37L55 37L55 36L56 36L56 33L57 33L57 32L56 32L56 30L57 30L57 28L56 28L56 26L57 26L57 23L53 23L53 24L54 24L54 27L53 27L53 25L52 25L52 26L49 26L49 25L48 25L48 24L50 24L50 25L51 25L51 24L52 24L52 23L51 23L51 22L50 22L50 21L48 21L48 20L49 20L49 19L50 19L50 20L52 20L52 19L53 19L53 20L55 20L55 17L56 17L56 18L57 18L57 15L56 15L56 14L57 14L57 12L56 12L56 8L55 8L55 9L54 9L54 8L53 8L53 9L54 9L54 10L55 10L55 11L53 11L53 10L49 10L49 9L50 9L50 8L48 8L48 7L49 7L49 6L48 6L48 7L47 7L47 5L48 5L48 0L45 0L45 1L47 1L47 2L44 2L44 0L40 0L40 1L39 1L39 3L38 3L38 2L37 2L37 1L38 1L38 0L37 0L37 1L36 1L36 0L35 0L35 2L34 2L34 1L33 1L33 2L32 2L32 1L31 1L31 0L29 0L29 1L28 1L28 3L29 3L29 1L30 1L30 3L31 3L31 4L26 4L26 3L25 3L25 2L27 2L27 1L26 1L26 0L23 0L23 1L24 1L24 2L22 2L22 3L23 3L23 4L22 4L22 5L21 5L21 4L19 4L19 2L20 2L20 3L21 3L21 2L20 2L20 0L18 0L18 1L15 1L15 0L14 0L14 3L13 3L13 2L12 2L12 0ZM8 1L8 2L9 2L9 1ZM40 1L40 3L39 3L39 4L38 4L38 5L35 5L35 4L36 4L36 3L37 3L37 2L36 2L36 3L35 3L35 4L33 4L33 3L34 3L34 2L33 2L33 3L32 3L32 2L31 2L31 3L32 3L32 4L31 4L31 7L32 7L32 8L31 8L31 9L32 9L32 10L30 10L30 12L28 12L28 11L29 11L29 9L27 9L27 10L26 10L26 9L25 9L25 8L26 8L26 4L25 4L25 8L24 8L24 6L23 6L23 5L24 5L24 4L23 4L23 5L22 5L22 6L21 6L21 7L22 7L22 8L19 8L19 7L20 7L20 5L19 5L19 7L18 7L18 6L17 6L17 5L18 5L18 4L17 4L17 2L15 2L15 3L14 3L14 4L16 4L16 5L14 5L14 6L13 6L13 7L14 7L14 9L12 9L12 10L11 10L11 11L12 11L12 13L13 13L13 14L12 14L12 15L11 15L11 13L10 13L10 16L9 16L9 17L10 17L10 19L12 19L12 20L10 20L10 24L9 24L9 23L8 23L8 24L7 24L7 23L5 23L5 21L3 21L3 20L2 20L2 21L1 21L1 22L2 22L2 21L3 21L3 22L4 22L4 24L3 24L3 25L4 25L4 24L7 24L7 25L6 25L6 26L7 26L7 25L9 25L9 27L10 27L10 28L9 28L9 29L10 29L10 28L11 28L11 30L10 30L10 31L5 31L5 32L11 32L11 34L10 34L10 33L9 33L9 35L11 35L11 36L8 36L8 33L6 33L6 34L7 34L7 35L6 35L6 36L7 36L7 37L6 37L6 38L7 38L7 39L9 39L9 41L13 41L13 40L11 40L11 39L9 39L9 38L11 38L11 37L12 37L12 35L11 35L11 34L13 34L13 35L14 35L14 34L13 34L13 33L14 33L14 32L15 32L15 34L17 34L17 33L18 33L18 34L19 34L19 33L18 33L18 31L19 31L19 32L20 32L20 34L22 34L22 35L19 35L19 37L23 37L23 38L24 38L24 37L23 37L23 34L22 34L22 33L24 33L24 32L26 32L26 33L25 33L25 34L27 34L27 35L26 35L26 37L25 37L25 38L26 38L26 37L28 37L28 38L27 38L27 39L25 39L25 42L24 42L24 43L23 43L23 45L22 45L22 44L21 44L21 43L22 43L22 42L21 42L21 41L24 41L24 39L21 39L21 41L19 41L19 42L21 42L21 43L20 43L20 44L19 44L19 45L20 45L20 46L19 46L19 47L18 47L18 46L17 46L17 48L22 48L22 49L23 49L23 48L25 48L25 50L24 50L24 51L25 51L25 52L26 52L26 51L25 51L25 50L26 50L26 47L27 47L27 48L29 48L29 47L28 47L28 46L29 46L29 45L28 45L28 44L29 44L29 42L31 42L31 43L32 43L32 46L31 46L31 47L30 47L30 48L32 48L32 50L31 50L31 53L30 53L30 54L27 54L27 53L24 53L24 54L23 54L23 55L24 55L24 56L25 56L25 54L27 54L27 55L28 55L28 56L29 56L29 55L30 55L30 56L34 56L34 54L36 54L36 53L33 53L33 52L32 52L32 51L34 51L34 52L35 52L35 51L36 51L36 49L35 49L35 48L37 48L37 47L38 47L38 48L39 48L39 49L37 49L37 50L39 50L39 52L38 52L38 51L37 51L37 52L38 52L38 54L37 54L37 55L38 55L38 54L42 54L42 53L41 53L41 52L42 52L42 51L43 51L43 52L44 52L44 53L45 53L45 52L47 52L47 53L48 53L48 52L47 52L47 51L48 51L48 48L50 48L50 47L51 47L51 45L52 45L52 43L51 43L51 45L50 45L50 44L49 44L49 43L48 43L48 42L47 42L47 41L46 41L46 40L45 40L45 39L46 39L46 38L45 38L45 39L44 39L44 37L43 37L43 36L42 36L42 37L43 37L43 38L41 38L41 35L42 35L42 34L41 34L41 35L39 35L39 36L37 36L37 33L36 33L36 34L35 34L35 32L37 32L37 31L35 31L35 32L34 32L34 31L33 31L33 32L32 32L32 29L33 29L33 30L36 30L36 28L38 28L38 29L37 29L37 30L39 30L39 31L38 31L38 34L39 34L39 31L40 31L40 29L41 29L41 30L42 30L42 31L43 31L43 30L42 30L42 29L43 29L43 28L44 28L44 29L45 29L45 30L44 30L44 33L46 33L46 34L47 34L47 33L49 33L49 34L48 34L48 36L49 36L49 34L50 34L50 36L51 36L51 37L52 37L52 38L53 38L53 37L54 37L54 36L53 36L53 35L51 35L51 34L55 34L55 33L54 33L54 32L53 32L53 31L54 31L54 29L55 29L55 30L56 30L56 28L54 28L54 29L53 29L53 31L52 31L52 32L51 32L51 34L50 34L50 33L49 33L49 31L48 31L48 29L47 29L47 28L46 28L46 27L45 27L45 26L47 26L47 27L48 27L48 26L47 26L47 24L48 24L48 23L47 23L47 22L48 22L48 21L47 21L47 20L46 20L46 18L47 18L47 19L48 19L48 17L49 17L49 16L47 16L47 17L45 17L45 16L46 16L46 15L51 15L51 13L52 13L52 15L53 15L53 16L52 16L52 17L50 17L50 19L51 19L51 18L54 18L54 17L55 17L55 16L56 16L56 15L55 15L55 14L56 14L56 12L55 12L55 13L54 13L54 12L51 12L51 11L50 11L50 14L47 14L47 13L48 13L48 10L47 10L47 9L48 9L48 8L47 8L47 9L46 9L46 8L44 8L44 6L43 6L43 5L44 5L44 4L45 4L45 5L47 5L47 3L46 3L46 4L45 4L45 3L44 3L44 2L43 2L43 3L42 3L42 2L41 2L41 1ZM8 3L8 4L9 4L9 3ZM43 3L43 4L42 4L42 5L43 5L43 4L44 4L44 3ZM40 4L40 5L41 5L41 4ZM27 5L27 8L30 8L30 5ZM33 5L33 6L32 6L32 7L33 7L33 6L34 6L34 8L36 8L36 9L35 9L35 10L34 10L34 9L33 9L33 11L32 11L32 12L31 12L31 14L30 14L30 13L28 13L28 12L27 12L27 13L28 13L28 14L25 14L25 13L26 13L26 10L25 10L25 9L24 9L24 8L23 8L23 9L21 9L21 10L22 10L22 11L19 11L19 10L20 10L20 9L19 9L19 8L17 8L17 10L16 10L16 11L17 11L17 12L18 12L18 13L17 13L17 14L15 14L15 17L14 17L14 16L13 16L13 15L14 15L14 14L13 14L13 15L12 15L12 16L13 16L13 17L14 17L14 18L15 18L15 17L16 17L16 15L17 15L17 17L18 17L18 19L17 19L17 18L16 18L16 19L17 19L17 21L16 21L16 20L15 20L15 21L16 21L16 22L14 22L14 21L13 21L13 20L14 20L14 19L13 19L13 20L12 20L12 22L11 22L11 23L13 23L13 22L14 22L14 26L12 26L12 24L10 24L10 25L11 25L11 28L12 28L12 27L14 27L14 26L15 26L15 27L16 27L16 26L15 26L15 23L16 23L16 24L17 24L17 27L18 27L18 26L19 26L19 29L18 29L18 28L16 28L16 29L15 29L15 28L14 28L14 31L13 31L13 32L14 32L14 31L15 31L15 32L17 32L17 31L18 31L18 30L20 30L20 31L21 31L21 32L22 32L22 31L23 31L23 32L24 32L24 31L25 31L25 30L26 30L26 31L30 31L30 33L29 33L29 32L27 32L27 33L29 33L29 34L28 34L28 35L29 35L29 36L31 36L31 37L30 37L30 38L29 38L29 39L30 39L30 41L31 41L31 42L32 42L32 41L31 41L31 40L32 40L32 39L33 39L33 40L34 40L34 39L35 39L35 41L36 41L36 42L37 42L37 43L39 43L39 44L38 44L38 45L37 45L37 44L36 44L36 43L34 43L34 41L33 41L33 43L34 43L34 44L33 44L33 45L35 45L35 47L34 47L34 46L32 46L32 47L34 47L34 48L33 48L33 49L34 49L34 48L35 48L35 47L36 47L36 45L37 45L37 46L38 46L38 45L39 45L39 44L43 44L43 45L41 45L41 47L39 47L39 48L41 48L41 49L40 49L40 50L41 50L41 51L40 51L40 52L39 52L39 53L40 53L40 52L41 52L41 51L42 51L42 50L43 50L43 49L44 49L44 48L45 48L45 47L44 47L44 46L43 46L43 45L44 45L44 43L42 43L42 42L44 42L44 40L41 40L41 41L39 41L39 40L40 40L40 39L41 39L41 38L40 38L40 37L39 37L39 38L38 38L38 37L37 37L37 36L34 36L34 35L35 35L35 34L34 34L34 33L32 33L32 32L31 32L31 29L32 29L32 28L33 28L33 29L35 29L35 28L36 28L36 27L38 27L38 28L39 28L39 29L40 29L40 28L41 28L41 27L43 27L43 26L45 26L45 25L43 25L43 24L46 24L46 22L44 22L44 23L43 23L43 21L44 21L44 20L45 20L45 21L46 21L46 20L45 20L45 19L44 19L44 18L45 18L45 17L44 17L44 15L46 15L46 14L45 14L45 13L47 13L47 12L46 12L46 11L47 11L47 10L45 10L45 9L44 9L44 8L42 8L42 7L43 7L43 6L42 6L42 7L41 7L41 6L40 6L40 8L42 8L42 9L39 9L39 10L37 10L37 9L38 9L38 8L36 8L36 7L37 7L37 6L36 6L36 7L35 7L35 6L34 6L34 5ZM38 5L38 7L39 7L39 5ZM14 6L14 7L15 7L15 9L14 9L14 10L12 10L12 11L14 11L14 12L13 12L13 13L16 13L16 12L15 12L15 9L16 9L16 7L17 7L17 6L16 6L16 7L15 7L15 6ZM22 6L22 7L23 7L23 6ZM28 6L28 7L29 7L29 6ZM45 6L45 7L46 7L46 6ZM10 8L10 9L11 9L11 8ZM51 8L51 9L52 9L52 8ZM3 9L3 10L4 10L4 11L5 11L5 10L4 10L4 9ZM8 9L8 10L9 10L9 11L6 11L6 12L7 12L7 13L8 13L8 12L9 12L9 11L10 11L10 10L9 10L9 9ZM17 10L17 11L18 11L18 10ZM23 10L23 12L24 12L24 13L25 13L25 12L24 12L24 11L25 11L25 10ZM35 10L35 11L33 11L33 12L32 12L32 14L31 14L31 15L32 15L32 14L33 14L33 15L34 15L34 16L29 16L29 15L30 15L30 14L28 14L28 16L27 16L27 15L26 15L26 17L25 17L25 16L24 16L24 17L23 17L23 16L21 16L21 13L22 13L22 15L23 15L23 13L22 13L22 12L21 12L21 13L20 13L20 14L18 14L18 15L19 15L19 16L21 16L21 17L20 17L20 18L21 18L21 19L18 19L18 20L20 20L20 21L19 21L19 22L17 22L17 24L19 24L19 26L20 26L20 27L21 27L21 28L20 28L20 30L23 30L23 31L24 31L24 30L23 30L23 26L22 26L22 25L25 25L25 26L26 26L26 25L27 25L27 26L29 26L29 25L30 25L30 23L29 23L29 22L28 22L28 23L29 23L29 24L25 24L25 23L26 23L26 22L25 22L25 21L30 21L30 20L31 20L31 21L32 21L32 23L31 23L31 24L34 24L34 26L33 26L33 27L34 27L34 26L35 26L35 24L36 24L36 23L37 23L37 24L38 24L38 26L39 26L39 28L40 28L40 27L41 27L41 25L42 25L42 24L39 24L39 23L38 23L38 22L39 22L39 21L40 21L40 23L42 23L42 22L41 22L41 20L42 20L42 21L43 21L43 20L44 20L44 19L41 19L41 20L40 20L40 17L42 17L42 16L41 16L41 15L42 15L42 14L39 14L39 12L40 12L40 13L41 13L41 12L42 12L42 13L43 13L43 11L45 11L45 10L42 10L42 11L41 11L41 10L39 10L39 11L38 11L38 12L37 12L37 13L35 13L35 12L36 12L36 10ZM2 11L2 12L3 12L3 11ZM40 11L40 12L41 12L41 11ZM44 12L44 13L45 13L45 12ZM37 13L37 14L35 14L35 17L37 17L37 18L36 18L36 20L34 20L34 19L35 19L35 18L34 18L34 17L33 17L33 18L34 18L34 19L32 19L32 18L31 18L31 17L29 17L29 16L28 16L28 17L27 17L27 18L25 18L25 17L24 17L24 18L25 18L25 19L23 19L23 20L24 20L24 21L21 21L21 22L24 22L24 21L25 21L25 20L26 20L26 19L27 19L27 20L29 20L29 18L30 18L30 19L31 19L31 20L34 20L34 21L37 21L37 22L38 22L38 21L39 21L39 20L38 20L38 19L39 19L39 18L38 18L38 17L39 17L39 14L38 14L38 13ZM53 13L53 15L54 15L54 16L53 16L53 17L54 17L54 16L55 16L55 15L54 15L54 13ZM1 14L1 15L0 15L0 16L1 16L1 15L2 15L2 17L3 17L3 15L5 15L5 14ZM7 14L7 15L8 15L8 14ZM24 14L24 15L25 15L25 14ZM43 14L43 15L44 15L44 14ZM7 16L7 17L6 17L6 18L7 18L7 19L8 19L8 20L9 20L9 19L8 19L8 16ZM37 16L37 17L38 17L38 16ZM22 17L22 18L23 18L23 17ZM27 18L27 19L28 19L28 18ZM37 18L37 19L38 19L38 18ZM37 20L37 21L38 21L38 20ZM56 20L56 21L54 21L54 22L57 22L57 20ZM6 21L6 22L7 22L7 21ZM52 21L52 22L53 22L53 21ZM19 22L19 23L20 23L20 22ZM35 22L35 23L34 23L34 24L35 24L35 23L36 23L36 22ZM49 22L49 23L50 23L50 24L51 24L51 23L50 23L50 22ZM23 23L23 24L24 24L24 23ZM20 24L20 25L21 25L21 24ZM31 25L31 26L32 26L32 25ZM39 25L39 26L40 26L40 25ZM55 25L55 26L56 26L56 25ZM21 26L21 27L22 27L22 26ZM5 27L5 30L8 30L8 27ZM25 27L25 29L26 29L26 27ZM27 27L27 30L30 30L30 27ZM44 27L44 28L45 28L45 29L46 29L46 28L45 28L45 27ZM49 27L49 30L52 30L52 27ZM3 28L3 29L2 29L2 30L4 30L4 28ZM6 28L6 29L7 29L7 28ZM21 28L21 29L22 29L22 28ZM28 28L28 29L29 29L29 28ZM50 28L50 29L51 29L51 28ZM12 29L12 30L13 30L13 29ZM16 29L16 31L17 31L17 30L18 30L18 29ZM45 30L45 32L46 32L46 33L47 33L47 32L46 32L46 31L47 31L47 30ZM40 32L40 33L41 33L41 32ZM29 34L29 35L30 35L30 34ZM32 36L32 37L33 37L33 36ZM52 36L52 37L53 37L53 36ZM1 37L1 38L2 38L2 37ZM34 37L34 38L33 38L33 39L34 39L34 38L35 38L35 39L36 39L36 38L37 38L37 37ZM56 37L56 38L55 38L55 39L54 39L54 40L53 40L53 41L54 41L54 40L55 40L55 39L57 39L57 37ZM19 38L19 39L18 39L18 40L19 40L19 39L20 39L20 38ZM50 38L50 39L51 39L51 38ZM27 39L27 41L26 41L26 42L27 42L27 41L29 41L29 40L28 40L28 39ZM37 39L37 41L38 41L38 42L39 42L39 41L38 41L38 39ZM7 40L7 41L8 41L8 40ZM41 41L41 42L40 42L40 43L41 43L41 42L42 42L42 41ZM45 42L45 44L46 44L46 42ZM4 43L4 44L3 44L3 45L2 45L2 46L1 46L1 47L2 47L2 46L3 46L3 47L5 47L5 46L7 46L7 45L6 45L6 44L5 44L5 43ZM24 43L24 45L23 45L23 46L25 46L25 47L26 47L26 46L25 46L25 43ZM26 43L26 45L27 45L27 43ZM4 44L4 45L5 45L5 44ZM17 44L17 45L18 45L18 44ZM20 44L20 45L21 45L21 46L20 46L20 47L21 47L21 46L22 46L22 45L21 45L21 44ZM35 44L35 45L36 45L36 44ZM48 44L48 46L46 46L46 47L50 47L50 45L49 45L49 44ZM22 47L22 48L23 48L23 47ZM42 47L42 49L41 49L41 50L42 50L42 49L43 49L43 47ZM8 48L8 49L10 49L10 50L9 50L9 51L10 51L10 52L12 52L12 50L14 50L14 48L13 48L13 49L12 49L12 48ZM46 48L46 49L45 49L45 50L46 50L46 51L47 51L47 50L46 50L46 49L47 49L47 48ZM53 48L53 51L55 51L55 49L56 49L56 48ZM11 49L11 50L12 50L12 49ZM27 49L27 52L30 52L30 49ZM49 49L49 52L52 52L52 49ZM28 50L28 51L29 51L29 50ZM50 50L50 51L51 51L51 50ZM13 51L13 52L14 52L14 53L15 53L15 54L16 54L16 53L15 53L15 52L14 52L14 51ZM21 51L21 52L22 52L22 51ZM53 52L53 53L54 53L54 52ZM9 53L9 55L10 55L10 56L11 56L11 55L12 55L12 53L11 53L11 55L10 55L10 53ZM32 53L32 54L31 54L31 55L32 55L32 54L33 54L33 53ZM19 54L19 55L20 55L20 54ZM15 55L15 56L16 56L16 55ZM35 55L35 56L36 56L36 55ZM43 55L43 56L42 56L42 57L44 57L44 55ZM48 55L48 56L49 56L49 55ZM51 55L51 56L52 56L52 55ZM0 0L0 7L7 7L7 0ZM1 1L1 6L6 6L6 1ZM2 2L2 5L5 5L5 2ZM50 0L50 7L57 7L57 0ZM51 1L51 6L56 6L56 1ZM52 2L52 5L55 5L55 2ZM0 50L0 57L7 57L7 50ZM1 51L1 56L6 56L6 51ZM2 52L2 55L5 55L5 52Z" fill="#000000"/></g></g></svg>
