<?xml version="1.0" encoding="UTF-8"?>
<svg xmlns="http://www.w3.org/2000/svg" version="1.1" width="300" height="300" viewBox="0 0 300 300"><rect x="0" y="0" width="300" height="300" fill="#ffffff"/><g transform="scale(5.263)"><g transform="translate(0,0)"><path fill-rule="evenodd" d="M8 0L8 1L9 1L9 2L8 2L8 5L10 5L10 7L9 7L9 6L8 6L8 7L9 7L9 8L8 8L8 11L9 11L9 12L8 12L8 14L6 14L6 13L7 13L7 12L6 12L6 11L7 11L7 10L6 10L6 11L5 11L5 12L4 12L4 13L0 13L0 15L2 15L2 16L1 16L1 17L0 17L0 19L1 19L1 18L3 18L3 19L2 19L2 20L0 20L0 23L2 23L2 22L3 22L3 24L0 24L0 25L1 25L1 26L0 26L0 27L1 27L1 26L2 26L2 27L3 27L3 28L2 28L2 29L1 29L1 28L0 28L0 29L1 29L1 31L3 31L3 29L4 29L4 32L5 32L5 33L3 33L3 32L2 32L2 33L1 33L1 32L0 32L0 37L1 37L1 38L2 38L2 39L1 39L1 41L0 41L0 42L1 42L1 43L0 43L0 45L2 45L2 44L3 44L3 42L5 42L5 41L7 41L7 40L8 40L8 42L9 42L9 45L10 45L10 43L13 43L13 44L11 44L11 45L12 45L12 46L10 46L10 47L12 47L12 48L9 48L9 47L7 47L7 46L8 46L8 43L7 43L7 42L6 42L6 43L4 43L4 44L6 44L6 45L7 45L7 46L5 46L5 45L4 45L4 46L5 46L5 47L3 47L3 46L2 46L2 47L1 47L1 46L0 46L0 48L5 48L5 47L7 47L7 48L6 48L6 49L7 49L7 48L9 48L9 49L8 49L8 50L9 50L9 49L12 49L12 50L10 50L10 53L8 53L8 57L12 57L12 54L10 54L10 53L11 53L11 51L12 51L12 53L13 53L13 51L14 51L14 52L16 52L16 51L17 51L17 50L18 50L18 52L19 52L19 54L18 54L18 53L17 53L17 54L16 54L16 53L14 53L14 54L13 54L13 56L14 56L14 55L15 55L15 57L18 57L18 56L19 56L19 57L20 57L20 56L21 56L21 57L23 57L23 55L20 55L20 53L22 53L22 52L23 52L23 54L25 54L25 55L24 55L24 57L25 57L25 55L26 55L26 56L27 56L27 57L29 57L29 55L28 55L28 56L27 56L27 55L26 55L26 53L29 53L29 54L31 54L31 55L30 55L30 56L31 56L31 55L32 55L32 57L33 57L33 56L35 56L35 57L36 57L36 56L37 56L37 57L39 57L39 56L40 56L40 57L41 57L41 55L42 55L42 54L41 54L41 53L42 53L42 52L44 52L44 53L45 53L45 51L47 51L47 53L46 53L46 55L45 55L45 54L43 54L43 56L42 56L42 57L43 57L43 56L45 56L45 57L46 57L46 55L49 55L49 56L48 56L48 57L49 57L49 56L50 56L50 57L51 57L51 54L49 54L49 53L53 53L53 54L54 54L54 53L55 53L55 54L56 54L56 53L57 53L57 51L56 51L56 49L57 49L57 45L56 45L56 46L55 46L55 44L57 44L57 43L56 43L56 42L57 42L57 40L56 40L56 41L55 41L55 39L54 39L54 38L53 38L53 39L52 39L52 38L51 38L51 40L50 40L50 39L49 39L49 40L43 40L43 42L42 42L42 41L41 41L41 42L42 42L42 43L43 43L43 45L41 45L41 43L40 43L40 41L39 41L39 38L40 38L40 35L41 35L41 34L43 34L43 36L41 36L41 37L44 37L44 34L43 34L43 33L42 33L42 32L39 32L39 33L41 33L41 34L39 34L39 35L38 35L38 33L35 33L35 31L33 31L33 30L35 30L35 27L34 27L34 26L32 26L32 27L33 27L33 28L31 28L31 26L28 26L28 25L27 25L27 26L26 26L26 25L25 25L25 26L24 26L24 24L25 24L25 22L27 22L27 23L26 23L26 24L29 24L29 25L30 25L30 24L29 24L29 23L28 23L28 22L30 22L30 23L31 23L31 25L34 25L34 23L36 23L36 22L34 22L34 23L33 23L33 22L31 22L31 18L32 18L32 17L34 17L34 19L33 19L33 21L34 21L34 19L35 19L35 16L36 16L36 14L37 14L37 18L36 18L36 20L37 20L37 19L39 19L39 18L38 18L38 15L40 15L40 14L39 14L39 13L37 13L37 12L36 12L36 10L38 10L38 11L39 11L39 10L41 10L41 11L43 11L43 12L46 12L46 13L48 13L48 11L47 11L47 10L45 10L45 9L44 9L44 10L43 10L43 9L42 9L42 8L43 8L43 5L44 5L44 3L45 3L45 5L46 5L46 8L47 8L47 9L48 9L48 10L49 10L49 11L51 11L51 13L49 13L49 14L47 14L47 16L46 16L46 14L45 14L45 13L43 13L43 14L42 14L42 15L41 15L41 16L43 16L43 17L45 17L45 18L44 18L44 20L46 20L46 21L48 21L48 22L49 22L49 23L46 23L46 22L45 22L45 21L42 21L42 20L43 20L43 18L42 18L42 17L41 17L41 20L39 20L39 21L41 21L41 23L43 23L43 25L44 25L44 23L45 23L45 28L43 28L43 27L44 27L44 26L42 26L42 27L39 27L39 26L40 26L40 23L38 23L38 24L39 24L39 25L37 25L37 24L35 24L35 25L37 25L37 26L36 26L36 28L37 28L37 26L38 26L38 27L39 27L39 30L38 30L38 29L36 29L36 30L38 30L38 31L39 31L39 30L40 30L40 28L42 28L42 29L41 29L41 30L42 30L42 29L44 29L44 30L43 30L43 31L44 31L44 32L45 32L45 31L46 31L46 30L47 30L47 31L48 31L48 32L49 32L49 34L50 34L50 36L49 36L49 35L48 35L48 36L49 36L49 37L50 37L50 36L51 36L51 33L50 33L50 31L51 31L51 32L52 32L52 33L53 33L53 34L52 34L52 37L55 37L55 36L57 36L57 34L55 34L55 32L57 32L57 31L56 31L56 30L57 30L57 27L56 27L56 28L55 28L55 27L53 27L53 26L54 26L54 23L55 23L55 22L56 22L56 24L55 24L55 26L57 26L57 21L56 21L56 20L57 20L57 19L55 19L55 18L57 18L57 17L55 17L55 18L54 18L54 16L55 16L55 14L56 14L56 12L54 12L54 11L57 11L57 10L55 10L55 8L52 8L52 9L51 9L51 10L50 10L50 8L49 8L49 6L48 6L48 8L47 8L47 5L48 5L48 0L42 0L42 3L41 3L41 4L42 4L42 3L43 3L43 5L40 5L40 4L39 4L39 1L38 1L38 0L37 0L37 1L38 1L38 2L37 2L37 3L35 3L35 1L36 1L36 0L35 0L35 1L34 1L34 2L32 2L32 3L31 3L31 4L26 4L26 2L25 2L25 3L24 3L24 1L26 1L26 0L21 0L21 1L20 1L20 2L19 2L19 1L18 1L18 0L17 0L17 1L14 1L14 0L13 0L13 1L14 1L14 3L13 3L13 4L11 4L11 3L12 3L12 0L11 0L11 2L10 2L10 1L9 1L9 0ZM30 0L30 1L28 1L28 2L29 2L29 3L30 3L30 2L31 2L31 1L33 1L33 0ZM21 1L21 2L20 2L20 3L19 3L19 4L18 4L18 5L17 5L17 3L14 3L14 4L13 4L13 5L14 5L14 4L15 4L15 5L17 5L17 7L16 7L16 6L15 6L15 8L14 8L14 6L13 6L13 7L12 7L12 6L11 6L11 8L10 8L10 9L12 9L12 11L11 11L11 10L9 10L9 11L11 11L11 12L12 12L12 11L13 11L13 10L14 10L14 11L15 11L15 14L18 14L18 15L19 15L19 16L17 16L17 15L16 15L16 17L17 17L17 18L13 18L13 16L14 16L14 13L13 13L13 15L12 15L12 13L9 13L9 15L8 15L8 17L6 17L6 18L9 18L9 19L8 19L8 20L7 20L7 19L5 19L5 20L4 20L4 19L3 19L3 20L2 20L2 21L3 21L3 22L4 22L4 24L5 24L5 23L6 23L6 24L7 24L7 25L4 25L4 26L7 26L7 25L8 25L8 26L9 26L9 25L10 25L10 22L8 22L8 21L11 21L11 20L10 20L10 19L15 19L15 20L14 20L14 22L13 22L13 21L12 21L12 24L11 24L11 25L12 25L12 27L13 27L13 26L14 26L14 27L15 27L15 29L14 29L14 28L13 28L13 30L12 30L12 32L13 32L13 30L14 30L14 31L15 31L15 34L14 34L14 33L13 33L13 35L16 35L16 34L17 34L17 36L15 36L15 38L17 38L17 39L16 39L16 40L15 40L15 41L16 41L16 40L17 40L17 42L14 42L14 43L15 43L15 46L14 46L14 44L13 44L13 46L12 46L12 47L13 47L13 48L14 48L14 47L15 47L15 48L16 48L16 47L17 47L17 45L19 45L19 47L18 47L18 48L19 48L19 47L21 47L21 45L20 45L20 44L19 44L19 43L18 43L18 41L19 41L19 38L17 38L17 36L18 36L18 35L19 35L19 33L20 33L20 34L21 34L21 32L22 32L22 31L24 31L24 32L23 32L23 33L22 33L22 34L23 34L23 33L25 33L25 34L26 34L26 35L23 35L23 36L21 36L21 35L20 35L20 36L19 36L19 37L20 37L20 38L21 38L21 40L20 40L20 43L21 43L21 44L22 44L22 46L23 46L23 47L22 47L22 48L21 48L21 50L20 50L20 52L22 52L22 50L23 50L23 51L24 51L24 53L25 53L25 52L26 52L26 50L25 50L25 48L31 48L31 47L32 47L32 49L33 49L33 50L34 50L34 51L33 51L33 52L34 52L34 53L36 53L36 54L34 54L34 55L37 55L37 56L39 56L39 55L41 55L41 54L39 54L39 53L41 53L41 52L42 52L42 51L41 51L41 52L40 52L40 49L41 49L41 50L44 50L44 51L45 51L45 50L44 50L44 49L45 49L45 47L46 47L46 50L47 50L47 51L48 51L48 50L47 50L47 49L48 49L48 48L47 48L47 47L49 47L49 48L50 48L50 47L49 47L49 46L47 46L47 45L50 45L50 46L51 46L51 47L52 47L52 48L53 48L53 51L55 51L55 48L56 48L56 47L54 47L54 46L53 46L53 43L54 43L54 44L55 44L55 41L54 41L54 40L51 40L51 41L47 41L47 42L44 42L44 45L45 45L45 47L44 47L44 49L42 49L42 48L43 48L43 46L42 46L42 48L40 48L40 47L41 47L41 46L40 46L40 47L39 47L39 45L38 45L38 44L39 44L39 43L38 43L38 44L36 44L36 45L33 45L33 44L34 44L34 43L37 43L37 42L39 42L39 41L37 41L37 40L38 40L38 37L36 37L36 38L37 38L37 40L35 40L35 39L34 39L34 38L35 38L35 37L34 37L34 36L36 36L36 35L34 35L34 34L35 34L35 33L34 33L34 34L30 34L30 36L31 36L31 35L32 35L32 37L31 37L31 38L30 38L30 40L31 40L31 41L30 41L30 42L31 42L31 43L33 43L33 44L31 44L31 45L32 45L32 46L30 46L30 44L29 44L29 45L27 45L27 43L29 43L29 42L25 42L25 41L26 41L26 40L27 40L27 39L26 39L26 37L27 37L27 38L29 38L29 36L28 36L28 35L29 35L29 33L33 33L33 31L32 31L32 30L33 30L33 29L34 29L34 28L33 28L33 29L31 29L31 31L32 31L32 32L30 32L30 31L28 31L28 32L27 32L27 31L26 31L26 32L25 32L25 30L26 30L26 28L25 28L25 29L24 29L24 30L22 30L22 31L21 31L21 32L20 32L20 31L19 31L19 30L21 30L21 29L23 29L23 27L22 27L22 25L23 25L23 24L22 24L22 23L23 23L23 21L24 21L24 22L25 22L25 21L27 21L27 20L28 20L28 18L29 18L29 19L30 19L30 18L31 18L31 16L32 16L32 15L33 15L33 14L32 14L32 15L31 15L31 14L30 14L30 13L31 13L31 12L29 12L29 11L32 11L32 10L33 10L33 11L34 11L34 10L35 10L35 9L38 9L38 10L39 10L39 9L38 9L38 8L42 8L42 6L41 6L41 7L40 7L40 5L38 5L38 6L37 6L37 5L36 5L36 6L35 6L35 3L32 3L32 4L34 4L34 6L33 6L33 5L32 5L32 6L31 6L31 7L32 7L32 6L33 6L33 7L34 7L34 6L35 6L35 9L34 9L34 10L33 10L33 8L32 8L32 10L29 10L29 9L28 9L28 10L27 10L27 9L26 9L26 6L25 6L25 5L26 5L26 4L24 4L24 6L23 6L23 5L21 5L21 3L22 3L22 4L23 4L23 2L22 2L22 1ZM46 1L46 2L45 2L45 3L46 3L46 5L47 5L47 3L46 3L46 2L47 2L47 1ZM9 3L9 4L10 4L10 3ZM37 3L37 4L38 4L38 3ZM19 4L19 6L18 6L18 7L17 7L17 8L16 8L16 9L18 9L18 10L16 10L16 11L17 11L17 12L16 12L16 13L17 13L17 12L18 12L18 13L19 13L19 14L21 14L21 11L24 11L24 12L25 12L25 11L26 11L26 9L23 9L23 8L24 8L24 7L25 7L25 6L24 6L24 7L23 7L23 6L22 6L22 7L21 7L21 5L20 5L20 4ZM27 5L27 8L30 8L30 5ZM19 6L19 7L20 7L20 10L18 10L18 12L19 12L19 13L20 13L20 10L22 10L22 9L21 9L21 7L20 7L20 6ZM28 6L28 7L29 7L29 6ZM36 6L36 8L37 8L37 6ZM38 6L38 7L39 7L39 6ZM44 6L44 7L45 7L45 6ZM0 8L0 10L2 10L2 11L4 11L4 10L5 10L5 9L4 9L4 8ZM6 8L6 9L7 9L7 8ZM12 8L12 9L13 9L13 8ZM18 8L18 9L19 9L19 8ZM56 8L56 9L57 9L57 8ZM3 9L3 10L4 10L4 9ZM14 9L14 10L15 10L15 9ZM53 9L53 10L51 10L51 11L52 11L52 13L53 13L53 14L52 14L52 15L51 15L51 14L50 14L50 15L49 15L49 16L48 16L48 18L49 18L49 16L50 16L50 18L52 18L52 17L53 17L53 16L52 16L52 15L53 15L53 14L54 14L54 12L53 12L53 10L54 10L54 9ZM24 10L24 11L25 11L25 10ZM5 12L5 13L6 13L6 12ZM22 12L22 13L23 13L23 12ZM32 12L32 13L33 13L33 12ZM27 13L27 14L29 14L29 13ZM34 13L34 16L35 16L35 13ZM4 14L4 18L5 18L5 16L7 16L7 15L6 15L6 14ZM10 14L10 15L9 15L9 17L11 17L11 18L12 18L12 16L10 16L10 15L11 15L11 14ZM22 14L22 16L21 16L21 15L20 15L20 16L19 16L19 17L21 17L21 18L19 18L19 20L21 20L21 22L19 22L19 23L18 23L18 21L17 21L17 19L18 19L18 18L17 18L17 19L16 19L16 23L15 23L15 22L14 22L14 23L13 23L13 24L12 24L12 25L13 25L13 24L14 24L14 26L16 26L16 29L15 29L15 31L16 31L16 32L19 32L19 31L18 31L18 30L17 30L17 27L19 27L19 28L18 28L18 29L19 29L19 28L21 28L21 27L19 27L19 26L18 26L18 25L19 25L19 24L20 24L20 26L21 26L21 25L22 25L22 24L20 24L20 23L22 23L22 21L23 21L23 20L27 20L27 19L25 19L25 18L27 18L27 17L29 17L29 18L30 18L30 16L31 16L31 15L29 15L29 16L28 16L28 15L27 15L27 17L25 17L25 16L26 16L26 14L25 14L25 15L24 15L24 14ZM43 15L43 16L45 16L45 15ZM56 15L56 16L57 16L57 15ZM2 16L2 17L3 17L3 16ZM22 16L22 17L23 17L23 16ZM39 16L39 17L40 17L40 16ZM24 17L24 18L22 18L22 20L23 20L23 19L24 19L24 18L25 18L25 17ZM45 18L45 19L46 19L46 18ZM53 18L53 20L54 20L54 21L53 21L53 22L54 22L54 21L55 21L55 19L54 19L54 18ZM47 19L47 20L48 20L48 19ZM5 20L5 21L4 21L4 22L6 22L6 23L8 23L8 22L6 22L6 21L7 21L7 20ZM50 20L50 25L49 25L49 24L47 24L47 25L46 25L46 27L47 27L47 26L50 26L50 25L53 25L53 23L52 23L52 24L51 24L51 22L52 22L52 21L51 21L51 20ZM16 23L16 24L15 24L15 25L16 25L16 26L17 26L17 25L16 25L16 24L17 24L17 23ZM32 23L32 24L33 24L33 23ZM41 24L41 25L42 25L42 24ZM10 26L10 28L9 28L9 29L10 29L10 31L9 31L9 32L8 32L8 31L6 31L6 32L8 32L8 34L7 34L7 33L6 33L6 34L7 34L7 35L6 35L6 36L5 36L5 35L4 35L4 34L3 34L3 33L2 33L2 34L1 34L1 37L3 37L3 41L2 41L2 42L3 42L3 41L5 41L5 40L7 40L7 39L8 39L8 40L9 40L9 41L12 41L12 42L13 42L13 41L12 41L12 40L13 40L13 39L12 39L12 38L11 38L11 36L12 36L12 33L11 33L11 35L10 35L10 34L9 34L9 32L10 32L10 31L11 31L11 29L10 29L10 28L11 28L11 26ZM5 27L5 30L8 30L8 27ZM27 27L27 30L30 30L30 27ZM49 27L49 30L52 30L52 27ZM6 28L6 29L7 29L7 28ZM28 28L28 29L29 29L29 28ZM45 28L45 29L47 29L47 30L48 30L48 29L47 29L47 28ZM50 28L50 29L51 29L51 28ZM54 28L54 29L53 29L53 31L54 31L54 32L55 32L55 28ZM44 30L44 31L45 31L45 30ZM36 31L36 32L37 32L37 31ZM46 32L46 33L47 33L47 32ZM17 33L17 34L18 34L18 33ZM2 34L2 35L3 35L3 34ZM27 34L27 35L28 35L28 34ZM53 34L53 35L54 35L54 36L55 36L55 35L54 35L54 34ZM37 35L37 36L38 36L38 35ZM45 35L45 36L47 36L47 35ZM4 36L4 38L6 38L6 39L7 39L7 38L6 38L6 37L8 37L8 39L9 39L9 38L10 38L10 36L6 36L6 37L5 37L5 36ZM13 36L13 38L14 38L14 36ZM23 36L23 37L22 37L22 38L23 38L23 39L22 39L22 40L21 40L21 41L22 41L22 40L23 40L23 39L24 39L24 41L25 41L25 39L24 39L24 37L26 37L26 36ZM33 37L33 38L31 38L31 40L32 40L32 41L34 41L34 42L33 42L33 43L34 43L34 42L37 42L37 41L34 41L34 39L33 39L33 38L34 38L34 37ZM45 37L45 39L46 39L46 37ZM41 38L41 39L40 39L40 40L42 40L42 38ZM56 38L56 39L57 39L57 38ZM10 39L10 40L11 40L11 39ZM17 39L17 40L18 40L18 39ZM28 39L28 40L29 40L29 39ZM32 39L32 40L33 40L33 39ZM51 41L51 43L53 43L53 41ZM22 42L22 44L23 44L23 45L24 45L24 46L25 46L25 44L24 44L24 42ZM47 42L47 43L48 43L48 44L50 44L50 43L49 43L49 42ZM6 43L6 44L7 44L7 43ZM16 43L16 45L17 45L17 43ZM45 44L45 45L47 45L47 44ZM36 45L36 47L35 47L35 46L33 46L33 49L34 49L34 47L35 47L35 50L36 50L36 52L37 52L37 53L38 53L38 51L37 51L37 50L39 50L39 49L37 49L37 47L38 47L38 45ZM52 46L52 47L53 47L53 48L54 48L54 47L53 47L53 46ZM23 47L23 48L25 48L25 47ZM14 49L14 50L15 50L15 49ZM16 49L16 50L17 50L17 49ZM27 49L27 52L30 52L30 49ZM36 49L36 50L37 50L37 49ZM49 49L49 52L52 52L52 49ZM12 50L12 51L13 51L13 50ZM28 50L28 51L29 51L29 50ZM50 50L50 51L51 51L51 50ZM31 51L31 52L32 52L32 51ZM31 53L31 54L32 54L32 55L33 55L33 53ZM47 53L47 54L48 54L48 53ZM17 54L17 56L18 56L18 54ZM9 55L9 56L10 56L10 55ZM19 55L19 56L20 56L20 55ZM53 55L53 56L54 56L54 57L55 57L55 56L54 56L54 55ZM56 55L56 56L57 56L57 55ZM0 0L0 7L7 7L7 0ZM1 1L1 6L6 6L6 1ZM2 2L2 5L5 5L5 2ZM50 0L50 7L57 7L57 0ZM51 1L51 6L56 6L56 1ZM52 2L52 5L55 5L55 2ZM0 50L0 57L7 57L7 50ZM1 51L1 56L6 56L6 51ZM2 52L2 55L5 55L5 52Z" fill="#000000"/></g></g></svg>
