<?xml version="1.0" encoding="UTF-8"?>
<svg xmlns="http://www.w3.org/2000/svg" version="1.1" width="300" height="300" viewBox="0 0 300 300"><rect x="0" y="0" width="300" height="300" fill="#ffffff"/><g transform="scale(5.263)"><g transform="translate(0,0)"><path fill-rule="evenodd" d="M9 0L9 1L8 1L8 2L9 2L9 3L8 3L8 4L9 4L9 5L8 5L8 7L9 7L9 8L6 8L6 9L8 9L8 11L7 11L7 10L6 10L6 11L5 11L5 8L0 8L0 9L1 9L1 10L0 10L0 11L1 11L1 12L3 12L3 11L1 11L1 10L2 10L2 9L3 9L3 10L4 10L4 11L5 11L5 13L2 13L2 14L1 14L1 13L0 13L0 15L1 15L1 17L0 17L0 18L1 18L1 19L0 19L0 20L2 20L2 21L1 21L1 22L0 22L0 25L2 25L2 26L3 26L3 25L5 25L5 26L4 26L4 27L3 27L3 28L2 28L2 27L1 27L1 26L0 26L0 29L3 29L3 28L4 28L4 31L3 31L3 33L2 33L2 34L1 34L1 35L0 35L0 39L1 39L1 38L2 38L2 40L0 40L0 44L2 44L2 43L3 43L3 45L0 45L0 48L5 48L5 47L7 47L7 48L6 48L6 49L7 49L7 48L8 48L8 51L9 51L9 52L8 52L8 57L10 57L10 56L11 56L11 57L13 57L13 56L14 56L14 55L13 55L13 54L14 54L14 53L16 53L16 54L15 54L15 55L16 55L16 57L17 57L17 53L18 53L18 54L19 54L19 55L20 55L20 54L19 54L19 53L20 53L20 52L22 52L22 51L23 51L23 50L25 50L25 51L26 51L26 52L24 52L24 53L23 53L23 54L24 54L24 53L25 53L25 56L24 56L24 55L23 55L23 57L26 57L26 56L30 56L30 57L39 57L39 56L38 56L38 55L40 55L40 56L41 56L41 57L44 57L44 56L47 56L47 57L49 57L49 56L50 56L50 57L52 57L52 56L50 56L50 55L51 55L51 54L49 54L49 53L53 53L53 54L55 54L55 53L54 53L54 52L55 52L55 51L56 51L56 50L57 50L57 48L56 48L56 50L53 50L53 48L55 48L55 47L56 47L56 46L55 46L55 43L56 43L56 45L57 45L57 43L56 43L56 42L57 42L57 41L56 41L56 42L55 42L55 41L54 41L54 40L55 40L55 39L57 39L57 35L56 35L56 34L57 34L57 33L56 33L56 32L57 32L57 31L56 31L56 30L57 30L57 28L55 28L55 26L57 26L57 23L53 23L53 25L54 25L54 27L53 27L53 26L52 26L52 25L51 25L51 26L50 26L50 24L48 24L48 25L47 25L47 23L48 23L48 22L50 22L50 23L51 23L51 24L52 24L52 23L51 23L51 22L52 22L52 21L51 21L51 22L50 22L50 19L52 19L52 18L50 18L50 17L49 17L49 16L47 16L47 14L49 14L49 15L50 15L50 16L51 16L51 15L52 15L52 14L51 14L51 15L50 15L50 13L51 13L51 12L50 12L50 11L53 11L53 12L54 12L54 13L53 13L53 18L54 18L54 19L53 19L53 20L54 20L54 21L55 21L55 22L57 22L57 21L56 21L56 18L55 18L55 15L56 15L56 14L57 14L57 13L56 13L56 12L57 12L57 11L56 11L56 8L55 8L55 9L54 9L54 8L53 8L53 9L52 9L52 8L51 8L51 9L52 9L52 10L50 10L50 8L48 8L48 7L49 7L49 6L48 6L48 7L47 7L47 5L48 5L48 0L45 0L45 1L47 1L47 2L44 2L44 3L43 3L43 4L42 4L42 2L43 2L43 1L44 1L44 0L41 0L41 1L38 1L38 0L35 0L35 1L37 1L37 3L36 3L36 2L35 2L35 5L34 5L34 4L32 4L32 3L33 3L33 2L32 2L32 3L31 3L31 4L28 4L28 3L29 3L29 2L30 2L30 1L31 1L31 0L29 0L29 1L27 1L27 2L28 2L28 3L27 3L27 4L26 4L26 3L25 3L25 2L26 2L26 0L22 0L22 1L25 1L25 2L24 2L24 3L23 3L23 4L19 4L19 3L17 3L17 4L18 4L18 5L17 5L17 6L16 6L16 7L15 7L15 5L16 5L16 4L12 4L12 1L11 1L11 2L9 2L9 1L10 1L10 0ZM32 0L32 1L33 1L33 0ZM15 1L15 2L13 2L13 3L16 3L16 2L19 2L19 1ZM41 1L41 2L42 2L42 1ZM21 2L21 3L22 3L22 2ZM38 2L38 3L40 3L40 4L38 4L38 6L37 6L37 7L36 7L36 5L37 5L37 4L36 4L36 5L35 5L35 7L36 7L36 8L34 8L34 5L33 5L33 7L32 7L32 5L31 5L31 7L32 7L32 8L31 8L31 9L32 9L32 10L31 10L31 11L30 11L30 12L27 12L27 9L26 9L26 10L24 10L24 11L23 11L23 13L22 13L22 12L20 12L20 14L18 14L18 16L19 16L19 15L20 15L20 18L21 18L21 19L20 19L20 21L18 21L18 22L20 22L20 23L19 23L19 25L18 25L18 23L17 23L17 25L16 25L16 23L15 23L15 25L14 25L14 22L16 22L16 21L17 21L17 20L16 20L16 21L15 21L15 18L14 18L14 17L16 17L16 18L18 18L18 19L19 19L19 18L18 18L18 17L16 17L16 16L14 16L14 17L13 17L13 19L12 19L12 18L10 18L10 15L11 15L11 14L12 14L12 11L13 11L13 12L14 12L14 11L13 11L13 10L14 10L14 9L15 9L15 8L13 8L13 7L14 7L14 6L13 6L13 5L12 5L12 4L11 4L11 3L9 3L9 4L10 4L10 5L9 5L9 7L10 7L10 6L11 6L11 7L12 7L12 8L11 8L11 9L10 9L10 8L9 8L9 11L8 11L8 13L9 13L9 11L10 11L10 10L11 10L11 13L10 13L10 15L9 15L9 17L8 17L8 16L7 16L7 15L6 15L6 14L7 14L7 13L5 13L5 16L3 16L3 18L2 18L2 17L1 17L1 18L2 18L2 19L5 19L5 20L4 20L4 21L2 21L2 23L1 23L1 24L2 24L2 23L4 23L4 24L5 24L5 25L6 25L6 26L7 26L7 25L6 25L6 24L7 24L7 23L4 23L4 22L8 22L8 24L9 24L9 25L8 25L8 26L11 26L11 29L10 29L10 28L9 28L9 31L6 31L6 32L5 32L5 31L4 31L4 33L3 33L3 34L2 34L2 36L8 36L8 35L9 35L9 38L8 38L8 37L6 37L6 38L5 38L5 37L4 37L4 38L3 38L3 37L2 37L2 38L3 38L3 39L4 39L4 40L3 40L3 43L4 43L4 44L5 44L5 46L4 46L4 45L3 45L3 47L5 47L5 46L7 46L7 47L8 47L8 48L9 48L9 49L10 49L10 50L9 50L9 51L10 51L10 50L11 50L11 49L10 49L10 46L12 46L12 44L11 44L11 45L10 45L10 44L9 44L9 42L11 42L11 43L12 43L12 42L13 42L13 40L15 40L15 39L16 39L16 40L17 40L17 39L18 39L18 38L19 38L19 39L20 39L20 38L19 38L19 37L23 37L23 38L21 38L21 39L23 39L23 40L21 40L21 41L18 41L18 42L17 42L17 41L15 41L15 43L16 43L16 44L17 44L17 45L14 45L14 43L13 43L13 45L14 45L14 47L13 47L13 48L12 48L12 52L13 52L13 53L14 53L14 51L15 51L15 50L17 50L17 51L16 51L16 53L17 53L17 52L18 52L18 50L19 50L19 49L20 49L20 50L21 50L21 49L22 49L22 50L23 50L23 49L24 49L24 48L25 48L25 50L26 50L26 48L27 48L27 47L24 47L24 46L23 46L23 45L25 45L25 46L26 46L26 44L25 44L25 43L27 43L27 42L29 42L29 41L30 41L30 40L29 40L29 38L30 38L30 37L31 37L31 36L32 36L32 37L33 37L33 38L34 38L34 40L33 40L33 39L32 39L32 40L31 40L31 41L32 41L32 42L31 42L31 43L32 43L32 46L31 46L31 45L30 45L30 46L31 46L31 47L29 47L29 48L32 48L32 49L31 49L31 50L32 50L32 51L31 51L31 52L32 52L32 53L30 53L30 54L28 54L28 55L30 55L30 56L34 56L34 55L37 55L37 54L40 54L40 55L41 55L41 53L43 53L43 55L42 55L42 56L43 56L43 55L44 55L44 53L45 53L45 54L46 54L46 55L47 55L47 53L48 53L48 50L47 50L47 49L48 49L48 48L50 48L50 47L51 47L51 48L53 48L53 46L54 46L54 44L53 44L53 45L52 45L52 44L49 44L49 43L48 43L48 44L47 44L47 45L45 45L45 44L46 44L46 43L47 43L47 42L48 42L48 41L50 41L50 43L53 43L53 42L54 42L54 41L52 41L52 40L53 40L53 38L56 38L56 37L55 37L55 36L54 36L54 35L55 35L55 34L56 34L56 33L54 33L54 32L53 32L53 31L54 31L54 30L55 30L55 29L53 29L53 31L50 31L50 32L49 32L49 31L48 31L48 29L47 29L47 28L48 28L48 26L47 26L47 25L46 25L46 23L47 23L47 22L48 22L48 21L49 21L49 18L48 18L48 19L47 19L47 16L43 16L43 15L44 15L44 14L47 14L47 13L50 13L50 12L48 12L48 11L50 11L50 10L47 10L47 7L46 7L46 6L45 6L45 8L44 8L44 9L43 9L43 10L41 10L41 8L42 8L42 6L43 6L43 7L44 7L44 5L47 5L47 3L46 3L46 4L45 4L45 3L44 3L44 5L41 5L41 3L40 3L40 2ZM23 4L23 5L22 5L22 6L21 6L21 9L19 9L19 11L22 11L22 10L21 10L21 9L23 9L23 8L24 8L24 9L25 9L25 8L26 8L26 4L25 4L25 8L24 8L24 6L23 6L23 5L24 5L24 4ZM11 5L11 6L12 6L12 7L13 7L13 6L12 6L12 5ZM19 5L19 7L20 7L20 5ZM27 5L27 8L30 8L30 5ZM17 6L17 7L16 7L16 8L17 8L17 7L18 7L18 6ZM22 6L22 7L23 7L23 6ZM28 6L28 7L29 7L29 6ZM38 6L38 7L37 7L37 8L36 8L36 9L35 9L35 10L34 10L34 9L33 9L33 11L32 11L32 12L31 12L31 13L32 13L32 14L30 14L30 13L28 13L28 15L27 15L27 14L26 14L26 15L25 15L25 13L26 13L26 11L24 11L24 13L23 13L23 14L24 14L24 15L22 15L22 16L23 16L23 18L25 18L25 20L24 20L24 21L23 21L23 22L21 22L21 24L20 24L20 25L22 25L22 26L21 26L21 27L20 27L20 26L19 26L19 29L18 29L18 28L17 28L17 27L18 27L18 25L17 25L17 27L16 27L16 25L15 25L15 26L14 26L14 25L13 25L13 23L12 23L12 22L14 22L14 21L13 21L13 20L14 20L14 19L13 19L13 20L12 20L12 19L9 19L9 18L8 18L8 20L6 20L6 21L11 21L11 22L10 22L10 23L9 23L9 24L10 24L10 23L11 23L11 26L12 26L12 29L11 29L11 30L12 30L12 29L15 29L15 28L16 28L16 29L18 29L18 30L19 30L19 31L21 31L21 32L17 32L17 33L18 33L18 35L19 35L19 36L18 36L18 37L17 37L17 38L18 38L18 37L19 37L19 36L20 36L20 35L19 35L19 34L20 34L20 33L21 33L21 36L23 36L23 37L24 37L24 38L23 38L23 39L24 39L24 40L23 40L23 42L22 42L22 43L21 43L21 42L18 42L18 43L17 43L17 42L16 42L16 43L17 43L17 44L18 44L18 45L17 45L17 46L18 46L18 47L16 47L16 46L15 46L15 47L16 47L16 48L13 48L13 51L14 51L14 50L15 50L15 49L16 49L16 48L18 48L18 49L17 49L17 50L18 50L18 49L19 49L19 46L20 46L20 49L21 49L21 46L22 46L22 47L23 47L23 46L22 46L22 45L23 45L23 43L25 43L25 39L26 39L26 40L27 40L27 41L26 41L26 42L27 42L27 41L28 41L28 39L27 39L27 38L28 38L28 37L27 37L27 36L31 36L31 35L32 35L32 36L33 36L33 37L36 37L36 40L35 40L35 41L36 41L36 43L37 43L37 44L35 44L35 45L36 45L36 46L37 46L37 47L35 47L35 46L34 46L34 48L33 48L33 47L32 47L32 48L33 48L33 49L32 49L32 50L34 50L34 51L35 51L35 52L34 52L34 53L36 53L36 54L37 54L37 53L40 53L40 52L41 52L41 51L42 51L42 50L46 50L46 51L45 51L45 52L47 52L47 50L46 50L46 48L48 48L48 47L50 47L50 46L49 46L49 44L48 44L48 45L47 45L47 46L45 46L45 47L44 47L44 46L43 46L43 45L44 45L44 44L45 44L45 43L46 43L46 42L45 42L45 41L46 41L46 40L48 40L48 39L49 39L49 40L52 40L52 39L50 39L50 38L49 38L49 37L50 37L50 36L53 36L53 37L54 37L54 36L53 36L53 35L54 35L54 34L53 34L53 35L52 35L52 34L51 34L51 35L50 35L50 33L51 33L51 32L50 32L50 33L49 33L49 34L48 34L48 33L47 33L47 34L45 34L45 35L44 35L44 32L46 32L46 31L47 31L47 32L48 32L48 31L47 31L47 30L45 30L45 29L46 29L46 28L47 28L47 26L45 26L45 25L44 25L44 24L45 24L45 23L44 23L44 24L43 24L43 25L42 25L42 23L43 23L43 21L44 21L44 22L45 22L45 21L46 21L46 20L47 20L47 21L48 21L48 20L47 20L47 19L46 19L46 18L45 18L45 17L44 17L44 18L43 18L43 17L41 17L41 18L40 18L40 17L39 17L39 16L42 16L42 15L43 15L43 11L44 11L44 12L45 12L45 13L46 13L46 12L47 12L47 10L46 10L46 8L45 8L45 11L44 11L44 10L43 10L43 11L42 11L42 12L41 12L41 10L39 10L39 11L40 11L40 12L38 12L38 11L37 11L37 10L38 10L38 9L39 9L39 8L38 8L38 7L39 7L39 6ZM40 6L40 8L41 8L41 6ZM12 8L12 10L13 10L13 8ZM37 8L37 9L38 9L38 8ZM16 9L16 12L15 12L15 13L13 13L13 15L14 15L14 14L15 14L15 15L17 15L17 13L18 13L18 12L17 12L17 11L18 11L18 9ZM28 9L28 10L29 10L29 9ZM53 9L53 11L55 11L55 10L54 10L54 9ZM6 11L6 12L7 12L7 11ZM34 11L34 12L32 12L32 13L33 13L33 14L32 14L32 15L30 15L30 14L29 14L29 15L28 15L28 16L27 16L27 15L26 15L26 16L24 16L24 17L25 17L25 18L26 18L26 20L25 20L25 21L24 21L24 22L23 22L23 23L22 23L22 25L23 25L23 26L22 26L22 27L21 27L21 28L22 28L22 29L20 29L20 30L21 30L21 31L22 31L22 32L21 32L21 33L23 33L23 32L24 32L24 33L25 33L25 34L24 34L24 35L23 35L23 36L24 36L24 35L25 35L25 38L26 38L26 35L25 35L25 34L27 34L27 35L28 35L28 34L29 34L29 35L30 35L30 34L29 34L29 33L30 33L30 31L28 31L28 33L25 33L25 32L24 32L24 31L25 31L25 30L23 30L23 28L24 28L24 27L25 27L25 29L26 29L26 27L25 27L25 26L29 26L29 25L31 25L31 26L32 26L32 25L31 25L31 24L34 24L34 26L33 26L33 27L32 27L32 29L31 29L31 30L32 30L32 31L33 31L33 32L31 32L31 34L33 34L33 33L34 33L34 34L35 34L35 35L34 35L34 36L36 36L36 35L37 35L37 37L38 37L38 38L39 38L39 39L38 39L38 41L37 41L37 42L39 42L39 40L40 40L40 41L41 41L41 40L40 40L40 39L42 39L42 40L44 40L44 41L43 41L43 42L40 42L40 44L39 44L39 43L38 43L38 44L37 44L37 45L38 45L38 46L39 46L39 45L41 45L41 46L40 46L40 48L39 48L39 47L38 47L38 50L39 50L39 49L40 49L40 50L42 50L42 49L45 49L45 48L42 48L42 49L41 49L41 46L42 46L42 47L43 47L43 46L42 46L42 45L43 45L43 44L44 44L44 41L45 41L45 39L46 39L46 38L47 38L47 39L48 39L48 38L47 38L47 37L48 37L48 36L47 36L47 35L45 35L45 36L44 36L44 35L43 35L43 34L42 34L42 37L43 37L43 38L45 38L45 39L42 39L42 38L40 38L40 37L41 37L41 33L43 33L43 32L44 32L44 31L45 31L45 30L44 30L44 31L43 31L43 32L42 32L42 30L41 30L41 29L42 29L42 28L39 28L39 29L38 29L38 27L37 27L37 29L35 29L35 28L33 28L33 27L34 27L34 26L35 26L35 24L36 24L36 23L37 23L37 21L33 21L33 19L34 19L34 20L35 20L35 19L34 19L34 18L37 18L37 17L35 17L35 16L32 16L32 15L33 15L33 14L34 14L34 15L35 15L35 13L36 13L36 12L37 12L37 13L38 13L38 14L37 14L37 15L38 15L38 16L39 16L39 14L41 14L41 12L40 12L40 13L38 13L38 12L37 12L37 11L36 11L36 12L35 12L35 11ZM16 12L16 13L15 13L15 14L16 14L16 13L17 13L17 12ZM34 12L34 13L35 13L35 12ZM21 13L21 14L20 14L20 15L21 15L21 14L22 14L22 13ZM2 14L2 15L4 15L4 14ZM54 14L54 15L55 15L55 14ZM5 16L5 17L4 17L4 18L6 18L6 19L7 19L7 18L6 18L6 17L7 17L7 16ZM28 16L28 17L27 17L27 18L28 18L28 19L30 19L30 20L29 20L29 21L25 21L25 22L26 22L26 23L25 23L25 24L27 24L27 23L29 23L29 24L31 24L31 22L32 22L32 23L34 23L34 24L35 24L35 23L36 23L36 22L35 22L35 23L34 23L34 22L33 22L33 21L32 21L32 20L31 20L31 17L32 17L32 18L34 18L34 17L32 17L32 16L31 16L31 17L29 17L29 16ZM21 17L21 18L22 18L22 17ZM38 17L38 18L39 18L39 19L38 19L38 24L40 24L40 26L41 26L41 27L42 27L42 26L41 26L41 24L40 24L40 23L42 23L42 22L39 22L39 21L41 21L41 20L40 20L40 18L39 18L39 17ZM41 18L41 19L43 19L43 20L42 20L42 21L43 21L43 20L44 20L44 21L45 21L45 20L46 20L46 19L45 19L45 20L44 20L44 19L43 19L43 18ZM21 19L21 20L23 20L23 19ZM36 19L36 20L37 20L37 19ZM29 22L29 23L30 23L30 22ZM23 23L23 25L24 25L24 26L25 26L25 25L24 25L24 23ZM54 24L54 25L55 25L55 24ZM37 25L37 26L39 26L39 25ZM43 25L43 28L44 28L44 29L45 29L45 28L46 28L46 27L45 27L45 26L44 26L44 25ZM13 26L13 28L15 28L15 27L14 27L14 26ZM5 27L5 30L8 30L8 27ZM27 27L27 30L30 30L30 27ZM49 27L49 30L52 30L52 27ZM6 28L6 29L7 29L7 28ZM28 28L28 29L29 29L29 28ZM50 28L50 29L51 29L51 28ZM37 29L37 30L36 30L36 31L37 31L37 32L35 32L35 31L34 31L34 32L35 32L35 33L36 33L36 34L37 34L37 35L39 35L39 36L40 36L40 35L39 35L39 34L40 34L40 33L39 33L39 32L40 32L40 31L41 31L41 30L40 30L40 31L39 31L39 30L38 30L38 29ZM13 30L13 31L12 31L12 32L13 32L13 33L12 33L12 34L11 34L11 33L10 33L10 34L11 34L11 35L12 35L12 34L13 34L13 33L14 33L14 35L13 35L13 36L12 36L12 38L13 38L13 39L12 39L12 40L11 40L11 42L12 42L12 40L13 40L13 39L14 39L14 38L13 38L13 36L14 36L14 37L15 37L15 38L16 38L16 37L15 37L15 36L16 36L16 35L15 35L15 33L14 33L14 32L16 32L16 31L15 31L15 30ZM37 30L37 31L38 31L38 32L37 32L37 33L38 33L38 34L39 34L39 33L38 33L38 32L39 32L39 31L38 31L38 30ZM1 31L1 32L0 32L0 33L1 33L1 32L2 32L2 31ZM9 31L9 32L8 32L8 33L9 33L9 32L10 32L10 31ZM13 31L13 32L14 32L14 31ZM26 31L26 32L27 32L27 31ZM6 32L6 33L7 33L7 32ZM52 32L52 33L53 33L53 32ZM5 34L5 35L7 35L7 34ZM14 35L14 36L15 36L15 35ZM49 35L49 36L50 36L50 35ZM10 36L10 37L11 37L11 36ZM43 36L43 37L44 37L44 36ZM45 37L45 38L46 38L46 37ZM4 38L4 39L5 39L5 38ZM6 38L6 39L7 39L7 38ZM9 38L9 40L10 40L10 39L11 39L11 38ZM5 40L5 41L4 41L4 43L5 43L5 44L6 44L6 45L7 45L7 46L8 46L8 45L7 45L7 44L6 44L6 43L7 43L7 42L9 42L9 41L8 41L8 40ZM5 41L5 43L6 43L6 42L7 42L7 41ZM33 41L33 44L34 44L34 41ZM28 43L28 45L27 45L27 46L29 46L29 44L30 44L30 43ZM41 43L41 45L42 45L42 43ZM19 44L19 45L20 45L20 46L21 46L21 45L22 45L22 44ZM38 44L38 45L39 45L39 44ZM1 46L1 47L2 47L2 46ZM47 46L47 47L48 47L48 46ZM34 48L34 50L35 50L35 51L36 51L36 52L37 52L37 50L35 50L35 48ZM27 49L27 52L30 52L30 49ZM49 49L49 52L52 52L52 49ZM28 50L28 51L29 51L29 50ZM50 50L50 51L51 51L51 50ZM19 51L19 52L20 52L20 51ZM38 51L38 52L40 52L40 51ZM9 52L9 56L10 56L10 55L12 55L12 56L13 56L13 55L12 55L12 53L11 53L11 52ZM43 52L43 53L44 53L44 52ZM56 52L56 53L57 53L57 52ZM10 53L10 54L11 54L11 53ZM26 53L26 55L27 55L27 53ZM32 53L32 54L31 54L31 55L32 55L32 54L33 54L33 55L34 55L34 54L33 54L33 53ZM21 55L21 56L20 56L20 57L21 57L21 56L22 56L22 55ZM53 55L53 56L55 56L55 57L56 57L56 56L55 56L55 55ZM18 56L18 57L19 57L19 56ZM0 0L0 7L7 7L7 0ZM1 1L1 6L6 6L6 1ZM2 2L2 5L5 5L5 2ZM50 0L50 7L57 7L57 0ZM51 1L51 6L56 6L56 1ZM52 2L52 5L55 5L55 2ZM0 50L0 57L7 57L7 50ZM1 51L1 56L6 56L6 51ZM2 52L2 55L5 55L5 52Z" fill="#000000"/></g></g></svg>
