<?xml version="1.0" encoding="UTF-8"?>
<svg xmlns="http://www.w3.org/2000/svg" version="1.1" width="300" height="300" viewBox="0 0 300 300"><rect x="0" y="0" width="300" height="300" fill="#ffffff"/><g transform="scale(5.263)"><g transform="translate(0,0)"><path fill-rule="evenodd" d="M8 0L8 1L12 1L12 2L8 2L8 5L9 5L9 3L12 3L12 4L13 4L13 5L12 5L12 7L13 7L13 5L15 5L15 6L14 6L14 8L12 8L12 9L13 9L13 11L12 11L12 13L14 13L14 14L15 14L15 16L14 16L14 15L13 15L13 16L12 16L12 14L11 14L11 15L10 15L10 14L9 14L9 11L10 11L10 12L11 12L11 10L10 10L10 8L11 8L11 4L10 4L10 7L9 7L9 6L8 6L8 7L9 7L9 8L8 8L8 9L9 9L9 11L7 11L7 10L6 10L6 9L7 9L7 8L6 8L6 9L5 9L5 10L6 10L6 11L7 11L7 12L6 12L6 13L5 13L5 11L4 11L4 13L3 13L3 12L1 12L1 13L3 13L3 14L2 14L2 15L1 15L1 14L0 14L0 16L1 16L1 17L0 17L0 18L1 18L1 19L0 19L0 21L1 21L1 22L0 22L0 25L1 25L1 27L2 27L2 29L1 29L1 30L0 30L0 31L1 31L1 32L0 32L0 34L2 34L2 33L1 33L1 32L3 32L3 31L2 31L2 30L3 30L3 28L4 28L4 31L7 31L7 32L5 32L5 33L3 33L3 34L5 34L5 36L6 36L6 37L5 37L5 38L4 38L4 39L1 39L1 38L3 38L3 36L1 36L1 35L0 35L0 36L1 36L1 38L0 38L0 42L1 42L1 40L2 40L2 41L3 41L3 40L4 40L4 42L2 42L2 43L0 43L0 48L5 48L5 47L8 47L8 46L10 46L10 45L13 45L13 49L12 49L12 48L11 48L11 49L10 49L10 48L6 48L6 49L8 49L8 50L10 50L10 52L9 52L9 53L8 53L8 57L9 57L9 53L12 53L12 54L10 54L10 56L11 56L11 57L12 57L12 56L11 56L11 55L13 55L13 54L14 54L14 53L15 53L15 56L16 56L16 57L18 57L18 56L19 56L19 57L20 57L20 56L21 56L21 57L23 57L23 56L21 56L21 55L22 55L22 52L23 52L23 54L25 54L25 53L26 53L26 54L27 54L27 55L24 55L24 57L25 57L25 56L28 56L28 57L29 57L29 56L28 56L28 53L29 53L29 54L31 54L31 55L30 55L30 56L31 56L31 55L32 55L32 57L33 57L33 56L35 56L35 57L36 57L36 56L35 56L35 55L36 55L36 52L35 52L35 51L34 51L34 50L33 50L33 52L32 52L32 51L31 51L31 50L32 50L32 48L31 48L31 47L29 47L29 46L32 46L32 45L31 45L31 44L33 44L33 45L36 45L36 44L37 44L37 41L39 41L39 42L38 42L38 43L39 43L39 45L40 45L40 46L38 46L38 45L37 45L37 46L33 46L33 49L34 49L34 47L35 47L35 50L36 50L36 51L37 51L37 50L36 50L36 49L38 49L38 53L39 53L39 54L40 54L40 56L39 56L39 55L38 55L38 54L37 54L37 56L38 56L38 57L41 57L41 53L43 53L43 55L44 55L44 53L45 53L45 57L46 57L46 55L47 55L47 56L49 56L49 57L50 57L50 56L52 56L52 55L51 55L51 53L52 53L52 54L53 54L53 53L54 53L54 52L55 52L55 48L56 48L56 47L57 47L57 46L55 46L55 45L54 45L54 44L53 44L53 43L52 43L52 42L54 42L54 43L55 43L55 44L56 44L56 42L57 42L57 40L56 40L56 42L54 42L54 41L51 41L51 40L52 40L52 39L49 39L49 38L50 38L50 37L49 37L49 38L48 38L48 39L44 39L44 38L42 38L42 39L41 39L41 37L40 37L40 35L41 35L41 34L43 34L43 35L42 35L42 37L44 37L44 36L43 36L43 35L44 35L44 34L45 34L45 35L48 35L48 36L49 36L49 35L53 35L53 36L52 36L52 37L53 37L53 36L54 36L54 34L51 34L51 33L52 33L52 32L53 32L53 33L54 33L54 32L53 32L53 28L54 28L54 31L56 31L56 32L57 32L57 31L56 31L56 30L57 30L57 28L56 28L56 27L53 27L53 26L54 26L54 25L53 25L53 26L51 26L51 25L49 25L49 26L48 26L48 27L47 27L47 28L45 28L45 27L46 27L46 25L48 25L48 24L47 24L47 23L48 23L48 22L49 22L49 24L50 24L50 21L54 21L54 20L51 20L51 19L50 19L50 18L48 18L48 15L49 15L49 16L50 16L50 17L52 17L52 18L53 18L53 17L52 17L52 16L53 16L53 14L54 14L54 17L55 17L55 16L56 16L56 18L57 18L57 16L56 16L56 12L54 12L54 11L57 11L57 8L56 8L56 9L55 9L55 8L52 8L52 10L51 10L51 11L50 11L50 10L49 10L49 9L50 9L50 8L49 8L49 6L48 6L48 8L49 8L49 9L47 9L47 5L48 5L48 0L45 0L45 1L43 1L43 0L40 0L40 1L39 1L39 3L37 3L37 2L38 2L38 1L37 1L37 2L36 2L36 0L35 0L35 1L34 1L34 3L33 3L33 4L32 4L32 2L33 2L33 0L29 0L29 1L26 1L26 0L23 0L23 2L21 2L21 1L20 1L20 0L18 0L18 1L16 1L16 3L17 3L17 5L15 5L15 4L14 4L14 2L15 2L15 0ZM13 1L13 2L12 2L12 3L13 3L13 2L14 2L14 1ZM19 1L19 2L20 2L20 1ZM25 1L25 2L23 2L23 3L22 3L22 4L23 4L23 3L25 3L25 2L26 2L26 4L24 4L24 6L23 6L23 7L24 7L24 9L25 9L25 10L23 10L23 11L21 11L21 14L23 14L23 15L25 15L25 13L27 13L27 14L26 14L26 16L25 16L25 17L24 17L24 16L22 16L22 15L20 15L20 10L21 10L21 9L22 9L22 6L21 6L21 7L20 7L20 6L19 6L19 5L17 5L17 7L16 7L16 6L15 6L15 8L14 8L14 9L15 9L15 10L14 10L14 11L16 11L16 12L15 12L15 13L16 13L16 15L17 15L17 17L18 17L18 18L17 18L17 19L18 19L18 18L20 18L20 19L19 19L19 20L17 20L17 21L18 21L18 23L19 23L19 22L22 22L22 21L21 21L21 20L20 20L20 19L21 19L21 17L19 17L19 16L22 16L22 17L24 17L24 19L23 19L23 18L22 18L22 20L23 20L23 21L24 21L24 22L25 22L25 24L24 24L24 26L23 26L23 27L22 27L22 26L20 26L20 24L21 24L21 23L20 23L20 24L19 24L19 27L17 27L17 26L18 26L18 25L17 25L17 23L16 23L16 17L15 17L15 18L14 18L14 16L13 16L13 18L11 18L11 17L8 17L8 19L5 19L5 20L4 20L4 21L5 21L5 24L7 24L7 23L6 23L6 22L9 22L9 21L10 21L10 22L11 22L11 23L8 23L8 24L9 24L9 25L8 25L8 26L9 26L9 25L11 25L11 26L10 26L10 27L9 27L9 31L8 31L8 33L9 33L9 32L10 32L10 34L9 34L9 35L11 35L11 37L10 37L10 36L7 36L7 35L6 35L6 36L7 36L7 37L6 37L6 38L5 38L5 40L7 40L7 41L6 41L6 42L5 42L5 43L6 43L6 44L3 44L3 43L2 43L2 45L1 45L1 47L2 47L2 46L3 46L3 47L5 47L5 45L6 45L6 46L8 46L8 45L6 45L6 44L7 44L7 43L6 43L6 42L8 42L8 40L11 40L11 41L10 41L10 42L11 42L11 43L14 43L14 45L15 45L15 46L14 46L14 49L13 49L13 50L14 50L14 51L15 51L15 53L16 53L16 54L17 54L17 55L19 55L19 56L20 56L20 55L21 55L21 53L20 53L20 55L19 55L19 54L18 54L18 53L19 53L19 52L20 52L20 51L19 51L19 50L17 50L17 49L16 49L16 50L14 50L14 49L15 49L15 48L17 48L17 47L18 47L18 48L21 48L21 50L23 50L23 52L24 52L24 53L25 53L25 52L26 52L26 51L24 51L24 50L26 50L26 47L27 47L27 48L28 48L28 47L27 47L27 46L29 46L29 42L30 42L30 41L31 41L31 43L33 43L33 44L34 44L34 43L35 43L35 44L36 44L36 43L35 43L35 42L36 42L36 41L37 41L37 40L35 40L35 39L36 39L36 36L35 36L35 35L39 35L39 34L40 34L40 33L39 33L39 32L41 32L41 33L42 33L42 31L43 31L43 33L46 33L46 34L47 34L47 33L48 33L48 34L49 34L49 33L48 33L48 29L47 29L47 33L46 33L46 32L45 32L45 31L46 31L46 30L45 30L45 29L44 29L44 28L43 28L43 27L42 27L42 28L40 28L40 27L41 27L41 26L43 26L43 23L45 23L45 24L44 24L44 25L45 25L45 24L46 24L46 22L48 22L48 21L46 21L46 20L45 20L45 19L44 19L44 20L42 20L42 21L44 21L44 22L40 22L40 20L39 20L39 19L36 19L36 18L41 18L41 19L42 19L42 18L44 18L44 17L42 17L42 18L41 18L41 16L45 16L45 15L47 15L47 12L46 12L46 14L45 14L45 9L46 9L46 10L47 10L47 9L46 9L46 8L45 8L45 7L46 7L46 5L47 5L47 3L46 3L46 2L47 2L47 1L46 1L46 2L45 2L45 3L44 3L44 2L43 2L43 3L42 3L42 2L41 2L41 3L39 3L39 5L40 5L40 4L42 4L42 5L43 5L43 3L44 3L44 4L45 4L45 3L46 3L46 5L44 5L44 6L43 6L43 7L42 7L42 6L41 6L41 7L42 7L42 8L41 8L41 9L43 9L43 10L41 10L41 11L40 11L40 12L38 12L38 13L39 13L39 14L37 14L37 13L34 13L34 14L33 14L33 12L36 12L36 11L37 11L37 10L35 10L35 9L37 9L37 8L36 8L36 6L35 6L35 9L34 9L34 10L33 10L33 8L32 8L32 10L31 10L31 12L29 12L29 11L30 11L30 10L27 10L27 9L26 9L26 6L25 6L25 5L26 5L26 4L30 4L30 3L31 3L31 2L30 2L30 3L28 3L28 2L26 2L26 1ZM19 3L19 4L20 4L20 5L21 5L21 3ZM31 4L31 7L32 7L32 4ZM34 4L34 5L33 5L33 7L34 7L34 5L37 5L37 4ZM27 5L27 8L30 8L30 5ZM18 6L18 7L17 7L17 9L18 9L18 10L16 10L16 11L17 11L17 12L16 12L16 13L17 13L17 12L18 12L18 13L19 13L19 12L18 12L18 10L20 10L20 9L18 9L18 7L19 7L19 8L20 8L20 7L19 7L19 6ZM24 6L24 7L25 7L25 6ZM28 6L28 7L29 7L29 6ZM37 6L37 7L38 7L38 6ZM39 6L39 8L38 8L38 10L40 10L40 9L39 9L39 8L40 8L40 6ZM44 6L44 7L43 7L43 8L44 8L44 7L45 7L45 6ZM0 8L0 10L2 10L2 11L3 11L3 10L4 10L4 8ZM53 9L53 10L54 10L54 9ZM25 10L25 11L26 11L26 10ZM32 10L32 11L33 11L33 10ZM34 10L34 11L35 11L35 10ZM43 10L43 13L44 13L44 10ZM27 11L27 13L28 13L28 11ZM48 11L48 14L50 14L50 13L51 13L51 15L50 15L50 16L51 16L51 15L52 15L52 14L53 14L53 13L54 13L54 14L55 14L55 13L54 13L54 12L53 12L53 11L52 11L52 13L51 13L51 12L50 12L50 11ZM7 12L7 13L6 13L6 14L7 14L7 15L6 15L6 16L7 16L7 15L8 15L8 12ZM22 12L22 13L23 13L23 14L24 14L24 12ZM31 12L31 13L30 13L30 14L32 14L32 15L29 15L29 14L28 14L28 15L27 15L27 16L26 16L26 17L25 17L25 20L26 20L26 21L25 21L25 22L27 22L27 21L28 21L28 22L30 22L30 25L34 25L34 23L35 23L35 28L34 28L34 26L32 26L32 29L33 29L33 30L34 30L34 31L33 31L33 34L32 34L32 35L33 35L33 36L34 36L34 37L33 37L33 38L34 38L34 39L33 39L33 40L32 40L32 38L31 38L31 37L32 37L32 36L31 36L31 37L29 37L29 38L27 38L27 37L26 37L26 36L27 36L27 35L28 35L28 36L30 36L30 34L31 34L31 33L32 33L32 30L31 30L31 26L28 26L28 25L27 25L27 26L26 26L26 25L25 25L25 26L24 26L24 27L23 27L23 29L21 29L21 27L19 27L19 28L18 28L18 29L19 29L19 28L20 28L20 29L21 29L21 30L24 30L24 31L20 31L20 32L19 32L19 34L20 34L20 35L21 35L21 34L20 34L20 32L21 32L21 33L22 33L22 35L23 35L23 34L25 34L25 35L24 35L24 36L23 36L23 37L22 37L22 39L21 39L21 38L20 38L20 37L19 37L19 35L18 35L18 36L17 36L17 34L18 34L18 33L17 33L17 34L16 34L16 33L15 33L15 32L16 32L16 31L15 31L15 30L17 30L17 31L19 31L19 30L17 30L17 29L15 29L15 28L14 28L14 27L13 27L13 25L15 25L15 27L16 27L16 23L15 23L15 24L14 24L14 23L13 23L13 24L12 24L12 23L11 23L11 25L12 25L12 28L13 28L13 29L14 29L14 30L10 30L10 32L11 32L11 34L13 34L13 35L12 35L12 36L13 36L13 37L12 37L12 38L13 38L13 37L14 37L14 36L15 36L15 34L16 34L16 36L17 36L17 38L14 38L14 39L15 39L15 40L14 40L14 41L13 41L13 42L14 42L14 41L15 41L15 43L16 43L16 45L17 45L17 46L16 46L16 47L17 47L17 46L19 46L19 47L21 47L21 48L22 48L22 47L21 47L21 46L22 46L22 44L23 44L23 42L24 42L24 45L23 45L23 47L24 47L24 48L25 48L25 47L24 47L24 46L25 46L25 42L27 42L27 44L26 44L26 45L27 45L27 44L28 44L28 42L29 42L29 41L30 41L30 40L29 40L29 41L27 41L27 40L28 40L28 39L30 39L30 38L31 38L31 40L32 40L32 41L34 41L34 42L33 42L33 43L34 43L34 42L35 42L35 41L34 41L34 39L35 39L35 38L34 38L34 37L35 37L35 36L34 36L34 35L35 35L35 34L34 34L34 33L35 33L35 31L36 31L36 32L37 32L37 34L38 34L38 32L39 32L39 31L37 31L37 29L38 29L38 28L37 28L37 27L36 27L36 26L37 26L37 24L38 24L38 23L39 23L39 22L38 22L38 21L39 21L39 20L38 20L38 21L36 21L36 19L35 19L35 17L36 17L36 14L34 14L34 15L33 15L33 14L32 14L32 12ZM49 12L49 13L50 13L50 12ZM4 13L4 14L5 14L5 13ZM40 13L40 15L39 15L39 16L38 16L38 15L37 15L37 16L38 16L38 17L39 17L39 16L41 16L41 14L42 14L42 15L44 15L44 14L42 14L42 13ZM17 14L17 15L19 15L19 14ZM2 15L2 17L3 17L3 15ZM4 15L4 16L5 16L5 15ZM28 15L28 16L29 16L29 17L27 17L27 20L29 20L29 21L32 21L32 22L31 22L31 23L32 23L32 24L33 24L33 23L34 23L34 22L35 22L35 23L36 23L36 24L37 24L37 22L35 22L35 19L34 19L34 17L33 17L33 18L32 18L32 17L31 17L31 16L29 16L29 15ZM6 17L6 18L7 18L7 17ZM29 17L29 18L28 18L28 19L29 19L29 20L31 20L31 19L32 19L32 20L33 20L33 22L32 22L32 23L33 23L33 22L34 22L34 19L32 19L32 18L31 18L31 19L30 19L30 17ZM2 18L2 19L3 19L3 18ZM9 18L9 20L6 20L6 21L9 21L9 20L10 20L10 18ZM46 18L46 19L48 19L48 18ZM12 19L12 20L13 20L13 22L14 22L14 20L15 20L15 19ZM55 19L55 20L56 20L56 21L55 21L55 22L56 22L56 24L55 24L55 26L56 26L56 25L57 25L57 20L56 20L56 19ZM2 20L2 22L3 22L3 23L4 23L4 22L3 22L3 20ZM49 20L49 21L50 21L50 20ZM53 22L53 24L54 24L54 22ZM22 23L22 25L23 25L23 23ZM26 23L26 24L27 24L27 23ZM28 23L28 24L29 24L29 23ZM41 23L41 25L40 25L40 24L39 24L39 25L38 25L38 27L40 27L40 26L41 26L41 25L42 25L42 23ZM1 24L1 25L2 25L2 26L3 26L3 25L2 25L2 24ZM6 25L6 26L7 26L7 25ZM25 26L25 27L24 27L24 30L25 30L25 32L26 32L26 33L25 33L25 34L26 34L26 33L27 33L27 34L28 34L28 35L29 35L29 33L31 33L31 32L29 32L29 31L28 31L28 32L29 32L29 33L27 33L27 32L26 32L26 28L25 28L25 27L26 27L26 26ZM44 26L44 27L45 27L45 26ZM5 27L5 30L8 30L8 27ZM27 27L27 30L30 30L30 27ZM49 27L49 30L52 30L52 27ZM6 28L6 29L7 29L7 28ZM10 28L10 29L11 29L11 28ZM28 28L28 29L29 29L29 28ZM35 28L35 30L36 30L36 29L37 29L37 28ZM39 28L39 30L41 30L41 31L42 31L42 29L43 29L43 28L42 28L42 29L40 29L40 28ZM50 28L50 29L51 29L51 28ZM55 28L55 29L56 29L56 28ZM43 30L43 31L44 31L44 30ZM13 31L13 32L15 32L15 31ZM23 32L23 33L24 33L24 32ZM5 33L5 34L7 34L7 33ZM13 33L13 34L14 34L14 33ZM33 34L33 35L34 35L34 34ZM55 34L55 35L57 35L57 34ZM13 35L13 36L14 36L14 35ZM25 35L25 36L26 36L26 35ZM37 36L37 37L38 37L38 36ZM45 36L45 38L46 38L46 36ZM55 36L55 37L56 37L56 36ZM7 37L7 38L6 38L6 39L7 39L7 40L8 40L8 38L9 38L9 39L11 39L11 38L9 38L9 37ZM18 37L18 39L16 39L16 40L15 40L15 41L17 41L17 42L16 42L16 43L17 43L17 45L20 45L20 46L21 46L21 44L22 44L22 42L23 42L23 40L24 40L24 42L25 42L25 41L26 41L26 40L27 40L27 39L26 39L26 37L24 37L24 39L22 39L22 40L20 40L20 43L21 43L21 44L19 44L19 43L18 43L18 41L19 41L19 40L18 40L18 39L19 39L19 37ZM37 38L37 39L38 39L38 40L39 40L39 41L41 41L41 40L39 40L39 39L40 39L40 38ZM54 38L54 39L53 39L53 40L55 40L55 38ZM56 38L56 39L57 39L57 38ZM12 39L12 40L13 40L13 39ZM24 39L24 40L25 40L25 39ZM43 39L43 40L44 40L44 39ZM45 40L45 41L46 41L46 40ZM48 40L48 41L49 41L49 43L50 43L50 44L51 44L51 45L50 45L50 46L53 46L53 47L54 47L54 48L53 48L53 51L54 51L54 48L55 48L55 46L53 46L53 44L52 44L52 43L51 43L51 42L50 42L50 40ZM21 41L21 42L22 42L22 41ZM42 41L42 42L41 42L41 43L42 43L42 42L43 42L43 43L44 43L44 46L45 46L45 44L46 44L46 46L49 46L49 45L48 45L48 42L43 42L43 41ZM8 43L8 44L9 44L9 43ZM42 44L42 45L43 45L43 44ZM37 46L37 47L38 47L38 48L40 48L40 50L42 50L42 52L46 52L46 53L47 53L47 54L49 54L49 55L50 55L50 54L49 54L49 53L47 53L47 52L48 52L48 51L47 51L47 50L48 50L48 48L47 48L47 47L45 47L45 48L43 48L43 46L42 46L42 47L38 47L38 46ZM51 47L51 48L52 48L52 47ZM42 48L42 49L43 49L43 51L44 51L44 50L45 50L45 51L46 51L46 50L45 50L45 49L43 49L43 48ZM11 49L11 50L12 50L12 49ZM27 49L27 52L30 52L30 49ZM49 49L49 52L52 52L52 49ZM56 49L56 50L57 50L57 49ZM28 50L28 51L29 51L29 50ZM50 50L50 51L51 51L51 50ZM11 51L11 52L12 52L12 51ZM40 51L40 53L41 53L41 51ZM33 52L33 53L31 53L31 54L32 54L32 55L34 55L34 52ZM55 53L55 54L54 54L54 55L55 55L55 54L56 54L56 53ZM56 55L56 56L57 56L57 55ZM13 56L13 57L14 57L14 56ZM53 56L53 57L55 57L55 56ZM0 0L0 7L7 7L7 0ZM1 1L1 6L6 6L6 1ZM2 2L2 5L5 5L5 2ZM50 0L50 7L57 7L57 0ZM51 1L51 6L56 6L56 1ZM52 2L52 5L55 5L55 2ZM0 50L0 57L7 57L7 50ZM1 51L1 56L6 56L6 51ZM2 52L2 55L5 55L5 52Z" fill="#000000"/></g></g></svg>
