<?xml version="1.0" encoding="UTF-8"?>
<svg xmlns="http://www.w3.org/2000/svg" version="1.1" width="300" height="300" viewBox="0 0 300 300"><rect x="0" y="0" width="300" height="300" fill="#ffffff"/><g transform="scale(5.263)"><g transform="translate(0,0)"><path fill-rule="evenodd" d="M10 0L10 1L9 1L9 3L8 3L8 5L9 5L9 4L11 4L11 5L12 5L12 7L13 7L13 4L14 4L14 7L15 7L15 6L16 6L16 7L17 7L17 6L18 6L18 7L19 7L19 8L16 8L16 9L15 9L15 10L14 10L14 8L13 8L13 10L12 10L12 9L11 9L11 8L10 8L10 7L11 7L11 6L10 6L10 7L9 7L9 6L8 6L8 7L9 7L9 8L10 8L10 9L8 9L8 8L5 8L5 9L2 9L2 8L0 8L0 9L2 9L2 10L1 10L1 11L2 11L2 12L1 12L1 13L0 13L0 17L2 17L2 15L4 15L4 14L6 14L6 15L7 15L7 16L5 16L5 17L4 17L4 16L3 16L3 17L4 17L4 22L5 22L5 21L8 21L8 23L7 23L7 22L6 22L6 23L5 23L5 24L4 24L4 23L3 23L3 18L2 18L2 20L1 20L1 19L0 19L0 20L1 20L1 21L2 21L2 22L0 22L0 24L1 24L1 23L2 23L2 24L3 24L3 25L2 25L2 27L0 27L0 28L2 28L2 29L0 29L0 35L1 35L1 33L3 33L3 34L2 34L2 36L1 36L1 38L0 38L0 40L1 40L1 41L0 41L0 42L1 42L1 43L0 43L0 45L1 45L1 44L2 44L2 47L1 47L1 46L0 46L0 48L5 48L5 47L7 47L7 48L6 48L6 49L7 49L7 48L8 48L8 47L9 47L9 49L8 49L8 52L9 52L9 55L8 55L8 57L11 57L11 55L12 55L12 57L14 57L14 56L13 56L13 55L12 55L12 54L10 54L10 52L11 52L11 51L12 51L12 53L13 53L13 54L14 54L14 55L15 55L15 56L17 56L17 57L19 57L19 54L18 54L18 56L17 56L17 55L16 55L16 54L17 54L17 53L16 53L16 49L15 49L15 48L18 48L18 50L17 50L17 52L18 52L18 53L20 53L20 52L18 52L18 50L19 50L19 51L21 51L21 52L24 52L24 53L22 53L22 54L20 54L20 55L22 55L22 56L23 56L23 57L24 57L24 53L25 53L25 54L27 54L27 53L29 53L29 54L28 54L28 55L25 55L25 56L27 56L27 57L28 57L28 56L30 56L30 57L35 57L35 56L36 56L36 57L39 57L39 56L41 56L41 57L44 57L44 56L43 56L43 55L42 55L42 56L41 56L41 54L40 54L40 55L37 55L37 54L38 54L38 53L37 53L37 51L38 51L38 52L40 52L40 51L38 51L38 49L37 49L37 48L36 48L36 47L38 47L38 48L40 48L40 49L42 49L42 50L41 50L41 51L42 51L42 52L41 52L41 53L42 53L42 54L44 54L44 55L45 55L45 54L46 54L46 53L45 53L45 54L44 54L44 53L43 53L43 52L44 52L44 51L45 51L45 52L47 52L47 50L46 50L46 49L48 49L48 53L50 53L50 55L49 55L49 54L48 54L48 56L47 56L47 57L49 57L49 56L50 56L50 57L53 57L53 56L55 56L55 57L56 57L56 56L55 56L55 55L57 55L57 54L55 54L55 55L53 55L53 54L54 54L54 52L55 52L55 51L54 51L54 50L57 50L57 49L54 49L54 48L55 48L55 47L54 47L54 46L56 46L56 45L57 45L57 44L56 44L56 45L55 45L55 42L54 42L54 41L53 41L53 42L52 42L52 40L55 40L55 39L56 39L56 40L57 40L57 35L56 35L56 34L57 34L57 33L56 33L56 32L55 32L55 31L54 31L54 30L55 30L55 29L54 29L54 30L53 30L53 28L56 28L56 26L55 26L55 25L54 25L54 24L57 24L57 23L54 23L54 22L53 22L53 23L51 23L51 22L52 22L52 20L53 20L53 21L54 21L54 20L55 20L55 22L56 22L56 20L55 20L55 19L54 19L54 20L53 20L53 19L52 19L52 17L51 17L51 15L49 15L49 14L50 14L50 13L51 13L51 12L52 12L52 13L56 13L56 14L55 14L55 15L52 15L52 16L54 16L54 17L55 17L55 18L56 18L56 19L57 19L57 17L55 17L55 15L56 15L56 14L57 14L57 13L56 13L56 12L55 12L55 11L56 11L56 10L55 10L55 9L54 9L54 8L52 8L52 9L54 9L54 10L55 10L55 11L52 11L52 10L51 10L51 9L49 9L49 8L48 8L48 7L49 7L49 6L48 6L48 7L47 7L47 5L48 5L48 0L45 0L45 2L43 2L43 0L42 0L42 1L41 1L41 3L39 3L39 4L42 4L42 5L41 5L41 6L40 6L40 5L38 5L38 4L37 4L37 3L38 3L38 2L37 2L37 1L36 1L36 0L34 0L34 2L33 2L33 0L30 0L30 1L31 1L31 2L33 2L33 3L30 3L30 4L29 4L29 2L27 2L27 0L24 0L24 1L23 1L23 0L20 0L20 1L17 1L17 0L16 0L16 1L15 1L15 3L14 3L14 2L13 2L13 0ZM28 0L28 1L29 1L29 0ZM38 0L38 1L39 1L39 2L40 2L40 0ZM10 1L10 2L12 2L12 3L11 3L11 4L13 4L13 2L12 2L12 1ZM16 1L16 3L17 3L17 1ZM22 1L22 2L23 2L23 3L27 3L27 2L23 2L23 1ZM35 1L35 2L34 2L34 3L36 3L36 1ZM46 1L46 2L47 2L47 1ZM19 3L19 4L20 4L20 3ZM43 3L43 4L44 4L44 3ZM45 3L45 8L43 8L43 7L44 7L44 5L42 5L42 6L41 6L41 8L40 8L40 6L39 6L39 8L40 8L40 9L41 9L41 8L43 8L43 9L46 9L46 5L47 5L47 3ZM16 4L16 6L17 6L17 5L18 5L18 6L19 6L19 7L20 7L20 5L18 5L18 4ZM21 4L21 7L22 7L22 8L21 8L21 10L19 10L19 11L21 11L21 13L20 13L20 12L19 12L19 13L20 13L20 15L23 15L23 16L19 16L19 15L17 15L17 16L19 16L19 17L20 17L20 18L22 18L22 20L21 20L21 19L19 19L19 18L18 18L18 17L16 17L16 16L14 16L14 15L16 15L16 14L17 14L17 13L16 13L16 14L15 14L15 12L14 12L14 11L13 11L13 13L10 13L10 12L12 12L12 11L10 11L10 10L11 10L11 9L10 9L10 10L9 10L9 11L8 11L8 9L6 9L6 10L7 10L7 11L6 11L6 12L3 12L3 13L1 13L1 15L2 15L2 14L4 14L4 13L6 13L6 14L8 14L8 15L12 15L12 14L14 14L14 15L13 15L13 16L14 16L14 17L16 17L16 18L15 18L15 19L14 19L14 20L13 20L13 17L12 17L12 19L11 19L11 17L10 17L10 16L8 16L8 18L7 18L7 17L6 17L6 18L7 18L7 19L5 19L5 20L7 20L7 19L9 19L9 18L10 18L10 19L11 19L11 21L9 21L9 22L10 22L10 24L9 24L9 23L8 23L8 25L5 25L5 26L8 26L8 25L10 25L10 24L11 24L11 27L12 27L12 26L13 26L13 28L11 28L11 29L16 29L16 30L17 30L17 31L16 31L16 32L17 32L17 31L18 31L18 29L20 29L20 30L21 30L21 34L19 34L19 33L18 33L18 34L17 34L17 35L16 35L16 36L14 36L14 35L15 35L15 34L14 34L14 35L13 35L13 33L12 33L12 32L11 32L11 31L10 31L10 30L9 30L9 33L8 33L8 32L7 32L7 31L4 31L4 29L3 29L3 30L2 30L2 31L1 31L1 32L2 32L2 31L3 31L3 33L4 33L4 34L3 34L3 35L6 35L6 36L8 36L8 37L6 37L6 38L5 38L5 36L3 36L3 37L4 37L4 38L5 38L5 40L7 40L7 41L5 41L5 42L4 42L4 43L3 43L3 44L4 44L4 43L5 43L5 42L8 42L8 39L9 39L9 40L11 40L11 41L10 41L10 42L9 42L9 43L6 43L6 44L7 44L7 45L6 45L6 46L7 46L7 47L8 47L8 44L11 44L11 45L9 45L9 47L10 47L10 48L11 48L11 49L13 49L13 47L14 47L14 46L15 46L15 47L16 47L16 46L15 46L15 45L14 45L14 46L13 46L13 43L14 43L14 42L15 42L15 41L16 41L16 42L19 42L19 44L21 44L21 46L20 46L20 47L19 47L19 49L20 49L20 50L22 50L22 51L23 51L23 49L25 49L25 48L23 48L23 49L22 49L22 48L21 48L21 49L20 49L20 47L21 47L21 46L22 46L22 47L23 47L23 46L22 46L22 43L25 43L25 42L26 42L26 41L27 41L27 40L28 40L28 39L30 39L30 40L29 40L29 41L28 41L28 42L27 42L27 43L28 43L28 44L25 44L25 46L24 46L24 47L25 47L25 46L26 46L26 45L30 45L30 46L28 46L28 47L30 47L30 48L31 48L31 50L32 50L32 51L31 51L31 52L32 52L32 53L30 53L30 56L33 56L33 55L36 55L36 56L37 56L37 55L36 55L36 54L37 54L37 53L36 53L36 54L35 54L35 53L34 53L34 51L35 51L35 52L36 52L36 51L35 51L35 50L36 50L36 49L34 49L34 50L32 50L32 47L33 47L33 46L32 46L32 47L30 47L30 46L31 46L31 45L30 45L30 44L32 44L32 45L33 45L33 44L32 44L32 43L30 43L30 42L29 42L29 41L32 41L32 42L35 42L35 43L34 43L34 45L35 45L35 44L37 44L37 46L38 46L38 45L39 45L39 44L37 44L37 43L36 43L36 42L35 42L35 40L37 40L37 42L38 42L38 43L39 43L39 41L43 41L43 38L44 38L44 39L46 39L46 40L47 40L47 41L45 41L45 40L44 40L44 42L45 42L45 43L46 43L46 44L44 44L44 43L43 43L43 44L44 44L44 45L43 45L43 48L42 48L42 49L43 49L43 50L42 50L42 51L44 51L44 45L46 45L46 44L47 44L47 45L48 45L48 44L49 44L49 45L50 45L50 47L49 47L49 46L48 46L48 47L47 47L47 46L45 46L45 47L46 47L46 48L51 48L51 47L52 47L52 48L53 48L53 47L52 47L52 46L51 46L51 45L50 45L50 44L52 44L52 43L50 43L50 42L51 42L51 41L50 41L50 42L48 42L48 41L49 41L49 38L48 38L48 37L49 37L49 36L51 36L51 37L52 37L52 38L53 38L53 39L54 39L54 38L53 38L53 37L55 37L55 38L56 38L56 35L55 35L55 36L54 36L54 34L55 34L55 32L54 32L54 33L53 33L53 35L51 35L51 33L52 33L52 32L51 32L51 31L47 31L47 32L46 32L46 30L48 30L48 29L47 29L47 28L48 28L48 27L47 27L47 25L48 25L48 24L49 24L49 23L50 23L50 26L51 26L51 25L52 25L52 26L53 26L53 27L54 27L54 25L52 25L52 24L51 24L51 23L50 23L50 22L49 22L49 23L47 23L47 22L48 22L48 21L49 21L49 20L50 20L50 21L51 21L51 17L50 17L50 18L49 18L49 19L48 19L48 18L47 18L47 17L49 17L49 15L48 15L48 16L47 16L47 12L48 12L48 13L49 13L49 12L51 12L51 10L50 10L50 11L49 11L49 10L48 10L48 11L47 11L47 10L43 10L43 11L46 11L46 15L44 15L44 13L43 13L43 12L42 12L42 13L43 13L43 16L44 16L44 17L45 17L45 16L47 16L47 17L46 17L46 18L47 18L47 20L46 20L46 21L47 21L47 22L45 22L45 24L46 24L46 23L47 23L47 25L46 25L46 28L44 28L44 29L43 29L43 27L42 27L42 28L41 28L41 27L40 27L40 29L43 29L43 31L40 31L40 32L38 32L38 31L37 31L37 33L40 33L40 34L39 34L39 35L38 35L38 34L36 34L36 33L35 33L35 32L36 32L36 31L35 31L35 29L34 29L34 26L41 26L41 25L40 25L40 24L42 24L42 25L44 25L44 24L42 24L42 23L43 23L43 22L40 22L40 21L41 21L41 20L42 20L42 21L45 21L45 20L44 20L44 19L43 19L43 18L42 18L42 16L41 16L41 15L42 15L42 14L39 14L39 13L40 13L40 12L39 12L39 11L41 11L41 10L37 10L37 11L38 11L38 12L39 12L39 13L38 13L38 18L39 18L39 17L40 17L40 18L41 18L41 20L39 20L39 19L37 19L37 18L36 18L36 17L34 17L34 16L37 16L37 15L34 15L34 14L35 14L35 13L36 13L36 14L37 14L37 13L36 13L36 10L35 10L35 11L34 11L34 12L33 12L33 10L34 10L34 9L36 9L36 8L38 8L38 6L37 6L37 7L36 7L36 6L35 6L35 7L36 7L36 8L33 8L33 7L34 7L34 6L33 6L33 4L31 4L31 5L32 5L32 6L31 6L31 7L32 7L32 8L31 8L31 9L33 9L33 10L30 10L30 9L29 9L29 10L26 10L26 9L25 9L25 8L26 8L26 4L25 4L25 8L24 8L24 6L23 6L23 5L24 5L24 4ZM34 4L34 5L36 5L36 4ZM27 5L27 8L30 8L30 5ZM22 6L22 7L23 7L23 6ZM28 6L28 7L29 7L29 6ZM32 6L32 7L33 7L33 6ZM42 6L42 7L43 7L43 6ZM19 8L19 9L20 9L20 8ZM23 8L23 9L22 9L22 12L24 12L24 11L25 11L25 13L24 13L24 16L23 16L23 17L22 17L22 18L23 18L23 17L24 17L24 18L26 18L26 19L27 19L27 18L26 18L26 17L27 17L27 15L26 15L26 16L25 16L25 14L26 14L26 13L27 13L27 12L26 12L26 10L25 10L25 9L24 9L24 8ZM17 9L17 10L16 10L16 12L17 12L17 11L18 11L18 9ZM23 9L23 10L24 10L24 9ZM9 11L9 12L10 12L10 11ZM28 11L28 18L29 18L29 20L31 20L31 21L30 21L30 22L29 22L29 23L30 23L30 22L31 22L31 23L33 23L33 25L32 25L32 26L31 26L31 25L29 25L29 24L28 24L28 22L26 22L26 21L27 21L27 20L25 20L25 19L23 19L23 20L24 20L24 21L23 21L23 22L21 22L21 21L20 21L20 20L18 20L18 21L17 21L17 22L16 22L16 19L15 19L15 21L13 21L13 20L12 20L12 22L14 22L14 24L13 24L13 23L11 23L11 24L12 24L12 25L14 25L14 26L15 26L15 24L18 24L18 25L17 25L17 26L16 26L16 27L15 27L15 28L17 28L17 29L18 29L18 28L17 28L17 27L18 27L18 26L19 26L19 28L20 28L20 26L19 26L19 25L20 25L20 24L19 24L19 23L20 23L20 22L21 22L21 24L22 24L22 26L21 26L21 30L22 30L22 28L23 28L23 30L26 30L26 31L25 31L25 32L24 32L24 31L22 31L22 32L24 32L24 33L23 33L23 34L22 34L22 35L21 35L21 36L19 36L19 35L17 35L17 36L16 36L16 37L17 37L17 36L18 36L18 37L19 37L19 38L18 38L18 39L16 39L16 41L21 41L21 42L22 42L22 41L21 41L21 40L20 40L20 39L24 39L24 40L25 40L25 39L26 39L26 40L27 40L27 39L26 39L26 38L25 38L25 37L27 37L27 36L26 36L26 35L27 35L27 34L30 34L30 35L29 35L29 36L28 36L28 37L29 37L29 38L30 38L30 39L31 39L31 40L33 40L33 39L31 39L31 38L34 38L34 37L35 37L35 36L34 36L34 35L35 35L35 33L34 33L34 34L33 34L33 33L32 33L32 31L31 31L31 28L32 28L32 27L33 27L33 25L35 25L35 24L36 24L36 25L39 25L39 24L40 24L40 22L39 22L39 20L38 20L38 21L37 21L37 20L35 20L35 19L34 19L34 20L35 20L35 21L32 21L32 20L33 20L33 17L32 17L32 16L31 16L31 15L32 15L32 14L33 14L33 12L32 12L32 11L31 11L31 12L32 12L32 13L31 13L31 14L30 14L30 11ZM48 11L48 12L49 12L49 11ZM6 12L6 13L8 13L8 12ZM9 13L9 14L10 14L10 13ZM29 14L29 16L30 16L30 14ZM33 15L33 16L34 16L34 15ZM39 15L39 16L40 16L40 15ZM24 16L24 17L25 17L25 16ZM29 17L29 18L30 18L30 19L32 19L32 18L30 18L30 17ZM17 18L17 19L18 19L18 18ZM42 19L42 20L43 20L43 19ZM47 20L47 21L48 21L48 20ZM18 21L18 22L20 22L20 21ZM24 21L24 22L23 22L23 23L22 23L22 24L23 24L23 23L24 23L24 24L25 24L25 23L26 23L26 22L25 22L25 21ZM31 21L31 22L32 22L32 21ZM35 21L35 22L33 22L33 23L36 23L36 22L37 22L37 21ZM38 22L38 23L37 23L37 24L38 24L38 23L39 23L39 22ZM6 23L6 24L7 24L7 23ZM27 24L27 25L26 25L26 26L29 26L29 25L28 25L28 24ZM0 25L0 26L1 26L1 25ZM3 25L3 26L4 26L4 25ZM9 26L9 28L10 28L10 26ZM22 26L22 27L24 27L24 29L26 29L26 28L25 28L25 27L24 27L24 26ZM44 26L44 27L45 27L45 26ZM3 27L3 28L4 28L4 27ZM5 27L5 30L8 30L8 27ZM27 27L27 30L30 30L30 27ZM49 27L49 30L52 30L52 27ZM6 28L6 29L7 29L7 28ZM28 28L28 29L29 29L29 28ZM50 28L50 29L51 29L51 28ZM33 29L33 32L35 32L35 31L34 31L34 29ZM36 29L36 30L37 30L37 29ZM38 29L38 30L39 30L39 29ZM44 29L44 30L46 30L46 29ZM14 30L14 31L13 31L13 32L14 32L14 31L15 31L15 30ZM56 30L56 31L57 31L57 30ZM19 31L19 32L20 32L20 31ZM26 31L26 32L25 32L25 34L26 34L26 33L27 33L27 31ZM28 31L28 33L30 33L30 32L29 32L29 31ZM43 31L43 32L41 32L41 33L42 33L42 34L41 34L41 35L39 35L39 37L41 37L41 38L38 38L38 37L37 37L37 35L36 35L36 37L37 37L37 39L38 39L38 40L40 40L40 39L42 39L42 38L43 38L43 36L42 36L42 34L44 34L44 37L45 37L45 35L46 35L46 37L48 37L48 35L47 35L47 34L49 34L49 35L50 35L50 33L51 33L51 32L50 32L50 33L45 33L45 34L44 34L44 32L45 32L45 31ZM5 32L5 34L6 34L6 35L7 35L7 34L6 34L6 33L7 33L7 32ZM10 32L10 33L9 33L9 34L11 34L11 35L9 35L9 39L10 39L10 38L11 38L11 37L12 37L12 36L13 36L13 35L12 35L12 33L11 33L11 32ZM31 33L31 34L32 34L32 33ZM11 35L11 36L10 36L10 37L11 37L11 36L12 36L12 35ZM22 35L22 36L21 36L21 37L22 37L22 38L24 38L24 35ZM31 35L31 36L30 36L30 38L31 38L31 37L32 37L32 36L33 36L33 37L34 37L34 36L33 36L33 35ZM22 36L22 37L23 37L23 36ZM52 36L52 37L53 37L53 36ZM13 37L13 38L14 38L14 39L13 39L13 40L12 40L12 39L11 39L11 40L12 40L12 41L11 41L11 42L10 42L10 43L11 43L11 44L12 44L12 43L13 43L13 42L12 42L12 41L13 41L13 40L15 40L15 38L14 38L14 37ZM2 38L2 39L3 39L3 40L2 40L2 41L1 41L1 42L2 42L2 41L3 41L3 40L4 40L4 39L3 39L3 38ZM6 38L6 39L8 39L8 38ZM19 38L19 39L18 39L18 40L19 40L19 39L20 39L20 38ZM35 38L35 39L34 39L34 40L35 40L35 39L36 39L36 38ZM46 38L46 39L47 39L47 38ZM50 38L50 40L51 40L51 38ZM23 41L23 42L25 42L25 41ZM11 42L11 43L12 43L12 42ZM41 42L41 43L42 43L42 42ZM53 42L53 43L54 43L54 42ZM56 42L56 43L57 43L57 42ZM15 43L15 44L16 44L16 43ZM47 43L47 44L48 44L48 43ZM49 43L49 44L50 44L50 43ZM17 44L17 45L18 45L18 44ZM23 44L23 45L24 45L24 44ZM40 44L40 47L41 47L41 45L42 45L42 44ZM53 44L53 45L54 45L54 44ZM3 45L3 47L5 47L5 46L4 46L4 45ZM12 46L12 47L11 47L11 48L12 48L12 47L13 47L13 46ZM17 46L17 47L18 47L18 46ZM35 46L35 47L36 47L36 46ZM9 49L9 51L11 51L11 50L10 50L10 49ZM27 49L27 52L30 52L30 49ZM49 49L49 52L52 52L52 49ZM12 50L12 51L13 51L13 50ZM14 50L14 51L15 51L15 50ZM25 50L25 53L26 53L26 50ZM28 50L28 51L29 51L29 50ZM45 50L45 51L46 51L46 50ZM50 50L50 51L51 51L51 50ZM13 52L13 53L14 53L14 54L15 54L15 53L14 53L14 52ZM56 52L56 53L57 53L57 52ZM32 53L32 55L33 55L33 53ZM51 54L51 55L50 55L50 56L51 56L51 55L52 55L52 56L53 56L53 55L52 55L52 54ZM9 55L9 56L10 56L10 55ZM20 56L20 57L21 57L21 56ZM45 56L45 57L46 57L46 56ZM0 0L0 7L7 7L7 0ZM1 1L1 6L6 6L6 1ZM2 2L2 5L5 5L5 2ZM50 0L50 7L57 7L57 0ZM51 1L51 6L56 6L56 1ZM52 2L52 5L55 5L55 2ZM0 50L0 57L7 57L7 50ZM1 51L1 56L6 56L6 51ZM2 52L2 55L5 55L5 52Z" fill="#000000"/></g></g></svg>
