<?xml version="1.0" encoding="UTF-8"?>
<svg xmlns="http://www.w3.org/2000/svg" version="1.1" width="300" height="300" viewBox="0 0 300 300"><rect x="0" y="0" width="300" height="300" fill="#ffffff"/><g transform="scale(5.263)"><g transform="translate(0,0)"><path fill-rule="evenodd" d="M9 0L9 1L8 1L8 2L9 2L9 3L8 3L8 4L10 4L10 2L11 2L11 1L12 1L12 0ZM17 0L17 1L18 1L18 3L17 3L17 4L18 4L18 5L20 5L20 7L19 7L19 6L18 6L18 8L16 8L16 7L17 7L17 6L16 6L16 7L15 7L15 5L16 5L16 4L13 4L13 3L14 3L14 2L15 2L15 3L16 3L16 2L15 2L15 1L14 1L14 2L13 2L13 3L12 3L12 5L14 5L14 7L13 7L13 6L12 6L12 8L10 8L10 7L11 7L11 6L10 6L10 5L8 5L8 7L9 7L9 8L6 8L6 9L5 9L5 8L0 8L0 10L1 10L1 11L0 11L0 14L1 14L1 15L0 15L0 18L1 18L1 22L0 22L0 23L1 23L1 22L3 22L3 21L2 21L2 18L4 18L4 19L3 19L3 20L5 20L5 19L8 19L8 22L5 22L5 21L4 21L4 24L3 24L3 23L2 23L2 24L3 24L3 26L2 26L2 25L1 25L1 27L0 27L0 28L1 28L1 29L0 29L0 30L1 30L1 29L3 29L3 30L2 30L2 31L3 31L3 30L4 30L4 31L7 31L7 32L5 32L5 33L4 33L4 34L5 34L5 35L4 35L4 36L6 36L6 37L9 37L9 36L11 36L11 38L12 38L12 36L14 36L14 35L15 35L15 36L16 36L16 35L17 35L17 38L18 38L18 39L17 39L17 40L16 40L16 39L15 39L15 41L17 41L17 42L18 42L18 43L17 43L17 44L16 44L16 45L17 45L17 46L20 46L20 47L19 47L19 48L18 48L18 47L16 47L16 46L15 46L15 47L14 47L14 44L13 44L13 45L12 45L12 44L11 44L11 43L13 43L13 42L11 42L11 41L13 41L13 40L14 40L14 39L10 39L10 38L9 38L9 39L8 39L8 38L5 38L5 37L3 37L3 34L2 34L2 33L3 33L3 32L2 32L2 33L1 33L1 34L2 34L2 36L1 36L1 35L0 35L0 38L1 38L1 39L0 39L0 41L1 41L1 42L0 42L0 44L1 44L1 45L2 45L2 47L1 47L1 46L0 46L0 48L5 48L5 47L8 47L8 48L6 48L6 49L8 49L8 51L10 51L10 52L8 52L8 57L9 57L9 56L13 56L13 57L15 57L15 55L16 55L16 57L17 57L17 53L20 53L20 51L21 51L21 50L20 50L20 49L19 49L19 48L20 48L20 47L21 47L21 46L22 46L22 47L23 47L23 49L22 49L22 51L24 51L24 53L22 53L22 52L21 52L21 53L22 53L22 54L21 54L21 55L22 55L22 56L24 56L24 57L26 57L26 56L28 56L28 57L29 57L29 56L30 56L30 57L38 57L38 56L35 56L35 55L39 55L39 56L41 56L41 57L42 57L42 56L45 56L45 55L46 55L46 56L47 56L47 57L48 57L48 56L47 56L47 55L49 55L49 56L50 56L50 57L51 57L51 56L50 56L50 55L49 55L49 53L50 53L50 54L51 54L51 53L52 53L52 54L53 54L53 53L54 53L54 54L55 54L55 53L54 53L54 52L57 52L57 51L56 51L56 50L57 50L57 49L56 49L56 48L57 48L57 47L56 47L56 46L57 46L57 43L56 43L56 42L55 42L55 41L54 41L54 40L55 40L55 39L57 39L57 37L56 37L56 36L57 36L57 35L56 35L56 34L55 34L55 31L56 31L56 30L57 30L57 29L56 29L56 28L57 28L57 27L56 27L56 26L57 26L57 23L54 23L54 20L55 20L55 19L56 19L56 21L55 21L55 22L57 22L57 19L56 19L56 18L57 18L57 17L56 17L56 14L55 14L55 13L56 13L56 10L55 10L55 9L56 9L56 8L55 8L55 9L54 9L54 8L53 8L53 9L54 9L54 10L55 10L55 11L53 11L53 10L50 10L50 8L49 8L49 9L48 9L48 7L49 7L49 6L48 6L48 7L47 7L47 5L48 5L48 0L41 0L41 1L39 1L39 2L40 2L40 3L41 3L41 4L39 4L39 5L38 5L38 4L37 4L37 3L36 3L36 2L37 2L37 1L38 1L38 0L37 0L37 1L34 1L34 2L33 2L33 3L34 3L34 2L35 2L35 4L36 4L36 5L35 5L35 6L34 6L34 5L32 5L32 2L30 2L30 1L32 1L32 0L29 0L29 2L30 2L30 3L29 3L29 4L26 4L26 3L23 3L23 1L24 1L24 2L27 2L27 3L28 3L28 1L26 1L26 0L21 0L21 2L20 2L20 1L18 1L18 0ZM41 1L41 3L44 3L44 4L45 4L45 5L44 5L44 6L43 6L43 7L44 7L44 9L43 9L43 10L42 10L42 11L41 11L41 9L42 9L42 8L39 8L39 9L38 9L38 5L37 5L37 7L36 7L36 6L35 6L35 7L36 7L36 8L34 8L34 6L33 6L33 7L32 7L32 6L31 6L31 7L32 7L32 8L31 8L31 9L32 9L32 10L31 10L31 11L30 11L30 12L29 12L29 11L28 11L28 12L27 12L27 11L26 11L26 9L25 9L25 8L26 8L26 4L25 4L25 8L24 8L24 6L23 6L23 5L24 5L24 4L23 4L23 3L22 3L22 2L21 2L21 3L20 3L20 2L19 2L19 4L21 4L21 8L20 8L20 10L19 10L19 11L22 11L22 10L23 10L23 9L25 9L25 10L24 10L24 11L23 11L23 13L22 13L22 12L21 12L21 13L20 13L20 14L19 14L19 15L18 15L18 16L21 16L21 17L20 17L20 18L21 18L21 17L22 17L22 18L23 18L23 20L21 20L21 19L19 19L19 17L15 17L15 16L14 16L14 15L16 15L16 16L17 16L17 15L16 15L16 14L17 14L17 13L18 13L18 12L17 12L17 11L18 11L18 9L15 9L15 7L14 7L14 8L12 8L12 10L13 10L13 9L15 9L15 13L13 13L13 14L11 14L11 13L12 13L12 12L14 12L14 11L10 11L10 8L9 8L9 9L8 9L8 11L10 11L10 14L9 14L9 16L8 16L8 13L9 13L9 12L8 12L8 13L6 13L6 14L7 14L7 15L6 15L6 16L8 16L8 17L5 17L5 16L3 16L3 14L2 14L2 17L1 17L1 18L2 18L2 17L5 17L5 18L8 18L8 19L9 19L9 24L7 24L7 23L6 23L6 24L7 24L7 25L5 25L5 24L4 24L4 26L8 26L8 25L9 25L9 26L10 26L10 27L12 27L12 28L11 28L11 29L10 29L10 30L14 30L14 32L13 32L13 31L11 31L11 32L7 32L7 33L5 33L5 34L7 34L7 35L6 35L6 36L7 36L7 35L8 35L8 36L9 36L9 34L10 34L10 35L11 35L11 34L12 34L12 35L14 35L14 34L15 34L15 35L16 35L16 34L18 34L18 33L17 33L17 32L16 32L16 33L14 33L14 32L15 32L15 31L17 31L17 30L18 30L18 32L19 32L19 30L18 30L18 29L19 29L19 26L20 26L20 27L21 27L21 28L20 28L20 30L22 30L22 31L20 31L20 34L19 34L19 35L21 35L21 36L19 36L19 37L23 37L23 38L24 38L24 37L23 37L23 36L25 36L25 38L27 38L27 39L28 39L28 40L26 40L26 39L25 39L25 40L24 40L24 39L23 39L23 40L22 40L22 39L21 39L21 41L19 41L19 42L20 42L20 44L21 44L21 45L20 45L20 46L21 46L21 45L22 45L22 46L23 46L23 47L24 47L24 49L26 49L26 48L27 48L27 47L28 47L28 46L29 46L29 45L27 45L27 47L26 47L26 48L25 48L25 47L24 47L24 46L23 46L23 45L25 45L25 46L26 46L26 45L25 45L25 44L26 44L26 43L29 43L29 44L30 44L30 43L29 43L29 42L30 42L30 41L32 41L32 42L31 42L31 43L33 43L33 44L32 44L32 45L30 45L30 46L31 46L31 47L29 47L29 48L32 48L32 50L31 50L31 53L30 53L30 54L28 54L28 55L30 55L30 56L34 56L34 55L31 55L31 54L32 54L32 53L33 53L33 54L36 54L36 52L37 52L37 53L38 53L38 54L39 54L39 53L40 53L40 54L41 54L41 53L44 53L44 54L43 54L43 55L44 55L44 54L46 54L46 55L47 55L47 54L48 54L48 53L47 53L47 52L48 52L48 50L47 50L47 49L48 49L48 48L49 48L49 47L48 47L48 48L47 48L47 47L46 47L46 46L48 46L48 44L51 44L51 43L55 43L55 44L56 44L56 43L55 43L55 42L54 42L54 41L52 41L52 42L50 42L50 43L47 43L47 41L48 41L48 40L50 40L50 41L51 41L51 40L50 40L50 39L51 39L51 38L53 38L53 39L52 39L52 40L54 40L54 38L53 38L53 37L55 37L55 38L56 38L56 37L55 37L55 36L56 36L56 35L55 35L55 36L51 36L51 34L53 34L53 33L54 33L54 32L53 32L53 33L52 33L52 32L51 32L51 33L50 33L50 31L49 31L49 33L48 33L48 32L47 32L47 33L46 33L46 32L44 32L44 33L43 33L43 31L42 31L42 33L41 33L41 32L40 32L40 31L41 31L41 28L42 28L42 29L43 29L43 28L44 28L44 29L45 29L45 30L44 30L44 31L45 31L45 30L46 30L46 31L47 31L47 29L46 29L46 27L48 27L48 25L50 25L50 26L53 26L53 27L54 27L54 25L53 25L53 23L52 23L52 21L53 21L53 20L52 20L52 19L53 19L53 18L54 18L54 19L55 19L55 16L52 16L52 15L51 15L51 14L53 14L53 15L55 15L55 14L54 14L54 12L53 12L53 11L50 11L50 14L49 14L49 15L50 15L50 19L49 19L49 18L48 18L48 19L47 19L47 20L46 20L46 19L45 19L45 20L44 20L44 22L42 22L42 21L43 21L43 19L44 19L44 18L45 18L45 17L46 17L46 18L47 18L47 17L48 17L48 16L47 16L47 15L48 15L48 14L47 14L47 13L48 13L48 12L49 12L49 10L48 10L48 9L47 9L47 7L46 7L46 6L45 6L45 5L47 5L47 3L46 3L46 4L45 4L45 2L47 2L47 1L45 1L45 2L42 2L42 1ZM27 5L27 8L30 8L30 5ZM40 5L40 6L39 6L39 7L40 7L40 6L41 6L41 7L42 7L42 6L41 6L41 5ZM9 6L9 7L10 7L10 6ZM22 6L22 7L23 7L23 6ZM28 6L28 7L29 7L29 6ZM44 6L44 7L45 7L45 8L46 8L46 7L45 7L45 6ZM36 8L36 9L35 9L35 10L34 10L34 9L33 9L33 11L31 11L31 14L30 14L30 13L28 13L28 14L30 14L30 15L29 15L29 16L28 16L28 15L27 15L27 14L26 14L26 11L24 11L24 12L25 12L25 13L23 13L23 14L22 14L22 13L21 13L21 16L23 16L23 17L24 17L24 19L25 19L25 18L26 18L26 17L27 17L27 18L28 18L28 20L24 20L24 21L21 21L21 22L22 22L22 23L23 23L23 25L21 25L21 24L20 24L20 25L21 25L21 27L22 27L22 26L23 26L23 28L25 28L25 27L26 27L26 29L23 29L23 30L25 30L25 31L24 31L24 33L21 33L21 34L22 34L22 35L25 35L25 32L26 32L26 31L28 31L28 33L29 33L29 34L28 34L28 36L29 36L29 39L31 39L31 40L32 40L32 39L33 39L33 40L34 40L34 38L33 38L33 37L32 37L32 36L31 36L31 32L30 32L30 31L31 31L31 30L33 30L33 29L34 29L34 28L35 28L35 29L36 29L36 30L35 30L35 31L34 31L34 32L35 32L35 33L36 33L36 34L37 34L37 36L36 36L36 35L35 35L35 34L34 34L34 33L32 33L32 35L33 35L33 36L34 36L34 37L35 37L35 36L36 36L36 37L37 37L37 38L36 38L36 39L35 39L35 40L36 40L36 42L35 42L35 43L36 43L36 44L35 44L35 45L36 45L36 46L32 46L32 47L34 47L34 48L33 48L33 49L34 49L34 48L36 48L36 49L37 49L37 48L36 48L36 47L38 47L38 49L39 49L39 47L38 47L38 45L39 45L39 46L40 46L40 45L39 45L39 44L41 44L41 43L39 43L39 44L38 44L38 45L37 45L37 43L36 43L36 42L38 42L38 41L40 41L40 40L41 40L41 42L42 42L42 45L41 45L41 46L42 46L42 47L41 47L41 50L35 50L35 52L34 52L34 51L32 51L32 52L33 52L33 53L35 53L35 52L36 52L36 51L38 51L38 53L39 53L39 52L40 52L40 51L42 51L42 52L45 52L45 51L44 51L44 50L43 50L43 49L44 49L44 48L43 48L43 46L46 46L46 44L47 44L47 43L46 43L46 42L45 42L45 45L44 45L44 42L43 42L43 41L44 41L44 40L45 40L45 41L46 41L46 40L45 40L45 38L46 38L46 39L47 39L47 40L48 40L48 39L47 39L47 38L49 38L49 39L50 39L50 38L51 38L51 37L50 37L50 33L49 33L49 34L48 34L48 33L47 33L47 35L46 35L46 34L43 34L43 33L42 33L42 34L41 34L41 36L42 36L42 38L41 38L41 37L39 37L39 38L38 38L38 37L37 37L37 36L39 36L39 35L40 35L40 34L38 34L38 32L35 32L35 31L36 31L36 30L37 30L37 31L39 31L39 30L37 30L37 29L38 29L38 28L41 28L41 27L40 27L40 26L43 26L43 27L42 27L42 28L43 28L43 27L44 27L44 28L45 28L45 27L46 27L46 26L43 26L43 25L44 25L44 24L46 24L46 23L48 23L48 24L49 24L49 23L48 23L48 22L50 22L50 24L52 24L52 23L51 23L51 22L50 22L50 21L52 21L52 20L50 20L50 21L48 21L48 20L49 20L49 19L48 19L48 20L47 20L47 21L48 21L48 22L46 22L46 23L45 23L45 22L44 22L44 23L42 23L42 22L40 22L40 20L41 20L41 19L40 19L40 20L39 20L39 23L38 23L38 24L37 24L37 22L38 22L38 21L37 21L37 20L38 20L38 19L39 19L39 18L42 18L42 19L43 19L43 18L44 18L44 17L39 17L39 18L38 18L38 16L40 16L40 14L41 14L41 15L42 15L42 14L43 14L43 15L44 15L44 16L45 16L45 15L46 15L46 14L45 14L45 13L46 13L46 12L48 12L48 10L45 10L45 9L44 9L44 10L43 10L43 11L42 11L42 12L45 12L45 13L44 13L44 14L43 14L43 13L40 13L40 14L38 14L38 11L40 11L40 12L41 12L41 11L40 11L40 10L38 10L38 9L37 9L37 8ZM51 8L51 9L52 9L52 8ZM1 9L1 10L4 10L4 11L5 11L5 9ZM6 9L6 10L7 10L7 9ZM21 9L21 10L22 10L22 9ZM27 9L27 10L28 10L28 9ZM36 10L36 12L37 12L37 11L38 11L38 10ZM44 10L44 11L45 11L45 12L46 12L46 11L45 11L45 10ZM1 11L1 13L2 13L2 12L3 12L3 13L5 13L5 12L3 12L3 11ZM6 11L6 12L7 12L7 11ZM32 12L32 13L34 13L34 14L32 14L32 17L34 17L34 18L33 18L33 20L32 20L32 18L31 18L31 20L30 20L30 18L29 18L29 20L28 20L28 21L27 21L27 22L28 22L28 23L29 23L29 24L25 24L25 23L26 23L26 22L25 22L25 21L24 21L24 22L23 22L23 23L24 23L24 25L23 25L23 26L24 26L24 25L25 25L25 26L26 26L26 25L27 25L27 26L28 26L28 25L29 25L29 26L30 26L30 25L31 25L31 26L32 26L32 25L31 25L31 24L34 24L34 26L33 26L33 27L34 27L34 26L35 26L35 28L36 28L36 26L37 26L37 25L35 25L35 24L36 24L36 22L37 22L37 21L36 21L36 22L35 22L35 20L34 20L34 18L35 18L35 19L36 19L36 20L37 20L37 19L36 19L36 18L37 18L37 17L36 17L36 18L35 18L35 17L34 17L34 16L35 16L35 15L36 15L36 16L37 16L37 15L38 15L38 14L37 14L37 13L35 13L35 12ZM10 14L10 16L13 16L13 17L14 17L14 18L15 18L15 17L14 17L14 16L13 16L13 15L14 15L14 14L13 14L13 15L11 15L11 14ZM23 14L23 15L25 15L25 16L24 16L24 17L25 17L25 16L27 16L27 17L28 17L28 16L27 16L27 15L26 15L26 14ZM34 14L34 15L33 15L33 16L34 16L34 15L35 15L35 14ZM36 14L36 15L37 15L37 14ZM44 14L44 15L45 15L45 14ZM9 17L9 19L10 19L10 20L11 20L11 21L10 21L10 23L11 23L11 24L9 24L9 25L10 25L10 26L11 26L11 24L12 24L12 23L11 23L11 21L12 21L12 19L13 19L13 20L14 20L14 19L13 19L13 18L12 18L12 19L11 19L11 17ZM51 17L51 18L53 18L53 17ZM16 18L16 19L15 19L15 21L16 21L16 22L14 22L14 21L13 21L13 25L12 25L12 26L14 26L14 27L13 27L13 29L14 29L14 30L15 30L15 29L18 29L18 28L17 28L17 27L18 27L18 26L19 26L19 24L18 24L18 23L20 23L20 22L18 22L18 21L20 21L20 20L19 20L19 19L17 19L17 18ZM16 19L16 21L17 21L17 19ZM6 20L6 21L7 21L7 20ZM29 20L29 22L31 22L31 23L30 23L30 24L31 24L31 23L34 23L34 24L35 24L35 23L34 23L34 22L32 22L32 20L31 20L31 21L30 21L30 20ZM45 20L45 21L46 21L46 20ZM15 23L15 24L14 24L14 25L15 25L15 27L16 27L16 26L18 26L18 25L17 25L17 24L16 24L16 23ZM39 23L39 24L38 24L38 26L39 26L39 24L40 24L40 25L41 25L41 24L40 24L40 23ZM1 27L1 28L2 28L2 27ZM5 27L5 30L8 30L8 27ZM27 27L27 30L30 30L30 27ZM37 27L37 28L38 28L38 27ZM49 27L49 30L52 30L52 27ZM55 27L55 28L53 28L53 30L54 30L54 31L55 31L55 30L56 30L56 29L55 29L55 28L56 28L56 27ZM6 28L6 29L7 29L7 28ZM14 28L14 29L15 29L15 28ZM21 28L21 29L22 29L22 28ZM28 28L28 29L29 29L29 28ZM32 28L32 29L33 29L33 28ZM50 28L50 29L51 29L51 28ZM54 29L54 30L55 30L55 29ZM0 31L0 32L1 32L1 31ZM22 31L22 32L23 32L23 31ZM32 31L32 32L33 32L33 31ZM11 32L11 33L12 33L12 34L14 34L14 33L13 33L13 32ZM29 32L29 33L30 33L30 32ZM39 32L39 33L40 33L40 32ZM56 32L56 33L57 33L57 32ZM7 33L7 34L9 34L9 33ZM26 33L26 37L27 37L27 38L28 38L28 37L27 37L27 33ZM29 34L29 35L30 35L30 34ZM42 34L42 35L43 35L43 34ZM34 35L34 36L35 36L35 35ZM48 35L48 36L46 36L46 38L47 38L47 37L48 37L48 36L49 36L49 35ZM30 36L30 38L31 38L31 36ZM43 36L43 38L42 38L42 41L43 41L43 40L44 40L44 38L45 38L45 36ZM2 37L2 38L3 38L3 37ZM13 37L13 38L16 38L16 37ZM4 38L4 39L5 39L5 42L1 42L1 43L3 43L3 44L2 44L2 45L3 45L3 44L4 44L4 46L3 46L3 47L5 47L5 46L7 46L7 45L6 45L6 44L8 44L8 43L9 43L9 42L10 42L10 41L9 41L9 40L10 40L10 39L9 39L9 40L8 40L8 39L5 39L5 38ZM19 38L19 39L20 39L20 38ZM1 39L1 41L2 41L2 39ZM36 39L36 40L40 40L40 39ZM6 40L6 41L7 41L7 40ZM23 40L23 41L24 41L24 42L22 42L22 43L21 43L21 44L22 44L22 45L23 45L23 43L24 43L24 42L25 42L25 41L24 41L24 40ZM28 40L28 41L29 41L29 40ZM8 41L8 42L6 42L6 43L5 43L5 44L6 44L6 43L8 43L8 42L9 42L9 41ZM26 41L26 42L27 42L27 41ZM33 41L33 43L34 43L34 41ZM9 44L9 45L8 45L8 47L9 47L9 46L10 46L10 49L11 49L11 50L10 50L10 51L11 51L11 52L12 52L12 53L10 53L10 54L11 54L11 55L12 55L12 53L13 53L13 55L15 55L15 54L16 54L16 53L17 53L17 51L18 51L18 52L19 52L19 51L18 51L18 49L16 49L16 47L15 47L15 48L14 48L14 49L16 49L16 50L13 50L13 51L11 51L11 50L12 50L12 48L13 48L13 46L12 46L12 45L11 45L11 44ZM17 44L17 45L18 45L18 44ZM10 45L10 46L11 46L11 48L12 48L12 46L11 46L11 45ZM51 45L51 46L50 46L50 48L51 48L51 46L53 46L53 47L55 47L55 46L54 46L54 45ZM42 48L42 49L43 49L43 48ZM46 48L46 49L47 49L47 48ZM53 48L53 49L54 49L54 48ZM27 49L27 52L30 52L30 49ZM49 49L49 52L52 52L52 49ZM55 49L55 50L53 50L53 52L54 52L54 51L55 51L55 50L56 50L56 49ZM16 50L16 51L17 51L17 50ZM24 50L24 51L25 51L25 52L26 52L26 50ZM28 50L28 51L29 51L29 50ZM42 50L42 51L43 51L43 50ZM46 50L46 51L47 51L47 50ZM50 50L50 51L51 51L51 50ZM13 51L13 52L15 52L15 53L16 53L16 52L15 52L15 51ZM24 53L24 54L22 54L22 55L24 55L24 56L25 56L25 54L26 54L26 55L27 55L27 53ZM19 54L19 55L18 55L18 57L20 57L20 56L19 56L19 55L20 55L20 54ZM41 55L41 56L42 56L42 55ZM52 55L52 56L54 56L54 57L56 57L56 56L55 56L55 55ZM0 0L0 7L7 7L7 0ZM1 1L1 6L6 6L6 1ZM2 2L2 5L5 5L5 2ZM50 0L50 7L57 7L57 0ZM51 1L51 6L56 6L56 1ZM52 2L52 5L55 5L55 2ZM0 50L0 57L7 57L7 50ZM1 51L1 56L6 56L6 51ZM2 52L2 55L5 55L5 52Z" fill="#000000"/></g></g></svg>
