<?xml version="1.0" encoding="UTF-8"?>
<svg xmlns="http://www.w3.org/2000/svg" version="1.1" width="300" height="300" viewBox="0 0 300 300"><rect x="0" y="0" width="300" height="300" fill="#ffffff"/><g transform="scale(5.263)"><g transform="translate(0,0)"><path fill-rule="evenodd" d="M8 0L8 1L11 1L11 0ZM14 0L14 1L13 1L13 2L15 2L15 3L17 3L17 4L19 4L19 5L14 5L14 3L12 3L12 2L8 2L8 5L9 5L9 6L8 6L8 7L9 7L9 6L10 6L10 7L11 7L11 9L12 9L12 10L10 10L10 12L9 12L9 13L10 13L10 15L9 15L9 14L6 14L6 13L7 13L7 12L8 12L8 11L7 11L7 10L5 10L5 9L4 9L4 8L0 8L0 9L1 9L1 10L2 10L2 11L4 11L4 12L2 12L2 13L0 13L0 15L1 15L1 16L0 16L0 17L1 17L1 18L0 18L0 22L2 22L2 23L1 23L1 24L0 24L0 28L1 28L1 25L2 25L2 26L3 26L3 25L7 25L7 24L8 24L8 25L10 25L10 27L9 27L9 26L4 26L4 28L2 28L2 29L0 29L0 31L1 31L1 33L0 33L0 36L1 36L1 38L3 38L3 39L2 39L2 41L1 41L1 42L4 42L4 44L3 44L3 43L0 43L0 44L3 44L3 45L4 45L4 44L5 44L5 45L7 45L7 46L5 46L5 47L3 47L3 46L2 46L2 47L1 47L1 45L0 45L0 48L5 48L5 47L7 47L7 48L6 48L6 49L7 49L7 48L8 48L8 50L9 50L9 51L10 51L10 52L9 52L9 53L8 53L8 57L15 57L15 56L16 56L16 57L18 57L18 56L19 56L19 57L26 57L26 56L27 56L27 57L29 57L29 55L26 55L26 54L31 54L31 53L32 53L32 54L34 54L34 55L32 55L32 57L33 57L33 56L35 56L35 57L36 57L36 56L35 56L35 55L37 55L37 56L38 56L38 55L37 55L37 53L35 53L35 52L34 52L34 51L36 51L36 50L40 50L40 51L39 51L39 52L38 52L38 51L37 51L37 52L38 52L38 53L39 53L39 52L41 52L41 51L42 51L42 53L40 53L40 54L39 54L39 57L41 57L41 55L42 55L42 56L43 56L43 55L44 55L44 54L43 54L43 55L42 55L42 53L46 53L46 56L45 56L45 57L46 57L46 56L47 56L47 57L52 57L52 56L53 56L53 57L55 57L55 56L53 56L53 55L49 55L49 54L50 54L50 53L51 53L51 54L53 54L53 52L55 52L55 51L56 51L56 49L57 49L57 46L55 46L55 45L56 45L56 44L57 44L57 43L56 43L56 41L57 41L57 40L56 40L56 41L55 41L55 42L54 42L54 41L53 41L53 40L55 40L55 38L54 38L54 37L55 37L55 36L54 36L54 34L56 34L56 35L57 35L57 31L56 31L56 30L57 30L57 29L56 29L56 28L57 28L57 27L56 27L56 26L55 26L55 27L53 27L53 26L54 26L54 25L53 25L53 26L51 26L51 25L50 25L50 21L49 21L49 19L48 19L48 17L45 17L45 15L46 15L46 16L50 16L50 15L46 15L46 13L49 13L49 14L51 14L51 19L50 19L50 20L51 20L51 22L52 22L52 21L53 21L53 23L52 23L52 24L54 24L54 23L55 23L55 22L56 22L56 24L55 24L55 25L57 25L57 21L53 21L53 19L52 19L52 14L53 14L53 13L52 13L52 11L53 11L53 12L54 12L54 13L55 13L55 14L54 14L54 15L53 15L53 16L55 16L55 15L56 15L56 18L55 18L55 19L56 19L56 18L57 18L57 15L56 15L56 13L57 13L57 10L56 10L56 9L57 9L57 8L56 8L56 9L55 9L55 8L52 8L52 9L54 9L54 10L52 10L52 11L51 11L51 10L50 10L50 8L49 8L49 6L48 6L48 9L47 9L47 8L45 8L45 6L44 6L44 8L45 8L45 9L47 9L47 10L44 10L44 9L43 9L43 5L44 5L44 3L45 3L45 5L46 5L46 7L47 7L47 5L48 5L48 0L45 0L45 1L44 1L44 0L42 0L42 2L41 2L41 5L40 5L40 4L38 4L38 2L39 2L39 3L40 3L40 2L39 2L39 1L40 1L40 0L39 0L39 1L38 1L38 0L37 0L37 2L36 2L36 0L35 0L35 1L34 1L34 2L33 2L33 5L34 5L34 7L33 7L33 6L32 6L32 7L31 7L31 4L32 4L32 1L33 1L33 0L32 0L32 1L31 1L31 0L28 0L28 1L26 1L26 0L21 0L21 1L20 1L20 0L19 0L19 1L18 1L18 0L17 0L17 2L15 2L15 0ZM22 1L22 2L20 2L20 3L19 3L19 2L17 2L17 3L19 3L19 4L20 4L20 5L21 5L21 7L20 7L20 6L19 6L19 7L20 7L20 8L23 8L23 7L24 7L24 8L25 8L25 10L26 10L26 11L24 11L24 9L23 9L23 11L21 11L21 14L22 14L22 15L23 15L23 14L25 14L25 13L29 13L29 15L28 15L28 16L30 16L30 18L31 18L31 16L32 16L32 15L31 15L31 14L33 14L33 15L34 15L34 16L35 16L35 17L36 17L36 18L35 18L35 20L34 20L34 21L33 21L33 20L30 20L30 21L31 21L31 22L30 22L30 25L29 25L29 23L28 23L28 24L26 24L26 23L27 23L27 22L28 22L28 21L27 21L27 20L23 20L23 21L24 21L24 22L25 22L25 25L23 25L23 24L22 24L22 23L20 23L20 24L19 24L19 22L22 22L22 20L21 20L21 19L22 19L22 18L23 18L23 19L24 19L24 18L25 18L25 19L28 19L28 18L29 18L29 17L27 17L27 15L26 15L26 16L25 16L25 15L24 15L24 16L25 16L25 17L24 17L24 18L23 18L23 16L22 16L22 17L20 17L20 16L21 16L21 15L19 15L19 14L20 14L20 13L18 13L18 12L20 12L20 10L21 10L21 9L20 9L20 10L19 10L19 8L18 8L18 6L17 6L17 7L16 7L16 6L15 6L15 7L14 7L14 6L13 6L13 4L12 4L12 6L11 6L11 5L10 5L10 6L11 6L11 7L12 7L12 8L13 8L13 10L12 10L12 14L11 14L11 15L10 15L10 16L9 16L9 15L8 15L8 16L9 16L9 17L6 17L6 16L7 16L7 15L4 15L4 14L5 14L5 13L4 13L4 14L3 14L3 13L2 13L2 14L3 14L3 15L4 15L4 16L5 16L5 17L4 17L4 19L5 19L5 20L3 20L3 18L2 18L2 19L1 19L1 20L2 20L2 22L3 22L3 24L2 24L2 25L3 25L3 24L4 24L4 23L5 23L5 24L7 24L7 23L6 23L6 22L7 22L7 21L6 21L6 20L9 20L9 19L5 19L5 18L12 18L12 17L13 17L13 19L15 19L15 20L14 20L14 22L15 22L15 23L16 23L16 24L17 24L17 23L18 23L18 24L19 24L19 27L17 27L17 28L15 28L15 27L16 27L16 26L18 26L18 25L16 25L16 26L15 26L15 27L14 27L14 25L15 25L15 24L13 24L13 25L12 25L12 27L10 27L10 29L11 29L11 32L10 32L10 34L9 34L9 37L6 37L6 38L7 38L7 39L6 39L6 40L7 40L7 41L5 41L5 42L7 42L7 41L8 41L8 42L9 42L9 43L10 43L10 42L12 42L12 41L13 41L13 43L11 43L11 44L9 44L9 46L7 46L7 47L9 47L9 49L11 49L11 50L12 50L12 51L11 51L11 52L10 52L10 53L9 53L9 54L11 54L11 55L9 55L9 56L11 56L11 55L12 55L12 54L13 54L13 55L14 55L14 56L15 56L15 55L14 55L14 54L15 54L15 53L16 53L16 54L17 54L17 55L18 55L18 53L19 53L19 50L17 50L17 49L16 49L16 48L15 48L15 50L17 50L17 51L18 51L18 52L16 52L16 51L14 51L14 52L13 52L13 50L12 50L12 49L13 49L13 47L12 47L12 45L15 45L15 47L16 47L16 46L17 46L17 48L19 48L19 49L21 49L21 50L24 50L24 51L25 51L25 52L24 52L24 53L25 53L25 52L26 52L26 50L25 50L25 49L24 49L24 47L23 47L23 48L21 48L21 47L22 47L22 46L23 46L23 45L25 45L25 46L29 46L29 48L32 48L32 50L33 50L33 51L34 51L34 50L35 50L35 47L34 47L34 50L33 50L33 48L32 48L32 47L31 47L31 45L33 45L33 46L35 46L35 45L33 45L33 44L35 44L35 42L36 42L36 41L37 41L37 43L39 43L39 42L41 42L41 43L43 43L43 40L44 40L44 39L45 39L45 38L46 38L46 40L45 40L45 41L44 41L44 43L45 43L45 44L43 44L43 46L42 46L42 48L40 48L40 47L41 47L41 45L40 45L40 44L36 44L36 45L38 45L38 49L42 49L42 50L43 50L43 52L46 52L46 53L47 53L47 54L48 54L48 53L47 53L47 51L48 51L48 50L47 50L47 49L48 49L48 47L47 47L47 46L52 46L52 47L50 47L50 48L53 48L53 51L54 51L54 50L55 50L55 49L56 49L56 48L55 48L55 46L54 46L54 44L56 44L56 43L53 43L53 45L52 45L52 43L51 43L51 42L50 42L50 43L49 43L49 42L48 42L48 41L47 41L47 42L46 42L46 43L45 43L45 41L46 41L46 40L47 40L47 38L48 38L48 37L49 37L49 36L50 36L50 38L49 38L49 39L48 39L48 40L49 40L49 41L50 41L50 39L51 39L51 40L53 40L53 39L54 39L54 38L53 38L53 37L52 37L52 36L50 36L50 33L49 33L49 32L47 32L47 33L46 33L46 31L48 31L48 28L47 28L47 30L44 30L44 29L43 29L43 28L45 28L45 29L46 29L46 28L45 28L45 24L46 24L46 23L48 23L48 25L46 25L46 27L47 27L47 26L49 26L49 23L48 23L48 21L46 21L46 20L45 20L45 18L44 18L44 17L43 17L43 16L44 16L44 13L46 13L46 12L44 12L44 13L41 13L41 12L39 12L39 10L41 10L41 11L42 11L42 12L43 12L43 10L41 10L41 9L42 9L42 6L41 6L41 7L40 7L40 6L39 6L39 7L38 7L38 4L36 4L36 3L35 3L35 4L34 4L34 5L36 5L36 6L35 6L35 9L34 9L34 10L33 10L33 8L32 8L32 10L29 10L29 9L26 9L26 6L25 6L25 5L26 5L26 4L31 4L31 3L27 3L27 2L26 2L26 4L24 4L24 6L23 6L23 7L22 7L22 4L23 4L23 3L24 3L24 2L25 2L25 1ZM28 1L28 2L29 2L29 1ZM46 1L46 2L45 2L45 3L46 3L46 5L47 5L47 3L46 3L46 2L47 2L47 1ZM22 2L22 3L21 3L21 4L22 4L22 3L23 3L23 2ZM42 4L42 5L43 5L43 4ZM27 5L27 8L30 8L30 5ZM12 6L12 7L13 7L13 6ZM24 6L24 7L25 7L25 6ZM28 6L28 7L29 7L29 6ZM36 6L36 8L37 8L37 9L35 9L35 10L34 10L34 11L33 11L33 10L32 10L32 11L29 11L29 10L28 10L28 12L31 12L31 13L30 13L30 14L31 14L31 13L32 13L32 12L34 12L34 13L36 13L36 14L35 14L35 15L37 15L37 14L38 14L38 16L39 16L39 17L40 17L40 16L39 16L39 15L40 15L40 14L41 14L41 13L40 13L40 14L39 14L39 12L38 12L38 13L37 13L37 10L38 10L38 9L41 9L41 8L37 8L37 6ZM6 8L6 9L7 9L7 8ZM8 8L8 10L9 10L9 9L10 9L10 8ZM15 8L15 9L16 9L16 8ZM17 8L17 12L18 12L18 8ZM3 9L3 10L4 10L4 11L5 11L5 12L7 12L7 11L5 11L5 10L4 10L4 9ZM13 10L13 13L14 13L14 14L16 14L16 15L17 15L17 14L16 14L16 13L15 13L15 11L14 11L14 10ZM48 10L48 11L47 11L47 12L49 12L49 13L50 13L50 12L49 12L49 11L50 11L50 10ZM23 11L23 12L22 12L22 13L23 13L23 12L24 12L24 13L25 13L25 12L24 12L24 11ZM54 11L54 12L55 12L55 13L56 13L56 11ZM10 12L10 13L11 13L11 12ZM12 14L12 16L10 16L10 17L12 17L12 16L13 16L13 17L14 17L14 18L15 18L15 19L16 19L16 23L17 23L17 22L18 22L18 21L17 21L17 18L18 18L18 20L19 20L19 18L18 18L18 17L15 17L15 16L14 16L14 15L13 15L13 14ZM42 14L42 16L43 16L43 14ZM18 15L18 16L19 16L19 15ZM2 16L2 17L3 17L3 16ZM25 17L25 18L26 18L26 17ZM32 17L32 18L33 18L33 19L34 19L34 17ZM41 17L41 18L37 18L37 19L36 19L36 20L35 20L35 21L36 21L36 22L37 22L37 23L38 23L38 20L39 20L39 22L40 22L40 23L41 23L41 25L38 25L38 24L36 24L36 23L35 23L35 27L34 27L34 26L32 26L32 27L31 27L31 26L22 26L22 25L21 25L21 24L20 24L20 26L22 26L22 27L23 27L23 29L21 29L21 31L20 31L20 33L23 33L23 34L25 34L25 36L24 36L24 35L22 35L22 34L21 34L21 35L19 35L19 34L18 34L18 31L19 31L19 30L18 30L18 31L17 31L17 29L15 29L15 30L14 30L14 29L13 29L13 28L14 28L14 27L13 27L13 28L12 28L12 29L13 29L13 32L11 32L11 33L12 33L12 34L13 34L13 33L14 33L14 34L15 34L15 35L12 35L12 36L13 36L13 37L11 37L11 36L10 36L10 37L9 37L9 38L8 38L8 39L11 39L11 41L12 41L12 39L13 39L13 41L14 41L14 43L13 43L13 44L15 44L15 45L16 45L16 44L17 44L17 43L16 43L16 44L15 44L15 42L18 42L18 43L19 43L19 44L20 44L20 45L21 45L21 46L22 46L22 44L23 44L23 41L22 41L22 40L23 40L23 39L24 39L24 41L25 41L25 42L24 42L24 43L25 43L25 42L28 42L28 43L29 43L29 44L30 44L30 43L31 43L31 44L32 44L32 43L31 43L31 40L32 40L32 41L34 41L34 42L33 42L33 43L34 43L34 42L35 42L35 41L34 41L34 37L32 37L32 36L31 36L31 40L29 40L29 41L27 41L27 40L28 40L28 39L30 39L30 37L29 37L29 38L27 38L27 36L30 36L30 34L32 34L32 35L33 35L33 34L34 34L34 36L35 36L35 38L36 38L36 39L35 39L35 40L36 40L36 39L37 39L37 38L38 38L38 39L40 39L40 40L39 40L39 41L40 41L40 40L41 40L41 42L42 42L42 40L41 40L41 39L43 39L43 38L45 38L45 37L44 37L44 36L45 36L45 35L48 35L48 36L49 36L49 35L48 35L48 33L47 33L47 34L43 34L43 33L42 33L42 31L43 31L43 32L45 32L45 31L44 31L44 30L42 30L42 28L43 28L43 27L44 27L44 24L45 24L45 23L46 23L46 22L45 22L45 21L44 21L44 22L43 22L43 21L42 21L42 20L41 20L41 19L42 19L42 17ZM43 18L43 19L44 19L44 18ZM46 18L46 19L47 19L47 20L48 20L48 19L47 19L47 18ZM10 19L10 22L9 22L9 21L8 21L8 24L9 24L9 23L10 23L10 24L12 24L12 23L10 23L10 22L13 22L13 20L12 20L12 21L11 21L11 19ZM37 19L37 20L36 20L36 21L37 21L37 20L38 20L38 19ZM4 21L4 22L5 22L5 21ZM25 21L25 22L27 22L27 21ZM32 21L32 23L31 23L31 25L34 25L34 22L33 22L33 21ZM40 21L40 22L41 22L41 21ZM42 22L42 25L41 25L41 26L43 26L43 22ZM44 22L44 23L45 23L45 22ZM32 23L32 24L33 24L33 23ZM36 26L36 27L35 27L35 29L36 29L36 30L35 30L35 31L36 31L36 33L38 33L38 34L37 34L37 35L35 35L35 36L37 36L37 37L36 37L36 38L37 38L37 37L38 37L38 36L37 36L37 35L38 35L38 34L39 34L39 35L42 35L42 36L39 36L39 37L42 37L42 38L43 38L43 34L40 34L40 33L39 33L39 32L38 32L38 31L42 31L42 30L40 30L40 29L41 29L41 27L40 27L40 29L37 29L37 28L39 28L39 27L37 27L37 26ZM5 27L5 30L8 30L8 27ZM19 27L19 28L18 28L18 29L20 29L20 28L21 28L21 27ZM25 27L25 28L24 28L24 30L22 30L22 31L21 31L21 32L22 32L22 31L23 31L23 32L24 32L24 30L25 30L25 29L26 29L26 27ZM27 27L27 30L30 30L30 27ZM32 27L32 28L33 28L33 27ZM49 27L49 30L52 30L52 27ZM6 28L6 29L7 29L7 28ZM28 28L28 29L29 29L29 28ZM50 28L50 29L51 29L51 28ZM3 29L3 30L4 30L4 29ZM32 29L32 30L31 30L31 32L28 32L28 31L26 31L26 33L25 33L25 34L26 34L26 35L28 35L28 34L29 34L29 33L33 33L33 32L32 32L32 31L34 31L34 30L33 30L33 29ZM53 29L53 30L54 30L54 29ZM1 30L1 31L2 31L2 33L1 33L1 36L2 36L2 35L3 35L3 36L4 36L4 37L3 37L3 38L4 38L4 39L5 39L5 38L4 38L4 37L5 37L5 36L8 36L8 34L7 34L7 33L6 33L6 32L8 32L8 31L6 31L6 32L4 32L4 31L2 31L2 30ZM9 30L9 31L10 31L10 30ZM37 30L37 31L38 31L38 30ZM14 31L14 33L15 33L15 34L16 34L16 35L15 35L15 36L14 36L14 38L17 38L17 39L16 39L16 41L18 41L18 42L19 42L19 40L18 40L18 37L17 37L17 33L16 33L16 32L17 32L17 31ZM50 31L50 32L51 32L51 33L52 33L52 34L51 34L51 35L53 35L53 33L54 33L54 32L55 32L55 31L53 31L53 32L52 32L52 31ZM3 32L3 33L2 33L2 34L3 34L3 35L4 35L4 36L5 36L5 35L7 35L7 34L6 34L6 33L4 33L4 32ZM27 32L27 33L28 33L28 32ZM34 33L34 34L35 34L35 33ZM4 34L4 35L5 35L5 34ZM18 35L18 36L19 36L19 37L20 37L20 38L21 38L21 37L22 37L22 38L23 38L23 36L22 36L22 35L21 35L21 36L19 36L19 35ZM25 36L25 37L24 37L24 39L25 39L25 41L26 41L26 40L27 40L27 39L25 39L25 38L26 38L26 36ZM56 36L56 37L57 37L57 36ZM51 37L51 38L52 38L52 37ZM11 38L11 39L12 39L12 38ZM40 38L40 39L41 39L41 38ZM56 38L56 39L57 39L57 38ZM14 39L14 41L15 41L15 39ZM32 39L32 40L33 40L33 39ZM20 40L20 42L21 42L21 43L20 43L20 44L22 44L22 41L21 41L21 40ZM37 40L37 41L38 41L38 40ZM9 41L9 42L10 42L10 41ZM29 41L29 42L30 42L30 41ZM47 42L47 43L46 43L46 44L45 44L45 45L47 45L47 43L48 43L48 42ZM5 43L5 44L7 44L7 45L8 45L8 44L7 44L7 43ZM11 44L11 45L10 45L10 46L11 46L11 45L12 45L12 44ZM48 44L48 45L51 45L51 44ZM17 45L17 46L19 46L19 45ZM44 46L44 47L46 47L46 48L47 48L47 47L46 47L46 46ZM10 47L10 48L11 48L11 47ZM27 47L27 48L28 48L28 47ZM36 47L36 48L37 48L37 47ZM53 47L53 48L54 48L54 47ZM42 48L42 49L44 49L44 50L45 50L45 51L46 51L46 50L45 50L45 49L44 49L44 48ZM27 49L27 52L30 52L30 49ZM49 49L49 52L52 52L52 49ZM28 50L28 51L29 51L29 50ZM50 50L50 51L51 51L51 50ZM21 51L21 52L22 52L22 53L23 53L23 52L22 52L22 51ZM11 52L11 54L12 54L12 52ZM33 52L33 53L34 53L34 52ZM13 53L13 54L14 54L14 53ZM20 53L20 55L19 55L19 56L20 56L20 55L21 55L21 56L24 56L24 55L25 55L25 54L21 54L21 53ZM55 53L55 54L54 54L54 55L55 55L55 54L56 54L56 53ZM30 55L30 56L31 56L31 55ZM47 55L47 56L48 56L48 55ZM56 55L56 56L57 56L57 55ZM0 0L0 7L7 7L7 0ZM1 1L1 6L6 6L6 1ZM2 2L2 5L5 5L5 2ZM50 0L50 7L57 7L57 0ZM51 1L51 6L56 6L56 1ZM52 2L52 5L55 5L55 2ZM0 50L0 57L7 57L7 50ZM1 51L1 56L6 56L6 51ZM2 52L2 55L5 55L5 52Z" fill="#000000"/></g></g></svg>
