<?xml version="1.0" encoding="UTF-8"?>
<svg xmlns="http://www.w3.org/2000/svg" version="1.1" width="300" height="300" viewBox="0 0 300 300"><rect x="0" y="0" width="300" height="300" fill="#ffffff"/><g transform="scale(5.263)"><g transform="translate(0,0)"><path fill-rule="evenodd" d="M10 0L10 2L12 2L12 3L13 3L13 4L12 4L12 5L10 5L10 4L11 4L11 3L8 3L8 4L9 4L9 5L8 5L8 7L9 7L9 8L6 8L6 9L5 9L5 8L0 8L0 9L1 9L1 10L0 10L0 13L2 13L2 12L1 12L1 10L2 10L2 11L4 11L4 12L3 12L3 13L4 13L4 12L5 12L5 11L7 11L7 12L6 12L6 13L7 13L7 14L2 14L2 16L4 16L4 17L3 17L3 18L1 18L1 17L0 17L0 18L1 18L1 19L2 19L2 20L3 20L3 19L4 19L4 20L5 20L5 19L7 19L7 18L6 18L6 17L8 17L8 16L9 16L9 18L8 18L8 20L6 20L6 21L7 21L7 22L6 22L6 23L8 23L8 24L9 24L9 26L5 26L5 25L4 25L4 24L5 24L5 23L4 23L4 24L3 24L3 22L4 22L4 21L2 21L2 22L1 22L1 21L0 21L0 23L2 23L2 25L1 25L1 28L2 28L2 32L1 32L1 29L0 29L0 33L2 33L2 32L3 32L3 30L4 30L4 33L3 33L3 35L5 35L5 38L6 38L6 39L7 39L7 40L6 40L6 41L7 41L7 40L8 40L8 39L9 39L9 38L10 38L10 37L8 37L8 36L9 36L9 35L10 35L10 34L11 34L11 33L10 33L10 32L11 32L11 31L12 31L12 33L14 33L14 32L15 32L15 33L17 33L17 34L18 34L18 33L19 33L19 34L20 34L20 33L21 33L21 32L20 32L20 31L19 31L19 30L20 30L20 29L22 29L22 28L21 28L21 27L22 27L22 26L23 26L23 28L24 28L24 26L25 26L25 27L26 27L26 30L25 30L25 29L23 29L23 31L22 31L22 32L24 32L24 33L22 33L22 34L21 34L21 35L19 35L19 36L17 36L17 35L16 35L16 34L15 34L15 35L13 35L13 34L12 34L12 35L11 35L11 40L12 40L12 39L13 39L13 41L11 41L11 42L13 42L13 43L12 43L12 44L11 44L11 43L7 43L7 42L6 42L6 43L7 43L7 44L5 44L5 43L4 43L4 42L3 42L3 43L4 43L4 46L5 46L5 47L3 47L3 44L2 44L2 43L1 43L1 46L0 46L0 48L5 48L5 47L8 47L8 46L9 46L9 44L11 44L11 45L12 45L12 44L13 44L13 45L14 45L14 46L13 46L13 47L14 47L14 48L13 48L13 49L12 49L12 50L13 50L13 54L12 54L12 52L11 52L11 46L10 46L10 47L9 47L9 48L8 48L8 51L9 51L9 50L10 50L10 52L8 52L8 57L9 57L9 56L10 56L10 55L11 55L11 54L12 54L12 56L11 56L11 57L13 57L13 54L15 54L15 55L14 55L14 56L15 56L15 55L16 55L16 56L17 56L17 57L19 57L19 55L20 55L20 54L18 54L18 53L20 53L20 51L19 51L19 50L20 50L20 49L19 49L19 48L21 48L21 49L22 49L22 50L21 50L21 51L22 51L22 52L23 52L23 51L24 51L24 53L21 53L21 54L24 54L24 53L26 53L26 54L25 54L25 55L26 55L26 54L28 54L28 53L29 53L29 54L30 54L30 53L31 53L31 55L33 55L33 54L32 54L32 52L33 52L33 53L34 53L34 52L33 52L33 51L35 51L35 50L36 50L36 49L37 49L37 50L38 50L38 49L37 49L37 48L38 48L38 44L39 44L39 45L40 45L40 46L39 46L39 47L40 47L40 48L41 48L41 47L40 47L40 46L43 46L43 45L44 45L44 46L45 46L45 47L46 47L46 48L47 48L47 46L48 46L48 47L50 47L50 48L48 48L48 49L47 49L47 50L46 50L46 49L44 49L44 47L43 47L43 49L42 49L42 50L41 50L41 49L39 49L39 50L41 50L41 51L40 51L40 52L41 52L41 51L42 51L42 50L46 50L46 51L48 51L48 54L44 54L44 56L43 56L43 55L42 55L42 54L43 54L43 53L44 53L44 52L45 52L45 51L43 51L43 53L41 53L41 54L40 54L40 55L39 55L39 54L38 54L38 53L39 53L39 52L38 52L38 53L37 53L37 52L35 52L35 54L34 54L34 56L30 56L30 55L27 55L27 57L29 57L29 56L30 56L30 57L39 57L39 56L40 56L40 55L42 55L42 56L41 56L41 57L42 57L42 56L43 56L43 57L44 57L44 56L45 56L45 55L46 55L46 57L49 57L49 56L50 56L50 57L51 57L51 56L54 56L54 57L56 57L56 56L55 56L55 54L54 54L54 53L55 53L55 52L57 52L57 51L56 51L56 50L55 50L55 51L54 51L54 49L53 49L53 48L55 48L55 47L56 47L56 44L57 44L57 43L56 43L56 41L55 41L55 43L54 43L54 42L53 42L53 44L55 44L55 47L54 47L54 45L53 45L53 46L52 46L52 47L53 47L53 48L51 48L51 47L50 47L50 46L51 46L51 45L50 45L50 42L51 42L51 44L52 44L52 42L51 42L51 41L50 41L50 38L51 38L51 39L53 39L53 40L55 40L55 39L57 39L57 36L56 36L56 35L55 35L55 33L56 33L56 34L57 34L57 33L56 33L56 30L57 30L57 28L56 28L56 27L55 27L55 26L57 26L57 23L53 23L53 24L54 24L54 27L53 27L53 25L51 25L51 26L50 26L50 25L49 25L49 24L50 24L50 21L48 21L48 20L49 20L49 18L50 18L50 20L51 20L51 23L52 23L52 22L53 22L53 21L54 21L54 22L57 22L57 19L56 19L56 18L55 18L55 16L56 16L56 14L57 14L57 13L56 13L56 14L55 14L55 15L54 15L54 14L53 14L53 17L51 17L51 14L52 14L52 13L51 13L51 14L50 14L50 17L49 17L49 15L48 15L48 16L47 16L47 15L46 15L46 14L44 14L44 16L43 16L43 15L42 15L42 16L41 16L41 17L40 17L40 18L41 18L41 19L39 19L39 18L38 18L38 17L37 17L37 16L34 16L34 15L37 15L37 14L38 14L38 11L37 11L37 10L38 10L38 9L39 9L39 12L41 12L41 10L42 10L42 11L43 11L43 10L44 10L44 12L43 12L43 13L42 13L42 14L43 14L43 13L44 13L44 12L45 12L45 13L46 13L46 12L45 12L45 10L44 10L44 8L46 8L46 9L47 9L47 10L46 10L46 11L47 11L47 14L49 14L49 13L50 13L50 12L52 12L52 11L53 11L53 12L54 12L54 13L55 13L55 11L56 11L56 12L57 12L57 11L56 11L56 10L57 10L57 9L56 9L56 8L55 8L55 9L54 9L54 8L53 8L53 9L54 9L54 10L55 10L55 11L53 11L53 10L51 10L51 11L50 11L50 8L48 8L48 7L49 7L49 6L48 6L48 7L47 7L47 5L48 5L48 0L44 0L44 3L43 3L43 4L39 4L39 3L40 3L40 2L41 2L41 3L42 3L42 2L41 2L41 1L43 1L43 0L40 0L40 1L39 1L39 2L38 2L38 0L36 0L36 1L33 1L33 0L30 0L30 1L28 1L28 0L27 0L27 1L26 1L26 0L21 0L21 2L20 2L20 0L17 0L17 2L20 2L20 3L22 3L22 1L25 1L25 2L24 2L24 3L23 3L23 4L19 4L19 3L17 3L17 4L19 4L19 5L17 5L17 6L16 6L16 7L15 7L15 6L14 6L14 7L13 7L13 6L12 6L12 5L16 5L16 4L14 4L14 3L15 3L15 2L16 2L16 1L15 1L15 0L14 0L14 1L12 1L12 0ZM8 1L8 2L9 2L9 1ZM14 1L14 2L13 2L13 3L14 3L14 2L15 2L15 1ZM30 1L30 2L31 2L31 3L30 3L30 4L31 4L31 7L32 7L32 8L31 8L31 9L32 9L32 10L30 10L30 9L27 9L27 11L26 11L26 10L24 10L24 11L23 11L23 12L25 12L25 13L26 13L26 16L27 16L27 17L28 17L28 16L30 16L30 17L31 17L31 16L32 16L32 18L29 18L29 19L31 19L31 20L30 20L30 21L29 21L29 20L27 20L27 19L28 19L28 18L26 18L26 17L25 17L25 16L24 16L24 17L25 17L25 18L24 18L24 20L23 20L23 19L22 19L22 18L23 18L23 16L21 16L21 15L23 15L23 13L22 13L22 12L21 12L21 13L19 13L19 14L17 14L17 13L18 13L18 12L16 12L16 11L18 11L18 10L19 10L19 11L22 11L22 10L23 10L23 9L25 9L25 8L26 8L26 4L29 4L29 3L28 3L28 2L25 2L25 3L26 3L26 4L25 4L25 8L24 8L24 6L23 6L23 5L24 5L24 4L23 4L23 5L22 5L22 6L21 6L21 8L20 8L20 10L19 10L19 9L18 9L18 8L19 8L19 7L20 7L20 5L19 5L19 7L18 7L18 6L17 6L17 7L16 7L16 8L15 8L15 7L14 7L14 9L15 9L15 12L16 12L16 13L13 13L13 12L14 12L14 11L13 11L13 7L12 7L12 6L11 6L11 7L10 7L10 6L9 6L9 7L10 7L10 8L9 8L9 9L6 9L6 10L8 10L8 11L9 11L9 13L8 13L8 12L7 12L7 13L8 13L8 15L9 15L9 16L10 16L10 18L9 18L9 20L10 20L10 21L11 21L11 17L12 17L12 21L14 21L14 22L16 22L16 21L17 21L17 20L19 20L19 19L20 19L20 21L19 21L19 22L18 22L18 24L16 24L16 23L15 23L15 24L13 24L13 22L12 22L12 23L11 23L11 24L12 24L12 25L11 25L11 26L9 26L9 32L10 32L10 31L11 31L11 29L12 29L12 31L13 31L13 32L14 32L14 31L15 31L15 30L17 30L17 31L18 31L18 32L17 32L17 33L18 33L18 32L19 32L19 31L18 31L18 29L20 29L20 28L19 28L19 26L20 26L20 27L21 27L21 25L25 25L25 26L26 26L26 25L28 25L28 26L29 26L29 24L28 24L28 23L27 23L27 24L25 24L25 23L26 23L26 22L25 22L25 21L26 21L26 20L27 20L27 21L28 21L28 22L29 22L29 23L31 23L31 24L34 24L34 26L33 26L33 28L32 28L32 27L31 27L31 28L32 28L32 29L31 29L31 30L32 30L32 31L31 31L31 32L32 32L32 33L31 33L31 34L32 34L32 37L31 37L31 36L30 36L30 37L31 37L31 39L30 39L30 40L29 40L29 35L30 35L30 34L29 34L29 33L30 33L30 32L26 32L26 31L25 31L25 30L24 30L24 32L25 32L25 34L27 34L27 35L22 35L22 36L19 36L19 37L23 37L23 38L24 38L24 37L23 37L23 36L25 36L25 40L24 40L24 39L23 39L23 40L22 40L22 39L21 39L21 41L19 41L19 42L20 42L20 43L19 43L19 45L20 45L20 46L21 46L21 45L22 45L22 46L23 46L23 47L21 47L21 48L22 48L22 49L25 49L25 47L26 47L26 45L25 45L25 44L26 44L26 43L27 43L27 42L28 42L28 43L29 43L29 44L28 44L28 45L27 45L27 46L28 46L28 47L27 47L27 48L28 48L28 47L29 47L29 44L32 44L32 45L33 45L33 46L31 46L31 45L30 45L30 46L31 46L31 47L33 47L33 48L31 48L31 49L32 49L32 50L35 50L35 48L37 48L37 46L35 46L35 45L34 45L34 43L35 43L35 44L37 44L37 43L38 43L38 42L39 42L39 44L40 44L40 45L43 45L43 44L44 44L44 45L45 45L45 46L47 46L47 45L49 45L49 46L50 46L50 45L49 45L49 42L48 42L48 43L47 43L47 41L48 41L48 40L47 40L47 41L45 41L45 40L46 40L46 39L47 39L47 38L48 38L48 39L49 39L49 38L50 38L50 37L49 37L49 38L48 38L48 36L50 36L50 35L51 35L51 34L54 34L54 33L55 33L55 32L53 32L53 31L52 31L52 33L51 33L51 34L50 34L50 35L49 35L49 34L48 34L48 33L50 33L50 31L48 31L48 27L47 27L47 23L48 23L48 21L47 21L47 20L46 20L46 18L47 18L47 19L48 19L48 18L47 18L47 16L44 16L44 17L43 17L43 18L42 18L42 17L41 17L41 18L42 18L42 19L43 19L43 20L44 20L44 21L43 21L43 22L42 22L42 24L43 24L43 22L44 22L44 25L43 25L43 26L42 26L42 25L41 25L41 20L38 20L38 19L37 19L37 17L34 17L34 16L33 16L33 14L37 14L37 13L34 13L34 12L37 12L37 11L34 11L34 12L31 12L31 11L33 11L33 9L34 9L34 10L35 10L35 9L36 9L36 8L37 8L37 9L38 9L38 6L37 6L37 7L36 7L36 6L35 6L35 7L36 7L36 8L34 8L34 5L35 5L35 2L33 2L33 1ZM45 1L45 2L47 2L47 1ZM32 2L32 3L31 3L31 4L32 4L32 3L33 3L33 5L32 5L32 7L33 7L33 5L34 5L34 3L33 3L33 2ZM36 2L36 3L37 3L37 2ZM44 3L44 6L43 6L43 7L44 7L44 6L45 6L45 7L46 7L46 8L47 8L47 7L46 7L46 6L45 6L45 5L47 5L47 3L46 3L46 4L45 4L45 3ZM36 4L36 5L39 5L39 4ZM27 5L27 8L30 8L30 5ZM41 5L41 7L40 7L40 6L39 6L39 9L41 9L41 8L42 8L42 5ZM22 6L22 7L23 7L23 6ZM28 6L28 7L29 7L29 6ZM17 7L17 8L18 8L18 7ZM51 8L51 9L52 9L52 8ZM3 9L3 10L5 10L5 9ZM21 9L21 10L22 10L22 9ZM9 10L9 11L10 11L10 12L11 12L11 15L10 15L10 14L9 14L9 15L10 15L10 16L11 16L11 15L12 15L12 16L13 16L13 18L15 18L15 19L16 19L16 20L15 20L15 21L16 21L16 20L17 20L17 19L16 19L16 18L15 18L15 17L14 17L14 15L15 15L15 16L16 16L16 17L17 17L17 18L18 18L18 19L19 19L19 18L20 18L20 19L21 19L21 21L22 21L22 22L21 22L21 24L20 24L20 25L21 25L21 24L24 24L24 23L22 23L22 22L24 22L24 21L25 21L25 20L26 20L26 19L25 19L25 20L24 20L24 21L22 21L22 19L21 19L21 18L20 18L20 17L21 17L21 16L20 16L20 15L21 15L21 14L22 14L22 13L21 13L21 14L20 14L20 15L17 15L17 14L14 14L14 15L13 15L13 14L12 14L12 12L13 12L13 11L12 11L12 10ZM29 10L29 11L27 11L27 12L30 12L30 10ZM25 11L25 12L26 12L26 11ZM49 11L49 12L48 12L48 13L49 13L49 12L50 12L50 11ZM29 13L29 14L30 14L30 15L31 15L31 14L32 14L32 13L31 13L31 14L30 14L30 13ZM27 14L27 16L28 16L28 14ZM40 14L40 15L39 15L39 16L40 16L40 15L41 15L41 14ZM5 15L5 17L6 17L6 16L7 16L7 15ZM16 15L16 16L17 16L17 15ZM18 17L18 18L19 18L19 17ZM33 17L33 18L32 18L32 20L31 20L31 21L30 21L30 22L32 22L32 23L34 23L34 24L35 24L35 25L36 25L36 26L38 26L38 27L37 27L37 28L36 28L36 27L35 27L35 26L34 26L34 27L35 27L35 28L33 28L33 31L32 31L32 32L33 32L33 31L34 31L34 32L35 32L35 34L34 34L34 33L32 33L32 34L33 34L33 35L34 35L34 37L37 37L37 38L38 38L38 35L39 35L39 34L40 34L40 33L39 33L39 32L38 32L38 31L36 31L36 32L35 32L35 30L34 30L34 29L36 29L36 30L38 30L38 28L41 28L41 29L39 29L39 30L44 30L44 28L45 28L45 32L46 32L46 31L47 31L47 32L48 32L48 31L47 31L47 30L46 30L46 28L47 28L47 27L46 27L46 26L45 26L45 27L44 27L44 26L43 26L43 29L42 29L42 26L41 26L41 25L40 25L40 26L41 26L41 27L39 27L39 26L38 26L38 25L39 25L39 23L40 23L40 21L39 21L39 22L38 22L38 20L36 20L36 18L34 18L34 17ZM50 17L50 18L51 18L51 17ZM4 18L4 19L5 19L5 18ZM33 18L33 20L32 20L32 22L33 22L33 20L35 20L35 21L34 21L34 22L35 22L35 23L37 23L37 25L38 25L38 22L37 22L37 21L36 21L36 20L35 20L35 19L34 19L34 18ZM44 18L44 19L45 19L45 18ZM52 18L52 19L51 19L51 20L52 20L52 21L53 21L53 20L52 20L52 19L53 19L53 18ZM13 19L13 20L14 20L14 19ZM45 20L45 21L46 21L46 20ZM54 20L54 21L56 21L56 20ZM35 21L35 22L36 22L36 21ZM8 22L8 23L9 23L9 24L10 24L10 23L9 23L9 22ZM19 22L19 23L20 23L20 22ZM46 22L46 23L45 23L45 25L46 25L46 23L47 23L47 22ZM6 24L6 25L7 25L7 24ZM15 24L15 25L16 25L16 24ZM18 24L18 25L17 25L17 26L14 26L14 29L16 29L16 28L15 28L15 27L18 27L18 25L19 25L19 24ZM3 25L3 26L2 26L2 28L3 28L3 29L4 29L4 28L3 28L3 26L4 26L4 25ZM31 25L31 26L32 26L32 25ZM12 26L12 27L10 27L10 28L12 28L12 27L13 27L13 26ZM5 27L5 30L8 30L8 27ZM27 27L27 30L30 30L30 27ZM45 27L45 28L46 28L46 27ZM49 27L49 30L52 30L52 27ZM6 28L6 29L7 29L7 28ZM17 28L17 29L18 29L18 28ZM28 28L28 29L29 29L29 28ZM50 28L50 29L51 29L51 28ZM53 28L53 29L55 29L55 30L54 30L54 31L55 31L55 30L56 30L56 28ZM5 31L5 33L6 33L6 34L5 34L5 35L6 35L6 36L7 36L7 35L6 35L6 34L7 34L7 33L8 33L8 32L7 32L7 31ZM40 31L40 32L41 32L41 34L43 34L43 35L42 35L42 37L40 37L40 36L41 36L41 35L40 35L40 36L39 36L39 37L40 37L40 38L41 38L41 40L43 40L43 41L41 41L41 43L40 43L40 44L43 44L43 43L44 43L44 44L46 44L46 45L47 45L47 43L46 43L46 42L45 42L45 41L44 41L44 40L45 40L45 37L46 37L46 36L47 36L47 35L48 35L48 34L47 34L47 35L46 35L46 34L45 34L45 33L44 33L44 31ZM6 32L6 33L7 33L7 32ZM42 32L42 33L43 33L43 32ZM9 33L9 34L8 34L8 35L9 35L9 34L10 34L10 33ZM37 33L37 34L39 34L39 33ZM1 34L1 35L2 35L2 34ZM28 34L28 35L29 35L29 34ZM44 34L44 35L43 35L43 36L44 36L44 37L43 37L43 39L44 39L44 37L45 37L45 34ZM35 35L35 36L36 36L36 35ZM0 36L0 37L1 37L1 39L0 39L0 42L1 42L1 41L2 41L2 40L1 40L1 39L2 39L2 36ZM3 36L3 37L4 37L4 36ZM12 36L12 37L13 37L13 38L14 38L14 40L15 40L15 41L16 41L16 42L15 42L15 43L14 43L14 44L15 44L15 43L16 43L16 44L17 44L17 45L15 45L15 50L17 50L17 51L18 51L18 52L16 52L16 53L15 53L15 51L14 51L14 53L15 53L15 54L16 54L16 53L18 53L18 52L19 52L19 51L18 51L18 50L19 50L19 49L18 49L18 50L17 50L17 49L16 49L16 48L19 48L19 47L18 47L18 46L17 46L17 45L18 45L18 44L17 44L17 43L18 43L18 42L17 42L17 41L16 41L16 40L18 40L18 38L17 38L17 36L14 36L14 37L13 37L13 36ZM26 36L26 40L28 40L28 41L29 41L29 43L31 43L31 42L32 42L32 41L31 41L31 42L30 42L30 41L29 41L29 40L28 40L28 39L27 39L27 38L28 38L28 37L27 37L27 36ZM51 36L51 38L53 38L53 37L54 37L54 38L56 38L56 36L55 36L55 37L54 37L54 36L53 36L53 37L52 37L52 36ZM6 37L6 38L7 38L7 39L8 39L8 37ZM14 37L14 38L16 38L16 37ZM3 38L3 40L5 40L5 39L4 39L4 38ZM19 38L19 39L20 39L20 38ZM32 38L32 39L31 39L31 40L32 40L32 39L33 39L33 40L34 40L34 38ZM35 38L35 41L36 41L36 42L35 42L35 43L37 43L37 41L39 41L39 40L40 40L40 39L39 39L39 40L36 40L36 38ZM15 39L15 40L16 40L16 39ZM9 40L9 41L10 41L10 40ZM13 41L13 42L14 42L14 41ZM21 41L21 42L22 42L22 43L20 43L20 45L21 45L21 44L22 44L22 45L23 45L23 46L25 46L25 45L23 45L23 42L22 42L22 41ZM24 41L24 42L25 42L25 41ZM26 41L26 42L27 42L27 41ZM33 41L33 43L32 43L32 44L33 44L33 43L34 43L34 41ZM16 42L16 43L17 43L17 42ZM42 42L42 43L43 43L43 42ZM24 43L24 44L25 44L25 43ZM55 43L55 44L56 44L56 43ZM7 44L7 45L5 45L5 46L8 46L8 44ZM1 46L1 47L2 47L2 46ZM16 46L16 47L17 47L17 46ZM33 46L33 47L34 47L34 48L33 48L33 49L34 49L34 48L35 48L35 47L34 47L34 46ZM23 47L23 48L24 48L24 47ZM6 48L6 49L7 49L7 48ZM9 48L9 49L10 49L10 48ZM56 48L56 49L57 49L57 48ZM13 49L13 50L14 50L14 49ZM27 49L27 52L30 52L30 49ZM49 49L49 52L52 52L52 49ZM24 50L24 51L25 51L25 52L26 52L26 50ZM28 50L28 51L29 51L29 50ZM50 50L50 51L51 51L51 50ZM46 52L46 53L47 53L47 52ZM10 53L10 54L9 54L9 55L10 55L10 54L11 54L11 53ZM36 53L36 54L35 54L35 56L38 56L38 54L37 54L37 53ZM51 53L51 55L50 55L50 54L49 54L49 55L50 55L50 56L51 56L51 55L54 55L54 54L53 54L53 53ZM36 54L36 55L37 55L37 54ZM17 55L17 56L18 56L18 55ZM21 55L21 56L24 56L24 57L26 57L26 56L24 56L24 55ZM47 55L47 56L48 56L48 55ZM0 0L0 7L7 7L7 0ZM1 1L1 6L6 6L6 1ZM2 2L2 5L5 5L5 2ZM50 0L50 7L57 7L57 0ZM51 1L51 6L56 6L56 1ZM52 2L52 5L55 5L55 2ZM0 50L0 57L7 57L7 50ZM1 51L1 56L6 56L6 51ZM2 52L2 55L5 55L5 52Z" fill="#000000"/></g></g></svg>
