<?xml version="1.0" encoding="UTF-8"?>
<svg xmlns="http://www.w3.org/2000/svg" version="1.1" width="300" height="300" viewBox="0 0 300 300"><rect x="0" y="0" width="300" height="300" fill="#ffffff"/><g transform="scale(5.263)"><g transform="translate(0,0)"><path fill-rule="evenodd" d="M10 0L10 1L11 1L11 2L9 2L9 1L8 1L8 2L9 2L9 3L8 3L8 4L10 4L10 3L11 3L11 2L12 2L12 3L13 3L13 4L12 4L12 5L14 5L14 7L13 7L13 6L12 6L12 7L11 7L11 6L10 6L10 5L8 5L8 7L9 7L9 6L10 6L10 7L11 7L11 8L6 8L6 9L8 9L8 10L6 10L6 11L5 11L5 12L6 12L6 13L5 13L5 14L4 14L4 13L3 13L3 12L4 12L4 11L3 11L3 9L4 9L4 10L5 10L5 8L0 8L0 9L1 9L1 10L2 10L2 11L0 11L0 13L2 13L2 14L4 14L4 16L5 16L5 17L4 17L4 18L2 18L2 17L3 17L3 15L0 15L0 18L1 18L1 19L0 19L0 20L1 20L1 22L2 22L2 23L0 23L0 24L1 24L1 25L0 25L0 26L1 26L1 27L0 27L0 28L1 28L1 31L0 31L0 32L1 32L1 35L0 35L0 36L1 36L1 37L2 37L2 38L0 38L0 39L2 39L2 41L0 41L0 42L4 42L4 41L5 41L5 39L7 39L7 40L6 40L6 41L7 41L7 40L10 40L10 39L9 39L9 37L10 37L10 38L13 38L13 37L12 37L12 36L14 36L14 35L12 35L12 33L10 33L10 32L12 32L12 28L13 28L13 29L14 29L14 28L15 28L15 29L16 29L16 27L12 27L12 28L9 28L9 25L8 25L8 22L6 22L6 21L7 21L7 20L6 20L6 19L7 19L7 18L8 18L8 17L9 17L9 19L8 19L8 21L9 21L9 20L10 20L10 23L9 23L9 24L10 24L10 26L12 26L12 24L11 24L11 23L12 23L12 21L13 21L13 22L14 22L14 21L13 21L13 20L14 20L14 19L10 19L10 18L12 18L12 17L13 17L13 18L15 18L15 19L17 19L17 18L18 18L18 20L17 20L17 21L16 21L16 20L15 20L15 21L16 21L16 22L15 22L15 23L13 23L13 24L15 24L15 25L18 25L18 26L17 26L17 27L18 27L18 26L19 26L19 28L21 28L21 29L22 29L22 28L21 28L21 27L22 27L22 26L23 26L23 28L25 28L25 27L26 27L26 29L23 29L23 30L25 30L25 31L22 31L22 30L20 30L20 29L18 29L18 28L17 28L17 29L18 29L18 30L19 30L19 31L18 31L18 32L17 32L17 30L15 30L15 31L13 31L13 33L14 33L14 32L16 32L16 33L19 33L19 34L17 34L17 41L18 41L18 43L17 43L17 42L16 42L16 43L15 43L15 44L14 44L14 41L13 41L13 40L14 40L14 39L15 39L15 40L16 40L16 39L15 39L15 38L16 38L16 37L14 37L14 39L13 39L13 40L12 40L12 43L11 43L11 41L9 41L9 42L6 42L6 43L7 43L7 44L5 44L5 45L4 45L4 44L2 44L2 43L1 43L1 45L0 45L0 48L5 48L5 47L7 47L7 48L6 48L6 49L8 49L8 51L9 51L9 52L8 52L8 57L9 57L9 53L10 53L10 54L11 54L11 52L10 52L10 49L12 49L12 51L14 51L14 52L13 52L13 53L16 53L16 54L15 54L15 55L14 55L14 54L13 54L13 55L12 55L12 56L11 56L11 55L10 55L10 56L11 56L11 57L12 57L12 56L13 56L13 55L14 55L14 56L15 56L15 57L20 57L20 56L18 56L18 55L20 55L20 54L19 54L19 53L20 53L20 51L21 51L21 52L23 52L23 51L24 51L24 53L23 53L23 54L24 54L24 53L25 53L25 55L26 55L26 54L30 54L30 53L32 53L32 54L34 54L34 56L30 56L30 55L29 55L29 56L30 56L30 57L38 57L38 56L39 56L39 57L40 57L40 56L41 56L41 57L42 57L42 56L43 56L43 57L44 57L44 56L43 56L43 55L45 55L45 56L46 56L46 57L48 57L48 56L49 56L49 57L51 57L51 56L50 56L50 55L51 55L51 54L50 54L50 53L52 53L52 54L53 54L53 55L52 55L52 57L53 57L53 56L55 56L55 57L56 57L56 56L55 56L55 55L54 55L54 54L53 54L53 52L55 52L55 53L56 53L56 52L57 52L57 51L56 51L56 50L57 50L57 49L55 49L55 51L54 51L54 49L53 49L53 48L55 48L55 47L56 47L56 48L57 48L57 47L56 47L56 44L55 44L55 43L54 43L54 42L57 42L57 41L54 41L54 42L52 42L52 43L49 43L49 42L50 42L50 41L49 41L49 42L48 42L48 41L47 41L47 42L45 42L45 41L46 41L46 39L43 39L43 41L42 41L42 40L41 40L41 42L42 42L42 44L43 44L43 45L41 45L41 47L40 47L40 48L38 48L38 47L39 47L39 46L40 46L40 44L41 44L41 43L39 43L39 42L40 42L40 41L39 41L39 42L38 42L38 39L39 39L39 38L40 38L40 36L43 36L43 37L41 37L41 39L42 39L42 38L45 38L45 37L46 37L46 36L47 36L47 35L48 35L48 34L51 34L51 35L49 35L49 37L47 37L47 40L48 40L48 38L49 38L49 39L50 39L50 40L52 40L52 41L53 41L53 39L54 39L54 40L55 40L55 39L57 39L57 37L56 37L56 36L57 36L57 35L56 35L56 34L54 34L54 32L57 32L57 31L56 31L56 29L54 29L54 28L55 28L55 27L56 27L56 25L57 25L57 23L55 23L55 22L57 22L57 19L55 19L55 18L53 18L53 17L54 17L54 16L55 16L55 17L56 17L56 18L57 18L57 17L56 17L56 16L57 16L57 15L56 15L56 11L52 11L52 12L50 12L50 8L48 8L48 7L49 7L49 6L48 6L48 7L47 7L47 5L48 5L48 0L45 0L45 1L44 1L44 0L42 0L42 1L41 1L41 0L39 0L39 1L38 1L38 0L35 0L35 1L34 1L34 0L33 0L33 1L34 1L34 4L36 4L36 5L37 5L37 6L36 6L36 7L35 7L35 6L34 6L34 8L36 8L36 9L35 9L35 10L34 10L34 9L33 9L33 11L38 11L38 13L37 13L37 12L36 12L36 14L37 14L37 15L40 15L40 16L39 16L39 17L40 17L40 18L37 18L37 17L38 17L38 16L35 16L35 17L36 17L36 18L37 18L37 19L39 19L39 22L38 22L38 21L37 21L37 20L36 20L36 19L35 19L35 18L34 18L34 16L33 16L33 15L35 15L35 14L32 14L32 15L31 15L31 14L30 14L30 13L26 13L26 14L25 14L25 13L24 13L24 12L26 12L26 10L25 10L25 9L27 9L27 10L28 10L28 12L30 12L30 11L31 11L31 10L32 10L32 9L31 9L31 8L32 8L32 7L33 7L33 6L32 6L32 7L31 7L31 5L33 5L33 4L32 4L32 3L33 3L33 2L30 2L30 1L31 1L31 0L29 0L29 1L26 1L26 2L28 2L28 3L29 3L29 2L30 2L30 3L31 3L31 4L26 4L26 3L23 3L23 2L24 2L24 1L25 1L25 0L21 0L21 3L23 3L23 4L22 4L22 5L21 5L21 4L19 4L19 3L20 3L20 1L18 1L18 0L17 0L17 1L16 1L16 2L15 2L15 0L14 0L14 3L13 3L13 2L12 2L12 1L13 1L13 0ZM22 1L22 2L23 2L23 1ZM35 1L35 3L36 3L36 1ZM37 1L37 2L38 2L38 3L37 3L37 4L38 4L38 6L37 6L37 7L36 7L36 8L38 8L38 6L39 6L39 7L40 7L40 8L39 8L39 9L37 9L37 10L39 10L39 9L40 9L40 10L41 10L41 8L42 8L42 5L41 5L41 7L40 7L40 6L39 6L39 5L40 5L40 4L41 4L41 3L40 3L40 2L41 2L41 1L40 1L40 2L38 2L38 1ZM42 1L42 4L43 4L43 8L44 8L44 9L43 9L43 10L42 10L42 11L41 11L41 12L40 12L40 11L39 11L39 12L40 12L40 13L43 13L43 14L44 14L44 17L43 17L43 19L45 19L45 20L44 20L44 21L43 21L43 22L42 22L42 21L41 21L41 20L42 20L42 18L41 18L41 20L40 20L40 21L41 21L41 22L39 22L39 23L41 23L41 24L38 24L38 23L37 23L37 22L36 22L36 21L33 21L33 19L34 19L34 18L33 18L33 16L32 16L32 17L31 17L31 18L29 18L29 19L28 19L28 18L27 18L27 19L25 19L25 18L26 18L26 17L25 17L25 16L27 16L27 17L28 17L28 16L29 16L29 17L30 17L30 16L31 16L31 15L30 15L30 14L26 14L26 15L25 15L25 14L24 14L24 15L23 15L23 16L21 16L21 15L22 15L22 14L23 14L23 13L22 13L22 12L21 12L21 13L19 13L19 15L18 15L18 16L19 16L19 17L20 17L20 21L19 21L19 22L18 22L18 21L17 21L17 22L18 22L18 23L19 23L19 26L20 26L20 27L21 27L21 25L24 25L24 24L25 24L25 25L26 25L26 26L27 26L27 25L28 25L28 26L29 26L29 25L31 25L31 26L32 26L32 25L31 25L31 24L34 24L34 26L33 26L33 27L32 27L32 29L31 29L31 31L25 31L25 32L22 32L22 31L19 31L19 32L20 32L20 34L19 34L19 37L18 37L18 40L19 40L19 39L20 39L20 38L19 38L19 37L22 37L22 39L23 39L23 40L21 40L21 41L19 41L19 42L20 42L20 44L19 44L19 45L20 45L20 46L21 46L21 47L19 47L19 48L20 48L20 50L19 50L19 49L18 49L18 50L19 50L19 51L18 51L18 52L19 52L19 51L20 51L20 50L22 50L22 51L23 51L23 50L24 50L24 49L25 49L25 52L26 52L26 48L31 48L31 47L29 47L29 44L30 44L30 45L31 45L31 46L32 46L32 47L33 47L33 48L32 48L32 49L31 49L31 51L32 51L32 53L34 53L34 54L35 54L35 56L38 56L38 55L39 55L39 56L40 56L40 55L41 55L41 56L42 56L42 55L43 55L43 54L45 54L45 55L46 55L46 56L48 56L48 54L49 54L49 53L48 53L48 50L47 50L47 49L48 49L48 48L49 48L49 47L48 47L48 48L47 48L47 49L46 49L46 47L47 47L47 46L48 46L48 45L49 45L49 46L50 46L50 48L52 48L52 47L51 47L51 46L53 46L53 47L54 47L54 45L55 45L55 44L50 44L50 45L49 45L49 43L48 43L48 42L47 42L47 45L46 45L46 43L45 43L45 44L44 44L44 45L45 45L45 46L42 46L42 48L43 48L43 47L44 47L44 49L45 49L45 50L44 50L44 51L43 51L43 50L41 50L41 48L40 48L40 50L39 50L39 49L38 49L38 50L37 50L37 51L36 51L36 52L38 52L38 54L35 54L35 53L34 53L34 52L33 52L33 51L34 51L34 50L36 50L36 49L35 49L35 48L36 48L36 47L38 47L38 46L39 46L39 43L38 43L38 42L35 42L35 41L36 41L36 40L37 40L37 39L36 39L36 40L35 40L35 36L34 36L34 35L33 35L33 36L32 36L32 38L31 38L31 36L30 36L30 37L29 37L29 36L28 36L28 34L29 34L29 35L30 35L30 34L29 34L29 33L30 33L30 32L32 32L32 33L31 33L31 35L32 35L32 34L33 34L33 33L34 33L34 34L36 34L36 33L35 33L35 32L34 32L34 31L35 31L35 28L36 28L36 25L35 25L35 24L36 24L36 23L37 23L37 24L38 24L38 28L37 28L37 29L36 29L36 32L39 32L39 31L40 31L40 29L43 29L43 27L44 27L44 26L45 26L45 27L46 27L46 28L47 28L47 27L48 27L48 26L47 26L47 25L45 25L45 24L47 24L47 23L46 23L46 22L48 22L48 23L50 23L50 24L51 24L51 25L50 25L50 26L51 26L51 25L53 25L53 28L54 28L54 25L55 25L55 24L53 24L53 23L54 23L54 22L53 22L53 21L54 21L54 20L53 20L53 19L52 19L52 18L51 18L51 17L53 17L53 16L54 16L54 15L55 15L55 13L54 13L54 12L52 12L52 13L50 13L50 12L49 12L49 11L47 11L47 12L44 12L44 11L46 11L46 10L47 10L47 9L48 9L48 8L47 8L47 7L46 7L46 6L45 6L45 5L47 5L47 3L46 3L46 4L45 4L45 3L44 3L44 1ZM45 1L45 2L47 2L47 1ZM16 2L16 3L14 3L14 4L16 4L16 5L15 5L15 7L14 7L14 8L13 8L13 7L12 7L12 8L13 8L13 9L11 9L11 10L9 10L9 11L6 11L6 12L7 12L7 13L6 13L6 14L7 14L7 15L6 15L6 16L7 16L7 17L6 17L6 18L7 18L7 17L8 17L8 16L9 16L9 15L11 15L11 17L12 17L12 16L13 16L13 17L15 17L15 18L17 18L17 17L15 17L15 16L17 16L17 15L15 15L15 14L17 14L17 13L18 13L18 12L17 12L17 13L16 13L16 11L18 11L18 10L19 10L19 11L22 11L22 9L23 9L23 8L24 8L24 6L23 6L23 7L22 7L22 6L21 6L21 7L22 7L22 9L20 9L20 10L19 10L19 9L17 9L17 8L19 8L19 7L20 7L20 5L19 5L19 7L18 7L18 6L17 6L17 3L18 3L18 2ZM43 3L43 4L44 4L44 3ZM23 4L23 5L24 5L24 4ZM25 4L25 8L26 8L26 4ZM27 5L27 8L30 8L30 5ZM16 6L16 7L15 7L15 8L16 8L16 7L17 7L17 6ZM28 6L28 7L29 7L29 6ZM44 6L44 7L45 7L45 8L46 8L46 7L45 7L45 6ZM51 8L51 10L52 10L52 8ZM53 8L53 9L54 9L54 10L57 10L57 9L56 9L56 8L55 8L55 9L54 9L54 8ZM13 9L13 11L12 11L12 10L11 10L11 11L9 11L9 12L8 12L8 13L9 13L9 14L11 14L11 15L13 15L13 16L15 16L15 15L14 15L14 14L13 14L13 13L15 13L15 11L16 11L16 10L15 10L15 9ZM44 9L44 10L46 10L46 9ZM23 10L23 11L24 11L24 10ZM29 10L29 11L30 11L30 10ZM2 11L2 12L3 12L3 11ZM11 11L11 12L9 12L9 13L11 13L11 12L12 12L12 13L13 13L13 12L14 12L14 11L13 11L13 12L12 12L12 11ZM31 12L31 13L32 13L32 12ZM33 12L33 13L35 13L35 12ZM48 12L48 13L47 13L47 14L46 14L46 13L44 13L44 14L46 14L46 17L47 17L47 18L46 18L46 20L45 20L45 22L46 22L46 20L47 20L47 21L48 21L48 22L50 22L50 20L49 20L49 21L48 21L48 20L47 20L47 18L48 18L48 19L49 19L49 18L50 18L50 17L49 17L49 16L50 16L50 15L51 15L51 14L50 14L50 13L49 13L49 12ZM21 13L21 14L22 14L22 13ZM38 13L38 14L39 14L39 13ZM52 13L52 14L53 14L53 15L52 15L52 16L53 16L53 15L54 15L54 13ZM40 14L40 15L42 15L42 14ZM47 14L47 17L48 17L48 16L49 16L49 15L50 15L50 14ZM7 15L7 16L8 16L8 15ZM19 15L19 16L20 16L20 17L21 17L21 16L20 16L20 15ZM24 15L24 16L25 16L25 15ZM27 15L27 16L28 16L28 15ZM1 16L1 17L2 17L2 16ZM40 16L40 17L41 17L41 16ZM24 17L24 18L25 18L25 17ZM44 17L44 18L45 18L45 17ZM21 18L21 19L23 19L23 18ZM32 18L32 19L31 19L31 21L30 21L30 22L29 22L29 21L27 21L27 20L25 20L25 19L24 19L24 21L22 21L22 22L21 22L21 24L20 24L20 25L21 25L21 24L22 24L22 23L23 23L23 24L24 24L24 23L23 23L23 22L24 22L24 21L25 21L25 22L26 22L26 23L25 23L25 24L29 24L29 23L30 23L30 24L31 24L31 23L32 23L32 22L33 22L33 23L34 23L34 24L35 24L35 23L34 23L34 22L33 22L33 21L32 21L32 19L33 19L33 18ZM1 19L1 20L3 20L3 23L4 23L4 24L2 24L2 27L1 27L1 28L2 28L2 29L4 29L4 28L2 28L2 27L3 27L3 26L4 26L4 25L5 25L5 26L7 26L7 25L6 25L6 24L7 24L7 23L6 23L6 22L5 22L5 21L6 21L6 20L4 20L4 19ZM51 19L51 20L52 20L52 19ZM55 20L55 21L56 21L56 20ZM31 21L31 22L30 22L30 23L31 23L31 22L32 22L32 21ZM51 21L51 23L52 23L52 21ZM4 22L4 23L5 23L5 22ZM19 22L19 23L20 23L20 22ZM27 22L27 23L29 23L29 22ZM41 22L41 23L42 23L42 25L41 25L41 26L39 26L39 28L38 28L38 29L39 29L39 28L40 28L40 27L41 27L41 28L42 28L42 27L41 27L41 26L44 26L44 24L45 24L45 23L44 23L44 24L43 24L43 23L42 23L42 22ZM15 23L15 24L16 24L16 23ZM48 24L48 25L49 25L49 24ZM24 26L24 27L25 27L25 26ZM34 26L34 27L33 27L33 28L35 28L35 26ZM5 27L5 30L8 30L8 27ZM27 27L27 30L30 30L30 27ZM49 27L49 30L52 30L52 27ZM6 28L6 29L7 29L7 28ZM28 28L28 29L29 29L29 28ZM44 28L44 30L42 30L42 31L41 31L41 32L40 32L40 33L38 33L38 36L37 36L37 37L36 37L36 38L39 38L39 36L40 36L40 35L39 35L39 34L41 34L41 35L43 35L43 34L41 34L41 33L43 33L43 31L44 31L44 37L45 37L45 34L46 34L46 35L47 35L47 34L48 34L48 32L49 32L49 33L50 33L50 31L48 31L48 29L45 29L45 28ZM50 28L50 29L51 29L51 28ZM9 29L9 32L10 32L10 31L11 31L11 30L10 30L10 29ZM32 30L32 32L33 32L33 31L34 31L34 30ZM37 30L37 31L39 31L39 30ZM45 30L45 33L46 33L46 30ZM53 30L53 31L52 31L52 32L51 32L51 34L52 34L52 37L51 37L51 36L50 36L50 37L51 37L51 38L50 38L50 39L51 39L51 38L52 38L52 39L53 39L53 38L54 38L54 39L55 39L55 38L56 38L56 37L55 37L55 36L53 36L53 32L54 32L54 30ZM1 31L1 32L3 32L3 33L2 33L2 35L3 35L3 36L2 36L2 37L4 37L4 36L5 36L5 38L8 38L8 36L7 36L7 35L4 35L4 34L3 34L3 33L4 33L4 32L8 32L8 31ZM25 32L25 33L23 33L23 34L25 34L25 35L24 35L24 36L23 36L23 37L24 37L24 38L23 38L23 39L24 39L24 40L23 40L23 41L24 41L24 43L23 43L23 42L22 42L22 43L21 43L21 44L22 44L22 45L21 45L21 46L22 46L22 45L23 45L23 46L24 46L24 47L25 47L25 45L23 45L23 44L24 44L24 43L25 43L25 44L27 44L27 45L28 45L28 44L29 44L29 43L31 43L31 42L32 42L32 41L31 41L31 40L32 40L32 39L33 39L33 40L34 40L34 38L32 38L32 39L31 39L31 38L29 38L29 40L28 40L28 39L27 39L27 38L28 38L28 37L26 37L26 36L27 36L27 35L26 35L26 34L25 34L25 33L26 33L26 32ZM28 32L28 33L27 33L27 34L28 34L28 33L29 33L29 32ZM6 33L6 34L7 34L7 33ZM8 34L8 35L9 35L9 34ZM10 35L10 36L12 36L12 35ZM25 35L25 36L26 36L26 35ZM6 36L6 37L7 37L7 36ZM25 37L25 38L26 38L26 37ZM54 37L54 38L55 38L55 37ZM3 38L3 41L4 41L4 38ZM25 39L25 40L24 40L24 41L25 41L25 43L28 43L28 42L29 42L29 41L27 41L27 40L26 40L26 39ZM44 40L44 41L43 41L43 42L44 42L44 41L45 41L45 40ZM26 41L26 42L27 42L27 41ZM30 41L30 42L31 42L31 41ZM33 41L33 43L32 43L32 44L31 44L31 45L32 45L32 46L33 46L33 45L32 45L32 44L33 44L33 43L34 43L34 44L35 44L35 45L37 45L37 46L38 46L38 45L37 45L37 44L35 44L35 43L34 43L34 41ZM9 42L9 43L8 43L8 45L5 45L5 46L4 46L4 45L2 45L2 46L1 46L1 47L2 47L2 46L3 46L3 47L5 47L5 46L10 46L10 47L9 47L9 49L10 49L10 47L11 47L11 45L12 45L12 46L13 46L13 47L12 47L12 48L13 48L13 47L14 47L14 46L16 46L16 47L15 47L15 48L14 48L14 50L15 50L15 52L16 52L16 53L17 53L17 54L18 54L18 53L17 53L17 51L16 51L16 50L17 50L17 49L15 49L15 48L18 48L18 47L17 47L17 45L18 45L18 44L17 44L17 43L16 43L16 45L13 45L13 43L12 43L12 44L11 44L11 45L10 45L10 42ZM26 46L26 47L28 47L28 46ZM45 46L45 47L46 47L46 46ZM21 47L21 48L23 48L23 49L22 49L22 50L23 50L23 49L24 49L24 48L23 48L23 47ZM34 47L34 48L33 48L33 49L32 49L32 51L33 51L33 49L34 49L34 48L35 48L35 47ZM27 49L27 52L30 52L30 49ZM49 49L49 52L52 52L52 49ZM28 50L28 51L29 51L29 50ZM40 50L40 52L39 52L39 53L40 53L40 52L43 52L43 53L41 53L41 54L43 54L43 53L44 53L44 52L43 52L43 51L41 51L41 50ZM45 50L45 51L46 51L46 50ZM50 50L50 51L51 51L51 50ZM55 51L55 52L56 52L56 51ZM45 52L45 54L46 54L46 55L47 55L47 54L46 54L46 53L47 53L47 52ZM39 54L39 55L40 55L40 54ZM15 55L15 56L16 56L16 55ZM21 55L21 56L22 56L22 55ZM23 55L23 56L24 56L24 55ZM27 55L27 56L28 56L28 55ZM25 56L25 57L26 57L26 56ZM0 0L0 7L7 7L7 0ZM1 1L1 6L6 6L6 1ZM2 2L2 5L5 5L5 2ZM50 0L50 7L57 7L57 0ZM51 1L51 6L56 6L56 1ZM52 2L52 5L55 5L55 2ZM0 50L0 57L7 57L7 50ZM1 51L1 56L6 56L6 51ZM2 52L2 55L5 55L5 52Z" fill="#000000"/></g></g></svg>
