<?xml version="1.0" encoding="UTF-8"?>
<svg xmlns="http://www.w3.org/2000/svg" version="1.1" width="300" height="300" viewBox="0 0 300 300"><rect x="0" y="0" width="300" height="300" fill="#ffffff"/><g transform="scale(5.263)"><g transform="translate(0,0)"><path fill-rule="evenodd" d="M11 0L11 2L12 2L12 1L13 1L13 0ZM14 0L14 1L15 1L15 2L16 2L16 1L15 1L15 0ZM18 0L18 1L17 1L17 2L18 2L18 3L17 3L17 4L18 4L18 7L17 7L17 6L16 6L16 7L15 7L15 6L14 6L14 5L13 5L13 4L14 4L14 3L13 3L13 4L12 4L12 8L10 8L10 7L11 7L11 6L10 6L10 7L9 7L9 5L10 5L10 1L8 1L8 2L9 2L9 3L8 3L8 4L9 4L9 5L8 5L8 7L9 7L9 8L6 8L6 9L5 9L5 8L0 8L0 18L1 18L1 17L2 17L2 14L3 14L3 13L2 13L2 12L1 12L1 10L3 10L3 11L4 11L4 10L3 10L3 9L5 9L5 10L6 10L6 11L5 11L5 12L4 12L4 13L5 13L5 12L6 12L6 13L7 13L7 14L6 14L6 15L7 15L7 16L5 16L5 15L3 15L3 18L2 18L2 19L0 19L0 22L1 22L1 21L3 21L3 22L2 22L2 23L0 23L0 24L1 24L1 25L0 25L0 26L1 26L1 25L4 25L4 24L5 24L5 26L4 26L4 29L2 29L2 30L0 30L0 31L2 31L2 33L3 33L3 34L1 34L1 32L0 32L0 34L1 34L1 35L0 35L0 37L1 37L1 38L0 38L0 39L1 39L1 40L0 40L0 41L1 41L1 42L0 42L0 43L1 43L1 44L0 44L0 45L2 45L2 47L1 47L1 46L0 46L0 48L5 48L5 47L7 47L7 46L8 46L8 45L9 45L9 47L8 47L8 48L6 48L6 49L8 49L8 51L9 51L9 52L8 52L8 57L9 57L9 54L10 54L10 53L11 53L11 55L10 55L10 57L12 57L12 55L13 55L13 54L12 54L12 53L11 53L11 51L12 51L12 52L13 52L13 53L16 53L16 54L14 54L14 55L16 55L16 57L17 57L17 54L18 54L18 53L20 53L20 52L18 52L18 53L16 53L16 52L17 52L17 51L12 51L12 50L14 50L14 49L15 49L15 50L16 50L16 49L17 49L17 50L20 50L20 49L22 49L22 50L21 50L21 51L22 51L22 52L24 52L24 53L21 53L21 56L22 56L22 55L23 55L23 57L24 57L24 55L23 55L23 54L24 54L24 53L25 53L25 56L27 56L27 57L29 57L29 56L30 56L30 57L35 57L35 56L36 56L36 57L37 57L37 56L36 56L36 55L37 55L37 54L38 54L38 53L37 53L37 52L38 52L38 51L39 51L39 52L41 52L41 53L40 53L40 54L41 54L41 55L42 55L42 54L43 54L43 55L44 55L44 56L41 56L41 57L44 57L44 56L45 56L45 55L49 55L49 56L48 56L48 57L49 57L49 56L50 56L50 57L51 57L51 56L50 56L50 55L51 55L51 54L52 54L52 53L53 53L53 54L54 54L54 53L55 53L55 52L57 52L57 51L56 51L56 50L55 50L55 49L56 49L56 48L57 48L57 47L56 47L56 46L57 46L57 44L56 44L56 42L54 42L54 41L55 41L55 39L57 39L57 35L56 35L56 34L57 34L57 33L56 33L56 34L51 34L51 36L52 36L52 37L54 37L54 38L53 38L53 40L52 40L52 41L51 41L51 39L52 39L52 38L51 38L51 37L49 37L49 36L48 36L48 38L47 38L47 40L48 40L48 42L46 42L46 44L45 44L45 46L46 46L46 47L45 47L45 49L47 49L47 48L46 48L46 47L48 47L48 46L46 46L46 44L47 44L47 43L49 43L49 44L48 44L48 45L50 45L50 46L49 46L49 47L50 47L50 46L51 46L51 45L52 45L52 44L56 44L56 45L53 45L53 46L52 46L52 48L48 48L48 52L47 52L47 50L45 50L45 51L42 51L42 52L41 52L41 50L44 50L44 48L43 48L43 47L44 47L44 40L42 40L42 41L41 41L41 43L40 43L40 41L39 41L39 40L41 40L41 39L39 39L39 40L38 40L38 39L37 39L37 40L35 40L35 41L36 41L36 42L37 42L37 43L35 43L35 45L36 45L36 46L35 46L35 47L34 47L34 46L33 46L33 47L32 47L32 48L33 48L33 49L31 49L31 48L30 48L30 47L31 47L31 46L32 46L32 44L33 44L33 43L34 43L34 41L33 41L33 43L31 43L31 42L32 42L32 41L29 41L29 40L28 40L28 39L27 39L27 38L28 38L28 37L27 37L27 36L26 36L26 35L29 35L29 37L31 37L31 38L29 38L29 39L31 39L31 40L32 40L32 39L31 39L31 38L32 38L32 36L33 36L33 37L35 37L35 38L34 38L34 39L33 39L33 40L34 40L34 39L35 39L35 38L38 38L38 35L37 35L37 36L36 36L36 35L35 35L35 34L34 34L34 33L32 33L32 32L33 32L33 31L31 31L31 28L34 28L34 29L39 29L39 30L36 30L36 32L35 32L35 31L34 31L34 32L35 32L35 33L36 33L36 34L38 34L38 32L40 32L40 30L41 30L41 32L42 32L42 33L40 33L40 34L39 34L39 36L40 36L40 35L41 35L41 38L44 38L44 39L45 39L45 41L46 41L46 38L44 38L44 33L43 33L43 32L45 32L45 33L46 33L46 32L48 32L48 31L49 31L49 33L50 33L50 32L51 32L51 33L53 33L53 32L54 32L54 33L55 33L55 31L56 31L56 30L57 30L57 27L55 27L55 26L57 26L57 23L55 23L55 22L57 22L57 19L56 19L56 16L57 16L57 15L56 15L56 16L55 16L55 14L57 14L57 13L56 13L56 12L57 12L57 11L56 11L56 10L55 10L55 9L56 9L56 8L55 8L55 9L54 9L54 8L53 8L53 9L52 9L52 8L51 8L51 9L52 9L52 10L50 10L50 8L49 8L49 9L48 9L48 7L49 7L49 6L48 6L48 7L47 7L47 5L48 5L48 0L44 0L44 1L43 1L43 0L41 0L41 1L43 1L43 2L39 2L39 1L40 1L40 0L39 0L39 1L38 1L38 0L37 0L37 1L38 1L38 2L37 2L37 3L36 3L36 2L35 2L35 1L34 1L34 2L35 2L35 3L36 3L36 4L35 4L35 5L34 5L34 8L36 8L36 9L35 9L35 10L34 10L34 9L33 9L33 11L31 11L31 13L32 13L32 14L33 14L33 15L32 15L32 16L31 16L31 14L30 14L30 13L29 13L29 14L28 14L28 13L27 13L27 12L26 12L26 11L25 11L25 9L26 9L26 10L27 10L27 11L28 11L28 12L30 12L30 10L32 10L32 9L31 9L31 8L32 8L32 7L33 7L33 5L32 5L32 7L31 7L31 4L32 4L32 3L33 3L33 4L34 4L34 3L33 3L33 1L31 1L31 0L30 0L30 1L31 1L31 2L32 2L32 3L29 3L29 2L28 2L28 1L29 1L29 0L27 0L27 2L28 2L28 3L27 3L27 4L26 4L26 3L23 3L23 4L19 4L19 3L20 3L20 2L21 2L21 1L20 1L20 0ZM23 0L23 1L25 1L25 2L26 2L26 0ZM18 1L18 2L19 2L19 1ZM44 1L44 2L43 2L43 3L44 3L44 4L43 4L43 5L40 5L40 4L42 4L42 3L39 3L39 2L38 2L38 3L37 3L37 4L38 4L38 5L39 5L39 7L40 7L40 8L39 8L39 9L38 9L38 6L37 6L37 5L35 5L35 7L36 7L36 8L37 8L37 9L36 9L36 10L37 10L37 11L34 11L34 13L33 13L33 12L32 12L32 13L33 13L33 14L35 14L35 12L37 12L37 13L36 13L36 15L41 15L41 13L43 13L43 12L44 12L44 15L45 15L45 16L44 16L44 17L45 17L45 18L41 18L41 16L38 16L38 18L36 18L36 17L34 17L34 16L35 16L35 15L34 15L34 16L32 16L32 18L30 18L30 17L29 17L29 18L30 18L30 19L29 19L29 20L28 20L28 18L27 18L27 17L28 17L28 16L30 16L30 14L29 14L29 15L28 15L28 14L27 14L27 13L25 13L25 15L24 15L24 14L23 14L23 13L22 13L22 12L21 12L21 13L20 13L20 12L19 12L19 13L20 13L20 14L21 14L21 13L22 13L22 15L23 15L23 16L21 16L21 15L19 15L19 14L17 14L17 13L18 13L18 12L17 12L17 13L16 13L16 12L15 12L15 13L13 13L13 12L14 12L14 11L13 11L13 12L11 12L11 11L12 11L12 10L11 10L11 11L10 11L10 12L11 12L11 13L9 13L9 12L8 12L8 11L9 11L9 10L10 10L10 9L9 9L9 10L7 10L7 9L6 9L6 10L7 10L7 11L6 11L6 12L7 12L7 13L8 13L8 15L9 15L9 14L11 14L11 13L13 13L13 14L15 14L15 13L16 13L16 16L14 16L14 15L11 15L11 16L9 16L9 17L8 17L8 20L10 20L10 21L6 21L6 20L7 20L7 19L6 19L6 18L7 18L7 17L6 17L6 18L5 18L5 17L4 17L4 18L3 18L3 19L2 19L2 20L4 20L4 21L6 21L6 22L9 22L9 24L8 24L8 23L5 23L5 24L8 24L8 25L6 25L6 26L10 26L10 25L13 25L13 26L12 26L12 27L11 27L11 28L12 28L12 27L13 27L13 26L15 26L15 27L14 27L14 31L12 31L12 30L13 30L13 29L10 29L10 33L9 33L9 31L8 31L8 32L7 32L7 31L6 31L6 32L4 32L4 31L3 31L3 30L2 30L2 31L3 31L3 32L4 32L4 34L3 34L3 35L4 35L4 36L2 36L2 35L1 35L1 37L4 37L4 36L9 36L9 37L10 37L10 40L11 40L11 41L9 41L9 40L8 40L8 41L6 41L6 42L7 42L7 43L6 43L6 44L7 44L7 45L6 45L6 46L7 46L7 45L8 45L8 44L7 44L7 43L9 43L9 42L12 42L12 40L13 40L13 41L14 41L14 40L13 40L13 39L12 39L12 40L11 40L11 36L12 36L12 35L13 35L13 34L14 34L14 35L16 35L16 34L17 34L17 36L15 36L15 37L13 37L13 38L14 38L14 39L16 39L16 40L15 40L15 41L16 41L16 43L15 43L15 42L14 42L14 43L15 43L15 45L16 45L16 46L17 46L17 45L18 45L18 44L17 44L17 43L18 43L18 42L20 42L20 43L19 43L19 45L20 45L20 47L19 47L19 46L18 46L18 47L19 47L19 49L20 49L20 47L21 47L21 48L22 48L22 49L24 49L24 48L29 48L29 47L30 47L30 46L31 46L31 45L30 45L30 46L29 46L29 41L27 41L27 39L26 39L26 37L25 37L25 40L24 40L24 39L23 39L23 38L24 38L24 37L23 37L23 33L25 33L25 34L24 34L24 35L25 35L25 34L29 34L29 35L30 35L30 34L29 34L29 33L30 33L30 32L31 32L31 31L30 31L30 32L29 32L29 31L28 31L28 32L29 32L29 33L27 33L27 32L26 32L26 30L25 30L25 32L23 32L23 26L22 26L22 25L25 25L25 26L24 26L24 29L26 29L26 28L25 28L25 27L26 27L26 25L27 25L27 24L25 24L25 23L26 23L26 22L25 22L25 21L29 21L29 20L30 20L30 21L31 21L31 19L34 19L34 20L35 20L35 21L33 21L33 20L32 20L32 21L33 21L33 22L32 22L32 23L31 23L31 22L30 22L30 23L29 23L29 22L27 22L27 23L29 23L29 24L28 24L28 26L30 26L30 25L31 25L31 26L32 26L32 25L31 25L31 24L34 24L34 26L33 26L33 27L34 27L34 28L39 28L39 29L43 29L43 31L44 31L44 29L45 29L45 30L46 30L46 31L47 31L47 30L48 30L48 29L45 29L45 27L48 27L48 26L47 26L47 25L46 25L46 24L48 24L48 25L49 25L49 24L48 24L48 23L50 23L50 24L51 24L51 25L50 25L50 26L51 26L51 25L52 25L52 26L53 26L53 27L54 27L54 25L55 25L55 24L51 24L51 22L52 22L52 23L53 23L53 21L54 21L54 20L50 20L50 19L51 19L51 18L54 18L54 19L55 19L55 18L54 18L54 17L55 17L55 16L54 16L54 14L53 14L53 13L54 13L54 12L51 12L51 11L50 11L50 10L48 10L48 9L46 9L46 8L47 8L47 7L46 7L46 6L45 6L45 5L47 5L47 3L46 3L46 4L45 4L45 2L47 2L47 1ZM28 3L28 4L29 4L29 3ZM38 3L38 4L39 4L39 3ZM15 4L15 5L16 5L16 4ZM23 4L23 5L22 5L22 6L21 6L21 7L22 7L22 8L19 8L19 7L20 7L20 5L19 5L19 7L18 7L18 8L17 8L17 7L16 7L16 8L14 8L14 9L13 9L13 10L14 10L14 9L15 9L15 10L16 10L16 11L18 11L18 10L19 10L19 11L22 11L22 10L21 10L21 9L23 9L23 10L24 10L24 9L25 9L25 8L26 8L26 4L25 4L25 8L24 8L24 6L23 6L23 5L24 5L24 4ZM44 4L44 5L45 5L45 4ZM27 5L27 8L30 8L30 5ZM13 6L13 7L14 7L14 6ZM22 6L22 7L23 7L23 6ZM28 6L28 7L29 7L29 6ZM36 6L36 7L37 7L37 6ZM40 6L40 7L41 7L41 6ZM42 6L42 9L41 9L41 10L39 10L39 11L38 11L38 13L37 13L37 14L38 14L38 13L39 13L39 11L40 11L40 12L41 12L41 10L42 10L42 11L47 11L47 14L45 14L45 15L47 15L47 14L49 14L49 15L51 15L51 16L50 16L50 17L47 17L47 18L46 18L46 20L45 20L45 21L44 21L44 20L42 20L42 21L41 21L41 23L40 23L40 22L39 22L39 23L40 23L40 24L36 24L36 23L37 23L37 22L38 22L38 21L37 21L37 20L38 20L38 19L37 19L37 20L36 20L36 18L34 18L34 17L33 17L33 18L34 18L34 19L35 19L35 20L36 20L36 22L34 22L34 24L35 24L35 25L37 25L37 26L34 26L34 27L39 27L39 26L40 26L40 28L41 28L41 27L42 27L42 28L43 28L43 29L44 29L44 27L45 27L45 25L44 25L44 24L46 24L46 23L44 23L44 24L43 24L43 23L42 23L42 22L45 22L45 21L46 21L46 20L47 20L47 21L48 21L48 22L47 22L47 23L48 23L48 22L50 22L50 21L48 21L48 20L47 20L47 19L50 19L50 17L51 17L51 16L52 16L52 15L53 15L53 14L49 14L49 13L51 13L51 12L49 12L49 11L48 11L48 10L43 10L43 9L44 9L44 8L45 8L45 6L44 6L44 7L43 7L43 6ZM18 8L18 9L17 9L17 10L18 10L18 9L19 9L19 10L20 10L20 9L19 9L19 8ZM23 8L23 9L24 9L24 8ZM27 9L27 10L28 10L28 9ZM29 9L29 10L30 10L30 9ZM37 9L37 10L38 10L38 9ZM53 9L53 11L55 11L55 12L56 12L56 11L55 11L55 10L54 10L54 9ZM45 12L45 13L46 13L46 12ZM48 12L48 13L49 13L49 12ZM1 13L1 14L2 14L2 13ZM42 14L42 15L43 15L43 14ZM17 15L17 19L16 19L16 20L15 20L15 21L16 21L16 22L15 22L15 23L16 23L16 25L18 25L18 26L16 26L16 27L18 27L18 26L19 26L19 28L20 28L20 29L18 29L18 28L16 28L16 29L15 29L15 30L16 30L16 29L18 29L18 30L17 30L17 31L19 31L19 32L17 32L17 33L19 33L19 35L20 35L20 33L19 33L19 32L20 32L20 31L21 31L21 32L22 32L22 31L21 31L21 30L20 30L20 29L22 29L22 28L21 28L21 27L22 27L22 26L21 26L21 27L20 27L20 26L19 26L19 24L18 24L18 23L20 23L20 22L18 22L18 23L17 23L17 21L20 21L20 19L19 19L19 18L20 18L20 16L19 16L19 15ZM27 15L27 16L25 16L25 17L23 17L23 18L22 18L22 17L21 17L21 18L22 18L22 19L21 19L21 20L23 20L23 19L24 19L24 18L25 18L25 20L24 20L24 21L21 21L21 22L24 22L24 21L25 21L25 20L26 20L26 18L25 18L25 17L27 17L27 16L28 16L28 15ZM11 16L11 17L10 17L10 20L11 20L11 21L10 21L10 22L13 22L13 23L14 23L14 21L12 21L12 20L11 20L11 19L13 19L13 20L14 20L14 19L13 19L13 17L14 17L14 18L15 18L15 17L14 17L14 16ZM42 16L42 17L43 17L43 16ZM45 16L45 17L46 17L46 16ZM11 17L11 18L12 18L12 17ZM18 17L18 18L19 18L19 17ZM39 17L39 20L41 20L41 18L40 18L40 17ZM5 19L5 20L6 20L6 19ZM17 19L17 20L16 20L16 21L17 21L17 20L18 20L18 19ZM3 22L3 23L2 23L2 24L4 24L4 22ZM21 23L21 24L20 24L20 25L22 25L22 23ZM23 23L23 24L24 24L24 23ZM30 23L30 24L29 24L29 25L30 25L30 24L31 24L31 23ZM41 23L41 24L40 24L40 26L41 26L41 24L42 24L42 23ZM9 24L9 25L10 25L10 24ZM14 24L14 25L15 25L15 24ZM38 25L38 26L39 26L39 25ZM0 27L0 29L1 29L1 28L2 28L2 27ZM5 27L5 30L8 30L8 27ZM9 27L9 28L10 28L10 27ZM27 27L27 30L30 30L30 27ZM49 27L49 30L52 30L52 27ZM6 28L6 29L7 29L7 28ZM28 28L28 29L29 29L29 28ZM50 28L50 29L51 29L51 28ZM53 28L53 29L54 29L54 31L55 31L55 30L56 30L56 28L55 28L55 29L54 29L54 28ZM32 29L32 30L33 30L33 29ZM19 30L19 31L20 31L20 30ZM11 31L11 32L12 32L12 33L10 33L10 34L11 34L11 35L9 35L9 33L8 33L8 35L9 35L9 36L11 36L11 35L12 35L12 34L13 34L13 33L16 33L16 32L15 32L15 31L14 31L14 32L12 32L12 31ZM51 31L51 32L52 32L52 31ZM6 32L6 33L7 33L7 32ZM47 33L47 34L45 34L45 37L47 37L47 36L46 36L46 35L47 35L47 34L48 34L48 35L50 35L50 34L48 34L48 33ZM4 34L4 35L7 35L7 34ZM21 34L21 35L22 35L22 34ZM31 34L31 36L32 36L32 34ZM42 34L42 35L43 35L43 34ZM52 35L52 36L54 36L54 37L55 37L55 38L54 38L54 39L55 39L55 38L56 38L56 35L55 35L55 36L54 36L54 35ZM17 36L17 37L19 37L19 38L20 38L20 39L18 39L18 40L16 40L16 41L17 41L17 42L18 42L18 41L21 41L21 38L23 38L23 37L19 37L19 36ZM35 36L35 37L36 37L36 36ZM42 36L42 37L43 37L43 36ZM6 37L6 38L1 38L1 39L3 39L3 41L4 41L4 42L3 42L3 44L2 44L2 45L3 45L3 47L5 47L5 44L4 44L4 42L5 42L5 39L6 39L6 40L7 40L7 39L9 39L9 38L8 38L8 37ZM15 37L15 38L16 38L16 37ZM6 38L6 39L7 39L7 38ZM48 38L48 40L49 40L49 39L51 39L51 38ZM53 40L53 41L52 41L52 42L50 42L50 45L51 45L51 43L54 43L54 42L53 42L53 41L54 41L54 40ZM8 41L8 42L9 42L9 41ZM22 41L22 43L20 43L20 45L21 45L21 47L22 47L22 48L23 48L23 47L22 47L22 45L23 45L23 46L24 46L24 47L25 47L25 45L24 45L24 44L25 44L25 41L24 41L24 44L23 44L23 41ZM26 41L26 42L27 42L27 41ZM38 41L38 42L39 42L39 41ZM42 42L42 43L43 43L43 42ZM10 43L10 44L9 44L9 45L10 45L10 44L12 44L12 46L13 46L13 47L11 47L11 49L12 49L12 48L13 48L13 49L14 49L14 48L13 48L13 47L15 47L15 46L14 46L14 44L13 44L13 43ZM26 43L26 45L27 45L27 43ZM38 43L38 44L37 44L37 45L38 45L38 47L36 47L36 48L34 48L34 47L33 47L33 48L34 48L34 49L33 49L33 50L31 50L31 51L33 51L33 52L32 52L32 53L30 53L30 54L29 54L29 53L28 53L28 54L27 54L27 55L30 55L30 56L34 56L34 54L35 54L35 55L36 55L36 54L35 54L35 53L34 53L34 52L36 52L36 50L35 50L35 49L36 49L36 48L37 48L37 49L38 49L38 50L37 50L37 51L38 51L38 50L39 50L39 51L40 51L40 50L39 50L39 49L42 49L42 47L41 47L41 46L39 46L39 45L41 45L41 44L39 44L39 43ZM3 44L3 45L4 45L4 44ZM16 44L16 45L17 45L17 44ZM21 44L21 45L22 45L22 44ZM42 44L42 45L43 45L43 44ZM26 46L26 47L27 47L27 46ZM28 46L28 47L29 47L29 46ZM16 47L16 48L17 48L17 47ZM38 47L38 49L39 49L39 48L40 48L40 47ZM8 48L8 49L9 49L9 51L10 51L10 48ZM53 48L53 49L54 49L54 48ZM27 49L27 52L30 52L30 49ZM49 49L49 52L52 52L52 49ZM22 50L22 51L25 51L25 53L26 53L26 50ZM28 50L28 51L29 51L29 50ZM33 50L33 51L35 51L35 50ZM50 50L50 51L51 51L51 50ZM53 50L53 51L54 51L54 50ZM45 51L45 52L44 52L44 55L45 55L45 54L48 54L48 53L46 53L46 51ZM53 52L53 53L54 53L54 52ZM32 53L32 55L33 55L33 54L34 54L34 53ZM50 53L50 54L49 54L49 55L50 55L50 54L51 54L51 53ZM19 54L19 55L20 55L20 54ZM52 55L52 56L53 56L53 57L56 57L56 56L55 56L55 55ZM13 56L13 57L14 57L14 56ZM18 56L18 57L19 57L19 56ZM0 0L0 7L7 7L7 0ZM1 1L1 6L6 6L6 1ZM2 2L2 5L5 5L5 2ZM50 0L50 7L57 7L57 0ZM51 1L51 6L56 6L56 1ZM52 2L52 5L55 5L55 2ZM0 50L0 57L7 57L7 50ZM1 51L1 56L6 56L6 51ZM2 52L2 55L5 55L5 52Z" fill="#000000"/></g></g></svg>
