<?xml version="1.0" encoding="UTF-8"?>
<svg xmlns="http://www.w3.org/2000/svg" version="1.1" width="300" height="300" viewBox="0 0 300 300"><rect x="0" y="0" width="300" height="300" fill="#ffffff"/><g transform="scale(5.263)"><g transform="translate(0,0)"><path fill-rule="evenodd" d="M8 0L8 4L9 4L9 5L8 5L8 7L9 7L9 5L10 5L10 9L8 9L8 10L6 10L6 11L5 11L5 9L7 9L7 8L4 8L4 9L3 9L3 10L1 10L1 9L2 9L2 8L0 8L0 11L1 11L1 13L0 13L0 15L1 15L1 16L4 16L4 14L3 14L3 15L1 15L1 13L7 13L7 12L6 12L6 11L8 11L8 10L9 10L9 11L12 11L12 12L9 12L9 14L8 14L8 15L7 15L7 14L5 14L5 15L7 15L7 16L5 16L5 17L4 17L4 19L5 19L5 18L6 18L6 19L8 19L8 20L4 20L4 21L7 21L7 22L6 22L6 23L5 23L5 24L6 24L6 25L4 25L4 23L3 23L3 21L2 21L2 20L3 20L3 18L0 18L0 19L1 19L1 20L0 20L0 22L1 22L1 21L2 21L2 23L3 23L3 25L2 25L2 26L1 26L1 27L0 27L0 28L3 28L3 29L4 29L4 31L3 31L3 30L2 30L2 29L1 29L1 30L0 30L0 31L1 31L1 32L0 32L0 33L1 33L1 32L2 32L2 31L3 31L3 32L4 32L4 34L5 34L5 35L4 35L4 36L3 36L3 37L2 37L2 38L4 38L4 40L3 40L3 39L2 39L2 40L3 40L3 44L4 44L4 45L1 45L1 43L2 43L2 42L1 42L1 43L0 43L0 45L1 45L1 46L0 46L0 48L5 48L5 47L7 47L7 48L6 48L6 49L8 49L8 50L9 50L9 51L8 51L8 53L9 53L9 51L10 51L10 52L11 52L11 53L10 53L10 54L9 54L9 55L8 55L8 57L9 57L9 55L12 55L12 56L10 56L10 57L14 57L14 55L16 55L16 54L17 54L17 53L18 53L18 54L19 54L19 55L17 55L17 57L19 57L19 55L20 55L20 54L21 54L21 55L24 55L24 57L25 57L25 56L26 56L26 57L27 57L27 55L26 55L26 54L27 54L27 53L28 53L28 57L29 57L29 55L30 55L30 57L31 57L31 54L32 54L32 55L35 55L35 56L34 56L34 57L39 57L39 56L38 56L38 55L40 55L40 54L39 54L39 52L38 52L38 55L35 55L35 54L34 54L34 53L36 53L36 54L37 54L37 51L39 51L39 49L40 49L40 47L41 47L41 46L43 46L43 47L44 47L44 49L45 49L45 50L43 50L43 48L41 48L41 56L42 56L42 54L46 54L46 55L44 55L44 57L45 57L45 56L46 56L46 57L49 57L49 56L50 56L50 54L52 54L52 55L51 55L51 57L53 57L53 56L52 56L52 55L54 55L54 54L57 54L57 52L56 52L56 53L53 53L53 49L54 49L54 50L55 50L55 51L56 51L56 50L57 50L57 47L56 47L56 46L57 46L57 45L56 45L56 41L57 41L57 40L52 40L52 39L53 39L53 38L54 38L54 39L57 39L57 38L56 38L56 36L57 36L57 35L56 35L56 34L57 34L57 32L56 32L56 31L55 31L55 32L54 32L54 34L55 34L55 35L56 35L56 36L55 36L55 38L54 38L54 36L53 36L53 35L52 35L52 36L51 36L51 35L50 35L50 34L52 34L52 33L53 33L53 29L54 29L54 30L55 30L55 29L57 29L57 27L56 27L56 28L53 28L53 27L54 27L54 26L55 26L55 24L57 24L57 23L55 23L55 24L54 24L54 26L51 26L51 25L52 25L52 23L54 23L54 22L55 22L55 21L57 21L57 20L56 20L56 17L57 17L57 16L56 16L56 14L55 14L55 13L56 13L56 12L54 12L54 13L52 13L52 12L50 12L50 11L51 11L51 10L53 10L53 11L56 11L56 10L55 10L55 9L57 9L57 8L53 8L53 9L52 9L52 8L51 8L51 9L49 9L49 6L48 6L48 9L47 9L47 11L44 11L44 10L43 10L43 9L42 9L42 8L41 8L41 6L40 6L40 5L42 5L42 7L43 7L43 8L44 8L44 9L45 9L45 8L46 8L46 7L47 7L47 5L48 5L48 0L46 0L46 1L44 1L44 3L43 3L43 2L42 2L42 1L43 1L43 0L42 0L42 1L41 1L41 0L40 0L40 1L41 1L41 2L39 2L39 3L40 3L40 5L39 5L39 4L38 4L38 3L37 3L37 1L33 1L33 0L32 0L32 1L33 1L33 2L32 2L32 3L31 3L31 2L30 2L30 1L31 1L31 0L30 0L30 1L29 1L29 0L26 0L26 1L25 1L25 0L24 0L24 1L23 1L23 0L20 0L20 1L19 1L19 0L18 0L18 1L16 1L16 0L15 0L15 1L16 1L16 2L12 2L12 1L13 1L13 0L12 0L12 1L11 1L11 0ZM38 0L38 1L39 1L39 0ZM18 1L18 3L17 3L17 4L16 4L16 3L14 3L14 5L13 5L13 4L10 4L10 3L11 3L11 2L9 2L9 4L10 4L10 5L12 5L12 6L11 6L11 8L12 8L12 9L11 9L11 10L12 10L12 11L13 11L13 13L15 13L15 14L17 14L17 13L18 13L18 12L19 12L19 11L22 11L22 12L23 12L23 10L22 10L22 9L26 9L26 10L24 10L24 11L26 11L26 12L24 12L24 13L27 13L27 12L28 12L28 13L30 13L30 16L29 16L29 17L31 17L31 18L30 18L30 19L29 19L29 18L28 18L28 17L27 17L27 18L26 18L26 16L27 16L27 14L26 14L26 16L22 16L22 15L20 15L20 13L21 13L21 14L23 14L23 15L24 15L24 14L23 14L23 13L21 13L21 12L20 12L20 13L19 13L19 15L20 15L20 16L19 16L19 17L16 17L16 18L17 18L17 20L16 20L16 19L15 19L15 17L13 17L13 18L10 18L10 16L9 16L9 17L8 17L8 16L7 16L7 17L6 17L6 18L8 18L8 19L9 19L9 18L10 18L10 19L11 19L11 21L12 21L12 19L14 19L14 20L15 20L15 21L17 21L17 20L19 20L19 21L20 21L20 19L21 19L21 21L24 21L24 22L25 22L25 23L26 23L26 22L28 22L28 23L27 23L27 24L28 24L28 26L30 26L30 25L29 25L29 24L31 24L31 25L32 25L32 26L33 26L33 27L34 27L34 28L33 28L33 29L32 29L32 27L31 27L31 29L32 29L32 30L31 30L31 34L30 34L30 35L28 35L28 34L29 34L29 33L30 33L30 32L29 32L29 33L28 33L28 31L27 31L27 32L26 32L26 29L25 29L25 28L26 28L26 27L25 27L25 28L24 28L24 26L23 26L23 28L22 28L22 27L21 27L21 26L22 26L22 25L24 25L24 23L23 23L23 22L20 22L20 23L19 23L19 22L16 22L16 23L14 23L14 25L16 25L16 26L13 26L13 25L12 25L12 24L11 24L11 23L9 23L9 22L7 22L7 23L6 23L6 24L7 24L7 23L9 23L9 24L8 24L8 25L9 25L9 26L13 26L13 27L16 27L16 28L17 28L17 27L18 27L18 26L19 26L19 25L18 25L18 24L20 24L20 25L21 25L21 26L20 26L20 27L21 27L21 29L22 29L22 30L21 30L21 32L20 32L20 31L19 31L19 30L20 30L20 29L19 29L19 28L18 28L18 29L16 29L16 30L15 30L15 29L13 29L13 28L12 28L12 29L11 29L11 28L10 28L10 29L11 29L11 30L9 30L9 31L12 31L12 32L11 32L11 33L10 33L10 36L12 36L12 35L13 35L13 31L14 31L14 32L15 32L15 33L16 33L16 34L14 34L14 35L15 35L15 36L13 36L13 40L15 40L15 41L16 41L16 42L15 42L15 45L14 45L14 43L12 43L12 44L13 44L13 45L11 45L11 43L10 43L10 41L11 41L11 42L13 42L13 41L12 41L12 40L11 40L11 39L12 39L12 38L11 38L11 37L9 37L9 32L8 32L8 34L7 34L7 33L6 33L6 32L7 32L7 31L6 31L6 32L5 32L5 33L6 33L6 34L7 34L7 35L6 35L6 36L8 36L8 37L9 37L9 40L8 40L8 38L7 38L7 37L6 37L6 38L5 38L5 36L4 36L4 38L5 38L5 39L6 39L6 40L8 40L8 43L6 43L6 44L5 44L5 45L4 45L4 46L3 46L3 47L5 47L5 46L7 46L7 45L6 45L6 44L8 44L8 46L9 46L9 44L8 44L8 43L10 43L10 46L11 46L11 48L10 48L10 47L9 47L9 49L10 49L10 51L11 51L11 52L14 52L14 53L12 53L12 54L13 54L13 55L14 55L14 53L17 53L17 52L19 52L19 53L20 53L20 52L22 52L22 53L21 53L21 54L23 54L23 53L24 53L24 54L26 54L26 49L25 49L25 50L22 50L22 51L21 51L21 50L20 50L20 49L23 49L23 48L21 48L21 47L22 47L22 46L23 46L23 45L26 45L26 46L27 46L27 47L29 47L29 48L31 48L31 46L33 46L33 45L31 45L31 44L30 44L30 43L33 43L33 44L34 44L34 43L33 43L33 42L35 42L35 44L37 44L37 45L34 45L34 46L37 46L37 47L33 47L33 49L34 49L34 50L32 50L32 51L31 51L31 53L30 53L30 54L31 54L31 53L32 53L32 54L33 54L33 53L34 53L34 52L35 52L35 51L37 51L37 50L38 50L38 49L39 49L39 47L40 47L40 46L41 46L41 44L40 44L40 46L38 46L38 45L39 45L39 44L38 44L38 43L39 43L39 42L38 42L38 41L39 41L39 40L40 40L40 42L41 42L41 40L43 40L43 42L42 42L42 45L44 45L44 44L45 44L45 43L44 43L44 44L43 44L43 42L45 42L45 41L46 41L46 42L47 42L47 43L49 43L49 42L50 42L50 43L51 43L51 44L53 44L53 45L51 45L51 46L50 46L50 47L51 47L51 48L52 48L52 47L53 47L53 45L54 45L54 44L55 44L55 43L54 43L54 42L53 42L53 41L52 41L52 40L51 40L51 41L49 41L49 42L47 42L47 41L48 41L48 39L52 39L52 38L53 38L53 37L50 37L50 36L49 36L49 37L50 37L50 38L48 38L48 39L47 39L47 37L48 37L48 35L49 35L49 34L50 34L50 33L52 33L52 32L47 32L47 29L48 29L48 26L47 26L47 25L46 25L46 23L48 23L48 25L49 25L49 26L50 26L50 25L51 25L51 24L50 24L50 23L48 23L48 21L49 21L49 22L50 22L50 19L49 19L49 20L48 20L48 21L47 21L47 19L48 19L48 18L47 18L47 15L50 15L50 17L52 17L52 18L54 18L54 19L51 19L51 20L52 20L52 22L51 22L51 23L52 23L52 22L53 22L53 21L55 21L55 17L53 17L53 16L55 16L55 14L54 14L54 15L50 15L50 12L48 12L48 13L47 13L47 12L45 12L45 13L44 13L44 11L43 11L43 10L42 10L42 11L41 11L41 8L40 8L40 9L39 9L39 10L40 10L40 11L35 11L35 10L36 10L36 6L37 6L37 10L38 10L38 6L39 6L39 7L40 7L40 6L39 6L39 5L37 5L37 3L36 3L36 2L35 2L35 3L34 3L34 2L33 2L33 3L32 3L32 6L31 6L31 7L32 7L32 8L34 8L34 9L33 9L33 10L32 10L32 9L31 9L31 12L30 12L30 10L29 10L29 12L28 12L28 9L26 9L26 6L25 6L25 7L24 7L24 6L23 6L23 7L24 7L24 8L22 8L22 9L21 9L21 8L19 8L19 7L20 7L20 6L21 6L21 7L22 7L22 5L21 5L21 4L22 4L22 1L21 1L21 3L20 3L20 2L19 2L19 1ZM24 1L24 2L25 2L25 3L23 3L23 5L24 5L24 4L25 4L25 3L26 3L26 4L28 4L28 3L29 3L29 4L30 4L30 2L28 2L28 3L27 3L27 2L25 2L25 1ZM46 1L46 2L47 2L47 1ZM44 3L44 5L45 5L45 7L44 7L44 6L43 6L43 7L44 7L44 8L45 8L45 7L46 7L46 5L47 5L47 3L46 3L46 5L45 5L45 3ZM33 4L33 6L32 6L32 7L33 7L33 6L34 6L34 7L35 7L35 6L34 6L34 4ZM35 4L35 5L36 5L36 4ZM15 5L15 6L14 6L14 7L13 7L13 6L12 6L12 7L13 7L13 8L14 8L14 9L13 9L13 11L14 11L14 12L16 12L16 13L17 13L17 11L18 11L18 10L19 10L19 8L17 8L17 6L16 6L16 5ZM19 5L19 6L18 6L18 7L19 7L19 6L20 6L20 5ZM27 5L27 8L30 8L30 5ZM15 6L15 7L14 7L14 8L15 8L15 9L14 9L14 10L15 10L15 11L17 11L17 10L18 10L18 9L17 9L17 8L15 8L15 7L16 7L16 6ZM28 6L28 7L29 7L29 6ZM15 9L15 10L16 10L16 9ZM20 9L20 10L21 10L21 9ZM53 9L53 10L54 10L54 9ZM3 10L3 11L2 11L2 12L4 12L4 10ZM26 10L26 11L27 11L27 10ZM33 10L33 11L32 11L32 14L31 14L31 15L32 15L32 14L34 14L34 13L33 13L33 12L34 12L34 10ZM49 10L49 11L50 11L50 10ZM35 12L35 13L37 13L37 12ZM42 12L42 13L40 13L40 14L39 14L39 13L38 13L38 15L40 15L40 14L41 14L41 16L42 16L42 20L41 20L41 21L40 21L40 20L39 20L39 18L40 18L40 19L41 19L41 17L40 17L40 16L38 16L38 20L37 20L37 19L34 19L34 20L36 20L36 22L37 22L37 23L36 23L36 25L35 25L35 28L34 28L34 29L33 29L33 30L34 30L34 31L35 31L35 30L34 30L34 29L36 29L36 30L37 30L37 29L38 29L38 31L39 31L39 33L38 33L38 34L37 34L37 35L36 35L36 34L35 34L35 36L34 36L34 34L33 34L33 36L32 36L32 34L31 34L31 36L30 36L30 37L29 37L29 38L28 38L28 39L26 39L26 37L28 37L28 36L27 36L27 35L26 35L26 32L25 32L25 33L24 33L24 32L23 32L23 31L24 31L24 30L25 30L25 29L24 29L24 30L22 30L22 32L21 32L21 33L20 33L20 34L19 34L19 32L16 32L16 31L15 31L15 30L14 30L14 31L15 31L15 32L16 32L16 33L17 33L17 34L19 34L19 36L17 36L17 35L16 35L16 36L15 36L15 37L16 37L16 36L17 36L17 38L16 38L16 39L15 39L15 38L14 38L14 39L15 39L15 40L17 40L17 41L19 41L19 42L21 42L21 41L22 41L22 40L24 40L24 39L22 39L22 38L23 38L23 37L24 37L24 38L25 38L25 39L26 39L26 40L25 40L25 41L24 41L24 42L23 42L23 43L24 43L24 44L25 44L25 42L26 42L26 41L27 41L27 42L28 42L28 41L29 41L29 42L31 42L31 41L32 41L32 42L33 42L33 41L34 41L34 40L35 40L35 42L36 42L36 43L38 43L38 42L37 42L37 41L38 41L38 39L39 39L39 38L40 38L40 39L41 39L41 38L42 38L42 39L43 39L43 40L44 40L44 41L45 41L45 39L46 39L46 41L47 41L47 39L46 39L46 37L45 37L45 36L44 36L44 38L45 38L45 39L43 39L43 37L42 37L42 36L41 36L41 34L44 34L44 35L45 35L45 34L46 34L46 33L45 33L45 32L46 32L46 27L43 27L43 23L44 23L44 25L45 25L45 23L46 23L46 21L45 21L45 18L46 18L46 19L47 19L47 18L46 18L46 17L45 17L45 15L46 15L46 13L45 13L45 15L43 15L43 12ZM10 13L10 14L9 14L9 15L11 15L11 16L13 16L13 15L14 15L14 14L13 14L13 15L12 15L12 14L11 14L11 13ZM48 13L48 14L49 14L49 13ZM51 13L51 14L52 14L52 13ZM28 14L28 15L29 15L29 14ZM35 14L35 15L33 15L33 16L32 16L32 18L31 18L31 20L29 20L29 21L28 21L28 22L33 22L33 23L35 23L35 22L34 22L34 21L33 21L33 16L35 16L35 18L36 18L36 17L37 17L37 16L35 16L35 15L36 15L36 14ZM15 15L15 16L16 16L16 15ZM42 15L42 16L43 16L43 15ZM21 16L21 17L20 17L20 18L21 18L21 19L23 19L23 20L24 20L24 21L26 21L26 19L25 19L25 17L22 17L22 16ZM48 16L48 17L49 17L49 16ZM18 18L18 19L19 19L19 18ZM27 19L27 20L28 20L28 19ZM31 20L31 21L32 21L32 20ZM43 20L43 22L44 22L44 20ZM13 21L13 22L14 22L14 21ZM37 21L37 22L38 22L38 24L37 24L37 25L36 25L36 27L38 27L38 28L40 28L40 29L43 29L43 30L40 30L40 33L39 33L39 34L38 34L38 35L37 35L37 37L34 37L34 38L37 38L37 39L38 39L38 36L39 36L39 35L40 35L40 33L44 33L44 34L45 34L45 33L44 33L44 31L45 31L45 29L44 29L44 28L40 28L40 27L39 27L39 26L38 26L38 24L39 24L39 25L40 25L40 26L41 26L41 24L42 24L42 21L41 21L41 22L38 22L38 21ZM17 23L17 24L16 24L16 25L17 25L17 26L18 26L18 25L17 25L17 24L18 24L18 23ZM21 23L21 25L22 25L22 23ZM3 25L3 27L4 27L4 25ZM6 25L6 26L7 26L7 25ZM5 27L5 30L8 30L8 27ZM27 27L27 30L30 30L30 27ZM49 27L49 30L52 30L52 27ZM6 28L6 29L7 29L7 28ZM28 28L28 29L29 29L29 28ZM50 28L50 29L51 29L51 28ZM12 29L12 31L13 31L13 29ZM18 29L18 30L19 30L19 29ZM22 32L22 33L21 33L21 34L22 34L22 35L23 35L23 36L21 36L21 35L20 35L20 36L21 36L21 37L18 37L18 38L17 38L17 40L18 40L18 39L20 39L20 38L21 38L21 37L23 37L23 36L26 36L26 35L23 35L23 32ZM32 32L32 33L34 33L34 32ZM35 32L35 33L37 33L37 32ZM55 32L55 33L56 33L56 32ZM2 33L2 34L0 34L0 35L2 35L2 34L3 34L3 33ZM47 33L47 35L46 35L46 36L47 36L47 35L48 35L48 34L49 34L49 33ZM11 34L11 35L12 35L12 34ZM0 36L0 37L1 37L1 36ZM31 36L31 37L30 37L30 38L29 38L29 40L30 40L30 39L32 39L32 40L33 40L33 37L32 37L32 36ZM40 36L40 38L41 38L41 36ZM0 38L0 39L1 39L1 38ZM6 38L6 39L7 39L7 38ZM10 38L10 39L11 39L11 38ZM21 39L21 40L19 40L19 41L21 41L21 40L22 40L22 39ZM0 40L0 41L1 41L1 40ZM4 40L4 42L7 42L7 41L5 41L5 40ZM27 40L27 41L28 41L28 40ZM51 41L51 42L52 42L52 41ZM16 42L16 45L15 45L15 47L16 47L16 48L14 48L14 49L13 49L13 48L12 48L12 50L11 50L11 51L14 51L14 52L15 52L15 51L16 51L16 48L17 48L17 49L20 49L20 47L21 47L21 45L23 45L23 44L22 44L22 43L20 43L20 44L18 44L18 45L17 45L17 43L18 43L18 42ZM26 43L26 45L27 45L27 46L28 46L28 44L29 44L29 43L28 43L28 44L27 44L27 43ZM20 44L20 45L21 45L21 44ZM47 44L47 45L45 45L45 46L44 46L44 47L47 47L47 46L48 46L48 47L49 47L49 45L48 45L48 44ZM16 45L16 47L17 47L17 45ZM29 45L29 46L30 46L30 45ZM1 46L1 47L2 47L2 46ZM12 46L12 47L14 47L14 46ZM24 46L24 48L26 48L26 47L25 47L25 46ZM51 46L51 47L52 47L52 46ZM37 47L37 48L35 48L35 49L36 49L36 50L37 50L37 48L38 48L38 47ZM54 47L54 49L55 49L55 50L56 50L56 49L55 49L55 47ZM46 48L46 50L47 50L47 51L48 51L48 48ZM27 49L27 52L30 52L30 49ZM49 49L49 52L52 52L52 49ZM28 50L28 51L29 51L29 50ZM50 50L50 51L51 51L51 50ZM22 51L22 52L24 52L24 53L25 53L25 52L24 52L24 51ZM32 51L32 53L33 53L33 52L34 52L34 51ZM42 51L42 52L43 52L43 53L44 53L44 52L45 52L45 51ZM46 52L46 54L47 54L47 56L48 56L48 55L49 55L49 53L47 53L47 52ZM52 53L52 54L53 54L53 53ZM15 56L15 57L16 57L16 56ZM56 56L56 57L57 57L57 56ZM0 0L0 7L7 7L7 0ZM1 1L1 6L6 6L6 1ZM2 2L2 5L5 5L5 2ZM50 0L50 7L57 7L57 0ZM51 1L51 6L56 6L56 1ZM52 2L52 5L55 5L55 2ZM0 50L0 57L7 57L7 50ZM1 51L1 56L6 56L6 51ZM2 52L2 55L5 55L5 52Z" fill="#000000"/></g></g></svg>
