<?xml version="1.0" encoding="UTF-8"?>
<svg xmlns="http://www.w3.org/2000/svg" version="1.1" width="300" height="300" viewBox="0 0 300 300"><rect x="0" y="0" width="300" height="300" fill="#ffffff"/><g transform="scale(5.263)"><g transform="translate(0,0)"><path fill-rule="evenodd" d="M8 0L8 1L10 1L10 3L11 3L11 4L12 4L12 3L13 3L13 6L12 6L12 7L13 7L13 6L14 6L14 7L15 7L15 6L16 6L16 7L17 7L17 5L15 5L15 4L14 4L14 3L13 3L13 2L16 2L16 0L14 0L14 1L13 1L13 0L12 0L12 1L11 1L11 0ZM19 0L19 1L20 1L20 2L19 2L19 3L17 3L17 4L18 4L18 5L19 5L19 6L18 6L18 8L15 8L15 9L18 9L18 10L15 10L15 11L14 11L14 9L13 9L13 10L12 10L12 9L11 9L11 11L12 11L12 13L14 13L14 14L12 14L12 17L13 17L13 18L11 18L11 17L10 17L10 16L11 16L11 15L10 15L10 16L9 16L9 18L11 18L11 19L8 19L8 17L7 17L7 16L8 16L8 15L7 15L7 14L8 14L8 13L10 13L10 14L11 14L11 12L10 12L10 11L9 11L9 10L10 10L10 8L8 8L8 9L7 9L7 8L6 8L6 9L5 9L5 11L4 11L4 10L3 10L3 9L4 9L4 8L0 8L0 10L1 10L1 12L3 12L3 11L4 11L4 13L3 13L3 14L4 14L4 15L2 15L2 14L1 14L1 13L0 13L0 14L1 14L1 15L0 15L0 16L2 16L2 17L3 17L3 18L2 18L2 19L1 19L1 18L0 18L0 20L2 20L2 22L1 22L1 21L0 21L0 23L2 23L2 24L1 24L1 25L2 25L2 24L3 24L3 28L2 28L2 26L1 26L1 28L0 28L0 30L1 30L1 29L4 29L4 31L10 31L10 30L12 30L12 29L13 29L13 27L12 27L12 28L10 28L10 26L12 26L12 25L13 25L13 26L14 26L14 28L15 28L15 31L14 31L14 30L13 30L13 32L12 32L12 31L11 31L11 32L12 32L12 33L11 33L11 34L10 34L10 32L5 32L5 33L3 33L3 30L2 30L2 33L3 33L3 35L4 35L4 36L3 36L3 39L7 39L7 40L6 40L6 41L4 41L4 40L2 40L2 36L1 36L1 35L2 35L2 34L1 34L1 35L0 35L0 36L1 36L1 37L0 37L0 39L1 39L1 40L2 40L2 41L4 41L4 42L1 42L1 41L0 41L0 42L1 42L1 44L0 44L0 45L1 45L1 46L0 46L0 48L5 48L5 47L7 47L7 46L8 46L8 45L7 45L7 44L6 44L6 43L9 43L9 44L10 44L10 45L11 45L11 46L10 46L10 47L8 47L8 48L9 48L9 49L8 49L8 50L9 50L9 51L10 51L10 50L9 50L9 49L10 49L10 47L11 47L11 48L12 48L12 49L11 49L11 50L12 50L12 49L13 49L13 50L14 50L14 51L13 51L13 52L12 52L12 55L14 55L14 56L15 56L15 57L16 57L16 56L17 56L17 55L18 55L18 56L19 56L19 55L20 55L20 57L23 57L23 56L21 56L21 55L20 55L20 53L21 53L21 54L22 54L22 55L23 55L23 54L25 54L25 55L24 55L24 57L25 57L25 55L26 55L26 54L31 54L31 52L32 52L32 53L33 53L33 54L32 54L32 57L33 57L33 56L35 56L35 57L36 57L36 56L37 56L37 57L41 57L41 56L40 56L40 55L39 55L39 54L40 54L40 53L39 53L39 51L40 51L40 52L41 52L41 55L42 55L42 56L43 56L43 57L44 57L44 55L42 55L42 53L44 53L44 54L46 54L46 55L45 55L45 57L46 57L46 55L49 55L49 57L50 57L50 56L51 56L51 57L53 57L53 56L52 56L52 55L50 55L50 54L49 54L49 53L51 53L51 54L53 54L53 55L54 55L54 54L53 54L53 53L54 53L54 52L55 52L55 54L56 54L56 52L57 52L57 51L56 51L56 49L54 49L54 50L53 50L53 48L54 48L54 46L55 46L55 47L57 47L57 46L56 46L56 45L57 45L57 43L56 43L56 41L57 41L57 40L56 40L56 41L55 41L55 42L54 42L54 40L55 40L55 39L54 39L54 37L55 37L55 36L54 36L54 35L55 35L55 34L56 34L56 35L57 35L57 33L56 33L56 32L57 32L57 31L56 31L56 30L55 30L55 29L56 29L56 28L57 28L57 27L56 27L56 26L55 26L55 27L53 27L53 26L54 26L54 25L53 25L53 26L51 26L51 25L49 25L49 24L54 24L54 23L52 23L52 22L53 22L53 19L52 19L52 18L53 18L53 17L52 17L52 14L53 14L53 13L52 13L52 14L51 14L51 11L50 11L50 12L49 12L49 14L48 14L48 13L47 13L47 12L48 12L48 11L49 11L49 10L50 10L50 8L49 8L49 6L48 6L48 8L47 8L47 5L48 5L48 0L45 0L45 2L46 2L46 3L45 3L45 4L44 4L44 0L42 0L42 3L43 3L43 4L44 4L44 5L42 5L42 7L43 7L43 6L44 6L44 8L45 8L45 6L44 6L44 5L46 5L46 9L48 9L48 11L47 11L47 12L46 12L46 13L47 13L47 14L48 14L48 16L47 16L47 15L46 15L46 14L45 14L45 16L43 16L43 15L39 15L39 18L38 18L38 19L37 19L37 21L41 21L41 23L42 23L42 25L43 25L43 26L40 26L40 25L39 25L39 24L38 24L38 27L36 27L36 26L37 26L37 24L35 24L35 25L36 25L36 26L35 26L35 27L34 27L34 26L32 26L32 27L31 27L31 26L30 26L30 25L34 25L34 23L36 23L36 20L35 20L35 22L32 22L32 18L31 18L31 19L30 19L30 20L31 20L31 21L29 21L29 18L30 18L30 17L31 17L31 16L32 16L32 17L33 17L33 15L32 15L32 11L33 11L33 10L34 10L34 13L33 13L33 14L34 14L34 13L35 13L35 14L37 14L37 15L35 15L35 16L38 16L38 14L39 14L39 13L38 13L38 12L37 12L37 11L38 11L38 9L35 9L35 5L34 5L34 4L37 4L37 5L36 5L36 8L37 8L37 5L38 5L38 7L39 7L39 9L41 9L41 11L40 11L40 10L39 10L39 12L41 12L41 13L40 13L40 14L41 14L41 13L44 13L44 12L45 12L45 9L44 9L44 10L43 10L43 9L42 9L42 8L40 8L40 7L41 7L41 5L40 5L40 4L39 4L39 3L41 3L41 2L37 2L37 3L36 3L36 1L38 1L38 0L36 0L36 1L34 1L34 0L33 0L33 1L32 1L32 2L30 2L30 1L31 1L31 0L29 0L29 1L26 1L26 0L21 0L21 1L20 1L20 0ZM40 0L40 1L41 1L41 0ZM17 1L17 2L18 2L18 1ZM23 1L23 2L22 2L22 3L21 3L21 2L20 2L20 3L19 3L19 4L20 4L20 5L22 5L22 6L21 6L21 7L20 7L20 6L19 6L19 7L20 7L20 8L18 8L18 9L20 9L20 10L18 10L18 12L17 12L17 13L16 13L16 11L15 11L15 13L16 13L16 14L15 14L15 15L14 15L14 16L15 16L15 15L16 15L16 17L17 17L17 18L16 18L16 20L14 20L14 22L15 22L15 23L14 23L14 24L15 24L15 23L16 23L16 24L17 24L17 23L16 23L16 20L17 20L17 18L19 18L19 19L18 19L18 21L17 21L17 22L18 22L18 23L19 23L19 22L22 22L22 23L23 23L23 22L22 22L22 19L23 19L23 15L24 15L24 14L25 14L25 15L26 15L26 16L24 16L24 18L26 18L26 19L25 19L25 20L23 20L23 21L24 21L24 22L25 22L25 24L21 24L21 23L20 23L20 24L19 24L19 27L17 27L17 25L16 25L16 29L17 29L17 30L18 30L18 31L17 31L17 32L16 32L16 31L15 31L15 32L14 32L14 34L13 34L13 33L12 33L12 35L13 35L13 40L14 40L14 41L15 41L15 40L14 40L14 39L15 39L15 38L17 38L17 39L16 39L16 41L17 41L17 42L16 42L16 44L17 44L17 45L15 45L15 46L14 46L14 44L15 44L15 42L13 42L13 41L12 41L12 39L11 39L11 38L12 38L12 37L11 37L11 35L10 35L10 39L9 39L9 33L8 33L8 34L7 34L7 33L5 33L5 34L7 34L7 35L5 35L5 36L7 36L7 37L6 37L6 38L7 38L7 39L8 39L8 40L7 40L7 41L6 41L6 42L10 42L10 43L11 43L11 44L12 44L12 46L14 46L14 48L13 48L13 49L14 49L14 50L15 50L15 49L16 49L16 50L18 50L18 48L19 48L19 49L21 49L21 50L19 50L19 51L18 51L18 52L17 52L17 51L16 51L16 52L15 52L15 53L13 53L13 54L14 54L14 55L15 55L15 53L16 53L16 54L17 54L17 53L19 53L19 52L22 52L22 54L23 54L23 52L22 52L22 51L23 51L23 50L24 50L24 51L25 51L25 52L24 52L24 53L25 53L25 54L26 54L26 51L25 51L25 50L26 50L26 47L23 47L23 46L24 46L24 45L23 45L23 44L25 44L25 46L26 46L26 44L27 44L27 42L25 42L25 41L26 41L26 40L27 40L27 39L26 39L26 37L24 37L24 39L22 39L22 37L23 37L23 36L24 36L24 35L25 35L25 34L26 34L26 36L27 36L27 38L29 38L29 36L27 36L27 34L29 34L29 33L33 33L33 32L30 32L30 31L27 31L27 33L26 33L26 27L25 27L25 26L26 26L26 25L30 25L30 24L31 24L31 23L32 23L32 24L33 24L33 23L32 23L32 22L31 22L31 23L30 23L30 22L29 22L29 21L27 21L27 22L25 22L25 21L26 21L26 19L27 19L27 20L28 20L28 18L29 18L29 17L30 17L30 15L31 15L31 14L30 14L30 13L31 13L31 12L28 12L28 11L30 11L30 9L29 9L29 10L28 10L28 9L26 9L26 6L25 6L25 5L26 5L26 4L29 4L29 2L26 2L26 4L24 4L24 6L23 6L23 3L25 3L25 1ZM46 1L46 2L47 2L47 1ZM8 2L8 5L10 5L10 7L11 7L11 5L10 5L10 4L9 4L9 2ZM11 2L11 3L12 3L12 2ZM32 2L32 4L34 4L34 2ZM37 3L37 4L38 4L38 3ZM46 3L46 5L47 5L47 3ZM14 5L14 6L15 6L15 5ZM27 5L27 8L30 8L30 5ZM31 5L31 7L32 7L32 6L33 6L33 7L34 7L34 5ZM39 5L39 7L40 7L40 5ZM8 6L8 7L9 7L9 6ZM22 6L22 7L21 7L21 10L20 10L20 12L18 12L18 13L20 13L20 14L21 14L21 15L23 15L23 14L24 14L24 13L23 13L23 12L24 12L24 11L26 11L26 9L25 9L25 8L24 8L24 7L25 7L25 6L24 6L24 7L23 7L23 6ZM28 6L28 7L29 7L29 6ZM23 8L23 9L22 9L22 10L23 10L23 11L21 11L21 14L23 14L23 13L22 13L22 12L23 12L23 11L24 11L24 10L23 10L23 9L24 9L24 8ZM32 8L32 10L31 10L31 11L32 11L32 10L33 10L33 8ZM52 8L52 9L54 9L54 10L53 10L53 12L54 12L54 13L55 13L55 14L54 14L54 15L53 15L53 16L56 16L56 18L55 18L55 17L54 17L54 19L56 19L56 18L57 18L57 15L56 15L56 13L57 13L57 8L56 8L56 9L55 9L55 8ZM1 9L1 10L2 10L2 9ZM6 9L6 10L7 10L7 11L5 11L5 12L7 12L7 13L6 13L6 14L5 14L5 15L4 15L4 16L3 16L3 17L4 17L4 18L3 18L3 19L2 19L2 20L3 20L3 23L4 23L4 25L5 25L5 23L6 23L6 24L7 24L7 23L6 23L6 22L7 22L7 21L6 21L6 20L7 20L7 19L6 19L6 20L3 20L3 19L4 19L4 18L7 18L7 17L6 17L6 16L7 16L7 15L6 15L6 14L7 14L7 13L8 13L8 12L7 12L7 11L8 11L8 10L9 10L9 9L8 9L8 10L7 10L7 9ZM34 9L34 10L35 10L35 9ZM27 10L27 11L28 11L28 10ZM42 10L42 12L43 12L43 10ZM55 10L55 11L54 11L54 12L55 12L55 13L56 13L56 10ZM25 12L25 14L26 14L26 13L27 13L27 12ZM28 13L28 14L29 14L29 13ZM16 14L16 15L17 15L17 14ZM18 14L18 16L19 16L19 18L20 18L20 16L19 16L19 14ZM50 14L50 15L51 15L51 14ZM5 15L5 16L4 16L4 17L5 17L5 16L6 16L6 15ZM27 15L27 16L26 16L26 17L29 17L29 16L28 16L28 15ZM21 16L21 17L22 17L22 16ZM40 16L40 17L41 17L41 16ZM42 16L42 18L43 18L43 19L41 19L41 20L43 20L43 21L44 21L44 22L45 22L45 23L46 23L46 24L48 24L48 23L51 23L51 22L52 22L52 21L50 21L50 20L52 20L52 19L49 19L49 18L52 18L52 17L51 17L51 16L50 16L50 17L48 17L48 19L47 19L47 20L49 20L49 22L48 22L48 21L46 21L46 20L43 20L43 19L45 19L45 18L43 18L43 16ZM45 16L45 17L47 17L47 16ZM34 17L34 19L33 19L33 20L34 20L34 19L35 19L35 18L36 18L36 17ZM13 18L13 19L11 19L11 20L13 20L13 19L15 19L15 18ZM21 18L21 19L19 19L19 20L21 20L21 19L22 19L22 18ZM39 19L39 20L40 20L40 19ZM8 20L8 22L10 22L10 23L9 23L9 24L10 24L10 25L8 25L8 26L10 26L10 25L12 25L12 24L13 24L13 22L12 22L12 21L9 21L9 20ZM54 20L54 21L55 21L55 22L56 22L56 24L55 24L55 25L57 25L57 21L56 21L56 20ZM4 21L4 23L5 23L5 22L6 22L6 21ZM18 21L18 22L19 22L19 21ZM28 22L28 24L29 24L29 22ZM37 22L37 23L38 23L38 22ZM39 22L39 23L40 23L40 22ZM42 22L42 23L43 23L43 24L44 24L44 27L43 27L43 28L44 28L44 27L45 27L45 24L44 24L44 23L43 23L43 22ZM47 22L47 23L48 23L48 22ZM10 23L10 24L11 24L11 23ZM26 23L26 24L27 24L27 23ZM20 24L20 26L22 26L22 27L23 27L23 26L22 26L22 25L21 25L21 24ZM6 25L6 26L7 26L7 25ZM46 25L46 26L47 26L47 27L46 27L46 28L48 28L48 26L49 26L49 25ZM5 27L5 30L8 30L8 27ZM19 27L19 28L18 28L18 29L20 29L20 28L21 28L21 27ZM27 27L27 30L30 30L30 27ZM33 27L33 28L34 28L34 29L35 29L35 30L31 30L31 31L35 31L35 32L36 32L36 33L37 33L37 34L35 34L35 33L34 33L34 34L33 34L33 35L34 35L34 34L35 34L35 35L38 35L38 36L39 36L39 37L40 37L40 38L42 38L42 39L43 39L43 40L44 40L44 39L43 39L43 38L44 38L44 37L46 37L46 38L45 38L45 40L47 40L47 39L48 39L48 38L49 38L49 40L48 40L48 41L47 41L47 42L48 42L48 43L46 43L46 42L45 42L45 41L42 41L42 42L40 42L40 41L41 41L41 39L40 39L40 41L38 41L38 40L39 40L39 39L38 39L38 40L37 40L37 39L36 39L36 41L37 41L37 42L34 42L34 41L35 41L35 39L34 39L34 41L32 41L32 40L33 40L33 36L32 36L32 34L30 34L30 39L31 39L31 38L32 38L32 40L31 40L31 43L30 43L30 44L29 44L29 43L28 43L28 44L29 44L29 45L27 45L27 46L28 46L28 47L27 47L27 48L29 48L29 47L30 47L30 48L32 48L32 49L33 49L33 50L31 50L31 51L33 51L33 50L34 50L34 52L33 52L33 53L34 53L34 52L35 52L35 54L34 54L34 55L35 55L35 54L36 54L36 55L37 55L37 56L38 56L38 54L39 54L39 53L38 53L38 51L39 51L39 50L38 50L38 51L36 51L36 50L37 50L37 49L36 49L36 50L35 50L35 48L38 48L38 46L39 46L39 47L40 47L40 48L39 48L39 49L41 49L41 50L40 50L40 51L41 51L41 52L42 52L42 50L44 50L44 51L43 51L43 52L44 52L44 51L45 51L45 52L46 52L46 53L48 53L48 51L47 51L47 50L48 50L48 48L47 48L47 49L46 49L46 48L45 48L45 47L43 47L43 48L41 48L41 47L42 47L42 45L43 45L43 46L44 46L44 45L46 45L46 46L47 46L47 45L49 45L49 44L51 44L51 45L50 45L50 46L54 46L54 45L56 45L56 43L53 43L53 42L50 42L50 41L53 41L53 40L52 40L52 38L53 38L53 37L54 37L54 36L52 36L52 35L49 35L49 34L47 34L47 33L48 33L48 32L49 32L49 31L47 31L47 30L48 30L48 29L47 29L47 30L44 30L44 29L41 29L41 28L42 28L42 27L40 27L40 29L39 29L39 27L38 27L38 28L36 28L36 27L35 27L35 28L34 28L34 27ZM49 27L49 30L52 30L52 27ZM6 28L6 29L7 29L7 28ZM9 28L9 29L10 29L10 28ZM28 28L28 29L29 29L29 28ZM31 28L31 29L32 29L32 28ZM50 28L50 29L51 29L51 28ZM53 28L53 30L54 30L54 28ZM21 29L21 30L22 30L22 31L23 31L23 30L24 30L24 31L25 31L25 30L24 30L24 29ZM40 29L40 30L41 30L41 31L38 31L38 30L37 30L37 31L36 31L36 32L37 32L37 33L39 33L39 34L40 34L40 35L39 35L39 36L40 36L40 35L41 35L41 36L42 36L42 37L44 37L44 36L47 36L47 35L46 35L46 34L44 34L44 33L43 33L43 32L44 32L44 30L43 30L43 32L42 32L42 30L41 30L41 29ZM18 31L18 32L19 32L19 34L20 34L20 32L21 32L21 33L22 33L22 34L21 34L21 36L22 36L22 34L23 34L23 35L24 35L24 34L25 34L25 33L24 33L24 32L21 32L21 31ZM45 31L45 32L47 32L47 31ZM53 31L53 32L56 32L56 31ZM0 32L0 33L1 33L1 32ZM39 32L39 33L40 33L40 32ZM41 32L41 33L42 33L42 32ZM50 32L50 34L53 34L53 33L52 33L52 32ZM17 33L17 34L16 34L16 36L17 36L17 35L18 35L18 37L17 37L17 38L18 38L18 39L17 39L17 41L18 41L18 43L20 43L20 44L19 44L19 45L17 45L17 47L16 47L16 46L15 46L15 47L16 47L16 49L17 49L17 48L18 48L18 47L19 47L19 48L21 48L21 46L22 46L22 44L23 44L23 42L24 42L24 41L25 41L25 39L24 39L24 40L23 40L23 42L22 42L22 44L21 44L21 42L20 42L20 40L21 40L21 41L22 41L22 40L21 40L21 38L20 38L20 37L19 37L19 35L18 35L18 33ZM54 33L54 34L55 34L55 33ZM14 34L14 36L15 36L15 34ZM7 35L7 36L8 36L8 35ZM42 35L42 36L43 36L43 35ZM48 35L48 36L49 36L49 35ZM31 36L31 37L32 37L32 36ZM34 36L34 38L37 38L37 37L36 37L36 36ZM50 36L50 37L51 37L51 38L52 38L52 37L51 37L51 36ZM56 36L56 37L57 37L57 36ZM4 37L4 38L5 38L5 37ZM14 37L14 38L15 38L15 37ZM46 38L46 39L47 39L47 38ZM56 38L56 39L57 39L57 38ZM10 39L10 42L11 42L11 43L12 43L12 42L11 42L11 39ZM28 39L28 40L29 40L29 39ZM50 39L50 40L49 40L49 41L50 41L50 40L51 40L51 39ZM18 40L18 41L19 41L19 40ZM29 41L29 42L30 42L30 41ZM4 42L4 44L5 44L5 45L6 45L6 46L7 46L7 45L6 45L6 44L5 44L5 42ZM33 42L33 43L32 43L32 44L33 44L33 45L32 45L32 46L31 46L31 47L32 47L32 48L33 48L33 49L34 49L34 47L33 47L33 45L35 45L35 46L36 46L36 47L37 47L37 46L38 46L38 45L39 45L39 44L40 44L40 45L42 45L42 44L43 44L43 45L44 45L44 43L45 43L45 42L44 42L44 43L39 43L39 42L37 42L37 43L38 43L38 44L37 44L37 46L36 46L36 43L35 43L35 44L34 44L34 42ZM49 42L49 43L48 43L48 44L49 44L49 43L50 43L50 42ZM1 44L1 45L3 45L3 47L5 47L5 46L4 46L4 45L3 45L3 44ZM20 45L20 46L21 46L21 45ZM29 45L29 46L30 46L30 45ZM1 46L1 47L2 47L2 46ZM40 46L40 47L41 47L41 46ZM48 46L48 47L49 47L49 46ZM22 47L22 48L23 48L23 49L24 49L24 48L23 48L23 47ZM6 48L6 49L7 49L7 48ZM14 48L14 49L15 49L15 48ZM43 48L43 49L44 49L44 48ZM27 49L27 52L30 52L30 49ZM45 49L45 51L46 51L46 49ZM49 49L49 52L52 52L52 49ZM28 50L28 51L29 51L29 50ZM50 50L50 51L51 51L51 50ZM8 53L8 57L9 57L9 56L10 56L10 55L9 55L9 53ZM10 53L10 54L11 54L11 53ZM37 53L37 54L38 54L38 53ZM18 54L18 55L19 55L19 54ZM30 55L30 56L31 56L31 55ZM56 55L56 56L57 56L57 55ZM0 0L0 7L7 7L7 0ZM1 1L1 6L6 6L6 1ZM2 2L2 5L5 5L5 2ZM50 0L50 7L57 7L57 0ZM51 1L51 6L56 6L56 1ZM52 2L52 5L55 5L55 2ZM0 50L0 57L7 57L7 50ZM1 51L1 56L6 56L6 51ZM2 52L2 55L5 55L5 52Z" fill="#000000"/></g></g></svg>
