<?xml version="1.0" encoding="UTF-8"?>
<svg xmlns="http://www.w3.org/2000/svg" version="1.1" width="300" height="300" viewBox="0 0 300 300"><rect x="0" y="0" width="300" height="300" fill="#ffffff"/><g transform="scale(5.263)"><g transform="translate(0,0)"><path fill-rule="evenodd" d="M13 0L13 1L12 1L12 3L11 3L11 5L12 5L12 7L13 7L13 6L14 6L14 8L12 8L12 9L11 9L11 11L8 11L8 10L6 10L6 9L8 9L8 8L9 8L9 5L10 5L10 4L8 4L8 8L6 8L6 9L4 9L4 8L3 8L3 9L2 9L2 8L0 8L0 13L1 13L1 11L2 11L2 12L3 12L3 13L2 13L2 15L1 15L1 16L0 16L0 17L1 17L1 18L0 18L0 22L1 22L1 23L0 23L0 26L1 26L1 23L3 23L3 25L2 25L2 27L3 27L3 28L4 28L4 29L2 29L2 28L1 28L1 30L0 30L0 32L1 32L1 33L0 33L0 35L3 35L3 38L2 38L2 36L0 36L0 39L1 39L1 38L2 38L2 39L3 39L3 40L1 40L1 41L0 41L0 42L1 42L1 43L2 43L2 45L1 45L1 44L0 44L0 45L1 45L1 46L0 46L0 48L5 48L5 47L7 47L7 48L6 48L6 49L7 49L7 48L8 48L8 45L12 45L12 44L13 44L13 43L12 43L12 41L13 41L13 42L14 42L14 45L13 45L13 46L14 46L14 47L12 47L12 46L10 46L10 47L9 47L9 49L8 49L8 51L9 51L9 52L10 52L10 53L8 53L8 54L10 54L10 55L8 55L8 57L12 57L12 56L13 56L13 57L15 57L15 56L14 56L14 55L13 55L13 54L15 54L15 52L16 52L16 51L15 51L15 49L13 49L13 48L14 48L14 47L15 47L15 46L14 46L14 45L15 45L15 43L16 43L16 44L17 44L17 45L19 45L19 44L20 44L20 43L21 43L21 46L22 46L22 48L21 48L21 47L20 47L20 48L21 48L21 49L22 49L22 50L23 50L23 49L26 49L26 50L24 50L24 51L21 51L21 50L20 50L20 49L19 49L19 47L17 47L17 48L16 48L16 50L17 50L17 49L18 49L18 50L19 50L19 51L18 51L18 53L16 53L16 54L18 54L18 55L17 55L17 56L16 56L16 57L17 57L17 56L18 56L18 57L20 57L20 56L19 56L19 55L21 55L21 57L24 57L24 56L25 56L25 57L26 57L26 55L27 55L27 56L28 56L28 57L33 57L33 56L31 56L31 55L30 55L30 56L29 56L29 54L31 54L31 48L28 48L28 46L27 46L27 48L24 48L24 45L23 45L23 46L22 46L22 42L21 42L21 41L22 41L22 39L23 39L23 40L24 40L24 41L23 41L23 44L25 44L25 46L26 46L26 45L27 45L27 43L29 43L29 44L28 44L28 45L29 45L29 44L30 44L30 45L31 45L31 46L29 46L29 47L31 47L31 46L32 46L32 47L33 47L33 45L32 45L32 44L36 44L36 46L35 46L35 47L34 47L34 51L35 51L35 50L36 50L36 53L35 53L35 56L36 56L36 57L41 57L41 54L42 54L42 55L43 55L43 54L44 54L44 53L46 53L46 51L47 51L47 53L49 53L49 54L45 54L45 57L46 57L46 56L47 56L47 57L49 57L49 56L50 56L50 57L51 57L51 56L50 56L50 55L49 55L49 54L51 54L51 55L52 55L52 57L53 57L53 54L51 54L51 53L54 53L54 52L53 52L53 51L54 51L54 48L53 48L53 47L52 47L52 46L51 46L51 45L50 45L50 48L49 48L49 47L47 47L47 48L48 48L48 49L46 49L46 50L45 50L45 47L46 47L46 46L44 46L44 44L45 44L45 43L46 43L46 44L47 44L47 45L48 45L48 46L49 46L49 44L50 44L50 43L52 43L52 45L53 45L53 44L54 44L54 43L56 43L56 45L57 45L57 40L56 40L56 39L57 39L57 37L56 37L56 38L55 38L55 36L54 36L54 34L52 34L52 35L53 35L53 37L52 37L52 38L53 38L53 37L54 37L54 38L55 38L55 41L54 41L54 40L52 40L52 39L51 39L51 40L50 40L50 38L51 38L51 36L49 36L49 37L46 37L46 38L45 38L45 36L48 36L48 35L47 35L47 34L49 34L49 35L51 35L51 34L50 34L50 33L53 33L53 32L52 32L52 31L53 31L53 30L54 30L54 31L57 31L57 28L55 28L55 29L54 29L54 27L56 27L56 26L57 26L57 25L56 25L56 24L55 24L55 26L54 26L54 25L53 25L53 24L54 24L54 23L57 23L57 21L56 21L56 19L57 19L57 18L56 18L56 19L55 19L55 18L53 18L53 17L52 17L52 16L53 16L53 15L54 15L54 13L55 13L55 14L57 14L57 12L56 12L56 11L57 11L57 10L56 10L56 11L55 11L55 12L54 12L54 11L53 11L53 12L50 12L50 11L51 11L51 10L52 10L52 9L53 9L53 10L54 10L54 9L56 9L56 8L54 8L54 9L53 9L53 8L50 8L50 9L51 9L51 10L49 10L49 11L47 11L47 10L45 10L45 9L49 9L49 6L48 6L48 8L45 8L45 9L44 9L44 8L43 8L43 9L44 9L44 10L43 10L43 11L42 11L42 9L41 9L41 8L40 8L40 7L41 7L41 6L42 6L42 7L43 7L43 6L44 6L44 7L45 7L45 6L46 6L46 7L47 7L47 5L48 5L48 0L46 0L46 1L47 1L47 2L46 2L46 3L45 3L45 1L44 1L44 0L37 0L37 2L40 2L40 1L42 1L42 2L41 2L41 5L40 5L40 4L39 4L39 3L38 3L38 5L37 5L37 4L36 4L36 5L34 5L34 3L33 3L33 2L34 2L34 1L35 1L35 2L36 2L36 1L35 1L35 0L33 0L33 2L32 2L32 0L28 0L28 2L30 2L30 3L29 3L29 4L24 4L24 5L23 5L23 4L22 4L22 5L21 5L21 6L20 6L20 5L19 5L19 4L20 4L20 2L23 2L23 1L26 1L26 2L27 2L27 0L23 0L23 1L21 1L21 0L18 0L18 1L19 1L19 4L18 4L18 5L17 5L17 6L16 6L16 7L15 7L15 6L14 6L14 4L13 4L13 2L14 2L14 0ZM15 0L15 1L16 1L16 3L17 3L17 0ZM8 1L8 3L10 3L10 2L11 2L11 1ZM30 1L30 2L31 2L31 4L32 4L32 5L33 5L33 3L32 3L32 2L31 2L31 1ZM43 1L43 2L42 2L42 3L43 3L43 5L44 5L44 4L45 4L45 3L44 3L44 1ZM24 2L24 3L25 3L25 2ZM46 3L46 5L47 5L47 3ZM12 4L12 5L13 5L13 4ZM18 5L18 6L17 6L17 7L18 7L18 8L17 8L17 9L15 9L15 8L14 8L14 9L13 9L13 11L11 11L11 12L10 12L10 13L11 13L11 14L10 14L10 15L9 15L9 16L8 16L8 13L5 13L5 11L6 11L6 12L7 12L7 11L6 11L6 10L3 10L3 12L4 12L4 13L5 13L5 14L4 14L4 15L2 15L2 17L3 17L3 18L1 18L1 20L2 20L2 21L1 21L1 22L3 22L3 23L5 23L5 25L6 25L6 26L10 26L10 25L12 25L12 26L11 26L11 27L10 27L10 28L9 28L9 30L10 30L10 31L8 31L8 33L6 33L6 32L7 32L7 31L2 31L2 30L1 30L1 31L2 31L2 32L5 32L5 34L4 34L4 38L3 38L3 39L5 39L5 40L7 40L7 39L8 39L8 41L6 41L6 42L7 42L7 43L5 43L5 41L4 41L4 40L3 40L3 41L1 41L1 42L2 42L2 43L3 43L3 42L4 42L4 46L3 46L3 45L2 45L2 46L1 46L1 47L2 47L2 46L3 46L3 47L5 47L5 45L6 45L6 46L7 46L7 45L8 45L8 44L9 44L9 43L10 43L10 44L12 44L12 43L11 43L11 42L9 42L9 41L10 41L10 40L9 40L9 39L10 39L10 38L11 38L11 39L12 39L12 40L11 40L11 41L12 41L12 40L14 40L14 41L15 41L15 42L16 42L16 43L17 43L17 44L19 44L19 43L18 43L18 42L17 42L17 41L18 41L18 40L19 40L19 41L21 41L21 40L20 40L20 38L19 38L19 39L18 39L18 38L17 38L17 39L16 39L16 40L17 40L17 41L15 41L15 40L14 40L14 38L13 38L13 37L15 37L15 35L16 35L16 34L17 34L17 35L18 35L18 34L19 34L19 37L20 37L20 36L21 36L21 35L23 35L23 36L26 36L26 35L27 35L27 34L29 34L29 35L28 35L28 36L29 36L29 37L31 37L31 39L30 39L30 38L29 38L29 39L28 39L28 40L27 40L27 39L26 39L26 38L27 38L27 37L24 37L24 38L23 38L23 37L21 37L21 38L23 38L23 39L24 39L24 40L25 40L25 39L26 39L26 40L27 40L27 41L26 41L26 42L25 42L25 41L24 41L24 42L25 42L25 44L26 44L26 42L31 42L31 43L32 43L32 41L29 41L29 40L33 40L33 39L34 39L34 42L33 42L33 43L34 43L34 42L35 42L35 43L36 43L36 38L37 38L37 39L38 39L38 38L39 38L39 39L40 39L40 38L42 38L42 39L41 39L41 40L40 40L40 41L39 41L39 40L38 40L38 41L37 41L37 43L38 43L38 44L39 44L39 43L38 43L38 41L39 41L39 42L41 42L41 44L42 44L42 45L41 45L41 46L43 46L43 44L44 44L44 43L45 43L45 42L46 42L46 43L47 43L47 44L48 44L48 42L47 42L47 41L50 41L50 42L53 42L53 43L54 43L54 41L52 41L52 40L51 40L51 41L50 41L50 40L47 40L47 39L49 39L49 38L50 38L50 37L49 37L49 38L47 38L47 39L45 39L45 38L44 38L44 37L42 37L42 36L43 36L43 34L44 34L44 36L45 36L45 35L46 35L46 34L47 34L47 32L48 32L48 27L47 27L47 29L45 29L45 30L46 30L46 31L47 31L47 32L46 32L46 33L45 33L45 31L44 31L44 27L43 27L43 26L44 26L44 25L42 25L42 23L44 23L44 21L45 21L45 22L46 22L46 24L45 24L45 28L46 28L46 24L47 24L47 26L53 26L53 25L51 25L51 24L52 24L52 23L53 23L53 22L56 22L56 21L53 21L53 22L52 22L52 23L50 23L50 22L51 22L51 21L49 21L49 19L50 19L50 20L52 20L52 19L53 19L53 20L55 20L55 19L53 19L53 18L51 18L51 19L50 19L50 16L45 16L45 19L43 19L43 17L44 17L44 16L43 16L43 15L42 15L42 14L43 14L43 13L42 13L42 12L41 12L41 14L40 14L40 13L38 13L38 15L39 15L39 14L40 14L40 15L41 15L41 16L40 16L40 17L39 17L39 16L38 16L38 17L36 17L36 15L35 15L35 14L34 14L34 13L35 13L35 12L38 12L38 10L39 10L39 8L38 8L38 6L39 6L39 7L40 7L40 6L39 6L39 5L38 5L38 6L37 6L37 5L36 5L36 6L35 6L35 7L34 7L34 6L33 6L33 7L32 7L32 6L31 6L31 7L32 7L32 8L31 8L31 9L30 9L30 11L31 11L31 12L29 12L29 13L27 13L27 14L25 14L25 13L26 13L26 10L27 10L27 12L28 12L28 11L29 11L29 9L26 9L26 10L25 10L25 8L26 8L26 6L25 6L25 5L24 5L24 6L23 6L23 7L24 7L24 8L23 8L23 9L24 9L24 10L23 10L23 11L25 11L25 13L23 13L23 12L22 12L22 13L23 13L23 14L24 14L24 15L23 15L23 16L22 16L22 17L21 17L21 16L19 16L19 17L15 17L15 18L16 18L16 20L15 20L15 19L14 19L14 16L16 16L16 15L17 15L17 16L18 16L18 15L17 15L17 14L21 14L21 15L22 15L22 14L21 14L21 11L18 11L18 8L19 8L19 7L20 7L20 6L19 6L19 5ZM27 5L27 8L30 8L30 5ZM10 6L10 8L11 8L11 6ZM18 6L18 7L19 7L19 6ZM21 6L21 7L22 7L22 6ZM24 6L24 7L25 7L25 6ZM28 6L28 7L29 7L29 6ZM36 6L36 8L33 8L33 10L31 10L31 11L32 11L32 12L31 12L31 13L30 13L30 14L27 14L27 17L26 17L26 18L25 18L25 19L23 19L23 18L24 18L24 17L25 17L25 16L26 16L26 15L25 15L25 16L24 16L24 17L23 17L23 18L21 18L21 17L19 17L19 18L20 18L20 19L19 19L19 20L18 20L18 24L17 24L17 20L16 20L16 26L15 26L15 27L13 27L13 26L14 26L14 23L15 23L15 22L14 22L14 23L13 23L13 22L12 22L12 23L11 23L11 22L9 22L9 21L10 21L10 20L11 20L11 21L13 21L13 20L14 20L14 19L13 19L13 17L12 17L12 15L10 15L10 16L9 16L9 17L8 17L8 16L6 16L6 15L7 15L7 14L5 14L5 17L8 17L8 18L6 18L6 19L8 19L8 18L9 18L9 20L6 20L6 21L5 21L5 18L3 18L3 19L4 19L4 21L5 21L5 22L6 22L6 23L8 23L8 22L9 22L9 23L11 23L11 24L13 24L13 26L12 26L12 28L11 28L11 29L10 29L10 30L11 30L11 29L12 29L12 30L14 30L14 31L15 31L15 32L13 32L13 34L12 34L12 31L10 31L10 32L9 32L9 33L8 33L8 34L5 34L5 35L10 35L10 34L9 34L9 33L11 33L11 34L12 34L12 36L13 36L13 34L14 34L14 35L15 35L15 32L16 32L16 33L17 33L17 34L18 34L18 33L20 33L20 32L22 32L22 33L21 33L21 34L20 34L20 35L21 35L21 34L23 34L23 35L26 35L26 32L27 32L27 31L28 31L28 33L31 33L31 34L30 34L30 35L29 35L29 36L30 36L30 35L32 35L32 36L31 36L31 37L33 37L33 36L34 36L34 39L35 39L35 37L37 37L37 38L38 38L38 36L39 36L39 37L41 37L41 36L42 36L42 34L41 34L41 36L40 36L40 35L39 35L39 34L40 34L40 33L41 33L41 32L42 32L42 33L44 33L44 32L43 32L43 31L41 31L41 32L40 32L40 33L39 33L39 32L38 32L38 31L37 31L37 30L36 30L36 29L38 29L38 30L39 30L39 29L40 29L40 30L42 30L42 29L43 29L43 28L42 28L42 26L41 26L41 24L40 24L40 23L41 23L41 22L40 22L40 21L41 21L41 19L42 19L42 18L39 18L39 17L38 17L38 19L37 19L37 18L36 18L36 17L35 17L35 15L34 15L34 16L32 16L32 15L31 15L31 14L32 14L32 13L33 13L33 12L34 12L34 11L35 11L35 10L34 10L34 9L36 9L36 10L37 10L37 9L38 9L38 8L37 8L37 6ZM20 8L20 9L19 9L19 10L22 10L22 9L21 9L21 8ZM1 9L1 10L2 10L2 9ZM14 9L14 10L15 10L15 9ZM16 10L16 11L15 11L15 14L17 14L17 13L16 13L16 12L18 12L18 13L20 13L20 12L18 12L18 11L17 11L17 10ZM33 10L33 11L34 11L34 10ZM40 10L40 11L39 11L39 12L40 12L40 11L41 11L41 10ZM44 10L44 11L45 11L45 10ZM13 11L13 13L14 13L14 11ZM45 12L45 14L44 14L44 15L46 15L46 12ZM49 12L49 13L47 13L47 15L50 15L50 14L51 14L51 15L53 15L53 14L51 14L51 13L50 13L50 12ZM53 12L53 13L54 13L54 12ZM36 13L36 14L37 14L37 13ZM49 13L49 14L50 14L50 13ZM13 14L13 16L14 16L14 14ZM28 15L28 16L29 16L29 17L30 17L30 18L28 18L28 20L29 20L29 22L28 22L28 23L27 23L27 22L26 22L26 21L25 21L25 22L24 22L24 21L21 21L21 19L20 19L20 22L19 22L19 23L20 23L20 22L21 22L21 24L19 24L19 26L17 26L17 27L16 27L16 28L14 28L14 29L15 29L15 30L16 30L16 31L18 31L18 32L17 32L17 33L18 33L18 32L20 32L20 31L19 31L19 30L20 30L20 29L21 29L21 30L23 30L23 31L24 31L24 30L25 30L25 32L23 32L23 34L25 34L25 32L26 32L26 29L25 29L25 28L26 28L26 27L25 27L25 28L23 28L23 27L24 27L24 26L25 26L25 25L26 25L26 24L27 24L27 26L28 26L28 23L29 23L29 22L32 22L32 23L33 23L33 24L32 24L32 25L31 25L31 23L30 23L30 24L29 24L29 26L32 26L32 25L34 25L34 23L35 23L35 24L36 24L36 23L35 23L35 22L36 22L36 21L35 21L35 20L36 20L36 19L35 19L35 17L34 17L34 21L33 21L33 20L32 20L32 19L33 19L33 18L32 18L32 16L31 16L31 17L30 17L30 16L29 16L29 15ZM55 15L55 16L54 16L54 17L56 17L56 15ZM10 16L10 17L9 17L9 18L10 18L10 19L11 19L11 18L12 18L12 17L11 17L11 16ZM41 16L41 17L43 17L43 16ZM10 17L10 18L11 18L11 17ZM47 17L47 18L48 18L48 17ZM26 18L26 20L27 20L27 18ZM30 18L30 19L29 19L29 20L30 20L30 21L32 21L32 20L30 20L30 19L32 19L32 18ZM22 19L22 20L23 20L23 19ZM38 19L38 20L37 20L37 22L39 22L39 19ZM47 19L47 20L46 20L46 21L47 21L47 24L48 24L48 23L49 23L49 25L50 25L50 23L49 23L49 22L48 22L48 21L47 21L47 20L48 20L48 19ZM42 20L42 21L44 21L44 20ZM6 21L6 22L7 22L7 21ZM25 22L25 23L23 23L23 24L22 24L22 25L23 25L23 24L25 24L25 23L26 23L26 22ZM33 22L33 23L34 23L34 22ZM38 23L38 24L39 24L39 23ZM6 24L6 25L10 25L10 24ZM36 25L36 27L35 27L35 26L34 26L34 28L33 28L33 29L31 29L31 32L32 32L32 35L34 35L34 34L39 34L39 33L36 33L36 32L35 32L35 29L34 29L34 28L38 28L38 29L39 29L39 27L41 27L41 26L40 26L40 25L38 25L38 27L37 27L37 25ZM3 26L3 27L4 27L4 26ZM19 26L19 27L17 27L17 29L18 29L18 28L19 28L19 29L20 29L20 28L21 28L21 27L20 27L20 26ZM22 26L22 27L23 27L23 26ZM5 27L5 30L8 30L8 27ZM19 27L19 28L20 28L20 27ZM27 27L27 30L30 30L30 27ZM31 27L31 28L32 28L32 27ZM49 27L49 30L52 30L52 27ZM6 28L6 29L7 29L7 28ZM28 28L28 29L29 29L29 28ZM40 28L40 29L42 29L42 28ZM50 28L50 29L51 29L51 28ZM23 29L23 30L24 30L24 29ZM33 29L33 30L32 30L32 31L34 31L34 29ZM33 32L33 34L34 34L34 33L35 33L35 32ZM49 32L49 33L50 33L50 32ZM56 32L56 33L57 33L57 32ZM1 33L1 34L3 34L3 33ZM56 34L56 35L57 35L57 34ZM36 35L36 36L38 36L38 35ZM5 36L5 37L7 37L7 38L6 38L6 39L7 39L7 38L8 38L8 39L9 39L9 38L10 38L10 36L9 36L9 38L8 38L8 36ZM17 36L17 37L18 37L18 36ZM24 38L24 39L25 39L25 38ZM32 38L32 39L33 39L33 38ZM17 39L17 40L18 40L18 39ZM43 39L43 40L42 40L42 41L41 41L41 42L42 42L42 43L44 43L44 41L47 41L47 40L44 40L44 39ZM43 40L43 41L42 41L42 42L43 42L43 41L44 41L44 40ZM55 41L55 42L56 42L56 41ZM7 43L7 44L6 44L6 45L7 45L7 44L8 44L8 43ZM37 45L37 46L39 46L39 47L38 47L38 48L37 48L37 49L36 49L36 48L35 48L35 49L36 49L36 50L39 50L39 51L40 51L40 50L44 50L44 51L42 51L42 52L40 52L40 53L42 53L42 54L43 54L43 53L44 53L44 52L45 52L45 50L44 50L44 49L42 49L42 47L41 47L41 49L38 49L38 48L40 48L40 46L39 46L39 45ZM54 46L54 47L55 47L55 48L56 48L56 49L57 49L57 48L56 48L56 47L57 47L57 46L56 46L56 47L55 47L55 46ZM10 47L10 49L11 49L11 50L12 50L12 51L11 51L11 52L12 52L12 53L11 53L11 56L12 56L12 54L13 54L13 49L12 49L12 48L11 48L11 47ZM43 47L43 48L44 48L44 47ZM32 48L32 50L33 50L33 48ZM27 49L27 52L30 52L30 49ZM49 49L49 52L52 52L52 49ZM28 50L28 51L29 51L29 50ZM47 50L47 51L48 51L48 50ZM50 50L50 51L51 51L51 50ZM55 50L55 51L56 51L56 53L55 53L55 54L56 54L56 55L57 55L57 51L56 51L56 50ZM20 51L20 52L19 52L19 53L20 53L20 52L21 52L21 51ZM32 51L32 55L34 55L34 53L33 53L33 51ZM37 51L37 55L36 55L36 56L37 56L37 55L38 55L38 56L39 56L39 55L40 55L40 54L38 54L38 51ZM22 52L22 53L21 53L21 54L22 54L22 53L24 53L24 52ZM25 52L25 53L26 53L26 54L29 54L29 53L26 53L26 52ZM23 54L23 56L24 56L24 55L25 55L25 54ZM42 56L42 57L44 57L44 56ZM55 56L55 57L56 57L56 56ZM0 0L0 7L7 7L7 0ZM1 1L1 6L6 6L6 1ZM2 2L2 5L5 5L5 2ZM50 0L50 7L57 7L57 0ZM51 1L51 6L56 6L56 1ZM52 2L52 5L55 5L55 2ZM0 50L0 57L7 57L7 50ZM1 51L1 56L6 56L6 51ZM2 52L2 55L5 55L5 52Z" fill="#000000"/></g></g></svg>
