<?xml version="1.0" encoding="UTF-8"?>
<svg xmlns="http://www.w3.org/2000/svg" version="1.1" width="300" height="300" viewBox="0 0 300 300"><rect x="0" y="0" width="300" height="300" fill="#ffffff"/><g transform="scale(5.263)"><g transform="translate(0,0)"><path fill-rule="evenodd" d="M10 0L10 1L8 1L8 2L10 2L10 1L12 1L12 2L13 2L13 4L12 4L12 3L11 3L11 4L12 4L12 5L10 5L10 4L9 4L9 3L8 3L8 4L9 4L9 5L8 5L8 7L9 7L9 8L6 8L6 9L5 9L5 8L0 8L0 10L2 10L2 11L1 11L1 12L0 12L0 13L2 13L2 15L3 15L3 13L2 13L2 11L4 11L4 9L5 9L5 11L7 11L7 12L6 12L6 13L5 13L5 12L4 12L4 16L3 16L3 20L2 20L2 19L1 19L1 17L2 17L2 16L1 16L1 17L0 17L0 20L1 20L1 21L0 21L0 23L1 23L1 22L2 22L2 24L3 24L3 25L2 25L2 26L3 26L3 25L4 25L4 27L3 27L3 28L2 28L2 29L3 29L3 28L4 28L4 31L3 31L3 30L2 30L2 31L0 31L0 34L1 34L1 32L2 32L2 33L3 33L3 34L2 34L2 35L0 35L0 36L1 36L1 37L0 37L0 38L2 38L2 40L1 40L1 41L3 41L3 40L4 40L4 41L5 41L5 42L6 42L6 43L7 43L7 42L6 42L6 41L8 41L8 38L9 38L9 39L10 39L10 35L9 35L9 34L10 34L10 33L11 33L11 32L14 32L14 31L11 31L11 29L12 29L12 30L13 30L13 29L14 29L14 30L16 30L16 31L17 31L17 32L16 32L16 33L15 33L15 34L16 34L16 33L17 33L17 39L18 39L18 38L20 38L20 39L19 39L19 40L16 40L16 39L13 39L13 38L14 38L14 37L13 37L13 36L14 36L14 35L13 35L13 34L14 34L14 33L12 33L12 34L11 34L11 37L12 37L12 38L11 38L11 40L10 40L10 41L9 41L9 42L10 42L10 43L9 43L9 44L8 44L8 46L9 46L9 47L8 47L8 48L6 48L6 49L8 49L8 51L9 51L9 49L8 49L8 48L9 48L9 47L10 47L10 48L11 48L11 49L10 49L10 50L11 50L11 54L13 54L13 55L10 55L10 57L14 57L14 55L16 55L16 56L15 56L15 57L17 57L17 56L18 56L18 57L19 57L19 56L18 56L18 55L20 55L20 54L18 54L18 53L20 53L20 51L18 51L18 53L16 53L16 52L15 52L15 49L16 49L16 48L17 48L17 50L20 50L20 49L22 49L22 50L21 50L21 52L23 52L23 50L26 50L26 52L25 52L25 51L24 51L24 53L23 53L23 54L24 54L24 53L25 53L25 54L27 54L27 53L29 53L29 54L30 54L30 53L32 53L32 55L34 55L34 56L30 56L30 55L29 55L29 56L28 56L28 55L26 55L26 56L25 56L25 57L26 57L26 56L27 56L27 57L29 57L29 56L30 56L30 57L38 57L38 56L37 56L37 55L36 55L36 54L38 54L38 53L40 53L40 52L41 52L41 54L42 54L42 55L41 55L41 57L44 57L44 56L42 56L42 55L43 55L43 54L45 54L45 55L46 55L46 54L45 54L45 53L43 53L43 52L48 52L48 53L47 53L47 54L48 54L48 55L47 55L47 57L49 57L49 56L50 56L50 55L49 55L49 54L48 54L48 53L50 53L50 54L51 54L51 53L52 53L52 54L53 54L53 52L54 52L54 54L55 54L55 53L57 53L57 51L56 51L56 50L55 50L55 48L56 48L56 47L53 47L53 46L51 46L51 45L52 45L52 44L53 44L53 45L54 45L54 46L57 46L57 45L56 45L56 44L57 44L57 43L55 43L55 42L57 42L57 41L55 41L55 39L57 39L57 37L56 37L56 36L57 36L57 35L55 35L55 34L57 34L57 33L56 33L56 32L57 32L57 31L53 31L53 30L57 30L57 29L53 29L53 28L55 28L55 26L57 26L57 23L55 23L55 22L57 22L57 21L55 21L55 22L52 22L52 24L55 24L55 25L54 25L54 27L53 27L53 26L50 26L50 25L49 25L49 24L50 24L50 23L49 23L49 22L50 22L50 21L51 21L51 20L52 20L52 18L49 18L49 17L50 17L50 16L53 16L53 17L54 17L54 16L55 16L55 17L56 17L56 18L54 18L54 19L53 19L53 20L55 20L55 19L56 19L56 18L57 18L57 17L56 17L56 16L57 16L57 15L54 15L54 14L53 14L53 13L52 13L52 12L54 12L54 13L55 13L55 14L57 14L57 13L55 13L55 12L56 12L56 11L53 11L53 10L49 10L49 9L50 9L50 8L49 8L49 9L48 9L48 7L49 7L49 6L48 6L48 7L47 7L47 5L48 5L48 0L41 0L41 2L40 2L40 1L38 1L38 0L36 0L36 1L35 1L35 2L36 2L36 3L34 3L34 2L30 2L30 3L29 3L29 2L28 2L28 1L32 1L32 0L28 0L28 1L26 1L26 0L21 0L21 1L22 1L22 3L23 3L23 4L19 4L19 2L20 2L20 3L21 3L21 2L20 2L20 0L17 0L17 1L15 1L15 2L13 2L13 1L12 1L12 0ZM24 1L24 2L23 2L23 3L24 3L24 2L25 2L25 3L26 3L26 4L25 4L25 8L26 8L26 4L29 4L29 3L27 3L27 2L25 2L25 1ZM37 1L37 4L34 4L34 3L32 3L32 5L31 5L31 7L32 7L32 8L31 8L31 9L32 9L32 10L31 10L31 11L30 11L30 10L29 10L29 9L25 9L25 10L23 10L23 13L22 13L22 12L21 12L21 13L19 13L19 15L18 15L18 14L17 14L17 13L18 13L18 12L17 12L17 13L16 13L16 12L15 12L15 13L13 13L13 12L14 12L14 11L12 11L12 9L15 9L15 10L17 10L17 11L18 11L18 10L19 10L19 11L22 11L22 10L21 10L21 9L23 9L23 8L24 8L24 6L23 6L23 5L24 5L24 4L23 4L23 5L22 5L22 6L21 6L21 9L18 9L18 10L17 10L17 9L16 9L16 8L18 8L18 5L19 5L19 7L20 7L20 5L19 5L19 4L17 4L17 3L18 3L18 2L17 2L17 3L14 3L14 5L13 5L13 8L12 8L12 6L11 6L11 8L10 8L10 9L9 9L9 10L11 10L11 11L12 11L12 12L10 12L10 13L9 13L9 14L8 14L8 12L7 12L7 13L6 13L6 14L8 14L8 15L9 15L9 14L12 14L12 13L13 13L13 17L15 17L15 18L13 18L13 19L8 19L8 20L7 20L7 19L6 19L6 18L8 18L8 17L9 17L9 18L10 18L10 17L9 17L9 16L7 16L7 15L5 15L5 19L6 19L6 20L7 20L7 21L6 21L6 22L5 22L5 20L3 20L3 21L4 21L4 22L5 22L5 24L4 24L4 23L3 23L3 24L4 24L4 25L5 25L5 24L7 24L7 25L6 25L6 26L7 26L7 25L8 25L8 26L10 26L10 27L9 27L9 31L8 31L8 33L5 33L5 31L4 31L4 34L3 34L3 36L5 36L5 37L6 37L6 38L4 38L4 37L2 37L2 38L3 38L3 39L4 39L4 40L7 40L7 39L6 39L6 38L7 38L7 37L6 37L6 36L9 36L9 35L6 35L6 36L5 36L5 35L4 35L4 34L8 34L8 33L9 33L9 31L10 31L10 29L11 29L11 27L12 27L12 28L15 28L15 29L16 29L16 30L18 30L18 29L20 29L20 31L19 31L19 32L20 32L20 34L19 34L19 33L18 33L18 32L17 32L17 33L18 33L18 36L19 36L19 37L21 37L21 39L23 39L23 40L21 40L21 41L19 41L19 42L21 42L21 43L22 43L22 42L23 42L23 43L27 43L27 42L28 42L28 43L29 43L29 44L30 44L30 45L33 45L33 47L32 47L32 46L31 46L31 47L32 47L32 49L33 49L33 50L34 50L34 51L32 51L32 53L33 53L33 52L34 52L34 54L35 54L35 52L37 52L37 51L35 51L35 48L36 48L36 47L35 47L35 48L34 48L34 46L37 46L37 48L38 48L38 47L39 47L39 49L36 49L36 50L39 50L39 51L41 51L41 50L39 50L39 49L42 49L42 48L41 48L41 47L40 47L40 45L43 45L43 44L41 44L41 43L44 43L44 42L46 42L46 43L45 43L45 44L44 44L44 46L43 46L43 48L44 48L44 49L43 49L43 50L42 50L42 51L43 51L43 50L44 50L44 51L45 51L45 50L47 50L47 49L48 49L48 48L51 48L51 46L50 46L50 45L51 45L51 44L49 44L49 42L47 42L47 41L49 41L49 40L50 40L50 39L51 39L51 40L53 40L53 41L50 41L50 43L54 43L54 42L55 42L55 41L54 41L54 40L53 40L53 39L55 39L55 38L56 38L56 37L55 37L55 36L54 36L54 38L53 38L53 36L51 36L51 35L53 35L53 34L55 34L55 32L52 32L52 31L51 31L51 32L52 32L52 33L50 33L50 31L48 31L48 32L45 32L45 30L46 30L46 31L47 31L47 30L48 30L48 29L46 29L46 28L47 28L47 25L46 25L46 23L45 23L45 24L42 24L42 25L43 25L43 27L42 27L42 29L41 29L41 23L44 23L44 22L40 22L40 21L41 21L41 20L40 20L40 19L36 19L36 18L39 18L39 17L40 17L40 18L41 18L41 19L43 19L43 20L42 20L42 21L43 21L43 20L44 20L44 21L45 21L45 22L47 22L47 24L49 24L49 23L48 23L48 21L50 21L50 20L51 20L51 19L49 19L49 18L48 18L48 19L47 19L47 17L49 17L49 15L51 15L51 13L50 13L50 11L49 11L49 10L48 10L48 11L49 11L49 12L47 12L47 9L45 9L45 8L47 8L47 7L46 7L46 6L45 6L45 5L47 5L47 3L46 3L46 4L45 4L45 2L47 2L47 1L45 1L45 2L43 2L43 1L42 1L42 2L43 2L43 3L44 3L44 4L45 4L45 5L42 5L42 4L41 4L41 3L39 3L39 2L38 2L38 1ZM30 3L30 4L31 4L31 3ZM38 3L38 4L39 4L39 3ZM15 4L15 5L14 5L14 8L16 8L16 7L17 7L17 6L16 6L16 7L15 7L15 5L16 5L16 4ZM40 4L40 5L37 5L37 6L36 6L36 5L32 5L32 7L33 7L33 6L34 6L34 8L36 8L36 11L35 11L35 10L34 10L34 9L33 9L33 11L34 11L34 13L35 13L35 14L36 14L36 13L38 13L38 12L36 12L36 11L37 11L37 10L38 10L38 9L37 9L37 8L36 8L36 7L37 7L37 6L38 6L38 8L39 8L39 6L40 6L40 7L41 7L41 6L42 6L42 7L43 7L43 6L42 6L42 5L41 5L41 4ZM27 5L27 8L30 8L30 5ZM40 5L40 6L41 6L41 5ZM9 6L9 7L10 7L10 6ZM22 6L22 8L23 8L23 6ZM28 6L28 7L29 7L29 6ZM35 6L35 7L36 7L36 6ZM44 6L44 8L41 8L41 9L42 9L42 10L41 10L41 11L40 11L40 10L39 10L39 11L40 11L40 12L41 12L41 13L42 13L42 14L43 14L43 13L44 13L44 12L45 12L45 13L47 13L47 14L45 14L45 15L44 15L44 16L43 16L43 15L42 15L42 16L41 16L41 18L45 18L45 19L44 19L44 20L45 20L45 21L46 21L46 20L47 20L47 21L48 21L48 20L49 20L49 19L48 19L48 20L47 20L47 19L46 19L46 18L45 18L45 17L46 17L46 16L45 16L45 15L47 15L47 14L48 14L48 15L49 15L49 14L50 14L50 13L47 13L47 12L45 12L45 11L46 11L46 10L45 10L45 11L44 11L44 10L43 10L43 9L44 9L44 8L45 8L45 6ZM11 8L11 9L12 9L12 8ZM51 8L51 9L52 9L52 8ZM53 8L53 9L54 9L54 10L57 10L57 9L56 9L56 8L55 8L55 9L54 9L54 8ZM6 9L6 10L7 10L7 9ZM42 10L42 11L41 11L41 12L42 12L42 13L43 13L43 10ZM25 11L25 12L26 12L26 11ZM28 11L28 12L30 12L30 11ZM31 11L31 14L30 14L30 13L28 13L28 15L27 15L27 14L26 14L26 13L24 13L24 14L23 14L23 15L22 15L22 13L21 13L21 14L20 14L20 16L18 16L18 15L17 15L17 16L16 16L16 13L15 13L15 17L17 17L17 18L18 18L18 19L19 19L19 18L20 18L20 16L23 16L23 15L24 15L24 14L26 14L26 15L25 15L25 17L22 17L22 18L21 18L21 19L20 19L20 20L18 20L18 21L20 21L20 20L21 20L21 19L23 19L23 20L24 20L24 21L23 21L23 22L22 22L22 21L21 21L21 22L22 22L22 23L21 23L21 24L20 24L20 25L21 25L21 24L23 24L23 25L22 25L22 26L21 26L21 27L20 27L20 26L19 26L19 28L20 28L20 29L22 29L22 28L21 28L21 27L22 27L22 26L25 26L25 28L24 28L24 29L23 29L23 31L22 31L22 30L21 30L21 31L20 31L20 32L23 32L23 35L22 35L22 36L23 36L23 37L24 37L24 38L23 38L23 39L24 39L24 41L23 41L23 42L25 42L25 36L27 36L27 35L29 35L29 36L30 36L30 37L29 37L29 40L28 40L28 39L27 39L27 38L28 38L28 37L27 37L27 38L26 38L26 40L27 40L27 41L26 41L26 42L27 42L27 41L29 41L29 43L30 43L30 44L31 44L31 42L32 42L32 41L31 41L31 40L32 40L32 39L33 39L33 40L34 40L34 38L32 38L32 36L36 36L36 37L35 37L35 38L36 38L36 40L35 40L35 41L36 41L36 42L35 42L35 43L36 43L36 42L38 42L38 41L39 41L39 42L44 42L44 39L42 39L42 41L40 41L40 40L41 40L41 38L43 38L43 37L44 37L44 36L46 36L46 37L47 37L47 36L48 36L48 35L50 35L50 33L49 33L49 34L48 34L48 33L47 33L47 34L45 34L45 33L44 33L44 31L42 31L42 30L43 30L43 29L44 29L44 27L45 27L45 28L46 28L46 26L44 26L44 27L43 27L43 29L42 29L42 30L40 30L40 32L41 32L41 31L42 31L42 32L43 32L43 33L41 33L41 34L38 34L38 33L39 33L39 32L38 32L38 31L39 31L39 30L38 30L38 28L39 28L39 27L38 27L38 24L39 24L39 23L40 23L40 22L38 22L38 21L37 21L37 20L35 20L35 18L34 18L34 17L33 17L33 18L32 18L32 16L36 16L36 17L39 17L39 14L40 14L40 13L39 13L39 14L37 14L37 15L38 15L38 16L36 16L36 15L32 15L32 16L31 16L31 14L32 14L32 11ZM51 11L51 12L52 12L52 11ZM0 14L0 15L1 15L1 14ZM29 14L29 15L28 15L28 16L27 16L27 15L26 15L26 16L27 16L27 17L26 17L26 18L23 18L23 19L26 19L26 20L25 20L25 21L24 21L24 22L23 22L23 23L24 23L24 24L25 24L25 26L28 26L28 25L31 25L31 26L32 26L32 25L31 25L31 24L34 24L34 26L33 26L33 28L31 28L31 29L34 29L34 30L33 30L33 32L32 32L32 30L31 30L31 31L25 31L25 32L24 32L24 33L25 33L25 34L24 34L24 35L23 35L23 36L25 36L25 34L26 34L26 35L27 35L27 34L29 34L29 35L30 35L30 34L29 34L29 33L30 33L30 32L32 32L32 34L31 34L31 35L33 35L33 33L34 33L34 34L36 34L36 36L38 36L38 38L37 38L37 41L38 41L38 40L40 40L40 39L39 39L39 38L40 38L40 37L41 37L41 36L42 36L42 37L43 37L43 36L44 36L44 35L42 35L42 34L41 34L41 36L40 36L40 35L38 35L38 34L37 34L37 33L38 33L38 32L37 32L37 31L38 31L38 30L37 30L37 29L36 29L36 28L38 28L38 27L37 27L37 25L36 25L36 24L38 24L38 22L37 22L37 21L36 21L36 22L37 22L37 23L36 23L36 24L34 24L34 23L35 23L35 20L33 20L33 19L34 19L34 18L33 18L33 19L32 19L32 18L31 18L31 19L30 19L30 20L28 20L28 18L27 18L27 17L28 17L28 16L30 16L30 14ZM52 14L52 15L53 15L53 16L54 16L54 15L53 15L53 14ZM11 15L11 18L12 18L12 15ZM6 16L6 17L7 17L7 16ZM42 16L42 17L43 17L43 16ZM44 16L44 17L45 17L45 16ZM18 17L18 18L19 18L19 17ZM26 18L26 19L27 19L27 18ZM13 19L13 20L11 20L11 21L10 21L10 20L8 20L8 21L10 21L10 22L9 22L9 23L10 23L10 24L11 24L11 25L12 25L12 24L11 24L11 23L12 23L12 22L14 22L14 21L13 21L13 20L14 20L14 19ZM31 19L31 20L30 20L30 21L29 21L29 22L28 22L28 21L27 21L27 20L26 20L26 21L25 21L25 22L26 22L26 23L25 23L25 24L31 24L31 23L30 23L30 22L32 22L32 23L34 23L34 22L32 22L32 19ZM45 19L45 20L46 20L46 19ZM15 20L15 21L16 21L16 22L15 22L15 23L14 23L14 25L15 25L15 23L16 23L16 25L19 25L19 23L20 23L20 22L18 22L18 23L17 23L17 21L16 21L16 20ZM6 22L6 23L7 23L7 24L8 24L8 23L7 23L7 22ZM27 22L27 23L28 23L28 22ZM0 24L0 26L1 26L1 24ZM39 25L39 26L40 26L40 25ZM12 26L12 27L15 27L15 28L16 28L16 29L18 29L18 28L16 28L16 27L15 27L15 26ZM17 26L17 27L18 27L18 26ZM34 26L34 27L36 27L36 26ZM0 27L0 28L1 28L1 27ZM5 27L5 30L8 30L8 27ZM27 27L27 30L30 30L30 27ZM49 27L49 30L52 30L52 27ZM6 28L6 29L7 29L7 28ZM25 28L25 30L26 30L26 28ZM28 28L28 29L29 29L29 28ZM34 28L34 29L35 29L35 28ZM50 28L50 29L51 29L51 28ZM34 30L34 32L36 32L36 33L37 33L37 32L36 32L36 31L35 31L35 30ZM2 31L2 32L3 32L3 31ZM6 31L6 32L7 32L7 31ZM25 32L25 33L26 33L26 34L27 34L27 33L28 33L28 32ZM20 34L20 35L21 35L21 34ZM47 34L47 35L46 35L46 36L47 36L47 35L48 35L48 34ZM15 35L15 36L16 36L16 35ZM39 36L39 37L40 37L40 36ZM15 37L15 38L16 38L16 37ZM30 37L30 38L31 38L31 39L30 39L30 40L31 40L31 39L32 39L32 38L31 38L31 37ZM48 37L48 38L47 38L47 40L46 40L46 41L47 41L47 40L49 40L49 39L50 39L50 38L49 38L49 37ZM48 38L48 39L49 39L49 38ZM11 40L11 41L10 41L10 42L11 42L11 43L10 43L10 45L9 45L9 46L10 46L10 45L11 45L11 43L12 43L12 41L13 41L13 42L14 42L14 43L15 43L15 44L14 44L14 45L13 45L13 44L12 44L12 45L13 45L13 47L12 47L12 46L11 46L11 48L13 48L13 49L11 49L11 50L12 50L12 53L13 53L13 54L14 54L14 53L15 53L15 54L16 54L16 53L15 53L15 52L14 52L14 53L13 53L13 51L14 51L14 50L13 50L13 49L15 49L15 47L17 47L17 48L19 48L19 49L20 49L20 48L22 48L22 49L26 49L26 47L27 47L27 48L29 48L29 45L28 45L28 44L26 44L26 45L25 45L25 44L24 44L24 45L22 45L22 44L20 44L20 43L19 43L19 44L20 44L20 48L19 48L19 47L17 47L17 45L18 45L18 44L17 44L17 45L15 45L15 44L16 44L16 42L17 42L17 43L18 43L18 41L16 41L16 40L15 40L15 42L14 42L14 41L13 41L13 40ZM33 41L33 43L32 43L32 44L33 44L33 45L37 45L37 46L38 46L38 45L37 45L37 44L40 44L40 43L37 43L37 44L34 44L34 41ZM2 42L2 43L0 43L0 48L5 48L5 47L7 47L7 46L5 46L5 43L4 43L4 42ZM3 43L3 44L4 44L4 43ZM46 43L46 44L47 44L47 43ZM6 44L6 45L7 45L7 44ZM54 44L54 45L55 45L55 44ZM2 45L2 46L1 46L1 47L2 47L2 46L3 46L3 47L5 47L5 46L3 46L3 45ZM14 45L14 46L15 46L15 45ZM21 45L21 46L22 46L22 45ZM24 45L24 46L23 46L23 47L22 47L22 48L25 48L25 47L26 47L26 46L27 46L27 47L28 47L28 46L27 46L27 45L26 45L26 46L25 46L25 45ZM24 46L24 47L25 47L25 46ZM45 46L45 47L44 47L44 48L45 48L45 49L44 49L44 50L45 50L45 49L47 49L47 48L46 48L46 46ZM47 46L47 47L48 47L48 46ZM49 46L49 47L50 47L50 46ZM13 47L13 48L14 48L14 47ZM33 48L33 49L34 49L34 48ZM27 49L27 52L30 52L30 49ZM49 49L49 52L52 52L52 49ZM28 50L28 51L29 51L29 50ZM50 50L50 51L51 51L51 50ZM54 50L54 51L55 51L55 50ZM8 52L8 57L9 57L9 53L10 53L10 52ZM21 54L21 55L22 55L22 56L24 56L24 55L22 55L22 54ZM39 54L39 56L40 56L40 54ZM35 55L35 56L36 56L36 55ZM51 55L51 57L52 57L52 55ZM54 55L54 56L53 56L53 57L54 57L54 56L55 56L55 57L56 57L56 56L55 56L55 55ZM20 56L20 57L21 57L21 56ZM45 56L45 57L46 57L46 56ZM0 0L0 7L7 7L7 0ZM1 1L1 6L6 6L6 1ZM2 2L2 5L5 5L5 2ZM50 0L50 7L57 7L57 0ZM51 1L51 6L56 6L56 1ZM52 2L52 5L55 5L55 2ZM0 50L0 57L7 57L7 50ZM1 51L1 56L6 56L6 51ZM2 52L2 55L5 55L5 52Z" fill="#000000"/></g></g></svg>
