<?xml version="1.0" encoding="UTF-8"?>
<svg xmlns="http://www.w3.org/2000/svg" version="1.1" width="300" height="300" viewBox="0 0 300 300"><rect x="0" y="0" width="300" height="300" fill="#ffffff"/><g transform="scale(5.263)"><g transform="translate(0,0)"><path fill-rule="evenodd" d="M10 0L10 1L8 1L8 2L9 2L9 3L8 3L8 4L9 4L9 5L8 5L8 7L9 7L9 8L6 8L6 9L5 9L5 8L0 8L0 10L2 10L2 11L1 11L1 12L2 12L2 13L1 13L1 14L0 14L0 16L1 16L1 17L0 17L0 21L1 21L1 19L2 19L2 20L3 20L3 21L2 21L2 22L1 22L1 23L0 23L0 24L1 24L1 23L2 23L2 25L3 25L3 27L4 27L4 28L2 28L2 29L4 29L4 30L1 30L1 31L0 31L0 32L1 32L1 33L0 33L0 35L1 35L1 36L0 36L0 38L1 38L1 39L0 39L0 40L1 40L1 41L0 41L0 44L1 44L1 41L2 41L2 43L3 43L3 44L2 44L2 45L1 45L1 46L0 46L0 48L5 48L5 47L7 47L7 48L6 48L6 49L7 49L7 48L8 48L8 51L9 51L9 52L8 52L8 57L11 57L11 54L12 54L12 52L13 52L13 53L14 53L14 52L13 52L13 51L15 51L15 53L16 53L16 54L15 54L15 55L14 55L14 54L13 54L13 56L12 56L12 57L13 57L13 56L14 56L14 57L22 57L22 56L24 56L24 57L26 57L26 55L28 55L28 54L30 54L30 53L32 53L32 52L31 52L31 50L32 50L32 51L34 51L34 50L32 50L32 47L31 47L31 46L32 46L32 44L33 44L33 46L34 46L34 48L33 48L33 49L34 49L34 48L35 48L35 50L37 50L37 52L33 52L33 53L35 53L35 55L34 55L34 56L30 56L30 55L29 55L29 56L30 56L30 57L35 57L35 56L36 56L36 57L37 57L37 56L36 56L36 55L37 55L37 54L38 54L38 53L39 53L39 55L40 55L40 53L39 53L39 52L40 52L40 51L41 51L41 55L42 55L42 54L43 54L43 53L44 53L44 55L45 55L45 57L46 57L46 56L47 56L47 55L49 55L49 56L50 56L50 57L52 57L52 56L53 56L53 57L56 57L56 56L55 56L55 53L57 53L57 51L56 51L56 50L55 50L55 49L54 49L54 48L55 48L55 47L56 47L56 49L57 49L57 47L56 47L56 44L57 44L57 43L56 43L56 44L55 44L55 42L57 42L57 41L55 41L55 39L57 39L57 37L56 37L56 38L51 38L51 37L54 37L54 36L56 36L56 34L57 34L57 31L56 31L56 30L54 30L54 29L53 29L53 28L55 28L55 27L56 27L56 26L57 26L57 23L54 23L54 22L57 22L57 21L54 21L54 20L56 20L56 19L55 19L55 18L57 18L57 17L55 17L55 14L57 14L57 11L56 11L56 8L55 8L55 9L54 9L54 8L53 8L53 9L54 9L54 10L55 10L55 11L53 11L53 10L52 10L52 8L51 8L51 10L50 10L50 8L49 8L49 9L47 9L47 10L45 10L45 9L46 9L46 8L45 8L45 6L46 6L46 7L47 7L47 8L48 8L48 7L49 7L49 6L48 6L48 7L47 7L47 5L48 5L48 0L44 0L44 1L43 1L43 0L41 0L41 1L40 1L40 0L39 0L39 1L38 1L38 0L37 0L37 1L36 1L36 3L35 3L35 5L36 5L36 7L35 7L35 6L34 6L34 5L33 5L33 4L32 4L32 3L33 3L33 2L35 2L35 1L33 1L33 2L32 2L32 1L31 1L31 0L27 0L27 3L28 3L28 2L29 2L29 1L31 1L31 2L30 2L30 3L29 3L29 4L26 4L26 3L23 3L23 2L25 2L25 1L26 1L26 0L23 0L23 1L22 1L22 0L21 0L21 1L20 1L20 0L17 0L17 1L20 1L20 3L23 3L23 4L22 4L22 5L23 5L23 6L22 6L22 7L21 7L21 4L19 4L19 2L18 2L18 3L17 3L17 2L15 2L15 3L17 3L17 6L16 6L16 7L15 7L15 6L14 6L14 5L16 5L16 4L14 4L14 1L12 1L12 0ZM10 1L10 2L11 2L11 3L9 3L9 4L11 4L11 7L10 7L10 6L9 6L9 7L10 7L10 8L9 8L9 9L10 9L10 8L11 8L11 9L12 9L12 5L13 5L13 4L12 4L12 1ZM37 1L37 4L36 4L36 5L37 5L37 7L36 7L36 8L34 8L34 6L33 6L33 5L32 5L32 4L31 4L31 3L32 3L32 2L31 2L31 3L30 3L30 4L31 4L31 5L32 5L32 6L31 6L31 7L32 7L32 8L31 8L31 9L32 9L32 10L30 10L30 12L27 12L27 11L26 11L26 10L28 10L28 11L29 11L29 9L25 9L25 11L24 11L24 10L23 10L23 8L24 8L24 6L23 6L23 7L22 7L22 8L20 8L20 10L19 10L19 9L18 9L18 10L17 10L17 9L16 9L16 8L17 8L17 7L18 7L18 8L19 8L19 7L20 7L20 5L19 5L19 7L18 7L18 6L17 6L17 7L16 7L16 8L14 8L14 9L13 9L13 10L12 10L12 11L11 11L11 12L10 12L10 10L8 10L8 11L9 11L9 12L8 12L8 14L7 14L7 13L6 13L6 12L7 12L7 11L6 11L6 12L5 12L5 10L4 10L4 12L3 12L3 11L2 11L2 12L3 12L3 13L2 13L2 16L3 16L3 17L2 17L2 18L3 18L3 20L4 20L4 18L5 18L5 17L6 17L6 18L7 18L7 19L6 19L6 20L7 20L7 21L6 21L6 22L7 22L7 23L6 23L6 24L5 24L5 25L4 25L4 26L5 26L5 25L6 25L6 26L9 26L9 28L11 28L11 25L14 25L14 23L15 23L15 24L16 24L16 25L15 25L15 26L14 26L14 28L13 28L13 27L12 27L12 28L13 28L13 29L12 29L12 31L11 31L11 30L10 30L10 29L9 29L9 30L10 30L10 31L11 31L11 32L12 32L12 33L10 33L10 34L11 34L11 35L9 35L9 37L10 37L10 41L9 41L9 42L10 42L10 43L8 43L8 42L7 42L7 41L6 41L6 40L7 40L7 39L8 39L8 37L6 37L6 36L8 36L8 34L7 34L7 33L9 33L9 32L7 32L7 31L4 31L4 32L3 32L3 31L1 31L1 32L3 32L3 33L1 33L1 35L2 35L2 34L3 34L3 35L4 35L4 38L3 38L3 37L1 37L1 38L2 38L2 40L3 40L3 41L4 41L4 42L3 42L3 43L4 43L4 42L5 42L5 43L6 43L6 44L7 44L7 45L5 45L5 44L4 44L4 45L5 45L5 46L3 46L3 45L2 45L2 46L1 46L1 47L2 47L2 46L3 46L3 47L5 47L5 46L8 46L8 48L10 48L10 47L14 47L14 46L15 46L15 45L16 45L16 47L15 47L15 49L13 49L13 50L11 50L11 49L10 49L10 50L11 50L11 52L9 52L9 53L10 53L10 54L9 54L9 55L10 55L10 54L11 54L11 52L12 52L12 51L13 51L13 50L15 50L15 51L17 51L17 49L16 49L16 47L18 47L18 46L17 46L17 45L18 45L18 44L17 44L17 45L16 45L16 44L15 44L15 43L18 43L18 42L19 42L19 44L20 44L20 47L19 47L19 49L20 49L20 53L19 53L19 54L20 54L20 55L19 55L19 56L21 56L21 53L24 53L24 54L22 54L22 55L24 55L24 56L25 56L25 55L26 55L26 54L28 54L28 53L26 53L26 54L25 54L25 53L24 53L24 52L26 52L26 50L25 50L25 51L24 51L24 49L25 49L25 48L27 48L27 47L25 47L25 48L24 48L24 49L23 49L23 48L22 48L22 46L23 46L23 47L24 47L24 46L23 46L23 45L25 45L25 46L26 46L26 45L25 45L25 44L23 44L23 45L22 45L22 44L21 44L21 43L22 43L22 42L23 42L23 43L27 43L27 46L28 46L28 47L29 47L29 46L30 46L30 44L31 44L31 43L33 43L33 41L34 41L34 43L35 43L35 44L36 44L36 43L37 43L37 42L39 42L39 43L38 43L38 44L37 44L37 45L38 45L38 47L37 47L37 46L35 46L35 45L34 45L34 46L35 46L35 47L36 47L36 48L39 48L39 49L38 49L38 50L40 50L40 49L42 49L42 48L41 48L41 44L39 44L39 43L41 43L41 42L42 42L42 45L43 45L43 47L44 47L44 46L46 46L46 47L45 47L45 48L44 48L44 49L43 49L43 50L44 50L44 51L46 51L46 52L44 52L44 53L45 53L45 54L46 54L46 55L47 55L47 54L50 54L50 56L51 56L51 55L53 55L53 54L54 54L54 53L52 53L52 54L50 54L50 53L48 53L48 48L49 48L49 47L48 47L48 46L49 46L49 42L50 42L50 43L51 43L51 44L52 44L52 45L50 45L50 48L54 48L54 47L51 47L51 46L55 46L55 44L53 44L53 42L55 42L55 41L52 41L52 40L53 40L53 39L51 39L51 38L50 38L50 39L49 39L49 38L47 38L47 37L48 37L48 36L50 36L50 35L51 35L51 36L54 36L54 34L53 34L53 32L54 32L54 33L56 33L56 31L55 31L55 32L54 32L54 30L53 30L53 32L52 32L52 31L48 31L48 32L47 32L47 33L45 33L45 31L46 31L46 30L48 30L48 28L46 28L46 27L48 27L48 26L47 26L47 25L46 25L46 22L47 22L47 24L48 24L48 25L50 25L50 26L53 26L53 27L54 27L54 25L53 25L53 22L52 22L52 24L51 24L51 25L50 25L50 23L51 23L51 20L52 20L52 21L53 21L53 20L54 20L54 19L53 19L53 20L52 20L52 17L53 17L53 18L54 18L54 16L53 16L53 15L54 15L54 12L53 12L53 11L52 11L52 12L51 12L51 11L49 11L49 12L50 12L50 14L48 14L48 15L50 15L50 16L48 16L48 17L50 17L50 18L47 18L47 17L45 17L45 15L43 15L43 16L42 16L42 17L43 17L43 18L41 18L41 20L40 20L40 18L39 18L39 17L41 17L41 16L39 16L39 15L41 15L41 14L39 14L39 13L41 13L41 12L40 12L40 11L39 11L39 9L41 9L41 8L43 8L43 9L45 9L45 8L43 8L43 7L44 7L44 4L45 4L45 5L47 5L47 3L46 3L46 4L45 4L45 3L44 3L44 4L43 4L43 3L42 3L42 4L43 4L43 7L42 7L42 5L40 5L40 4L41 4L41 3L40 3L40 1L39 1L39 3L40 3L40 4L38 4L38 1ZM42 1L42 2L43 2L43 1ZM45 1L45 2L47 2L47 1ZM23 4L23 5L24 5L24 4ZM25 4L25 8L26 8L26 4ZM37 4L37 5L38 5L38 7L37 7L37 8L36 8L36 11L35 11L35 10L34 10L34 9L33 9L33 12L34 12L34 11L35 11L35 13L36 13L36 14L34 14L34 13L32 13L32 11L31 11L31 14L30 14L30 13L29 13L29 14L26 14L26 13L27 13L27 12L26 12L26 11L25 11L25 13L24 13L24 12L23 12L23 10L22 10L22 11L19 11L19 10L18 10L18 11L17 11L17 12L18 12L18 13L17 13L17 14L18 14L18 15L17 15L17 16L15 16L15 15L14 15L14 14L13 14L13 16L12 16L12 17L11 17L11 16L8 16L8 15L12 15L12 14L11 14L11 13L16 13L16 12L15 12L15 10L13 10L13 11L12 11L12 12L11 12L11 13L10 13L10 12L9 12L9 14L8 14L8 15L7 15L7 14L6 14L6 13L5 13L5 12L4 12L4 15L3 15L3 16L5 16L5 14L6 14L6 15L7 15L7 16L6 16L6 17L9 17L9 18L10 18L10 17L11 17L11 19L10 19L10 20L11 20L11 21L10 21L10 22L9 22L9 21L7 21L7 22L9 22L9 23L8 23L8 25L9 25L9 24L11 24L11 23L12 23L12 24L13 24L13 23L12 23L12 22L14 22L14 21L13 21L13 20L14 20L14 19L13 19L13 18L15 18L15 21L16 21L16 22L15 22L15 23L16 23L16 24L17 24L17 26L16 26L16 27L18 27L18 26L19 26L19 29L18 29L18 28L14 28L14 29L13 29L13 30L14 30L14 29L18 29L18 31L17 31L17 30L15 30L15 32L16 32L16 31L17 31L17 32L18 32L18 33L17 33L17 34L14 34L14 32L13 32L13 31L12 31L12 32L13 32L13 33L12 33L12 34L13 34L13 36L14 36L14 35L17 35L17 34L18 34L18 35L19 35L19 36L17 36L17 37L18 37L18 38L20 38L20 39L17 39L17 40L16 40L16 39L15 39L15 41L14 41L14 42L12 42L12 43L14 43L14 42L15 42L15 41L21 41L21 40L22 40L22 38L21 38L21 37L19 37L19 36L20 36L20 35L19 35L19 34L18 34L18 33L21 33L21 35L22 35L22 36L23 36L23 37L24 37L24 38L23 38L23 39L24 39L24 40L23 40L23 41L24 41L24 42L25 42L25 41L24 41L24 40L25 40L25 39L26 39L26 40L28 40L28 41L26 41L26 42L27 42L27 43L28 43L28 41L29 41L29 40L28 40L28 39L27 39L27 38L28 38L28 37L26 37L26 36L28 36L28 35L29 35L29 37L30 37L30 38L29 38L29 39L30 39L30 42L29 42L29 43L31 43L31 42L32 42L32 41L31 41L31 40L32 40L32 39L33 39L33 40L34 40L34 38L31 38L31 37L32 37L32 36L33 36L33 37L36 37L36 38L35 38L35 39L36 39L36 40L35 40L35 41L36 41L36 42L37 42L37 40L40 40L40 39L41 39L41 41L39 41L39 42L41 42L41 41L42 41L42 42L43 42L43 45L44 45L44 44L45 44L45 45L46 45L46 44L45 44L45 43L44 43L44 42L45 42L45 41L44 41L44 40L46 40L46 41L47 41L47 44L48 44L48 42L49 42L49 41L50 41L50 40L49 40L49 39L47 39L47 38L46 38L46 37L47 37L47 36L48 36L48 35L50 35L50 34L51 34L51 35L52 35L52 34L51 34L51 33L52 33L52 32L50 32L50 34L49 34L49 33L48 33L48 35L47 35L47 36L46 36L46 37L45 37L45 38L46 38L46 39L43 39L43 40L42 40L42 38L43 38L43 37L44 37L44 36L45 36L45 35L46 35L46 34L45 34L45 33L44 33L44 32L43 32L43 31L44 31L44 28L45 28L45 25L44 25L44 24L45 24L45 23L43 23L43 25L41 25L41 26L40 26L40 25L39 25L39 24L41 24L41 23L42 23L42 22L43 22L43 21L44 21L44 22L46 22L46 20L47 20L47 21L48 21L48 23L50 23L50 20L51 20L51 19L50 19L50 20L49 20L49 21L48 21L48 20L47 20L47 18L44 18L44 19L46 19L46 20L45 20L45 21L44 21L44 20L42 20L42 21L41 21L41 22L40 22L40 23L39 23L39 22L38 22L38 21L37 21L37 18L38 18L38 17L39 17L39 16L38 16L38 15L39 15L39 14L38 14L38 13L39 13L39 12L38 12L38 9L39 9L39 8L38 8L38 7L39 7L39 6L40 6L40 8L41 8L41 6L40 6L40 5L38 5L38 4ZM27 5L27 8L30 8L30 5ZM13 6L13 7L14 7L14 6ZM28 6L28 7L29 7L29 6ZM32 6L32 7L33 7L33 6ZM37 8L37 9L38 9L38 8ZM2 9L2 10L3 10L3 9ZM6 9L6 10L7 10L7 9ZM43 10L43 12L42 12L42 13L43 13L43 12L44 12L44 14L46 14L46 16L47 16L47 11L45 11L45 10ZM13 11L13 12L14 12L14 11ZM44 11L44 12L45 12L45 13L46 13L46 12L45 12L45 11ZM55 11L55 12L56 12L56 11ZM20 12L20 14L19 14L19 15L18 15L18 16L17 16L17 17L15 17L15 16L13 16L13 17L15 17L15 18L16 18L16 19L17 19L17 20L16 20L16 21L17 21L17 24L19 24L19 26L20 26L20 27L21 27L21 28L22 28L22 29L19 29L19 30L21 30L21 31L18 31L18 32L22 32L22 33L23 33L23 32L22 32L22 30L23 30L23 29L24 29L24 27L25 27L25 29L26 29L26 27L25 27L25 26L26 26L26 25L27 25L27 26L28 26L28 25L29 25L29 22L28 22L28 21L30 21L30 20L32 20L32 21L33 21L33 22L37 22L37 21L35 21L35 19L36 19L36 18L37 18L37 17L38 17L38 16L37 16L37 15L36 15L36 16L35 16L35 15L34 15L34 14L31 14L31 15L34 15L34 16L32 16L32 19L30 19L30 18L29 18L29 19L28 19L28 18L26 18L26 20L25 20L25 21L24 21L24 20L23 20L23 19L25 19L25 18L21 18L21 17L24 17L24 15L26 15L26 17L28 17L28 16L30 16L30 17L31 17L31 16L30 16L30 14L29 14L29 15L28 15L28 16L27 16L27 15L26 15L26 14L23 14L23 13L22 13L22 12ZM21 13L21 15L22 15L22 13ZM50 14L50 15L51 15L51 16L52 16L52 14ZM19 15L19 16L18 16L18 17L17 17L17 18L18 18L18 20L17 20L17 21L20 21L20 20L19 20L19 19L21 19L21 18L20 18L20 17L21 17L21 16L20 16L20 15ZM56 15L56 16L57 16L57 15ZM19 16L19 17L18 17L18 18L19 18L19 17L20 17L20 16ZM34 16L34 17L33 17L33 18L34 18L34 19L32 19L32 20L34 20L34 19L35 19L35 18L36 18L36 17L37 17L37 16L36 16L36 17L35 17L35 16ZM43 16L43 17L44 17L44 16ZM34 17L34 18L35 18L35 17ZM7 19L7 20L8 20L8 19ZM29 19L29 20L30 20L30 19ZM38 19L38 20L39 20L39 19ZM4 21L4 22L2 22L2 23L5 23L5 21ZM21 21L21 24L20 24L20 25L21 25L21 24L23 24L23 25L22 25L22 26L21 26L21 27L22 27L22 26L25 26L25 24L28 24L28 23L27 23L27 21L25 21L25 22L26 22L26 23L25 23L25 24L24 24L24 23L23 23L23 22L24 22L24 21ZM10 22L10 23L11 23L11 22ZM19 22L19 23L20 23L20 22ZM30 22L30 23L31 23L31 24L34 24L34 26L33 26L33 27L32 27L32 31L31 31L31 32L32 32L32 34L31 34L31 36L30 36L30 37L31 37L31 36L32 36L32 34L33 34L33 33L34 33L34 34L35 34L35 32L36 32L36 31L35 31L35 32L34 32L34 31L33 31L33 30L35 30L35 29L34 29L34 28L35 28L35 27L34 27L34 26L36 26L36 24L37 24L37 25L38 25L38 26L37 26L37 27L36 27L36 28L37 28L37 27L38 27L38 32L37 32L37 33L36 33L36 34L37 34L37 33L38 33L38 34L39 34L39 33L40 33L40 34L41 34L41 36L39 36L39 37L38 37L38 35L37 35L37 38L39 38L39 39L40 39L40 38L41 38L41 36L43 36L43 35L42 35L42 34L41 34L41 33L43 33L43 34L44 34L44 35L45 35L45 34L44 34L44 33L43 33L43 32L41 32L41 31L43 31L43 30L41 30L41 28L42 28L42 26L41 26L41 27L40 27L40 26L39 26L39 25L38 25L38 24L39 24L39 23L36 23L36 24L34 24L34 23L32 23L32 22ZM6 24L6 25L7 25L7 24ZM0 25L0 27L1 27L1 25ZM31 25L31 26L32 26L32 25ZM43 25L43 28L44 28L44 25ZM55 25L55 26L56 26L56 25ZM38 26L38 27L39 27L39 28L40 28L40 27L39 27L39 26ZM5 27L5 30L8 30L8 27ZM27 27L27 30L30 30L30 27ZM33 27L33 28L34 28L34 27ZM49 27L49 30L52 30L52 27ZM6 28L6 29L7 29L7 28ZM28 28L28 29L29 29L29 28ZM50 28L50 29L51 29L51 28ZM56 28L56 29L57 29L57 28ZM36 29L36 30L37 30L37 29ZM39 29L39 32L38 32L38 33L39 33L39 32L40 32L40 31L41 31L41 30L40 30L40 29ZM45 29L45 30L46 30L46 29ZM24 30L24 31L25 31L25 32L24 32L24 33L25 33L25 36L26 36L26 34L29 34L29 35L30 35L30 34L29 34L29 33L30 33L30 32L29 32L29 31L25 31L25 30ZM5 32L5 33L4 33L4 35L5 35L5 36L6 36L6 35L7 35L7 34L6 34L6 33L7 33L7 32ZM25 32L25 33L26 33L26 32ZM27 32L27 33L29 33L29 32ZM5 34L5 35L6 35L6 34ZM23 35L23 36L24 36L24 35ZM33 35L33 36L34 36L34 35ZM11 36L11 37L12 37L12 36ZM5 37L5 38L6 38L6 39L3 39L3 40L4 40L4 41L5 41L5 42L6 42L6 43L7 43L7 42L6 42L6 41L5 41L5 40L6 40L6 39L7 39L7 38L6 38L6 37ZM13 37L13 38L11 38L11 41L12 41L12 39L13 39L13 38L16 38L16 37ZM25 37L25 38L26 38L26 37ZM39 37L39 38L40 38L40 37ZM46 39L46 40L47 40L47 41L49 41L49 40L47 40L47 39ZM43 41L43 42L44 42L44 41ZM51 42L51 43L52 43L52 42ZM10 43L10 44L11 44L11 45L9 45L9 47L10 47L10 46L11 46L11 45L13 45L13 46L14 46L14 45L15 45L15 44L14 44L14 45L13 45L13 44L11 44L11 43ZM38 44L38 45L39 45L39 48L40 48L40 45L39 45L39 44ZM21 45L21 46L22 46L22 45ZM20 47L20 48L21 48L21 47ZM30 47L30 48L31 48L31 47ZM46 48L46 49L47 49L47 48ZM15 49L15 50L16 50L16 49ZM27 49L27 52L30 52L30 49ZM44 49L44 50L45 50L45 49ZM49 49L49 52L52 52L52 49ZM53 49L53 50L54 50L54 51L55 51L55 50L54 50L54 49ZM18 50L18 52L19 52L19 50ZM21 50L21 52L22 52L22 50ZM28 50L28 51L29 51L29 50ZM41 50L41 51L42 51L42 50ZM46 50L46 51L47 51L47 50ZM50 50L50 51L51 51L51 50ZM38 51L38 52L37 52L37 53L38 53L38 52L39 52L39 51ZM16 52L16 53L17 53L17 54L18 54L18 53L17 53L17 52ZM42 52L42 53L43 53L43 52ZM46 52L46 53L47 53L47 52ZM31 54L31 55L32 55L32 54ZM15 55L15 56L16 56L16 55ZM41 56L41 57L44 57L44 56ZM0 0L0 7L7 7L7 0ZM1 1L1 6L6 6L6 1ZM2 2L2 5L5 5L5 2ZM50 0L50 7L57 7L57 0ZM51 1L51 6L56 6L56 1ZM52 2L52 5L55 5L55 2ZM0 50L0 57L7 57L7 50ZM1 51L1 56L6 56L6 51ZM2 52L2 55L5 55L5 52Z" fill="#000000"/></g></g></svg>
