<?xml version="1.0" encoding="UTF-8"?>
<svg xmlns="http://www.w3.org/2000/svg" version="1.1" width="300" height="300" viewBox="0 0 300 300"><rect x="0" y="0" width="300" height="300" fill="#ffffff"/><g transform="scale(5.263)"><g transform="translate(0,0)"><path fill-rule="evenodd" d="M12 0L12 2L11 2L11 1L10 1L10 2L9 2L9 1L8 1L8 2L9 2L9 3L8 3L8 4L10 4L10 5L8 5L8 7L9 7L9 8L6 8L6 9L5 9L5 8L0 8L0 9L2 9L2 10L1 10L1 11L2 11L2 14L5 14L5 15L3 15L3 16L2 16L2 17L1 17L1 18L2 18L2 19L3 19L3 18L5 18L5 20L4 20L4 23L3 23L3 20L1 20L1 19L0 19L0 20L1 20L1 21L0 21L0 23L1 23L1 21L2 21L2 23L3 23L3 24L2 24L2 25L3 25L3 24L4 24L4 25L7 25L7 24L5 24L5 23L7 23L7 22L8 22L8 21L9 21L9 20L10 20L10 21L11 21L11 22L10 22L10 23L8 23L8 24L12 24L12 26L11 26L11 25L8 25L8 26L4 26L4 29L3 29L3 28L1 28L1 27L3 27L3 26L1 26L1 24L0 24L0 29L3 29L3 30L2 30L2 31L1 31L1 30L0 30L0 31L1 31L1 32L0 32L0 33L1 33L1 32L2 32L2 31L3 31L3 30L4 30L4 32L5 32L5 33L7 33L7 34L6 34L6 35L7 35L7 36L6 36L6 37L10 37L10 38L9 38L9 39L8 39L8 38L6 38L6 39L7 39L7 40L6 40L6 41L7 41L7 42L6 42L6 43L4 43L4 40L5 40L5 38L4 38L4 40L3 40L3 39L1 39L1 41L3 41L3 42L0 42L0 44L1 44L1 43L2 43L2 44L4 44L4 46L5 46L5 47L3 47L3 46L2 46L2 47L1 47L1 45L0 45L0 48L5 48L5 47L11 47L11 49L12 49L12 50L10 50L10 49L9 49L9 48L6 48L6 49L8 49L8 51L9 51L9 50L10 50L10 53L9 53L9 52L8 52L8 57L13 57L13 56L14 56L14 57L20 57L20 56L18 56L18 53L20 53L20 52L19 52L19 51L20 51L20 49L21 49L21 52L23 52L23 51L22 51L22 49L21 49L21 47L25 47L25 48L26 48L26 52L25 52L25 49L24 49L24 48L23 48L23 49L24 49L24 53L21 53L21 54L24 54L24 53L26 53L26 54L25 54L25 57L26 57L26 56L28 56L28 55L27 55L27 54L28 54L28 53L29 53L29 54L30 54L30 53L31 53L31 52L34 52L34 51L35 51L35 50L34 50L34 51L33 51L33 49L34 49L34 48L35 48L35 49L36 49L36 50L38 50L38 51L37 51L37 52L35 52L35 54L33 54L33 53L32 53L32 54L31 54L31 55L34 55L34 56L30 56L30 55L29 55L29 56L30 56L30 57L35 57L35 54L36 54L36 55L39 55L39 56L36 56L36 57L39 57L39 56L41 56L41 55L40 55L40 54L37 54L37 52L38 52L38 51L39 51L39 52L41 52L41 54L44 54L44 56L45 56L45 57L46 57L46 56L45 56L45 53L44 53L44 52L48 52L48 53L47 53L47 54L46 54L46 55L49 55L49 56L48 56L48 57L49 57L49 56L50 56L50 57L53 57L53 56L54 56L54 57L56 57L56 56L55 56L55 55L54 55L54 54L55 54L55 53L57 53L57 52L55 52L55 51L56 51L56 49L57 49L57 47L56 47L56 49L55 49L55 45L56 45L56 46L57 46L57 45L56 45L56 44L57 44L57 43L56 43L56 42L57 42L57 41L56 41L56 42L54 42L54 41L55 41L55 39L57 39L57 35L56 35L56 33L57 33L57 31L56 31L56 30L55 30L55 28L56 28L56 29L57 29L57 28L56 28L56 26L57 26L57 23L54 23L54 22L52 22L52 21L51 21L51 20L50 20L50 21L48 21L48 20L47 20L47 19L48 19L48 18L49 18L49 19L50 19L50 17L47 17L47 16L48 16L48 15L47 15L47 16L46 16L46 17L47 17L47 18L43 18L43 17L44 17L44 16L45 16L45 15L44 15L44 10L45 10L45 9L44 9L44 7L45 7L45 8L46 8L46 7L47 7L47 8L48 8L48 7L49 7L49 6L48 6L48 7L47 7L47 5L48 5L48 0L45 0L45 1L47 1L47 2L42 2L42 1L44 1L44 0L41 0L41 1L40 1L40 0L39 0L39 1L38 1L38 0L37 0L37 1L36 1L36 0L35 0L35 1L34 1L34 2L35 2L35 3L36 3L36 4L35 4L35 5L33 5L33 4L34 4L34 3L33 3L33 1L32 1L32 0L29 0L29 2L28 2L28 3L27 3L27 4L26 4L26 3L25 3L25 1L26 1L26 2L27 2L27 1L28 1L28 0L27 0L27 1L26 1L26 0L21 0L21 1L20 1L20 0L19 0L19 1L18 1L18 2L17 2L17 3L18 3L18 4L17 4L17 5L18 5L18 4L19 4L19 5L20 5L20 7L19 7L19 6L18 6L18 9L21 9L21 10L22 10L22 11L19 11L19 10L18 10L18 11L17 11L17 10L16 10L16 9L17 9L17 8L16 8L16 7L17 7L17 6L16 6L16 7L15 7L15 6L14 6L14 7L15 7L15 8L16 8L16 9L15 9L15 10L14 10L14 8L12 8L12 10L13 10L13 11L14 11L14 12L13 12L13 13L15 13L15 12L16 12L16 13L17 13L17 15L13 15L13 14L12 14L12 13L10 13L10 16L9 16L9 15L8 15L8 18L6 18L6 17L7 17L7 16L6 16L6 17L5 17L5 15L7 15L7 14L9 14L9 11L10 11L10 12L12 12L12 11L10 11L10 10L11 10L11 9L10 9L10 7L11 7L11 6L12 6L12 7L13 7L13 4L14 4L14 3L15 3L15 2L14 2L14 3L12 3L12 2L13 2L13 0ZM19 1L19 2L18 2L18 3L19 3L19 4L22 4L22 5L21 5L21 7L22 7L22 5L24 5L24 4L23 4L23 3L24 3L24 1L23 1L23 2L22 2L22 1L21 1L21 3L19 3L19 2L20 2L20 1ZM30 1L30 3L28 3L28 4L31 4L31 2L32 2L32 1ZM37 1L37 2L36 2L36 3L38 3L38 1ZM10 3L10 4L11 4L11 5L12 5L12 4L11 4L11 3ZM32 3L32 4L33 4L33 3ZM39 3L39 4L38 4L38 5L39 5L39 4L40 4L40 6L39 6L39 7L40 7L40 8L39 8L39 9L38 9L38 8L37 8L37 7L38 7L38 6L37 6L37 5L35 5L35 7L36 7L36 8L34 8L34 6L33 6L33 5L32 5L32 6L31 6L31 7L32 7L32 8L31 8L31 9L32 9L32 10L31 10L31 11L30 11L30 12L29 12L29 9L26 9L26 10L25 10L25 11L26 11L26 12L23 12L23 13L22 13L22 12L21 12L21 13L19 13L19 14L18 14L18 15L17 15L17 16L19 16L19 17L20 17L20 18L21 18L21 20L20 20L20 19L18 19L18 20L20 20L20 21L19 21L19 22L18 22L18 21L17 21L17 20L16 20L16 18L17 18L17 17L15 17L15 16L14 16L14 17L13 17L13 16L12 16L12 17L10 17L10 18L8 18L8 19L6 19L6 20L5 20L5 21L6 21L6 22L7 22L7 21L6 21L6 20L8 20L8 19L10 19L10 20L12 20L12 19L14 19L14 20L13 20L13 21L12 21L12 22L11 22L11 23L13 23L13 25L14 25L14 26L12 26L12 27L11 27L11 28L10 28L10 30L9 30L9 32L8 32L8 31L6 31L6 32L7 32L7 33L9 33L9 36L10 36L10 33L9 33L9 32L12 32L12 33L11 33L11 34L13 34L13 33L14 33L14 32L16 32L16 33L15 33L15 35L13 35L13 36L14 36L14 37L13 37L13 38L14 38L14 37L16 37L16 38L15 38L15 39L12 39L12 42L14 42L14 43L12 43L12 45L14 45L14 46L15 46L15 47L13 47L13 51L12 51L12 52L11 52L11 53L10 53L10 56L11 56L11 53L13 53L13 54L14 54L14 53L15 53L15 54L16 54L16 53L18 53L18 52L17 52L17 49L18 49L18 50L19 50L19 49L18 49L18 47L21 47L21 45L22 45L22 46L23 46L23 45L24 45L24 44L23 44L23 45L22 45L22 44L21 44L21 43L22 43L22 42L23 42L23 43L24 43L24 42L23 42L23 41L25 41L25 43L27 43L27 42L28 42L28 43L29 43L29 45L28 45L28 44L26 44L26 45L25 45L25 47L26 47L26 45L28 45L28 46L29 46L29 45L31 45L31 44L32 44L32 47L30 47L30 48L32 48L32 49L31 49L31 51L32 51L32 49L33 49L33 48L34 48L34 47L33 47L33 46L35 46L35 48L37 48L37 49L38 49L38 50L39 50L39 51L41 51L41 48L42 48L42 49L44 49L44 50L42 50L42 52L44 52L44 51L47 51L47 50L48 50L48 48L49 48L49 45L48 45L48 44L49 44L49 43L51 43L51 44L50 44L50 45L51 45L51 46L50 46L50 48L52 48L52 47L53 47L53 38L54 38L54 39L55 39L55 38L56 38L56 35L55 35L55 36L53 36L53 35L54 35L54 34L55 34L55 33L56 33L56 32L53 32L53 31L48 31L48 29L47 29L47 28L48 28L48 27L47 27L47 28L46 28L46 29L45 29L45 28L40 28L40 27L41 27L41 26L42 26L42 27L43 27L43 26L44 26L44 27L46 27L46 26L47 26L47 25L48 25L48 24L50 24L50 23L51 23L51 21L50 21L50 23L48 23L48 21L47 21L47 20L46 20L46 19L45 19L45 20L44 20L44 21L45 21L45 22L43 22L43 24L42 24L42 22L41 22L41 23L40 23L40 21L41 21L41 20L40 20L40 19L42 19L42 21L43 21L43 18L42 18L42 15L43 15L43 14L42 14L42 13L43 13L43 12L41 12L41 9L43 9L43 8L41 8L41 7L42 7L42 5L41 5L41 4L42 4L42 3ZM43 3L43 4L45 4L45 5L44 5L44 6L43 6L43 7L44 7L44 6L45 6L45 7L46 7L46 6L45 6L45 5L47 5L47 3L46 3L46 4L45 4L45 3ZM15 4L15 5L16 5L16 4ZM25 4L25 8L24 8L24 6L23 6L23 8L21 8L21 9L25 9L25 8L26 8L26 4ZM27 5L27 8L30 8L30 5ZM9 6L9 7L10 7L10 6ZM28 6L28 7L29 7L29 6ZM32 6L32 7L33 7L33 6ZM36 6L36 7L37 7L37 6ZM40 6L40 7L41 7L41 6ZM36 8L36 9L35 9L35 10L34 10L34 9L33 9L33 11L32 11L32 12L31 12L31 14L30 14L30 13L27 13L27 16L26 16L26 14L25 14L25 13L23 13L23 14L22 14L22 13L21 13L21 16L20 16L20 17L22 17L22 20L23 20L23 19L25 19L25 20L24 20L24 21L21 21L21 22L22 22L22 23L23 23L23 24L24 24L24 23L23 23L23 22L24 22L24 21L25 21L25 22L26 22L26 23L25 23L25 24L27 24L27 25L28 25L28 24L29 24L29 22L30 22L30 25L29 25L29 26L25 26L25 25L22 25L22 24L20 24L20 25L22 25L22 26L21 26L21 27L20 27L20 26L19 26L19 24L18 24L18 22L17 22L17 21L16 21L16 20L15 20L15 21L16 21L16 22L14 22L14 21L13 21L13 22L14 22L14 23L16 23L16 25L15 25L15 26L14 26L14 29L15 29L15 28L16 28L16 29L18 29L18 30L12 30L12 28L11 28L11 30L10 30L10 31L11 31L11 30L12 30L12 32L13 32L13 31L16 31L16 32L17 32L17 33L19 33L19 32L17 32L17 31L20 31L20 33L21 33L21 35L22 35L22 33L21 33L21 32L22 32L22 31L23 31L23 33L24 33L24 34L23 34L23 35L25 35L25 33L26 33L26 39L27 39L27 41L26 41L26 42L27 42L27 41L29 41L29 40L30 40L30 41L31 41L31 42L29 42L29 43L30 43L30 44L31 44L31 42L32 42L32 41L31 41L31 40L32 40L32 36L31 36L31 33L32 33L32 34L33 34L33 35L34 35L34 36L33 36L33 37L34 37L34 36L35 36L35 39L36 39L36 37L37 37L37 35L38 35L38 36L41 36L41 34L42 34L42 35L43 35L43 37L41 37L41 38L37 38L37 39L39 39L39 40L40 40L40 39L41 39L41 40L46 40L46 41L47 41L47 44L46 44L46 42L45 42L45 41L41 41L41 42L39 42L39 43L41 43L41 44L43 44L43 45L41 45L41 46L42 46L42 47L44 47L44 48L45 48L45 47L47 47L47 46L48 46L48 45L47 45L47 44L48 44L48 43L49 43L49 41L50 41L50 40L51 40L51 39L52 39L52 38L51 38L51 39L50 39L50 37L52 37L52 36L50 36L50 34L49 34L49 32L48 32L48 31L45 31L45 29L44 29L44 31L45 31L45 33L44 33L44 32L43 32L43 33L42 33L42 31L41 31L41 30L43 30L43 29L41 29L41 30L39 30L39 31L38 31L38 32L40 32L40 31L41 31L41 33L40 33L40 35L39 35L39 34L38 34L38 33L37 33L37 32L36 32L36 31L35 31L35 30L38 30L38 29L37 29L37 28L36 28L36 27L38 27L38 28L39 28L39 26L36 26L36 27L35 27L35 26L34 26L34 24L35 24L35 25L38 25L38 24L39 24L39 22L38 22L38 21L40 21L40 20L38 20L38 19L40 19L40 18L41 18L41 17L39 17L39 16L40 16L40 15L42 15L42 14L38 14L38 12L36 12L36 10L37 10L37 11L39 11L39 12L40 12L40 11L39 11L39 10L37 10L37 8ZM49 8L49 9L47 9L47 11L45 11L45 13L46 13L46 12L47 12L47 11L48 11L48 13L47 13L47 14L50 14L50 13L51 13L51 15L52 15L52 16L53 16L53 17L54 17L54 16L55 16L55 18L57 18L57 16L55 16L55 15L56 15L56 14L55 14L55 11L56 11L56 10L57 10L57 9L56 9L56 8L55 8L55 9L54 9L54 8L53 8L53 9L54 9L54 10L55 10L55 11L53 11L53 10L52 10L52 8L51 8L51 12L49 12L49 10L50 10L50 8ZM3 9L3 10L2 10L2 11L4 11L4 10L5 10L5 9ZM6 9L6 10L10 10L10 9ZM55 9L55 10L56 10L56 9ZM23 10L23 11L24 11L24 10ZM26 10L26 11L27 11L27 10ZM42 10L42 11L43 11L43 10ZM5 11L5 12L4 12L4 13L5 13L5 14L7 14L7 13L8 13L8 12L7 12L7 11ZM16 11L16 12L17 12L17 13L18 13L18 12L17 12L17 11ZM33 11L33 12L32 12L32 15L31 15L31 16L29 16L29 15L30 15L30 14L28 14L28 16L27 16L27 17L26 17L26 16L25 16L25 15L24 15L24 14L23 14L23 15L24 15L24 17L25 17L25 18L27 18L27 19L26 19L26 21L28 21L28 22L29 22L29 21L30 21L30 18L29 18L29 19L28 19L28 18L27 18L27 17L28 17L28 16L29 16L29 17L31 17L31 20L32 20L32 22L34 22L34 23L31 23L31 24L34 24L34 23L35 23L35 24L36 24L36 23L37 23L37 24L38 24L38 22L37 22L37 21L38 21L38 20L37 20L37 19L38 19L38 18L39 18L39 17L38 17L38 16L37 16L37 17L38 17L38 18L37 18L37 19L36 19L36 20L37 20L37 21L36 21L36 22L35 22L35 20L34 20L34 18L35 18L35 17L34 17L34 16L35 16L35 11ZM52 11L52 12L51 12L51 13L54 13L54 12L53 12L53 11ZM0 12L0 14L1 14L1 12ZM6 12L6 13L7 13L7 12ZM56 12L56 13L57 13L57 12ZM11 14L11 15L12 15L12 14ZM19 14L19 15L20 15L20 14ZM33 14L33 16L34 16L34 14ZM52 14L52 15L55 15L55 14ZM49 15L49 16L50 16L50 15ZM3 16L3 17L2 17L2 18L3 18L3 17L4 17L4 16ZM22 16L22 17L23 17L23 16ZM31 16L31 17L32 17L32 16ZM12 17L12 18L11 18L11 19L12 19L12 18L13 18L13 17ZM14 17L14 18L15 18L15 17ZM33 17L33 18L32 18L32 19L33 19L33 18L34 18L34 17ZM51 17L51 18L52 18L52 19L53 19L53 20L54 20L54 21L55 21L55 22L57 22L57 20L56 20L56 21L55 21L55 19L53 19L53 18L52 18L52 17ZM33 20L33 21L34 21L34 20ZM45 20L45 21L46 21L46 20ZM19 22L19 23L20 23L20 22ZM45 22L45 23L46 23L46 22ZM27 23L27 24L28 24L28 23ZM52 23L52 24L51 24L51 25L50 25L50 26L52 26L52 25L53 25L53 27L54 27L54 25L53 25L53 23ZM41 24L41 25L40 25L40 26L41 26L41 25L42 25L42 26L43 26L43 25L44 25L44 26L46 26L46 25L47 25L47 24L46 24L46 25L44 25L44 24L43 24L43 25L42 25L42 24ZM16 25L16 26L15 26L15 27L16 27L16 28L18 28L18 29L20 29L20 31L21 31L21 30L23 30L23 31L25 31L25 32L24 32L24 33L25 33L25 32L27 32L27 35L28 35L28 34L29 34L29 35L30 35L30 34L29 34L29 33L30 33L30 31L29 31L29 33L28 33L28 32L27 32L27 31L25 31L25 30L23 30L23 29L24 29L24 28L25 28L25 29L26 29L26 27L25 27L25 26L24 26L24 27L23 27L23 26L22 26L22 27L21 27L21 28L22 28L22 29L20 29L20 28L19 28L19 26L18 26L18 27L17 27L17 25ZM31 25L31 26L32 26L32 25ZM33 26L33 28L32 28L32 27L31 27L31 28L32 28L32 29L31 29L31 30L32 30L32 31L33 31L33 32L32 32L32 33L34 33L34 34L35 34L35 32L34 32L34 30L35 30L35 29L36 29L36 28L35 28L35 27L34 27L34 26ZM5 27L5 30L8 30L8 27ZM27 27L27 30L30 30L30 27ZM49 27L49 30L52 30L52 27ZM6 28L6 29L7 29L7 28ZM28 28L28 29L29 29L29 28ZM33 28L33 30L34 30L34 28ZM50 28L50 29L51 29L51 28ZM53 28L53 29L54 29L54 28ZM46 32L46 33L45 33L45 35L44 35L44 34L43 34L43 35L44 35L44 38L41 38L41 39L44 39L44 38L45 38L45 39L46 39L46 40L47 40L47 41L49 41L49 40L47 40L47 38L48 38L48 39L49 39L49 38L48 38L48 36L47 36L47 35L48 35L48 34L47 34L47 33L48 33L48 32ZM50 32L50 33L51 33L51 32ZM52 32L52 33L53 33L53 34L54 34L54 33L53 33L53 32ZM3 33L3 34L2 34L2 35L3 35L3 36L1 36L1 34L0 34L0 38L3 38L3 37L4 37L4 35L5 35L5 34L4 34L4 33ZM16 34L16 35L15 35L15 36L17 36L17 38L18 38L18 39L17 39L17 40L16 40L16 39L15 39L15 41L21 41L21 42L22 42L22 41L21 41L21 40L23 40L23 39L24 39L24 40L25 40L25 36L23 36L23 37L24 37L24 38L23 38L23 39L21 39L21 37L19 37L19 36L20 36L20 35L19 35L19 34ZM36 34L36 35L35 35L35 36L36 36L36 35L37 35L37 34ZM45 35L45 36L46 36L46 35ZM27 36L27 37L28 37L28 38L27 38L27 39L28 39L28 40L29 40L29 38L31 38L31 37L30 37L30 36ZM49 36L49 37L50 37L50 36ZM11 37L11 38L12 38L12 37ZM54 37L54 38L55 38L55 37ZM19 38L19 39L18 39L18 40L19 40L19 39L20 39L20 38ZM9 39L9 41L8 41L8 40L7 40L7 41L8 41L8 43L10 43L10 40L11 40L11 39ZM33 39L33 40L34 40L34 39ZM35 40L35 43L34 43L34 41L33 41L33 43L32 43L32 44L33 44L33 45L34 45L34 44L36 44L36 46L37 46L37 48L38 48L38 47L39 47L39 48L40 48L40 47L39 47L39 46L40 46L40 45L39 45L39 44L36 44L36 41L37 41L37 43L38 43L38 40ZM15 42L15 43L17 43L17 44L18 44L18 45L17 45L17 47L15 47L15 49L14 49L14 51L13 51L13 52L15 52L15 53L16 53L16 51L15 51L15 49L17 49L17 47L18 47L18 46L19 46L19 45L21 45L21 44L19 44L19 43L20 43L20 42L18 42L18 43L17 43L17 42ZM51 42L51 43L52 43L52 42ZM6 43L6 44L5 44L5 46L7 46L7 45L8 45L8 46L9 46L9 45L8 45L8 44L7 44L7 43ZM43 43L43 44L44 44L44 45L45 45L45 43ZM6 44L6 45L7 45L7 44ZM14 44L14 45L16 45L16 44ZM54 44L54 45L55 45L55 44ZM38 45L38 46L39 46L39 45ZM46 45L46 46L47 46L47 45ZM11 46L11 47L12 47L12 46ZM44 46L44 47L45 47L45 46ZM28 47L28 48L29 48L29 47ZM46 48L46 49L47 49L47 48ZM53 48L53 50L54 50L54 51L55 51L55 49L54 49L54 48ZM27 49L27 52L30 52L30 49ZM39 49L39 50L40 50L40 49ZM49 49L49 52L52 52L52 49ZM28 50L28 51L29 51L29 50ZM50 50L50 51L51 51L51 50ZM54 52L54 53L53 53L53 54L52 54L52 53L50 53L50 56L51 56L51 54L52 54L52 56L53 56L53 54L54 54L54 53L55 53L55 52ZM48 53L48 54L49 54L49 53ZM19 54L19 55L20 55L20 54ZM12 55L12 56L13 56L13 55ZM15 55L15 56L16 56L16 55ZM22 55L22 56L23 56L23 57L24 57L24 55ZM42 56L42 57L43 57L43 56ZM0 0L0 7L7 7L7 0ZM1 1L1 6L6 6L6 1ZM2 2L2 5L5 5L5 2ZM50 0L50 7L57 7L57 0ZM51 1L51 6L56 6L56 1ZM52 2L52 5L55 5L55 2ZM0 50L0 57L7 57L7 50ZM1 51L1 56L6 56L6 51ZM2 52L2 55L5 55L5 52Z" fill="#000000"/></g></g></svg>
